<?xml version="1.0" encoding="UTF-8" standalone="no"?>
<!-- Created with Inkscape (http://www.inkscape.org/) -->

<svg
   version="1.1"
   id="svg2"
   xml:space="preserve"
   width="358.66666"
   height="89.333336"
   viewBox="0 0 358.66666 89.333336"
   sodipodi:docname="11-14.eps"
   xmlns:inkscape="http://www.inkscape.org/namespaces/inkscape"
   xmlns:sodipodi="http://sodipodi.sourceforge.net/DTD/sodipodi-0.dtd"
   xmlns="http://www.w3.org/2000/svg"
   xmlns:svg="http://www.w3.org/2000/svg"><defs
     id="defs6" /><sodipodi:namedview
     id="namedview4"
     pagecolor="#ffffff"
     bordercolor="#666666"
     borderopacity="1.0"
     inkscape:pageshadow="2"
     inkscape:pageopacity="0.0"
     inkscape:pagecheckerboard="0" /><g
     id="g8"
     inkscape:groupmode="layer"
     inkscape:label="ink_ext_XXXXXX"
     transform="matrix(1.3333333,0,0,-1.3333333,0,89.333333)"><g
       id="g10"
       transform="scale(0.1)"><path
         d="M 496.422,336.707 H 1100.56"
         style="fill:none;stroke:#100f0d;stroke-width:5.0003;stroke-linecap:butt;stroke-linejoin:miter;stroke-miterlimit:10;stroke-dasharray:none;stroke-opacity:1"
         id="path12" /><path
         d="m 1090.65,322.18 54.21,14.527 -54.21,14.523 z"
         style="fill:#100f0d;fill-opacity:1;fill-rule:nonzero;stroke:none"
         id="path14" /><path
         d="m 1654.07,336.707 h 485.97"
         style="fill:none;stroke:#100f0d;stroke-width:5.0003;stroke-linecap:butt;stroke-linejoin:miter;stroke-miterlimit:10;stroke-dasharray:none;stroke-opacity:1"
         id="path16" /><path
         d="m 2130.13,322.18 54.19,14.527 -54.19,14.523 z"
         style="fill:#100f0d;fill-opacity:1;fill-rule:nonzero;stroke:none"
         id="path18" /><path
         d="m 1657.57,397.086 h 478.95"
         style="fill:none;stroke:#100f0d;stroke-width:5.0003;stroke-linecap:butt;stroke-linejoin:miter;stroke-miterlimit:10;stroke-dasharray:none;stroke-opacity:1"
         id="path20" /><path
         d="m 2126.62,382.559 54.2,14.527 -54.2,14.527 z"
         style="fill:#100f0d;fill-opacity:1;fill-rule:nonzero;stroke:none"
         id="path22" /><g
         id="g24"
         transform="scale(10)"><text
           transform="matrix(1,0,0,-1,178.883,42.7086)"
           style="font-variant:normal;font-weight:normal;font-size:6.99976px;font-family:Arial;-inkscape-font-specification:ArialMT;writing-mode:lr-tb;fill:#100f0d;fill-opacity:1;fill-rule:nonzero;stroke:none"
           id="text28"><tspan
             x="0 5.0538268 8.945693 12.83756 16.729427 20.621292 24.121174"
             y="0"
             sodipodi:role="line"
             id="tspan26">Request</tspan></text></g><path
         d="m 1399.45,658.711 c 144.5,0 261.62,-117.133 261.62,-261.625 0,-144.496 -117.12,-261.625 -261.62,-261.625 -144.5,0 -261.63,117.129 -261.63,261.625 0,144.492 117.13,261.625 261.63,261.625"
         style="fill:#def1c3;fill-opacity:1;fill-rule:nonzero;stroke:none"
         id="path30" /><path
         d="m 1399.45,658.711 c 144.5,0 261.62,-117.133 261.62,-261.625 0,-144.496 -117.12,-261.625 -261.62,-261.625 -144.5,0 -261.63,117.129 -261.63,261.625 0,144.492 117.13,261.625 261.63,261.625 z"
         style="fill:none;stroke:#298a3c;stroke-width:5.0003;stroke-linecap:butt;stroke-linejoin:miter;stroke-miterlimit:4;stroke-dasharray:none;stroke-opacity:1"
         id="path32" /><g
         id="g34"
         transform="scale(10)"><text
           transform="matrix(1,0,0,-1,130.996,46.2414)"
           style="font-variant:normal;font-weight:normal;font-size:6.99976px;font-family:Arial;-inkscape-font-specification:ArialMT;writing-mode:lr-tb;fill:#100f0d;fill-opacity:1;fill-rule:nonzero;stroke:none"
           id="text42"><tspan
             x="0 4.6688399 8.5607061 10.506639 14.006519"
             y="0"
             sodipodi:role="line"
             id="tspan36">Kafka</tspan><tspan
             x="-4.8636699 -0.97180343 1.3591167 5.2509832 9.1428499 13.034717 16.534595 20.426462"
             y="8.3999996"
             sodipodi:role="line"
             id="tspan38">producer</tspan><tspan
             x="-13.02969 -10.69877 -6.8069034 -3.3070233 0.58484322 4.084723 6.0306563 7.5846033 11.084483 13.415403 17.30727 21.199137 24.699017 28.590883"
             y="16.79961"
             sodipodi:role="line"
             id="tspan40">(exactly-once)</tspan></text></g><path
         d="M 503.867,397.086 H 1093.52"
         style="fill:none;stroke:#100f0d;stroke-width:5.0003;stroke-linecap:butt;stroke-linejoin:miter;stroke-miterlimit:10;stroke-dasharray:none;stroke-opacity:1"
         id="path44" /><path
         d="m 1083.63,382.559 54.19,14.527 -54.19,14.527 z"
         style="fill:#100f0d;fill-opacity:1;fill-rule:nonzero;stroke:none"
         id="path46" /><g
         id="g48"
         transform="scale(10)"><text
           transform="matrix(1,0,0,-1,65.5207,42.7086)"
           style="font-variant:normal;font-weight:normal;font-size:6.99976px;font-family:Arial;-inkscape-font-specification:ArialMT;writing-mode:lr-tb;fill:#100f0d;fill-opacity:1;fill-rule:nonzero;stroke:none"
           id="text52"><tspan
             x="0 5.0538268 8.945693 12.83756 16.729427 20.621292 24.121174 26.067106 28.398026"
             y="0"
             sodipodi:role="line"
             id="tspan50">Request-A</tspan></text></g><path
         d="m 257.344,643.621 c 136.16,0 246.535,-110.379 246.535,-246.535 0,-136.156 -110.375,-246.539 -246.535,-246.539 -136.156,0 -246.5315,110.383 -246.5315,246.539 0,136.156 110.3755,246.535 246.5315,246.535"
         style="fill:#c9e4f3;fill-opacity:1;fill-rule:nonzero;stroke:none"
         id="path54" /><path
         d="m 257.344,643.621 c 136.16,0 246.535,-110.379 246.535,-246.535 0,-136.156 -110.375,-246.539 -246.535,-246.539 -136.156,0 -246.5315,110.383 -246.5315,246.539 0,136.156 110.3755,246.535 246.5315,246.535 z"
         style="fill:none;stroke:#293985;stroke-width:5.0003;stroke-linecap:butt;stroke-linejoin:miter;stroke-miterlimit:4;stroke-dasharray:none;stroke-opacity:1"
         id="path56" /><g
         id="g58"
         transform="scale(10)"><text
           transform="matrix(1,0,0,-1,16.7863,49.7371)"
           style="font-variant:normal;font-weight:normal;font-size:6.99976px;font-family:Arial;-inkscape-font-specification:ArialMT;writing-mode:lr-tb;fill:#100f0d;fill-opacity:1;fill-rule:nonzero;stroke:none"
           id="text66"><tspan
             x="0 5.0538268 6.6077733 8.1617203 12.053587 15.945454"
             y="0"
             sodipodi:role="line"
             id="tspan60">Client</tspan><tspan
             x="-7.7859402 -3.8940735 -0.0022068799 3.8896596 5.4436064 6.9975533 10.497433 14.389299 16.335234 17.889179 21.781046"
             y="8.3999996"
             sodipodi:role="line"
             id="tspan62">application</tspan><tspan
             x="-13.61524 -11.28432 -7.3924532 -5.4465199 -3.1156001 -1.5616533 2.3302133 6.2220798 9.7219601 11.667893 13.998814 17.89068 21.782547 25.282427 29.174294"
             y="16.799999"
             sodipodi:role="line"
             id="tspan64">(at-least-once)</tspan></text></g><path
         d="m 2220.56,517.84 h 410.55 c 19.99,0 36.21,-16.223 36.21,-36.231 V 312.566 c 0,-20.011 -16.22,-36.23 -36.21,-36.23 h -410.55 c -20.01,0 -36.24,16.219 -36.24,36.23 v 169.043 c 0,20.008 16.23,36.231 36.24,36.231"
         style="fill:#fcfccf;fill-opacity:1;fill-rule:nonzero;stroke:none"
         id="path68" /><path
         d="m 2220.56,517.84 h 410.55 c 19.99,0 36.21,-16.223 36.21,-36.231 V 312.566 c 0,-20.011 -16.22,-36.23 -36.21,-36.23 h -410.55 c -20.01,0 -36.24,16.219 -36.24,36.23 v 169.043 c 0,20.008 16.23,36.231 36.24,36.231 z"
         style="fill:none;stroke:#c49d19;stroke-width:5.0003;stroke-linecap:butt;stroke-linejoin:miter;stroke-miterlimit:4;stroke-dasharray:none;stroke-opacity:1"
         id="path70" /><g
         id="g72"
         transform="scale(10)"><text
           transform="matrix(1,0,0,-1,225.267,37.8422)"
           style="font-variant:normal;font-weight:normal;font-size:6.99976px;font-family:Arial;-inkscape-font-specification:ArialMT;writing-mode:lr-tb;fill:#100f0d;fill-opacity:1;fill-rule:nonzero;stroke:none"
           id="text78"><tspan
             x="0 4.6688399 8.5607061 10.506639 14.006519 17.898386 19.84432 21.790253 25.682119 29.573986 31.127934"
             y="0"
             sodipodi:role="line"
             id="tspan74">Kafka topic</tspan><tspan
             x="-167.519 -162.46518 -158.5733 -154.68144 -150.78957 -146.89771 -143.39783 -141.45189 -139.12097 -132.88893 -130.558 -126.66614 -124.72021 -122.38929 -46.371891 -41.318066 -37.426201 -33.534332 -29.642466 -25.750599 -22.250719"
             y="12.3789"
             sodipodi:role="line"
             id="tspan76">Request-AretryRequest</tspan></text></g><path
         d="M 171.813,14.707 H 2637.65"
         style="fill:none;stroke:#100f0d;stroke-width:5.0003;stroke-linecap:butt;stroke-linejoin:miter;stroke-miterlimit:10;stroke-dasharray:none;stroke-opacity:1"
         id="path80" /><path
         d="m 2627.74,0.1875 54.21,14.5195 -54.21,14.5313 z"
         style="fill:#100f0d;fill-opacity:1;fill-rule:nonzero;stroke:none"
         id="path82" /><g
         id="g84"
         transform="scale(10)"><text
           transform="matrix(1,0,0,-1,122.073,4.01875)"
           style="font-variant:normal;font-weight:normal;font-size:6.99976px;font-family:Arial;-inkscape-font-specification:ArialMT;writing-mode:lr-tb;fill:#100f0d;fill-opacity:1;fill-rule:nonzero;stroke:none"
           id="text88"><tspan
             x="0 4.6688399 6.6147733 8.945693 10.49964 14.391506 18.283373 21.783253 23.729187 26.060106 29.951973 33.843838 37.343719"
             y="0"
             sodipodi:role="line"
             id="tspan86">At-least-once</tspan></text></g></g></g></svg>
