<?xml version="1.0" encoding="UTF-8" standalone="no"?>
<!-- Created with Inkscape (http://www.inkscape.org/) -->

<svg
   version="1.1"
   id="svg2"
   xml:space="preserve"
   width="366.66666"
   height="65.333336"
   viewBox="0 0 366.66666 65.333336"
   sodipodi:docname="11-15.eps"
   xmlns:inkscape="http://www.inkscape.org/namespaces/inkscape"
   xmlns:sodipodi="http://sodipodi.sourceforge.net/DTD/sodipodi-0.dtd"
   xmlns="http://www.w3.org/2000/svg"
   xmlns:svg="http://www.w3.org/2000/svg"><defs
     id="defs6" /><sodipodi:namedview
     id="namedview4"
     pagecolor="#ffffff"
     bordercolor="#666666"
     borderopacity="1.0"
     inkscape:pageshadow="2"
     inkscape:pageopacity="0.0"
     inkscape:pagecheckerboard="0" /><g
     id="g8"
     inkscape:groupmode="layer"
     inkscape:label="ink_ext_XXXXXX"
     transform="matrix(1.3333333,0,0,-1.3333333,0,65.333333)"><g
       id="g10"
       transform="scale(0.1)"><path
         d="M 486.828,249.453 H 1034.83"
         style="fill:none;stroke:#100f0d;stroke-width:5.0003;stroke-linecap:butt;stroke-linejoin:miter;stroke-miterlimit:10;stroke-dasharray:none;stroke-opacity:1"
         id="path12" /><path
         d="m 1024.92,234.926 54.21,14.527 -54.21,14.527 z"
         style="fill:#100f0d;fill-opacity:1;fill-rule:nonzero;stroke:none"
         id="path14" /><g
         id="g16"
         transform="scale(10)"><text
           transform="matrix(1,0,0,-1,70.1242,36.8633)"
           style="font-variant:normal;font-weight:normal;font-size:6.99976px;font-family:Arial;-inkscape-font-specification:ArialMT;writing-mode:lr-tb;fill:#100f0d;fill-opacity:1;fill-rule:nonzero;stroke:none"
           id="text22"><tspan
             x="0 4.6688399 8.5607061 12.452573"
             y="0"
             sodipodi:role="line"
             id="tspan18">Send</tspan><tspan
             x="-14.7848 -10.892934 -7.0010667 -3.5011868 2.3296132 6.2214799 10.113346 12.059279 14.005213 17.897079 21.396959 25.288826 29.180693"
             y="8.3996096"
             sodipodi:role="line"
             id="tspan20">payment event</tspan></text></g><path
         d="m 249.027,487.25 c 131.332,0 237.801,-106.465 237.801,-237.797 0,-131.336 -106.469,-237.8046 -237.801,-237.8046 -131.332,0 -237.8004,106.4686 -237.8004,237.8046 0,131.332 106.4684,237.797 237.8004,237.797"
         style="fill:#def1c3;fill-opacity:1;fill-rule:nonzero;stroke:none"
         id="path24" /><path
         d="m 249.027,487.25 c 131.332,0 237.801,-106.465 237.801,-237.797 0,-131.336 -106.469,-237.8046 -237.801,-237.8046 -131.332,0 -237.8004,106.4686 -237.8004,237.8046 0,131.332 106.4684,237.797 237.8004,237.797 z"
         style="fill:none;stroke:#298a3c;stroke-width:5.0003;stroke-linecap:butt;stroke-linejoin:miter;stroke-miterlimit:4;stroke-dasharray:none;stroke-opacity:1"
         id="path26" /><g
         id="g28"
         transform="scale(10)"><text
           transform="matrix(1,0,0,-1,10.1168,27.2785)"
           style="font-variant:normal;font-weight:normal;font-size:6.99976px;font-family:Arial;-inkscape-font-specification:ArialMT;writing-mode:lr-tb;fill:#100f0d;fill-opacity:1;fill-rule:nonzero;stroke:none"
           id="text34"><tspan
             x="0 5.0538268 8.945693 12.83756 16.33744 19.83732 23.729187 27.621054"
             y="0"
             sodipodi:role="line"
             id="tspan30">Checkout</tspan><tspan
             x="3.7 7.1998801 11.091746 13.422667 16.922546 18.476494 21.976374"
             y="8.3999996"
             sodipodi:role="line"
             id="tspan32">service</tspan></text></g><path
         d="m 1673.63,249.453 h 548"
         style="fill:none;stroke:#100f0d;stroke-width:5.0003;stroke-linecap:butt;stroke-linejoin:miter;stroke-miterlimit:10;stroke-dasharray:none;stroke-opacity:1"
         id="path36" /><path
         d="m 2211.73,234.926 54.2,14.527 -54.2,14.527 z"
         style="fill:#100f0d;fill-opacity:1;fill-rule:nonzero;stroke:none"
         id="path38" /><g
         id="g40"
         transform="scale(10)"><text
           transform="matrix(1,0,0,-1,181.998,36.8645)"
           style="font-variant:normal;font-weight:normal;font-size:6.99976px;font-family:Arial;-inkscape-font-specification:ArialMT;writing-mode:lr-tb;fill:#100f0d;fill-opacity:1;fill-rule:nonzero;stroke:none"
           id="text46"><tspan
             x="0 5.0538268 8.945693 12.83756 16.33744 20.229307 26.060106"
             y="0"
             sodipodi:role="line"
             id="tspan42">Consume</tspan><tspan
             x="-7.97891 -4.0870433 -0.19517688 3.3047032 9.1355028 13.027369 16.919237 18.86517 20.811104 24.702969 28.20285 32.094715 35.986584"
             y="8.4003897"
             sodipodi:role="line"
             id="tspan44">payment event</tspan></text></g><path
         d="m 1105.88,355.477 h 541 c 14.77,0 26.75,-14.235 26.75,-31.801 V 175.242 c 0,-17.558 -11.98,-31.804 -26.75,-31.804 h -541 c -14.77,0 -26.75,14.246 -26.75,31.804 v 148.434 c 0,17.566 11.98,31.801 26.75,31.801"
         style="fill:#fafbfb;fill-opacity:1;fill-rule:nonzero;stroke:none"
         id="path48" /><path
         d="m 1105.88,355.477 h 541 c 14.77,0 26.75,-14.235 26.75,-31.801 V 175.242 c 0,-17.558 -11.98,-31.804 -26.75,-31.804 h -541 c -14.77,0 -26.75,14.246 -26.75,31.804 v 148.434 c 0,17.566 11.98,31.801 26.75,31.801 z"
         style="fill:none;stroke:#5e6061;stroke-width:5.0003;stroke-linecap:butt;stroke-linejoin:miter;stroke-miterlimit:4;stroke-dasharray:none;stroke-opacity:1"
         id="path50" /><g
         id="g52"
         transform="scale(10)"><text
           transform="matrix(1,0,0,-1,115.851,27.2793)"
           style="font-variant:normal;font-weight:normal;font-size:6.99976px;font-family:Arial;-inkscape-font-specification:ArialMT;writing-mode:lr-tb;fill:#2f2d2e;fill-opacity:1;fill-rule:nonzero;stroke:none"
           id="text58"><tspan
             x="0 4.6688399 8.5607061 12.452573 15.952453 19.84432 23.736187 25.682119 30.35096 34.242825 36.188759 39.688641"
             y="0"
             sodipodi:role="line"
             id="tspan54">Apache Kafka</tspan><tspan
             x="14.3988 16.344734 20.236599 24.128466 25.682413"
             y="8.3996096"
             sodipodi:role="line"
             id="tspan56">topic</tspan></text></g><path
         d="m 2503.73,487.25 c 131.34,0 237.8,-106.465 237.8,-237.797 0,-131.336 -106.46,-237.8046 -237.8,-237.8046 -131.33,0 -237.8,106.4686 -237.8,237.8046 0,131.332 106.47,237.797 237.8,237.797"
         style="fill:#c9e4f3;fill-opacity:1;fill-rule:nonzero;stroke:none"
         id="path60" /><path
         d="m 2503.73,487.25 c 131.34,0 237.8,-106.465 237.8,-237.797 0,-131.336 -106.46,-237.8046 -237.8,-237.8046 -131.33,0 -237.8,106.4686 -237.8,237.8046 0,131.332 106.47,237.797 237.8,237.797 z"
         style="fill:none;stroke:#293985;stroke-width:5.0003;stroke-linecap:butt;stroke-linejoin:miter;stroke-miterlimit:4;stroke-dasharray:none;stroke-opacity:1"
         id="path62" /><g
         id="g64"
         transform="scale(10)"><text
           transform="matrix(1,0,0,-1,241.034,27.2785)"
           style="font-variant:normal;font-weight:normal;font-size:6.99976px;font-family:Arial;-inkscape-font-specification:ArialMT;writing-mode:lr-tb;fill:#100f0d;fill-opacity:1;fill-rule:nonzero;stroke:none"
           id="text70"><tspan
             x="0 4.6688399 6.2227864 7.7767334 9.3306799 10.884626 14.776493"
             y="0"
             sodipodi:role="line"
             id="tspan66">Billing</tspan><tspan
             x="-1.74805 1.75183 5.6436968 7.9746165 11.474497 13.028443 16.528324"
             y="8.3999996"
             sodipodi:role="line"
             id="tspan68">service</tspan></text></g></g></g></svg>
