<?xml version="1.0" encoding="UTF-8" standalone="no"?>
<!-- Created with Inkscape (http://www.inkscape.org/) -->

<svg
   version="1.1"
   id="svg2"
   xml:space="preserve"
   width="308"
   height="214.66667"
   viewBox="0 0 308 214.66667"
   sodipodi:docname="11-11.eps"
   xmlns:inkscape="http://www.inkscape.org/namespaces/inkscape"
   xmlns:sodipodi="http://sodipodi.sourceforge.net/DTD/sodipodi-0.dtd"
   xmlns="http://www.w3.org/2000/svg"
   xmlns:svg="http://www.w3.org/2000/svg"><defs
     id="defs6" /><sodipodi:namedview
     id="namedview4"
     pagecolor="#ffffff"
     bordercolor="#666666"
     borderopacity="1.0"
     inkscape:pageshadow="2"
     inkscape:pageopacity="0.0"
     inkscape:pagecheckerboard="0" /><g
     id="g8"
     inkscape:groupmode="layer"
     inkscape:label="ink_ext_XXXXXX"
     transform="matrix(1.3333333,0,0,-1.3333333,0,214.66667)"><g
       id="g10"
       transform="scale(0.1)"><path
         d="m 492.016,1606.45 h 222.711 c 15.375,0 27.839,-12.47 27.839,-27.84 v -129.93 c 0,-15.38 -12.464,-27.84 -27.839,-27.84 H 492.016 c -15.375,0 -27.844,12.46 -27.844,27.84 v 129.93 c 0,15.37 12.469,27.84 27.844,27.84"
         style="fill:#ffffff;fill-opacity:1;fill-rule:nonzero;stroke:none"
         id="path12" /><path
         d="m 492.016,1606.45 h 222.711 c 15.375,0 27.839,-12.47 27.839,-27.84 v -129.93 c 0,-15.38 -12.464,-27.84 -27.839,-27.84 H 492.016 c -15.375,0 -27.844,12.46 -27.844,27.84 v 129.93 c 0,15.37 12.469,27.84 27.844,27.84 z"
         style="fill:none;stroke:#100f0d;stroke-width:5.0003;stroke-linecap:butt;stroke-linejoin:miter;stroke-miterlimit:4;stroke-dasharray:none;stroke-opacity:1"
         id="path14" /><g
         id="g16"
         transform="scale(10)"><text
           transform="matrix(1,0,0,-1,54.4973,153.179)"
           style="font-variant:normal;font-weight:normal;font-size:6.99976px;font-family:Arial;-inkscape-font-specification:ArialMT;writing-mode:lr-tb;fill:#100f0d;fill-opacity:1;fill-rule:nonzero;stroke:none"
           id="text22"><tspan
             x="0 3.8918664 7.7837329"
             y="0"
             sodipodi:role="line"
             id="tspan18">100</tspan><tspan
             x="-4.4718699 -0.58000344 2.9198766 6.8117433 10.703609 12.649543"
             y="8.3999996"
             sodipodi:role="line"
             id="tspan20">events</tspan></text></g><path
         d="M 371.371,1265.25 H 2060.73"
         style="fill:none;stroke:#100f0d;stroke-width:5.0003;stroke-linecap:butt;stroke-linejoin:miter;stroke-miterlimit:10;stroke-dasharray:none;stroke-opacity:1"
         id="path24" /><path
         d="m 2050.82,1250.73 54.21,14.52 -54.21,14.53 z"
         style="fill:#100f0d;fill-opacity:1;fill-rule:nonzero;stroke:none"
         id="path26" /><g
         id="g28"
         transform="scale(10)"><text
           transform="matrix(1,0,0,-1,0.508594,118.312)"
           style="font-variant:normal;font-weight:normal;font-size:6.99976px;font-family:Arial;-inkscape-font-specification:ArialMT;writing-mode:lr-tb;fill:#100f0d;fill-opacity:1;fill-rule:nonzero;stroke:none"
           id="text32"><tspan
             x="0 3.4996071 7.3914738 11.28334 12.837287 16.337168 18.2831 22.178511 25.917963 29.417845 33.309711 35.255642 46.945312 72.047646 75.939507 79.831375 101.08594 104.97781 108.86967 130.12459 134.01645 137.90831 159.09294 162.98482 166.87668 188.13159 192.02345 195.91533"
             y="0"
             sodipodi:role="line"
             id="tspan30">Topic ofsets0100200300400500</tspan></text></g><path
         d="m 1531.36,314.047 h 510.39 v 350.105"
         style="fill:none;stroke:#100f0d;stroke-width:5.0003;stroke-linecap:butt;stroke-linejoin:miter;stroke-miterlimit:10;stroke-dasharray:none;stroke-opacity:1"
         id="path34" /><path
         d="m 2056.3,654.242 -14.55,54.207 -14.52,-54.207 z"
         style="fill:#100f0d;fill-opacity:1;fill-rule:nonzero;stroke:none"
         id="path36" /><g
         id="g38"
         transform="scale(10)"><text
           transform="matrix(1,0,0,-1,177.877,23.6695)"
           style="font-variant:normal;font-weight:normal;font-size:6.99976px;font-family:Arial;-inkscape-font-specification:ArialMT;writing-mode:lr-tb;fill:#100f0d;fill-opacity:1;fill-rule:nonzero;stroke:none"
           id="text44"><tspan
             x="0 5.0538268 8.945693 14.776493 20.607294 22.16124 24.107174"
             y="0"
             sodipodi:role="line"
             id="tspan40">Commits</tspan><tspan
             x="-1.50313 2.3898351 6.1289034 9.6287832 13.52065 15.466583 17.412516 21.304382 25.196249"
             y="8.3999996"
             sodipodi:role="line"
             id="tspan42">ofset 500</tspan></text></g><path
         d="m 1229.77,615.648 c 166.57,0 301.59,-135.031 301.59,-301.601 0,-166.563 -135.02,-301.5939 -301.59,-301.5939 -166.57,0 -301.614,135.0309 -301.614,301.5939 0,166.57 135.044,301.601 301.614,301.601"
         style="fill:#c9e4f3;fill-opacity:1;fill-rule:nonzero;stroke:none"
         id="path46" /><path
         d="m 1229.77,615.648 c 166.57,0 301.59,-135.031 301.59,-301.601 0,-166.563 -135.02,-301.5939 -301.59,-301.5939 -166.57,0 -301.614,135.0309 -301.614,301.5939 0,166.57 135.044,301.601 301.614,301.601 z"
         style="fill:none;stroke:#293985;stroke-width:5.0003;stroke-linecap:butt;stroke-linejoin:miter;stroke-miterlimit:4;stroke-dasharray:none;stroke-opacity:1"
         id="path48" /><g
         id="g50"
         transform="scale(10)"><text
           transform="matrix(1,0,0,-1,106.832,33.7387)"
           style="font-variant:normal;font-weight:normal;font-size:6.99976px;font-family:Arial;-inkscape-font-specification:ArialMT;writing-mode:lr-tb;fill:#100f0d;fill-opacity:1;fill-rule:nonzero;stroke:none"
           id="text56"><tspan
             x="0 5.0538268 8.945693 12.83756 16.33744 20.229307 26.060106 29.951973"
             y="0"
             sodipodi:role="line"
             id="tspan52">Consumer</tspan><tspan
             x="-4.7058601 -3.1519132 0.73995328 4.2398334 6.1857667 8.1316996 12.024604 15.763672 19.263552 23.155418 25.101353 27.047285 31.135145 33.081078"
             y="8.3999996"
             sodipodi:role="line"
             id="tspan54">last ofset = 0</tspan></text></g><path
         d="m 2041.75,1079.66 c 102.52,0 185.62,-83.101 185.62,-185.605 0,-102.508 -83.1,-185.606 -185.62,-185.606 -102.49,0 -185.59,83.098 -185.59,185.606 0,102.504 83.1,185.605 185.59,185.605"
         style="fill:#def1c3;fill-opacity:1;fill-rule:nonzero;stroke:none"
         id="path58" /><path
         d="m 2041.75,1079.66 c 102.52,0 185.62,-83.101 185.62,-185.605 0,-102.508 -83.1,-185.606 -185.62,-185.606 -102.49,0 -185.59,83.098 -185.59,185.606 0,102.504 83.1,185.605 185.59,185.605 z"
         style="fill:none;stroke:#298a3c;stroke-width:5.0003;stroke-linecap:butt;stroke-linejoin:miter;stroke-miterlimit:4;stroke-dasharray:none;stroke-opacity:1"
         id="path60" /><g
         id="g62"
         transform="scale(10)"><text
           transform="matrix(1,0,0,-1,195.177,91.7379)"
           style="font-variant:normal;font-weight:normal;font-size:6.99976px;font-family:Arial;-inkscape-font-specification:ArialMT;writing-mode:lr-tb;fill:#100f0d;fill-opacity:1;fill-rule:nonzero;stroke:none"
           id="text68"><tspan
             x="0 4.6688399 8.5607061 10.506639 14.006519"
             y="0"
             sodipodi:role="line"
             id="tspan64">Kafka</tspan><tspan
             x="-0.96992201 2.9219446 5.2528648 9.1447315 12.644611 16.536478"
             y="8.3996096"
             sodipodi:role="line"
             id="tspan66">broker</tspan></text></g><path
         d="m 1942.75,787.145 278.41,-482.207 -80.37,-46.407 -278.4,482.219 80.36,46.395"
         style="fill:#f790a1;fill-opacity:1;fill-rule:nonzero;stroke:none"
         id="path70" /><path
         d="m 1942.75,787.145 278.41,-482.207 -80.37,-46.407 -278.4,482.219 z"
         style="fill:none;stroke:#bb4146;stroke-width:5.0003;stroke-linecap:butt;stroke-linejoin:miter;stroke-miterlimit:4;stroke-dasharray:none;stroke-opacity:1"
         id="path72" /><path
         d="m 2306.07,621.848 -482.21,-278.391 -46.41,80.371 482.21,278.395 46.41,-80.375"
         style="fill:#f790a1;fill-opacity:1;fill-rule:nonzero;stroke:none"
         id="path74" /><path
         d="m 2306.07,621.848 -482.21,-278.391 -46.41,80.371 482.21,278.395 z"
         style="fill:none;stroke:#bb4146;stroke-width:5.0003;stroke-linecap:butt;stroke-linejoin:miter;stroke-miterlimit:4;stroke-dasharray:none;stroke-opacity:1"
         id="path76" /><path
         d="m 816.805,1606.45 h 222.715 c 15.37,0 27.84,-12.47 27.84,-27.84 v -129.93 c 0,-15.38 -12.47,-27.84 -27.84,-27.84 H 816.805 c -15.375,0 -27.84,12.46 -27.84,27.84 v 129.93 c 0,15.37 12.465,27.84 27.84,27.84"
         style="fill:#ffffff;fill-opacity:1;fill-rule:nonzero;stroke:none"
         id="path78" /><path
         d="m 816.805,1606.45 h 222.715 c 15.37,0 27.84,-12.47 27.84,-27.84 v -129.93 c 0,-15.38 -12.47,-27.84 -27.84,-27.84 H 816.805 c -15.375,0 -27.84,12.46 -27.84,27.84 v 129.93 c 0,15.37 12.465,27.84 27.84,27.84 z"
         style="fill:none;stroke:#100f0d;stroke-width:5.0003;stroke-linecap:butt;stroke-linejoin:miter;stroke-miterlimit:4;stroke-dasharray:none;stroke-opacity:1"
         id="path80" /><g
         id="g82"
         transform="scale(10)"><text
           transform="matrix(1,0,0,-1,86.9766,153.179)"
           style="font-variant:normal;font-weight:normal;font-size:6.99976px;font-family:Arial;-inkscape-font-specification:ArialMT;writing-mode:lr-tb;fill:#100f0d;fill-opacity:1;fill-rule:nonzero;stroke:none"
           id="text88"><tspan
             x="0 3.8918664 7.7837329"
             y="0"
             sodipodi:role="line"
             id="tspan84">100</tspan><tspan
             x="-4.47227 -0.58040345 2.9194765 6.8113432 10.70321 12.649143"
             y="8.3999996"
             sodipodi:role="line"
             id="tspan86">events</tspan></text></g><path
         d="m 1141.61,1606.45 h 222.71 c 15.37,0 27.85,-12.47 27.85,-27.84 v -129.93 c 0,-15.38 -12.48,-27.84 -27.85,-27.84 h -222.71 c -15.38,0 -27.84,12.46 -27.84,27.84 v 129.93 c 0,15.37 12.46,27.84 27.84,27.84"
         style="fill:#ffffff;fill-opacity:1;fill-rule:nonzero;stroke:none"
         id="path90" /><path
         d="m 1141.61,1606.45 h 222.71 c 15.37,0 27.85,-12.47 27.85,-27.84 v -129.93 c 0,-15.38 -12.48,-27.84 -27.85,-27.84 h -222.71 c -15.38,0 -27.84,12.46 -27.84,27.84 v 129.93 c 0,15.37 12.46,27.84 27.84,27.84 z"
         style="fill:none;stroke:#100f0d;stroke-width:5.0003;stroke-linecap:butt;stroke-linejoin:miter;stroke-miterlimit:4;stroke-dasharray:none;stroke-opacity:1"
         id="path92" /><g
         id="g94"
         transform="scale(10)"><text
           transform="matrix(1,0,0,-1,119.457,153.179)"
           style="font-variant:normal;font-weight:normal;font-size:6.99976px;font-family:Arial;-inkscape-font-specification:ArialMT;writing-mode:lr-tb;fill:#100f0d;fill-opacity:1;fill-rule:nonzero;stroke:none"
           id="text100"><tspan
             x="0 3.8918664 7.7837329"
             y="0"
             sodipodi:role="line"
             id="tspan96">100</tspan><tspan
             x="-4.4718699 -0.58000344 2.9198766 6.8117433 10.703609 12.649543"
             y="8.3999996"
             sodipodi:role="line"
             id="tspan98">events</tspan></text></g><path
         d="m 1466.41,1606.45 h 222.71 c 15.38,0 27.83,-12.47 27.83,-27.84 v -129.93 c 0,-15.38 -12.45,-27.84 -27.83,-27.84 h -222.71 c -15.39,0 -27.85,12.46 -27.85,27.84 v 129.93 c 0,15.37 12.46,27.84 27.85,27.84"
         style="fill:#ffffff;fill-opacity:1;fill-rule:nonzero;stroke:none"
         id="path102" /><path
         d="m 1466.41,1606.45 h 222.71 c 15.38,0 27.83,-12.47 27.83,-27.84 v -129.93 c 0,-15.38 -12.45,-27.84 -27.83,-27.84 h -222.71 c -15.39,0 -27.85,12.46 -27.85,27.84 v 129.93 c 0,15.37 12.46,27.84 27.85,27.84 z"
         style="fill:none;stroke:#100f0d;stroke-width:5.0003;stroke-linecap:butt;stroke-linejoin:miter;stroke-miterlimit:4;stroke-dasharray:none;stroke-opacity:1"
         id="path104" /><g
         id="g106"
         transform="scale(10)"><text
           transform="matrix(1,0,0,-1,151.937,153.179)"
           style="font-variant:normal;font-weight:normal;font-size:6.99976px;font-family:Arial;-inkscape-font-specification:ArialMT;writing-mode:lr-tb;fill:#100f0d;fill-opacity:1;fill-rule:nonzero;stroke:none"
           id="text112"><tspan
             x="0 3.8918664 7.7837329"
             y="0"
             sodipodi:role="line"
             id="tspan108">100</tspan><tspan
             x="-4.4710898 -0.57922345 2.9206564 6.8125229 10.70439 12.650323"
             y="8.3999996"
             sodipodi:role="line"
             id="tspan110">events</tspan></text></g><path
         d="m 1791.21,1606.45 h 222.7 c 15.39,0 27.84,-12.47 27.84,-27.84 v -129.93 c 0,-15.38 -12.45,-27.84 -27.84,-27.84 h -222.7 c -15.37,0 -27.83,12.46 -27.83,27.84 v 129.93 c 0,15.37 12.46,27.84 27.83,27.84"
         style="fill:#ffffff;fill-opacity:1;fill-rule:nonzero;stroke:none"
         id="path114" /><path
         d="m 1791.21,1606.45 h 222.7 c 15.39,0 27.84,-12.47 27.84,-27.84 v -129.93 c 0,-15.38 -12.45,-27.84 -27.84,-27.84 h -222.7 c -15.37,0 -27.83,12.46 -27.83,27.84 v 129.93 c 0,15.37 12.46,27.84 27.83,27.84 z"
         style="fill:none;stroke:#100f0d;stroke-width:5.0003;stroke-linecap:butt;stroke-linejoin:miter;stroke-miterlimit:4;stroke-dasharray:none;stroke-opacity:1"
         id="path116" /><g
         id="g118"
         transform="scale(10)"><text
           transform="matrix(1,0,0,-1,184.416,153.179)"
           style="font-variant:normal;font-weight:normal;font-size:6.99976px;font-family:Arial;-inkscape-font-specification:ArialMT;writing-mode:lr-tb;fill:#100f0d;fill-opacity:1;fill-rule:nonzero;stroke:none"
           id="text124"><tspan
             x="0 3.8918664 7.7837329"
             y="0"
             sodipodi:role="line"
             id="tspan120">100</tspan><tspan
             x="-4.47227 -0.58040345 2.9194765 6.8113432 10.70321 12.649143"
             y="8.3999996"
             sodipodi:role="line"
             id="tspan122">events</tspan></text></g></g></g></svg>
