<?xml version="1.0" encoding="UTF-8" standalone="no"?>
<!-- Created with Inkscape (http://www.inkscape.org/) -->

<svg
   version="1.1"
   id="svg2"
   xml:space="preserve"
   width="428"
   height="61.333332"
   viewBox="0 0 428 61.333332"
   sodipodi:docname="11-16.eps"
   xmlns:inkscape="http://www.inkscape.org/namespaces/inkscape"
   xmlns:sodipodi="http://sodipodi.sourceforge.net/DTD/sodipodi-0.dtd"
   xmlns="http://www.w3.org/2000/svg"
   xmlns:svg="http://www.w3.org/2000/svg"><defs
     id="defs6" /><sodipodi:namedview
     id="namedview4"
     pagecolor="#ffffff"
     bordercolor="#666666"
     borderopacity="1.0"
     inkscape:pageshadow="2"
     inkscape:pageopacity="0.0"
     inkscape:pagecheckerboard="0" /><g
     id="g8"
     inkscape:groupmode="layer"
     inkscape:label="ink_ext_XXXXXX"
     transform="matrix(1.3333333,0,0,-1.3333333,0,61.333333)"><g
       id="g10"
       transform="scale(0.1)"><path
         d="M 459.527,229.445 H 806.84"
         style="fill:none;stroke:#100f0d;stroke-width:5.0003;stroke-linecap:butt;stroke-linejoin:miter;stroke-miterlimit:10;stroke-dasharray:none;stroke-opacity:1"
         id="path12" /><path
         d="m 796.938,214.918 54.199,14.527 -54.199,14.528 z"
         style="fill:#100f0d;fill-opacity:1;fill-rule:nonzero;stroke:none"
         id="path14" /><g
         id="g16"
         transform="scale(10)"><text
           transform="matrix(1,0,0,-1,52.8871,26.7664)"
           style="font-variant:normal;font-weight:normal;font-size:6.99976px;font-family:Arial;-inkscape-font-specification:ArialMT;writing-mode:lr-tb;fill:#100f0d;fill-opacity:1;fill-rule:nonzero;stroke:none"
           id="text20"><tspan
             x="0 3.8918664 7.7837329 9.7296667 12.060587 15.952453 19.84432 21.790253"
             y="0"
             sodipodi:role="line"
             id="tspan18">50 req/s</tspan></text></g><path
         d="m 235.758,453.223 c 123.582,0 223.769,-100.188 223.769,-223.778 C 459.527,105.863 359.34,5.67578 235.758,5.67578 112.168,5.67578 11.9766,105.863 11.9766,229.445 c 0,123.59 100.1914,223.778 223.7814,223.778"
         style="fill:#def1c3;fill-opacity:1;fill-rule:nonzero;stroke:none"
         id="path22" /><path
         d="m 235.758,453.223 c 123.582,0 223.769,-100.188 223.769,-223.778 C 459.527,105.863 359.34,5.67578 235.758,5.67578 112.168,5.67578 11.9766,105.863 11.9766,229.445 c 0,123.59 100.1914,223.778 223.7814,223.778 z"
         style="fill:none;stroke:#298a3c;stroke-width:5.0003;stroke-linecap:butt;stroke-linejoin:miter;stroke-miterlimit:4;stroke-dasharray:none;stroke-opacity:1"
         id="path24" /><g
         id="g26"
         transform="scale(10)"><text
           transform="matrix(1,0,0,-1,8.78945,25.2781)"
           style="font-variant:normal;font-weight:normal;font-size:6.99976px;font-family:Arial;-inkscape-font-specification:ArialMT;writing-mode:lr-tb;fill:#100f0d;fill-opacity:1;fill-rule:nonzero;stroke:none"
           id="text32"><tspan
             x="0 5.0538268 8.945693 12.83756 16.33744 19.83732 23.729187 27.621054"
             y="0"
             sodipodi:role="line"
             id="tspan28">Checkout</tspan><tspan
             x="3.7 7.1998801 11.091746 13.422667 16.922546 18.476494 21.976374"
             y="8.4003897"
             sodipodi:role="line"
             id="tspan30">service</tspan></text></g><path
         d="m 2137.84,229.445 h 571.09"
         style="fill:none;stroke:#100f0d;stroke-width:5.0003;stroke-linecap:butt;stroke-linejoin:miter;stroke-miterlimit:10;stroke-dasharray:none;stroke-opacity:1"
         id="path34" /><path
         d="m 2699.02,214.918 54.21,14.527 -54.21,14.528 z"
         style="fill:#100f0d;fill-opacity:1;fill-rule:nonzero;stroke:none"
         id="path36" /><g
         id="g38"
         transform="scale(10)"><text
           transform="matrix(1,0,0,-1,223.932,36.3418)"
           style="font-variant:normal;font-weight:normal;font-size:6.99976px;font-family:Arial;-inkscape-font-specification:ArialMT;writing-mode:lr-tb;fill:#100f0d;fill-opacity:1;fill-rule:nonzero;stroke:none"
           id="text44"><tspan
             x="0 5.0538268 8.945693 12.83756 14.783493 18.67536 21.006279 24.898146 28.398026 32.289894 35.789772"
             y="0"
             sodipodi:role="line"
             id="tspan40">Can process</tspan><tspan
             x="6.0281301 9.9199963 13.811863 17.70373 19.649662 21.980583 25.87245 29.764317 31.710249"
             y="8.4007797"
             sodipodi:role="line"
             id="tspan42">100 req/s</tspan></text></g><path
         d="m 2977,453.223 c 123.59,0 223.78,-100.188 223.78,-223.778 0,-123.582 -100.19,-223.76922 -223.78,-223.76922 -123.59,0 -223.77,100.18722 -223.77,223.76922 0,123.59 100.18,223.778 223.77,223.778"
         style="fill:#c9e4f3;fill-opacity:1;fill-rule:nonzero;stroke:none"
         id="path46" /><path
         d="m 2977,453.223 c 123.59,0 223.78,-100.188 223.78,-223.778 0,-123.582 -100.19,-223.76922 -223.78,-223.76922 -123.59,0 -223.77,100.18722 -223.77,223.76922 0,123.59 100.18,223.778 223.77,223.778 z"
         style="fill:none;stroke:#293985;stroke-width:5.0003;stroke-linecap:butt;stroke-linejoin:miter;stroke-miterlimit:4;stroke-dasharray:none;stroke-opacity:1"
         id="path48" /><g
         id="g50"
         transform="scale(10)"><text
           transform="matrix(1,0,0,-1,288.362,25.2781)"
           style="font-variant:normal;font-weight:normal;font-size:6.99976px;font-family:Arial;-inkscape-font-specification:ArialMT;writing-mode:lr-tb;fill:#100f0d;fill-opacity:1;fill-rule:nonzero;stroke:none"
           id="text56"><tspan
             x="0 4.6688399 6.2227864 7.7767334 9.3306799 10.884626 14.776493"
             y="0"
             sodipodi:role="line"
             id="tspan52">Billing</tspan><tspan
             x="-1.74805 1.75183 5.6436968 7.9746165 11.474497 13.028443 16.528324"
             y="8.4003897"
             sodipodi:role="line"
             id="tspan54">service</tspan></text></g><path
         d="M 884.703,341.332 H 2104.29 c 18.54,0 33.57,-15.016 33.57,-33.555 V 151.121 c 0,-18.539 -15.03,-33.555 -33.57,-33.555 H 884.703 c -18.535,0 -33.566,15.016 -33.566,33.555 v 156.656 c 0,18.539 15.031,33.555 33.566,33.555"
         style="fill:#ffffff;fill-opacity:1;fill-rule:nonzero;stroke:none"
         id="path58" /><path
         d="M 884.703,341.332 H 2104.29 c 18.54,0 33.57,-15.016 33.57,-33.555 V 151.121 c 0,-18.539 -15.03,-33.555 -33.57,-33.555 H 884.703 c -18.535,0 -33.566,15.016 -33.566,33.555 v 156.656 c 0,18.539 15.031,33.555 33.566,33.555 z"
         style="fill:none;stroke:#100f0d;stroke-width:5.0003;stroke-linecap:butt;stroke-linejoin:miter;stroke-miterlimit:4;stroke-dasharray:none;stroke-opacity:1"
         id="path60" /><path
         d="m 923.867,285.387 h 190.203 c 9.26,0 16.78,-7.524 16.78,-16.789 v -78.313 c 0,-9.273 -7.52,-16.785 -16.78,-16.785 H 923.867 c -9.277,0 -16.789,7.512 -16.789,16.785 v 78.313 c 0,9.265 7.512,16.789 16.789,16.789"
         style="fill:#ffffff;fill-opacity:1;fill-rule:nonzero;stroke:none"
         id="path62" /><path
         d="m 923.867,285.387 h 190.203 c 9.26,0 16.78,-7.524 16.78,-16.789 v -78.313 c 0,-9.273 -7.52,-16.785 -16.78,-16.785 H 923.867 c -9.277,0 -16.789,7.512 -16.789,16.785 v 78.313 c 0,9.265 7.512,16.789 16.789,16.789 z"
         style="fill:none;stroke:#100f0d;stroke-width:5.0003;stroke-linecap:butt;stroke-linejoin:miter;stroke-miterlimit:4;stroke-dasharray:none;stroke-opacity:1"
         id="path64" /><g
         id="g66"
         transform="scale(10)"><text
           transform="matrix(1,0,0,-1,97.0309,21.077)"
           style="font-variant:normal;font-weight:normal;font-size:6.99976px;font-family:Arial;-inkscape-font-specification:ArialMT;writing-mode:lr-tb;fill:#100f0d;fill-opacity:1;fill-rule:nonzero;stroke:none"
           id="text70"><tspan
             x="0 3.8918664"
             y="0"
             sodipodi:role="line"
             id="tspan68">50</tspan></text></g><path
         d="m 1147.64,285.387 h 190.2 c 9.27,0 16.79,-7.524 16.79,-16.789 v -78.313 c 0,-9.273 -7.52,-16.785 -16.79,-16.785 h -190.2 c -9.27,0 -16.79,7.512 -16.79,16.785 v 78.313 c 0,9.265 7.52,16.789 16.79,16.789"
         style="fill:#ffffff;fill-opacity:1;fill-rule:nonzero;stroke:none"
         id="path72" /><path
         d="m 1147.64,285.387 h 190.2 c 9.27,0 16.79,-7.524 16.79,-16.789 v -78.313 c 0,-9.273 -7.52,-16.785 -16.79,-16.785 h -190.2 c -9.27,0 -16.79,7.512 -16.79,16.785 v 78.313 c 0,9.265 7.52,16.789 16.79,16.789 z"
         style="fill:none;stroke:#100f0d;stroke-width:5.0003;stroke-linecap:butt;stroke-linejoin:miter;stroke-miterlimit:4;stroke-dasharray:none;stroke-opacity:1"
         id="path74" /><g
         id="g76"
         transform="scale(10)"><text
           transform="matrix(1,0,0,-1,119.408,21.077)"
           style="font-variant:normal;font-weight:normal;font-size:6.99976px;font-family:Arial;-inkscape-font-specification:ArialMT;writing-mode:lr-tb;fill:#100f0d;fill-opacity:1;fill-rule:nonzero;stroke:none"
           id="text80"><tspan
             x="0 3.8918664"
             y="0"
             sodipodi:role="line"
             id="tspan78">50</tspan></text></g><path
         d="m 1371.41,285.387 h 190.21 c 9.26,0 16.78,-7.524 16.78,-16.789 v -78.313 c 0,-9.273 -7.52,-16.785 -16.78,-16.785 h -190.21 c -9.27,0 -16.78,7.512 -16.78,16.785 v 78.313 c 0,9.265 7.51,16.789 16.78,16.789"
         style="fill:#ffffff;fill-opacity:1;fill-rule:nonzero;stroke:none"
         id="path82" /><path
         d="m 1371.41,285.387 h 190.21 c 9.26,0 16.78,-7.524 16.78,-16.789 v -78.313 c 0,-9.273 -7.52,-16.785 -16.78,-16.785 h -190.21 c -9.27,0 -16.78,7.512 -16.78,16.785 v 78.313 c 0,9.265 7.51,16.789 16.78,16.789 z"
         style="fill:none;stroke:#100f0d;stroke-width:5.0003;stroke-linecap:butt;stroke-linejoin:miter;stroke-miterlimit:4;stroke-dasharray:none;stroke-opacity:1"
         id="path84" /><g
         id="g86"
         transform="scale(10)"><text
           transform="matrix(1,0,0,-1,141.785,21.077)"
           style="font-variant:normal;font-weight:normal;font-size:6.99976px;font-family:Arial;-inkscape-font-specification:ArialMT;writing-mode:lr-tb;fill:#100f0d;fill-opacity:1;fill-rule:nonzero;stroke:none"
           id="text90"><tspan
             x="0 3.8918664"
             y="0"
             sodipodi:role="line"
             id="tspan88">50</tspan></text></g><path
         d="m 1595.19,285.387 h 190.19 c 9.28,0 16.79,-7.524 16.79,-16.789 v -78.313 c 0,-9.273 -7.51,-16.785 -16.79,-16.785 h -190.19 c -9.27,0 -16.79,7.512 -16.79,16.785 v 78.313 c 0,9.265 7.52,16.789 16.79,16.789"
         style="fill:#ffffff;fill-opacity:1;fill-rule:nonzero;stroke:none"
         id="path92" /><path
         d="m 1595.19,285.387 h 190.19 c 9.28,0 16.79,-7.524 16.79,-16.789 v -78.313 c 0,-9.273 -7.51,-16.785 -16.79,-16.785 h -190.19 c -9.27,0 -16.79,7.512 -16.79,16.785 v 78.313 c 0,9.265 7.52,16.789 16.79,16.789 z"
         style="fill:none;stroke:#100f0d;stroke-width:5.0003;stroke-linecap:butt;stroke-linejoin:miter;stroke-miterlimit:4;stroke-dasharray:none;stroke-opacity:1"
         id="path94" /><g
         id="g96"
         transform="scale(10)"><text
           transform="matrix(1,0,0,-1,164.163,21.077)"
           style="font-variant:normal;font-weight:normal;font-size:6.99976px;font-family:Arial;-inkscape-font-specification:ArialMT;writing-mode:lr-tb;fill:#100f0d;fill-opacity:1;fill-rule:nonzero;stroke:none"
           id="text100"><tspan
             x="0 3.8918664"
             y="0"
             sodipodi:role="line"
             id="tspan98">50</tspan></text></g><path
         d="m 1818.96,285.387 h 190.2 c 9.27,0 16.79,-7.524 16.79,-16.789 v -78.313 c 0,-9.273 -7.52,-16.785 -16.79,-16.785 h -190.2 c -9.27,0 -16.79,7.512 -16.79,16.785 v 78.313 c 0,9.265 7.52,16.789 16.79,16.789"
         style="fill:#ffffff;fill-opacity:1;fill-rule:nonzero;stroke:none"
         id="path102" /><path
         d="m 1818.96,285.387 h 190.2 c 9.27,0 16.79,-7.524 16.79,-16.789 v -78.313 c 0,-9.273 -7.52,-16.785 -16.79,-16.785 h -190.2 c -9.27,0 -16.79,7.512 -16.79,16.785 v 78.313 c 0,9.265 7.52,16.789 16.79,16.789 z"
         style="fill:none;stroke:#100f0d;stroke-width:5.0003;stroke-linecap:butt;stroke-linejoin:miter;stroke-miterlimit:4;stroke-dasharray:none;stroke-opacity:1"
         id="path104" /><g
         id="g106"
         transform="scale(10)"><text
           transform="matrix(1,0,0,-1,186.541,21.077)"
           style="font-variant:normal;font-weight:normal;font-size:6.99976px;font-family:Arial;-inkscape-font-specification:ArialMT;writing-mode:lr-tb;fill:#100f0d;fill-opacity:1;fill-rule:nonzero;stroke:none"
           id="text110"><tspan
             x="0 3.8918664"
             y="0"
             sodipodi:role="line"
             id="tspan108">50</tspan></text></g></g></g></svg>
