<?xml version="1.0" encoding="UTF-8" standalone="no"?>
<!-- Created with Inkscape (http://www.inkscape.org/) -->

<svg
   version="1.1"
   id="svg2"
   xml:space="preserve"
   width="297.33334"
   height="162.66667"
   viewBox="0 0 297.33334 162.66667"
   sodipodi:docname="11-13.eps"
   xmlns:inkscape="http://www.inkscape.org/namespaces/inkscape"
   xmlns:sodipodi="http://sodipodi.sourceforge.net/DTD/sodipodi-0.dtd"
   xmlns="http://www.w3.org/2000/svg"
   xmlns:svg="http://www.w3.org/2000/svg"><defs
     id="defs6" /><sodipodi:namedview
     id="namedview4"
     pagecolor="#ffffff"
     bordercolor="#666666"
     borderopacity="1.0"
     inkscape:pageshadow="2"
     inkscape:pageopacity="0.0"
     inkscape:pagecheckerboard="0" /><g
     id="g8"
     inkscape:groupmode="layer"
     inkscape:label="ink_ext_XXXXXX"
     transform="matrix(1.3333333,0,0,-1.3333333,0,162.66667)"><g
       id="g10"
       transform="scale(0.1)"><path
         d="M 11.0664,1011.38 H 212.039 v 200.97 H 11.0664 v -200.97"
         style="fill:#fafbfb;fill-opacity:1;fill-rule:nonzero;stroke:none"
         id="path12" /><path
         d="M 11.0664,1011.38 H 212.039 v 200.97 H 11.0664 Z"
         style="fill:none;stroke:#5e6061;stroke-width:5.0003;stroke-linecap:butt;stroke-linejoin:miter;stroke-miterlimit:4;stroke-dasharray:none;stroke-opacity:1"
         id="path14" /><g
         id="g16"
         transform="scale(10)"><text
           transform="matrix(1,0,0,-1,9.20859,109.32)"
           style="font-variant:normal;font-weight:normal;font-size:6.99976px;font-family:Arial;-inkscape-font-specification:ArialMT;writing-mode:lr-tb;fill:#2f2d2e;fill-opacity:1;fill-rule:nonzero;stroke:none"
           id="text20"><tspan
             x="0"
             y="0"
             id="tspan18">0</tspan></text></g><path
         d="m 212.039,1011.38 h 200.965 v 200.97 H 212.039 v -200.97"
         style="fill:#fafbfb;fill-opacity:1;fill-rule:nonzero;stroke:none"
         id="path22" /><path
         d="m 212.039,1011.38 h 200.965 v 200.97 H 212.039 Z"
         style="fill:none;stroke:#5e6061;stroke-width:5.0003;stroke-linecap:butt;stroke-linejoin:miter;stroke-miterlimit:4;stroke-dasharray:none;stroke-opacity:1"
         id="path24" /><g
         id="g26"
         transform="scale(10)"><text
           transform="matrix(1,0,0,-1,29.3055,109.32)"
           style="font-variant:normal;font-weight:normal;font-size:6.99976px;font-family:Arial;-inkscape-font-specification:ArialMT;writing-mode:lr-tb;fill:#2f2d2e;fill-opacity:1;fill-rule:nonzero;stroke:none"
           id="text30"><tspan
             x="0"
             y="0"
             id="tspan28">1</tspan></text></g><path
         d="m 413.004,1011.38 h 200.969 v 200.97 H 413.004 v -200.97"
         style="fill:#fafbfb;fill-opacity:1;fill-rule:nonzero;stroke:none"
         id="path32" /><path
         d="m 413.004,1011.38 h 200.969 v 200.97 H 413.004 Z"
         style="fill:none;stroke:#5e6061;stroke-width:5.0003;stroke-linecap:butt;stroke-linejoin:miter;stroke-miterlimit:4;stroke-dasharray:none;stroke-opacity:1"
         id="path34" /><g
         id="g36"
         transform="scale(10)"><text
           transform="matrix(1,0,0,-1,49.4027,109.32)"
           style="font-variant:normal;font-weight:normal;font-size:6.99976px;font-family:Arial;-inkscape-font-specification:ArialMT;writing-mode:lr-tb;fill:#2f2d2e;fill-opacity:1;fill-rule:nonzero;stroke:none"
           id="text40"><tspan
             x="0"
             y="0"
             id="tspan38">2</tspan></text></g><path
         d="M 613.961,1011.38 H 814.93 v 200.97 H 613.961 v -200.97"
         style="fill:#fafbfb;fill-opacity:1;fill-rule:nonzero;stroke:none"
         id="path42" /><path
         d="M 613.961,1011.38 H 814.93 v 200.97 H 613.961 Z"
         style="fill:none;stroke:#5e6061;stroke-width:5.0003;stroke-linecap:butt;stroke-linejoin:miter;stroke-miterlimit:4;stroke-dasharray:none;stroke-opacity:1"
         id="path44" /><g
         id="g46"
         transform="scale(10)"><text
           transform="matrix(1,0,0,-1,69.4984,109.32)"
           style="font-variant:normal;font-weight:normal;font-size:6.99976px;font-family:Arial;-inkscape-font-specification:ArialMT;writing-mode:lr-tb;fill:#2f2d2e;fill-opacity:1;fill-rule:nonzero;stroke:none"
           id="text50"><tspan
             x="0"
             y="0"
             id="tspan48">3</tspan></text></g><path
         d="m 814.93,1011.38 h 200.96 v 200.97 H 814.93 v -200.97"
         style="fill:#fafbfb;fill-opacity:1;fill-rule:nonzero;stroke:none"
         id="path52" /><path
         d="m 814.93,1011.38 h 200.96 v 200.97 H 814.93 Z"
         style="fill:none;stroke:#5e6061;stroke-width:5.0003;stroke-linecap:butt;stroke-linejoin:miter;stroke-miterlimit:4;stroke-dasharray:none;stroke-opacity:1"
         id="path54" /><g
         id="g56"
         transform="scale(10)"><text
           transform="matrix(1,0,0,-1,89.5949,109.32)"
           style="font-variant:normal;font-weight:normal;font-size:6.99976px;font-family:Arial;-inkscape-font-specification:ArialMT;writing-mode:lr-tb;fill:#2f2d2e;fill-opacity:1;fill-rule:nonzero;stroke:none"
           id="text60"><tspan
             x="0"
             y="0"
             id="tspan58">4</tspan></text></g><path
         d="m 1015.89,1011.38 h 200.98 v 200.97 h -200.98 v -200.97"
         style="fill:#fafbfb;fill-opacity:1;fill-rule:nonzero;stroke:none"
         id="path62" /><path
         d="m 1015.89,1011.38 h 200.98 v 200.97 h -200.98 z"
         style="fill:none;stroke:#5e6061;stroke-width:5.0003;stroke-linecap:butt;stroke-linejoin:miter;stroke-miterlimit:4;stroke-dasharray:none;stroke-opacity:1"
         id="path64" /><g
         id="g66"
         transform="scale(10)"><text
           transform="matrix(1,0,0,-1,109.691,109.32)"
           style="font-variant:normal;font-weight:normal;font-size:6.99976px;font-family:Arial;-inkscape-font-specification:ArialMT;writing-mode:lr-tb;fill:#2f2d2e;fill-opacity:1;fill-rule:nonzero;stroke:none"
           id="text70"><tspan
             x="0"
             y="0"
             id="tspan68">5</tspan></text></g><path
         d="m 1216.87,1011.38 h 200.97 v 200.97 h -200.97 v -200.97"
         style="fill:#fafbfb;fill-opacity:1;fill-rule:nonzero;stroke:none"
         id="path72" /><path
         d="m 1216.87,1011.38 h 200.97 v 200.97 h -200.97 z"
         style="fill:none;stroke:#5e6061;stroke-width:5.0003;stroke-linecap:butt;stroke-linejoin:miter;stroke-miterlimit:4;stroke-dasharray:none;stroke-opacity:1"
         id="path74" /><g
         id="g76"
         transform="scale(10)"><text
           transform="matrix(1,0,0,-1,129.789,109.32)"
           style="font-variant:normal;font-weight:normal;font-size:6.99976px;font-family:Arial;-inkscape-font-specification:ArialMT;writing-mode:lr-tb;fill:#2f2d2e;fill-opacity:1;fill-rule:nonzero;stroke:none"
           id="text80"><tspan
             x="0"
             y="0"
             id="tspan78">6</tspan></text></g><path
         d="m 1417.84,1011.38 h 200.96 v 200.97 h -200.96 v -200.97"
         style="fill:#fafbfb;fill-opacity:1;fill-rule:nonzero;stroke:none"
         id="path82" /><path
         d="m 1417.84,1011.38 h 200.96 v 200.97 h -200.96 z"
         style="fill:none;stroke:#5e6061;stroke-width:5.0003;stroke-linecap:butt;stroke-linejoin:miter;stroke-miterlimit:4;stroke-dasharray:none;stroke-opacity:1"
         id="path84" /><g
         id="g86"
         transform="scale(10)"><text
           transform="matrix(1,0,0,-1,149.886,109.32)"
           style="font-variant:normal;font-weight:normal;font-size:6.99976px;font-family:Arial;-inkscape-font-specification:ArialMT;writing-mode:lr-tb;fill:#2f2d2e;fill-opacity:1;fill-rule:nonzero;stroke:none"
           id="text90"><tspan
             x="0"
             y="0"
             id="tspan88">7</tspan></text></g><path
         d="m 1618.8,1011.38 h 200.97 v 200.97 H 1618.8 v -200.97"
         style="fill:#fafbfb;fill-opacity:1;fill-rule:nonzero;stroke:none"
         id="path92" /><path
         d="m 1618.8,1011.38 h 200.97 v 200.97 H 1618.8 Z"
         style="fill:none;stroke:#5e6061;stroke-width:5.0003;stroke-linecap:butt;stroke-linejoin:miter;stroke-miterlimit:4;stroke-dasharray:none;stroke-opacity:1"
         id="path94" /><g
         id="g96"
         transform="scale(10)"><text
           transform="matrix(1,0,0,-1,169.982,109.32)"
           style="font-variant:normal;font-weight:normal;font-size:6.99976px;font-family:Arial;-inkscape-font-specification:ArialMT;writing-mode:lr-tb;fill:#2f2d2e;fill-opacity:1;fill-rule:nonzero;stroke:none"
           id="text100"><tspan
             x="0"
             y="0"
             id="tspan98">8</tspan></text></g><path
         d="m 1819.77,1011.38 h 200.96 v 200.97 h -200.96 v -200.97"
         style="fill:#fafbfb;fill-opacity:1;fill-rule:nonzero;stroke:none"
         id="path102" /><path
         d="m 1819.77,1011.38 h 200.96 v 200.97 h -200.96 z"
         style="fill:none;stroke:#5e6061;stroke-width:5.0003;stroke-linecap:butt;stroke-linejoin:miter;stroke-miterlimit:4;stroke-dasharray:none;stroke-opacity:1"
         id="path104" /><g
         id="g106"
         transform="scale(10)"><text
           transform="matrix(1,0,0,-1,190.078,109.32)"
           style="font-variant:normal;font-weight:normal;font-size:6.99976px;font-family:Arial;-inkscape-font-specification:ArialMT;writing-mode:lr-tb;fill:#2f2d2e;fill-opacity:1;fill-rule:nonzero;stroke:none"
           id="text110"><tspan
             x="0"
             y="0"
             id="tspan108">9</tspan></text></g><path
         d="m 2020.73,1011.38 h 200.97 v 200.97 h -200.97 v -200.97"
         style="fill:#fafbfb;fill-opacity:1;fill-rule:nonzero;stroke:none"
         id="path112" /><path
         d="m 2020.73,1011.38 h 200.97 v 200.97 h -200.97 z"
         style="fill:none;stroke:#5e6061;stroke-width:5.0003;stroke-linecap:butt;stroke-linejoin:miter;stroke-miterlimit:4;stroke-dasharray:none;stroke-opacity:1"
         id="path114" /><g
         id="g116"
         transform="scale(10)"><text
           transform="matrix(1,0,0,-1,208.229,109.32)"
           style="font-variant:normal;font-weight:normal;font-size:6.99976px;font-family:Arial;-inkscape-font-specification:ArialMT;writing-mode:lr-tb;fill:#2f2d2e;fill-opacity:1;fill-rule:nonzero;stroke:none"
           id="text120"><tspan
             x="0 3.8918664"
             y="0"
             sodipodi:role="line"
             id="tspan118">10</tspan></text></g><path
         d="m 416.523,709.93 h 294.411 c 112.933,0 204.488,-91.555 204.488,-204.489 V 361.754 c 0,-112.93 -91.555,-204.488 -204.488,-204.488 H 416.523 c -112.937,0 -204.484,91.558 -204.484,204.488 v 143.687 c 0,112.934 91.547,204.489 204.484,204.489"
         style="fill:#c9e4f3;fill-opacity:1;fill-rule:nonzero;stroke:none"
         id="path122" /><path
         d="m 416.523,709.93 h 294.411 c 112.933,0 204.488,-91.555 204.488,-204.489 V 361.754 c 0,-112.93 -91.555,-204.488 -204.488,-204.488 H 416.523 c -112.937,0 -204.484,91.558 -204.484,204.488 v 143.687 c 0,112.934 91.547,204.489 204.484,204.489 z"
         style="fill:none;stroke:#2a3786;stroke-width:5.0003;stroke-linecap:butt;stroke-linejoin:miter;stroke-miterlimit:4;stroke-dasharray:none;stroke-opacity:1"
         id="path124" /><g
         id="g126"
         transform="scale(10)"><text
           transform="matrix(1,0,0,-1,33.4156,45.6938)"
           style="font-variant:normal;font-weight:normal;font-size:6.99976px;font-family:Arial;-inkscape-font-specification:ArialMT;writing-mode:lr-tb;fill:#100f0d;fill-opacity:1;fill-rule:nonzero;stroke:none"
           id="text132"><tspan
             x="0 5.0538268 8.945693 12.83756 16.33744 20.229307 26.060106 29.951973 32.282894 34.228825 38.120693 42.012558"
             y="0"
             sodipodi:role="line"
             id="tspan128">Consumer app</tspan><tspan
             x="-4.0124998 -0.51261997 3.3792465 9.2100468 15.040847 16.594793 18.540728 22.040607 23.98654 27.879683 31.618744 35.118626 39.01049 40.956425"
             y="8.4003897"
             sodipodi:role="line"
             id="tspan130">commits ofset:</tspan></text><text
           transform="matrix(1,0,0,-1,78.2617,37.29341)"
           style="font-style:italic;font-variant:normal;font-weight:normal;font-size:6.99976px;font-family:Arial;-inkscape-font-specification:Arial-ItalicMT-NormalItalic;writing-mode:lr-tb;fill:#100f0d;fill-opacity:1;fill-rule:nonzero;stroke:none"
           id="text136"><tspan
             x="0"
             y="0"
             id="tspan134">N</tspan></text></g><path
         d="m 1494.2,709.93 h 349.69 c 97.66,0 176.84,-79.18 176.84,-176.848 V 334.121 c 0,-97.676 -79.18,-176.855 -176.84,-176.855 H 1494.2 c -97.67,0 -176.85,79.179 -176.85,176.855 v 198.961 c 0,97.668 79.18,176.848 176.85,176.848"
         style="fill:#c9e4f3;fill-opacity:1;fill-rule:nonzero;stroke:none"
         id="path138" /><path
         d="m 1494.2,709.93 h 349.69 c 97.66,0 176.84,-79.18 176.84,-176.848 V 334.121 c 0,-97.676 -79.18,-176.855 -176.84,-176.855 H 1494.2 c -97.67,0 -176.85,79.179 -176.85,176.855 v 198.961 c 0,97.668 79.18,176.848 176.85,176.848 z"
         style="fill:none;stroke:#2a3786;stroke-width:5.0003;stroke-linecap:butt;stroke-linejoin:miter;stroke-miterlimit:4;stroke-dasharray:none;stroke-opacity:1"
         id="path140" /><g
         id="g142"
         transform="scale(10)"><text
           transform="matrix(1,0,0,-1,145.114,49.893)"
           style="font-variant:normal;font-weight:normal;font-size:6.99976px;font-family:Arial;-inkscape-font-specification:ArialMT;writing-mode:lr-tb;fill:#100f0d;fill-opacity:1;fill-rule:nonzero;stroke:none"
           id="text150"><tspan
             x="0 4.6688399 8.5607061 12.452573 14.398506 16.729427 20.621292 24.121174 26.067106 29.958973 32.289894 34.235825 35.789772 39.681641"
             y="0"
             sodipodi:role="line"
             id="tspan144">App restarting</tspan><tspan
             x="-0.57773399 1.7531861 5.6450524 9.1449327 13.036799 18.867599 20.421547 24.313412 28.205278 30.151213 32.097145 34.428066 38.319931"
             y="8.4003897"
             sodipodi:role="line"
             id="tspan146">resuming from</tspan><tspan
             x="-1.882814 -0.32886729 3.5629992 5.5089326 9.4007988 12.90068 14.846612 16.792545 20.685938 24.425007 27.924887 31.816753 33.762688 35.708618 37.654552 41.546421"
             y="16.799999"
             sodipodi:role="line"
             id="tspan148">latest ofset: 10</tspan></text></g><path
         d="M 915.422,6.54688 212.039,810.41"
         style="fill:none;stroke:#ee2a26;stroke-width:5.0003;stroke-linecap:butt;stroke-linejoin:miter;stroke-miterlimit:10;stroke-dasharray:none;stroke-opacity:1"
         id="path152" /><path
         d="M 915.422,810.41 161.789,6.54688"
         style="fill:none;stroke:#ee2a26;stroke-width:5.0003;stroke-linecap:butt;stroke-linejoin:miter;stroke-miterlimit:10;stroke-dasharray:none;stroke-opacity:1"
         id="path154" /></g></g></svg>
