<?xml version="1.0" encoding="UTF-8" standalone="no"?>
<!-- Created with Inkscape (http://www.inkscape.org/) -->

<svg
   version="1.1"
   id="svg2"
   xml:space="preserve"
   width="225.33333"
   height="141.33333"
   viewBox="0 0 225.33333 141.33333"
   sodipodi:docname="11-1.eps"
   xmlns:inkscape="http://www.inkscape.org/namespaces/inkscape"
   xmlns:sodipodi="http://sodipodi.sourceforge.net/DTD/sodipodi-0.dtd"
   xmlns="http://www.w3.org/2000/svg"
   xmlns:svg="http://www.w3.org/2000/svg"><defs
     id="defs6" /><sodipodi:namedview
     id="namedview4"
     pagecolor="#ffffff"
     bordercolor="#666666"
     borderopacity="1.0"
     inkscape:pageshadow="2"
     inkscape:pageopacity="0.0"
     inkscape:pagecheckerboard="0" /><g
     id="g8"
     inkscape:groupmode="layer"
     inkscape:label="ink_ext_XXXXXX"
     transform="matrix(1.3333333,0,0,-1.3333333,0,141.33333)"><g
       id="g10"
       transform="scale(0.1)"><path
         d="m 613.477,313.656 h 465.813 c 25.72,0 46.58,-20.851 46.58,-46.578 V 49.6953 c 0,-25.7187 -20.86,-46.58202 -46.58,-46.58202 H 613.477 c -25.731,0 -46.582,20.86332 -46.582,46.58202 V 267.078 c 0,25.727 20.851,46.578 46.582,46.578"
         style="fill:#fafbfb;fill-opacity:1;fill-rule:nonzero;stroke:none"
         id="path12" /><path
         d="m 613.477,313.656 h 465.813 c 25.72,0 46.58,-20.851 46.58,-46.578 V 49.6953 c 0,-25.7187 -20.86,-46.58202 -46.58,-46.58202 H 613.477 c -25.731,0 -46.582,20.86332 -46.582,46.58202 V 267.078 c 0,25.727 20.851,46.578 46.582,46.578 z"
         style="fill:none;stroke:#5e6061;stroke-width:5.0003;stroke-linecap:butt;stroke-linejoin:miter;stroke-miterlimit:4;stroke-dasharray:none;stroke-opacity:1"
         id="path14" /><g
         id="g16"
         transform="scale(10)"><text
           transform="matrix(1,0,0,-1,62.6289,13.9723)"
           style="font-variant:normal;font-weight:normal;font-size:6.99976px;font-family:Arial;-inkscape-font-specification:ArialMT;writing-mode:lr-tb;fill:#2f2d2e;fill-opacity:1;fill-rule:nonzero;stroke:none"
           id="text20"><tspan
             x="0 5.8308001 9.7226667 11.6686 13.99952 15.553467 19.053347 22.553226 24.499161 27.999041 31.890907 34.221828 37.721706 41.613575"
             y="0"
             sodipodi:role="line"
             id="tspan18">Metrics server</tspan></text></g><path
         d="m 1172.44,1055.79 h 465.82 c 25.72,0 46.57,-20.85 46.57,-46.58 V 791.824 c 0,-25.726 -20.85,-46.578 -46.57,-46.578 h -465.82 c -25.72,0 -46.57,20.852 -46.57,46.578 v 217.386 c 0,25.73 20.85,46.58 46.57,46.58"
         style="fill:#fafbfb;fill-opacity:1;fill-rule:nonzero;stroke:none"
         id="path22" /><path
         d="m 1172.44,1055.79 h 465.82 c 25.72,0 46.57,-20.85 46.57,-46.58 V 791.824 c 0,-25.726 -20.85,-46.578 -46.57,-46.578 h -465.82 c -25.72,0 -46.57,20.852 -46.57,46.578 v 217.386 c 0,25.73 20.85,46.58 46.57,46.58 z"
         style="fill:none;stroke:#5e6061;stroke-width:5.0003;stroke-linecap:butt;stroke-linejoin:miter;stroke-miterlimit:4;stroke-dasharray:none;stroke-opacity:1"
         id="path24" /><path
         d="M 54.5039,1055.79 H 520.32 c 25.723,0 46.575,-20.85 46.575,-46.58 V 791.824 c 0,-25.726 -20.852,-46.578 -46.575,-46.578 H 54.5039 c -25.7187,0 -46.57812,20.852 -46.57812,46.578 v 217.386 c 0,25.73 20.85942,46.58 46.57812,46.58"
         style="fill:#fafbfb;fill-opacity:1;fill-rule:nonzero;stroke:none"
         id="path26" /><path
         d="M 54.5039,1055.79 H 520.32 c 25.723,0 46.575,-20.85 46.575,-46.58 V 791.824 c 0,-25.726 -20.852,-46.578 -46.575,-46.578 H 54.5039 c -25.7187,0 -46.57812,20.852 -46.57812,46.578 v 217.386 c 0,25.73 20.85942,46.58 46.57812,46.58 z"
         style="fill:none;stroke:#5e6061;stroke-width:5.0003;stroke-linecap:butt;stroke-linejoin:miter;stroke-miterlimit:4;stroke-dasharray:none;stroke-opacity:1"
         id="path28" /><g
         id="g30"
         transform="scale(10)"><text
           transform="matrix(1,0,0,-1,14.7324,92.3844)"
           style="font-variant:normal;font-weight:normal;font-size:6.99976px;font-family:Arial;-inkscape-font-specification:ArialMT;writing-mode:lr-tb;fill:#2f2d2e;fill-opacity:1;fill-rule:nonzero;stroke:none"
           id="text40"><tspan
             x="0 4.2768536 6.6077733 10.49964 14.391506 16.33744 20.229307 24.121174"
             y="0"
             sodipodi:role="line"
             id="tspan32">Frontend</tspan><tspan
             x="1.36563 4.86551 8.7573767 11.088297 14.588177 18.480043 20.810963 22.756897"
             y="8.3999996"
             sodipodi:role="line"
             id="tspan34">server 1</tspan><tspan
             x="111.79363 116.07048 118.40141 122.29327 126.18513 128.13107 132.02293 135.91481"
             y="0"
             sodipodi:role="line"
             id="tspan36">Frontend</tspan><tspan
             x="113.16043 116.66031 120.55218 122.88309 126.38298 130.27484 132.60576 134.5517"
             y="8.3999996"
             sodipodi:role="line"
             id="tspan38">server 2</tspan></text></g><path
         d="M 846.379,451.508 V 357.953"
         style="fill:none;stroke:#100f0d;stroke-width:5.0003;stroke-linecap:butt;stroke-linejoin:miter;stroke-miterlimit:10;stroke-dasharray:none;stroke-opacity:1"
         id="path42" /><path
         d="m 831.852,367.863 14.527,-54.207 14.527,54.207 z"
         style="fill:#100f0d;fill-opacity:1;fill-rule:nonzero;stroke:none"
         id="path44" /><path
         d="M 287.41,745.246 V 451.508 h 1115.36 v 293.738"
         style="fill:none;stroke:#231f20;stroke-width:5.0003;stroke-linecap:butt;stroke-linejoin:miter;stroke-miterlimit:10;stroke-dasharray:none;stroke-opacity:1"
         id="path46" /><path
         d="m 1370.4,518.23 h 69.9 v 154.961 h -69.9 V 518.23"
         style="fill:#ffffff;fill-opacity:1;fill-rule:nonzero;stroke:none"
         id="path48" /><path
         d="m 252.496,518.23 h 69.902 V 673.191 H 252.496 V 518.23"
         style="fill:#ffffff;fill-opacity:1;fill-rule:nonzero;stroke:none"
         id="path50" /><g
         id="g52"
         transform="scale(10)"><text
           transform="matrix(1,0,0,-1,11.623,62.1711)"
           style="font-variant:normal;font-weight:normal;font-size:6.99976px;font-family:Arial;-inkscape-font-specification:ArialMT;writing-mode:lr-tb;fill:#100f0d;fill-opacity:1;fill-rule:nonzero;stroke:none"
           id="text62"><tspan
             x="0 4.6688399 8.5607061 12.452573 14.006519 15.560467 19.060347 22.952213 24.898146 26.452093 30.34396"
             y="0"
             sodipodi:role="line"
             id="tspan54">Application</tspan><tspan
             x="5.8445301 11.67533 15.567197 17.51313 19.844049 21.397997 24.897877"
             y="8.3999996"
             sodipodi:role="line"
             id="tspan56">metrics</tspan><tspan
             x="111.78953 116.45837 120.35023 124.2421 125.79605 127.35 130.84988 134.74174 136.68768 138.24162 142.13348"
             y="0"
             sodipodi:role="line"
             id="tspan58">Application</tspan><tspan
             x="117.63445 123.46525 127.35712 129.30305 131.63397 133.18791 136.68779"
             y="8.3999996"
             sodipodi:role="line"
             id="tspan60">metrics</tspan></text></g></g></g></svg>
