<?xml version="1.0" encoding="UTF-8" standalone="no"?>
<!-- Created with Inkscape (http://www.inkscape.org/) -->

<svg
   version="1.1"
   id="svg2"
   xml:space="preserve"
   width="241.33333"
   height="173.33333"
   viewBox="0 0 241.33333 173.33333"
   sodipodi:docname="11-10.eps"
   xmlns:inkscape="http://www.inkscape.org/namespaces/inkscape"
   xmlns:sodipodi="http://sodipodi.sourceforge.net/DTD/sodipodi-0.dtd"
   xmlns="http://www.w3.org/2000/svg"
   xmlns:svg="http://www.w3.org/2000/svg"><defs
     id="defs6" /><sodipodi:namedview
     id="namedview4"
     pagecolor="#ffffff"
     bordercolor="#666666"
     borderopacity="1.0"
     inkscape:pageshadow="2"
     inkscape:pageopacity="0.0"
     inkscape:pagecheckerboard="0" /><g
     id="g8"
     inkscape:groupmode="layer"
     inkscape:label="ink_ext_XXXXXX"
     transform="matrix(1.3333333,0,0,-1.3333333,0,173.33333)"><g
       id="g10"
       transform="scale(0.1)"><path
         d="M 562.426,236.723 H 1206.04"
         style="fill:none;stroke:#100f0d;stroke-width:5.0003;stroke-linecap:butt;stroke-linejoin:miter;stroke-miterlimit:10;stroke-dasharray:none;stroke-opacity:1"
         id="path12" /><path
         d="m 1196.12,222.191 54.21,14.532 -54.21,14.527 z"
         style="fill:#100f0d;fill-opacity:1;fill-rule:nonzero;stroke:none"
         id="path14" /><g
         id="g16"
         transform="scale(10)"><text
           transform="matrix(1,0,0,-1,69.8203,26.2582)"
           style="font-variant:normal;font-weight:normal;font-size:6.99976px;font-family:Arial;-inkscape-font-specification:ArialMT;writing-mode:lr-tb;fill:#100f0d;fill-opacity:1;fill-rule:nonzero;stroke:none"
           id="text22"><tspan
             x="0 3.8918664 5.8378 7.7837329 12.83756 16.729427 20.621292 22.17524 23.729187 27.229067 31.120934 33.066868"
             y="0"
             sodipodi:role="line"
             id="tspan18">3. Replicate</tspan><tspan
             x="7.7793002 11.671166 15.563033 17.508966 21.400833 23.346766 27.238632 30.738512 34.238392 38.13026"
             y="8.3999996"
             sodipodi:role="line"
             id="tspan20">data async</tspan></text></g><path
         d="M 80.8984,466.016 H 493.633 c 37.992,0 68.793,-30.801 68.793,-68.789 V 76.2109 c 0,-37.9882 -30.801,-68.80074 -68.793,-68.80074 H 80.8984 c -37.9882,0 -68.789,30.81254 -68.789,68.80074 V 397.227 c 0,37.988 30.8008,68.789 68.789,68.789"
         style="fill:#c9e4f3;fill-opacity:1;fill-rule:nonzero;stroke:none"
         id="path24" /><path
         d="M 80.8984,466.016 H 493.633 c 37.992,0 68.793,-30.801 68.793,-68.789 V 76.2109 c 0,-37.9882 -30.801,-68.80074 -68.793,-68.80074 H 80.8984 c -37.9882,0 -68.789,30.81254 -68.789,68.80074 V 397.227 c 0,37.988 30.8008,68.789 68.789,68.789 z"
         style="fill:none;stroke:#2a3786;stroke-width:5.0003;stroke-linecap:butt;stroke-linejoin:miter;stroke-miterlimit:4;stroke-dasharray:none;stroke-opacity:1"
         id="path26" /><path
         d="M 1250.33,351.367 H 606.723"
         style="fill:none;stroke:#100f0d;stroke-width:5.0003;stroke-linecap:butt;stroke-linejoin:miter;stroke-miterlimit:10;stroke-dasharray:none;stroke-opacity:1"
         id="path28" /><path
         d="M 616.633,365.895 562.426,351.367 616.633,336.84 Z"
         style="fill:#100f0d;fill-opacity:1;fill-rule:nonzero;stroke:none"
         id="path30" /><g
         id="g32"
         transform="scale(10)"><text
           transform="matrix(1,0,0,-1,66.9082,46.6879)"
           style="font-variant:normal;font-weight:normal;font-size:6.99976px;font-family:Arial;-inkscape-font-specification:ArialMT;writing-mode:lr-tb;fill:#100f0d;fill-opacity:1;fill-rule:nonzero;stroke:none"
           id="text38"><tspan
             x="0 3.8918664 5.8378 7.7837329 12.83756 16.729427 20.229307 24.121174 28.013039 31.904905"
             y="0"
             sodipodi:role="line"
             id="tspan34">4. Respond</tspan><tspan
             x="7.7793002 12.833127 14.387074 16.333006 20.224873 22.170807 25.670687 29.562553 33.062431 36.562313 40.454178 43.95406"
             y="8.3999996"
             sodipodi:role="line"
             id="tspan36">with success</tspan></text></g><path
         d="m 1319.12,466.016 h 412.74 c 37.98,0 68.79,-30.801 68.79,-68.789 V 76.2109 c 0,-37.9882 -30.81,-68.80074 -68.79,-68.80074 h -412.74 c -38,0 -68.79,30.81254 -68.79,68.80074 V 397.227 c 0,37.988 30.79,68.789 68.79,68.789"
         style="fill:#c9e4f3;fill-opacity:1;fill-rule:nonzero;stroke:none"
         id="path40" /><path
         d="m 1319.12,466.016 h 412.74 c 37.98,0 68.79,-30.801 68.79,-68.789 V 76.2109 c 0,-37.9882 -30.81,-68.80074 -68.79,-68.80074 h -412.74 c -38,0 -68.79,30.81254 -68.79,68.80074 V 397.227 c 0,37.988 30.79,68.789 68.79,68.789 z"
         style="fill:none;stroke:#2a3786;stroke-width:5.0003;stroke-linecap:butt;stroke-linejoin:miter;stroke-miterlimit:4;stroke-dasharray:none;stroke-opacity:1"
         id="path42" /><path
         d="M 654.145,1016.33 V 741.176 H 287.266 V 510.313"
         style="fill:none;stroke:#100f0d;stroke-width:5.0003;stroke-linecap:butt;stroke-linejoin:miter;stroke-miterlimit:10;stroke-dasharray:none;stroke-opacity:1"
         id="path44" /><path
         d="m 272.738,520.219 14.528,-54.203 14.527,54.203 z"
         style="fill:#100f0d;fill-opacity:1;fill-rule:nonzero;stroke:none"
         id="path46" /><g
         id="g48"
         transform="scale(10)"><text
           transform="matrix(1,0,0,-1,9.50781,77.718)"
           style="font-variant:normal;font-weight:normal;font-size:6.99976px;font-family:Arial;-inkscape-font-specification:ArialMT;writing-mode:lr-tb;fill:#100f0d;fill-opacity:1;fill-rule:nonzero;stroke:none"
           id="text52"><tspan
             x="0 3.8918664 5.8378 7.7837329 12.452573 16.34444 20.236305 24.128172 27.634373 32.303215 37.35704 42.025879 43.971813 48.059673 50.005608"
             y="0"
             sodipodi:role="line"
             id="tspan50">1. Send,ACK = 1</tspan></text></g><path
         d="m 557.832,1291.49 h 467.778 c 22.79,0 41.27,-18.48 41.27,-41.27 V 1057.6 c 0,-22.79 -18.48,-41.27 -41.27,-41.27 H 557.832 c -22.793,0 -41.269,18.48 -41.269,41.27 v 192.62 c 0,22.79 18.476,41.27 41.269,41.27"
         style="fill:#def1c3;fill-opacity:1;fill-rule:nonzero;stroke:none"
         id="path54" /><path
         d="m 557.832,1291.49 h 467.778 c 22.79,0 41.27,-18.48 41.27,-41.27 V 1057.6 c 0,-22.79 -18.48,-41.27 -41.27,-41.27 H 557.832 c -22.793,0 -41.269,18.48 -41.269,41.27 v 192.62 c 0,22.79 18.476,41.27 41.269,41.27 z"
         style="fill:none;stroke:#278c3d;stroke-width:5.0003;stroke-linecap:butt;stroke-linejoin:miter;stroke-miterlimit:4;stroke-dasharray:none;stroke-opacity:1"
         id="path56" /><g
         id="g58"
         transform="scale(10)"><text
           transform="matrix(1,0,0,-1,70.1734,117.724)"
           style="font-variant:normal;font-weight:normal;font-size:6.99976px;font-family:Arial;-inkscape-font-specification:ArialMT;writing-mode:lr-tb;fill:#100f0d;fill-opacity:1;fill-rule:nonzero;stroke:none"
           id="text64"><tspan
             x="0 4.6688399 8.5607061 10.506639 14.006519"
             y="0"
             sodipodi:role="line"
             id="tspan60">Kafka</tspan><tspan
             x="-4.8640599 -0.97219342 1.3587266 5.2505932 9.1424599 13.034327 16.534206 20.426073"
             y="8.3999996"
             sodipodi:role="line"
             id="tspan62">producer</tspan></text></g><path
         d="M 424.844,466.016 V 603.598 H 975.16 v 368.437"
         style="fill:none;stroke:#100f0d;stroke-width:5.0003;stroke-linecap:butt;stroke-linejoin:miter;stroke-miterlimit:10;stroke-dasharray:none;stroke-opacity:1"
         id="path66" /><path
         d="M 989.688,962.129 975.16,1016.33 960.637,962.129 Z"
         style="fill:#100f0d;fill-opacity:1;fill-rule:nonzero;stroke:none"
         id="path68" /><g
         id="g70"
         transform="scale(10)"><text
           transform="matrix(1,0,0,-1,100.671,83.8902)"
           style="font-variant:normal;font-weight:normal;font-size:6.99976px;font-family:Arial;-inkscape-font-specification:ArialMT;writing-mode:lr-tb;fill:#100f0d;fill-opacity:1;fill-rule:nonzero;stroke:none"
           id="text92"><tspan
             x="0 3.8918664 5.8378 7.7837329 12.83756 16.729427 20.229307 24.121174 26.452093 30.34396 32.289894 34.620811 38.51268 42.404545 43.958492 45.51244 49.012318 52.904186 54.850121 58.741985"
             y="0"
             sodipodi:role="line"
             id="tspan72">2. Record replicated</tspan><tspan
             x="8.79883 10.744763 14.63663 16.582563 20.47443 24.366297 28.258163 30.204096 34.095963 36.426884 40.318748 43.81863 47.710495 49.660152"
             y="8.3996096"
             sodipodi:role="line"
             id="tspan74">to one broker,</tspan><tspan
             x="8.563674 10.894594 14.786461 16.732393 20.62426 22.955181 26.847048 28.79298 32.292862 36.184727 39.684608 43.184486 47.076355 50.576233"
             y="16.79961"
             sodipodi:role="line"
             id="tspan76">return success</tspan><tspan
             x="-85.171829 -80.502983 -78.172066 -74.280197 -70.780319 -66.888451 -64.557533 -62.611599 38.649727 43.318569 45.64949 49.541355 53.041237 56.933102 59.264023 61.209953"
             y="46.66251"
             sodipodi:role="line"
             id="tspan78">Broker 1Broker 2</tspan><tspan
             x="-85.560104 -82.060104 -78.168243 -74.276375 -72.722427 -69.222549 -66.891624 -62.22279"
             y="58.612911"
             sodipodi:role="line"
             id="tspan80">Topic-A,</tspan><tspan
             x="-87.70269 -83.033844 -79.141983 -76.811058 -74.865128 -73.31118 -71.36525 -69.811302 -65.919434 -62.027569 -60.081635"
             y="67.012131"
             sodipodi:role="line"
             id="tspan82">Partition 0</tspan><tspan
             x="-82.842529 -78.950661 -75.058792 -71.166924 -67.275063 -63.383194"
             y="75.412132"
             sodipodi:role="line"
             id="tspan84">Leader</tspan><tspan
             x="38.262474 41.76247 45.654339 49.546204 51.100151 54.600033 56.93095 61.599792"
             y="58.61293"
             sodipodi:role="line"
             id="tspan86">Topic-A,</tspan><tspan
             x="36.119503 40.788342 44.68021 47.011131 48.957062 50.511009 52.456944 54.010891 57.902756 61.794624 63.740555"
             y="67.012154"
             sodipodi:role="line"
             id="tspan88">Partition 0</tspan><tspan
             x="38.652313 42.929165 46.821033 48.374981 49.928925 53.820793 58.874619 62.766487"
             y="75.412148"
             sodipodi:role="line"
             id="tspan90">Follower</tspan></text></g></g></g></svg>
