<?xml version="1.0" encoding="UTF-8" standalone="no"?>
<!-- Created with Inkscape (http://www.inkscape.org/) -->

<svg
   version="1.1"
   id="svg2"
   xml:space="preserve"
   width="470.66666"
   height="157.33333"
   viewBox="0 0 470.66666 157.33333"
   sodipodi:docname="11-2.eps"
   xmlns:inkscape="http://www.inkscape.org/namespaces/inkscape"
   xmlns:sodipodi="http://sodipodi.sourceforge.net/DTD/sodipodi-0.dtd"
   xmlns="http://www.w3.org/2000/svg"
   xmlns:svg="http://www.w3.org/2000/svg"><defs
     id="defs6" /><sodipodi:namedview
     id="namedview4"
     pagecolor="#ffffff"
     bordercolor="#666666"
     borderopacity="1.0"
     inkscape:pageshadow="2"
     inkscape:pageopacity="0.0"
     inkscape:pagecheckerboard="0" /><g
     id="g8"
     inkscape:groupmode="layer"
     inkscape:label="ink_ext_XXXXXX"
     transform="matrix(1.3333333,0,0,-1.3333333,0,157.33333)"><g
       id="g10"
       transform="scale(0.1)"><path
         d="M 11.6523,817.566 H 362.594 V 1168.51 H 11.6523 V 817.566"
         style="fill:#fafbfb;fill-opacity:1;fill-rule:nonzero;stroke:none"
         id="path12" /><path
         d="M 11.6523,817.566 H 362.594 V 1168.51 H 11.6523 Z"
         style="fill:none;stroke:#5e6061;stroke-width:5.0003;stroke-linecap:butt;stroke-linejoin:miter;stroke-miterlimit:4;stroke-dasharray:none;stroke-opacity:1"
         id="path14" /><g
         id="g16"
         transform="scale(10)"><text
           transform="matrix(1,0,0,-1,4.7043,101.637)"
           style="font-variant:normal;font-weight:normal;font-size:6.99976px;font-family:Arial;-inkscape-font-specification:ArialMT;writing-mode:lr-tb;fill:#2f2d2e;fill-opacity:1;fill-rule:nonzero;stroke:none"
           id="text22"><tspan
             x="0 4.2768536 6.6077733 10.49964 14.391506 16.33744 20.229307 24.121174"
             y="0"
             sodipodi:role="line"
             id="tspan18">Frontend</tspan><tspan
             x="1.36523 4.8651099 8.7569761 11.087896 14.587776 18.479643 20.810564 22.756496"
             y="8.3999996"
             sodipodi:role="line"
             id="tspan20">server 1</tspan></text></g><path
         d="m 1064.48,817.566 h 350.95 V 1168.51 H 1064.48 V 817.566"
         style="fill:#fafbfb;fill-opacity:1;fill-rule:nonzero;stroke:none"
         id="path24" /><path
         d="m 1064.48,817.566 h 350.95 v 350.944 h -350.95 z"
         style="fill:none;stroke:#5e6061;stroke-width:5.0003;stroke-linecap:butt;stroke-linejoin:miter;stroke-miterlimit:4;stroke-dasharray:none;stroke-opacity:1"
         id="path26" /><g
         id="g28"
         transform="scale(10)"><text
           transform="matrix(1,0,0,-1,112.647,101.637)"
           style="font-variant:normal;font-weight:normal;font-size:6.99976px;font-family:Arial;-inkscape-font-specification:ArialMT;writing-mode:lr-tb;fill:#2f2d2e;fill-opacity:1;fill-rule:nonzero;stroke:none"
           id="text34"><tspan
             x="0 5.0538268 8.945693 13.614533 19.060347"
             y="0"
             sodipodi:role="line"
             id="tspan30">NoSQL</tspan><tspan
             x="-3.0531299 0.83873653 4.7306032 6.6765366 10.568403 14.46027 18.352137 21.852016"
             y="8.3999996"
             sodipodi:role="line"
             id="tspan32">database</tspan></text></g><path
         d="m 1590.9,817.566 h 350.95 V 1168.51 H 1590.9 V 817.566"
         style="fill:#fafbfb;fill-opacity:1;fill-rule:nonzero;stroke:none"
         id="path36" /><path
         d="m 1590.9,817.566 h 350.95 V 1168.51 H 1590.9 Z"
         style="fill:none;stroke:#5e6061;stroke-width:5.0003;stroke-linecap:butt;stroke-linejoin:miter;stroke-miterlimit:4;stroke-dasharray:none;stroke-opacity:1"
         id="path38" /><g
         id="g40"
         transform="scale(10)"><text
           transform="matrix(1,0,0,-1,169.763,101.637)"
           style="font-variant:normal;font-weight:normal;font-size:6.99976px;font-family:Arial;-inkscape-font-specification:ArialMT;writing-mode:lr-tb;fill:#2f2d2e;fill-opacity:1;fill-rule:nonzero;stroke:none"
           id="text46"><tspan
             x="0 4.6688399 10.114654"
             y="0"
             sodipodi:role="line"
             id="tspan42">SQL</tspan><tspan
             x="-7.5281301 -3.6362634 0.25560313 2.2015364 6.0934029 9.9852695 13.877136 17.377016"
             y="8.3999996"
             sodipodi:role="line"
             id="tspan44">database</tspan></text></g><path
         d="m 2643.74,817.566 h 350.94 V 1168.51 H 2643.74 V 817.566"
         style="fill:#fafbfb;fill-opacity:1;fill-rule:nonzero;stroke:none"
         id="path48" /><path
         d="m 2643.74,817.566 h 350.94 v 350.944 h -350.94 z"
         style="fill:none;stroke:#5e6061;stroke-width:5.0003;stroke-linecap:butt;stroke-linejoin:miter;stroke-miterlimit:4;stroke-dasharray:none;stroke-opacity:1"
         id="path50" /><g
         id="g52"
         transform="scale(10)"><text
           transform="matrix(1,0,0,-1,268.109,101.637)"
           style="font-variant:normal;font-weight:normal;font-size:6.99976px;font-family:Arial;-inkscape-font-specification:ArialMT;writing-mode:lr-tb;fill:#2f2d2e;fill-opacity:1;fill-rule:nonzero;stroke:none"
           id="text58"><tspan
             x="0 4.6688399 8.5607061 12.060587 17.891386 21.783253 25.675119"
             y="0"
             sodipodi:role="line"
             id="tspan54">Payment</tspan><tspan
             x="2.7249999 6.2248802 10.116747 12.447666 15.947547 17.501493 21.001373"
             y="8.3999996"
             sodipodi:role="line"
             id="tspan56">service</tspan></text></g><path
         d="m 2117.32,817.566 h 350.95 V 1168.51 H 2117.32 V 817.566"
         style="fill:#fafbfb;fill-opacity:1;fill-rule:nonzero;stroke:none"
         id="path60" /><path
         d="m 2117.32,817.566 h 350.95 v 350.944 h -350.95 z"
         style="fill:none;stroke:#5e6061;stroke-width:5.0003;stroke-linecap:butt;stroke-linejoin:miter;stroke-miterlimit:4;stroke-dasharray:none;stroke-opacity:1"
         id="path62" /><g
         id="g64"
         transform="scale(10)"><text
           transform="matrix(1,0,0,-1,214.888,101.637)"
           style="font-variant:normal;font-weight:normal;font-size:6.99976px;font-family:Arial;-inkscape-font-specification:ArialMT;writing-mode:lr-tb;fill:#2f2d2e;fill-opacity:1;fill-rule:nonzero;stroke:none"
           id="text70"><tspan
             x="0 4.6688399 8.1687202 11.6686 15.560467 19.452333 23.3442 25.290133"
             y="0"
             sodipodi:role="line"
             id="tspan66">Accounts</tspan><tspan
             x="3.31094 6.8108201 10.702686 13.033607 16.533487 18.087433 21.587313"
             y="8.3999996"
             sodipodi:role="line"
             id="tspan68">service</tspan></text></g><path
         d="M 3170.16,817.566 H 3521.1 V 1168.51 H 3170.16 V 817.566"
         style="fill:#fafbfb;fill-opacity:1;fill-rule:nonzero;stroke:none"
         id="path72" /><path
         d="M 3170.16,817.566 H 3521.1 V 1168.51 H 3170.16 Z"
         style="fill:none;stroke:#5e6061;stroke-width:5.0003;stroke-linecap:butt;stroke-linejoin:miter;stroke-miterlimit:4;stroke-dasharray:none;stroke-opacity:1"
         id="path74" /><g
         id="g76"
         transform="scale(10)"><text
           transform="matrix(1,0,0,-1,320.941,101.637)"
           style="font-variant:normal;font-weight:normal;font-size:6.99976px;font-family:Arial;-inkscape-font-specification:ArialMT;writing-mode:lr-tb;fill:#2f2d2e;fill-opacity:1;fill-rule:nonzero;stroke:none"
           id="text82"><tspan
             x="0 4.6688399 8.5607061 12.060587 15.560467 19.452333 23.3442"
             y="0"
             sodipodi:role="line"
             id="tspan78">Beckend</tspan><tspan
             x="3.8968799 7.39676 11.288627 13.619547 17.119427 21.011293"
             y="8.3999996"
             sodipodi:role="line"
             id="tspan80">server</tspan></text></g><path
         d="M 538.07,817.566 H 889.016 V 1168.51 H 538.07 V 817.566"
         style="fill:#fafbfb;fill-opacity:1;fill-rule:nonzero;stroke:none"
         id="path84" /><path
         d="M 538.07,817.566 H 889.016 V 1168.51 H 538.07 Z"
         style="fill:none;stroke:#5e6061;stroke-width:5.0003;stroke-linecap:butt;stroke-linejoin:miter;stroke-miterlimit:4;stroke-dasharray:none;stroke-opacity:1"
         id="path86" /><path
         d="m 2799.9,291.152 h 477.29 c 23.26,0 42.11,-18.855 42.11,-42.109 V 52.5 c 0,-23.25 -18.85,-42.1094 -42.11,-42.1094 H 2799.9 c -23.25,0 -42.1,18.8594 -42.1,42.1094 v 196.543 c 0,23.254 18.85,42.109 42.1,42.109"
         style="fill:#c9e4f3;fill-opacity:1;fill-rule:nonzero;stroke:none"
         id="path88" /><path
         d="m 2799.9,291.152 h 477.29 c 23.26,0 42.11,-18.855 42.11,-42.109 V 52.5 c 0,-23.25 -18.85,-42.1094 -42.11,-42.1094 H 2799.9 c -23.25,0 -42.1,18.8594 -42.1,42.1094 v 196.543 c 0,23.254 18.85,42.109 42.1,42.109 z"
         style="fill:none;stroke:#293985;stroke-width:5.0003;stroke-linecap:butt;stroke-linejoin:miter;stroke-miterlimit:4;stroke-dasharray:none;stroke-opacity:1"
         id="path90" /><g
         id="g92"
         transform="scale(10)"><text
           transform="matrix(1,0,0,-1,288.873,17.4105)"
           style="font-variant:normal;font-weight:normal;font-size:6.99976px;font-family:Arial;-inkscape-font-specification:ArialMT;writing-mode:lr-tb;fill:#100f0d;fill-opacity:1;fill-rule:nonzero;stroke:none"
           id="text98"><tspan
             x="0 5.0538268 8.945693 10.891626 14.783493 18.67536 22.567226 26.067106"
             y="0"
             sodipodi:role="line"
             id="tspan94">Database</tspan><tspan
             x="-1.35938 4.4714203 8.363287 12.255154 13.8091 15.755033 19.6469 21.977819 23.531767 27.423634"
             y="8.4003897"
             sodipodi:role="line"
             id="tspan96">monitoring</tspan></text></g><path
         d="m 1150.46,291.152 h 477.31 c 23.25,0 42.1,-18.855 42.1,-42.109 V 52.5 c 0,-23.25 -18.85,-42.1094 -42.1,-42.1094 h -477.31 c -23.25,0 -42.11,18.8594 -42.11,42.1094 v 196.543 c 0,23.254 18.86,42.109 42.11,42.109"
         style="fill:#c9e4f3;fill-opacity:1;fill-rule:nonzero;stroke:none"
         id="path100" /><path
         d="m 1150.46,291.152 h 477.31 c 23.25,0 42.1,-18.855 42.1,-42.109 V 52.5 c 0,-23.25 -18.85,-42.1094 -42.1,-42.1094 h -477.31 c -23.25,0 -42.11,18.8594 -42.11,42.1094 v 196.543 c 0,23.254 18.86,42.109 42.11,42.109 z"
         style="fill:none;stroke:#293985;stroke-width:5.0003;stroke-linecap:butt;stroke-linejoin:miter;stroke-miterlimit:4;stroke-dasharray:none;stroke-opacity:1"
         id="path102" /><g
         id="g104"
         transform="scale(10)"><text
           transform="matrix(1,0,0,-1,127.634,17.4105)"
           style="font-variant:normal;font-weight:normal;font-size:6.99976px;font-family:Arial;-inkscape-font-specification:ArialMT;writing-mode:lr-tb;fill:#100f0d;fill-opacity:1;fill-rule:nonzero;stroke:none"
           id="text110"><tspan
             x="0 5.8308001 9.7226667 11.6686 13.99952 15.553467 19.053347"
             y="0"
             sodipodi:role="line"
             id="tspan106">Metrics</tspan><tspan
             x="-12.5891 -8.6961346 -3.4253156 -1.8713688 2.0204978 5.9123645 7.8582978 11.750164 15.642031 19.533897 21.087845 24.587725 26.533657 28.087605 31.587484"
             y="8.4003897"
             sodipodi:role="line"
             id="tspan108">ofine analytics</tspan></text></g><path
         d="M 343.289,291.152 H 820.59 c 23.25,0 42.101,-18.855 42.101,-42.109 V 52.5 c 0,-23.25 -18.851,-42.1094 -42.101,-42.1094 H 343.289 c -23.258,0 -42.105,18.8594 -42.105,42.1094 v 196.543 c 0,23.254 18.847,42.109 42.105,42.109"
         style="fill:#c9e4f3;fill-opacity:1;fill-rule:nonzero;stroke:none"
         id="path112" /><path
         d="M 343.289,291.152 H 820.59 c 23.25,0 42.101,-18.855 42.101,-42.109 V 52.5 c 0,-23.25 -18.851,-42.1094 -42.101,-42.1094 H 343.289 c -23.258,0 -42.105,18.8594 -42.105,42.1094 v 196.543 c 0,23.254 18.847,42.109 42.105,42.109 z"
         style="fill:none;stroke:#293985;stroke-width:5.0003;stroke-linecap:butt;stroke-linejoin:miter;stroke-miterlimit:4;stroke-dasharray:none;stroke-opacity:1"
         id="path114" /><g
         id="g116"
         transform="scale(10)"><text
           transform="matrix(1,0,0,-1,46.9156,17.4105)"
           style="font-variant:normal;font-weight:normal;font-size:6.99976px;font-family:Arial;-inkscape-font-specification:ArialMT;writing-mode:lr-tb;fill:#100f0d;fill-opacity:1;fill-rule:nonzero;stroke:none"
           id="text122"><tspan
             x="0 5.8308001 9.7226667 11.6686 13.99952 15.553467 19.053347"
             y="0"
             sodipodi:role="line"
             id="tspan118">Metrics</tspan><tspan
             x="-5.2632799 -1.3714135 2.5204532 6.0203333 9.9122 13.804067 17.695932 21.587799 23.91872"
             y="8.4003897"
             sodipodi:role="line"
             id="tspan120">dashboard</tspan></text></g><path
         d="m 2380.52,291.152 v 219.336 h 350.95 V 773.27"
         style="fill:none;stroke:#100f0d;stroke-width:5.0003;stroke-linecap:butt;stroke-linejoin:miter;stroke-miterlimit:10;stroke-dasharray:none;stroke-opacity:1"
         id="path124" /><path
         d="m 2746,763.359 -14.53,54.207 -14.52,-54.207 z"
         style="fill:#100f0d;fill-opacity:1;fill-rule:nonzero;stroke:none"
         id="path126" /><path
         d="M 187.125,817.566 V 554.355 H 581.938 V 340.352"
         style="fill:none;stroke:#100f0d;stroke-width:5.0003;stroke-linecap:butt;stroke-linejoin:miter;stroke-miterlimit:10;stroke-dasharray:none;stroke-opacity:1"
         id="path128" /><path
         d="m 567.41,350.254 14.528,-54.199 14.527,54.199 z"
         style="fill:#100f0d;fill-opacity:1;fill-rule:nonzero;stroke:none"
         id="path130" /><path
         d="M 274.859,789.641 V 510.488 h 438.684 v -85.683 h 789.617 v -42.832 h 737 v -90.821"
         style="fill:none;stroke:#100f0d;stroke-width:5.0003;stroke-linecap:butt;stroke-linejoin:miter;stroke-miterlimit:10;stroke-dasharray:none;stroke-opacity:1"
         id="path132" /><path
         d="M 274.859,768.367 V 379.688 H 1283.82 v 174.667 h 745.76 v -87.734 h 263.21 v 87.734 h 921.23 V 335.449"
         style="fill:none;stroke:#100f0d;stroke-width:5.0003;stroke-linecap:butt;stroke-linejoin:miter;stroke-miterlimit:10;stroke-dasharray:none;stroke-opacity:1"
         id="path134" /><path
         d="m 260.336,758.457 14.523,54.203 14.528,-54.203 z"
         style="fill:#100f0d;fill-opacity:1;fill-rule:nonzero;stroke:none"
         id="path136" /><path
         d="m 3199.5,345.352 14.52,-54.2 14.53,54.2 z"
         style="fill:#100f0d;fill-opacity:1;fill-rule:nonzero;stroke:none"
         id="path138" /><path
         d="M 274.859,466.621 H 3214.02"
         style="fill:none;stroke:#100f0d;stroke-width:5.0003;stroke-linecap:butt;stroke-linejoin:miter;stroke-miterlimit:10;stroke-dasharray:none;stroke-opacity:1"
         id="path140" /><path
         d="M 3214.02,422.75 H 2029.58"
         style="fill:none;stroke:#100f0d;stroke-width:5.0003;stroke-linecap:butt;stroke-linejoin:miter;stroke-miterlimit:10;stroke-dasharray:none;stroke-opacity:1"
         id="path142" /><path
         d="M 1766.37,817.566 V 554.355 h 570.29 V 335.449"
         style="fill:none;stroke:#100f0d;stroke-width:5.0003;stroke-linecap:butt;stroke-linejoin:miter;stroke-miterlimit:10;stroke-dasharray:none;stroke-opacity:1"
         id="path144" /><path
         d="m 2322.13,345.352 14.53,-54.2 14.54,54.2 z"
         style="fill:#100f0d;fill-opacity:1;fill-rule:nonzero;stroke:none"
         id="path146" /><path
         d="M 801.277,510.488 H 2205.05"
         style="fill:none;stroke:#100f0d;stroke-width:5.0003;stroke-linecap:butt;stroke-linejoin:miter;stroke-miterlimit:10;stroke-dasharray:none;stroke-opacity:1"
         id="path148" /><path
         d="M 1766.37,466.621 V 378.887"
         style="fill:none;stroke:#100f0d;stroke-width:5.0003;stroke-linecap:butt;stroke-linejoin:miter;stroke-miterlimit:10;stroke-dasharray:none;stroke-opacity:1"
         id="path150" /><path
         d="M 713.543,642.094 H 581.938 V 335.449"
         style="fill:none;stroke:#100f0d;stroke-width:5.0003;stroke-linecap:butt;stroke-linejoin:miter;stroke-miterlimit:10;stroke-dasharray:none;stroke-opacity:1"
         id="path152" /><path
         d="m 567.41,345.352 14.528,-54.2 14.527,54.2 z"
         style="fill:#100f0d;fill-opacity:1;fill-rule:nonzero;stroke:none"
         id="path154" /><path
         d="M 757.41,291.152 V 773.27"
         style="fill:none;stroke:#100f0d;stroke-width:5.0003;stroke-linecap:butt;stroke-linejoin:miter;stroke-miterlimit:10;stroke-dasharray:none;stroke-opacity:1"
         id="path156" /><path
         d="M 771.938,763.359 757.41,817.566 742.883,763.359 Z"
         style="fill:#100f0d;fill-opacity:1;fill-rule:nonzero;stroke:none"
         id="path158" /><path
         d="M 1239.96,817.566 V 685.961 H 801.277 l 0.688,-307.074 h 400.415 l -0.34,-43.446"
         style="fill:none;stroke:#100f0d;stroke-width:5.0003;stroke-linecap:butt;stroke-linejoin:miter;stroke-miterlimit:10;stroke-dasharray:none;stroke-opacity:1"
         id="path160" /><path
         d="m 1187.58,345.469 14.1,-54.317 14.95,54.082 z"
         style="fill:#100f0d;fill-opacity:1;fill-rule:nonzero;stroke:none"
         id="path162" /><path
         d="M 713.543,817.566 V 598.223 H 1389.11 V 335.449"
         style="fill:none;stroke:#100f0d;stroke-width:5.0003;stroke-linecap:butt;stroke-linejoin:miter;stroke-miterlimit:10;stroke-dasharray:none;stroke-opacity:1"
         id="path164" /><path
         d="m 1374.58,345.352 14.53,-54.2 14.53,54.2 z"
         style="fill:#100f0d;fill-opacity:1;fill-rule:nonzero;stroke:none"
         id="path166" /><path
         d="M 1327.7,773.27 V 466.621 h 701.88 V 291.152"
         style="fill:none;stroke:#100f0d;stroke-width:5.0003;stroke-linecap:butt;stroke-linejoin:miter;stroke-miterlimit:10;stroke-dasharray:none;stroke-opacity:1"
         id="path168" /><path
         d="m 1313.17,763.359 14.53,54.207 14.52,-54.207 z"
         style="fill:#100f0d;fill-opacity:1;fill-rule:nonzero;stroke:none"
         id="path170" /><path
         d="M 1735.68,817.566 V 466.68 h 425.7 V 335.449"
         style="fill:none;stroke:#100f0d;stroke-width:5.0003;stroke-linecap:butt;stroke-linejoin:miter;stroke-miterlimit:10;stroke-dasharray:none;stroke-opacity:1"
         id="path172" /><path
         d="m 2146.85,345.352 14.53,-54.2 14.52,54.2 z"
         style="fill:#100f0d;fill-opacity:1;fill-rule:nonzero;stroke:none"
         id="path174" /><path
         d="M 1854.11,773.27 V 554.355 h 350.94 V 291.152"
         style="fill:none;stroke:#100f0d;stroke-width:5.0003;stroke-linecap:butt;stroke-linejoin:miter;stroke-miterlimit:10;stroke-dasharray:none;stroke-opacity:1"
         id="path176" /><path
         d="m 1839.58,763.359 14.53,54.207 14.53,-54.207 z"
         style="fill:#100f0d;fill-opacity:1;fill-rule:nonzero;stroke:none"
         id="path178" /><path
         d="M 2380.13,773.27 V 510.488 h 482.95 V 291.152"
         style="fill:none;stroke:#100f0d;stroke-width:5.0003;stroke-linecap:butt;stroke-linejoin:miter;stroke-miterlimit:10;stroke-dasharray:none;stroke-opacity:1"
         id="path180" /><path
         d="m 2365.6,763.359 14.53,54.207 14.51,-54.207 z"
         style="fill:#100f0d;fill-opacity:1;fill-rule:nonzero;stroke:none"
         id="path182" /><path
         d="M 3345.62,817.566 V 510.488 H 3038.55 V 335.449"
         style="fill:none;stroke:#100f0d;stroke-width:5.0003;stroke-linecap:butt;stroke-linejoin:miter;stroke-miterlimit:10;stroke-dasharray:none;stroke-opacity:1"
         id="path184" /><path
         d="m 3024.02,345.352 14.53,-54.2 14.52,54.2 z"
         style="fill:#100f0d;fill-opacity:1;fill-rule:nonzero;stroke:none"
         id="path186" /><path
         d="M 1564.58,291.152 V 598.223 H 3433.36 V 773.27"
         style="fill:none;stroke:#100f0d;stroke-width:5.0003;stroke-linecap:butt;stroke-linejoin:miter;stroke-miterlimit:10;stroke-dasharray:none;stroke-opacity:1"
         id="path188" /><path
         d="m 3447.89,763.359 -14.53,54.207 -14.53,-54.207 z"
         style="fill:#100f0d;fill-opacity:1;fill-rule:nonzero;stroke:none"
         id="path190" /><path
         d="m 2380.52,291.152 v 263.203 h 526.43 V 771.98"
         style="fill:none;stroke:#100f0d;stroke-width:5.0003;stroke-linecap:butt;stroke-linejoin:miter;stroke-miterlimit:10;stroke-dasharray:none;stroke-opacity:1"
         id="path192" /><path
         d="m 2921.47,762.07 -14.52,54.207 -14.52,-54.207 z"
         style="fill:#100f0d;fill-opacity:1;fill-rule:nonzero;stroke:none"
         id="path194" /><path
         d="m 1966.41,291.152 h 477.3 c 23.25,0 42.11,-18.855 42.11,-42.109 V 52.5 c 0,-23.25 -18.86,-42.1094 -42.11,-42.1094 h -477.3 c -23.26,0 -42.11,18.8594 -42.11,42.1094 v 196.543 c 0,23.254 18.85,42.109 42.11,42.109"
         style="fill:#c9e4f3;fill-opacity:1;fill-rule:nonzero;stroke:none"
         id="path196" /><path
         d="m 1966.41,291.152 h 477.3 c 23.25,0 42.11,-18.855 42.11,-42.109 V 52.5 c 0,-23.25 -18.86,-42.1094 -42.11,-42.1094 h -477.3 c -23.26,0 -42.11,18.8594 -42.11,42.1094 v 196.543 c 0,23.254 18.85,42.109 42.11,42.109 z"
         style="fill:none;stroke:#293985;stroke-width:5.0003;stroke-linecap:butt;stroke-linejoin:miter;stroke-miterlimit:4;stroke-dasharray:none;stroke-opacity:1"
         id="path198" /><g
         id="g200"
         transform="scale(10)"><text
           transform="matrix(1,0,0,-1,209.612,17.4105)"
           style="font-variant:normal;font-weight:normal;font-size:6.99976px;font-family:Arial;-inkscape-font-specification:ArialMT;writing-mode:lr-tb;fill:#100f0d;fill-opacity:1;fill-rule:nonzero;stroke:none"
           id="text206"><tspan
             x="0 5.4458132 9.3376799 11.283613 14.783493 18.67536 20.229307"
             y="0"
             sodipodi:role="line"
             id="tspan202">On call</tspan><tspan
             x="-5.44805 0.38275009 4.2746167 8.1664829 9.7204304 11.666363 15.558229 17.889151 19.443096 23.334963"
             y="8.4003897"
             sodipodi:role="line"
             id="tspan204">monitoring</tspan></text></g><g
         id="g208"
         transform="scale(10)"><text
           transform="matrix(1,0,0,-1,57.3461,101.637)"
           style="font-variant:normal;font-weight:normal;font-size:6.99976px;font-family:Arial;-inkscape-font-specification:ArialMT;writing-mode:lr-tb;fill:#2f2d2e;fill-opacity:1;fill-rule:nonzero;stroke:none"
           id="text214"><tspan
             x="0 4.2768536 6.6077733 10.49964 14.391506 16.33744 20.229307 24.121174"
             y="0"
             sodipodi:role="line"
             id="tspan210">Frontend</tspan><tspan
             x="1.36523 4.8651099 8.7569761 11.087896 14.587776 18.479643 20.810564 22.756496"
             y="8.3999996"
             sodipodi:role="line"
             id="tspan212">server 2</tspan></text></g></g></g></svg>
