<?xml version="1.0" encoding="UTF-8" standalone="no"?>
<!-- Created with Inkscape (http://www.inkscape.org/) -->

<svg
   version="1.1"
   id="svg2"
   xml:space="preserve"
   width="470.66666"
   height="194.66667"
   viewBox="0 0 470.66666 194.66667"
   sodipodi:docname="11-3.eps"
   xmlns:inkscape="http://www.inkscape.org/namespaces/inkscape"
   xmlns:sodipodi="http://sodipodi.sourceforge.net/DTD/sodipodi-0.dtd"
   xmlns="http://www.w3.org/2000/svg"
   xmlns:svg="http://www.w3.org/2000/svg"><defs
     id="defs6" /><sodipodi:namedview
     id="namedview4"
     pagecolor="#ffffff"
     bordercolor="#666666"
     borderopacity="1.0"
     inkscape:pageshadow="2"
     inkscape:pageopacity="0.0"
     inkscape:pagecheckerboard="0" /><g
     id="g8"
     inkscape:groupmode="layer"
     inkscape:label="ink_ext_XXXXXX"
     transform="matrix(1.3333333,0,0,-1.3333333,0,194.66667)"><g
       id="g10"
       transform="scale(0.1)"><path
         d="M 11.6523,1102.32 H 362.594 v 350.95 H 11.6523 v -350.95"
         style="fill:#fafbfb;fill-opacity:1;fill-rule:nonzero;stroke:none"
         id="path12" /><path
         d="M 11.6523,1102.32 H 362.594 v 350.95 H 11.6523 Z"
         style="fill:none;stroke:#5e6061;stroke-width:5.0003;stroke-linecap:butt;stroke-linejoin:miter;stroke-miterlimit:4;stroke-dasharray:none;stroke-opacity:1"
         id="path14" /><g
         id="g16"
         transform="scale(10)"><text
           transform="matrix(1,0,0,-1,4.7043,130.113)"
           style="font-variant:normal;font-weight:normal;font-size:6.99976px;font-family:Arial;-inkscape-font-specification:ArialMT;writing-mode:lr-tb;fill:#2f2d2e;fill-opacity:1;fill-rule:nonzero;stroke:none"
           id="text22"><tspan
             x="0 4.2768536 6.6077733 10.49964 14.391506 16.33744 20.229307 24.121174"
             y="0"
             sodipodi:role="line"
             id="tspan18">Frontend</tspan><tspan
             x="1.36523 4.8651099 8.7569761 11.087896 14.587776 18.479643 20.810564 22.756496"
             y="8.3996096"
             sodipodi:role="line"
             id="tspan20">server 1</tspan></text></g><path
         d="m 1064.48,1102.32 h 350.95 v 350.95 h -350.95 v -350.95"
         style="fill:#fafbfb;fill-opacity:1;fill-rule:nonzero;stroke:none"
         id="path24" /><path
         d="m 1064.48,1102.32 h 350.95 v 350.95 h -350.95 z"
         style="fill:none;stroke:#5e6061;stroke-width:5.0003;stroke-linecap:butt;stroke-linejoin:miter;stroke-miterlimit:4;stroke-dasharray:none;stroke-opacity:1"
         id="path26" /><g
         id="g28"
         transform="scale(10)"><text
           transform="matrix(1,0,0,-1,112.648,130.113)"
           style="font-variant:normal;font-weight:normal;font-size:6.99976px;font-family:Arial;-inkscape-font-specification:ArialMT;writing-mode:lr-tb;fill:#2f2d2e;fill-opacity:1;fill-rule:nonzero;stroke:none"
           id="text34"><tspan
             x="0 5.0538268 8.945693 13.614533 19.060347"
             y="0"
             sodipodi:role="line"
             id="tspan30">NoSQL</tspan><tspan
             x="-3.0543001 0.83756655 4.7294331 6.6753664 10.567233 14.4591 18.350965 21.850845"
             y="8.3996096"
             sodipodi:role="line"
             id="tspan32">database</tspan></text></g><path
         d="m 1590.9,1102.32 h 350.95 v 350.95 H 1590.9 v -350.95"
         style="fill:#fafbfb;fill-opacity:1;fill-rule:nonzero;stroke:none"
         id="path36" /><path
         d="m 1590.9,1102.32 h 350.95 v 350.95 H 1590.9 Z"
         style="fill:none;stroke:#5e6061;stroke-width:5.0003;stroke-linecap:butt;stroke-linejoin:miter;stroke-miterlimit:4;stroke-dasharray:none;stroke-opacity:1"
         id="path38" /><g
         id="g40"
         transform="scale(10)"><text
           transform="matrix(1,0,0,-1,168.791,130.113)"
           style="font-variant:normal;font-weight:normal;font-size:6.99976px;font-family:Arial;-inkscape-font-specification:ArialMT;writing-mode:lr-tb;fill:#2f2d2e;fill-opacity:1;fill-rule:nonzero;stroke:none"
           id="text46"><tspan
             x="0 4.6688399 10.114654"
             y="0"
             sodipodi:role="line"
             id="tspan42">SQL</tspan><tspan
             x="-6.5550799 -2.6632135 1.2286531 3.1745863 7.066453 10.95832 14.850186 18.350065"
             y="8.3996096"
             sodipodi:role="line"
             id="tspan44">database</tspan></text></g><path
         d="m 2643.74,1102.32 h 350.94 v 350.95 h -350.94 v -350.95"
         style="fill:#fafbfb;fill-opacity:1;fill-rule:nonzero;stroke:none"
         id="path48" /><path
         d="m 2643.74,1102.32 h 350.94 v 350.95 h -350.94 z"
         style="fill:none;stroke:#5e6061;stroke-width:5.0003;stroke-linecap:butt;stroke-linejoin:miter;stroke-miterlimit:4;stroke-dasharray:none;stroke-opacity:1"
         id="path50" /><g
         id="g52"
         transform="scale(10)"><text
           transform="matrix(1,0,0,-1,268.109,130.113)"
           style="font-variant:normal;font-weight:normal;font-size:6.99976px;font-family:Arial;-inkscape-font-specification:ArialMT;writing-mode:lr-tb;fill:#2f2d2e;fill-opacity:1;fill-rule:nonzero;stroke:none"
           id="text58"><tspan
             x="0 4.6688399 8.5607061 12.060587 17.891386 21.783253 25.675119"
             y="0"
             sodipodi:role="line"
             id="tspan54">Payment</tspan><tspan
             x="2.7249999 6.2248802 10.116747 12.447666 15.947547 17.501493 21.001373"
             y="8.3996096"
             sodipodi:role="line"
             id="tspan56">service</tspan></text></g><path
         d="m 2117.32,1102.32 h 350.95 v 350.95 h -350.95 v -350.95"
         style="fill:#fafbfb;fill-opacity:1;fill-rule:nonzero;stroke:none"
         id="path60" /><path
         d="m 2117.32,1102.32 h 350.95 v 350.95 h -350.95 z"
         style="fill:none;stroke:#5e6061;stroke-width:5.0003;stroke-linecap:butt;stroke-linejoin:miter;stroke-miterlimit:4;stroke-dasharray:none;stroke-opacity:1"
         id="path62" /><g
         id="g64"
         transform="scale(10)"><text
           transform="matrix(1,0,0,-1,214.888,130.113)"
           style="font-variant:normal;font-weight:normal;font-size:6.99976px;font-family:Arial;-inkscape-font-specification:ArialMT;writing-mode:lr-tb;fill:#2f2d2e;fill-opacity:1;fill-rule:nonzero;stroke:none"
           id="text70"><tspan
             x="0 4.6688399 8.1687202 11.6686 15.560467 19.452333 23.3442 25.290133"
             y="0"
             sodipodi:role="line"
             id="tspan66">Accounts</tspan><tspan
             x="3.31094 6.8108201 10.702686 13.033607 16.533487 18.087433 21.587313"
             y="8.3996096"
             sodipodi:role="line"
             id="tspan68">service</tspan></text></g><path
         d="m 3170.16,1102.32 h 350.94 v 350.95 h -350.94 v -350.95"
         style="fill:#fafbfb;fill-opacity:1;fill-rule:nonzero;stroke:none"
         id="path72" /><path
         d="m 3170.16,1102.32 h 350.94 v 350.95 h -350.94 z"
         style="fill:none;stroke:#5e6061;stroke-width:5.0003;stroke-linecap:butt;stroke-linejoin:miter;stroke-miterlimit:4;stroke-dasharray:none;stroke-opacity:1"
         id="path74" /><g
         id="g76"
         transform="scale(10)"><text
           transform="matrix(1,0,0,-1,320.941,130.113)"
           style="font-variant:normal;font-weight:normal;font-size:6.99976px;font-family:Arial;-inkscape-font-specification:ArialMT;writing-mode:lr-tb;fill:#2f2d2e;fill-opacity:1;fill-rule:nonzero;stroke:none"
           id="text82"><tspan
             x="0 4.6688399 8.5607061 12.060587 15.560467 19.452333 23.3442"
             y="0"
             sodipodi:role="line"
             id="tspan78">Beckend</tspan><tspan
             x="3.8968799 7.39676 11.288627 13.619547 17.119427 21.011293"
             y="8.3996096"
             sodipodi:role="line"
             id="tspan80">server</tspan></text></g><path
         d="m 538.07,1102.32 h 350.946 v 350.95 H 538.07 v -350.95"
         style="fill:#fafbfb;fill-opacity:1;fill-rule:nonzero;stroke:none"
         id="path84" /><path
         d="m 538.07,1102.32 h 350.946 v 350.95 H 538.07 Z"
         style="fill:none;stroke:#5e6061;stroke-width:5.0003;stroke-linecap:butt;stroke-linejoin:miter;stroke-miterlimit:4;stroke-dasharray:none;stroke-opacity:1"
         id="path86" /><path
         d="M 187.125,1102.32 V 970.727 H 3345.63 v 131.593"
         style="fill:none;stroke:#100f0d;stroke-width:5.0003;stroke-linecap:butt;stroke-linejoin:miter;stroke-miterlimit:10;stroke-dasharray:none;stroke-opacity:1"
         id="path88" /><path
         d="M 2819.2,970.727 V 1102.32"
         style="fill:none;stroke:#100f0d;stroke-width:5.0003;stroke-linecap:butt;stroke-linejoin:miter;stroke-miterlimit:10;stroke-dasharray:none;stroke-opacity:1"
         id="path90" /><path
         d="M 2292.79,970.727 V 1102.32"
         style="fill:none;stroke:#100f0d;stroke-width:5.0003;stroke-linecap:butt;stroke-linejoin:miter;stroke-miterlimit:10;stroke-dasharray:none;stroke-opacity:1"
         id="path92" /><path
         d="M 1766.37,970.727 V 1102.32"
         style="fill:none;stroke:#100f0d;stroke-width:5.0003;stroke-linecap:butt;stroke-linejoin:miter;stroke-miterlimit:10;stroke-dasharray:none;stroke-opacity:1"
         id="path94" /><path
         d="M 1239.96,970.727 V 1102.32"
         style="fill:none;stroke:#100f0d;stroke-width:5.0003;stroke-linecap:butt;stroke-linejoin:miter;stroke-miterlimit:10;stroke-dasharray:none;stroke-opacity:1"
         id="path96" /><path
         d="M 713.543,970.727 V 1102.32"
         style="fill:none;stroke:#100f0d;stroke-width:5.0003;stroke-linecap:butt;stroke-linejoin:miter;stroke-miterlimit:10;stroke-dasharray:none;stroke-opacity:1"
         id="path98" /><path
         d="M 1766.37,1102.32 V 883.418"
         style="fill:none;stroke:#100f0d;stroke-width:5.0003;stroke-linecap:butt;stroke-linejoin:miter;stroke-miterlimit:10;stroke-dasharray:none;stroke-opacity:1"
         id="path100" /><path
         d="m 1751.85,893.324 14.52,-54.203 14.53,54.203 z"
         style="fill:#100f0d;fill-opacity:1;fill-rule:nonzero;stroke:none"
         id="path102" /><path
         d="m 2595.47,268.836 h 447.48 c 21.79,0 39.47,-17.672 39.47,-39.473 V 45.1055 c 0,-21.8008 -17.68,-39.4805 -39.47,-39.4805 h -447.48 c -21.79,0 -39.47,17.6797 -39.47,39.4805 V 229.363 c 0,21.801 17.68,39.473 39.47,39.473"
         style="fill:#c9e4f3;fill-opacity:1;fill-rule:nonzero;stroke:none"
         id="path104" /><path
         d="m 2595.47,268.836 h 447.48 c 21.79,0 39.47,-17.672 39.47,-39.473 V 45.1055 c 0,-21.8008 -17.68,-39.4805 -39.47,-39.4805 h -447.48 c -21.79,0 -39.47,17.6797 -39.47,39.4805 V 229.363 c 0,21.801 17.68,39.473 39.47,39.473 z"
         style="fill:none;stroke:#293985;stroke-width:5.0003;stroke-linecap:butt;stroke-linejoin:miter;stroke-miterlimit:4;stroke-dasharray:none;stroke-opacity:1"
         id="path106" /><g
         id="g108"
         transform="scale(10)"><text
           transform="matrix(1,0,0,-1,266.938,16.0566)"
           style="font-variant:normal;font-weight:normal;font-size:6.99976px;font-family:Arial;-inkscape-font-specification:ArialMT;writing-mode:lr-tb;fill:#100f0d;fill-opacity:1;fill-rule:nonzero;stroke:none"
           id="text114"><tspan
             x="0 5.0538268 8.945693 10.891626 14.783493 18.67536 22.567226 26.067106"
             y="0"
             sodipodi:role="line"
             id="tspan110">Database</tspan><tspan
             x="-1.3589799 4.4718199 8.3636866 12.255553 13.8095 15.755433 19.647299 21.97822 23.532167 27.424032"
             y="8.3999996"
             sodipodi:role="line"
             id="tspan112">monitoring</tspan></text></g><path
         d="m 1876.04,268.836 h 447.46 c 21.81,0 39.47,-17.672 39.47,-39.473 V 45.1055 c 0,-21.8008 -17.66,-39.4805 -39.47,-39.4805 h -447.46 c -21.81,0 -39.48,17.6797 -39.48,39.4805 V 229.363 c 0,21.801 17.67,39.473 39.48,39.473"
         style="fill:#c9e4f3;fill-opacity:1;fill-rule:nonzero;stroke:none"
         id="path116" /><path
         d="m 1876.04,268.836 h 447.46 c 21.81,0 39.47,-17.672 39.47,-39.473 V 45.1055 c 0,-21.8008 -17.66,-39.4805 -39.47,-39.4805 h -447.46 c -21.81,0 -39.48,17.6797 -39.48,39.4805 V 229.363 c 0,21.801 17.67,39.473 39.48,39.473 z"
         style="fill:none;stroke:#293985;stroke-width:5.0003;stroke-linecap:butt;stroke-linejoin:miter;stroke-miterlimit:4;stroke-dasharray:none;stroke-opacity:1"
         id="path118" /><g
         id="g120"
         transform="scale(10)"><text
           transform="matrix(1,0,0,-1,199.083,16.0566)"
           style="font-variant:normal;font-weight:normal;font-size:6.99976px;font-family:Arial;-inkscape-font-specification:ArialMT;writing-mode:lr-tb;fill:#100f0d;fill-opacity:1;fill-rule:nonzero;stroke:none"
           id="text126"><tspan
             x="0 5.4458132 9.3376799 11.283613 14.783493 18.67536 20.229307"
             y="0"
             sodipodi:role="line"
             id="tspan122">On call</tspan><tspan
             x="-5.44805 0.38275009 4.2746167 8.1664829 9.7204304 11.666363 15.558229 17.889151 19.443096 23.334963"
             y="8.3999996"
             sodipodi:role="line"
             id="tspan124">monitoring</tspan></text></g><path
         d="m 1174.15,268.836 h 447.46 c 21.8,0 39.48,-17.672 39.48,-39.473 V 45.1055 c 0,-21.8008 -17.68,-39.4805 -39.48,-39.4805 h -447.46 c -21.81,0 -39.48,17.6797 -39.48,39.4805 V 229.363 c 0,21.801 17.67,39.473 39.48,39.473"
         style="fill:#c9e4f3;fill-opacity:1;fill-rule:nonzero;stroke:none"
         id="path128" /><path
         d="m 1174.15,268.836 h 447.46 c 21.8,0 39.48,-17.672 39.48,-39.473 V 45.1055 c 0,-21.8008 -17.68,-39.4805 -39.48,-39.4805 h -447.46 c -21.81,0 -39.48,17.6797 -39.48,39.4805 V 229.363 c 0,21.801 17.67,39.473 39.48,39.473 z"
         style="fill:none;stroke:#293985;stroke-width:5.0003;stroke-linecap:butt;stroke-linejoin:miter;stroke-miterlimit:4;stroke-dasharray:none;stroke-opacity:1"
         id="path130" /><g
         id="g132"
         transform="scale(10)"><text
           transform="matrix(1,0,0,-1,128.51,16.0566)"
           style="font-variant:normal;font-weight:normal;font-size:6.99976px;font-family:Arial;-inkscape-font-specification:ArialMT;writing-mode:lr-tb;fill:#100f0d;fill-opacity:1;fill-rule:nonzero;stroke:none"
           id="text138"><tspan
             x="0 5.8308001 9.7226667 11.6686 13.99952 15.553467 19.053347"
             y="0"
             sodipodi:role="line"
             id="tspan134">Metrics</tspan><tspan
             x="-12.5879 -8.6949348 -3.4241154 -1.8701688 2.0216978 5.9135642 7.8594975 11.751364 15.64323 19.535097 21.089045 24.588924 26.534857 28.088804 31.588684"
             y="8.3999996"
             sodipodi:role="line"
             id="tspan136">ofine analytics</tspan></text></g><path
         d="m 489.809,268.836 h 447.464 c 21.801,0 39.477,-17.672 39.477,-39.473 V 45.1055 C 976.75,23.3047 959.074,5.625 937.273,5.625 H 489.809 c -21.805,0 -39.473,17.6797 -39.473,39.4805 V 229.363 c 0,21.801 17.668,39.473 39.473,39.473"
         style="fill:#c9e4f3;fill-opacity:1;fill-rule:nonzero;stroke:none"
         id="path140" /><path
         d="m 489.809,268.836 h 447.464 c 21.801,0 39.477,-17.672 39.477,-39.473 V 45.1055 C 976.75,23.3047 959.074,5.625 937.273,5.625 H 489.809 c -21.805,0 -39.473,17.6797 -39.473,39.4805 V 229.363 c 0,21.801 17.668,39.473 39.473,39.473 z"
         style="fill:none;stroke:#293985;stroke-width:5.0003;stroke-linecap:butt;stroke-linejoin:miter;stroke-miterlimit:4;stroke-dasharray:none;stroke-opacity:1"
         id="path142" /><g
         id="g144"
         transform="scale(10)"><text
           transform="matrix(1,0,0,-1,60.0758,16.0566)"
           style="font-variant:normal;font-weight:normal;font-size:6.99976px;font-family:Arial;-inkscape-font-specification:ArialMT;writing-mode:lr-tb;fill:#100f0d;fill-opacity:1;fill-rule:nonzero;stroke:none"
           id="text150"><tspan
             x="0 5.8308001 9.7226667 11.6686 13.99952 15.553467 19.053347"
             y="0"
             sodipodi:role="line"
             id="tspan146">Metrics</tspan><tspan
             x="-5.2628899 -1.3710234 2.520843 6.0207233 9.91259 13.804457 17.696323 21.58819 23.919109"
             y="8.3999996"
             sodipodi:role="line"
             id="tspan148">dashboard</tspan></text></g><path
         d="M 1766.37,575.918 V 444.734"
         style="fill:none;stroke:#100f0d;stroke-width:5.0003;stroke-linecap:butt;stroke-linejoin:miter;stroke-miterlimit:10;stroke-dasharray:none;stroke-opacity:1"
         id="path152" /><path
         d="m 1751.85,454.645 14.52,-54.211 14.53,54.211 z"
         style="fill:#100f0d;fill-opacity:1;fill-rule:nonzero;stroke:none"
         id="path154" /><path
         d="m 1542.64,839.121 h 447.46 c 21.81,0 39.48,-17.672 39.48,-39.473 V 615.391 c 0,-21.809 -17.67,-39.473 -39.48,-39.473 h -447.46 c -21.8,0 -39.48,17.664 -39.48,39.473 v 184.257 c 0,21.801 17.68,39.473 39.48,39.473"
         style="fill:#c9e4f3;fill-opacity:1;fill-rule:nonzero;stroke:none"
         id="path156" /><path
         d="m 1542.64,839.121 h 447.46 c 21.81,0 39.48,-17.672 39.48,-39.473 V 615.391 c 0,-21.809 -17.67,-39.473 -39.48,-39.473 h -447.46 c -21.8,0 -39.48,17.664 -39.48,39.473 v 184.257 c 0,21.801 17.68,39.473 39.48,39.473 z"
         style="fill:none;stroke:#293985;stroke-width:5.0003;stroke-linecap:butt;stroke-linejoin:miter;stroke-miterlimit:4;stroke-dasharray:none;stroke-opacity:1"
         id="path158" /><g
         id="g160"
         transform="scale(10)"><text
           transform="matrix(1,0,0,-1,165.36,73.0848)"
           style="font-variant:normal;font-weight:normal;font-size:6.99976px;font-family:Arial;-inkscape-font-specification:ArialMT;writing-mode:lr-tb;fill:#100f0d;fill-opacity:1;fill-rule:nonzero;stroke:none"
           id="text166"><tspan
             x="0 5.8308001 9.7226667 11.6686 13.99952 15.553467 19.053347"
             y="0"
             sodipodi:role="line"
             id="tspan162">Metrics</tspan><tspan
             x="-2.1519499 1.7399166 5.631783 9.5273485 13.420314 16.920193 20.812059"
             y="8.3999996"
             sodipodi:role="line"
             id="tspan164">pub–sub</tspan></text></g><path
         d="M 2099.77,400.434 V 313.137"
         style="fill:none;stroke:#100f0d;stroke-width:5.0003;stroke-linecap:butt;stroke-linejoin:miter;stroke-miterlimit:10;stroke-dasharray:none;stroke-opacity:1"
         id="path168" /><path
         d="m 2085.24,323.035 14.53,-54.199 14.52,54.199 z"
         style="fill:#100f0d;fill-opacity:1;fill-rule:nonzero;stroke:none"
         id="path170" /><path
         d="M 1397.88,400.434 V 313.137"
         style="fill:none;stroke:#100f0d;stroke-width:5.0003;stroke-linecap:butt;stroke-linejoin:miter;stroke-miterlimit:10;stroke-dasharray:none;stroke-opacity:1"
         id="path172" /><path
         d="m 1383.35,323.035 14.53,-54.199 14.53,54.199 z"
         style="fill:#100f0d;fill-opacity:1;fill-rule:nonzero;stroke:none"
         id="path174" /><path
         d="M 713.543,312.707 V 296.766"
         style="fill:none;stroke:#100f0d;stroke-width:5.0003;stroke-linecap:butt;stroke-linejoin:miter;stroke-miterlimit:10;stroke-dasharray:none;stroke-opacity:1"
         id="path176" /><path
         d="M 2819.2,356.574 V 296.766"
         style="fill:none;stroke:#100f0d;stroke-width:5.0003;stroke-linecap:butt;stroke-linejoin:miter;stroke-miterlimit:10;stroke-dasharray:none;stroke-opacity:1"
         id="path178" /><path
         d="m 713.543,315.516 v 84.918 H 2819.2 v -84.918"
         style="fill:none;stroke:#100f0d;stroke-width:5.0003;stroke-linecap:butt;stroke-linejoin:miter;stroke-miterlimit:10;stroke-dasharray:none;stroke-opacity:1"
         id="path180" /><path
         d="m 728.07,325.426 -14.527,-54.199 -14.527,54.199 z"
         style="fill:#100f0d;fill-opacity:1;fill-rule:nonzero;stroke:none"
         id="path182" /><path
         d="m 2804.68,325.426 14.52,-54.199 14.54,54.199 z"
         style="fill:#100f0d;fill-opacity:1;fill-rule:nonzero;stroke:none"
         id="path184" /><g
         id="g186"
         transform="scale(10)"><text
           transform="matrix(1,0,0,-1,57.3461,130.113)"
           style="font-variant:normal;font-weight:normal;font-size:6.99976px;font-family:Arial;-inkscape-font-specification:ArialMT;writing-mode:lr-tb;fill:#2f2d2e;fill-opacity:1;fill-rule:nonzero;stroke:none"
           id="text192"><tspan
             x="0 4.2768536 6.6077733 10.49964 14.391506 16.33744 20.229307 24.121174"
             y="0"
             sodipodi:role="line"
             id="tspan188">Frontend</tspan><tspan
             x="1.36523 4.8651099 8.7569761 11.087896 14.587776 18.479643 20.810564 22.756496"
             y="8.3996096"
             sodipodi:role="line"
             id="tspan190">server 2</tspan></text></g></g></g></svg>
