<?xml version="1.0" encoding="UTF-8" standalone="no"?>
<!-- Created with Inkscape (http://www.inkscape.org/) -->

<svg
   version="1.1"
   id="svg2"
   xml:space="preserve"
   width="529.33331"
   height="210.66667"
   viewBox="0 0 529.33331 210.66667"
   sodipodi:docname="11-4.eps"
   xmlns:inkscape="http://www.inkscape.org/namespaces/inkscape"
   xmlns:sodipodi="http://sodipodi.sourceforge.net/DTD/sodipodi-0.dtd"
   xmlns="http://www.w3.org/2000/svg"
   xmlns:svg="http://www.w3.org/2000/svg"><defs
     id="defs6" /><sodipodi:namedview
     id="namedview4"
     pagecolor="#ffffff"
     bordercolor="#666666"
     borderopacity="1.0"
     inkscape:pageshadow="2"
     inkscape:pageopacity="0.0"
     inkscape:pagecheckerboard="0" /><g
     id="g8"
     inkscape:groupmode="layer"
     inkscape:label="ink_ext_XXXXXX"
     transform="matrix(1.3333333,0,0,-1.3333333,0,210.66667)"><g
       id="g10"
       transform="scale(0.1)"><path
         d="M 198.797,1179.66 V 1006.49 H 619.125 V 877.605"
         style="fill:none;stroke:#100f0d;stroke-width:5.0003;stroke-linecap:butt;stroke-linejoin:miter;stroke-miterlimit:10;stroke-dasharray:none;stroke-opacity:1"
         id="path12" /><path
         d="m 604.598,887.512 14.527,-54.203 14.523,54.203 z"
         style="fill:#100f0d;fill-opacity:1;fill-rule:nonzero;stroke:none"
         id="path14" /><path
         d="M 11.3789,1179.66 H 407.508 v 396.03 H 11.3789 v -396.03"
         style="fill:#fafbfb;fill-opacity:1;fill-rule:nonzero;stroke:none"
         id="path16" /><path
         d="M 11.3789,1179.66 H 407.508 v 396.03 H 11.3789 Z"
         style="fill:none;stroke:#5e6061;stroke-width:5.0003;stroke-linecap:butt;stroke-linejoin:miter;stroke-miterlimit:4;stroke-dasharray:none;stroke-opacity:1"
         id="path18" /><path
         d="M 1330.99,1179.66 V 1006.49 H 966.852 V 877.605"
         style="fill:none;stroke:#100f0d;stroke-width:5.0003;stroke-linecap:butt;stroke-linejoin:miter;stroke-miterlimit:10;stroke-dasharray:none;stroke-opacity:1"
         id="path20" /><path
         d="m 952.328,887.512 14.524,-54.203 14.527,54.203 z"
         style="fill:#100f0d;fill-opacity:1;fill-rule:nonzero;stroke:none"
         id="path22" /><path
         d="m 1430.34,1179.66 v -173.17 h 377.17 V 878.246"
         style="fill:none;stroke:#100f0d;stroke-width:5.0003;stroke-linecap:butt;stroke-linejoin:miter;stroke-miterlimit:10;stroke-dasharray:none;stroke-opacity:1"
         id="path24" /><path
         d="m 1792.98,888.152 14.53,-54.203 14.53,54.203 z"
         style="fill:#100f0d;fill-opacity:1;fill-rule:nonzero;stroke:none"
         id="path26" /><path
         d="m 1189.75,1179.66 h 396.13 v 396.03 h -396.13 v -396.03"
         style="fill:#fafbfb;fill-opacity:1;fill-rule:nonzero;stroke:none"
         id="path28" /><path
         d="m 1189.75,1179.66 h 396.13 v 396.03 h -396.13 z"
         style="fill:none;stroke:#5e6061;stroke-width:5.0003;stroke-linecap:butt;stroke-linejoin:miter;stroke-miterlimit:4;stroke-dasharray:none;stroke-opacity:1"
         id="path30" /><g
         id="g32"
         transform="scale(10)"><text
           transform="matrix(1,0,0,-0.99972008,127.431,140.34)"
           style="font-variant:normal;font-weight:normal;font-size:7.00172px;font-family:Arial;-inkscape-font-specification:ArialMT;writing-mode:lr-tb;fill:#2f2d2e;fill-opacity:1;fill-rule:nonzero;stroke:none"
           id="text38"><tspan
             x="0 5.0552416 8.9481983 13.618345 19.065683"
             y="0"
             sodipodi:role="line"
             id="tspan34">NoSQL</tspan><tspan
             x="-3.0550752 0.83788109 4.7308373 6.6773157 10.570271 14.463228 18.356184 21.857044"
             y="8.4023523"
             sodipodi:role="line"
             id="tspan36">database</tspan></text></g><path
         d="m 1783.31,1179.66 h 396.12 v 396.03 h -396.12 v -396.03"
         style="fill:#fafbfb;fill-opacity:1;fill-rule:nonzero;stroke:none"
         id="path40" /><path
         d="m 1783.31,1179.66 h 396.12 v 396.03 h -396.12 z"
         style="fill:none;stroke:#5e6061;stroke-width:5.0003;stroke-linecap:butt;stroke-linejoin:miter;stroke-miterlimit:4;stroke-dasharray:none;stroke-opacity:1"
         id="path42" /><path
         d="m 2970.42,1179.66 h 396.12 v 396.03 h -396.12 v -396.03"
         style="fill:#fafbfb;fill-opacity:1;fill-rule:nonzero;stroke:none"
         id="path44" /><path
         d="m 2970.42,1179.66 h 396.12 v 396.03 h -396.12 z"
         style="fill:none;stroke:#5e6061;stroke-width:5.0003;stroke-linecap:butt;stroke-linejoin:miter;stroke-miterlimit:4;stroke-dasharray:none;stroke-opacity:1"
         id="path46" /><path
         d="M 2525.89,1179.66 V 1006.49 H 2155.23 V 878.246"
         style="fill:none;stroke:#100f0d;stroke-width:5.0003;stroke-linecap:butt;stroke-linejoin:miter;stroke-miterlimit:10;stroke-dasharray:none;stroke-opacity:1"
         id="path48" /><path
         d="m 2140.71,888.152 14.52,-54.203 14.53,54.203 z"
         style="fill:#100f0d;fill-opacity:1;fill-rule:nonzero;stroke:none"
         id="path50" /><path
         d="m 2623.96,1179.66 v -173.17 h 371.93 V 877.605"
         style="fill:none;stroke:#100f0d;stroke-width:5.0003;stroke-linecap:butt;stroke-linejoin:miter;stroke-miterlimit:10;stroke-dasharray:none;stroke-opacity:1"
         id="path52" /><path
         d="m 2981.37,887.512 14.52,-54.203 14.53,54.203 z"
         style="fill:#100f0d;fill-opacity:1;fill-rule:nonzero;stroke:none"
         id="path54" /><path
         d="m 2376.86,1179.66 h 396.13 v 396.03 h -396.13 v -396.03"
         style="fill:#fafbfb;fill-opacity:1;fill-rule:nonzero;stroke:none"
         id="path56" /><path
         d="m 2376.86,1179.66 h 396.13 v 396.03 h -396.13 z"
         style="fill:none;stroke:#5e6061;stroke-width:5.0003;stroke-linecap:butt;stroke-linejoin:miter;stroke-miterlimit:4;stroke-dasharray:none;stroke-opacity:1"
         id="path58" /><path
         d="M 3762.67,1179.66 V 1006.49 H 3342.34 V 877.605"
         style="fill:none;stroke:#100f0d;stroke-width:5.0003;stroke-linecap:butt;stroke-linejoin:miter;stroke-miterlimit:10;stroke-dasharray:none;stroke-opacity:1"
         id="path60" /><path
         d="m 3327.82,887.512 14.52,-54.203 14.53,54.203 z"
         style="fill:#100f0d;fill-opacity:1;fill-rule:nonzero;stroke:none"
         id="path62" /><path
         d="m 3565.24,1179.66 h 396.14 v 396.03 h -396.14 v -396.03"
         style="fill:#fafbfb;fill-opacity:1;fill-rule:nonzero;stroke:none"
         id="path64" /><path
         d="m 3565.24,1179.66 h 396.14 v 396.03 h -396.14 z"
         style="fill:none;stroke:#5e6061;stroke-width:5.0003;stroke-linecap:butt;stroke-linejoin:miter;stroke-miterlimit:4;stroke-dasharray:none;stroke-opacity:1"
         id="path66" /><path
         d="m 594.926,1179.66 h 396.129 v 396.03 H 594.926 v -396.03"
         style="fill:#fafbfb;fill-opacity:1;fill-rule:nonzero;stroke:none"
         id="path68" /><path
         d="m 594.926,1179.66 h 396.129 v 396.03 H 594.926 Z"
         style="fill:none;stroke:#5e6061;stroke-width:5.0003;stroke-linecap:butt;stroke-linejoin:miter;stroke-miterlimit:4;stroke-dasharray:none;stroke-opacity:1"
         id="path70" /><path
         d="m 1980.74,1031.96 v 147.7"
         style="fill:none;stroke:#100f0d;stroke-width:5.0003;stroke-linecap:butt;stroke-linejoin:miter;stroke-miterlimit:10;stroke-dasharray:none;stroke-opacity:1"
         id="path72" /><path
         d="m 2882.53,833.309 h 574.45 c 33.12,0 59.86,-26.743 59.86,-59.852 V 555.859 c 0,-33.109 -26.74,-59.843 -59.86,-59.843 h -574.45 c -33.12,0 -59.87,26.734 -59.87,59.843 v 218.879 c 0,31.828 26.75,58.571 59.87,58.571"
         style="fill:#c9e4f3;fill-opacity:1;fill-rule:nonzero;stroke:none"
         id="path74" /><path
         d="m 2882.53,833.309 h 574.45 c 33.12,0 59.86,-26.743 59.86,-59.852 V 555.859 c 0,-33.109 -26.74,-59.843 -59.86,-59.843 h -574.45 c -33.12,0 -59.87,26.734 -59.87,59.843 v 218.879 c 0,31.828 26.75,58.571 59.87,58.571 z"
         style="fill:none;stroke:#293985;stroke-width:5.0003;stroke-linecap:butt;stroke-linejoin:miter;stroke-miterlimit:4;stroke-dasharray:none;stroke-opacity:1"
         id="path76" /><g
         id="g78"
         transform="scale(10)"><text
           transform="matrix(1,0,0,-0.99972008,306.272,68.7992)"
           style="font-variant:normal;font-weight:normal;font-size:7.00172px;font-family:Arial;-inkscape-font-specification:ArialMT;writing-mode:lr-tb;fill:#100f0d;fill-opacity:1;fill-rule:nonzero;stroke:none"
           id="text84"><tspan
             x="0 4.6701474 8.1710072 12.063964 15.95692 17.903399"
             y="0"
             sodipodi:role="line"
             id="tspan80">Events</tspan><tspan
             x="-2.7300742 1.1628821 5.0558386 8.9523106 12.846438 16.347298 20.240255"
             y="8.4027424"
             sodipodi:role="line"
             id="tspan82">pub–sub</tspan></text></g><path
         d="m 1694.15,833.309 h 574.44 c 33.13,0 59.88,-26.743 59.88,-59.852 V 555.859 c 0,-33.109 -26.75,-59.843 -59.88,-59.843 h -574.44 c -33.12,0 -59.87,26.734 -59.87,59.843 v 218.879 c 0,31.828 26.75,58.571 59.87,58.571"
         style="fill:#c9e4f3;fill-opacity:1;fill-rule:nonzero;stroke:none"
         id="path86" /><path
         d="m 1694.15,833.309 h 574.44 c 33.13,0 59.88,-26.743 59.88,-59.852 V 555.859 c 0,-33.109 -26.75,-59.843 -59.88,-59.843 h -574.44 c -33.12,0 -59.87,26.734 -59.87,59.843 v 218.879 c 0,31.828 26.75,58.571 59.87,58.571 z"
         style="fill:none;stroke:#293985;stroke-width:5.0003;stroke-linecap:butt;stroke-linejoin:miter;stroke-miterlimit:4;stroke-dasharray:none;stroke-opacity:1"
         id="path88" /><g
         id="g90"
         transform="scale(10)"><text
           transform="matrix(1,0,0,-0.99972008,185.676,68.7992)"
           style="font-variant:normal;font-weight:normal;font-size:7.00172px;font-family:Arial;-inkscape-font-specification:ArialMT;writing-mode:lr-tb;fill:#100f0d;fill-opacity:1;fill-rule:nonzero;stroke:none"
           id="text96"><tspan
             x="0 3.8929563 7.7859125 11.678869 15.571825 17.126207 21.019163"
             y="0"
             sodipodi:role="line"
             id="tspan92">Logging</tspan><tspan
             x="-0.9730444 2.9199119 6.8128681 10.709352 14.60348 18.10434 21.997297"
             y="8.4027424"
             sodipodi:role="line"
             id="tspan94">pub–sub</tspan></text></g><path
         d="M 3169.12,1179.66 V 877.605"
         style="fill:none;stroke:#100f0d;stroke-width:5.0003;stroke-linecap:butt;stroke-linejoin:miter;stroke-miterlimit:10;stroke-dasharray:none;stroke-opacity:1"
         id="path98" /><path
         d="m 3154.59,887.512 14.53,-54.203 14.52,54.203 z"
         style="fill:#100f0d;fill-opacity:1;fill-rule:nonzero;stroke:none"
         id="path100" /><path
         d="M 1980.74,1080.34 V 876.965"
         style="fill:none;stroke:#100f0d;stroke-width:5.0003;stroke-linecap:butt;stroke-linejoin:miter;stroke-miterlimit:10;stroke-dasharray:none;stroke-opacity:1"
         id="path102" /><path
         d="m 1966.21,886.875 14.53,-54.207 14.52,54.207 z"
         style="fill:#100f0d;fill-opacity:1;fill-rule:nonzero;stroke:none"
         id="path104" /><path
         d="M 793.625,1179.66 V 877.605"
         style="fill:none;stroke:#100f0d;stroke-width:5.0003;stroke-linecap:butt;stroke-linejoin:miter;stroke-miterlimit:10;stroke-dasharray:none;stroke-opacity:1"
         id="path106" /><path
         d="m 779.098,887.512 14.527,-54.203 14.527,54.203 z"
         style="fill:#100f0d;fill-opacity:1;fill-rule:nonzero;stroke:none"
         id="path108" /><path
         d="m 1288.97,299.91 h 267.62 c 24.2,0 44.58,-20.379 44.58,-44.566 V 47.7852 c 0,-24.1993 -20.38,-44.57426 -44.58,-44.57426 h -267.62 c -24.2,0 -44.58,20.37496 -44.58,44.57426 V 255.344 c 0,24.187 20.38,44.566 44.58,44.566"
         style="fill:#c9e4f3;fill-opacity:1;fill-rule:nonzero;stroke:none"
         id="path110" /><path
         d="m 1288.97,299.91 h 267.62 c 24.2,0 44.58,-20.379 44.58,-44.566 V 47.7852 c 0,-24.1993 -20.38,-44.57426 -44.58,-44.57426 h -267.62 c -24.2,0 -44.58,20.37496 -44.58,44.57426 V 255.344 c 0,24.187 20.38,44.566 44.58,44.566 z"
         style="fill:none;stroke:#293985;stroke-width:5.0003;stroke-linecap:butt;stroke-linejoin:miter;stroke-miterlimit:4;stroke-dasharray:none;stroke-opacity:1"
         id="path112" /><path
         d="m 3035.95,299.91 h 267.61 c 24.2,0 44.58,-20.379 44.58,-44.566 V 47.7852 c 0,-24.1993 -20.38,-44.57426 -44.58,-44.57426 h -267.61 c -24.2,0 -44.58,20.37496 -44.58,44.57426 V 255.344 c 0,24.187 20.38,44.566 44.58,44.566"
         style="fill:#c9e4f3;fill-opacity:1;fill-rule:nonzero;stroke:none"
         id="path114" /><path
         d="m 3035.95,299.91 h 267.61 c 24.2,0 44.58,-20.379 44.58,-44.566 V 47.7852 c 0,-24.1993 -20.38,-44.57426 -44.58,-44.57426 h -267.61 c -24.2,0 -44.58,20.37496 -44.58,44.57426 V 255.344 c 0,24.187 20.38,44.566 44.58,44.566 z"
         style="fill:none;stroke:#293985;stroke-width:5.0003;stroke-linecap:butt;stroke-linejoin:miter;stroke-miterlimit:4;stroke-dasharray:none;stroke-opacity:1"
         id="path116" /><path
         d="m 885.652,299.91 h 267.628 c 24.19,0 44.58,-20.379 44.58,-44.566 V 47.7852 c 0,-24.1993 -20.39,-44.57426 -44.58,-44.57426 H 885.652 c -24.195,0 -44.574,20.37496 -44.574,44.57426 V 255.344 c 0,24.187 20.379,44.566 44.574,44.566"
         style="fill:#c9e4f3;fill-opacity:1;fill-rule:nonzero;stroke:none"
         id="path118" /><path
         d="m 885.652,299.91 h 267.628 c 24.19,0 44.58,-20.379 44.58,-44.566 V 47.7852 c 0,-24.1993 -20.39,-44.57426 -44.58,-44.57426 H 885.652 c -24.195,0 -44.574,20.37496 -44.574,44.57426 V 255.344 c 0,24.187 20.379,44.566 44.574,44.566 z"
         style="fill:none;stroke:#293985;stroke-width:5.0003;stroke-linecap:butt;stroke-linejoin:miter;stroke-miterlimit:4;stroke-dasharray:none;stroke-opacity:1"
         id="path120" /><path
         d="m 2306.05,299.91 h 267.62 c 24.2,0 44.58,-20.379 44.58,-44.566 V 47.7852 c 0,-24.1993 -20.38,-44.57426 -44.58,-44.57426 h -267.62 c -24.2,0 -44.58,20.37496 -44.58,44.57426 V 255.344 c 0,24.187 20.38,44.566 44.58,44.566"
         style="fill:#c9e4f3;fill-opacity:1;fill-rule:nonzero;stroke:none"
         id="path122" /><path
         d="m 2306.05,299.91 h 267.62 c 24.2,0 44.58,-20.379 44.58,-44.566 V 47.7852 c 0,-24.1993 -20.38,-44.57426 -44.58,-44.57426 h -267.62 c -24.2,0 -44.58,20.37496 -44.58,44.57426 V 255.344 c 0,24.187 20.38,44.566 44.58,44.566 z"
         style="fill:none;stroke:#293985;stroke-width:5.0003;stroke-linecap:butt;stroke-linejoin:miter;stroke-miterlimit:4;stroke-dasharray:none;stroke-opacity:1"
         id="path124" /><path
         d="m 1902.74,299.91 h 267.62 c 24.2,0 44.58,-20.379 44.58,-44.566 V 47.7852 c 0,-24.1993 -20.38,-44.57426 -44.58,-44.57426 h -267.62 c -24.2,0 -44.58,20.37496 -44.58,44.57426 V 255.344 c 0,24.187 20.38,44.566 44.58,44.566"
         style="fill:#c9e4f3;fill-opacity:1;fill-rule:nonzero;stroke:none"
         id="path126" /><path
         d="m 1902.74,299.91 h 267.62 c 24.2,0 44.58,-20.379 44.58,-44.566 V 47.7852 c 0,-24.1993 -20.38,-44.57426 -44.58,-44.57426 h -267.62 c -24.2,0 -44.58,20.37496 -44.58,44.57426 V 255.344 c 0,24.187 20.38,44.566 44.58,44.566 z"
         style="fill:none;stroke:#293985;stroke-width:5.0003;stroke-linecap:butt;stroke-linejoin:miter;stroke-miterlimit:4;stroke-dasharray:none;stroke-opacity:1"
         id="path128" /><path
         d="m 482.348,299.91 h 267.609 c 24.207,0 44.586,-20.379 44.586,-44.566 V 47.7852 c 0,-24.1993 -20.379,-44.57426 -44.586,-44.57426 H 482.348 c -24.207,0 -44.582,20.37496 -44.582,44.57426 V 255.344 c 0,24.187 20.375,44.566 44.582,44.566"
         style="fill:#c9e4f3;fill-opacity:1;fill-rule:nonzero;stroke:none"
         id="path130" /><path
         d="m 482.348,299.91 h 267.609 c 24.207,0 44.586,-20.379 44.586,-44.566 V 47.7852 c 0,-24.1993 -20.379,-44.57426 -44.586,-44.57426 H 482.348 c -24.207,0 -44.582,20.37496 -44.582,44.57426 V 255.344 c 0,24.187 20.375,44.566 44.582,44.566 z"
         style="fill:none;stroke:#293985;stroke-width:5.0003;stroke-linecap:butt;stroke-linejoin:miter;stroke-miterlimit:4;stroke-dasharray:none;stroke-opacity:1"
         id="path132" /><path
         d="M 77.7617,299.91 H 346.648 c 24.204,0 44.579,-20.379 44.579,-44.566 V 47.7852 c 0,-24.1993 -20.375,-44.57426 -44.579,-44.57426 H 77.7617 c -24.2031,0 -44.5859,20.37496 -44.5859,44.57426 V 255.344 c 0,24.187 20.3828,44.566 44.5859,44.566"
         style="fill:#c9e4f3;fill-opacity:1;fill-rule:nonzero;stroke:none"
         id="path134" /><path
         d="M 77.7617,299.91 H 346.648 c 24.204,0 44.579,-20.379 44.579,-44.566 V 47.7852 c 0,-24.1993 -20.375,-44.57426 -44.579,-44.57426 H 77.7617 c -24.2031,0 -44.5859,20.37496 -44.5859,44.57426 V 255.344 c 0,24.187 20.3828,44.566 44.5859,44.566 z"
         style="fill:none;stroke:#293985;stroke-width:5.0003;stroke-linecap:butt;stroke-linejoin:miter;stroke-miterlimit:4;stroke-dasharray:none;stroke-opacity:1"
         id="path136" /><path
         d="M 793.625,497.281 V 431.262"
         style="fill:none;stroke:#100f0d;stroke-width:5.0003;stroke-linecap:butt;stroke-linejoin:miter;stroke-miterlimit:10;stroke-dasharray:none;stroke-opacity:1"
         id="path138" /><path
         d="M 1019.47,431.262 V 344.215"
         style="fill:none;stroke:#100f0d;stroke-width:5.0003;stroke-linecap:butt;stroke-linejoin:miter;stroke-miterlimit:10;stroke-dasharray:none;stroke-opacity:1"
         id="path140" /><path
         d="m 1004.94,354.109 14.53,-54.199 14.52,54.199 z"
         style="fill:#100f0d;fill-opacity:1;fill-rule:nonzero;stroke:none"
         id="path142" /><path
         d="M 616.156,431.262 V 344.215"
         style="fill:none;stroke:#100f0d;stroke-width:5.0003;stroke-linecap:butt;stroke-linejoin:miter;stroke-miterlimit:10;stroke-dasharray:none;stroke-opacity:1"
         id="path144" /><path
         d="m 601.629,354.109 14.527,-54.199 14.528,54.199 z"
         style="fill:#100f0d;fill-opacity:1;fill-rule:nonzero;stroke:none"
         id="path146" /><path
         d="M 2036.55,431.262 V 344.215"
         style="fill:none;stroke:#100f0d;stroke-width:5.0003;stroke-linecap:butt;stroke-linejoin:miter;stroke-miterlimit:10;stroke-dasharray:none;stroke-opacity:1"
         id="path148" /><path
         d="m 2022.02,354.109 14.53,-54.199 14.52,54.199 z"
         style="fill:#100f0d;fill-opacity:1;fill-rule:nonzero;stroke:none"
         id="path150" /><g
         id="g152"
         transform="scale(10)"><text
           transform="matrix(1,0,0,-1,197.815,21.6895)"
           style="font-variant:normal;font-weight:normal;font-size:6.99976px;font-family:Arial;-inkscape-font-specification:ArialMT;writing-mode:lr-tb;fill:#100f0d;fill-opacity:1;fill-rule:nonzero;stroke:none"
           id="text164"><tspan
             x="0 3.8918664 7.7837329"
             y="0"
             sodipodi:role="line"
             id="tspan154">Log</tspan><tspan
             x="-5.44102 -3.4950867 0.39677984 1.9507265 3.5046732 5.8355932 7.7815266 11.673393 15.173273"
             y="8.4007797"
             sodipodi:role="line"
             id="tspan156">full-text</tspan><tspan
             x="-4.6648479 -1.164968 2.7268987 6.6187654 8.9496851 12.449565"
             y="16.799999"
             sodipodi:role="line"
             id="tspan158">search</tspan><tspan
             x="32.56015 38.390953 42.282818 48.113617 52.005486 54.336407"
             y="4.1999998"
             sodipodi:role="line"
             id="tspan160">Memory</tspan><tspan
             x="33.528122 37.419987 41.311855 45.20372 46.757668 50.257549 53.757427 55.311375"
             y="12.6"
             sodipodi:role="line"
             id="tspan162">analysis</tspan></text></g><path
         d="M 3169.75,497.281 V 344.215"
         style="fill:none;stroke:#100f0d;stroke-width:5.0003;stroke-linecap:butt;stroke-linejoin:miter;stroke-miterlimit:10;stroke-dasharray:none;stroke-opacity:1"
         id="path166" /><path
         d="m 3155.22,354.109 14.53,-54.199 14.53,54.199 z"
         style="fill:#100f0d;fill-opacity:1;fill-rule:nonzero;stroke:none"
         id="path168" /><g
         id="g170"
         transform="scale(10)"><text
           transform="matrix(1,0,0,-1,303.941,17.4887)"
           style="font-variant:normal;font-weight:normal;font-size:6.99976px;font-family:Arial;-inkscape-font-specification:ArialMT;writing-mode:lr-tb;fill:#100f0d;fill-opacity:1;fill-rule:nonzero;stroke:none"
           id="text176"><tspan
             x="0 4.6688399 8.5607061 10.506639 12.452573 16.34444 18.67536 22.567226"
             y="0"
             sodipodi:role="line"
             id="tspan172">Patterns</tspan><tspan
             x="4.2804699 7.7803502 11.672216 15.564083 19.45595"
             y="8.3999996"
             sodipodi:role="line"
             id="tspan174">fnder</tspan></text></g><path
         d="m 212.203,344.215 v 87.047 H 1422.77 v -87.047"
         style="fill:none;stroke:#100f0d;stroke-width:5.0003;stroke-linecap:butt;stroke-linejoin:miter;stroke-miterlimit:10;stroke-dasharray:none;stroke-opacity:1"
         id="path178" /><path
         d="M 226.73,354.109 212.203,299.91 197.68,354.109 Z"
         style="fill:#100f0d;fill-opacity:1;fill-rule:nonzero;stroke:none"
         id="path180" /><path
         d="m 1408.25,354.109 14.52,-54.199 14.53,54.199 z"
         style="fill:#100f0d;fill-opacity:1;fill-rule:nonzero;stroke:none"
         id="path182" /><path
         d="m 1961.63,497.281 v -66.019 h 478.23 v -87.047"
         style="fill:none;stroke:#100f0d;stroke-width:5.0003;stroke-linecap:butt;stroke-linejoin:miter;stroke-miterlimit:10;stroke-dasharray:none;stroke-opacity:1"
         id="path184" /><path
         d="m 2425.34,354.109 14.52,-54.199 14.53,54.199 z"
         style="fill:#100f0d;fill-opacity:1;fill-rule:nonzero;stroke:none"
         id="path186" /><path
         d="m 505.766,833.309 h 574.444 c 33.12,0 59.87,-26.743 59.87,-59.852 V 555.859 c 0,-33.109 -26.75,-59.843 -59.87,-59.843 H 505.766 c -33.118,0 -59.864,26.734 -59.864,59.843 v 218.879 c 1.274,31.828 28.024,58.571 59.864,58.571"
         style="fill:#c9e4f3;fill-opacity:1;fill-rule:nonzero;stroke:none"
         id="path188" /><path
         d="m 505.766,833.309 h 574.444 c 33.12,0 59.87,-26.743 59.87,-59.852 V 555.859 c 0,-33.109 -26.75,-59.843 -59.87,-59.843 H 505.766 c -33.118,0 -59.864,26.734 -59.864,59.843 v 218.879 c 1.274,31.828 28.024,58.571 59.864,58.571 z"
         style="fill:none;stroke:#293985;stroke-width:5.0003;stroke-linecap:butt;stroke-linejoin:miter;stroke-miterlimit:4;stroke-dasharray:none;stroke-opacity:1"
         id="path190" /><g
         id="g192"
         transform="scale(10)"><text
           transform="matrix(1,0,0,-0.99972008,6.93086,140.34)"
           style="font-variant:normal;font-weight:normal;font-size:7.00172px;font-family:Arial;-inkscape-font-specification:ArialMT;writing-mode:lr-tb;fill:#2f2d2e;fill-opacity:1;fill-rule:nonzero;stroke:none"
           id="text218"><tspan
             x="0 4.2780509 6.6096234 10.50258 14.395536 16.342014 20.23497 24.127928"
             y="0"
             sodipodi:role="line"
             id="tspan194">Frontend</tspan><tspan
             x="1.3656223 4.8664823 8.7594385 11.091011 14.591871 18.484827 20.816401 22.762878"
             y="8.4023523"
             sodipodi:role="line"
             id="tspan196">server 1</tspan><tspan
             x="58.354977 62.633026 64.9646 68.857552 72.750511 74.696991 78.589943 82.482903"
             y="0"
             sodipodi:role="line"
             id="tspan198">Frontend</tspan><tspan
             x="59.720596 63.221458 67.11441 69.445984 72.946846 76.839806 79.171371 81.117851"
             y="8.4023523"
             sodipodi:role="line"
             id="tspan200">server 2</tspan><tspan
             x="183.35521 188.02534 193.47269"
             y="0"
             sodipodi:role="line"
             id="tspan202">SQL</tspan><tspan
             x="176.79858 180.69154 184.58449 186.53098 190.42392 194.31688 198.20984 201.71069"
             y="8.4023523"
             sodipodi:role="line"
             id="tspan204">database</tspan><tspan
             x="296.10098 300.77112 304.66409 308.16495 313.99738 317.89032 321.78329"
             y="0"
             sodipodi:role="line"
             id="tspan206">Payment</tspan><tspan
             x="298.82791 302.32877 306.22174 308.55331 312.05417 313.60855 317.10941"
             y="8.4023523"
             sodipodi:role="line"
             id="tspan208">service</tspan><tspan
             x="236.16638 240.83653 244.33739 247.83824 251.7312 255.62416 259.51712 261.46359"
             y="0"
             sodipodi:role="line"
             id="tspan210">Accounts</tspan><tspan
             x="239.47809 242.97894 246.8719 249.20348 252.70433 254.25871 257.75958"
             y="8.4023523"
             sodipodi:role="line"
             id="tspan212">service</tspan><tspan
             x="355.77463 360.44479 364.33774 367.83859 371.33948 375.23242 379.12537"
             y="0"
             sodipodi:role="line"
             id="tspan214">Beckend</tspan><tspan
             x="359.67151 363.17236 367.06534 369.39691 372.89777 376.79071"
             y="8.4023523"
             sodipodi:role="line"
             id="tspan216">server</tspan></text></g><g
         id="g220"
         transform="scale(10)"><text
           transform="matrix(1,0,0,-1,127.295,17.4895)"
           style="font-variant:normal;font-weight:normal;font-size:6.99976px;font-family:Arial;-inkscape-font-specification:ArialMT;writing-mode:lr-tb;fill:#100f0d;fill-opacity:1;fill-rule:nonzero;stroke:none"
           id="text240"><tspan
             x="0 5.0538268 8.945693 10.891626 14.783493 18.67536 22.567226 26.067106"
             y="0"
             sodipodi:role="line"
             id="tspan222">Database</tspan><tspan
             x="-1.36016 4.4706402 8.3625069 12.254374 13.80832 15.754253 19.64612 21.977039 23.530987 27.422853"
             y="8.3999996"
             sodipodi:role="line"
             id="tspan224">monitoring</tspan><tspan
             x="-36.241058 -30.795246 -26.903379 -24.957447 -21.457567 -17.565701 -16.011753"
             y="0"
             sodipodi:role="line"
             id="tspan226">On call</tspan><tspan
             x="-41.68911 -35.858311 -31.966444 -28.074577 -26.52063 -24.574697 -20.682831 -18.35191 -16.797964 -12.906096"
             y="8.3999996"
             sodipodi:role="line"
             id="tspan228">monitoring</tspan><tspan
             x="-76.957809 -71.127007 -67.235146 -65.289207 -62.95829 -61.404343 -57.904465"
             y="-4.1999998"
             sodipodi:role="line"
             id="tspan230">Metrics</tspan><tspan
             x="-75.928902 -72.035927 -66.765106 -65.211166 -61.319298"
             y="4.2007799"
             sodipodi:role="line"
             id="tspan232">ofine</tspan><tspan
             x="-79.297256 -75.405396 -71.513527 -67.621658 -66.067711 -62.567833 -60.621899 -59.067955 -55.568073"
             y="12.6"
             sodipodi:role="line"
             id="tspan234">analytics</tspan><tspan
             x="-117.35196 -111.52116 -107.6293 -105.68336 -103.35244 -101.79849 -98.298615"
             y="1.7763568e-15"
             sodipodi:role="line"
             id="tspan236">Metrics</tspan><tspan
             x="-122.61563 -118.72376 -114.83189 -111.33202 -107.44015 -103.54829 -99.656418 -95.764549 -93.433632"
             y="8.3999996"
             sodipodi:role="line"
             id="tspan238">dashboard</tspan></text><text
           transform="matrix(1,0,0,-0.99972008,68.018,68.7984)"
           style="font-variant:normal;font-weight:normal;font-size:7.00172px;font-family:Arial;-inkscape-font-specification:ArialMT;writing-mode:lr-tb;fill:#100f0d;fill-opacity:1;fill-rule:nonzero;stroke:none"
           id="text246"><tspan
             x="0 5.8324327 9.7253885 11.671867 14.00344 15.557821 19.058681"
             y="0"
             sodipodi:role="line"
             id="tspan242">Metrics</tspan><tspan
             x="-2.1527326 1.7402236 5.6331801 9.529664 13.423799 16.924658 20.817616"
             y="8.4027424"
             sodipodi:role="line"
             id="tspan244">pub–sub</tspan></text></g></g></g></svg>
