<?xml version="1.0" encoding="UTF-8" standalone="no"?>
<!-- Created with Inkscape (http://www.inkscape.org/) -->

<svg
   version="1.1"
   id="svg2"
   xml:space="preserve"
   width="422.66666"
   height="280"
   viewBox="0 0 422.66666 280"
   sodipodi:docname="11-7.eps"
   xmlns:inkscape="http://www.inkscape.org/namespaces/inkscape"
   xmlns:sodipodi="http://sodipodi.sourceforge.net/DTD/sodipodi-0.dtd"
   xmlns="http://www.w3.org/2000/svg"
   xmlns:svg="http://www.w3.org/2000/svg"><defs
     id="defs6" /><sodipodi:namedview
     id="namedview4"
     pagecolor="#ffffff"
     bordercolor="#666666"
     borderopacity="1.0"
     inkscape:pageshadow="2"
     inkscape:pageopacity="0.0"
     inkscape:pagecheckerboard="0" /><g
     id="g8"
     inkscape:groupmode="layer"
     inkscape:label="ink_ext_XXXXXX"
     transform="matrix(1.3333333,0,0,-1.3333333,0,280)"><g
       id="g10"
       transform="scale(0.1)"><path
         d="m 372.992,1180.45 v 390.63 H 936.34"
         style="fill:none;stroke:#100f0d;stroke-width:5.0003;stroke-linecap:butt;stroke-linejoin:miter;stroke-miterlimit:10;stroke-dasharray:none;stroke-opacity:1"
         id="path12" /><path
         d="m 926.438,1556.56 54.199,14.52 -54.199,14.53 z"
         style="fill:#100f0d;fill-opacity:1;fill-rule:nonzero;stroke:none"
         id="path14" /><path
         d="M 372.992,876.625 V 464.281 h 565"
         style="fill:none;stroke:#100f0d;stroke-width:5.0003;stroke-linecap:butt;stroke-linejoin:miter;stroke-miterlimit:10;stroke-dasharray:none;stroke-opacity:1"
         id="path16" /><path
         d="m 928.082,449.75 54.207,14.531 -54.207,14.524 z"
         style="fill:#100f0d;fill-opacity:1;fill-rule:nonzero;stroke:none"
         id="path18" /><path
         d="M 112.563,876.625 H 633.406 V 1180.45 H 112.563 V 876.625"
         style="fill:#def1c3;fill-opacity:1;fill-rule:nonzero;stroke:none"
         id="path20" /><path
         d="M 112.563,876.625 H 633.406 V 1180.45 H 112.563 Z"
         style="fill:none;stroke:#298a3c;stroke-width:5.0003;stroke-linecap:butt;stroke-linejoin:miter;stroke-miterlimit:4;stroke-dasharray:none;stroke-opacity:1"
         id="path22" /><g
         id="g24"
         transform="scale(10)"><text
           transform="matrix(1,0,0,-1,23.0477,100.986)"
           style="font-variant:normal;font-weight:normal;font-size:6.99976px;font-family:Arial;-inkscape-font-specification:ArialMT;writing-mode:lr-tb;fill:#100f0d;fill-opacity:1;fill-rule:nonzero;stroke:none"
           id="text28"><tspan
             x="0 4.6688399 6.9997602 10.891626 14.783493 18.67536 22.17524 26.067106"
             y="0"
             sodipodi:role="line"
             id="tspan26">Producer</tspan></text></g><path
         d="m 2543.19,876.625 h 520.84 V 1180.45 H 2543.19 V 876.625"
         style="fill:#def1c3;fill-opacity:1;fill-rule:nonzero;stroke:none"
         id="path30" /><path
         d="m 2543.19,876.625 h 520.84 v 303.825 h -520.84 z"
         style="fill:none;stroke:#298a3c;stroke-width:5.0003;stroke-linecap:butt;stroke-linejoin:miter;stroke-miterlimit:4;stroke-dasharray:none;stroke-opacity:1"
         id="path32" /><g
         id="g34"
         transform="scale(10)"><text
           transform="matrix(1,0,0,-1,264.167,100.986)"
           style="font-variant:normal;font-weight:normal;font-size:6.99976px;font-family:Arial;-inkscape-font-specification:ArialMT;writing-mode:lr-tb;fill:#100f0d;fill-opacity:1;fill-rule:nonzero;stroke:none"
           id="text38"><tspan
             x="0 5.0538268 8.945693 12.83756 16.33744 20.229307 26.060106 29.951973"
             y="0"
             sodipodi:role="line"
             id="tspan36">Consumer</tspan></text></g><path
         d="M 2195.96,464.281 H 2803.6 V 832.32"
         style="fill:none;stroke:#100f0d;stroke-width:5.0003;stroke-linecap:butt;stroke-linejoin:miter;stroke-miterlimit:10;stroke-dasharray:none;stroke-opacity:1"
         id="path40" /><path
         d="m 2818.13,822.41 -14.53,54.215 -14.52,-54.215 z"
         style="fill:#100f0d;fill-opacity:1;fill-rule:nonzero;stroke:none"
         id="path42" /><path
         d="M 1892.13,789.816 V 1222.96"
         style="fill:none;stroke:#100f0d;stroke-width:5.0003;stroke-linecap:butt;stroke-linejoin:miter;stroke-miterlimit:10;stroke-dasharray:none;stroke-opacity:1"
         id="path44" /><path
         d="m 1906.65,1213.05 -14.52,54.2 -14.53,-54.2 z"
         style="fill:#100f0d;fill-opacity:1;fill-rule:nonzero;stroke:none"
         id="path46" /><path
         d="m 1078.3,789.816 h 1020 c 53.94,0 97.66,-43.726 97.66,-97.675 V 236.406 c 0,-53.933 -43.72,-97.664 -97.66,-97.664 h -1020 c -53.94,0 -97.663,43.731 -97.663,97.664 v 455.735 c 0,53.949 43.723,97.675 97.663,97.675"
         style="fill:#c9e4f3;fill-opacity:1;fill-rule:nonzero;stroke:none"
         id="path48" /><path
         d="m 1078.3,789.816 h 1020 c 53.94,0 97.66,-43.726 97.66,-97.675 V 236.406 c 0,-53.933 -43.72,-97.664 -97.66,-97.664 h -1020 c -53.94,0 -97.663,43.731 -97.663,97.664 v 455.735 c 0,53.949 43.723,97.675 97.663,97.675 z"
         style="fill:none;stroke:#293985;stroke-width:5.0003;stroke-linecap:butt;stroke-linejoin:miter;stroke-miterlimit:4;stroke-dasharray:none;stroke-opacity:1"
         id="path50" /><path
         d="M 2195.96,1571.08 H 2803.6 V 1224.74"
         style="fill:none;stroke:#100f0d;stroke-width:5.0003;stroke-linecap:butt;stroke-linejoin:miter;stroke-miterlimit:10;stroke-dasharray:none;stroke-opacity:1"
         id="path52" /><path
         d="m 2789.08,1234.65 14.52,-54.2 14.53,54.2 z"
         style="fill:#100f0d;fill-opacity:1;fill-rule:nonzero;stroke:none"
         id="path54" /><path
         d="M 1284.47,1267.25 V 834.113"
         style="fill:none;stroke:#100f0d;stroke-width:5.0003;stroke-linecap:butt;stroke-linejoin:miter;stroke-miterlimit:10;stroke-dasharray:none;stroke-opacity:1"
         id="path56" /><path
         d="m 1269.95,844.012 14.52,-54.196 14.53,54.196 z"
         style="fill:#100f0d;fill-opacity:1;fill-rule:nonzero;stroke:none"
         id="path58" /><path
         d="m 1071.79,1874.9 h 1033.02 c 50.34,0 91.15,-40.81 91.15,-91.13 v -425.38 c 0,-50.33 -40.81,-91.14 -91.15,-91.14 H 1071.79 c -50.34,0 -91.153,40.81 -91.153,91.14 v 425.38 c 0,50.32 40.813,91.13 91.153,91.13"
         style="fill:#c9e4f3;fill-opacity:1;fill-rule:nonzero;stroke:none"
         id="path60" /><path
         d="m 1071.79,1874.9 h 1033.02 c 50.34,0 91.15,-40.81 91.15,-91.13 v -425.38 c 0,-50.33 -40.81,-91.14 -91.15,-91.14 H 1071.79 c -50.34,0 -91.153,40.81 -91.153,91.14 v 425.38 c 0,50.32 40.813,91.13 91.153,91.13 z"
         style="fill:none;stroke:#293985;stroke-width:5.0003;stroke-linecap:butt;stroke-linejoin:miter;stroke-miterlimit:4;stroke-dasharray:none;stroke-opacity:1"
         id="path62" /><path
         d="m 1024.04,1440.86 h 520.85 v 260.43 h -520.85 v -260.43"
         style="fill:#def1c3;fill-opacity:1;fill-rule:nonzero;stroke:none"
         id="path64" /><path
         d="m 1024.04,1440.86 h 520.85 v 260.43 h -520.85 z"
         style="fill:none;stroke:#298a3c;stroke-width:5.0003;stroke-linecap:butt;stroke-linejoin:miter;stroke-miterlimit:4;stroke-dasharray:none;stroke-opacity:1"
         id="path66" /><g
         id="g68"
         transform="scale(10)"><text
           transform="matrix(1,0,0,-1,117.292,159.441)"
           style="font-variant:normal;font-weight:normal;font-size:6.99976px;font-family:Arial;-inkscape-font-specification:ArialMT;writing-mode:lr-tb;fill:#100f0d;fill-opacity:1;fill-rule:nonzero;stroke:none"
           id="text74"><tspan
             x="0 3.499999 7.3918657 11.283732 12.837679 18.159765"
             y="0"
             sodipodi:role="line"
             id="tspan70">TopicT</tspan><tspan
             x="-4.2160201 -0.32415345 3.567713 5.898633 7.8445663 9.3985128 11.344446 12.898394 16.79026 20.682127 22.628059"
             y="8.3999996"
             sodipodi:role="line"
             id="tspan72">partition 0</tspan></text></g><path
         d="m 1631.71,334.063 h 520.85 V 594.496 H 1631.71 V 334.063"
         style="fill:#def1c3;fill-opacity:1;fill-rule:nonzero;stroke:none"
         id="path76" /><path
         d="m 1631.71,334.063 h 520.85 v 260.433 h -520.85 z"
         style="fill:none;stroke:#298a3c;stroke-width:5.0003;stroke-linecap:butt;stroke-linejoin:miter;stroke-miterlimit:4;stroke-dasharray:none;stroke-opacity:1"
         id="path78" /><path
         d="m 1631.71,1440.86 h 520.85 v 260.43 h -520.85 v -260.43"
         style="fill:#def1c3;fill-opacity:1;fill-rule:nonzero;stroke:none"
         id="path80" /><path
         d="m 1631.71,1440.86 h 520.85 v 260.43 h -520.85 z"
         style="fill:none;stroke:#298a3c;stroke-width:5.0003;stroke-linecap:butt;stroke-linejoin:miter;stroke-miterlimit:4;stroke-dasharray:none;stroke-opacity:1"
         id="path82" /><g
         id="g84"
         transform="scale(10)"><text
           transform="matrix(1,0,0,-1,138.55,203.204)"
           style="font-variant:normal;font-weight:bold;font-size:7.99981px;font-family:Arial;-inkscape-font-specification:Arial-BoldMT-Bold;writing-mode:lr-tb;fill:#100f0d;fill-opacity:1;fill-rule:nonzero;stroke:none"
           id="text88"><tspan
             x="0 5.7758627 10.223757 12.887694 17.335588 21.783484 24.007429 28.455324 30.679272 35.567154 40.015049 42.678986 47.126881"
             y="0"
             sodipodi:role="line"
             id="tspan86">Kafka cluster</tspan></text><text
           transform="matrix(1,0,0,-1,145.60195,177.161)"
           style="font-variant:normal;font-weight:normal;font-size:6.99976px;font-family:Arial;-inkscape-font-specification:ArialMT;writing-mode:lr-tb;fill:#100f0d;fill-opacity:1;fill-rule:nonzero;stroke:none"
           id="text126"><tspan
             x="0 4.6688399 6.9997602 10.891626 14.391506 18.283373 20.614294 22.560226"
             y="0"
             sodipodi:role="line"
             id="tspan90">Broker 1</tspan><tspan
             x="0 4.6688399 6.9997602 10.891626 14.391506 18.283373 20.614294 22.560226"
             y="108.511"
             sodipodi:role="line"
             id="tspan92">Broker 2</tspan><tspan
             x="-28.1031 -24.211233 -20.319366 -16.4275 -12.535634 -8.6437674"
             y="41.105099"
             sodipodi:role="line"
             id="tspan94">Leader</tspan><tspan
             x="32.664902 36.556767 40.448631 44.3405 48.232365 52.124233"
             y="152.40311"
             sodipodi:role="line"
             id="tspan96">Leader</tspan><tspan
             x="-47.925701 -42.871872 -38.980007 -35.088139 -33.534195 -31.980247 -28.480368 -24.588501 -22.642567"
             y="71.974998"
             sodipodi:role="line"
             id="tspan98">Replicate</tspan><tspan
             x="-38.39093 -34.114079 -32.168144"
             y="80.375"
             sodipodi:role="line"
             id="tspan100">T/0</tspan><tspan
             x="45.587971 50.641796 54.533665 58.425529 59.979477 61.533424 65.033302 68.925171 70.871101"
             y="71.974998"
             sodipodi:role="line"
             id="tspan102">Replicate</tspan><tspan
             x="55.123909 59.400764 61.346695"
             y="80.375"
             sodipodi:role="line"
             id="tspan104">T/1</tspan><tspan
             x="-145.12608 -139.29529 -135.40343 -131.90355 -128.40366 -124.5118 -120.61993 -116.72807"
             y="46.095699"
             sodipodi:role="line"
             id="tspan106">Messages</tspan><tspan
             x="-142.14015 -140.19421 -137.8633 -133.97144 -126.32179 -122.04494 -120.09901"
             y="54.495701"
             sodipodi:role="line"
             id="tspan108">fromT/0</tspan><tspan
             x="139.09785 144.92865 148.82051 152.3204 155.82028 159.71214 163.604 167.49588"
             y="46.095699"
             sodipodi:role="line"
             id="tspan110">Messages</tspan><tspan
             x="142.08418 144.03012 146.36104 150.2529 157.90216 162.179 164.12494"
             y="54.495701"
             sodipodi:role="line"
             id="tspan112">fromT/0</tspan><tspan
             x="-145.18782 -139.35703 -135.46515 -131.96527 -128.46539 -124.57352 -120.68166 -116.78979"
             y="102.5203"
             sodipodi:role="line"
             id="tspan114">Messages</tspan><tspan
             x="-142.20187 -140.25595 -137.92503 -134.03316 -126.38352 -122.10667 -120.16074"
             y="110.92108"
             sodipodi:role="line"
             id="tspan116">fromT/1</tspan><tspan
             x="139.09811 144.92892 148.82079 152.32066 155.82054 159.71242 163.60428 167.49614"
             y="102.5203"
             sodipodi:role="line"
             id="tspan118">Messages</tspan><tspan
             x="142.08406 144.03 146.36092 150.25278 157.90242 162.17928 164.12521"
             y="110.92108"
             sodipodi:role="line"
             id="tspan120">fromT/1</tspan><tspan
             x="32.458061 35.957668 39.849533 43.741402 45.295345 50.617432"
             y="17.72068"
             sodipodi:role="line"
             id="tspan122">TopicT</tspan><tspan
             x="28.242041 32.133907 36.025772 38.356693 40.302628 41.856575 43.802505 45.356453 49.248322 53.140186 55.086121"
             y="26.12068"
             sodipodi:role="line"
             id="tspan124">partition 1</tspan></text></g><path
         d="m 1024.04,334.063 h 520.85 V 594.496 H 1024.04 V 334.063"
         style="fill:#def1c3;fill-opacity:1;fill-rule:nonzero;stroke:none"
         id="path128" /><path
         d="m 1024.04,334.063 h 520.85 v 260.433 h -520.85 z"
         style="fill:none;stroke:#298a3c;stroke-width:5.0003;stroke-linecap:butt;stroke-linejoin:miter;stroke-miterlimit:4;stroke-dasharray:none;stroke-opacity:1"
         id="path130" /><g
         id="g132"
         transform="scale(10)"><text
           transform="matrix(1,0,0,-1,117.292,48.7602)"
           style="font-variant:normal;font-weight:normal;font-size:6.99976px;font-family:Arial;-inkscape-font-specification:ArialMT;writing-mode:lr-tb;fill:#100f0d;fill-opacity:1;fill-rule:nonzero;stroke:none"
           id="text142"><tspan
             x="0 3.499999 7.3918657 11.283732 12.837679 18.159765"
             y="0"
             sodipodi:role="line"
             id="tspan134">TopicT</tspan><tspan
             x="-4.2160201 -0.32415345 3.567713 5.898633 7.8445663 9.3985128 11.344446 12.898394 16.79026 20.682127 22.628059"
             y="8.3999996"
             sodipodi:role="line"
             id="tspan136">partition 0</tspan><tspan
             x="60.767181 64.267181 68.159042 72.050911 73.604858 78.926941"
             y="-0.0011699999"
             sodipodi:role="line"
             id="tspan138">TopicT</tspan><tspan
             x="56.551159 60.443027 64.334892 66.66581 68.611748 70.165695 72.111626 73.665573 77.557442 81.449303 83.395241"
             y="8.3988304"
             sodipodi:role="line"
             id="tspan140">partition 1</tspan></text></g><path
         d="M 2326.16,1961.71 V 50.0703 c 0,-27.6875 -10.24,-41.53905 -30.73,-41.53905 H 881.18 c -20.492,0 -30.742,13.85155 -30.742,41.53905 V 1920.15 c 0,27.7 10.25,41.56 30.742,41.56 z"
         style="fill:none;stroke:#100f0d;stroke-width:5.0003;stroke-linecap:butt;stroke-linejoin:miter;stroke-miterlimit:10;stroke-dasharray:19.2075, 9.60373;stroke-dashoffset:0;stroke-opacity:1"
         id="path144" /></g></g></svg>
