<?xml version="1.0" encoding="UTF-8" standalone="no"?>
<!-- Created with Inkscape (http://www.inkscape.org/) -->

<svg
   version="1.1"
   id="svg2"
   xml:space="preserve"
   width="340"
   height="384"
   viewBox="0 0 340 384"
   sodipodi:docname="11-8.eps"
   xmlns:inkscape="http://www.inkscape.org/namespaces/inkscape"
   xmlns:sodipodi="http://sodipodi.sourceforge.net/DTD/sodipodi-0.dtd"
   xmlns="http://www.w3.org/2000/svg"
   xmlns:svg="http://www.w3.org/2000/svg"><defs
     id="defs6" /><sodipodi:namedview
     id="namedview4"
     pagecolor="#ffffff"
     bordercolor="#666666"
     borderopacity="1.0"
     inkscape:pageshadow="2"
     inkscape:pageopacity="0.0"
     inkscape:pagecheckerboard="0" /><g
     id="g8"
     inkscape:groupmode="layer"
     inkscape:label="ink_ext_XXXXXX"
     transform="matrix(1.3333333,0,0,-1.3333333,0,384)"><g
       id="g10"
       transform="scale(0.1)"><path
         d="M 592.859,549.391 H 385.199 V 2507.17 H 1503.85"
         style="fill:none;stroke:#298d3d;stroke-width:5.0003;stroke-linecap:butt;stroke-linejoin:miter;stroke-miterlimit:10;stroke-dasharray:none;stroke-opacity:1"
         id="path12" /><path
         d="m 1493.95,2492.65 54.2,14.52 -54.2,14.53 z"
         style="fill:#298d3d;fill-opacity:1;fill-rule:nonzero;stroke:none"
         id="path14" /><path
         d="m 759,1213.94 v 1293.22 h 744.86"
         style="fill:none;stroke:#d71e25;stroke-width:5.0003;stroke-linecap:butt;stroke-linejoin:miter;stroke-miterlimit:10;stroke-dasharray:none;stroke-opacity:1"
         id="path16" /><path
         d="m 1493.96,2492.64 54.2,14.52 -54.2,14.53 z"
         style="fill:#d71e25;fill-opacity:1;fill-rule:nonzero;stroke:none"
         id="path18" /><path
         d="m 1296.88,1172.41 h 377.97 c 44.72,0 80.98,-36.26 80.98,-80.99 V 683.461 c 0,-44.731 -36.26,-80.988 -80.98,-80.988 h -377.97 c -44.74,0 -81,36.257 -81,80.988 v 407.959 c 0,44.73 36.26,80.99 81,80.99"
         style="fill:#e6d3ea;fill-opacity:1;fill-rule:nonzero;stroke:none"
         id="path20" /><path
         d="m 1296.88,1172.41 h 377.97 c 44.72,0 80.98,-36.26 80.98,-80.99 V 683.461 c 0,-44.731 -36.26,-80.988 -80.98,-80.988 h -377.97 c -44.74,0 -81,36.257 -81,80.988 v 407.959 c 0,44.73 36.26,80.99 81,80.99 z"
         style="fill:none;stroke:#41266d;stroke-width:5.0003;stroke-linecap:butt;stroke-linejoin:miter;stroke-miterlimit:4;stroke-dasharray:none;stroke-opacity:1"
         id="path22" /><path
         d="m 2191.94,602.473 v -94.614 h -706.09 v 94.614"
         style="fill:none;stroke:#100f0d;stroke-width:5.0003;stroke-linecap:butt;stroke-linejoin:miter;stroke-miterlimit:10;stroke-dasharray:none;stroke-opacity:1"
         id="path24" /><path
         d="m 2002.96,1172.41 h 377.95 c 44.75,0 81,-36.26 81,-80.99 V 683.461 c 0,-44.731 -36.25,-80.988 -81,-80.988 h -377.95 c -44.75,0 -81,36.257 -81,80.988 v 407.959 c 0,44.73 36.25,80.99 81,80.99"
         style="fill:#e6d3ea;fill-opacity:1;fill-rule:nonzero;stroke:none"
         id="path26" /><path
         d="m 2002.96,1172.41 h 377.95 c 44.75,0 81,-36.26 81,-80.99 V 683.461 c 0,-44.731 -36.25,-80.988 -81,-80.988 h -377.95 c -44.75,0 -81,36.257 -81,80.988 v 407.959 c 0,44.73 36.25,80.99 81,80.99 z"
         style="fill:none;stroke:#41266d;stroke-width:5.0003;stroke-linecap:butt;stroke-linejoin:miter;stroke-miterlimit:4;stroke-dasharray:none;stroke-opacity:1"
         id="path28" /><path
         d="M 1838.9,2144.9 V 1980.05"
         style="fill:none;stroke:#100f0d;stroke-width:5.0003;stroke-linecap:butt;stroke-linejoin:miter;stroke-miterlimit:10;stroke-dasharray:none;stroke-opacity:1"
         id="path30" /><path
         d="m 1824.38,1989.96 14.52,-54.2 14.53,54.2 z"
         style="fill:#100f0d;fill-opacity:1;fill-rule:nonzero;stroke:none"
         id="path32" /><path
         d="m 1635.38,2869.44 h 407.03 c 48.18,0 87.23,-39.05 87.23,-87.23 v -550.08 c 0,-48.18 -39.05,-87.23 -87.23,-87.23 h -407.03 c -48.17,0 -87.22,39.05 -87.22,87.23 v 550.08 c 0,48.18 39.05,87.23 87.22,87.23"
         style="fill:#e6d3ea;fill-opacity:1;fill-rule:nonzero;stroke:none"
         id="path34" /><path
         d="m 1635.38,2869.44 h 407.03 c 48.18,0 87.23,-39.05 87.23,-87.23 v -550.08 c 0,-48.18 -39.05,-87.23 -87.23,-87.23 h -407.03 c -48.17,0 -87.22,39.05 -87.22,87.23 v 550.08 c 0,48.18 39.05,87.23 87.22,87.23 z"
         style="fill:none;stroke:#41266d;stroke-width:5.0003;stroke-linecap:butt;stroke-linejoin:miter;stroke-miterlimit:4;stroke-dasharray:none;stroke-opacity:1"
         id="path36" /><path
         d="m 1838.89,1504.69 v -166.15 h 353.05 v -121.83"
         style="fill:none;stroke:#100f0d;stroke-width:5.0003;stroke-linecap:butt;stroke-linejoin:miter;stroke-miterlimit:10;stroke-dasharray:none;stroke-opacity:1"
         id="path38" /><path
         d="m 2177.39,1226.62 14.55,-54.21 14.52,54.21 z"
         style="fill:#100f0d;fill-opacity:1;fill-rule:nonzero;stroke:none"
         id="path40" /><path
         d="M 1838.89,1504.69 V 1338.54 H 1485.85 V 1216.71"
         style="fill:none;stroke:#100f0d;stroke-width:5.0003;stroke-linecap:butt;stroke-linejoin:miter;stroke-miterlimit:10;stroke-dasharray:none;stroke-opacity:1"
         id="path42" /><path
         d="m 1471.32,1226.62 14.53,-54.21 14.53,54.21 z"
         style="fill:#100f0d;fill-opacity:1;fill-rule:nonzero;stroke:none"
         id="path44" /><path
         d="m 1589.69,1504.69 h 498.42 v 166.14 h -498.42 v -166.14"
         style="fill:#e6d3ea;fill-opacity:1;fill-rule:nonzero;stroke:none"
         id="path46" /><path
         d="m 1589.69,1504.69 h 498.42 v 166.14 h -498.42 z"
         style="fill:none;stroke:#41266d;stroke-width:5.0003;stroke-linecap:butt;stroke-linejoin:miter;stroke-miterlimit:4;stroke-dasharray:none;stroke-opacity:1"
         id="path48" /><g
         id="g50"
         transform="scale(10)"><text
           transform="matrix(1,0,0,-1,167.889,156.908)"
           style="font-variant:normal;font-weight:normal;font-size:6.99976px;font-family:Arial;-inkscape-font-specification:ArialMT;writing-mode:lr-tb;fill:#100f0d;fill-opacity:1;fill-rule:nonzero;stroke:none"
           id="text54"><tspan
             x="0 4.6688399 8.5607061 10.891626 12.83756 14.391506 16.33744 17.891386 21.783253 25.675119 29.566986"
             y="0"
             sodipodi:role="line"
             id="tspan52">Partitioner</tspan></text></g><path
         d="m 1838.9,1769.61 v -54.48"
         style="fill:none;stroke:#100f0d;stroke-width:5.0003;stroke-linecap:butt;stroke-linejoin:miter;stroke-miterlimit:10;stroke-dasharray:none;stroke-opacity:1"
         id="path56" /><path
         d="m 1824.38,1725.03 14.52,-54.2 14.53,54.2 z"
         style="fill:#100f0d;fill-opacity:1;fill-rule:nonzero;stroke:none"
         id="path58" /><path
         d="m 1589.69,1769.61 h 498.42 v 166.15 h -498.42 v -166.15"
         style="fill:#e6d3ea;fill-opacity:1;fill-rule:nonzero;stroke:none"
         id="path60" /><path
         d="m 1589.69,1769.61 h 498.42 v 166.15 h -498.42 z"
         style="fill:none;stroke:#41266d;stroke-width:5.0003;stroke-linecap:butt;stroke-linejoin:miter;stroke-miterlimit:4;stroke-dasharray:none;stroke-opacity:1"
         id="path62" /><g
         id="g64"
         transform="scale(10)"><text
           transform="matrix(1,0,0,-1,169.253,183.401)"
           style="font-variant:normal;font-weight:normal;font-size:6.99976px;font-family:Arial;-inkscape-font-specification:ArialMT;writing-mode:lr-tb;fill:#100f0d;fill-opacity:1;fill-rule:nonzero;stroke:none"
           id="text68"><tspan
             x="0 4.6688399 8.5607061 10.891626 12.445573 16.33744 17.891386 19.445333 22.945213 26.83708"
             y="0"
             sodipodi:role="line"
             id="tspan66">Serializer</tspan></text></g><path
         d="M 1589.69,217.121 H 759 v 121.84"
         style="fill:none;stroke:#100f0d;stroke-width:5.0003;stroke-linecap:butt;stroke-linejoin:miter;stroke-miterlimit:10;stroke-dasharray:none;stroke-opacity:1"
         id="path70" /><path
         d="M 773.527,329.051 759,383.262 744.477,329.051 Z"
         style="fill:#100f0d;fill-opacity:1;fill-rule:nonzero;stroke:none"
         id="path72" /><path
         d="m 1838.89,383.262 c 137.63,0 249.21,-74.379 249.21,-166.141 0,-91.75 -111.58,-166.1405 -249.21,-166.1405 -137.63,0 -249.2,74.3905 -249.2,166.1405 0,91.762 111.57,166.141 249.2,166.141"
         style="fill:#72a3dc;fill-opacity:1;fill-rule:nonzero;stroke:none"
         id="path74" /><path
         d="m 1838.89,383.262 c 137.63,0 249.21,-74.379 249.21,-166.141 0,-91.75 -111.58,-166.1405 -249.21,-166.1405 -137.63,0 -249.2,74.3905 -249.2,166.1405 0,91.762 111.57,166.141 249.2,166.141 z"
         style="fill:none;stroke:#2a3786;stroke-width:5.0003;stroke-linecap:butt;stroke-linejoin:miter;stroke-miterlimit:4;stroke-dasharray:none;stroke-opacity:1"
         id="path76" /><g
         id="g78"
         transform="scale(10)"><text
           transform="matrix(1,0,0,-1,164.009,20.2602)"
           style="font-variant:normal;font-weight:normal;font-size:6.99976px;font-family:Arial;-inkscape-font-specification:ArialMT;writing-mode:lr-tb;fill:#ffffff;fill-opacity:1;fill-rule:nonzero;stroke:none"
           id="text82"><tspan
             x="0 4.6688399 8.5607061 10.506639 14.006519 17.898386 19.84432 23.736187 26.067106 29.958973 33.458855 37.350719"
             y="0"
             sodipodi:role="line"
             id="tspan80">Kafka broker</tspan></text></g><path
         d="M 759,715.543 V 837.371"
         style="fill:none;stroke:#100f0d;stroke-width:5.0003;stroke-linecap:butt;stroke-linejoin:miter;stroke-miterlimit:10;stroke-dasharray:none;stroke-opacity:1"
         id="path84" /><path
         d="M 773.527,827.473 759,881.672 744.477,827.473 Z"
         style="fill:#100f0d;fill-opacity:1;fill-rule:nonzero;stroke:none"
         id="path86" /><path
         d="m 759,715.531 c 91.758,0 166.141,-74.383 166.141,-166.14 0,-91.758 -74.383,-166.129 -166.141,-166.129 -91.75,0 -166.137,74.371 -166.137,166.129 0,91.757 74.387,166.14 166.137,166.14"
         style="fill:#f790a1;fill-opacity:1;fill-rule:nonzero;stroke:none"
         id="path88" /><path
         d="m 759,715.531 c 91.758,0 166.141,-74.383 166.141,-166.14 0,-91.758 -74.383,-166.129 -166.141,-166.129 -91.75,0 -166.137,74.371 -166.137,166.129 0,91.757 74.387,166.14 166.137,166.14 z"
         style="fill:none;stroke:#bb4146;stroke-width:5.0003;stroke-linecap:butt;stroke-linejoin:miter;stroke-miterlimit:4;stroke-dasharray:none;stroke-opacity:1"
         id="path90" /><g
         id="g92"
         transform="scale(10)"><text
           transform="matrix(1,0,0,-1,68.3145,53.0723)"
           style="font-variant:normal;font-weight:normal;font-size:6.99976px;font-family:Arial;-inkscape-font-specification:ArialMT;writing-mode:lr-tb;fill:#100f0d;fill-opacity:1;fill-rule:nonzero;stroke:none"
           id="text96"><tspan
             x="0 4.2768536 8.1687202 9.7226667 11.276613"
             y="0"
             sodipodi:role="line"
             id="tspan94">Fail?</tspan></text></g><path
         d="m 925.129,1047.81 v -12.46 h 246.461"
         style="fill:none;stroke:#100f0d;stroke-width:5.0003;stroke-linecap:butt;stroke-linejoin:miter;stroke-miterlimit:10;stroke-dasharray:none;stroke-opacity:1"
         id="path98" /><path
         d="m 1161.68,1020.83 54.21,14.52 -54.21,14.53 z"
         style="fill:#100f0d;fill-opacity:1;fill-rule:nonzero;stroke:none"
         id="path100" /><path
         d="m 759,1213.94 c 91.758,0 166.141,-74.38 166.141,-166.13 0,-91.759 -74.383,-166.138 -166.141,-166.138 -91.75,0 -166.137,74.379 -166.137,166.138 0,91.75 74.387,166.13 166.137,166.13"
         style="fill:#f790a1;fill-opacity:1;fill-rule:nonzero;stroke:none"
         id="path102" /><path
         d="m 759,1213.94 c 91.758,0 166.141,-74.38 166.141,-166.13 0,-91.759 -74.383,-166.138 -166.141,-166.138 -91.75,0 -166.137,74.379 -166.137,166.138 0,91.75 74.387,166.13 166.137,166.13 z"
         style="fill:none;stroke:#bb4146;stroke-width:5.0003;stroke-linecap:butt;stroke-linejoin:miter;stroke-miterlimit:4;stroke-dasharray:none;stroke-opacity:1"
         id="path104" /><g
         id="g106"
         transform="scale(10)"><text
           transform="matrix(1,0,0,-1,65.5914,102.913)"
           style="font-variant:normal;font-weight:normal;font-size:6.99976px;font-family:Arial;-inkscape-font-specification:ArialMT;writing-mode:lr-tb;fill:#100f0d;fill-opacity:1;fill-rule:nonzero;stroke:none"
           id="text110"><tspan
             x="0 5.0538268 8.945693 10.891626 13.222547 16.722427"
             y="0"
             sodipodi:role="line"
             id="tspan108">Retry?</tspan></text></g><path
         d="m 1610.46,2601.76 h 456.88 v 124.61 h -456.88 v -124.61"
         style="fill:#adde68;fill-opacity:1;fill-rule:nonzero;stroke:none"
         id="path112" /><path
         d="m 1610.46,2601.76 h 456.88 v 124.61 h -456.88 z"
         style="fill:none;stroke:#298d3d;stroke-width:5.0003;stroke-linecap:butt;stroke-linejoin:miter;stroke-miterlimit:4;stroke-dasharray:none;stroke-opacity:1"
         id="path114" /><g
         id="g116"
         transform="scale(10)"><text
           transform="matrix(1,0,0,-1,175.719,264.539)"
           style="font-variant:normal;font-weight:normal;font-size:6.99976px;font-family:Arial;-inkscape-font-specification:ArialMT;writing-mode:lr-tb;fill:#100f0d;fill-opacity:1;fill-rule:nonzero;stroke:none"
           id="text120"><tspan
             x="0 3.4996071 7.3914738 11.28334 12.837287"
             y="0"
             sodipodi:role="line"
             id="tspan118">Topic</tspan></text></g><path
         d="m 1610.46,2477.16 h 456.88 v 124.61 h -456.88 v -124.61"
         style="fill:#c9e4f3;fill-opacity:1;fill-rule:nonzero;stroke:none"
         id="path122" /><path
         d="m 1610.46,2477.16 h 456.88 v 124.61 h -456.88 z"
         style="fill:none;stroke:#293985;stroke-width:5.0003;stroke-linecap:butt;stroke-linejoin:miter;stroke-miterlimit:4;stroke-dasharray:none;stroke-opacity:1"
         id="path124" /><g
         id="g126"
         transform="scale(10)"><text
           transform="matrix(1,0,0,-1,169.105,252.079)"
           style="font-variant:normal;font-weight:normal;font-size:6.99976px;font-family:Arial;-inkscape-font-specification:ArialMT;writing-mode:lr-tb;fill:#100f0d;fill-opacity:1;fill-rule:nonzero;stroke:none"
           id="text130"><tspan
             x="0 1.9459332 6.6147733 10.506639 12.83756 14.783493 16.33744 18.283373 19.83732 23.729187 27.621054"
             y="0"
             sodipodi:role="line"
             id="tspan128">[Partition]</tspan></text></g><path
         d="m 1610.46,2352.56 h 456.88 v 124.61 h -456.88 v -124.61"
         style="fill:#c9e4f3;fill-opacity:1;fill-rule:nonzero;stroke:none"
         id="path132" /><path
         d="m 1610.46,2352.56 h 456.88 v 124.61 h -456.88 z"
         style="fill:none;stroke:#293985;stroke-width:5.0003;stroke-linecap:butt;stroke-linejoin:miter;stroke-miterlimit:4;stroke-dasharray:none;stroke-opacity:1"
         id="path134" /><g
         id="g136"
         transform="scale(10)"><text
           transform="matrix(1,0,0,-1,175.914,239.619)"
           style="font-variant:normal;font-weight:normal;font-size:6.99976px;font-family:Arial;-inkscape-font-specification:ArialMT;writing-mode:lr-tb;fill:#100f0d;fill-opacity:1;fill-rule:nonzero;stroke:none"
           id="text140"><tspan
             x="0 1.9459332 6.6147733 10.506639 14.006519"
             y="0"
             sodipodi:role="line"
             id="tspan138">[Key]</tspan></text></g><path
         d="m 1610.46,2227.95 h 456.88 v 124.61 h -456.88 v -124.61"
         style="fill:#adde68;fill-opacity:1;fill-rule:nonzero;stroke:none"
         id="path142" /><path
         d="m 1610.46,2227.95 h 456.88 v 124.61 h -456.88 z"
         style="fill:none;stroke:#298d3d;stroke-width:5.0003;stroke-linecap:butt;stroke-linejoin:miter;stroke-miterlimit:4;stroke-dasharray:none;stroke-opacity:1"
         id="path144" /><g
         id="g146"
         transform="scale(10)"><text
           transform="matrix(1,0,0,-1,175.198,227.159)"
           style="font-variant:normal;font-weight:normal;font-size:6.99976px;font-family:Arial;-inkscape-font-specification:ArialMT;writing-mode:lr-tb;fill:#100f0d;fill-opacity:1;fill-rule:nonzero;stroke:none"
           id="text152"><tspan
             x="0 4.1496139 8.0414801 9.5954275 13.487293"
             y="0"
             sodipodi:role="line"
             id="tspan148">Value</tspan><tspan
             x="-16.402 -11.73316 -9.4022398 -5.5103736 -1.6185069 2.2733598 5.7732396 9.6651058 11.996026 13.941959 16.272881 20.164745 23.664627 27.556492 29.887413"
             y="-50.195702"
             sodipodi:role="line"
             id="tspan150">Producer record</tspan></text><text
           transform="matrix(1,0,0,-1,186.8901,205.8317)"
           style="font-variant:normal;font-weight:normal;font-size:7.99981px;font-family:'Courier New';-inkscape-font-specification:Courier;writing-mode:lr-tb;fill:#100f0d;fill-opacity:1;fill-rule:nonzero;stroke:none"
           id="text156"><tspan
             x="0 4.7998862 9.5997725 14.399658 19.199545 23.99943"
             y="0"
             sodipodi:role="line"
             id="tspan154">Send()</tspan></text><text
           transform="matrix(1,0,0,-1,137.4928,107.343)"
           style="font-variant:normal;font-weight:normal;font-size:6.99976px;font-family:Arial;-inkscape-font-specification:ArialMT;writing-mode:lr-tb;fill:#100f0d;fill-opacity:1;fill-rule:nonzero;stroke:none"
           id="text166"><tspan
             x="0 3.4996071 7.3914738 11.28334 12.837287 17.899605"
             y="0"
             sodipodi:role="line"
             id="tspan158">TopicA</tspan><tspan
             x="-4.2789102 -0.38704345 3.5048232 5.8357434 7.7816763 9.3356228 11.281556 12.835504 16.727369 20.619236 22.56517"
             y="8.3999996"
             sodipodi:role="line"
             id="tspan160">partition 0</tspan><tspan
             x="70.223091 73.722694 77.614563 81.506432 83.060379 86.560257 88.506187"
             y="0"
             sodipodi:role="line"
             id="tspan162">Topic B</tspan><tspan
             x="66.328949 70.220818 74.112686 76.443604 78.389534 79.943481 81.88942 83.443367 87.335228 91.227097 93.173027"
             y="8.3999996"
             sodipodi:role="line"
             id="tspan164">partition 1</tspan></text></g><path
         d="m 1257.42,810.121 h 456.87 V 934.73 H 1257.42 V 810.121"
         style="fill:#72a3dc;fill-opacity:1;fill-rule:nonzero;stroke:none"
         id="path168" /><path
         d="m 1257.42,810.121 h 456.87 V 934.73 h -456.87 z"
         style="fill:none;stroke:#2a3786;stroke-width:5.0003;stroke-linecap:butt;stroke-linejoin:miter;stroke-miterlimit:4;stroke-dasharray:none;stroke-opacity:1"
         id="path170" /><g
         id="g172"
         transform="scale(10)"><text
           transform="matrix(1,0,0,-1,136.716,85.3762)"
           style="font-variant:normal;font-weight:normal;font-size:6.99976px;font-family:Arial;-inkscape-font-specification:ArialMT;writing-mode:lr-tb;fill:#ffffff;fill-opacity:1;fill-rule:nonzero;stroke:none"
           id="text176"><tspan
             x="0 4.6688399 8.5607061 10.506639 14.006519 17.898386 19.84432"
             y="0"
             sodipodi:role="line"
             id="tspan174">Batch 0</tspan></text></g><path
         d="m 1257.42,685.543 h 456.87 V 810.141 H 1257.42 V 685.543"
         style="fill:#72a3dc;fill-opacity:1;fill-rule:nonzero;stroke:none"
         id="path178" /><path
         d="m 1257.42,685.543 h 456.87 v 124.598 h -456.87 z"
         style="fill:none;stroke:#2a3786;stroke-width:5.0003;stroke-linecap:butt;stroke-linejoin:miter;stroke-miterlimit:4;stroke-dasharray:none;stroke-opacity:1"
         id="path180" /><g
         id="g182"
         transform="scale(10)"><text
           transform="matrix(1,0,0,-1,136.716,72.9172)"
           style="font-variant:normal;font-weight:normal;font-size:6.99976px;font-family:Arial;-inkscape-font-specification:ArialMT;writing-mode:lr-tb;fill:#ffffff;fill-opacity:1;fill-rule:nonzero;stroke:none"
           id="text186"><tspan
             x="0 4.6688399 8.5607061 10.506639 14.006519 17.898386 19.84432"
             y="0"
             sodipodi:role="line"
             id="tspan184">Batch 1</tspan></text></g><path
         d="m 1963.5,685.543 h 456.88 V 810.141 H 1963.5 V 685.543"
         style="fill:#72a3dc;fill-opacity:1;fill-rule:nonzero;stroke:none"
         id="path188" /><path
         d="m 1963.5,685.543 h 456.88 V 810.141 H 1963.5 Z"
         style="fill:none;stroke:#2a3786;stroke-width:5.0003;stroke-linecap:butt;stroke-linejoin:miter;stroke-miterlimit:4;stroke-dasharray:none;stroke-opacity:1"
         id="path190" /><g
         id="g192"
         transform="scale(10)"><text
           transform="matrix(1,0,0,-1,207.325,72.9172)"
           style="font-variant:normal;font-weight:normal;font-size:6.99976px;font-family:Arial;-inkscape-font-specification:ArialMT;writing-mode:lr-tb;fill:#ffffff;fill-opacity:1;fill-rule:nonzero;stroke:none"
           id="text196"><tspan
             x="0 4.6688399 8.5607061 10.506639 14.006519 17.898386 19.84432"
             y="0"
             sodipodi:role="line"
             id="tspan194">Batch 1</tspan></text></g><path
         d="m 1963.5,810.121 h 456.88 V 934.73 H 1963.5 V 810.121"
         style="fill:#72a3dc;fill-opacity:1;fill-rule:nonzero;stroke:none"
         id="path198" /><path
         d="m 1963.5,810.121 h 456.88 V 934.73 H 1963.5 Z"
         style="fill:none;stroke:#2a3786;stroke-width:5.0003;stroke-linecap:butt;stroke-linejoin:miter;stroke-miterlimit:4;stroke-dasharray:none;stroke-opacity:1"
         id="path200" /><g
         id="g202"
         transform="scale(10)"><text
           transform="matrix(1,0,0,-1,207.325,85.3762)"
           style="font-variant:normal;font-weight:normal;font-size:6.99976px;font-family:Arial;-inkscape-font-specification:ArialMT;writing-mode:lr-tb;fill:#ffffff;fill-opacity:1;fill-rule:nonzero;stroke:none"
           id="text206"><tspan
             x="0 4.6688399 8.5607061 10.506639 14.006519 17.898386 19.84432"
             y="0"
             sodipodi:role="line"
             id="tspan204">Batch 0</tspan></text></g><g
         id="g208"
         transform="scale(10)"><text
           transform="matrix(1,0,0,-1,98.9746,106.535)"
           style="font-variant:normal;font-weight:normal;font-size:6.99976px;font-family:Arial;-inkscape-font-specification:ArialMT;writing-mode:lr-tb;fill:#100f0d;fill-opacity:1;fill-rule:nonzero;stroke:none"
           id="text214"><tspan
             x="0 4.0257859 7.9176526"
             y="0"
             sodipodi:role="line"
             id="tspan210">Yes</tspan><tspan
             x="-20.0746 -16.048429 -12.156563"
             y="30.305901"
             sodipodi:role="line"
             id="tspan212">Yes</tspan></text></g><g
         id="g216"
         transform="scale(10)"><text
           transform="matrix(1,0,0,-1,7.55117,159.361)"
           style="font-variant:normal;font-weight:normal;font-size:6.99976px;font-family:Arial;-inkscape-font-specification:ArialMT;writing-mode:lr-tb;fill:#298d3d;fill-opacity:1;fill-rule:nonzero;stroke:none"
           id="text224"><tspan
             x="0 5.0538268 8.945693 10.891626 14.783493 17.114412"
             y="0"
             sodipodi:role="line"
             id="tspan218">Return</tspan><tspan
             x="-4.0878901 1.74291 5.6347766 7.5807099 11.472576 15.364443 19.25631 21.202244"
             y="8.3988304"
             sodipodi:role="line"
             id="tspan220">metadata</tspan><tspan
             x="-7.0031199 -3.1112535 0.78061312 2.7265463 6.2264266 10.118293 13.618173 17.118053 21.00992 24.5098"
             y="16.799999"
             sodipodi:role="line"
             id="tspan222">on success</tspan></text></g><g
         id="g226"
         transform="scale(10)"><text
           transform="matrix(1,0,0,-1,89.943,150.468)"
           style="font-variant:normal;font-weight:normal;font-size:6.99976px;font-family:Arial;-inkscape-font-specification:ArialMT;writing-mode:lr-tb;fill:#f25450;fill-opacity:1;fill-rule:nonzero;stroke:none"
           id="text234"><tspan
             x="0 4.2768536 8.1687202 10.49964 14.391506"
             y="0"
             sodipodi:role="line"
             id="tspan228">Throw</tspan><tspan
             x="-5.2585902 -1.3667234 2.1331565 5.6330366 9.5249033 13.41677 15.362703 16.916649 20.808516"
             y="8.3999996"
             sodipodi:role="line"
             id="tspan230">exception</tspan><tspan
             x="-11.4789 -9.9249535 -7.9790201 -6.0330868 -2.5332067 1.3586599 5.2505264 9.1423931 13.03426 14.980193 16.926126 19.257046 23.148912 25.094847 27.425766"
             y="16.79883"
             sodipodi:role="line"
             id="tspan232">if cannot retry</tspan></text></g><path
         d="M 800.539,2507.17 H 1503.85"
         style="fill:none;stroke:#100f0d;stroke-width:5.0003;stroke-linecap:butt;stroke-linejoin:miter;stroke-miterlimit:10;stroke-dasharray:19.2075, 9.60373;stroke-dashoffset:0;stroke-opacity:1"
         id="path236" /><path
         d="m 1493.95,2492.65 54.2,14.52 -54.2,14.53 z"
         style="fill:#100f0d;fill-opacity:1;fill-rule:nonzero;stroke:none"
         id="path238" /><path
         d="m 1838.89,427.563 v 80.296"
         style="fill:none;stroke:#100f0d;stroke-width:5.0003;stroke-linecap:butt;stroke-linejoin:miter;stroke-miterlimit:10;stroke-dasharray:none;stroke-opacity:1"
         id="path240" /><path
         d="m 1853.41,437.461 -14.52,-54.199 -14.52,54.199 z"
         style="fill:#100f0d;fill-opacity:1;fill-rule:nonzero;stroke:none"
         id="path242" /><path
         d="M 2544.97,2011.7 V 50.9727 c 0,-27.6719 -13.84,-41.51176 -41.52,-41.51176 H 592.859 c -27.691,0 -41.531,13.83986 -41.531,41.51176 V 1970.16 c 0,27.69 13.84,41.54 41.531,41.54 z"
         style="fill:none;stroke:#100f0d;stroke-width:5.0003;stroke-linecap:butt;stroke-linejoin:miter;stroke-miterlimit:10;stroke-dasharray:19.2075, 9.60373;stroke-dashoffset:0;stroke-opacity:1"
         id="path244" /></g></g></svg>
