<?xml version="1.0" encoding="UTF-8" standalone="no"?>
<!-- Created with Inkscape (http://www.inkscape.org/) -->

<svg
   version="1.1"
   id="svg2"
   xml:space="preserve"
   width="308"
   height="221.33333"
   viewBox="0 0 308 221.33333"
   sodipodi:docname="11-9.eps"
   xmlns:inkscape="http://www.inkscape.org/namespaces/inkscape"
   xmlns:sodipodi="http://sodipodi.sourceforge.net/DTD/sodipodi-0.dtd"
   xmlns="http://www.w3.org/2000/svg"
   xmlns:svg="http://www.w3.org/2000/svg"><defs
     id="defs6" /><sodipodi:namedview
     id="namedview4"
     pagecolor="#ffffff"
     bordercolor="#666666"
     borderopacity="1.0"
     inkscape:pageshadow="2"
     inkscape:pageopacity="0.0"
     inkscape:pagecheckerboard="0" /><g
     id="g8"
     inkscape:groupmode="layer"
     inkscape:label="ink_ext_XXXXXX"
     transform="matrix(1.3333333,0,0,-1.3333333,0,221.33333)"><g
       id="g10"
       transform="scale(0.1)"><path
         d="M 714.156,298.785 H 1554.3"
         style="fill:none;stroke:#100f0d;stroke-width:5.0003;stroke-linecap:butt;stroke-linejoin:miter;stroke-miterlimit:10;stroke-dasharray:none;stroke-opacity:1"
         id="path12" /><path
         d="m 1544.39,284.266 54.22,14.519 -54.22,14.531 z"
         style="fill:#100f0d;fill-opacity:1;fill-rule:nonzero;stroke:none"
         id="path14" /><g
         id="g16"
         transform="scale(10)"><text
           transform="matrix(1,0,0,-1,89.3707,33.2035)"
           style="font-variant:normal;font-weight:normal;font-size:6.99976px;font-family:Arial;-inkscape-font-specification:ArialMT;writing-mode:lr-tb;fill:#100f0d;fill-opacity:1;fill-rule:nonzero;stroke:none"
           id="text20"><tspan
             x="0 3.8918664 5.8378 7.7837329 12.83756 16.729427 20.621292 22.17524 23.729187 27.229067 31.120934 33.066868 36.958733 38.904667 42.796532 46.6884 48.634331"
             y="0"
             sodipodi:role="line"
             id="tspan18">2. Replicate data</tspan></text></g><path
         d="M 95.0508,593.605 H 625.707 c 48.848,0 88.449,-39.597 88.449,-88.449 V 92.4258 c 0,-48.8477 -39.601,-88.44924 -88.449,-88.44924 H 95.0508 C 46.207,3.97656 6.60156,43.5781 6.60156,92.4258 V 505.156 c 0,48.852 39.60544,88.449 88.44924,88.449"
         style="fill:#c9e4f3;fill-opacity:1;fill-rule:nonzero;stroke:none"
         id="path22" /><path
         d="M 95.0508,593.605 H 625.707 c 48.848,0 88.449,-39.597 88.449,-88.449 V 92.4258 c 0,-48.8477 -39.601,-88.44924 -88.449,-88.44924 H 95.0508 C 46.207,3.97656 6.60156,43.5781 6.60156,92.4258 V 505.156 c 0,48.852 39.60544,88.449 88.44924,88.449 z"
         style="fill:none;stroke:#293985;stroke-width:5.0003;stroke-linecap:butt;stroke-linejoin:miter;stroke-miterlimit:4;stroke-dasharray:none;stroke-opacity:1"
         id="path24" /><path
         d="M 1598.61,446.195 H 758.453"
         style="fill:none;stroke:#100f0d;stroke-width:5.0003;stroke-linecap:butt;stroke-linejoin:miter;stroke-miterlimit:10;stroke-dasharray:none;stroke-opacity:1"
         id="path26" /><path
         d="m 768.359,460.727 -54.203,-14.532 54.203,-14.531 z"
         style="fill:#100f0d;fill-opacity:1;fill-rule:nonzero;stroke:none"
         id="path28" /><g
         id="g30"
         transform="scale(10)"><text
           transform="matrix(1,0,0,-1,76.9242,48.5355)"
           style="font-variant:normal;font-weight:normal;font-size:6.99976px;font-family:Arial;-inkscape-font-specification:ArialMT;writing-mode:lr-tb;fill:#100f0d;fill-opacity:1;fill-rule:nonzero;stroke:none"
           id="text34"><tspan
             x="0 3.8918664 5.8378 7.7837329 12.83756 16.729427 20.229307 24.121174 28.013039 31.904905 35.796772 37.742706 42.796532 44.350479 46.296413 50.188278 52.134212 55.634094 59.525959 63.025841 66.525719 70.417587 73.917465"
             y="0"
             sodipodi:role="line"
             id="tspan32">3. Respond with success</tspan></text></g><path
         d="m 1687.05,593.605 h 530.65 c 48.85,0 88.46,-39.597 88.46,-88.449 V 92.4258 c 0,-48.8477 -39.61,-88.44924 -88.46,-88.44924 h -530.65 c -48.84,0 -88.44,39.60154 -88.44,88.44924 V 505.156 c 0,48.852 39.6,88.449 88.44,88.449"
         style="fill:#c9e4f3;fill-opacity:1;fill-rule:nonzero;stroke:none"
         id="path36" /><path
         d="m 1687.05,593.605 h 530.65 c 48.85,0 88.46,-39.597 88.46,-88.449 V 92.4258 c 0,-48.8477 -39.61,-88.44924 -88.46,-88.44924 h -530.65 c -48.84,0 -88.44,39.60154 -88.44,88.44924 V 505.156 c 0,48.852 39.6,88.449 88.44,88.449 z"
         style="fill:none;stroke:#293985;stroke-width:5.0003;stroke-linecap:butt;stroke-linejoin:miter;stroke-miterlimit:4;stroke-dasharray:none;stroke-opacity:1"
         id="path38" /><path
         d="M 832.082,1301.16 V 947.375 H 360.379 V 637.898"
         style="fill:none;stroke:#100f0d;stroke-width:5.0003;stroke-linecap:butt;stroke-linejoin:miter;stroke-miterlimit:10;stroke-dasharray:none;stroke-opacity:1"
         id="path40" /><path
         d="m 345.855,647.805 14.524,-54.2 14.527,54.2 z"
         style="fill:#100f0d;fill-opacity:1;fill-rule:nonzero;stroke:none"
         id="path42" /><g
         id="g44"
         transform="scale(10)"><text
           transform="matrix(1,0,0,-1,18.4809,99.4047)"
           style="font-variant:normal;font-weight:normal;font-size:6.99976px;font-family:Arial;-inkscape-font-specification:ArialMT;writing-mode:lr-tb;fill:#100f0d;fill-opacity:1;fill-rule:nonzero;stroke:none"
           id="text48"><tspan
             x="0 3.8918664 5.8378 7.7837329 12.452573 16.34444 20.236305 24.128172 27.633982 32.302822 37.356647 42.02549 43.97142 49.617966 54.286808 58.178673"
             y="0"
             sodipodi:role="line"
             id="tspan46">1. Send,ACK =ALL</tspan></text></g><path
         d="m 708.246,1654.93 h 601.434 c 29.3,0 53.05,-23.75 53.05,-53.06 v -247.66 c 0,-29.3 -23.75,-53.05 -53.05,-53.05 H 708.246 c -29.301,0 -53.066,23.75 -53.066,53.05 v 247.66 c 0,29.31 23.765,53.06 53.066,53.06"
         style="fill:#def1c3;fill-opacity:1;fill-rule:nonzero;stroke:none"
         id="path50" /><path
         d="m 708.246,1654.93 h 601.434 c 29.3,0 53.05,-23.75 53.05,-53.06 v -247.66 c 0,-29.3 -23.75,-53.05 -53.05,-53.05 H 708.246 c -29.301,0 -53.066,23.75 -53.066,53.05 v 247.66 c 0,29.31 23.765,53.06 53.066,53.06 z"
         style="fill:none;stroke:#298a3c;stroke-width:5.0003;stroke-linecap:butt;stroke-linejoin:miter;stroke-miterlimit:4;stroke-dasharray:none;stroke-opacity:1"
         id="path52" /><g
         id="g54"
         transform="scale(10)"><text
           transform="matrix(1,0,0,-1,77.1113,145.937)"
           style="font-variant:normal;font-weight:normal;font-size:6.99976px;font-family:Arial;-inkscape-font-specification:ArialMT;writing-mode:lr-tb;fill:#100f0d;fill-opacity:1;fill-rule:nonzero;stroke:none"
           id="text58"><tspan
             x="0 4.6688399 8.5607061 10.506639 14.006519 17.898386 19.84432 23.736187 26.067106 29.958973 33.850838 37.742706 41.242584 45.134453"
             y="0"
             sodipodi:role="line"
             id="tspan56">Kafka producer</tspan></text></g><path
         d="M 537.262,593.605 V 770.488 H 1244.81 V 1256.86"
         style="fill:none;stroke:#100f0d;stroke-width:5.0003;stroke-linecap:butt;stroke-linejoin:miter;stroke-miterlimit:10;stroke-dasharray:none;stroke-opacity:1"
         id="path60" /><path
         d="m 1259.34,1246.95 -14.53,54.21 -14.52,-54.21 z"
         style="fill:#100f0d;fill-opacity:1;fill-rule:nonzero;stroke:none"
         id="path62" /><g
         id="g64"
         transform="scale(10)"><text
           transform="matrix(1,0,0,-1,128.537,107.303)"
           style="font-variant:normal;font-weight:normal;font-size:6.99976px;font-family:Arial;-inkscape-font-specification:ArialMT;writing-mode:lr-tb;fill:#100f0d;fill-opacity:1;fill-rule:nonzero;stroke:none"
           id="text86"><tspan
             x="0 3.8918664 5.8378 7.7837329 12.83756 16.729427 20.229307 24.121174 26.452093 30.34396 32.289894 34.620811 38.51268 42.404545 43.958492 45.51244 49.012318 52.904186 54.850121 58.741985"
             y="0"
             sodipodi:role="line"
             id="tspan66">4. Record replicated</tspan><tspan
             x="7.0031199 8.9490528 12.840919 14.786853 18.67872 22.570587 24.51652 28.408386 30.354319 34.246185 36.577106 40.468971 43.968853 47.860718 50.191639 53.691521"
             y="8.3999996"
             sodipodi:role="line"
             id="tspan68">to both brokers,</tspan><tspan
             x="8.5640602 10.89498 14.786847 16.73278 20.624647 22.955566 26.847433 28.793365 32.293247 36.185112 39.684994 43.184872 47.07674 50.576618"
             y="16.80039"
             sodipodi:role="line"
             id="tspan70">return success</tspan><tspan
             x="-105.72694 -101.0581 -98.72718 -94.835312 -91.335434 -87.443565 -85.112648 -83.16671 53.472801 58.14164 60.472561 64.364426 67.864311 71.756172 74.087097 76.033028"
             y="56.13789"
             sodipodi:role="line"
             id="tspan72">Broker 1Broker 2</tspan><tspan
             x="-106.11483 -102.61523 -98.723358 -94.83149 -93.277542 -89.777664 -87.446747 -82.777901"
             y="75.358994"
             sodipodi:role="line"
             id="tspan74">Topic-A,</tspan><tspan
             x="-108.25741 -103.58857 -99.696701 -97.365784 -95.419853 -93.865906 -91.919968 -90.366028 -86.474159 -82.582291 -80.63636"
             y="83.760162"
             sodipodi:role="line"
             id="tspan76">Partition 0</tspan><tspan
             x="-103.39686 -99.504997 -95.613129 -91.72126 -87.829391 -83.937531"
             y="92.158989"
             sodipodi:role="line"
             id="tspan78">Leader</tspan><tspan
             x="53.084141 56.584137 60.476006 64.367874 65.921822 69.4217 71.752617 76.421455"
             y="75.358994"
             sodipodi:role="line"
             id="tspan80">Topic-A,</tspan><tspan
             x="50.94117 55.610008 59.501877 61.832794 63.778728 65.332672 67.27861 68.832558 72.724419 76.616287 78.562225"
             y="83.760162"
             sodipodi:role="line"
             id="tspan82">Partition 0</tspan><tspan
             x="53.474369 57.751221 61.643089 63.197037 64.750984 68.642845 73.696678 77.588539"
             y="92.158989"
             sodipodi:role="line"
             id="tspan84">Follower</tspan></text></g></g></g></svg>
