<?xml version="1.0" encoding="UTF-8" standalone="no"?>
<!-- Created with Inkscape (http://www.inkscape.org/) -->

<svg
   version="1.1"
   id="svg2"
   xml:space="preserve"
   width="289.33334"
   height="133.33333"
   viewBox="0 0 289.33334 133.33333"
   sodipodi:docname="9-1.eps"
   xmlns:inkscape="http://www.inkscape.org/namespaces/inkscape"
   xmlns:sodipodi="http://sodipodi.sourceforge.net/DTD/sodipodi-0.dtd"
   xmlns="http://www.w3.org/2000/svg"
   xmlns:svg="http://www.w3.org/2000/svg"><defs
     id="defs6" /><sodipodi:namedview
     id="namedview4"
     pagecolor="#ffffff"
     bordercolor="#666666"
     borderopacity="1.0"
     inkscape:pageshadow="2"
     inkscape:pageopacity="0.0"
     inkscape:pagecheckerboard="0" /><g
     id="g8"
     inkscape:groupmode="layer"
     inkscape:label="ink_ext_XXXXXX"
     transform="matrix(1.3333333,0,0,-1.3333333,0,133.33333)"><g
       id="g10"
       transform="scale(0.1)"><path
         d="M 747.383,899.949 H 1376.31"
         style="fill:none;stroke:#100f0d;stroke-width:5.0003;stroke-linecap:butt;stroke-linejoin:miter;stroke-miterlimit:10;stroke-dasharray:none;stroke-opacity:1"
         id="path12" /><path
         d="m 1366.4,885.422 54.2,14.527 -54.2,14.524 z"
         style="fill:#100f0d;fill-opacity:1;fill-rule:nonzero;stroke:none"
         id="path14" /><g
         id="g16"
         transform="scale(10)"><text
           transform="matrix(1,0,0,-1,100.859,93.168)"
           style="font-variant:normal;font-weight:normal;font-size:6.99976px;font-family:Arial;-inkscape-font-specification:ArialMT;writing-mode:lr-tb;fill:#100f0d;fill-opacity:1;fill-rule:nonzero;stroke:none"
           id="text20"><tspan
             x="0 5.0538268 8.945693 10.49964 12.053587"
             y="0"
             sodipodi:role="line"
             id="tspan18">Calls</tspan></text></g><path
         d="M 376.379,462.555 V 427.117"
         style="fill:none;stroke:#100f0d;stroke-width:5.0003;stroke-linecap:butt;stroke-linejoin:miter;stroke-miterlimit:10;stroke-dasharray:none;stroke-opacity:1"
         id="path22" /><path
         d="m 361.855,437.02 14.516,-54.204 14.535,54.204 z"
         style="fill:#100f0d;fill-opacity:1;fill-rule:nonzero;stroke:none"
         id="path24" /><path
         d="M 376.379,621.949 V 544.945"
         style="fill:none;stroke:#100f0d;stroke-width:5.0003;stroke-linecap:butt;stroke-linejoin:miter;stroke-miterlimit:10;stroke-dasharray:none;stroke-opacity:1"
         id="path26" /><g
         id="g28"
         transform="scale(10)"><text
           transform="matrix(1,0,0,-1,3.97852,48.6133)"
           style="font-variant:normal;font-weight:normal;font-size:6.99976px;font-family:Arial;-inkscape-font-specification:ArialMT;writing-mode:lr-tb;fill:#100f0d;fill-opacity:1;fill-rule:nonzero;stroke:none"
           id="text32"><tspan
             x="0 5.0538268 8.945693 12.83756 14.783493 16.33744 20.229307 24.121174 28.013039 31.51292 33.458855 37.350719 39.681641 43.573505 47.073387 50.965252 54.465134 57.965012 59.518959 63.410828"
             y="0"
             sodipodi:role="line"
             id="tspan30">Continues processing</tspan></text></g><path
         d="M 6.37891,622.949 H 747.383 v 370 H 6.37891 v -370"
         style="fill:#fcfccf;fill-opacity:1;fill-rule:nonzero;stroke:none"
         id="path34" /><path
         d="M 6.37891,622.949 H 747.383 v 370 H 6.37891 Z"
         style="fill:none;stroke:#c49d19;stroke-width:5.0003;stroke-linecap:butt;stroke-linejoin:miter;stroke-miterlimit:4;stroke-dasharray:none;stroke-opacity:1"
         id="path36" /><g
         id="g38"
         transform="scale(10)"><text
           transform="matrix(1,0,0,-1,16.0883,78.9277)"
           style="font-variant:normal;font-weight:normal;font-size:7.99981px;font-family:'Courier New';-inkscape-font-specification:Courier;writing-mode:lr-tb;fill:#100f0d;fill-opacity:1;fill-rule:nonzero;stroke:none"
           id="text42"><tspan
             x="0 4.7998862 9.5997725 14.399658 19.199545 23.99943 28.799316 33.599201 38.39909"
             y="0"
             sodipodi:role="line"
             id="tspan40">method1()</tspan></text></g><path
         d="M 1425.38,714.945 H 794.68"
         style="fill:none;stroke:#100f0d;stroke-width:5.0003;stroke-linecap:butt;stroke-linejoin:miter;stroke-miterlimit:10;stroke-dasharray:none;stroke-opacity:1"
         id="path44" /><path
         d="M 804.59,729.473 750.383,714.945 804.59,700.422 Z"
         style="fill:#100f0d;fill-opacity:1;fill-rule:nonzero;stroke:none"
         id="path46" /><g
         id="g48"
         transform="scale(10)"><text
           transform="matrix(1,0,0,-1,82.5703,74.4211)"
           style="font-variant:normal;font-weight:normal;font-size:6.99976px;font-family:Arial;-inkscape-font-specification:ArialMT;writing-mode:lr-tb;fill:#100f0d;fill-opacity:1;fill-rule:nonzero;stroke:none"
           id="text52"><tspan
             x="0 4.6688399 6.2227864 10.114654 13.614533 17.114412 20.614294 22.560226 26.452093 30.34396 34.235825 36.181759 41.235584 45.127453 46.6814 48.627335"
             y="0"
             sodipodi:role="line"
             id="tspan50">Blocks and waits</tspan></text></g><path
         d="m 1425.38,622.949 h 741 v 370 h -741 v -370"
         style="fill:#e0f2c3;fill-opacity:1;fill-rule:nonzero;stroke:none"
         id="path54" /><path
         d="m 1425.38,622.949 h 741 v 370 h -741 z"
         style="fill:none;stroke:#298a3c;stroke-width:5.0003;stroke-linecap:butt;stroke-linejoin:miter;stroke-miterlimit:4;stroke-dasharray:none;stroke-opacity:1"
         id="path56" /><g
         id="g58"
         transform="scale(10)"><text
           transform="matrix(1,0,0,-1,154.106,83.1277)"
           style="font-variant:normal;font-weight:normal;font-size:6.99976px;font-family:Arial;-inkscape-font-specification:ArialMT;writing-mode:lr-tb;fill:#100f0d;fill-opacity:1;fill-rule:nonzero;stroke:none"
           id="text64"><tspan
             x="0 1.9459332 5.8378 7.3917465 9.7226667 13.614533 15.945454 19.83732 23.729187 26.060106 28.006041 31.50592 33.451855 37.343719 41.235584 43.566505 45.51244"
             y="0"
             sodipodi:role="line"
             id="tspan60">third-party party</tspan><tspan
             x="3.3050799 4.8590269 6.4129734 10.30484 12.63576 16.527626 18.858547 22.358427 24.304359 30.13516 34.027027 35.972961 39.864826 43.756695"
             y="8.4003897"
             sodipodi:role="line"
             id="tspan62">library method</tspan></text></g><path
         d="M 6.37891,5.95313 H 747.383 V 375.953 H 6.37891 V 5.95313"
         style="fill:#f792a4;fill-opacity:1;fill-rule:nonzero;stroke:none"
         id="path66" /><path
         d="M 6.37891,5.95313 H 747.383 V 375.953 H 6.37891 Z"
         style="fill:none;stroke:#b74248;stroke-width:5.0003;stroke-linecap:butt;stroke-linejoin:miter;stroke-miterlimit:4;stroke-dasharray:none;stroke-opacity:1"
         id="path68" /><g
         id="g70"
         transform="scale(10)"><text
           transform="matrix(1,0,0,-1,16.0883,17.2285)"
           style="font-variant:normal;font-weight:normal;font-size:7.99981px;font-family:'Courier New';-inkscape-font-specification:Courier;writing-mode:lr-tb;fill:#100f0d;fill-opacity:1;fill-rule:nonzero;stroke:none"
           id="text74"><tspan
             x="0 4.7998862 9.5997725 14.399658 19.199545 23.99943 28.799316 33.599201 38.39909"
             y="0"
             sodipodi:role="line"
             id="tspan72">method2()</tspan></text></g></g></g></svg>
