<?xml version="1.0" encoding="UTF-8" standalone="no"?>
<!-- Created with Inkscape (http://www.inkscape.org/) -->

<svg
   version="1.1"
   id="svg2"
   xml:space="preserve"
   width="501.33334"
   height="266.66666"
   viewBox="0 0 501.33334 266.66666"
   sodipodi:docname="9-2.eps"
   xmlns:inkscape="http://www.inkscape.org/namespaces/inkscape"
   xmlns:sodipodi="http://sodipodi.sourceforge.net/DTD/sodipodi-0.dtd"
   xmlns="http://www.w3.org/2000/svg"
   xmlns:svg="http://www.w3.org/2000/svg"><defs
     id="defs6" /><sodipodi:namedview
     id="namedview4"
     pagecolor="#ffffff"
     bordercolor="#666666"
     borderopacity="1.0"
     inkscape:pageshadow="2"
     inkscape:pageopacity="0.0"
     inkscape:pagecheckerboard="0" /><g
     id="g8"
     inkscape:groupmode="layer"
     inkscape:label="ink_ext_XXXXXX"
     transform="matrix(1.3333333,0,0,-1.3333333,0,266.66667)"><g
       id="g10"
       transform="scale(0.1)"><path
         d="M 4.37891,181.773 H 676.375 V 1381.77 H 4.37891 V 181.773"
         style="fill:#c9e4f3;fill-opacity:1;fill-rule:nonzero;stroke:none"
         id="path12" /><path
         d="M 4.37891,181.773 H 676.375 V 1381.77 H 4.37891 Z"
         style="fill:none;stroke:#293985;stroke-width:5.0003;stroke-linecap:butt;stroke-linejoin:miter;stroke-miterlimit:4;stroke-dasharray:none;stroke-opacity:1"
         id="path14" /><g
         id="g16"
         transform="scale(10)"><text
           transform="matrix(1,0,0,-1,9.5957,97.9484)"
           style="font-variant:normal;font-weight:normal;font-size:6.99976px;font-family:Arial;-inkscape-font-specification:ArialMT;writing-mode:lr-tb;fill:#100f0d;fill-opacity:1;fill-rule:nonzero;stroke:none"
           id="text22"><tspan
             x="0 6.4808588 10.372725 12.703646 16.203526 20.095392 22.426311 24.372246 28.264112 30.595032 34.4869 37.986778 41.878647 45.378525"
             y="0"
             sodipodi:role="line"
             id="tspan18">Worker process</tspan><tspan
             x="6.9335899 10.825457 14.325336 18.217203 22.10907 24.055002 26.000937 29.500816 33.000698 36.500576 38.054523"
             y="8.3999996"
             sodipodi:role="line"
             id="tspan20">event cycle</tspan></text></g><path
         d="m 3076.38,685.773 c -96,-16 -152,20 -168,108 -16,88 24,140 120,156 96,16 152,-11.984 168,-84 7.63,-33.699 7.99,-63.769 1.32,-89.668"
         style="fill:none;stroke:#100f0d;stroke-width:5.0003;stroke-linecap:butt;stroke-linejoin:miter;stroke-miterlimit:10;stroke-dasharray:none;stroke-opacity:1"
         id="path24" /><path
         d="m 3187.41,791.316 -8.04,-55.543 34.74,44.09 z"
         style="fill:#100f0d;fill-opacity:1;fill-rule:nonzero;stroke:none"
         id="path26" /><path
         d="m 964.379,1045.78 h 192.001 v 191.99 H 964.379 v -191.99"
         style="fill:#f4f6f7;fill-opacity:1;fill-rule:nonzero;stroke:none"
         id="path28" /><path
         d="m 964.379,1045.78 h 192.001 v 191.99 H 964.379 Z"
         style="fill:none;stroke:#5e6061;stroke-width:5.0003;stroke-linecap:butt;stroke-linejoin:miter;stroke-miterlimit:4;stroke-dasharray:none;stroke-opacity:1"
         id="path30" /><path
         d="M 677.379,1141.78 H 965.383"
         style="fill:none;stroke:#100f0d;stroke-width:5.0003;stroke-linecap:butt;stroke-linejoin:miter;stroke-miterlimit:10;stroke-dasharray:none;stroke-opacity:1"
         id="path32" /><path
         d="m 1157.38,1141.78 h 283.36"
         style="fill:none;stroke:#100f0d;stroke-width:5.0003;stroke-linecap:butt;stroke-linejoin:miter;stroke-miterlimit:10;stroke-dasharray:none;stroke-opacity:1"
         id="path34" /><path
         d="m 1430.84,1127.25 54.2,14.52 -54.2,14.54 z"
         style="fill:#100f0d;fill-opacity:1;fill-rule:nonzero;stroke:none"
         id="path36" /><path
         d="m 2068.38,1045.78 h 192 v 191.99 h -192 v -191.99"
         style="fill:#f4f6f7;fill-opacity:1;fill-rule:nonzero;stroke:none"
         id="path38" /><path
         d="m 2068.38,1045.78 h 192 v 191.99 h -192 z"
         style="fill:none;stroke:#5e6061;stroke-width:5.0003;stroke-linecap:butt;stroke-linejoin:miter;stroke-miterlimit:4;stroke-dasharray:none;stroke-opacity:1"
         id="path40" /><path
         d="m 1876.38,1045.78 h 193 v 191.99 h -193 v -191.99"
         style="fill:#f4f6f7;fill-opacity:1;fill-rule:nonzero;stroke:none"
         id="path42" /><path
         d="m 1876.38,1045.78 h 193 v 191.99 h -193 z"
         style="fill:none;stroke:#5e6061;stroke-width:5.0003;stroke-linecap:butt;stroke-linejoin:miter;stroke-miterlimit:4;stroke-dasharray:none;stroke-opacity:1"
         id="path44" /><path
         d="m 1684.38,1045.78 h 192 v 191.99 h -192 v -191.99"
         style="fill:#f4f6f7;fill-opacity:1;fill-rule:nonzero;stroke:none"
         id="path46" /><path
         d="m 1684.38,1045.78 h 192 v 191.99 h -192 z"
         style="fill:none;stroke:#5e6061;stroke-width:5.0003;stroke-linecap:butt;stroke-linejoin:miter;stroke-miterlimit:4;stroke-dasharray:none;stroke-opacity:1"
         id="path48" /><path
         d="m 1492.38,1045.78 h 192 v 191.99 h -192 v -191.99"
         style="fill:#f4f6f7;fill-opacity:1;fill-rule:nonzero;stroke:none"
         id="path50" /><path
         d="m 1492.38,1045.78 h 192 v 191.99 h -192 z"
         style="fill:none;stroke:#5e6061;stroke-width:5.0003;stroke-linecap:butt;stroke-linejoin:miter;stroke-miterlimit:4;stroke-dasharray:none;stroke-opacity:1"
         id="path52" /><path
         d="m 2260.38,1045.78 h 192 v 191.99 h -192 v -191.99"
         style="fill:#f4f6f7;fill-opacity:1;fill-rule:nonzero;stroke:none"
         id="path54" /><path
         d="m 2260.38,1045.78 h 192 v 191.99 h -192 z"
         style="fill:none;stroke:#5e6061;stroke-width:5.0003;stroke-linecap:butt;stroke-linejoin:miter;stroke-miterlimit:4;stroke-dasharray:none;stroke-opacity:1"
         id="path56" /><g
         id="g58"
         transform="scale(10)"><text
           transform="matrix(1,0,0,-1,172.886,131.511)"
           style="font-variant:normal;font-weight:normal;font-size:6.99976px;font-family:Arial;-inkscape-font-specification:ArialMT;writing-mode:lr-tb;fill:#100f0d;fill-opacity:1;fill-rule:nonzero;stroke:none"
           id="text62"><tspan
             x="0 3.499999 7.3918657 10.891746 14.391625 17.891506 19.837439 23.729305 27.621172 31.513039 35.404903"
             y="0"
             sodipodi:role="line"
             id="tspan60">Tasks queue</tspan></text></g><path
         d="m 2452.38,1237.77 362.47,270.61"
         style="fill:none;stroke:#100f0d;stroke-width:5.0003;stroke-linecap:butt;stroke-linejoin:miter;stroke-miterlimit:10;stroke-dasharray:none;stroke-opacity:1"
         id="path64" /><path
         d="m 2815.6,1490.8 34.75,44.07 -52.13,-20.78 z"
         style="fill:#100f0d;fill-opacity:1;fill-rule:nonzero;stroke:none"
         id="path66" /><path
         d="m 2452.38,1045.78 351.1,-221.706"
         style="fill:none;stroke:#100f0d;stroke-width:5.0003;stroke-linecap:butt;stroke-linejoin:miter;stroke-miterlimit:10;stroke-dasharray:none;stroke-opacity:1"
         id="path68" /><path
         d="m 2787.34,817.086 53.59,-16.672 -38.08,41.242 z"
         style="fill:#100f0d;fill-opacity:1;fill-rule:nonzero;stroke:none"
         id="path70" /><path
         d="m 2452.38,1141.78 h 353.67"
         style="fill:none;stroke:#100f0d;stroke-width:5.0003;stroke-linecap:butt;stroke-linejoin:miter;stroke-miterlimit:10;stroke-dasharray:none;stroke-opacity:1"
         id="path72" /><path
         d="m 2796.14,1127.25 54.2,14.52 -54.2,14.54 z"
         style="fill:#100f0d;fill-opacity:1;fill-rule:nonzero;stroke:none"
         id="path74" /><path
         d="m 2548.38,1285.78 h 192 v 191.99 h -192 v -191.99"
         style="fill:#f4f6f7;fill-opacity:1;fill-rule:nonzero;stroke:none"
         id="path76" /><path
         d="m 2548.38,1285.78 h 192 v 191.99 h -192 z"
         style="fill:none;stroke:#5e6061;stroke-width:5.0003;stroke-linecap:butt;stroke-linejoin:miter;stroke-miterlimit:4;stroke-dasharray:none;stroke-opacity:1"
         id="path78" /><path
         d="m 2548.38,805.773 h 192 v 192 h -192 v -192"
         style="fill:#f4f6f7;fill-opacity:1;fill-rule:nonzero;stroke:none"
         id="path80" /><path
         d="m 2548.38,805.773 h 192 v 192 h -192 z"
         style="fill:none;stroke:#5e6061;stroke-width:5.0003;stroke-linecap:butt;stroke-linejoin:miter;stroke-miterlimit:4;stroke-dasharray:none;stroke-opacity:1"
         id="path82" /><path
         d="m 2548.38,1045.78 h 192 v 191.99 h -192 v -191.99"
         style="fill:#f4f6f7;fill-opacity:1;fill-rule:nonzero;stroke:none"
         id="path84" /><path
         d="m 2548.38,1045.78 h 192 v 191.99 h -192 z"
         style="fill:none;stroke:#5e6061;stroke-width:5.0003;stroke-linecap:butt;stroke-linejoin:miter;stroke-miterlimit:4;stroke-dasharray:none;stroke-opacity:1"
         id="path86" /><path
         d="m 2980.38,1045.78 c -64,32 -88,79.99 -72,144 16,64 56,104 120,119.99 64,16.01 112,-15.99 144,-95.99 21.55,-54.26 10.62,-97.05 -32.78,-127.39"
         style="fill:none;stroke:#100f0d;stroke-width:5.0003;stroke-linecap:butt;stroke-linejoin:miter;stroke-miterlimit:10;stroke-dasharray:none;stroke-opacity:1"
         id="path88" /><path
         d="m 3140.99,1104.51 -40.62,-38.72 54.54,13.22 z"
         style="fill:#100f0d;fill-opacity:1;fill-rule:nonzero;stroke:none"
         id="path90" /><path
         d="m 3124.38,1429.78 c -128,-32 -200,0 -216,95.99 -16,96.01 24,152.01 120,168.01 72.46,11.93 118.03,-20.46 135.48,-97.19"
         style="fill:none;stroke:#100f0d;stroke-width:5.0003;stroke-linecap:butt;stroke-linejoin:miter;stroke-miterlimit:10;stroke-dasharray:none;stroke-opacity:1"
         id="path92" /><path
         d="m 3147.48,1604 22.89,-51.23 5.79,55.82 z"
         style="fill:#100f0d;fill-opacity:1;fill-rule:nonzero;stroke:none"
         id="path94" /><path
         d="m 437.379,517.785 c -128,-32.012 -200,0 -216.004,95.988 -15.992,96 24.008,152 120,168 72.465,11.93 118.035,-20.457 135.48,-97.179"
         style="fill:none;stroke:#100f0d;stroke-width:5.0003;stroke-linecap:butt;stroke-linejoin:miter;stroke-miterlimit:10;stroke-dasharray:none;stroke-opacity:1"
         id="path96" /><path
         d="m 460.473,692.004 22.894,-51.231 5.797,55.821 z"
         style="fill:#100f0d;fill-opacity:1;fill-rule:nonzero;stroke:none"
         id="path98" /><path
         d="m 3220.38,1189.78 h 432"
         style="fill:none;stroke:#100f0d;stroke-width:5.0003;stroke-linecap:butt;stroke-linejoin:miter;stroke-miterlimit:10;stroke-dasharray:none;stroke-opacity:1"
         id="path100" /><path
         d="M 3652.38,565.773 V 1573.78"
         style="fill:none;stroke:#100f0d;stroke-width:5.0003;stroke-linecap:butt;stroke-linejoin:miter;stroke-miterlimit:10;stroke-dasharray:none;stroke-opacity:1"
         id="path102" /><path
         d="m 3508.38,1573.78 h 144"
         style="fill:none;stroke:#100f0d;stroke-width:5.0003;stroke-linecap:butt;stroke-linejoin:miter;stroke-miterlimit:10;stroke-dasharray:none;stroke-opacity:1"
         id="path104" /><path
         d="m 3364.38,805.773 h -144"
         style="fill:none;stroke:#100f0d;stroke-width:5.0003;stroke-linecap:butt;stroke-linejoin:miter;stroke-miterlimit:10;stroke-dasharray:none;stroke-opacity:1"
         id="path106" /><path
         d="M 3654.85,277.785 H 722.703"
         style="fill:none;stroke:#100f0d;stroke-width:5.0003;stroke-linecap:butt;stroke-linejoin:miter;stroke-miterlimit:10;stroke-dasharray:none;stroke-opacity:1"
         id="path108" /><path
         d="m 732.613,292.309 -54.207,-14.524 54.207,-14.539 z"
         style="fill:#100f0d;fill-opacity:1;fill-rule:nonzero;stroke:none"
         id="path110" /><path
         d="m 3364.38,709.773 h 192 v 192 h -192 v -192"
         style="fill:#ae7ac4;fill-opacity:1;fill-rule:nonzero;stroke:none"
         id="path112" /><path
         d="m 3364.38,709.773 h 192 v 192 h -192 z"
         style="fill:none;stroke:#565353;stroke-width:5.0003;stroke-linecap:butt;stroke-linejoin:miter;stroke-miterlimit:4;stroke-dasharray:none;stroke-opacity:1"
         id="path114" /><path
         d="m 3652.38,805.773 h -96"
         style="fill:none;stroke:#100f0d;stroke-width:5.0003;stroke-linecap:butt;stroke-linejoin:miter;stroke-miterlimit:10;stroke-dasharray:none;stroke-opacity:1"
         id="path116" /><g
         id="g118"
         transform="scale(10)"><text
           transform="matrix(1,0,0,-1,91.6445,131.511)"
           style="font-variant:normal;font-weight:normal;font-size:6.99976px;font-family:Arial;-inkscape-font-specification:ArialMT;writing-mode:lr-tb;fill:#100f0d;fill-opacity:1;fill-rule:nonzero;stroke:none"
           id="text122"><tspan
             x="0 5.0538268 8.945693 13.99952 15.945454 17.891386 21.783253 25.283133"
             y="0"
             sodipodi:role="line"
             id="tspan120">New task</tspan></text><text
           transform="matrix(1,0,0,-1,195.9485,193.6446)"
           style="font-variant:normal;font-weight:bold;font-size:7.99981px;font-family:Arial;-inkscape-font-specification:Arial-BoldMT-Bold;writing-mode:lr-tb;fill:#100f0d;fill-opacity:1;fill-rule:nonzero;stroke:none"
           id="text126"><tspan
             x="0 4.8878841 9.7757683 12.887694 17.335588 21.783484 26.671366 28.895313 33.783199 38.671082 43.558964"
             y="0"
             sodipodi:role="line"
             id="tspan124">Thread pool</tspan></text></g><path
         d="m 3652.38,277.785 v 95.988"
         style="fill:none;stroke:#100f0d;stroke-width:5.0003;stroke-linecap:butt;stroke-linejoin:miter;stroke-miterlimit:10;stroke-dasharray:none;stroke-opacity:1"
         id="path128" /><path
         d="m 3316.38,1477.78 h 192 v 192 h -192 v -192"
         style="fill:#ae7ac4;fill-opacity:1;fill-rule:nonzero;stroke:none"
         id="path130" /><path
         d="m 3316.38,1477.78 h 192 v 192 h -192 z"
         style="fill:none;stroke:#565353;stroke-width:5.0003;stroke-linecap:butt;stroke-linejoin:miter;stroke-miterlimit:4;stroke-dasharray:none;stroke-opacity:1"
         id="path132" /><path
         d="m 3220.38,1573.78 h 96"
         style="fill:none;stroke:#100f0d;stroke-width:5.0003;stroke-linecap:butt;stroke-linejoin:miter;stroke-miterlimit:10;stroke-dasharray:none;stroke-opacity:1"
         id="path134" /><path
         d="m 1944.38,181.773 h 192 v 192 h -192 v -192"
         style="fill:#ae7ac4;fill-opacity:1;fill-rule:nonzero;stroke:none"
         id="path136" /><path
         d="m 1944.38,181.773 h 192 v 192 h -192 z"
         style="fill:none;stroke:#565353;stroke-width:5.0003;stroke-linecap:butt;stroke-linejoin:miter;stroke-miterlimit:4;stroke-dasharray:none;stroke-opacity:1"
         id="path138" /><path
         d="m 2932.38,181.773 h 192 v 192 h -192 v -192"
         style="fill:#ae7ac4;fill-opacity:1;fill-rule:nonzero;stroke:none"
         id="path140" /><path
         d="m 2932.38,181.773 h 192 v 192 h -192 z"
         style="fill:none;stroke:#565353;stroke-width:5.0003;stroke-linecap:butt;stroke-linejoin:miter;stroke-miterlimit:4;stroke-dasharray:none;stroke-opacity:1"
         id="path142" /><path
         d="m 917.379,181.773 h 192.001 v 192 H 917.379 v -192"
         style="fill:#ae7ac4;fill-opacity:1;fill-rule:nonzero;stroke:none"
         id="path144" /><path
         d="m 917.379,181.773 h 192.001 v 192 H 917.379 Z"
         style="fill:none;stroke:#565353;stroke-width:5.0003;stroke-linecap:butt;stroke-linejoin:miter;stroke-miterlimit:4;stroke-dasharray:none;stroke-opacity:1"
         id="path146" /><g
         id="g148"
         transform="scale(10)"><text
           transform="matrix(1,0,0,-1,209.571,1.91055)"
           style="font-variant:normal;font-weight:normal;font-size:6.99976px;font-family:Arial;-inkscape-font-specification:ArialMT;writing-mode:lr-tb;fill:#100f0d;fill-opacity:1;fill-rule:nonzero;stroke:none"
           id="text152"><tspan
             x="0 5.0538268 8.945693 14.776493 18.66836 20.222307 24.114174 26.060106 29.951973 33.843838 35.789772 37.735706 41.627571 45.127453 48.627335"
             y="0"
             sodipodi:role="line"
             id="tspan150">Completed tasks</tspan></text></g><path
         d="m 1348.38,613.773 v 96 c 0,32 0,64 0,96 v 960.007 c 0,32 16,47.99 48,47.99 h 1824 c 32,0 48,-15.99 48,-47.99 V 661.773 c 0,-32 -16,-48 -48,-48 z"
         style="fill:none;stroke:#100f0d;stroke-width:5.0003;stroke-linecap:butt;stroke-linejoin:miter;stroke-miterlimit:10;stroke-dasharray:19.2075, 9.60373;stroke-dashoffset:0;stroke-opacity:1"
         id="path154" /><path
         d="m 3556.38,373.773 h 192 v 192 h -192 v -192"
         style="fill:#ae7ac4;fill-opacity:1;fill-rule:nonzero;stroke:none"
         id="path156" /><path
         d="m 3556.38,373.773 h 192 v 192 h -192 z"
         style="fill:none;stroke:#565353;stroke-width:5.0003;stroke-linecap:butt;stroke-linejoin:miter;stroke-miterlimit:4;stroke-dasharray:none;stroke-opacity:1"
         id="path158" /></g></g></svg>
