<?xml version="1.0" encoding="UTF-8" standalone="no"?>
<!-- Created with Inkscape (http://www.inkscape.org/) -->

<svg
   version="1.1"
   id="svg2"
   xml:space="preserve"
   width="292"
   height="256"
   viewBox="0 0 292 256"
   sodipodi:docname="9-3.eps"
   xmlns:inkscape="http://www.inkscape.org/namespaces/inkscape"
   xmlns:sodipodi="http://sodipodi.sourceforge.net/DTD/sodipodi-0.dtd"
   xmlns="http://www.w3.org/2000/svg"
   xmlns:svg="http://www.w3.org/2000/svg"><defs
     id="defs6" /><sodipodi:namedview
     id="namedview4"
     pagecolor="#ffffff"
     bordercolor="#666666"
     borderopacity="1.0"
     inkscape:pageshadow="2"
     inkscape:pageopacity="0.0"
     inkscape:pagecheckerboard="0" /><g
     id="g8"
     inkscape:groupmode="layer"
     inkscape:label="ink_ext_XXXXXX"
     transform="matrix(1.3333333,0,0,-1.3333333,0,256)"><g
       id="g10"
       transform="scale(0.1)"><path
         d="m 1096.38,1912.15 c 601.17,0 1088.5,-426.54 1088.5,-952.697 C 2184.88,433.289 1697.55,6.75 1096.38,6.75 495.215,6.75 7.87891,433.289 7.87891,959.453 7.87891,1485.61 495.215,1912.15 1096.38,1912.15"
         style="fill:#ffffff;fill-opacity:1;fill-rule:nonzero;stroke:none"
         id="path12" /><path
         d="m 1096.38,1912.15 c 601.17,0 1088.5,-426.54 1088.5,-952.697 C 2184.88,433.289 1697.55,6.75 1096.38,6.75 495.215,6.75 7.87891,433.289 7.87891,959.453 7.87891,1485.61 495.215,1912.15 1096.38,1912.15 Z"
         style="fill:none;stroke:#100f0d;stroke-width:5.0003;stroke-linecap:butt;stroke-linejoin:miter;stroke-miterlimit:4;stroke-dasharray:none;stroke-opacity:1"
         id="path14" /><path
         d="M 869.582,1133.69 H 1442.85"
         style="fill:none;stroke:#100f0d;stroke-width:5.0003;stroke-linecap:butt;stroke-linejoin:miter;stroke-miterlimit:10;stroke-dasharray:none;stroke-opacity:1"
         id="path16" /><path
         d="m 1432.94,1119.16 54.21,14.52 -54.21,14.53 z"
         style="fill:#100f0d;fill-opacity:1;fill-rule:nonzero;stroke:none"
         id="path18" /><g
         id="g20"
         transform="scale(10)"><text
           transform="matrix(1,0,0,-1,110.057,115.156)"
           style="font-variant:normal;font-weight:normal;font-size:6.99976px;font-family:Arial;-inkscape-font-specification:ArialMT;writing-mode:lr-tb;fill:#100f0d;fill-opacity:1;fill-rule:nonzero;stroke:none"
           id="text24"><tspan
             x="0 5.0538268 8.945693 10.49964 12.053587"
             y="0"
             sodipodi:role="line"
             id="tspan22">Calls</tspan></text></g><path
         d="M 597.281,761.781 V 702.672"
         style="fill:none;stroke:#100f0d;stroke-width:5.0003;stroke-linecap:butt;stroke-linejoin:miter;stroke-miterlimit:10;stroke-dasharray:none;stroke-opacity:1"
         id="path26" /><path
         d="m 582.754,712.59 14.519,-54.211 14.536,54.211 z"
         style="fill:#100f0d;fill-opacity:1;fill-rule:nonzero;stroke:none"
         id="path28" /><path
         d="M 597.281,929.285 V 836.922"
         style="fill:none;stroke:#100f0d;stroke-width:5.0003;stroke-linecap:butt;stroke-linejoin:miter;stroke-miterlimit:10;stroke-dasharray:none;stroke-opacity:1"
         id="path30" /><g
         id="g32"
         transform="scale(10)"><text
           transform="matrix(1,0,0,-1,45.7172,77.868)"
           style="font-variant:normal;font-weight:normal;font-size:6.99976px;font-family:Arial;-inkscape-font-specification:ArialMT;writing-mode:lr-tb;fill:#100f0d;fill-opacity:1;fill-rule:nonzero;stroke:none"
           id="text36"><tspan
             x="0 4.6688399 8.5607061 10.506639 12.452573 16.34444 20.236305 22.18224"
             y="0"
             sodipodi:role="line"
             id="tspan34">Put data</tspan></text></g><path
         d="M 324.977,929.285 H 869.582 V 1201.59 H 324.977 V 929.285"
         style="fill:#fcfccf;fill-opacity:1;fill-rule:nonzero;stroke:none"
         id="path38" /><path
         d="M 324.977,929.285 H 869.582 V 1201.59 H 324.977 Z"
         style="fill:none;stroke:#c49d19;stroke-width:5.0003;stroke-linecap:butt;stroke-linejoin:miter;stroke-miterlimit:4;stroke-dasharray:none;stroke-opacity:1"
         id="path40" /><g
         id="g42"
         transform="scale(10)"><text
           transform="matrix(1,0,0,-1,43.0063,104.677)"
           style="font-variant:normal;font-weight:normal;font-size:6.99976px;font-family:Arial;-inkscape-font-specification:ArialMT;writing-mode:lr-tb;fill:#100f0d;fill-opacity:1;fill-rule:nonzero;stroke:none"
           id="text46"><tspan
             x="0 4.6688399 8.1687202 11.6686 15.560467 21.006643 24.506523 28.39839"
             y="0"
             sodipodi:role="line"
             id="tspan44">Asyncfow</tspan></text></g><path
         d="M 1486.35,997.191 H 914.668"
         style="fill:none;stroke:#100f0d;stroke-width:5.0003;stroke-linecap:butt;stroke-linejoin:miter;stroke-miterlimit:10;stroke-dasharray:none;stroke-opacity:1"
         id="path48" /><path
         d="m 924.574,1011.72 -54.203,-14.521 54.203,-14.535 z"
         style="fill:#100f0d;fill-opacity:1;fill-rule:nonzero;stroke:none"
         id="path50" /><g
         id="g52"
         transform="scale(10)"><text
           transform="matrix(1,0,0,-1,94.5656,101.819)"
           style="font-variant:normal;font-weight:normal;font-size:6.99976px;font-family:Arial;-inkscape-font-specification:ArialMT;writing-mode:lr-tb;fill:#100f0d;fill-opacity:1;fill-rule:nonzero;stroke:none"
           id="text56"><tspan
             x="0 4.6688399 6.2227864 10.114654 13.614533 17.114412 20.614294 22.560226 26.452093 30.34396 34.235825 36.181759 41.235584 45.127453 46.6814 48.627335"
             y="0"
             sodipodi:role="line"
             id="tspan54">Blocks and waits</tspan></text></g><path
         d="m 1488.68,929.285 h 544.6 v 272.305 h -544.6 V 929.285"
         style="fill:#e0f2c3;fill-opacity:1;fill-rule:nonzero;stroke:none"
         id="path58" /><path
         d="m 1488.68,929.285 h 544.6 v 272.305 h -544.6 z"
         style="fill:none;stroke:#298a3c;stroke-width:5.0003;stroke-linecap:butt;stroke-linejoin:miter;stroke-miterlimit:4;stroke-dasharray:none;stroke-opacity:1"
         id="path60" /><g
         id="g62"
         transform="scale(10)"><text
           transform="matrix(1,0,0,-1,159.37,108.877)"
           style="font-variant:normal;font-weight:normal;font-size:6.99976px;font-family:Arial;-inkscape-font-specification:ArialMT;writing-mode:lr-tb;fill:#100f0d;fill-opacity:1;fill-rule:nonzero;stroke:none"
           id="text68"><tspan
             x="0 1.9459332 5.8378 7.3917465 9.7226667 13.614533 15.945454 19.83732 23.729187 26.060106 28.006041"
             y="0"
             sodipodi:role="line"
             id="tspan64">third-party</tspan><tspan
             x="-5.44805 -3.8941033 -2.3401566 1.55171 3.8826301 7.7744966 10.105416 13.605297 15.55123 21.38203 25.273897 27.21983 31.111696 35.003563"
             y="8.3999996"
             sodipodi:role="line"
             id="tspan66">library method</tspan></text></g><path
         d="m 617.578,1447.99 v -158.2 h 47.598 l -70,-86.1 -70,86.1 h 47.601 v 158.2 h 44.801"
         style="fill:#f792a4;fill-opacity:1;fill-rule:nonzero;stroke:none"
         id="path70" /><path
         d="m 617.578,1447.99 v -158.2 h 47.598 l -70,-86.1 -70,86.1 h 47.601 v 158.2"
         style="fill:none;stroke:#b74248;stroke-width:5.0003;stroke-linecap:butt;stroke-linejoin:miter;stroke-miterlimit:10;stroke-dasharray:none;stroke-opacity:1"
         id="path72" /><path
         d="m 572.777,1539.59 h 44.801 v 159 h -44.801 v -159"
         style="fill:#f792a4;fill-opacity:1;fill-rule:nonzero;stroke:none"
         id="path74" /><path
         d="m 572.777,1539.59 v 159 h 44.801 v -159"
         style="fill:none;stroke:#b74248;stroke-width:5.0003;stroke-linecap:butt;stroke-linejoin:miter;stroke-miterlimit:10;stroke-dasharray:none;stroke-opacity:1"
         id="path76" /><g
         id="g78"
         transform="scale(10)"><text
           transform="matrix(1,0,0,-1,30.9195,148.076)"
           style="font-variant:normal;font-weight:normal;font-size:6.99976px;font-family:Arial;-inkscape-font-specification:ArialMT;writing-mode:lr-tb;fill:#100f0d;fill-opacity:1;fill-rule:nonzero;stroke:none"
           id="text82"><tspan
             x="0 1.9459332 5.8378 9.3376799 13.229547 19.060347 20.614294 24.506159 28.398026 30.34396 32.674881 36.566746 40.458614 44.350479 48.242348 51.742226 53.68816"
             y="0"
             sodipodi:role="line"
             id="tspan80">Incoming requests</tspan></text></g><path
         d="M 324.977,384.691 H 869.582 V 656.988 H 324.977 V 384.691"
         style="fill:#fde29b;fill-opacity:1;fill-rule:nonzero;stroke:none"
         id="path84" /><path
         d="M 324.977,384.691 H 869.582 V 656.988 H 324.977 Z"
         style="fill:none;stroke:#e36838;stroke-width:5.0003;stroke-linecap:butt;stroke-linejoin:miter;stroke-miterlimit:4;stroke-dasharray:none;stroke-opacity:1"
         id="path86" /><path
         d="M 814.977,656.988 V 384.691 M 379.586,656.988 V 384.691"
         style="fill:none;stroke:#e36838;stroke-width:5.0003;stroke-linecap:butt;stroke-linejoin:miter;stroke-miterlimit:10;stroke-dasharray:none;stroke-opacity:1"
         id="path88" /><g
         id="g90"
         transform="scale(10)"><text
           transform="matrix(1,0,0,-1,49.2199,50.2172)"
           style="font-variant:normal;font-weight:normal;font-size:6.99976px;font-family:Arial;-inkscape-font-specification:ArialMT;writing-mode:lr-tb;fill:#100f0d;fill-opacity:1;fill-rule:nonzero;stroke:none"
           id="text96"><tspan
             x="0 5.4458132 9.3376799 13.229547 17.121412"
             y="0"
             sodipodi:role="line"
             id="tspan92">Queue</tspan><tspan
             x="37.335201 43.816059 47.707924 50.038845 53.538723 57.430592 59.761509 63.653378 65.599312 69.49118 71.822098 75.713966 79.605827"
             y="-131.688"
             sodipodi:role="line"
             id="tspan94">Worker thread</tspan></text></g></g></g></svg>
