<?xml version="1.0" encoding="UTF-8" standalone="no"?>
<!-- Created with Inkscape (http://www.inkscape.org/) -->

<svg
   version="1.1"
   id="svg2"
   xml:space="preserve"
   width="154.66667"
   height="250.66667"
   viewBox="0 0 154.66667 250.66667"
   sodipodi:docname="9-4.eps"
   xmlns:inkscape="http://www.inkscape.org/namespaces/inkscape"
   xmlns:sodipodi="http://sodipodi.sourceforge.net/DTD/sodipodi-0.dtd"
   xmlns="http://www.w3.org/2000/svg"
   xmlns:svg="http://www.w3.org/2000/svg"><defs
     id="defs6" /><sodipodi:namedview
     id="namedview4"
     pagecolor="#ffffff"
     bordercolor="#666666"
     borderopacity="1.0"
     inkscape:pageshadow="2"
     inkscape:pageopacity="0.0"
     inkscape:pagecheckerboard="0" /><g
     id="g8"
     inkscape:groupmode="layer"
     inkscape:label="ink_ext_XXXXXX"
     transform="matrix(1.3333333,0,0,-1.3333333,0,250.66667)"><g
       id="g10"
       transform="scale(0.1)"><path
         d="m 342.656,1875.94 h 467.453 c 47.442,0 86.329,-38.89 86.329,-86.33 v -402.89 c 0,-47.45 -38.887,-86.33 -86.329,-86.33 H 342.656 c -47.445,0 -86.332,38.88 -86.332,86.33 v 402.89 c 0,47.44 38.114,86.33 86.332,86.33"
         style="fill:#c9e4f3;fill-opacity:1;fill-rule:nonzero;stroke:none"
         id="path12" /><path
         d="m 342.656,1875.94 h 467.453 c 47.442,0 86.329,-38.89 86.329,-86.33 v -402.89 c 0,-47.45 -38.887,-86.33 -86.329,-86.33 H 342.656 c -47.445,0 -86.332,38.88 -86.332,86.33 v 402.89 c 0,47.44 38.114,86.33 86.332,86.33 z"
         style="fill:none;stroke:#293985;stroke-width:5.0003;stroke-linecap:butt;stroke-linejoin:miter;stroke-miterlimit:4;stroke-dasharray:none;stroke-opacity:1"
         id="path14" /><g
         id="g16"
         transform="scale(10)"><text
           transform="matrix(1,0,0,-1,44.2145,160.631)"
           style="font-variant:normal;font-weight:normal;font-size:6.99976px;font-family:Arial;-inkscape-font-specification:ArialMT;writing-mode:lr-tb;fill:#100f0d;fill-opacity:1;fill-rule:nonzero;stroke:none"
           id="text22"><tspan
             x="0 4.6688399 8.5607061 12.452573 14.398506 19.452333 21.006279 22.952213"
             y="0"
             sodipodi:role="line"
             id="tspan18">App with</tspan><tspan
             x="-13.8121 -10.31222 -6.8123398 -2.9204733 0.97139311 4.8632598 8.755126 10.309072 11.86302 15.754887 19.646753 21.592686 23.146633 24.700579 28.592445 30.923367 34.815231 37.146152"
             y="8.3999996"
             sodipodi:role="line"
             id="tspan20">scheduling library</tspan></text></g><path
         d="m 3.00391,887.473 c 0,54.183 256.43009,98.011 573.37909,98.011 152.105,0 297.836,-10.363 405.347,-28.687 107.5,-18.324 168.02,-43.828 168.02,-69.324 V 100.965 C 1149.75,46.7813 893.332,2.95703 576.383,2.95703 259.434,2.95703 3.00391,46.7813 3.00391,100.965 v 786.508"
         style="fill:#f4f6f7;fill-opacity:1;fill-rule:nonzero;stroke:none"
         id="path24" /><path
         d="m 3.00391,887.473 c 0,54.183 256.43009,98.011 573.37909,98.011 152.105,0 297.836,-10.363 405.347,-28.687 107.5,-18.324 168.02,-43.828 168.02,-69.324 V 100.965 C 1149.75,46.7813 893.332,2.95703 576.383,2.95703 259.434,2.95703 3.00391,46.7813 3.00391,100.965 Z"
         style="fill:none;stroke:#5e6061;stroke-width:4.9691;stroke-linecap:butt;stroke-linejoin:miter;stroke-miterlimit:4;stroke-dasharray:none;stroke-opacity:1"
         id="path26" /><path
         d="m 1149.75,887.473 c 0,-54.184 -256.418,-98.012 -573.367,-98.012 -316.949,0 -573.37909,43.828 -573.37909,98.012"
         style="fill:none;stroke:#5e6061;stroke-width:4.9691;stroke-linecap:butt;stroke-linejoin:miter;stroke-miterlimit:4;stroke-dasharray:none;stroke-opacity:1"
         id="path28" /><g
         id="g30"
         transform="scale(10)"><text
           transform="matrix(1,0,0,-1,22.843,61.4426)"
           style="font-variant:normal;font-weight:normal;font-size:6.99976px;font-family:Arial;-inkscape-font-specification:ArialMT;writing-mode:lr-tb;fill:#100f0d;fill-opacity:1;fill-rule:nonzero;stroke:none"
           id="text34"><tspan
             x="0 1.5539467 5.4458132 9.3376799 11.283613 13.229547 17.121412 19.067347 21.013279 24.905146 28.797012 30.742947 34.634811 38.52668 40.47261 44.364479 48.256344 50.202278 54.094147 57.986012 59.931946 63.823811 67.715675"
             y="0"
             sodipodi:role="line"
             id="tspan32">job: 1, 21.02.20 20:00,</tspan></text><text
           transform="matrix(1,0,0,-1,5.2125,53.0426)"
           style="font-variant:normal;font-weight:normal;font-size:6.99976px;font-family:'Courier New';-inkscape-font-specification:Courier;writing-mode:lr-tb;fill:#100f0d;fill-opacity:1;fill-rule:nonzero;stroke:none"
           id="text38"><tspan
             x="0 4.1998558 8.3997116 12.599568 16.799423 20.999281 25.199137 29.398993 33.598846 37.798702 41.998562 46.198418 50.398273 54.598129 58.797985 62.997841"
             y="0"
             sodipodi:role="line"
             id="tspan36">execution_status</tspan></text><text
           transform="matrix(1,0,0,-1,72.4082,53.0426)"
           style="font-variant:normal;font-weight:normal;font-size:6.99976px;font-family:Arial;-inkscape-font-specification:ArialMT;writing-mode:lr-tb;fill:#100f0d;fill-opacity:1;fill-rule:nonzero;stroke:none"
           id="text44"><tspan
             x="0 1.9459332 3.8918664 8.5607061 13.614533 18.66836 23.722187 28.391027 33.059868"
             y="0"
             sodipodi:role="line"
             id="tspan40">: SUCCESS</tspan><tspan
             x="-48.592602 -47.038654 -43.146786 -39.254921 -37.308987 -35.363052 -31.471188 -29.525253 -27.579321 -23.687454 -19.795588 -17.849653 -13.957788 -10.065921 -8.1199875 -4.2281213 -0.33625457 1.6096787 5.5015454 9.3934116 11.339345 15.231212"
             y="8.3999996"
             sodipodi:role="line"
             id="tspan42">job: 2, 21.02.20 21:00</tspan></text><text
           transform="matrix(1,0,0,-1,10.0722,36.2426)"
           style="font-variant:normal;font-weight:normal;font-size:6.99976px;font-family:'Courier New';-inkscape-font-specification:Courier;writing-mode:lr-tb;fill:#100f0d;fill-opacity:1;fill-rule:nonzero;stroke:none"
           id="text48"><tspan
             x="0 4.1998558 8.3997116 12.599568 16.799423 20.999281 25.199137 29.398993 33.598846 37.798702 41.998562 46.198418 50.398273 54.598129 58.797985 62.997841"
             y="0"
             sodipodi:role="line"
             id="tspan46">execution_status</tspan></text><text
           transform="matrix(1,0,0,-1,77.2683,36.2426)"
           style="font-variant:normal;font-weight:normal;font-size:6.99976px;font-family:Arial;-inkscape-font-specification:ArialMT;writing-mode:lr-tb;fill:#100f0d;fill-opacity:1;fill-rule:nonzero;stroke:none"
           id="text54"><tspan
             x="0 1.9459332 3.8918664 7.7792974 12.448137 14.394071 18.285936 22.954777"
             y="0"
             sodipodi:role="line"
             id="tspan50">: FAILED</tspan><tspan
             x="-53.453098 -51.899155 -48.007286 -44.115421 -42.169487 -40.223553 -36.331688 -34.385754 -32.439819 -28.547955 -24.656088 -22.710154 -18.818287 -14.926421 -12.980488 -9.0886211 -5.1967545 -3.2508214 0.64104527 4.5329118 6.4788451 10.370711"
             y="8.3988304"
             sodipodi:role="line"
             id="tspan52">job: 3, 21.02.20 21:30</tspan></text><text
           transform="matrix(1,0,0,-1,12.0207,19.4426)"
           style="font-variant:normal;font-weight:normal;font-size:6.99976px;font-family:'Courier New';-inkscape-font-specification:Courier;writing-mode:lr-tb;fill:#100f0d;fill-opacity:1;fill-rule:nonzero;stroke:none"
           id="text58"><tspan
             x="0 4.1998558 8.3997116 12.599568 16.799423 20.999281 25.199137 29.398993 33.598846 37.798702 41.998562 46.198418 50.398273 54.598129 58.797985 62.997841"
             y="0"
             sodipodi:role="line"
             id="tspan56">execution_status</tspan></text><text
           transform="matrix(1,0,0,-1,79.2168,19.4426)"
           style="font-variant:normal;font-weight:normal;font-size:6.99976px;font-family:Arial;-inkscape-font-specification:ArialMT;writing-mode:lr-tb;fill:#100f0d;fill-opacity:1;fill-rule:nonzero;stroke:none"
           id="text62"><tspan
             x="0 1.9459332 3.8918664 8.945693 14.391506 19.445333"
             y="0"
             sodipodi:role="line"
             id="tspan60">: NONE</tspan></text></g><path
         d="M 576.383,1300.39 V 1028.87"
         style="fill:none;stroke:#100f0d;stroke-width:5.0003;stroke-linecap:butt;stroke-linejoin:miter;stroke-miterlimit:10;stroke-dasharray:none;stroke-opacity:1"
         id="path64" /><path
         d="m 561.852,1038.78 14.519,-54.21 14.539,54.21 z"
         style="fill:#100f0d;fill-opacity:1;fill-rule:nonzero;stroke:none"
         id="path66" /></g></g></svg>
