<?xml version="1.0" encoding="UTF-8" standalone="no"?>
<!-- Created with Inkscape (http://www.inkscape.org/) -->

<svg
   version="1.1"
   id="svg2"
   xml:space="preserve"
   width="225.33333"
   height="257.33334"
   viewBox="0 0 225.33333 257.33334"
   sodipodi:docname="9-5.eps"
   xmlns:inkscape="http://www.inkscape.org/namespaces/inkscape"
   xmlns:sodipodi="http://sodipodi.sourceforge.net/DTD/sodipodi-0.dtd"
   xmlns="http://www.w3.org/2000/svg"
   xmlns:svg="http://www.w3.org/2000/svg"><defs
     id="defs6" /><sodipodi:namedview
     id="namedview4"
     pagecolor="#ffffff"
     bordercolor="#666666"
     borderopacity="1.0"
     inkscape:pageshadow="2"
     inkscape:pageopacity="0.0"
     inkscape:pagecheckerboard="0" /><g
     id="g8"
     inkscape:groupmode="layer"
     inkscape:label="ink_ext_XXXXXX"
     transform="matrix(1.3333333,0,0,-1.3333333,0,257.33333)"><g
       id="g10"
       transform="scale(0.1)"><path
         d="M 65.4922,1926.2 H 396.051 c 32.664,0 59.105,-26.45 59.105,-59.11 v -274.55 c 0,-32.68 -26.441,-59.12 -59.105,-59.12 H 65.4922 c -32.6641,0 -59.11329,26.44 -59.11329,59.12 v 274.55 c 0,32.66 26.44919,59.11 59.11329,59.11"
         style="fill:#c9e4f3;fill-opacity:1;fill-rule:nonzero;stroke:none"
         id="path12" /><path
         d="M 65.4922,1926.2 H 396.051 c 32.664,0 59.105,-26.45 59.105,-59.11 v -274.55 c 0,-32.68 -26.441,-59.12 -59.105,-59.12 H 65.4922 c -32.6641,0 -59.11329,26.44 -59.11329,59.12 v 274.55 c 0,32.66 26.44919,59.11 59.11329,59.11 z"
         style="fill:none;stroke:#293985;stroke-width:5.0003;stroke-linecap:butt;stroke-linejoin:miter;stroke-miterlimit:4;stroke-dasharray:none;stroke-opacity:1"
         id="path14" /><g
         id="g16"
         transform="scale(10)"><text
           transform="matrix(1,0,0,-1,11.7906,171.32)"
           style="font-variant:normal;font-weight:normal;font-size:6.99976px;font-family:Arial;-inkscape-font-specification:ArialMT;writing-mode:lr-tb;fill:#100f0d;fill-opacity:1;fill-rule:nonzero;stroke:none"
           id="text20"><tspan
             x="0 5.0538268 8.945693 12.83756 16.729427 18.67536"
             y="0"
             sodipodi:role="line"
             id="tspan18">Node 1</tspan></text></g><path
         d="M 846.383,1272.86 V 1137.92"
         style="fill:none;stroke:#100f0d;stroke-width:5.0003;stroke-linecap:butt;stroke-linejoin:miter;stroke-miterlimit:10;stroke-dasharray:none;stroke-opacity:1"
         id="path22" /><path
         d="m 831.855,1147.82 14.516,-54.19 14.539,54.19 z"
         style="fill:#100f0d;fill-opacity:1;fill-rule:nonzero;stroke:none"
         id="path24" /><path
         d="M 846.383,1534.2 V 1383.3"
         style="fill:none;stroke:#100f0d;stroke-width:5.0003;stroke-linecap:butt;stroke-linejoin:miter;stroke-miterlimit:10;stroke-dasharray:none;stroke-opacity:1"
         id="path26" /><path
         d="m 681.492,1926.2 h 330.558 c 32.67,0 59.11,-26.45 59.11,-59.11 v -274.55 c 0,-32.68 -26.44,-59.12 -59.11,-59.12 H 681.492 c -32.672,0 -59.109,26.44 -59.109,59.12 v 274.55 c 0,32.66 26.437,59.11 59.109,59.11"
         style="fill:#c9e4f3;fill-opacity:1;fill-rule:nonzero;stroke:none"
         id="path28" /><path
         d="m 681.492,1926.2 h 330.558 c 32.67,0 59.11,-26.45 59.11,-59.11 v -274.55 c 0,-32.68 -26.44,-59.12 -59.11,-59.12 H 681.492 c -32.672,0 -59.109,26.44 -59.109,59.12 v 274.55 c 0,32.66 26.437,59.11 59.109,59.11 z"
         style="fill:none;stroke:#293985;stroke-width:5.0003;stroke-linecap:butt;stroke-linejoin:miter;stroke-miterlimit:4;stroke-dasharray:none;stroke-opacity:1"
         id="path30" /><g
         id="g32"
         transform="scale(10)"><text
           transform="matrix(1,0,0,-1,73.3902,171.32)"
           style="font-variant:normal;font-weight:normal;font-size:6.99976px;font-family:Arial;-inkscape-font-specification:ArialMT;writing-mode:lr-tb;fill:#100f0d;fill-opacity:1;fill-rule:nonzero;stroke:none"
           id="text36"><tspan
             x="0 5.0538268 8.945693 12.83756 16.729427 18.67536"
             y="0"
             sodipodi:role="line"
             id="tspan34">Node 2</tspan></text></g><path
         d="m 1297.49,1926.2 h 329.77 c 32.67,0 59.12,-26.45 59.12,-59.11 v -274.55 c 0,-32.68 -26.45,-59.12 -59.12,-59.12 h -330.54 c -32.68,0 -59.11,26.44 -59.11,59.12 v 274.55 c 0.77,32.66 27.21,59.11 59.88,59.11"
         style="fill:#c9e4f3;fill-opacity:1;fill-rule:nonzero;stroke:none"
         id="path38" /><path
         d="m 1297.49,1926.2 h 329.77 c 32.67,0 59.12,-26.45 59.12,-59.11 v -274.55 c 0,-32.68 -26.45,-59.12 -59.12,-59.12 h -330.54 c -32.68,0 -59.11,26.44 -59.11,59.12 v 274.55 c 0.77,32.66 27.21,59.11 59.88,59.11 z"
         style="fill:none;stroke:#293985;stroke-width:5.0003;stroke-linecap:butt;stroke-linejoin:miter;stroke-miterlimit:4;stroke-dasharray:none;stroke-opacity:1"
         id="path40" /><g
         id="g42"
         transform="scale(10)"><text
           transform="matrix(1,0,0,-1,134.913,171.32)"
           style="font-variant:normal;font-weight:normal;font-size:6.99976px;font-family:Arial;-inkscape-font-specification:ArialMT;writing-mode:lr-tb;fill:#100f0d;fill-opacity:1;fill-rule:nonzero;stroke:none"
           id="text46"><tspan
             x="0 5.0538268 8.945693 12.83756 16.729427 18.67536"
             y="0"
             sodipodi:role="line"
             id="tspan44">Node 3</tspan></text></g><path
         d="m 345.266,983.148 c 0,55.772 224.75,100.392 501.5,100.392 132.804,0 260.964,-10.23 354.764,-29.75 93.8,-18.59 146.74,-44.61 146.74,-70.642 V 113.094 c 0,-55.7698 -224.75,-100.3909 -501.497,-100.3909 -276.757,0 -501.507,44.6211 -501.507,100.3909 v 870.054"
         style="fill:#f4f6f7;fill-opacity:1;fill-rule:nonzero;stroke:none"
         id="path48" /><path
         d="m 345.266,983.148 c 0,55.772 224.75,100.392 501.5,100.392 132.804,0 260.964,-10.23 354.764,-29.75 93.8,-18.59 146.74,-44.61 146.74,-70.642 V 113.094 c 0,-55.7698 -224.75,-100.3909 -501.497,-100.3909 -276.757,0 -501.507,44.6211 -501.507,100.3909 z"
         style="fill:none;stroke:#5e6061;stroke-width:5.9726;stroke-linecap:butt;stroke-linejoin:miter;stroke-miterlimit:4;stroke-dasharray:none;stroke-opacity:1"
         id="path50" /><path
         d="m 1348.27,983.148 c 0,-55.773 -224.75,-100.394 -501.497,-100.394 -276.757,0 -501.507,44.621 -501.507,100.394"
         style="fill:none;stroke:#5e6061;stroke-width:5.9726;stroke-linecap:butt;stroke-linejoin:miter;stroke-miterlimit:4;stroke-dasharray:none;stroke-opacity:1"
         id="path52" /><g
         id="g54"
         transform="scale(10)"><text
           transform="matrix(1,0,0,-1,49.8426,53.5426)"
           style="font-variant:normal;font-weight:normal;font-size:6.99976px;font-family:Arial;-inkscape-font-specification:ArialMT;writing-mode:lr-tb;fill:#2f2d2e;fill-opacity:1;fill-rule:nonzero;stroke:none"
           id="text58"><tspan
             x="0 1.5539467 5.4458132 9.3376799 11.283613 13.229547 17.121412 19.067347 21.013279 24.905146 28.797012 30.742947 34.634811 38.52668 40.47261 44.364479 48.256344 50.202278 54.094147 57.986012 59.931946 63.823811 67.715675"
             y="0"
             sodipodi:role="line"
             id="tspan56">job: 3, 21.02.20 21:30,</tspan></text><text
           transform="matrix(1,0,0,-1,39.0207,45.1426)"
           style="font-variant:normal;font-weight:normal;font-size:6.99976px;font-family:'Courier New';-inkscape-font-specification:Courier;writing-mode:lr-tb;fill:#2f2d2e;fill-opacity:1;fill-rule:nonzero;stroke:none"
           id="text62"><tspan
             x="0 4.1998558 8.3997116 12.599568 16.799423 20.999281 25.199137 29.398993 33.598846 37.798702 41.998562 46.198418 50.398273 54.598129 58.797985 62.997841"
             y="0"
             sodipodi:role="line"
             id="tspan60">execution_status</tspan></text><text
           transform="matrix(1,0,0,-1,106.2168,45.1426)"
           style="font-variant:normal;font-weight:normal;font-size:6.99976px;font-family:Arial;-inkscape-font-specification:ArialMT;writing-mode:lr-tb;fill:#2f2d2e;fill-opacity:1;fill-rule:nonzero;stroke:none"
           id="text66"><tspan
             x="0 1.9459332 3.8918664 8.945693 14.391506 19.445333"
             y="0"
             sodipodi:role="line"
             id="tspan64">: NONE</tspan></text></g><path
         d="M 476.938,1354.52 801.176,1119.01"
         style="fill:none;stroke:#100f0d;stroke-width:5.0003;stroke-linecap:butt;stroke-linejoin:miter;stroke-miterlimit:10;stroke-dasharray:none;stroke-opacity:1"
         id="path68" /><path
         d="m 784.621,1113.08 52.391,-20.12 -35.317,43.63 z"
         style="fill:#100f0d;fill-opacity:1;fill-rule:nonzero;stroke:none"
         id="path70" /><path
         d="m 230.383,1534.2 113.551,-82.45"
         style="fill:none;stroke:#100f0d;stroke-width:5.0003;stroke-linecap:butt;stroke-linejoin:miter;stroke-miterlimit:10;stroke-dasharray:none;stroke-opacity:1"
         id="path72" /><g
         id="g74"
         transform="scale(10)"><text
           transform="matrix(1,0,0,-1,6.47461,138.904)"
           style="font-variant:normal;font-weight:normal;font-size:6.99976px;font-family:Arial;-inkscape-font-specification:ArialMT;writing-mode:lr-tb;fill:#100f0d;fill-opacity:1;fill-rule:nonzero;stroke:none"
           id="text78"><tspan
             x="0 4.0156245 6.3465443 7.9004912 11.792357 15.292238 17.238171 19.184105 23.075972 25.021904 28.913771 32.805637 34.751572 36.697502 38.25145 42.143318 46.035183 47.981117"
             y="0"
             sodipodi:role="line"
             id="tspan76">Tries to get job 3</tspan></text></g><path
         d="M 1230.6,1365.41 895.316,1121.6"
         style="fill:none;stroke:#100f0d;stroke-width:5.0003;stroke-linecap:butt;stroke-linejoin:miter;stroke-miterlimit:10;stroke-dasharray:none;stroke-opacity:1"
         id="path80" /><path
         d="m 894.781,1139.17 -35.304,-43.62 52.386,20.13 z"
         style="fill:#100f0d;fill-opacity:1;fill-rule:nonzero;stroke:none"
         id="path82" /><path
         d="m 1462.38,1534.2 -91,-66.11"
         style="fill:none;stroke:#100f0d;stroke-width:5.0003;stroke-linecap:butt;stroke-linejoin:miter;stroke-miterlimit:10;stroke-dasharray:none;stroke-opacity:1"
         id="path84" /><g
         id="g86"
         transform="scale(10)"><text
           transform="matrix(1,0,0,-1,58.7379,131.945)"
           style="font-variant:normal;font-weight:normal;font-size:6.99976px;font-family:Arial;-inkscape-font-specification:ArialMT;writing-mode:lr-tb;fill:#100f0d;fill-opacity:1;fill-rule:nonzero;stroke:none"
           id="text92"><tspan
             x="0 4.0156231 6.3465433 7.9004898 11.792356 15.292236 17.238169 19.184103 23.07597 25.021902 28.913769 32.805637 34.751568 36.697502 38.25145 42.143314 46.035183 47.981117"
             y="0"
             sodipodi:role="line"
             id="tspan88">Tries to get job 3</tspan><tspan
             x="52.185902 56.201523 58.532444 60.086391 63.978256 67.478134 69.424072 71.370003 75.261871 77.207802 81.09967 84.991539 86.937469 88.8834 90.437347 94.329216 98.221085 100.16702"
             y="-8.0792999"
             sodipodi:role="line"
             id="tspan90">Tries to get job 3</tspan></text></g></g></g></svg>
