<?xml version="1.0" encoding="UTF-8" standalone="no"?>
<!-- Created with Inkscape (http://www.inkscape.org/) -->

<svg
   version="1.1"
   id="svg2"
   xml:space="preserve"
   width="374.66666"
   height="45.333332"
   viewBox="0 0 374.66666 45.333332"
   sodipodi:docname="9-6.eps"
   xmlns:inkscape="http://www.inkscape.org/namespaces/inkscape"
   xmlns:sodipodi="http://sodipodi.sourceforge.net/DTD/sodipodi-0.dtd"
   xmlns="http://www.w3.org/2000/svg"
   xmlns:svg="http://www.w3.org/2000/svg"><defs
     id="defs6" /><sodipodi:namedview
     id="namedview4"
     pagecolor="#ffffff"
     bordercolor="#666666"
     borderopacity="1.0"
     inkscape:pageshadow="2"
     inkscape:pageopacity="0.0"
     inkscape:pagecheckerboard="0" /><g
     id="g8"
     inkscape:groupmode="layer"
     inkscape:label="ink_ext_XXXXXX"
     transform="matrix(1.3333333,0,0,-1.3333333,0,45.333333)"><g
       id="g10"
       transform="scale(0.1)"><path
         d="m 655.43,169.453 h 381.85"
         style="fill:none;stroke:#100f0d;stroke-width:5.0003;stroke-linecap:butt;stroke-linejoin:miter;stroke-miterlimit:10;stroke-dasharray:none;stroke-opacity:1"
         id="path12" /><path
         d="m 1027.37,154.926 54.2,14.527 -54.2,14.52 z"
         style="fill:#100f0d;fill-opacity:1;fill-rule:nonzero;stroke:none"
         id="path14" /><g
         id="g16"
         transform="scale(10)"><text
           transform="matrix(1,0,0,-1,78.9965,19.9449)"
           style="font-variant:normal;font-weight:normal;font-size:7.00004px;font-family:Arial;-inkscape-font-specification:ArialMT;writing-mode:lr-tb;fill:#100f0d;fill-opacity:1;fill-rule:nonzero;stroke:none"
           id="text20"><tspan
             x="0 5.054029 8.5540485 12.446071"
             y="0"
             sodipodi:role="line"
             id="tspan18">Uses</tspan></text></g><path
         d="M 58.8711,330.453 H 606.426 c 26.445,0 48.222,-21.777 48.222,-48.226 V 56.668 c 0,-26.4414 -21.777,-48.22269 -48.222,-48.22269 H 58.8711 c -26.4453,0 -48.2227,21.78129 -48.2227,48.22269 v 225.559 c 0,26.449 21.7774,48.226 48.2227,48.226"
         style="fill:#f4f6f7;fill-opacity:1;fill-rule:nonzero;stroke:none"
         id="path22" /><path
         d="M 58.8711,330.453 H 606.426 c 26.445,0 48.222,-21.777 48.222,-48.226 V 56.668 c 0,-26.4414 -21.777,-48.22269 -48.222,-48.22269 H 58.8711 c -26.4453,0 -48.2227,21.78129 -48.2227,48.22269 v 225.559 c 0,26.449 21.7774,48.226 48.2227,48.226 z"
         style="fill:none;stroke:#7b7979;stroke-width:5.0003;stroke-linecap:butt;stroke-linejoin:miter;stroke-miterlimit:4;stroke-dasharray:none;stroke-opacity:1"
         id="path24" /><path
         d="m 1728.77,169.453 h 381.31"
         style="fill:none;stroke:#100f0d;stroke-width:5.0003;stroke-linecap:butt;stroke-linejoin:miter;stroke-miterlimit:10;stroke-dasharray:none;stroke-opacity:1"
         id="path26" /><path
         d="m 2100.17,154.926 54.2,14.527 -54.2,14.52 z"
         style="fill:#100f0d;fill-opacity:1;fill-rule:nonzero;stroke:none"
         id="path28" /><g
         id="g30"
         transform="scale(10)"><text
           transform="matrix(1,0,0,-1,186.37,19.9449)"
           style="font-variant:normal;font-weight:normal;font-size:7.00004px;font-family:Arial;-inkscape-font-specification:ArialMT;writing-mode:lr-tb;fill:#100f0d;fill-opacity:1;fill-rule:nonzero;stroke:none"
           id="text34"><tspan
             x="0 5.054029 8.5540485 12.446071"
             y="0"
             sodipodi:role="line"
             id="tspan32">Uses</tspan></text></g><path
         d="m 1132.99,330.453 h 547.55 c 26.45,0 48.23,-21.777 48.23,-48.226 V 56.668 c 0,-26.4414 -21.78,-48.22269 -48.23,-48.22269 h -547.55 c -26.45,0 -48.23,21.78129 -48.23,48.22269 v 225.559 c 0,26.449 21.78,48.226 48.23,48.226"
         style="fill:#c9e4f3;fill-opacity:1;fill-rule:nonzero;stroke:none"
         id="path36" /><path
         d="m 1132.99,330.453 h 547.55 c 26.45,0 48.23,-21.777 48.23,-48.226 V 56.668 c 0,-26.4414 -21.78,-48.22269 -48.23,-48.22269 h -547.55 c -26.45,0 -48.23,21.78129 -48.23,48.22269 v 225.559 c 0,26.449 21.78,48.226 48.23,48.226 z"
         style="fill:none;stroke:#293985;stroke-width:5.0003;stroke-linecap:butt;stroke-linejoin:miter;stroke-miterlimit:4;stroke-dasharray:none;stroke-opacity:1"
         id="path38" /><path
         d="m 2206.33,330.453 h 547.55 c 26.44,0 48.23,-21.777 48.23,-48.226 V 56.668 c 0,-26.4414 -21.78,-48.22269 -48.23,-48.22269 h -547.55 c -26.45,0 -48.23,21.78129 -48.23,48.22269 v 225.559 c 0,26.449 21.78,48.226 48.23,48.226"
         style="fill:#fcfccf;fill-opacity:1;fill-rule:nonzero;stroke:none"
         id="path40" /><path
         d="m 2206.33,330.453 h 547.55 c 26.44,0 48.23,-21.777 48.23,-48.226 V 56.668 c 0,-26.4414 -21.78,-48.22269 -48.23,-48.22269 h -547.55 c -26.45,0 -48.23,21.78129 -48.23,48.22269 v 225.559 c 0,26.449 21.78,48.226 48.23,48.226 z"
         style="fill:none;stroke:#c49d19;stroke-width:5.0003;stroke-linecap:butt;stroke-linejoin:miter;stroke-miterlimit:4;stroke-dasharray:none;stroke-opacity:1"
         id="path42" /><g
         id="g44"
         transform="scale(10)"><text
           transform="matrix(1,0,0,-1,9.72422,15.2852)"
           style="font-variant:normal;font-weight:normal;font-size:7.00004px;font-family:Arial;-inkscape-font-specification:ArialMT;writing-mode:lr-tb;fill:#2f2d2e;fill-opacity:1;fill-rule:nonzero;stroke:none"
           id="text48"><tspan
             x="0 5.4460311 9.3380537 11.669066 13.615078 17.507099 21.399122 25.291145 26.845154 28.399162 31.899181 35.791206 37.737217 39.291225 43.183247"
             y="0"
             sodipodi:role="line"
             id="tspan46">Our application</tspan></text></g><g
         id="g50"
         transform="scale(10)"><text
           transform="matrix(1,0,0,-1,111.705,15.2852)"
           style="font-variant:normal;font-weight:normal;font-size:7.00004px;font-family:Arial;-inkscape-font-specification:ArialMT;writing-mode:lr-tb;fill:#100f0d;fill-opacity:1;fill-rule:nonzero;stroke:none"
           id="text58"><tspan
             x="0 5.054029 9.3310537 13.608078 20.094917 23.594936 25.148945 26.702955 30.594976 34.487 36.43301 38.379021 39.933029 41.487038 45.379063 47.710075 51.602097 53.933109"
             y="0"
             sodipodi:role="line"
             id="tspan52">HTTPclient library</tspan><tspan
             x="109.403 112.90302 117.57204 123.01807 128.07211 130.01811 133.91014 136.24115 140.13318 143.63319 147.52522 151.02524 154.52525 156.07927 159.97128"
             y="-3.7335899"
             sodipodi:role="line"
             id="tspan54">JSON processing</tspan><tspan
             x="126.7764 128.33041 129.88441 133.77644 136.10745 139.99948 142.33049"
             y="4.6668"
             sodipodi:role="line"
             id="tspan56">library</tspan></text></g></g></g></svg>
