<?xml version="1.0" encoding="UTF-8" standalone="no"?>
<!-- Created with Inkscape (http://www.inkscape.org/) -->

<svg
   version="1.1"
   id="svg2"
   xml:space="preserve"
   width="374.66666"
   height="117.33333"
   viewBox="0 0 374.66666 117.33333"
   sodipodi:docname="9-7.eps"
   xmlns:inkscape="http://www.inkscape.org/namespaces/inkscape"
   xmlns:sodipodi="http://sodipodi.sourceforge.net/DTD/sodipodi-0.dtd"
   xmlns="http://www.w3.org/2000/svg"
   xmlns:svg="http://www.w3.org/2000/svg"><defs
     id="defs6" /><sodipodi:namedview
     id="namedview4"
     pagecolor="#ffffff"
     bordercolor="#666666"
     borderopacity="1.0"
     inkscape:pageshadow="2"
     inkscape:pageopacity="0.0"
     inkscape:pagecheckerboard="0" /><g
     id="g8"
     inkscape:groupmode="layer"
     inkscape:label="ink_ext_XXXXXX"
     transform="matrix(1.3333333,0,0,-1.3333333,0,117.33333)"><g
       id="g10"
       transform="scale(0.1)"><path
         d="M 652.332,708.566 H 1036.75"
         style="fill:none;stroke:#100f0d;stroke-width:5.0003;stroke-linecap:butt;stroke-linejoin:miter;stroke-miterlimit:10;stroke-dasharray:none;stroke-opacity:1"
         id="path12" /><path
         d="m 1026.84,694.039 54.21,14.527 -54.21,14.528 z"
         style="fill:#100f0d;fill-opacity:1;fill-rule:nonzero;stroke:none"
         id="path14" /><g
         id="g16"
         transform="scale(10)"><text
           transform="matrix(1,0,0,-1,78.6953,73.2289)"
           style="font-variant:normal;font-weight:normal;font-size:7.00004px;font-family:Arial;-inkscape-font-specification:ArialMT;writing-mode:lr-tb;fill:#100f0d;fill-opacity:1;fill-rule:nonzero;stroke:none"
           id="text20"><tspan
             x="0 5.054029 8.5540485 12.446071"
             y="0"
             sodipodi:role="line"
             id="tspan18">Uses</tspan></text></g><path
         d="M 329.555,546.789 V 169.566 h 294.777 l 145.445,0.778 h 266.973"
         style="fill:none;stroke:#100f0d;stroke-width:5.0003;stroke-linecap:butt;stroke-linejoin:miter;stroke-miterlimit:10;stroke-dasharray:none;stroke-opacity:1"
         id="path22" /><path
         d="m 1026.84,155.813 54.21,14.531 -54.21,14.527 z"
         style="fill:#100f0d;fill-opacity:1;fill-rule:nonzero;stroke:none"
         id="path24" /><g
         id="g26"
         transform="scale(10)"><text
           transform="matrix(1,0,0,-1,62.5563,19.3863)"
           style="font-variant:normal;font-weight:normal;font-size:7.00004px;font-family:Arial;-inkscape-font-specification:ArialMT;writing-mode:lr-tb;fill:#100f0d;fill-opacity:1;fill-rule:nonzero;stroke:none"
           id="text30"><tspan
             x="0 5.054029 8.5540485 12.446071"
             y="0"
             sodipodi:role="line"
             id="tspan28">Uses</tspan></text></g><path
         d="M 54.9961,870.34 H 604.109 c 26.446,0 48.223,-21.774 48.223,-48.215 V 595.789 c 0,-26.449 -21.777,-48.223 -48.223,-48.223 H 54.9961 c -26.4453,0 -48.22266,21.774 -48.22266,48.223 V 821.34 c -0.77735,27.226 20.99996,49 48.22266,49"
         style="fill:#f4f6f7;fill-opacity:1;fill-rule:nonzero;stroke:none"
         id="path32" /><path
         d="M 54.9961,870.34 H 604.109 c 26.446,0 48.223,-21.774 48.223,-48.215 V 595.789 c 0,-26.449 -21.777,-48.223 -48.223,-48.223 H 54.9961 c -26.4453,0 -48.22266,21.774 -48.22266,48.223 V 821.34 c -0.77735,27.226 20.99996,49 48.22266,49 z"
         style="fill:none;stroke:#7b7979;stroke-width:5.0003;stroke-linecap:butt;stroke-linejoin:miter;stroke-miterlimit:4;stroke-dasharray:none;stroke-opacity:1"
         id="path34" /><g
         id="g36"
         transform="scale(10)"><text
           transform="matrix(1,0,0,-1,9.41328,69.2359)"
           style="font-variant:normal;font-weight:normal;font-size:7.00004px;font-family:Arial;-inkscape-font-specification:ArialMT;writing-mode:lr-tb;fill:#2f2d2e;fill-opacity:1;fill-rule:nonzero;stroke:none"
           id="text40"><tspan
             x="0 5.4460311 9.3380537 11.669066 13.615078 17.507099 21.399122 25.291145 26.845154 28.399162 31.899181 35.791206 37.737217 39.291225 43.183247"
             y="0"
             sodipodi:role="line"
             id="tspan38">Our application</tspan></text></g><path
         d="m 1729.55,708.566 h 383.81"
         style="fill:none;stroke:#100f0d;stroke-width:5.0003;stroke-linecap:butt;stroke-linejoin:miter;stroke-miterlimit:10;stroke-dasharray:none;stroke-opacity:1"
         id="path42" /><path
         d="m 2103.45,694.039 54.21,14.527 -54.21,14.528 z"
         style="fill:#100f0d;fill-opacity:1;fill-rule:nonzero;stroke:none"
         id="path44" /><g
         id="g46"
         transform="scale(10)"><text
           transform="matrix(1,0,0,-1,186.386,73.2289)"
           style="font-variant:normal;font-weight:normal;font-size:7.00004px;font-family:Arial;-inkscape-font-specification:ArialMT;writing-mode:lr-tb;fill:#100f0d;fill-opacity:1;fill-rule:nonzero;stroke:none"
           id="text50"><tspan
             x="0 5.054029 8.5540485 12.446071"
             y="0"
             sodipodi:role="line"
             id="tspan48">Uses</tspan></text></g><path
         d="m 1131.45,870.34 h 549.1 c 26.45,0 48.24,-21.774 48.24,-48.215 V 595.789 c 0,-26.449 -21.79,-48.223 -48.24,-48.223 h -549.1 c -26.45,0 -48.22,21.774 -48.22,48.223 V 821.34 c 0,27.226 21.77,49 48.22,49"
         style="fill:#c9e4f3;fill-opacity:1;fill-rule:nonzero;stroke:none"
         id="path52" /><path
         d="m 1131.45,870.34 h 549.1 c 26.45,0 48.24,-21.774 48.24,-48.215 V 595.789 c 0,-26.449 -21.79,-48.223 -48.24,-48.223 h -549.1 c -26.45,0 -48.22,21.774 -48.22,48.223 V 821.34 c 0,27.226 21.77,49 48.22,49 z"
         style="fill:none;stroke:#293985;stroke-width:5.0003;stroke-linecap:butt;stroke-linejoin:miter;stroke-miterlimit:4;stroke-dasharray:none;stroke-opacity:1"
         id="path54" /><g
         id="g56"
         transform="scale(10)"><text
           transform="matrix(1,0,0,-1,111.629,69.2363)"
           style="font-variant:normal;font-weight:normal;font-size:7.00004px;font-family:Arial;-inkscape-font-specification:ArialMT;writing-mode:lr-tb;fill:#100f0d;fill-opacity:1;fill-rule:nonzero;stroke:none"
           id="text60"><tspan
             x="0 5.054029 9.3310537 13.608078 20.094917 23.594936 25.148945 26.702955 30.594976 34.487 36.43301 38.379021 39.933029 41.487038 45.379063 47.710075 51.602097 53.933109"
             y="0"
             sodipodi:role="line"
             id="tspan58">HTTPclient library</tspan></text></g><path
         d="m 2208.67,870.34 h 549.12 c 26.44,0 48.21,-21.774 48.21,-48.215 V 595.789 c 0,-26.449 -21.77,-48.223 -48.21,-48.223 h -549.12 c -26.45,0 -48.22,21.774 -48.22,48.223 V 821.34 c 0,27.226 21.77,49 48.22,49"
         style="fill:#fcfccf;fill-opacity:1;fill-rule:nonzero;stroke:none"
         id="path62" /><path
         d="m 2208.67,870.34 h 549.12 c 26.44,0 48.21,-21.774 48.21,-48.215 V 595.789 c 0,-26.449 -21.77,-48.223 -48.21,-48.223 h -549.12 c -26.45,0 -48.22,21.774 -48.22,48.223 V 821.34 c 0,27.226 21.77,49 48.22,49 z"
         style="fill:none;stroke:#c49d19;stroke-width:5.0003;stroke-linecap:butt;stroke-linejoin:miter;stroke-miterlimit:4;stroke-dasharray:none;stroke-opacity:1"
         id="path64" /><path
         d="m 1131.45,331.34 h 549.1 c 26.45,0 48.24,-21.774 48.24,-48.223 V 56.7852 c 0,-26.4454 -21.79,-48.22661 -48.24,-48.22661 h -549.1 c -26.45,0 -48.22,21.78121 -48.22,48.22661 V 283.117 c 0,26.449 21.77,48.223 48.22,48.223"
         style="fill:#fcfccf;fill-opacity:1;fill-rule:nonzero;stroke:none"
         id="path66" /><path
         d="m 1131.45,331.34 h 549.1 c 26.45,0 48.24,-21.774 48.24,-48.223 V 56.7852 c 0,-26.4454 -21.79,-48.22661 -48.24,-48.22661 h -549.1 c -26.45,0 -48.22,21.78121 -48.22,48.22661 V 283.117 c 0,26.449 21.77,48.223 48.22,48.223 z"
         style="fill:none;stroke:#c49d19;stroke-width:5.0003;stroke-linecap:butt;stroke-linejoin:miter;stroke-miterlimit:4;stroke-dasharray:none;stroke-opacity:1"
         id="path68" /><g
         id="g70"
         transform="scale(10)"><text
           transform="matrix(1,0,0,-1,221.228,72.9695)"
           style="font-variant:normal;font-weight:normal;font-size:7.00004px;font-family:Arial;-inkscape-font-specification:ArialMT;writing-mode:lr-tb;fill:#100f0d;fill-opacity:1;fill-rule:nonzero;stroke:none"
           id="text80"><tspan
             x="0 3.50002 8.1690464 13.615078 18.669107 20.615118 24.507139 26.838154 30.730175 34.230194 38.122219 41.622238 45.122257 46.676266 50.568291"
             y="0"
             sodipodi:role="line"
             id="tspan72">JSON processing</tspan><tspan
             x="17.565599 19.11961 20.673618 24.565639 26.896654 30.788675 33.11969"
             y="8.3999996"
             sodipodi:role="line"
             id="tspan74">library</tspan><tspan
             x="-107.7224 -104.22238 -99.553352 -94.107323 -89.053291 -87.107285 -83.215263 -80.884247 -76.992226 -73.492203 -69.600182 -66.100159 -62.600143 -61.046135 -57.15411"
             y="53.900398"
             sodipodi:role="line"
             id="tspan76">JSON processing</tspan><tspan
             x="-90.157898 -88.603889 -87.049881 -83.15786 -80.826843 -76.934822 -74.603813"
             y="62.300789"
             sodipodi:role="line"
             id="tspan78">library</tspan></text></g></g></g></svg>
