<?xml version="1.0" encoding="UTF-8" standalone="no"?>
<!-- Created with Inkscape (http://www.inkscape.org/) -->

<svg
   version="1.1"
   id="svg2"
   xml:space="preserve"
   width="169.33333"
   height="182.66667"
   viewBox="0 0 169.33333 182.66667"
   sodipodi:docname="9-8.eps"
   xmlns:inkscape="http://www.inkscape.org/namespaces/inkscape"
   xmlns:sodipodi="http://sodipodi.sourceforge.net/DTD/sodipodi-0.dtd"
   xmlns="http://www.w3.org/2000/svg"
   xmlns:svg="http://www.w3.org/2000/svg"><defs
     id="defs6" /><sodipodi:namedview
     id="namedview4"
     pagecolor="#ffffff"
     bordercolor="#666666"
     borderopacity="1.0"
     inkscape:pageshadow="2"
     inkscape:pageopacity="0.0"
     inkscape:pagecheckerboard="0" /><g
     id="g8"
     inkscape:groupmode="layer"
     inkscape:label="ink_ext_XXXXXX"
     transform="matrix(1.3333333,0,0,-1.3333333,0,182.66667)"><g
       id="g10"
       transform="scale(0.1)"><path
         d="M 185.75,1208.77 H 1087 c 98.88,0 179.38,-80.5 179.38,-179.37 V 191.152 C 1266.38,92.2734 1185.88,11.7813 1087,11.7813 H 185.75 C 86.875,11.7813 6.375,92.2734 6.375,191.152 V 1029.4 c 0,98.87 80.5,179.37 179.375,179.37"
         style="fill:#ffffff;fill-opacity:1;fill-rule:nonzero;stroke:none"
         id="path12" /><path
         d="M 185.75,1208.77 H 1087 c 98.88,0 179.38,-80.5 179.38,-179.37 V 191.152 C 1266.38,92.2734 1185.88,11.7813 1087,11.7813 H 185.75 C 86.875,11.7813 6.375,92.2734 6.375,191.152 V 1029.4 c 0,98.87 80.5,179.37 179.375,179.37 z"
         style="fill:none;stroke:#100f0d;stroke-width:4.9691;stroke-linecap:butt;stroke-linejoin:miter;stroke-miterlimit:4;stroke-dasharray:none;stroke-opacity:1"
         id="path14" /><path
         d="M 135.875,578.773 H 507.75 c 36.75,0 66.5,-29.746 66.5,-66.496 V 203.402 c 0,-36.75 -29.75,-66.507 -66.5,-66.507 H 135.875 c -36.7461,0 -66.5,29.757 -66.5,66.507 v 308.875 c 0,36.75 29.7539,66.496 66.5,66.496"
         style="fill:#fcfccf;fill-opacity:1;fill-rule:nonzero;stroke:none"
         id="path16" /><path
         d="M 135.875,578.773 H 507.75 c 36.75,0 66.5,-29.746 66.5,-66.496 V 203.402 c 0,-36.75 -29.75,-66.507 -66.5,-66.507 H 135.875 c -36.7461,0 -66.5,29.757 -66.5,66.507 v 308.875 c 0,36.75 29.7539,66.496 66.5,66.496 z"
         style="fill:none;stroke:#c49d19;stroke-width:4.9691;stroke-linecap:butt;stroke-linejoin:miter;stroke-miterlimit:4;stroke-dasharray:none;stroke-opacity:1"
         id="path18" /><g
         id="g20"
         transform="scale(10)"><text
           transform="matrix(1,0,0,-1,12.3535,37.8254)"
           style="font-variant:normal;font-weight:normal;font-size:6.99976px;font-family:Arial;-inkscape-font-specification:ArialMT;writing-mode:lr-tb;fill:#100f0d;fill-opacity:1;fill-rule:nonzero;stroke:none"
           id="text26"><tspan
             x="0 5.0538268 9.3306799 13.607533 20.09375 21.647696 23.201643 27.09351 29.424429 33.316296 35.647217"
             y="0"
             sodipodi:role="line"
             id="tspan22">HTTPlibrary</tspan><tspan
             x="10.1004 13.992267 17.884132 19.830067 25.660866"
             y="8.3999996"
             sodipodi:role="line"
             id="tspan24">10 mb</tspan></text></g><path
         d="m 765.879,578.773 h 371.871 c 36.75,0 66.5,-29.746 66.5,-66.496 V 203.402 c 0,-36.75 -29.75,-66.507 -66.5,-66.507 H 765.879 c -36.758,0 -66.504,29.757 -66.504,66.507 v 308.875 c 0,36.75 29.746,66.496 66.504,66.496"
         style="fill:#fcfccf;fill-opacity:1;fill-rule:nonzero;stroke:none"
         id="path28" /><path
         d="m 765.879,578.773 h 371.871 c 36.75,0 66.5,-29.746 66.5,-66.496 V 203.402 c 0,-36.75 -29.75,-66.507 -66.5,-66.507 H 765.879 c -36.758,0 -66.504,29.757 -66.504,66.507 v 308.875 c 0,36.75 29.746,66.496 66.504,66.496 z"
         style="fill:none;stroke:#c49d19;stroke-width:4.9691;stroke-linecap:butt;stroke-linejoin:miter;stroke-miterlimit:4;stroke-dasharray:none;stroke-opacity:1"
         id="path30" /><g
         id="g32"
         transform="scale(10)"><text
           transform="matrix(1,0,0,-1,74.5625,37.8266)"
           style="font-variant:normal;font-weight:normal;font-size:6.99976px;font-family:Arial;-inkscape-font-specification:ArialMT;writing-mode:lr-tb;fill:#100f0d;fill-opacity:1;fill-rule:nonzero;stroke:none"
           id="text38"><tspan
             x="0 5.0538268 8.945693 12.445573 16.33744 20.229307 22.17524 23.729187 25.283133 29.174999 31.50592 35.397785 37.728706"
             y="0"
             sodipodi:role="line"
             id="tspan34">Cache library</tspan><tspan
             x="10.8914 14.783267 18.675133 20.621067 26.451866"
             y="8.4003897"
             sodipodi:role="line"
             id="tspan36">20 mb</tspan></text></g><path
         d="m 167.371,1145.77 h 308.883 c 36.742,0 66.496,-29.75 66.496,-66.5 V 770.402 c 0,-36.754 -29.754,-66.504 -66.496,-66.504 H 167.371 c -36.746,0 -66.496,29.75 -66.496,66.504 v 308.868 c 0,36.75 29.75,66.5 66.496,66.5"
         style="fill:#ac7ac4;fill-opacity:1;fill-rule:nonzero;stroke:none"
         id="path40" /><path
         d="m 167.371,1145.77 h 308.883 c 36.742,0 66.496,-29.75 66.496,-66.5 V 770.402 c 0,-36.754 -29.754,-66.504 -66.496,-66.504 H 167.371 c -36.746,0 -66.496,29.75 -66.496,66.504 v 308.868 c 0,36.75 29.75,66.5 66.496,66.5 z"
         style="fill:none;stroke:#100f0d;stroke-width:4.9691;stroke-linecap:butt;stroke-linejoin:miter;stroke-miterlimit:4;stroke-dasharray:none;stroke-opacity:1"
         id="path42" /><g
         id="g44"
         transform="scale(10)"><text
           transform="matrix(1,0,0,-1,24.7879,101.875)"
           style="font-variant:normal;font-weight:normal;font-size:6.99976px;font-family:Arial;-inkscape-font-specification:ArialMT;writing-mode:lr-tb;fill:#100f0d;fill-opacity:1;fill-rule:nonzero;stroke:none"
           id="text54"><tspan
             x="0 3.4998801 7.3917465 10.891626"
             y="0"
             sodipodi:role="line"
             id="tspan46">Java</tspan><tspan
             x="-4.2773399 -1.94642 1.9454466 5.8373132 7.7832465 9.3371935 15.167994"
             y="8.3999996"
             sodipodi:role="line"
             id="tspan48">runtime</tspan><tspan
             x="-11.86718 -7.9753137 -4.083447 -0.5835669 0.97037983 3.3012998 7.1931663 11.085033 16.915833 20.807699 24.699566"
             y="16.799999"
             sodipodi:role="line"
             id="tspan50">environment</tspan><tspan
             x="-1.36208 2.5297866 6.4216533 12.252453"
             y="25.20039"
             sodipodi:role="line"
             id="tspan52">70mb</tspan></text></g><path
         d="m 765.879,1145.77 h 371.871 c 36.75,0 66.5,-29.75 66.5,-66.5 V 770.402 c 0,-36.754 -29.75,-66.504 -66.5,-66.504 H 765.879 c -36.758,0 -66.504,29.75 -66.504,66.504 v 308.868 c 0,36.75 29.746,66.5 66.504,66.5"
         style="fill:#e0f2c3;fill-opacity:1;fill-rule:nonzero;stroke:none"
         id="path56" /><path
         d="m 765.879,1145.77 h 371.871 c 36.75,0 66.5,-29.75 66.5,-66.5 V 770.402 c 0,-36.754 -29.75,-66.504 -66.5,-66.504 H 765.879 c -36.758,0 -66.504,29.75 -66.504,66.504 v 308.868 c 0,36.75 29.746,66.5 66.504,66.5 z"
         style="fill:none;stroke:#298a3c;stroke-width:4.9691;stroke-linecap:butt;stroke-linejoin:miter;stroke-miterlimit:4;stroke-dasharray:none;stroke-opacity:1"
         id="path58" /><g
         id="g60"
         transform="scale(10)"><text
           transform="matrix(1,0,0,-1,89.3477,98.2)"
           style="font-variant:normal;font-weight:normal;font-size:6.99976px;font-family:Arial;-inkscape-font-specification:ArialMT;writing-mode:lr-tb;fill:#100f0d;fill-opacity:1;fill-rule:nonzero;stroke:none"
           id="text72"><tspan
             x="0 5.4458132 9.3376799"
             y="0"
             sodipodi:role="line"
             id="tspan62">Our</tspan><tspan
             x="-10.9004 -7.0085335 -3.1166668 0.77519965 2.3291464 3.8830931 7.3829732 11.274839 13.220773 14.774719 18.666586"
             y="8.3999996"
             sodipodi:role="line"
             id="tspan64">application</tspan><tspan
             x="-2.9210999 0.97076654 4.8626332 10.693433"
             y="16.79961"
             sodipodi:role="line"
             id="tspan66">20mb</tspan><tspan
             x="-64.274597 -58.828785 -54.93692 -52.605999 -50.275082 -46.383213 -42.491348 -38.59948 -37.045532 -35.491589 -31.991707 -28.09984 -26.153908 -24.59996 -20.708094 -16.816227 -14.485307 -12.539373 -8.6475077 -6.7015738 -4.3706541 -2.8167071 1.0751593 3.0304687 4.9764023 6.5303488 10.422215"
             y="-33.415989"
             sodipodi:role="line"
             id="tspan68">Our-application-fat-jar.jar</tspan><tspan
             x="-37.4328 -33.540932 -29.649067 -25.7572 -23.811268 -17.980467"
             y="-25.015989"
             sodipodi:role="line"
             id="tspan70">120 mb</tspan></text></g></g></g></svg>
