<?xml version="1.0" encoding="UTF-8" standalone="no"?>
<!-- Created with Inkscape (http://www.inkscape.org/) -->

<svg
   version="1.1"
   id="svg2"
   xml:space="preserve"
   width="376"
   height="345.33334"
   viewBox="0 0 376 345.33334"
   sodipodi:docname="10-14.eps"
   xmlns:inkscape="http://www.inkscape.org/namespaces/inkscape"
   xmlns:sodipodi="http://sodipodi.sourceforge.net/DTD/sodipodi-0.dtd"
   xmlns="http://www.w3.org/2000/svg"
   xmlns:svg="http://www.w3.org/2000/svg"><defs
     id="defs6" /><sodipodi:namedview
     id="namedview4"
     pagecolor="#ffffff"
     bordercolor="#666666"
     borderopacity="1.0"
     inkscape:pageshadow="2"
     inkscape:pageopacity="0.0"
     inkscape:pagecheckerboard="0" /><g
     id="g8"
     inkscape:groupmode="layer"
     inkscape:label="ink_ext_XXXXXX"
     transform="matrix(1.3333333,0,0,-1.3333333,0,345.33333)"><g
       id="g10"
       transform="scale(0.1)"><path
         d="m 637.359,1791.77 h 789.591 c 38.26,0 69.39,-31.12 69.39,-69.41 V 1396.9 c 0,-38.29 -31.13,-69.41 -69.39,-69.41 H 637.359 c -38.281,0 -69.382,31.12 -69.382,69.41 v 325.46 c -1.2,38.29 29.906,69.41 69.382,69.41"
         style="fill:#e0f2c3;fill-opacity:1;fill-rule:nonzero;stroke:none"
         id="path12" /><path
         d="m 637.359,1791.77 h 789.591 c 38.26,0 69.39,-31.12 69.39,-69.41 V 1396.9 c 0,-38.29 -31.13,-69.41 -69.39,-69.41 H 637.359 c -38.281,0 -69.382,31.12 -69.382,69.41 v 325.46 c -1.2,38.29 29.906,69.41 69.382,69.41 z"
         style="fill:none;stroke:#298a3c;stroke-width:4.9691;stroke-linecap:butt;stroke-linejoin:miter;stroke-miterlimit:4;stroke-dasharray:none;stroke-opacity:1"
         id="path14" /><g
         id="g16"
         transform="scale(10)"><text
           transform="matrix(0.999824,0,0,-1,60.0227,153.77)"
           style="font-variant:normal;font-weight:normal;font-size:7.99981px;font-family:'Courier New';-inkscape-font-specification:Courier;writing-mode:lr-tb;fill:#100f0d;fill-opacity:1;fill-rule:nonzero;stroke:none"
           id="text20"><tspan
             x="0 4.7998862 9.5997725 14.399658 19.199545 23.99943 28.799316 33.599201 38.39909 43.198975 47.998859 52.798744 57.598633 62.398518 67.198402 71.998291 76.79818 81.598061"
             y="0"
             sodipodi:role="line"
             id="tspan18">find(request-id-1)</tspan></text></g><path
         d="m 637.359,1095.36 h 789.591 c 38.26,0 69.39,-31.11 69.39,-69.4 V 700.492 c 0,-38.293 -31.13,-69.402 -69.39,-69.402 H 637.359 c -38.281,0 -69.382,31.109 -69.382,69.402 v 325.468 c -1.2,38.29 29.906,69.4 69.382,69.4"
         style="fill:#e0f2c3;fill-opacity:1;fill-rule:nonzero;stroke:none"
         id="path22" /><path
         d="m 637.359,1095.36 h 789.591 c 38.26,0 69.39,-31.11 69.39,-69.4 V 700.492 c 0,-38.293 -31.13,-69.402 -69.39,-69.402 H 637.359 c -38.281,0 -69.382,31.109 -69.382,69.402 v 325.468 c -1.2,38.29 29.906,69.4 69.382,69.4 z"
         style="fill:none;stroke:#298a3c;stroke-width:4.9691;stroke-linecap:butt;stroke-linejoin:miter;stroke-miterlimit:4;stroke-dasharray:none;stroke-opacity:1"
         id="path24" /><g
         id="g26"
         transform="scale(10)"><text
           transform="matrix(0.999824,0,0,-1,60.0227,84.1039)"
           style="font-variant:normal;font-weight:normal;font-size:7.99981px;font-family:'Courier New';-inkscape-font-specification:Courier;writing-mode:lr-tb;fill:#100f0d;fill-opacity:1;fill-rule:nonzero;stroke:none"
           id="text30"><tspan
             x="0 4.7998862 9.5997725 14.399658 19.199545 23.99943 28.799316 33.599201 38.39909 43.198975 47.998859 52.798744 57.598633 62.398518 67.198402 71.998291 76.79818 81.598061"
             y="0"
             sodipodi:role="line"
             id="tspan28">save(request-id-1)</tspan></text><text
           transform="matrix(0.999823,0,0,-1,89.2074,253.61)"
           style="font-variant:normal;font-weight:normal;font-size:6.99976px;font-family:Arial;-inkscape-font-specification:ArialMT;writing-mode:lr-tb;fill:#100f0d;fill-opacity:1;fill-rule:nonzero;stroke:none"
           id="text34"><tspan
             x="0 4.2768536 8.1687202 10.49964 14.391506 18.283373 22.17524 24.121174"
             y="0"
             sodipodi:role="line"
             id="tspan32">Thread 1</tspan></text></g><path
         d="m 1953,2333.81 h 789.6 c 38.28,0 69.37,-31.11 69.37,-69.4 v -325.47 c 0,-38.29 -31.09,-69.4 -69.37,-69.4 H 1953 c -38.28,0 -69.38,31.11 -69.38,69.4 v 325.47 c 0,38.29 31.1,69.4 69.38,69.4"
         style="fill:#c9e4f3;fill-opacity:1;fill-rule:nonzero;stroke:none"
         id="path36" /><path
         d="m 1953,2333.81 h 789.6 c 38.28,0 69.37,-31.11 69.37,-69.4 v -325.47 c 0,-38.29 -31.09,-69.4 -69.37,-69.4 H 1953 c -38.28,0 -69.38,31.11 -69.38,69.4 v 325.47 c 0,38.29 31.1,69.4 69.38,69.4 z"
         style="fill:none;stroke:#293985;stroke-width:4.9691;stroke-linecap:butt;stroke-linejoin:miter;stroke-miterlimit:4;stroke-dasharray:none;stroke-opacity:1"
         id="path38" /><g
         id="g40"
         transform="scale(10)"><text
           transform="matrix(0.999824,0,0,-1,191.589,207.954)"
           style="font-variant:normal;font-weight:normal;font-size:7.99981px;font-family:'Courier New';-inkscape-font-specification:Courier;writing-mode:lr-tb;fill:#100f0d;fill-opacity:1;fill-rule:nonzero;stroke:none"
           id="text44"><tspan
             x="0 4.7998862 9.5997725 14.399658 19.199545 23.99943 28.799316 33.599201 38.39909 43.198975 47.998859 52.798744 57.598633 62.398518 67.198402 71.998291 76.79818 81.598061"
             y="0"
             sodipodi:role="line"
             id="tspan42">find(request-id-1)</tspan></text></g><path
         d="m 1953,476.734 h 789.6 c 38.28,0 69.37,-31.113 69.37,-69.402 V 81.8594 c 0,-38.2891 -31.09,-69.3946 -69.37,-69.3946 H 1953 c -38.28,0 -69.38,31.1055 -69.38,69.3946 V 406.129 c 0,39.492 31.1,70.605 69.38,70.605"
         style="fill:#c9e4f3;fill-opacity:1;fill-rule:nonzero;stroke:none"
         id="path46" /><path
         d="m 1953,476.734 h 789.6 c 38.28,0 69.37,-31.113 69.37,-69.402 V 81.8594 c 0,-38.2891 -31.09,-69.3946 -69.37,-69.3946 H 1953 c -38.28,0 -69.38,31.1055 -69.38,69.3946 V 406.129 c 0,39.492 31.1,70.605 69.38,70.605 z"
         style="fill:none;stroke:#293985;stroke-width:4.9691;stroke-linecap:butt;stroke-linejoin:miter;stroke-miterlimit:4;stroke-dasharray:none;stroke-opacity:1"
         id="path48" /><g
         id="g50"
         transform="scale(10)"><text
           transform="matrix(0.999824,0,0,-1,191.589,22.1789)"
           style="font-variant:normal;font-weight:normal;font-size:7.99981px;font-family:'Courier New';-inkscape-font-specification:Courier;writing-mode:lr-tb;fill:#100f0d;fill-opacity:1;fill-rule:nonzero;stroke:none"
           id="text54"><tspan
             x="0 4.7998862 9.5997725 14.399658 19.199545 23.99943 28.799316 33.599201 38.39909 43.198975 47.998859 52.798744 57.598633 62.398518 67.198402 71.998291 76.79818 81.598061"
             y="0"
             sodipodi:role="line"
             id="tspan52">save(request-id-1)</tspan></text><text
           transform="matrix(0.999823,0,0,-1,220.773,253.61)"
           style="font-variant:normal;font-weight:normal;font-size:6.99976px;font-family:Arial;-inkscape-font-specification:ArialMT;writing-mode:lr-tb;fill:#100f0d;fill-opacity:1;fill-rule:nonzero;stroke:none"
           id="text58"><tspan
             x="0 4.2768536 8.1687202 10.49964 14.391506 18.283373 22.17524 24.121174"
             y="0"
             sodipodi:role="line"
             id="tspan56">Thread 2</tspan></text></g><path
         d="M 73.1367,2515.69 V 158.18"
         style="fill:none;stroke:#100f0d;stroke-width:4.9691;stroke-linecap:butt;stroke-linejoin:miter;stroke-miterlimit:10;stroke-dasharray:none;stroke-opacity:1"
         id="path60" /><path
         d="m 58.707,168.031 14.4297,-53.859 14.4336,53.859 z"
         style="fill:#100f0d;fill-opacity:1;fill-rule:nonzero;stroke:none"
         id="path62" /><g
         id="g64"
         transform="scale(10)"><text
           transform="matrix(0.999823,0,0,-1,-0.0824219,253.61)"
           style="font-variant:normal;font-weight:normal;font-size:6.99976px;font-family:Arial;-inkscape-font-specification:ArialMT;writing-mode:lr-tb;fill:#100f0d;fill-opacity:1;fill-rule:nonzero;stroke:none"
           id="text68"><tspan
             x="0 4.0155525 5.569499 11.400299"
             y="0"
             sodipodi:role="line"
             id="tspan66">Time</tspan></text></g></g></g></svg>
