<?xml version="1.0" encoding="UTF-8" standalone="no"?>
<!-- Created with Inkscape (http://www.inkscape.org/) -->

<svg
   version="1.1"
   id="svg2"
   xml:space="preserve"
   width="321.33334"
   height="80"
   viewBox="0 0 321.33334 80"
   sodipodi:docname="10-10.eps"
   xmlns:inkscape="http://www.inkscape.org/namespaces/inkscape"
   xmlns:sodipodi="http://sodipodi.sourceforge.net/DTD/sodipodi-0.dtd"
   xmlns="http://www.w3.org/2000/svg"
   xmlns:svg="http://www.w3.org/2000/svg"><defs
     id="defs6" /><sodipodi:namedview
     id="namedview4"
     pagecolor="#ffffff"
     bordercolor="#666666"
     borderopacity="1.0"
     inkscape:pageshadow="2"
     inkscape:pageopacity="0.0"
     inkscape:pagecheckerboard="0" /><g
     id="g8"
     inkscape:groupmode="layer"
     inkscape:label="ink_ext_XXXXXX"
     transform="matrix(1.3333333,0,0,-1.3333333,0,80)"><g
       id="g10"
       transform="scale(0.1)"><path
         d="M 602.379,299.453 H 1767.08"
         style="fill:none;stroke:#100f0d;stroke-width:5.0003;stroke-linecap:butt;stroke-linejoin:miter;stroke-miterlimit:10;stroke-dasharray:none;stroke-opacity:1"
         id="path12" /><path
         d="m 1757.18,284.926 54.2,14.527 -54.2,14.524 z"
         style="fill:#100f0d;fill-opacity:1;fill-rule:nonzero;stroke:none"
         id="path14" /><g
         id="g16"
         transform="scale(10)"><text
           transform="matrix(1,0,0,-1,104.751,33.1063)"
           style="font-variant:normal;font-weight:normal;font-size:6.99976px;font-family:Arial;-inkscape-font-specification:ArialMT;writing-mode:lr-tb;fill:#100f0d;fill-opacity:1;fill-rule:nonzero;stroke:none"
           id="text20"><tspan
             x="0 5.0538268 8.945693 10.49964 12.053587 15.553467 17.499399 21.391266 25.15937 29.436224"
             y="0"
             sodipodi:role="line"
             id="tspan18">Calls atT1</tspan></text></g><path
         d="m 305.379,595.453 c 163.476,0 296,-132.523 296,-296 0,-163.476 -132.524,-296.00378 -296,-296.00378 C 141.902,3.44922 9.37891,135.977 9.37891,299.453 c 0,163.477 132.52309,296 296.00009,296"
         style="fill:#c9e4f3;fill-opacity:1;fill-rule:nonzero;stroke:none"
         id="path22" /><path
         d="m 305.379,595.453 c 163.476,0 296,-132.523 296,-296 0,-163.476 -132.524,-296.00378 -296,-296.00378 C 141.902,3.44922 9.37891,135.977 9.37891,299.453 c 0,163.477 132.52309,296 296.00009,296 z"
         style="fill:none;stroke:#293985;stroke-width:5.0003;stroke-linecap:butt;stroke-linejoin:miter;stroke-miterlimit:4;stroke-dasharray:none;stroke-opacity:1"
         id="path24" /><g
         id="g26"
         transform="scale(10)"><text
           transform="matrix(1,0,0,-1,10.3672,28.623)"
           style="font-variant:normal;font-weight:normal;font-size:6.99976px;font-family:Arial;-inkscape-font-specification:ArialMT;writing-mode:lr-tb;fill:#100f0d;fill-opacity:1;fill-rule:nonzero;stroke:none"
           id="text30"><tspan
             x="0 4.6688399 8.5607061 12.452573 14.006519 15.560467 19.060347 22.952213 24.898146 26.452093 30.34396 35.802731"
             y="0"
             sodipodi:role="line"
             id="tspan28">ApplicationA</tspan></text></g><path
         d="m 2107.38,595.453 c 163.48,0 296,-132.523 296,-296 0,-163.476 -132.52,-296.00378 -296,-296.00378 -163.48,0 -296,132.52778 -296,296.00378 0,163.477 132.52,296 296,296"
         style="fill:#fafbfb;fill-opacity:1;fill-rule:nonzero;stroke:none"
         id="path32" /><path
         d="m 2107.38,595.453 c 163.48,0 296,-132.523 296,-296 0,-163.476 -132.52,-296.00378 -296,-296.00378 -163.48,0 -296,132.52778 -296,296.00378 0,163.477 132.52,296 296,296 z"
         style="fill:none;stroke:#5e6061;stroke-width:5.0003;stroke-linecap:butt;stroke-linejoin:miter;stroke-miterlimit:4;stroke-dasharray:none;stroke-opacity:1"
         id="path34" /><g
         id="g36"
         transform="scale(10)"><text
           transform="matrix(1,0,0,-1,192.235,27.6379)"
           style="font-variant:normal;font-weight:normal;font-size:6.99976px;font-family:Arial;-inkscape-font-specification:ArialMT;writing-mode:lr-tb;fill:#100f0d;fill-opacity:1;fill-rule:nonzero;stroke:none"
           id="text40"><tspan
             x="0 5.8308001 9.7226667 11.276613 12.83056 14.776493 18.276373 22.16824 24.499161 27.999041 29.552986 33.052868"
             y="0"
             sodipodi:role="line"
             id="tspan38">Mail service</tspan></text></g><path
         d="M 577.379,180.449 H 1792.03"
         style="fill:none;stroke:#100f0d;stroke-width:5.0003;stroke-linecap:butt;stroke-linejoin:miter;stroke-miterlimit:10;stroke-dasharray:none;stroke-opacity:1"
         id="path42" /><path
         d="m 1782.12,165.922 54.21,14.527 -54.21,14.528 z"
         style="fill:#100f0d;fill-opacity:1;fill-rule:nonzero;stroke:none"
         id="path44" /><g
         id="g46"
         transform="scale(10)"><text
           transform="matrix(1,0,0,-1,103.763,21.4355)"
           style="font-variant:normal;font-weight:normal;font-size:6.99976px;font-family:Arial;-inkscape-font-specification:ArialMT;writing-mode:lr-tb;fill:#100f0d;fill-opacity:1;fill-rule:nonzero;stroke:none"
           id="text50"><tspan
             x="0 5.0538268 8.945693 10.891626 13.222547 14.776493 18.66836 22.16824 24.114174 28.006041 31.773045 36.049896"
             y="0"
             sodipodi:role="line"
             id="tspan48">Retries atT2</tspan></text></g></g></g></svg>
