<?xml version="1.0" encoding="UTF-8" standalone="no"?>
<!-- Created with Inkscape (http://www.inkscape.org/) -->

<svg
   version="1.1"
   id="svg2"
   xml:space="preserve"
   width="337.33334"
   height="416"
   viewBox="0 0 337.33334 416"
   sodipodi:docname="10-12.eps"
   xmlns:inkscape="http://www.inkscape.org/namespaces/inkscape"
   xmlns:sodipodi="http://sodipodi.sourceforge.net/DTD/sodipodi-0.dtd"
   xmlns="http://www.w3.org/2000/svg"
   xmlns:svg="http://www.w3.org/2000/svg"><defs
     id="defs6" /><sodipodi:namedview
     id="namedview4"
     pagecolor="#ffffff"
     bordercolor="#666666"
     borderopacity="1.0"
     inkscape:pageshadow="2"
     inkscape:pageopacity="0.0"
     inkscape:pagecheckerboard="0" /><g
     id="g8"
     inkscape:groupmode="layer"
     inkscape:label="ink_ext_XXXXXX"
     transform="matrix(1.3333333,0,0,-1.3333333,0,416)"><g
       id="g10"
       transform="scale(0.1)"><path
         d="M 1290.02,2540.28 V 2237.66"
         style="fill:none;stroke:#100f0d;stroke-width:4.9691;stroke-linecap:butt;stroke-linejoin:miter;stroke-miterlimit:10;stroke-dasharray:none;stroke-opacity:1"
         id="path12" /><path
         d="m 1275.58,2247.52 14.44,-53.86 14.43,53.86 z"
         style="fill:#100f0d;fill-opacity:1;fill-rule:nonzero;stroke:none"
         id="path14" /><path
         d="m 1290.02,3109.29 c 157.07,0 284.41,-127.38 284.41,-284.5 0,-157.14 -127.34,-284.51 -284.41,-284.51 -157.09,0 -284.42,127.37 -284.42,284.51 0,157.12 127.33,284.5 284.42,284.5"
         style="fill:#c9e4f3;fill-opacity:1;fill-rule:nonzero;stroke:none"
         id="path16" /><path
         d="m 1290.02,3109.29 c 157.07,0 284.41,-127.38 284.41,-284.5 0,-157.14 -127.34,-284.51 -284.41,-284.51 -157.09,0 -284.42,127.37 -284.42,284.51 0,157.12 127.33,284.5 284.42,284.5 z"
         style="fill:none;stroke:#293985;stroke-width:4.9691;stroke-linecap:butt;stroke-linejoin:miter;stroke-miterlimit:4;stroke-dasharray:none;stroke-opacity:1"
         id="path18" /><g
         id="g20"
         transform="scale(10)"><text
           transform="matrix(0.999682,0,0,-1,108.73,280.227)"
           style="font-variant:normal;font-weight:normal;font-size:6.99976px;font-family:Arial;-inkscape-font-specification:ArialMT;writing-mode:lr-tb;fill:#100f0d;fill-opacity:1;fill-rule:nonzero;stroke:none"
           id="text24"><tspan
             x="0 4.6688399 8.5607061 12.452573 14.006519 15.560467 19.060347 22.952213 24.898146 26.452093 30.34396 35.80278"
             y="0"
             sodipodi:role="line"
             id="tspan22">ApplicationA</tspan></text></g><path
         d="M 293.293,1054.77 V 263.977 h 656.391"
         style="fill:none;stroke:#100f0d;stroke-width:4.9691;stroke-linecap:butt;stroke-linejoin:miter;stroke-miterlimit:10;stroke-dasharray:none;stroke-opacity:1"
         id="path26" /><path
         d="m 939.84,249.535 53.859,14.442 -53.859,14.429 z"
         style="fill:#100f0d;fill-opacity:1;fill-rule:nonzero;stroke:none"
         id="path28" /><path
         d="m 293.293,1623.8 c 157.078,0 284.418,-127.39 284.418,-284.51 0,-157.13 -127.34,-284.52 -284.418,-284.52 -157.074,0 -284.41409,127.39 -284.41409,284.52 0,157.12 127.34009,284.51 284.41409,284.51"
         style="fill:#fafbfb;fill-opacity:1;fill-rule:nonzero;stroke:none"
         id="path30" /><path
         d="m 293.293,1623.8 c 157.078,0 284.418,-127.39 284.418,-284.51 0,-157.13 -127.34,-284.52 -284.418,-284.52 -157.074,0 -284.41409,127.39 -284.41409,284.52 0,157.12 127.34009,284.51 284.41409,284.51 z"
         style="fill:none;stroke:#5e6061;stroke-width:4.9691;stroke-linecap:butt;stroke-linejoin:miter;stroke-miterlimit:4;stroke-dasharray:none;stroke-opacity:1"
         id="path32" /><g
         id="g34"
         transform="scale(10)"><text
           transform="matrix(0.999682,0,0,-1,10.859,136.743)"
           style="font-variant:normal;font-weight:normal;font-size:6.99976px;font-family:Arial;-inkscape-font-specification:ArialMT;writing-mode:lr-tb;fill:#2f2d2e;fill-opacity:1;fill-rule:nonzero;stroke:none"
           id="text40"><tspan
             x="0 5.8308001 9.7226667 11.276613 12.83056 14.776493 18.276373 22.16824 24.499161 27.999041 29.552986 33.052868"
             y="0"
             sodipodi:role="line"
             id="tspan36">Mail service</tspan><tspan
             x="2.5211101 4.0750566 7.9669232 11.466804 13.412737 17.304604 21.19647 24.69635 28.588217 30.534149"
             y="8.3999996"
             sodipodi:role="line"
             id="tspan38">instance 1</tspan></text></g><path
         d="M 1290.02,1054.77 V 623.484"
         style="fill:none;stroke:#100f0d;stroke-width:4.9691;stroke-linecap:butt;stroke-linejoin:miter;stroke-miterlimit:10;stroke-dasharray:none;stroke-opacity:1"
         id="path42" /><path
         d="m 1275.58,633.324 14.44,-53.859 14.43,53.859 z"
         style="fill:#100f0d;fill-opacity:1;fill-rule:nonzero;stroke:none"
         id="path44" /><path
         d="m 1290.02,1623.8 c 157.07,0 284.41,-127.39 284.41,-284.51 0,-157.13 -127.34,-284.52 -284.41,-284.52 -157.09,0 -284.42,127.39 -284.42,284.52 0,157.12 127.33,284.51 284.42,284.51"
         style="fill:#fafbfb;fill-opacity:1;fill-rule:nonzero;stroke:none"
         id="path46" /><path
         d="m 1290.02,1623.8 c 157.07,0 284.41,-127.39 284.41,-284.51 0,-157.13 -127.34,-284.52 -284.41,-284.52 -157.09,0 -284.42,127.39 -284.42,284.52 0,157.12 127.33,284.51 284.42,284.51 z"
         style="fill:none;stroke:#5e6061;stroke-width:4.9691;stroke-linecap:butt;stroke-linejoin:miter;stroke-miterlimit:4;stroke-dasharray:none;stroke-opacity:1"
         id="path48" /><path
         d="M 2239.46,1054.77 V 263.977 h -609.12"
         style="fill:none;stroke:#100f0d;stroke-width:4.9691;stroke-linecap:butt;stroke-linejoin:miter;stroke-miterlimit:10;stroke-dasharray:none;stroke-opacity:1"
         id="path50" /><path
         d="m 1640.18,278.406 -53.86,-14.429 53.86,-14.442 z"
         style="fill:#100f0d;fill-opacity:1;fill-rule:nonzero;stroke:none"
         id="path52" /><path
         d="M 1005.6,2003.7 H 293.293 v -335.9"
         style="fill:none;stroke:#100f0d;stroke-width:4.9691;stroke-linecap:butt;stroke-linejoin:miter;stroke-miterlimit:10;stroke-dasharray:none;stroke-opacity:1"
         id="path54" /><path
         d="m 278.859,1677.64 14.434,-53.84 14.434,53.84 z"
         style="fill:#100f0d;fill-opacity:1;fill-rule:nonzero;stroke:none"
         id="path56" /><path
         d="M 1290.02,1814.59 V 1667.8"
         style="fill:none;stroke:#100f0d;stroke-width:4.9691;stroke-linecap:butt;stroke-linejoin:miter;stroke-miterlimit:10;stroke-dasharray:none;stroke-opacity:1"
         id="path58" /><path
         d="m 1275.58,1677.64 14.44,-53.84 14.43,53.84 z"
         style="fill:#100f0d;fill-opacity:1;fill-rule:nonzero;stroke:none"
         id="path60" /><path
         d="m 1575.27,2003.7 h 664.19 v -335.9"
         style="fill:none;stroke:#100f0d;stroke-width:4.9691;stroke-linecap:butt;stroke-linejoin:miter;stroke-miterlimit:10;stroke-dasharray:none;stroke-opacity:1"
         id="path62" /><path
         d="m 2225.04,1677.64 14.42,-53.84 14.43,53.84 z"
         style="fill:#100f0d;fill-opacity:1;fill-rule:nonzero;stroke:none"
         id="path64" /><path
         d="m 1290.02,2193.66 c 157.07,0 284.41,-85.05 284.41,-189.96 0,-104.9 -127.34,-189.95 -284.41,-189.95 -157.09,0 -284.42,85.05 -284.42,189.95 0,104.91 127.33,189.96 284.42,189.96"
         style="fill:#fcfccf;fill-opacity:1;fill-rule:nonzero;stroke:none"
         id="path66" /><path
         d="m 1290.02,2193.66 c 157.07,0 284.41,-85.05 284.41,-189.96 0,-104.9 -127.34,-189.95 -284.41,-189.95 -157.09,0 -284.42,85.05 -284.42,189.95 0,104.91 127.33,189.96 284.42,189.96 z"
         style="fill:none;stroke:#c49d19;stroke-width:4.9691;stroke-linecap:butt;stroke-linejoin:miter;stroke-miterlimit:4;stroke-dasharray:none;stroke-opacity:1"
         id="path68" /><g
         id="g70"
         transform="scale(10)"><text
           transform="matrix(0.999682,0,0,-1,121.159,203.184)"
           style="font-variant:normal;font-weight:normal;font-size:6.99976px;font-family:Arial;-inkscape-font-specification:ArialMT;writing-mode:lr-tb;fill:#100f0d;fill-opacity:1;fill-rule:nonzero;stroke:none"
           id="text76"><tspan
             x="0 3.8918664 7.7837329 11.6756"
             y="0"
             sodipodi:role="line"
             id="tspan72">Load</tspan><tspan
             x="-5.6396799 -1.7478135 2.1440532 3.698 7.5898666 11.481733 14.981613 18.87348"
             y="8.3999996"
             sodipodi:role="line"
             id="tspan74">balancer</tspan></text></g><path
         d="m 993.699,508.555 c 0,39.672 132.121,70.91 295.841,70.91 78.5,0 154.14,-7.59 209.66,-21.11 55.52,-13.511 87.12,-31.23 87.12,-50.652 V 80.5234 c 0,-39.6875 -132.12,-70.91793 -295.82,-70.91793 -163.73,0 -295.844,32.07813 -295.844,70.91793 V 508.555 h -0.957"
         style="fill:#e0f2c3;fill-opacity:1;fill-rule:nonzero;stroke:none"
         id="path78" /><path
         d="m 993.699,508.555 c 0,39.672 132.121,70.91 295.841,70.91 78.5,0 154.14,-7.59 209.66,-21.11 55.52,-13.511 87.12,-31.23 87.12,-50.652 V 80.5234 c 0,-39.6875 -132.12,-70.91793 -295.82,-70.91793 -163.73,0 -295.844,32.07813 -295.844,70.91793 V 508.555 Z"
         style="fill:none;stroke:#298a3c;stroke-width:4.9691;stroke-linecap:butt;stroke-linejoin:miter;stroke-miterlimit:4;stroke-dasharray:none;stroke-opacity:1"
         id="path80" /><path
         d="m 1585.84,508.555 c 0,-39.68 -132.11,-70.918 -295.82,-70.918 -163.72,0 -295.844,32.078 -295.844,70.918 h 591.664"
         style="fill:#e0f2c3;fill-opacity:1;fill-rule:nonzero;stroke:none"
         id="path82" /><path
         d="m 1585.84,508.555 c 0,-39.68 -132.11,-70.918 -295.82,-70.918 -163.72,0 -295.844,32.078 -295.844,70.918"
         style="fill:none;stroke:#298a3c;stroke-width:4.9691;stroke-linecap:butt;stroke-linejoin:miter;stroke-miterlimit:4;stroke-dasharray:none;stroke-opacity:1"
         id="path84" /><g
         id="g86"
         transform="scale(10)"><text
           transform="matrix(0.999682,0,0,-1,106.83,29.4535)"
           style="font-variant:normal;font-weight:normal;font-size:6.99976px;font-family:Arial;-inkscape-font-specification:ArialMT;writing-mode:lr-tb;fill:#100f0d;fill-opacity:1;fill-rule:nonzero;stroke:none"
           id="text92"><tspan
             x="0 5.0538268 8.945693 10.891626 14.783493 18.67536 22.567226 26.067106 29.958973 31.904905 36.958733 38.51268 40.458614"
             y="0"
             sodipodi:role="line"
             id="tspan88">Database with</tspan><tspan
             x="6.0312099 9.9230766 12.253997 16.145863 19.645742 23.537609 27.037489 30.537371 34.429237"
             y="8.3999996"
             sodipodi:role="line"
             id="tspan90">processed</tspan></text><text
           transform="matrix(0.999683,0,0,-1,102.611,11.4535)"
           style="font-variant:normal;font-weight:normal;font-size:7.99981px;font-family:'Courier New';-inkscape-font-specification:Courier;writing-mode:lr-tb;fill:#100f0d;fill-opacity:1;fill-rule:nonzero;stroke:none"
           id="text96"><tspan
             x="0 4.7998862 9.5997725 14.399658 19.199545 23.99943 28.799316 33.599201 38.39909 43.198975 47.998859"
             y="0"
             sodipodi:role="line"
             id="tspan94">request-ids</tspan></text></g><g
         id="g98"
         transform="scale(10)"><text
           transform="matrix(0.999682,0,0,-1,110.53,136.743)"
           style="font-variant:normal;font-weight:normal;font-size:6.99976px;font-family:Arial;-inkscape-font-specification:ArialMT;writing-mode:lr-tb;fill:#2f2d2e;fill-opacity:1;fill-rule:nonzero;stroke:none"
           id="text104"><tspan
             x="0 5.8308001 9.7226667 11.276613 12.83056 14.776493 18.276373 22.16824 24.499161 27.999041 29.552986 33.052868"
             y="0"
             sodipodi:role="line"
             id="tspan100">Mail service</tspan><tspan
             x="2.52072 4.0746665 7.9665332 11.466413 13.412347 17.304213 21.196079 24.695959 28.587826 30.53376"
             y="8.3999996"
             sodipodi:role="line"
             id="tspan102">instance 2</tspan></text></g><path
         d="m 2239.46,1623.8 c 157.09,0 284.42,-127.39 284.42,-284.51 0,-157.13 -127.33,-284.52 -284.42,-284.52 -157.07,0 -284.41,127.39 -284.41,284.52 0,157.12 127.34,284.51 284.41,284.51"
         style="fill:#fafbfb;fill-opacity:1;fill-rule:nonzero;stroke:none"
         id="path106" /><path
         d="m 2239.46,1623.8 c 157.09,0 284.42,-127.39 284.42,-284.51 0,-157.13 -127.33,-284.52 -284.42,-284.52 -157.07,0 -284.41,127.39 -284.41,284.52 0,157.12 127.34,284.51 284.41,284.51 z"
         style="fill:none;stroke:#5e6061;stroke-width:4.9691;stroke-linecap:butt;stroke-linejoin:miter;stroke-miterlimit:4;stroke-dasharray:none;stroke-opacity:1"
         id="path108" /><g
         id="g110"
         transform="scale(10)"><text
           transform="matrix(0.999682,0,0,-1,205.477,136.743)"
           style="font-variant:normal;font-weight:normal;font-size:6.99976px;font-family:Arial;-inkscape-font-specification:ArialMT;writing-mode:lr-tb;fill:#2f2d2e;fill-opacity:1;fill-rule:nonzero;stroke:none"
           id="text116"><tspan
             x="0 5.8308001 9.7226667 11.276613 12.83056 14.776493 18.276373 22.16824 24.499161 27.999041 29.552986 33.052868"
             y="0"
             sodipodi:role="line"
             id="tspan112">Mail service</tspan><tspan
             x="1.94046 3.4944067 7.3862734 10.886153 12.832087 16.723953 20.61582 24.1157"
             y="8.3999996"
             sodipodi:role="line"
             id="tspan114">instance</tspan></text><text
           transform="matrix(0.999682,0,0,-1,235.42463,128.343)"
           style="font-style:italic;font-variant:normal;font-weight:normal;font-size:6.99976px;font-family:Arial;-inkscape-font-specification:Arial-ItalicMT-NormalItalic;writing-mode:lr-tb;fill:#2f2d2e;fill-opacity:1;fill-rule:nonzero;stroke:none"
           id="text120"><tspan
             x="0"
             y="0"
             id="tspan118">N</tspan></text></g><path
         d="m 1260.84,2329.49 h 58.34 v 77.98 h -58.34 v -77.98"
         style="fill:#ffffff;fill-opacity:1;fill-rule:nonzero;stroke:none"
         id="path122" /><g
         id="g124"
         transform="scale(10)"><text
           transform="matrix(0.999682,0,0,-1,108.186,234.445)"
           style="font-variant:normal;font-weight:normal;font-size:6.99976px;font-family:Arial;-inkscape-font-specification:ArialMT;writing-mode:lr-tb;fill:#100f0d;fill-opacity:1;fill-rule:nonzero;stroke:none"
           id="text128"><tspan
             x="0 4.6688399 8.5607061 12.452573 16.34444 18.290373 20.621292 24.513159 28.405025 32.296894 36.188759 39.688641"
             y="0"
             sodipodi:role="line"
             id="tspan126">Send request</tspan></text></g></g></g></svg>
