<?xml version="1.0" encoding="UTF-8" standalone="no"?>
<!-- Created with Inkscape (http://www.inkscape.org/) -->

<svg
   version="1.1"
   id="svg2"
   xml:space="preserve"
   width="376"
   height="178.66667"
   viewBox="0 0 376 178.66667"
   sodipodi:docname="10-1.eps"
   xmlns:inkscape="http://www.inkscape.org/namespaces/inkscape"
   xmlns:sodipodi="http://sodipodi.sourceforge.net/DTD/sodipodi-0.dtd"
   xmlns="http://www.w3.org/2000/svg"
   xmlns:svg="http://www.w3.org/2000/svg"><defs
     id="defs6" /><sodipodi:namedview
     id="namedview4"
     pagecolor="#ffffff"
     bordercolor="#666666"
     borderopacity="1.0"
     inkscape:pageshadow="2"
     inkscape:pageopacity="0.0"
     inkscape:pagecheckerboard="0" /><g
     id="g8"
     inkscape:groupmode="layer"
     inkscape:label="ink_ext_XXXXXX"
     transform="matrix(1.3333333,0,0,-1.3333333,0,178.66667)"><g
       id="g10"
       transform="scale(0.1)"><path
         d="m 452.883,1119.5 c 248.523,0 450,-201.477 450,-450.004 0,-248.535 -201.477,-450 -450,-450 -248.531,0 -450.00409,201.465 -450.00409,450 0,248.527 201.47309,450.004 450.00409,450.004"
         style="fill:#c9e4f3;fill-opacity:1;fill-rule:nonzero;stroke:none"
         id="path12" /><path
         d="m 452.883,1119.5 c 248.523,0 450,-201.477 450,-450.004 0,-248.535 -201.477,-450 -450,-450 -248.531,0 -450.00409,201.465 -450.00409,450 0,248.527 201.47309,450.004 450.00409,450.004 z"
         style="fill:none;stroke:#293985;stroke-width:5.0003;stroke-linecap:butt;stroke-linejoin:miter;stroke-miterlimit:4;stroke-dasharray:none;stroke-opacity:1"
         id="path14" /><g
         id="g16"
         transform="scale(10)"><text
           transform="matrix(1,0,0,-1,25.05,65.0832)"
           style="font-variant:normal;font-weight:normal;font-size:6.99976px;font-family:Arial;-inkscape-font-specification:ArialMT;writing-mode:lr-tb;fill:#100f0d;fill-opacity:1;fill-rule:nonzero;stroke:none"
           id="text20"><tspan
             x="0 4.6688399 8.5607061 12.452573 14.006519 15.560467 19.060347 22.952213 24.898146 26.452093 30.34396 35.802731"
             y="0"
             sodipodi:role="line"
             id="tspan18">ApplicationA</tspan></text></g><path
         d="m 2162.88,1119.5 c 248.53,0 450,-201.477 450,-450.004 0,-248.535 -201.47,-450 -450,-450 -248.52,0 -450,201.465 -450,450 0,248.527 201.48,450.004 450,450.004"
         style="fill:#fafbfb;fill-opacity:1;fill-rule:nonzero;stroke:none"
         id="path22" /><path
         d="m 2162.88,1119.5 c 248.53,0 450,-201.477 450,-450.004 0,-248.535 -201.47,-450 -450,-450 -248.52,0 -450,201.465 -450,450 0,248.527 201.48,450.004 450,450.004 z"
         style="fill:none;stroke:#5e6061;stroke-width:5.0003;stroke-linecap:butt;stroke-linejoin:miter;stroke-miterlimit:4;stroke-dasharray:none;stroke-opacity:1"
         id="path24" /><path
         d="m 1515.89,1233.54 82.02,82.02 L 2809.88,103.582 2727.86,21.5625 1515.89,1233.54"
         style="fill:#f792a4;fill-opacity:1;fill-rule:nonzero;stroke:none"
         id="path26" /><path
         d="m 1515.89,1233.54 82.02,82.02 1211.97,-1211.978 -82.02,-82.0195 z"
         style="fill:none;stroke:#b74248;stroke-width:5.0003;stroke-linecap:butt;stroke-linejoin:miter;stroke-miterlimit:4;stroke-dasharray:none;stroke-opacity:1"
         id="path28" /><path
         d="M 1597.88,86.2734 2639.21,1327.2 2728.07,1252.63 1686.73,11.7031 1597.88,86.2734"
         style="fill:#f792a4;fill-opacity:1;fill-rule:nonzero;stroke:none"
         id="path30" /><path
         d="M 1597.88,86.2734 2639.21,1327.2 2728.07,1252.63 1686.73,11.7031 Z"
         style="fill:none;stroke:#b74248;stroke-width:5.0003;stroke-linecap:butt;stroke-linejoin:miter;stroke-miterlimit:3.9998;stroke-dasharray:none;stroke-opacity:1"
         id="path32" /><g
         id="g34"
         transform="scale(10)"><text
           transform="matrix(1,0,0,-1,205.589,12.9016)"
           style="font-variant:normal;font-weight:normal;font-size:6.99976px;font-family:Arial;-inkscape-font-specification:ArialMT;writing-mode:lr-tb;fill:#100f0d;fill-opacity:1;fill-rule:nonzero;stroke:none"
           id="text40"><tspan
             x="0 4.2768536 8.1687202 9.7226667 11.276613 15.16848 17.499399"
             y="0"
             sodipodi:role="line"
             id="tspan36">Failure</tspan><tspan
             x="-7.7773399 -1.9465399 1.9453267 3.4992733 5.0532203 6.9991531 10.499033 14.3909 16.721821 20.221701 21.775646 25.275526"
             y="-103.413"
             sodipodi:role="line"
             id="tspan38">Mail service</tspan></text></g><path
         d="M 902.883,669.496 H 1668.59"
         style="fill:none;stroke:#100f0d;stroke-width:5.0003;stroke-linecap:butt;stroke-linejoin:miter;stroke-miterlimit:10;stroke-dasharray:none;stroke-opacity:1"
         id="path42" /><path
         d="m 1658.67,654.965 54.21,14.531 -54.21,14.524 z"
         style="fill:#100f0d;fill-opacity:1;fill-rule:nonzero;stroke:none"
         id="path44" /><g
         id="g46"
         transform="scale(10)"><text
           transform="matrix(1,0,0,-1,123.008,69.373)"
           style="font-variant:normal;font-weight:normal;font-size:6.99976px;font-family:Arial;-inkscape-font-specification:ArialMT;writing-mode:lr-tb;fill:#100f0d;fill-opacity:1;fill-rule:nonzero;stroke:none"
           id="text50"><tspan
             x="0 5.0538268 8.945693 10.49964 12.053587"
             y="0"
             sodipodi:role="line"
             id="tspan48">Calls</tspan></text></g></g></g></svg>
