<?xml version="1.0" encoding="UTF-8" standalone="no"?>
<!-- Created with Inkscape (http://www.inkscape.org/) -->

<svg
   version="1.1"
   id="svg2"
   xml:space="preserve"
   width="124"
   height="330.66666"
   viewBox="0 0 124 330.66666"
   sodipodi:docname="10-11.eps"
   xmlns:inkscape="http://www.inkscape.org/namespaces/inkscape"
   xmlns:sodipodi="http://sodipodi.sourceforge.net/DTD/sodipodi-0.dtd"
   xmlns="http://www.w3.org/2000/svg"
   xmlns:svg="http://www.w3.org/2000/svg"><defs
     id="defs6" /><sodipodi:namedview
     id="namedview4"
     pagecolor="#ffffff"
     bordercolor="#666666"
     borderopacity="1.0"
     inkscape:pageshadow="2"
     inkscape:pageopacity="0.0"
     inkscape:pagecheckerboard="0" /><g
     id="g8"
     inkscape:groupmode="layer"
     inkscape:label="ink_ext_XXXXXX"
     transform="matrix(1.3333333,0,0,-1.3333333,0,330.66667)"><g
       id="g10"
       transform="scale(0.1)"><path
         d="M 239.152,786.012 V 560.859 l 1.164,-129.836 V 401.441 L 238.332,154.02"
         style="fill:none;stroke:#100f0d;stroke-width:5.0003;stroke-linecap:butt;stroke-linejoin:miter;stroke-miterlimit:10;stroke-dasharray:none;stroke-opacity:1"
         id="path12" /><path
         d="m 223.891,164.051 14.097,-54.321 14.953,54.086 z"
         style="fill:#100f0d;fill-opacity:1;fill-rule:nonzero;stroke:none"
         id="path14" /><path
         d="M 724.984,786.012 V 429.066 l -0.675,-275.039"
         style="fill:none;stroke:#100f0d;stroke-width:5.0003;stroke-linecap:butt;stroke-linejoin:miter;stroke-miterlimit:10;stroke-dasharray:none;stroke-opacity:1"
         id="path16" /><path
         d="m 709.809,163.969 14.394,-54.239 14.656,54.157 z"
         style="fill:#100f0d;fill-opacity:1;fill-rule:nonzero;stroke:none"
         id="path18" /><path
         d="M 724.59,1990.67 V 1188.56"
         style="fill:none;stroke:#100f0d;stroke-width:5.0003;stroke-linecap:butt;stroke-linejoin:miter;stroke-miterlimit:10;stroke-dasharray:none;stroke-opacity:1"
         id="path20" /><path
         d="m 710.07,1198.46 14.52,-54.2 14.535,54.2 z"
         style="fill:#100f0d;fill-opacity:1;fill-rule:nonzero;stroke:none"
         id="path22" /><path
         d="M 239.152,1990.67 V 1188.56"
         style="fill:none;stroke:#100f0d;stroke-width:5.0003;stroke-linecap:butt;stroke-linejoin:miter;stroke-miterlimit:10;stroke-dasharray:none;stroke-opacity:1"
         id="path24" /><path
         d="m 224.621,1198.46 14.531,-54.2 14.524,54.2 z"
         style="fill:#100f0d;fill-opacity:1;fill-rule:nonzero;stroke:none"
         id="path26" /><path
         d="m 481.488,2468.73 c 166.231,0 300.996,-134.76 300.996,-301 0,-166.24 -134.765,-301 -300.996,-301 -166.242,0 -301,134.76 -301,301 0,166.24 134.758,301 301,301"
         style="fill:#c9e4f3;fill-opacity:1;fill-rule:nonzero;stroke:none"
         id="path28" /><path
         d="m 481.488,2468.73 c 166.231,0 300.996,-134.76 300.996,-301 0,-166.24 -134.765,-301 -300.996,-301 -166.242,0 -301,134.76 -301,301 0,166.24 134.758,301 301,301 z"
         style="fill:none;stroke:#293985;stroke-width:5.0003;stroke-linecap:butt;stroke-linejoin:miter;stroke-miterlimit:4;stroke-dasharray:none;stroke-opacity:1"
         id="path30" /><g
         id="g32"
         transform="scale(10)"><text
           transform="matrix(1,0,0,-1,27.9105,214.906)"
           style="font-variant:normal;font-weight:normal;font-size:6.99976px;font-family:Arial;-inkscape-font-specification:ArialMT;writing-mode:lr-tb;fill:#100f0d;fill-opacity:1;fill-rule:nonzero;stroke:none"
           id="text36"><tspan
             x="0 4.6688399 8.5607061 12.452573 14.006519 15.560467 19.060347 22.952213 24.898146 26.452093 30.34396 35.802731"
             y="0"
             sodipodi:role="line"
             id="tspan34">ApplicationA</tspan></text></g><path
         d="m 481.488,1263.95 c 166.231,0 300.996,-134.76 300.996,-300.993 0,-166.238 -134.765,-301.008 -300.996,-301.008 -166.242,0 -301,134.77 -301,301.008 0,166.233 134.758,300.993 301,300.993"
         style="fill:#fafbfb;fill-opacity:1;fill-rule:nonzero;stroke:none"
         id="path38" /><path
         d="m 481.488,1263.95 c 166.231,0 300.996,-134.76 300.996,-300.993 0,-166.238 -134.765,-301.008 -300.996,-301.008 -166.242,0 -301,134.77 -301,301.008 0,166.233 134.758,300.993 301,300.993 z"
         style="fill:none;stroke:#5e6061;stroke-width:5.0003;stroke-linecap:butt;stroke-linejoin:miter;stroke-miterlimit:4;stroke-dasharray:none;stroke-opacity:1"
         id="path40" /><g
         id="g42"
         transform="scale(10)"><text
           transform="matrix(1,0,0,-1,29.673,94.8438)"
           style="font-variant:normal;font-weight:normal;font-size:6.99976px;font-family:Arial;-inkscape-font-specification:ArialMT;writing-mode:lr-tb;fill:#100f0d;fill-opacity:1;fill-rule:nonzero;stroke:none"
           id="text46"><tspan
             x="0 5.8308001 9.7226667 11.276613 12.83056 14.776493 18.276373 22.16824 24.499161 27.999041 29.552986 33.052868"
             y="0"
             sodipodi:role="line"
             id="tspan44">Mail service</tspan></text></g><path
         d="M 53.6523,109.73 H 424.652 c 8.555,0 14.774,-7.003 14.774,-14.7808 v -70 c 0,-8.5625 -7,-14.7812 -14.774,-14.7812 H 53.6523 c -8.5546,0 -14.7773,7 -14.7773,14.7812 v 70 c 0,8.5508 6.9961,14.7808 14.7773,14.7808"
         style="fill:#fcfccf;fill-opacity:1;fill-rule:nonzero;stroke:none"
         id="path48" /><path
         d="M 53.6523,109.73 H 424.652 c 8.555,0 14.774,-7.003 14.774,-14.7808 v -70 c 0,-8.5625 -7,-14.7812 -14.774,-14.7812 H 53.6523 c -8.5546,0 -14.7773,7 -14.7773,14.7812 v 70 c 0,8.5508 6.9961,14.7808 14.7773,14.7808 z"
         style="fill:none;stroke:#c49d19;stroke-width:5.0003;stroke-linecap:butt;stroke-linejoin:miter;stroke-miterlimit:4;stroke-dasharray:none;stroke-opacity:1"
         id="path50" /><g
         id="g52"
         transform="scale(10)"><text
           transform="matrix(1,0,0,-1,6.60156,4.12891)"
           style="font-variant:normal;font-weight:normal;font-size:6.99976px;font-family:Arial;-inkscape-font-specification:ArialMT;writing-mode:lr-tb;fill:#100f0d;fill-opacity:1;fill-rule:nonzero;stroke:none"
           id="text56"><tspan
             x="0 4.6688399 8.5607061 12.452573 16.34444 19.84432 21.790253 27.621054 31.51292 33.066868"
             y="0"
             sodipodi:role="line"
             id="tspan54">Sends mail</tspan></text></g><path
         d="M 539.094,109.73 H 910.09 c 8.566,0 14.785,-7.003 14.785,-14.7808 v -70 c 0,-8.5625 -7,-14.7812 -14.785,-14.7812 H 539.094 c -8.555,0 -14.774,7 -14.774,14.7812 v 70 c 0,8.5508 6.219,14.7808 14.774,14.7808"
         style="fill:#fcfccf;fill-opacity:1;fill-rule:nonzero;stroke:none"
         id="path58" /><path
         d="M 539.094,109.73 H 910.09 c 8.566,0 14.785,-7.003 14.785,-14.7808 v -70 c 0,-8.5625 -7,-14.7812 -14.785,-14.7812 H 539.094 c -8.555,0 -14.774,7 -14.774,14.7812 v 70 c 0,8.5508 6.219,14.7808 14.774,14.7808 z"
         style="fill:none;stroke:#c49d19;stroke-width:5.0003;stroke-linecap:butt;stroke-linejoin:miter;stroke-miterlimit:4;stroke-dasharray:none;stroke-opacity:1"
         id="path60" /><g
         id="g62"
         transform="scale(10)"><text
           transform="matrix(1,0,0,-1,55.1457,4.12891)"
           style="font-variant:normal;font-weight:normal;font-size:6.99976px;font-family:Arial;-inkscape-font-specification:ArialMT;writing-mode:lr-tb;fill:#100f0d;fill-opacity:1;fill-rule:nonzero;stroke:none"
           id="text66"><tspan
             x="0 4.6688399 8.5607061 12.452573 16.34444 19.84432 21.790253 27.621054 31.51292 33.066868"
             y="0"
             sodipodi:role="line"
             id="tspan64">Sends mail</tspan></text></g><path
         d="m 687.445,1487.37 h 74.297 v 177.09 h -74.297 v -177.09"
         style="fill:#ffffff;fill-opacity:1;fill-rule:nonzero;stroke:none"
         id="path68" /><path
         d="m 687.445,359.316 h 74.297 V 536.41 H 687.445 V 359.316"
         style="fill:#ffffff;fill-opacity:1;fill-rule:nonzero;stroke:none"
         id="path70" /><path
         d="m 202.004,359.316 h 74.293 V 536.41 H 202.004 V 359.316"
         style="fill:#ffffff;fill-opacity:1;fill-rule:nonzero;stroke:none"
         id="path72" /><path
         d="m 202.004,1450.09 h 74.293 v 243.75 h -74.293 v -243.75"
         style="fill:#ffffff;fill-opacity:1;fill-rule:nonzero;stroke:none"
         id="path74" /><g
         id="g76"
         transform="scale(10)"><text
           transform="matrix(1,0,0,-1,61.3742,159.08)"
           style="font-variant:normal;font-weight:normal;font-size:6.99976px;font-family:Arial;-inkscape-font-specification:ArialMT;writing-mode:lr-tb;fill:#100f0d;fill-opacity:1;fill-rule:nonzero;stroke:none"
           id="text96"><tspan
             x="0 5.0538268 8.945693 10.891626 13.222547 14.776493 18.66836"
             y="0"
             sodipodi:role="line"
             id="tspan78">Retries</tspan><tspan
             x="3.1730499 7.0649166 10.829304 15.106157"
             y="8.3999996"
             sodipodi:role="line"
             id="tspan80">atT2</tspan><tspan
             x="-60.935951 -55.882122 -51.990257 -50.43631 -48.882362 -45.382484 -43.43655 -39.544682 -35.776581 -31.499725 -27.607861 -25.661926 -21.77006 -17.878193"
             y="-4.1996002"
             sodipodi:role="line"
             id="tspan82">Calls atT1 and</tspan><tspan
             x="-51.659389 -49.713455 -45.82159 -44.267643 -42.713696 -39.213818 -37.267883 -33.376019 -31.430084 -29.48415 -25.592283"
             y="4.2000098"
             sodipodi:role="line"
             id="tspan84">fails after</tspan><tspan
             x="-55.360561 -51.468693 -47.576828 -45.630894 -42.131012 -38.239147 -34.739265 -30.847401 -26.955534 -23.063667"
             y="12.6004"
             sodipodi:role="line"
             id="tspan86">10 seconds</tspan><tspan
             x="-44.850761 -40.181919 -38.235989 -36.290054 -32.398186"
             y="111.9586"
             sodipodi:role="line"
             id="tspan88">After</tspan><tspan
             x="-55.360561 -51.468693 -47.576828 -45.630894 -42.131012 -38.239147 -34.739265 -30.847401 -26.955534 -23.063667"
             y="120.35938"
             sodipodi:role="line"
             id="tspan90">20 seconds</tspan><tspan
             x="-4.1820598 0.48677993 2.4327133 4.3786464 8.2705126 10.601433 12.547366 16.635225 18.58116 22.473026"
             y="111.9586"
             sodipodi:role="line"
             id="tspan92">After &gt; 10</tspan><tspan
             x="-1.94495 1.55493 5.4467964 8.9466763 12.838543 16.73041 20.622276"
             y="120.35938"
             sodipodi:role="line"
             id="tspan94">seconds</tspan></text></g></g></g></svg>
