<?xml version="1.0" encoding="UTF-8" standalone="no"?>
<!-- Created with Inkscape (http://www.inkscape.org/) -->

<svg
   version="1.1"
   id="svg2"
   xml:space="preserve"
   width="450.66666"
   height="448"
   viewBox="0 0 450.66666 448"
   sodipodi:docname="10-13.eps"
   xmlns:inkscape="http://www.inkscape.org/namespaces/inkscape"
   xmlns:sodipodi="http://sodipodi.sourceforge.net/DTD/sodipodi-0.dtd"
   xmlns="http://www.w3.org/2000/svg"
   xmlns:svg="http://www.w3.org/2000/svg"><defs
     id="defs6" /><sodipodi:namedview
     id="namedview4"
     pagecolor="#ffffff"
     bordercolor="#666666"
     borderopacity="1.0"
     inkscape:pageshadow="2"
     inkscape:pageopacity="0.0"
     inkscape:pagecheckerboard="0" /><g
     id="g8"
     inkscape:groupmode="layer"
     inkscape:label="ink_ext_XXXXXX"
     transform="matrix(1.3333333,0,0,-1.3333333,0,448)"><g
       id="g10"
       transform="scale(0.1)"><path
         d="m 1752.11,3352.3 c 171.97,0 311.37,-139.47 311.37,-311.52 0,-172.04 -139.4,-311.51 -311.37,-311.51 -171.97,0 -311.4,139.47 -311.4,311.51 0,172.05 139.43,311.52 311.4,311.52"
         style="fill:#c9e4f3;fill-opacity:1;fill-rule:nonzero;stroke:none"
         id="path12" /><path
         d="m 1752.11,3352.3 c 171.97,0 311.37,-139.47 311.37,-311.52 0,-172.04 -139.4,-311.51 -311.37,-311.51 -171.97,0 -311.4,139.47 -311.4,311.51 0,172.05 139.43,311.52 311.4,311.52 z"
         style="fill:none;stroke:#293985;stroke-width:4.9691;stroke-linecap:butt;stroke-linejoin:miter;stroke-miterlimit:4;stroke-dasharray:none;stroke-opacity:1"
         id="path14" /><path
         d="M 662.746,888.723 V 775.559"
         style="fill:none;stroke:#100f0d;stroke-width:4.9691;stroke-linecap:butt;stroke-linejoin:miter;stroke-miterlimit:10;stroke-dasharray:none;stroke-opacity:1"
         id="path16" /><path
         d="m 196.156,2173.35 v 867.43 H 1396.71"
         style="fill:none;stroke:#100f0d;stroke-width:4.9691;stroke-linecap:butt;stroke-linejoin:miter;stroke-miterlimit:10;stroke-dasharray:none;stroke-opacity:1"
         id="path18" /><path
         d="m 1386.86,3026.35 53.85,14.43 -53.85,14.43 z"
         style="fill:#100f0d;fill-opacity:1;fill-rule:nonzero;stroke:none"
         id="path20" /><path
         d="M 443.293,1420.78 H 196.156 v 673.1"
         style="fill:none;stroke:#100f0d;stroke-width:4.9691;stroke-linecap:butt;stroke-linejoin:miter;stroke-miterlimit:10;stroke-dasharray:none;stroke-opacity:1"
         id="path22" /><path
         d="m 352.387,1222.17 c 12.195,171.61 161.136,300.84 332.687,288.64 C 856.617,1498.63 985.797,1349.61 973.609,1178 961.418,1006.39 812.465,877.152 640.922,889.348 469.379,901.547 340.195,1050.55 352.387,1222.17"
         style="fill:#fafbfb;fill-opacity:1;fill-rule:nonzero;stroke:none"
         id="path24" /><path
         d="m 352.387,1222.17 c 12.195,171.61 161.136,300.84 332.687,288.64 C 856.617,1498.63 985.797,1349.61 973.609,1178 961.418,1006.39 812.465,877.152 640.922,889.348 469.379,901.547 340.195,1050.55 352.387,1222.17 Z"
         style="fill:none;stroke:#5e6061;stroke-width:4.9691;stroke-linecap:butt;stroke-linejoin:miter;stroke-miterlimit:4;stroke-dasharray:none;stroke-opacity:1"
         id="path26" /><path
         d="M 2789.07,888.723 V 782.48"
         style="fill:none;stroke:#100f0d;stroke-width:4.9691;stroke-linecap:butt;stroke-linejoin:miter;stroke-miterlimit:10;stroke-dasharray:none;stroke-opacity:1"
         id="path28" /><path
         d="M 1440.71,2186.21 H 662.746 v -630.44"
         style="fill:none;stroke:#100f0d;stroke-width:4.9691;stroke-linecap:butt;stroke-linejoin:miter;stroke-miterlimit:10;stroke-dasharray:none;stroke-opacity:1"
         id="path30" /><path
         d="m 648.309,1565.61 14.437,-53.86 14.43,53.86 z"
         style="fill:#100f0d;fill-opacity:1;fill-rule:nonzero;stroke:none"
         id="path32" /><path
         d="m 2063.48,2186.21 h 725.59 v -630.44"
         style="fill:none;stroke:#100f0d;stroke-width:4.9691;stroke-linecap:butt;stroke-linejoin:miter;stroke-miterlimit:10;stroke-dasharray:none;stroke-opacity:1"
         id="path34" /><path
         d="m 2774.65,1565.61 14.42,-53.86 14.44,53.86 z"
         style="fill:#100f0d;fill-opacity:1;fill-rule:nonzero;stroke:none"
         id="path36" /><path
         d="m 1440.71,551.5 c 0,42.527 139,78.117 311.4,78.117 82.96,0 161.62,-7.906 219.8,-22.734 58.19,-14.832 91.57,-34.613 91.57,-55.383 V 84.7188 c 0,-42.5196 -138.98,-78.11724 -311.37,-78.11724 -172.4,0 -311.4,34.62114 -311.4,78.11724 V 551.5"
         style="fill:#e0f2c3;fill-opacity:1;fill-rule:nonzero;stroke:none"
         id="path38" /><path
         d="m 1440.71,551.5 c 0,42.527 139,78.117 311.4,78.117 82.96,0 161.62,-7.906 219.8,-22.734 58.19,-14.832 91.57,-34.613 91.57,-55.383 V 84.7188 c 0,-42.5196 -138.98,-78.11724 -311.37,-78.11724 -172.4,0 -311.4,34.62114 -311.4,78.11724 z"
         style="fill:none;stroke:#298a3c;stroke-width:4.9691;stroke-linecap:butt;stroke-linejoin:miter;stroke-miterlimit:4;stroke-dasharray:none;stroke-opacity:1"
         id="path40" /><path
         d="m 2063.48,551.5 c 0,-42.523 -138.98,-78.129 -311.37,-78.129 -172.4,0 -311.4,34.606 -311.4,78.129 h 622.77"
         style="fill:#e0f2c3;fill-opacity:1;fill-rule:nonzero;stroke:none"
         id="path42" /><path
         d="m 2063.48,551.5 c 0,-42.523 -138.98,-78.129 -311.37,-78.129 -172.4,0 -311.4,34.606 -311.4,78.129"
         style="fill:none;stroke:#298a3c;stroke-width:4.9691;stroke-linecap:butt;stroke-linejoin:miter;stroke-miterlimit:4;stroke-dasharray:none;stroke-opacity:1"
         id="path44" /><path
         d="M 2010.68,2863.43 V 2348.79"
         style="fill:none;stroke:#100f0d;stroke-width:4.9691;stroke-linecap:butt;stroke-linejoin:miter;stroke-miterlimit:10;stroke-dasharray:none;stroke-opacity:1"
         id="path46" /><path
         d="m 1996.25,2358.64 14.43,-53.86 14.44,53.86 z"
         style="fill:#100f0d;fill-opacity:1;fill-rule:nonzero;stroke:none"
         id="path48" /><path
         d="M 1493.54,2863.43 V 2348.79"
         style="fill:none;stroke:#100f0d;stroke-width:4.9691;stroke-linecap:butt;stroke-linejoin:miter;stroke-miterlimit:10;stroke-dasharray:none;stroke-opacity:1"
         id="path50" /><path
         d="m 1479.11,2358.64 14.43,-53.86 14.42,53.86 z"
         style="fill:#100f0d;fill-opacity:1;fill-rule:nonzero;stroke:none"
         id="path52" /><path
         d="M 68.2266,2662.01 104.574,2698.37 324.758,2478.1 288.41,2441.74 68.2266,2662.01"
         style="fill:#f792a4;fill-opacity:1;fill-rule:nonzero;stroke:none"
         id="path54" /><path
         d="m 68.2266,2662.01 36.3474,36.36 220.184,-220.27 -36.348,-36.36 z"
         style="fill:none;stroke:#b74248;stroke-width:4.9691;stroke-linecap:butt;stroke-linejoin:miter;stroke-miterlimit:4;stroke-dasharray:none;stroke-opacity:1"
         id="path56" /><path
         d="m 68.2383,2478.1 220.1797,220.27 36.348,-36.36 -220.18,-220.27 -36.3477,36.36"
         style="fill:#f792a4;fill-opacity:1;fill-rule:nonzero;stroke:none"
         id="path58" /><path
         d="m 68.2383,2478.1 220.1797,220.27 36.348,-36.36 -220.18,-220.27 z"
         style="fill:none;stroke:#b74248;stroke-width:4.9691;stroke-linecap:butt;stroke-linejoin:miter;stroke-miterlimit:4;stroke-dasharray:none;stroke-opacity:1"
         id="path60" /><path
         d="m 2789.07,1511.75 c 171.98,0 311.4,-139.47 311.4,-311.51 0,-172.04 -139.42,-311.517 -311.4,-311.517 -171.96,0 -311.38,139.477 -311.38,311.517 0,172.04 139.42,311.51 311.38,311.51"
         style="fill:#fafbfb;fill-opacity:1;fill-rule:nonzero;stroke:none"
         id="path62" /><path
         d="m 2789.07,1511.75 c 171.98,0 311.4,-139.47 311.4,-311.51 0,-172.04 -139.42,-311.517 -311.4,-311.517 -171.96,0 -311.38,139.477 -311.38,311.517 0,172.04 139.42,311.51 311.38,311.51 z"
         style="fill:none;stroke:#5e6061;stroke-width:4.9691;stroke-linecap:butt;stroke-linejoin:miter;stroke-miterlimit:4;stroke-dasharray:none;stroke-opacity:1"
         id="path64" /><path
         d="m 1752.11,2393.88 c 171.97,0 311.37,-92.98 311.37,-207.67 0,-114.7 -139.4,-207.68 -311.37,-207.68 -171.97,0 -311.4,92.98 -311.4,207.68 0,114.69 139.43,207.67 311.4,207.67"
         style="fill:#fcfccf;fill-opacity:1;fill-rule:nonzero;stroke:none"
         id="path66" /><path
         d="m 1752.11,2393.88 c 171.97,0 311.37,-92.98 311.37,-207.67 0,-114.7 -139.4,-207.68 -311.37,-207.68 -171.97,0 -311.4,92.98 -311.4,207.68 0,114.69 139.43,207.67 311.4,207.67 z"
         style="fill:none;stroke:#c49d19;stroke-width:4.9691;stroke-linecap:butt;stroke-linejoin:miter;stroke-miterlimit:4;stroke-dasharray:none;stroke-opacity:1"
         id="path68" /><path
         d="M 663,541.051 V 318.109 h 733.71"
         style="fill:none;stroke:#100f0d;stroke-width:4.9691;stroke-linecap:butt;stroke-linejoin:miter;stroke-miterlimit:10;stroke-dasharray:none;stroke-opacity:1"
         id="path70" /><path
         d="m 1386.86,303.68 53.85,14.429 -53.85,14.434 z"
         style="fill:#100f0d;fill-opacity:1;fill-rule:nonzero;stroke:none"
         id="path72" /><path
         d="M 2789.07,540.051 V 318.109 h -681.56"
         style="fill:none;stroke:#100f0d;stroke-width:4.9691;stroke-linecap:butt;stroke-linejoin:miter;stroke-miterlimit:10;stroke-dasharray:none;stroke-opacity:1"
         id="path74" /><path
         d="m 2117.35,332.543 -53.87,-14.434 53.87,-14.429 z"
         style="fill:#100f0d;fill-opacity:1;fill-rule:nonzero;stroke:none"
         id="path76" /><path
         d="m 1362.67,2452.36 h 778.87 v 225.16 h -778.87 v -225.16"
         style="fill:#ffffff;fill-opacity:1;fill-rule:nonzero;stroke:none"
         id="path78" /><g
         id="g80"
         transform="scale(10)"><text
           transform="matrix(0.999612,0,0,-1,180.052,259.971)"
           style="font-variant:normal;font-weight:normal;font-size:6.99976px;font-family:Arial;-inkscape-font-specification:ArialMT;writing-mode:lr-tb;fill:#100f0d;fill-opacity:1;fill-rule:nonzero;stroke:none"
           id="text90"><tspan
             x="0 3.8918664 5.8378 7.7837329 12.83756 16.729427 18.67536 21.006279 22.560226 26.452093"
             y="0"
             sodipodi:role="line"
             id="tspan82">5. Retries</tspan><tspan
             x="7.7791901 10.11011 14.001977 17.893843 21.785709 25.677576 29.177456"
             y="8.3999996"
             sodipodi:role="line"
             id="tspan84">request</tspan><tspan
             x="-25.132811 -20.46397 -16.572104 -12.680237 -11.12629 -9.5723438 -6.0724635 -2.1805971 -0.23466368 1.319283 5.2111497 10.670143"
             y="-42.260502"
             sodipodi:role="line"
             id="tspan86">ApplicationA</tspan><tspan
             x="-180.2308 -176.33894 -174.39301 -172.44708 -167.39325 -163.50139 -159.60951 -156.10963 -152.60976"
             y="191.28349"
             sodipodi:role="line"
             id="tspan88">3. Checks</tspan></text><text
           transform="matrix(0.999612,0,0,-1,32.9457,68.6883)"
           style="font-variant:normal;font-weight:normal;font-size:7.99981px;font-family:'Courier New';-inkscape-font-specification:Courier;writing-mode:lr-tb;fill:#100f0d;fill-opacity:1;fill-rule:nonzero;stroke:none"
           id="text94"><tspan
             x="0 4.7998862 9.5997725 14.399658 19.199545 23.99943 28.799316 33.599201 38.39909 43.198975"
             y="0"
             sodipodi:role="line"
             id="tspan92">request-id</tspan></text><text
           transform="matrix(0.999612,0,0,-1,82.8699,68.6883)"
           style="font-variant:normal;font-weight:normal;font-size:6.99976px;font-family:Arial;-inkscape-font-specification:ArialMT;writing-mode:lr-tb;fill:#100f0d;fill-opacity:1;fill-rule:nonzero;stroke:none"
           id="text100"><tspan
             x="0 2.33092 4.2768536 8.1687202 12.060587 14.006519 15.952453 19.84432 21.790253 25.682119 29.573986 33.465851 35.019798 36.573746 40.073627 43.965492 45.911427"
             y="0"
             sodipodi:role="line"
             id="tspan96">- not a duplicate</tspan><tspan
             x="-55.1917 -51.299835 -49.353901 -47.407967 -42.739128 -38.84726 -35.347382 -31.455513"
             y="11.45"
             sodipodi:role="line"
             id="tspan98">8. Saves</tspan></text><text
           transform="matrix(0.999612,0,0,-1,56.8707,57.2383)"
           style="font-variant:normal;font-weight:normal;font-size:7.99981px;font-family:'Courier New';-inkscape-font-specification:Courier;writing-mode:lr-tb;fill:#100f0d;fill-opacity:1;fill-rule:nonzero;stroke:none"
           id="text104"><tspan
             x="0 4.7998862 9.5997725 14.399658 19.199545 23.99943 28.799316 33.599201 38.39909 43.198975"
             y="0"
             sodipodi:role="line"
             id="tspan102">request-id</tspan></text><text
           transform="matrix(0.999612,0,0,-1,220.432,68.6871)"
           style="font-variant:normal;font-weight:normal;font-size:6.99976px;font-family:Arial;-inkscape-font-specification:ArialMT;writing-mode:lr-tb;fill:#100f0d;fill-opacity:1;fill-rule:nonzero;stroke:none"
           id="text108"><tspan
             x="0 3.8918664 5.8378 7.7837329 12.83756 16.729427 20.621292 24.121174 27.621054"
             y="0"
             sodipodi:role="line"
             id="tspan106">7. Checks</tspan></text><text
           transform="matrix(0.999612,0,0,-1,253.487,68.6871)"
           style="font-variant:normal;font-weight:normal;font-size:7.99981px;font-family:'Courier New';-inkscape-font-specification:Courier;writing-mode:lr-tb;fill:#100f0d;fill-opacity:1;fill-rule:nonzero;stroke:none"
           id="text112"><tspan
             x="0 4.7998862 9.5997725 14.399658 19.199545 23.99943 28.799316 33.598591"
             y="0"
             sodipodi:role="line"
             id="tspan110">request—</tspan></text><text
           transform="matrix(0.999612,0,0,-1,291.871,68.6871)"
           style="font-variant:normal;font-weight:normal;font-size:6.99976px;font-family:Arial;-inkscape-font-specification:ArialMT;writing-mode:lr-tb;fill:#100f0d;fill-opacity:1;fill-rule:nonzero;stroke:none"
           id="text118"><tspan
             x="0 3.8918664 7.7837329 9.7296667 11.6756 15.567466 17.513399 21.405266 25.297132 29.188999 30.742947 32.296894 35.796772 39.688641 41.634571"
             y="0"
             sodipodi:role="line"
             id="tspan114">not a duplicate</tspan><tspan
             x="-51.557899 -47.666035 -45.7201 -43.774166 -39.105328 -35.213459 -31.713581 -27.821714"
             y="11.4508"
             sodipodi:role="line"
             id="tspan116">9. Saves</tspan></text><text
           transform="matrix(0.999612,0,0,-1,269.504,57.2363)"
           style="font-variant:normal;font-weight:normal;font-size:7.99981px;font-family:'Courier New';-inkscape-font-specification:Courier;writing-mode:lr-tb;fill:#100f0d;fill-opacity:1;fill-rule:nonzero;stroke:none"
           id="text122"><tspan
             x="0 4.7998862 9.5997725 14.399658 19.199545 23.99943 28.799316 33.599201 38.39909 43.198975"
             y="0"
             sodipodi:role="line"
             id="tspan120">request-id</tspan></text><text
           transform="matrix(0.999612,0,0,-1,2.30977,210.873)"
           style="font-variant:normal;font-weight:normal;font-size:6.99976px;font-family:Arial;-inkscape-font-specification:ArialMT;writing-mode:lr-tb;fill:#100f0d;fill-opacity:1;fill-rule:nonzero;stroke:none"
           id="text126"><tspan
             x="0 3.8918664 7.6564846 11.672106 13.226052 19.056852 22.948719 26.840586 30.732452"
             y="0"
             sodipodi:role="line"
             id="tspan124">4.Timeout</tspan></text></g><g
         id="g128"
         transform="scale(10)"><text
           transform="matrix(0.999612,0,0,-1,47.8309,122.975)"
           style="font-variant:normal;font-weight:normal;font-size:6.99976px;font-family:Arial;-inkscape-font-specification:ArialMT;writing-mode:lr-tb;fill:#2f2d2e;fill-opacity:1;fill-rule:nonzero;stroke:none"
           id="text134"><tspan
             x="0 5.8308001 9.7226667 11.276613 12.83056 14.776493 18.276373 22.16824 24.499161 27.999041 29.552986 33.052868"
             y="0"
             sodipodi:role="line"
             id="tspan130">Mail service</tspan><tspan
             x="2.5209 4.0748467 7.9667134 11.466594 13.412526 17.304394 21.19626 24.69614 28.588007 30.533939"
             y="8.3999996"
             sodipodi:role="line"
             id="tspan132">instance 1</tspan></text></g><g
         id="g136"
         transform="scale(10)"><text
           transform="matrix(0.999612,0,0,-1,66.3008,232.977)"
           style="font-variant:normal;font-weight:normal;font-size:6.99976px;font-family:Arial;-inkscape-font-specification:ArialMT;writing-mode:lr-tb;fill:#100f0d;fill-opacity:1;fill-rule:nonzero;stroke:none"
           id="text150"><tspan
             x="0 3.8918664 5.8378 7.7837329 12.83756 16.729427 20.621292 22.567226 26.459093 28.405025 30.735947 34.627811 38.51968 42.411545 46.303413 49.803291"
             y="0"
             sodipodi:role="line"
             id="tspan138">2. Route request</tspan><tspan
             x="7.7791901 9.7251234 13.61699 15.562923 17.116869 21.008736 24.508615 26.45455 30.346416 34.238281 37.738163 41.630028 43.575962"
             y="8.3999996"
             sodipodi:role="line"
             id="tspan140">to instance 1</tspan><tspan
             x="144.55219 148.44406 150.38998 152.33592 157.38976 161.28162 165.17348 167.11942 171.01128 172.95721 175.28813 179.18001 183.07187 186.96373 190.85561 194.35548"
             y="0"
             sodipodi:role="line"
             id="tspan142">6. Route request</tspan><tspan
             x="152.33177 154.27771 158.16957 160.11551 161.66945 165.56131 169.0612 171.00713 174.899 178.79086 182.29074 186.1826 188.12854"
             y="8.3999996"
             sodipodi:role="line"
             id="tspan144">to instance 2</tspan><tspan
             x="86.773872 91.827698 95.719566 97.665497 101.55737 105.44923 109.34109 112.84097 116.73284 118.67878 123.7326 125.28655 127.23248"
             y="201.166"
             sodipodi:role="line"
             id="tspan146">Database with</tspan><tspan
             x="92.80394 96.695808 99.026726 102.91859 106.41847 110.31034 113.81022 117.3101 121.20197"
             y="209.56599"
             sodipodi:role="line"
             id="tspan148">processed</tspan></text><text
           transform="matrix(0.999612,0,0,-1,148.823,13.8109)"
           style="font-variant:normal;font-weight:normal;font-size:7.99981px;font-family:'Courier New';-inkscape-font-specification:Courier;writing-mode:lr-tb;fill:#100f0d;fill-opacity:1;fill-rule:nonzero;stroke:none"
           id="text154"><tspan
             x="0 4.7998862 9.5997725 14.399658 19.199545 23.99943 28.799316 33.599201 38.39909 43.198975 47.998859"
             y="0"
             sodipodi:role="line"
             id="tspan152">request-ids</tspan></text><text
           transform="matrix(0.999612,0,0,-1,128.338,259.971)"
           style="font-variant:normal;font-weight:normal;font-size:6.99976px;font-family:Arial;-inkscape-font-specification:ArialMT;writing-mode:lr-tb;fill:#100f0d;fill-opacity:1;fill-rule:nonzero;stroke:none"
           id="text160"><tspan
             x="0 3.8918664 5.8378 7.7837329 12.452573 16.34444 20.236305"
             y="0"
             sodipodi:role="line"
             id="tspan156">1. Send</tspan><tspan
             x="7.7795801 10.1105 14.002367 17.894234 21.7861 25.677967 29.177847"
             y="8.3999996"
             sodipodi:role="line"
             id="tspan158">request</tspan></text></g><g
         id="g162"
         transform="scale(10)"><text
           transform="matrix(0.999612,0,0,-1,260.439,122.991)"
           style="font-variant:normal;font-weight:normal;font-size:6.99976px;font-family:Arial;-inkscape-font-specification:ArialMT;writing-mode:lr-tb;fill:#2f2d2e;fill-opacity:1;fill-rule:nonzero;stroke:none"
           id="text168"><tspan
             x="0 5.8308001 9.7226667 11.276613 12.83056 14.776493 18.276373 22.16824 24.499161 27.999041 29.552986 33.052868"
             y="0"
             sodipodi:role="line"
             id="tspan164">Mail service</tspan><tspan
             x="2.5220699 4.0760169 7.9678831 11.467763 13.413696 17.305563 21.19743 24.697309 28.589176 30.53511"
             y="8.4007797"
             sodipodi:role="line"
             id="tspan166">instance 2</tspan></text></g><g
         id="g170"
         transform="scale(10)"><text
           transform="matrix(0.999612,0,0,-1,167.367,221.587)"
           style="font-variant:normal;font-weight:normal;font-size:6.99976px;font-family:Arial;-inkscape-font-specification:ArialMT;writing-mode:lr-tb;fill:#100f0d;fill-opacity:1;fill-rule:nonzero;stroke:none"
           id="text176"><tspan
             x="0 3.8918664 7.7837329 11.6756"
             y="0"
             sodipodi:role="line"
             id="tspan172">Load</tspan><tspan
             x="-5.6392999 -1.7474334 2.144433 3.6983798 7.5902462 11.482113 14.981993 18.873859"
             y="8.3999996"
             sodipodi:role="line"
             id="tspan174">balancer</tspan></text></g></g></g></svg>
