<?xml version="1.0" encoding="UTF-8" standalone="no"?>
<!-- Created with Inkscape (http://www.inkscape.org/) -->

<svg
   version="1.1"
   id="svg2"
   xml:space="preserve"
   width="289.33334"
   height="229.33333"
   viewBox="0 0 289.33334 229.33333"
   sodipodi:docname="10-15.eps"
   xmlns:inkscape="http://www.inkscape.org/namespaces/inkscape"
   xmlns:sodipodi="http://sodipodi.sourceforge.net/DTD/sodipodi-0.dtd"
   xmlns="http://www.w3.org/2000/svg"
   xmlns:svg="http://www.w3.org/2000/svg"><defs
     id="defs6" /><sodipodi:namedview
     id="namedview4"
     pagecolor="#ffffff"
     bordercolor="#666666"
     borderopacity="1.0"
     inkscape:pageshadow="2"
     inkscape:pageopacity="0.0"
     inkscape:pagecheckerboard="0" /><g
     id="g8"
     inkscape:groupmode="layer"
     inkscape:label="ink_ext_XXXXXX"
     transform="matrix(1.3333333,0,0,-1.3333333,0,229.33333)"><g
       id="g10"
       transform="scale(0.1)"><path
         d="M 95.6875,1638.3 V 48.8125"
         style="fill:none;stroke:#100f0d;stroke-width:4.9691;stroke-linecap:butt;stroke-linejoin:miter;stroke-miterlimit:10;stroke-dasharray:none;stroke-opacity:1"
         id="path12" /><path
         d="M 81.2578,58.6523 95.6875,4.79297 110.125,58.6523 Z"
         style="fill:#100f0d;fill-opacity:1;fill-rule:nonzero;stroke:none"
         id="path14" /><g
         id="g16"
         transform="scale(10)"><text
           transform="matrix(1,0,0,-1,0.682422,166.398)"
           style="font-variant:normal;font-weight:normal;font-size:6.99976px;font-family:Arial;-inkscape-font-specification:ArialMT;writing-mode:lr-tb;fill:#100f0d;fill-opacity:1;fill-rule:nonzero;stroke:none"
           id="text22"><tspan
             x="0 4.0152345 5.5691814 11.399981"
             y="0"
             sodipodi:role="line"
             id="tspan18">Time</tspan><tspan
             x="55.389099 59.665955 63.557819 65.888741 69.780609 73.67247 77.564339 79.510269"
             y="16.124201"
             sodipodi:role="line"
             id="tspan20">Thread 1</tspan></text></g><path
         d="m 347,1310.2 h 753.92 c 37.23,0 66.31,-30.25 66.31,-66.32 V 933.234 c 0,-37.222 -30.24,-66.312 -66.31,-66.312 H 347 c -37.234,0 -66.32,30.246 -66.32,66.312 v 310.646 c 0,36.07 29.086,66.32 66.32,66.32"
         style="fill:#e0f2c3;fill-opacity:1;fill-rule:nonzero;stroke:none"
         id="path24" /><path
         d="m 347,1310.2 h 753.92 c 37.23,0 66.31,-30.25 66.31,-66.32 V 933.234 c 0,-37.222 -30.24,-66.312 -66.31,-66.312 H 347 c -37.234,0 -66.32,30.246 -66.32,66.312 v 310.646 c 0,36.07 29.086,66.32 66.32,66.32 z"
         style="fill:none;stroke:#298a3c;stroke-width:4.9691;stroke-linecap:butt;stroke-linejoin:miter;stroke-miterlimit:4;stroke-dasharray:none;stroke-opacity:1"
         id="path26" /><g
         id="g28"
         transform="scale(10)"><text
           transform="matrix(1,0,0,-1,42.5574,111.57)"
           style="font-variant:normal;font-weight:normal;font-size:6.99976px;font-family:Arial;-inkscape-font-specification:ArialMT;writing-mode:lr-tb;fill:#100f0d;fill-opacity:1;fill-rule:nonzero;stroke:none"
           id="text34"><tspan
             x="0 1.9459332 5.8378 9.3376799 13.229547 15.560467 17.506399 19.452333 21.006279 22.952213 24.898146 28.790012 32.681881 36.181759 40.073627 43.965492 45.911427 47.857361 51.749226 55.64109"
             y="0"
             sodipodi:role="line"
             id="tspan30">Insert if absent and</tspan><tspan
             x="0.38085899 2.7117791 6.6036458 8.5495787 12.441445 14.772366 18.664232 20.610165 22.556099 26.447966 30.339832 32.285767 36.177631 40.0695 42.01543 45.515312 49.407177 55.23798"
             y="9.7726603"
             sodipodi:role="line"
             id="tspan32">return the outcome</tspan></text></g><path
         d="M 1344.09,711.012 H 2098 c 37.23,0 66.32,-30.246 66.32,-66.317 v -310.64 c 0,-37.231 -30.25,-66.317 -66.32,-66.317 h -753.91 c -37.23,0 -66.32,30.254 -66.32,66.317 v 310.64 c 0,37.227 30.24,66.317 66.32,66.317"
         style="fill:#c9e4f3;fill-opacity:1;fill-rule:nonzero;stroke:none"
         id="path36" /><path
         d="M 1344.09,711.012 H 2098 c 37.23,0 66.32,-30.246 66.32,-66.317 v -310.64 c 0,-37.231 -30.25,-66.317 -66.32,-66.317 h -753.91 c -37.23,0 -66.32,30.254 -66.32,66.317 v 310.64 c 0,37.227 30.24,66.317 66.32,66.317 z"
         style="fill:none;stroke:#293985;stroke-width:4.9691;stroke-linecap:butt;stroke-linejoin:miter;stroke-miterlimit:4;stroke-dasharray:none;stroke-opacity:1"
         id="path38" /><g
         id="g40"
         transform="scale(10)"><text
           transform="matrix(1,0,0,-1,142.346,56.5398)"
           style="font-variant:normal;font-weight:normal;font-size:6.99976px;font-family:Arial;-inkscape-font-specification:ArialMT;writing-mode:lr-tb;fill:#100f0d;fill-opacity:1;fill-rule:nonzero;stroke:none"
           id="text48"><tspan
             x="0 1.9459332 5.8378 9.3376799 13.229547 15.560467 17.506399 19.452333 21.006279 22.952213 24.898146 28.790012 32.681881 36.181759 40.073627 43.965492 45.911427 47.857361 51.749226 55.64109"
             y="0"
             sodipodi:role="line"
             id="tspan42">Insert if absent and</tspan><tspan
             x="0.38046899 2.7113891 6.6032557 8.5491886 12.441055 14.771976 18.663841 20.609776 22.555708 26.447575 30.339441 32.285374 36.177242 40.069107 42.015041 45.514923 49.406788 55.237587"
             y="9.7742205"
             sodipodi:role="line"
             id="tspan44">return the outcome</tspan><tspan
             x="-7.590621"
             y="19.546089"
             id="tspan46">—</tspan></text><text
           transform="matrix(1,0,0,-1,141.75538,36.99371)"
           style="font-variant:normal;font-weight:bold;font-size:6.99976px;font-family:Arial;-inkscape-font-specification:Arial-BoldMT-Bold;writing-mode:lr-tb;fill:#100f0d;fill-opacity:1;fill-rule:nonzero;stroke:none"
           id="text52"><tspan
             x="0 1.9459332 4.2768536 6.2227864 8.1687202 12.060587 14.006519 17.898386 19.84432 22.567226 26.459093 30.35096 34.627811 38.51968 40.465614 42.411545 46.6884 50.580265 54.472134 57.195038 59.525959 63.417824"
             y="0"
             sodipodi:role="line"
             id="tspan50">it is already inserted</tspan></text><text
           transform="matrix(1,0,0,-1,158.20028,150.27371)"
           style="font-variant:normal;font-weight:normal;font-size:6.99976px;font-family:Arial;-inkscape-font-specification:ArialMT;writing-mode:lr-tb;fill:#100f0d;fill-opacity:1;fill-rule:nonzero;stroke:none"
           id="text56"><tspan
             x="0 4.2768536 8.1687202 10.49964 14.391506 18.283373 22.17524 24.121174"
             y="0"
             sodipodi:role="line"
             id="tspan54">Thread 2</tspan></text></g></g></g></svg>
