<?xml version="1.0" encoding="UTF-8" standalone="no"?>
<!-- Created with Inkscape (http://www.inkscape.org/) -->

<svg
   version="1.1"
   id="svg2"
   xml:space="preserve"
   width="353.33334"
   height="226.66667"
   viewBox="0 0 353.33334 226.66667"
   sodipodi:docname="10-2.eps"
   xmlns:inkscape="http://www.inkscape.org/namespaces/inkscape"
   xmlns:sodipodi="http://sodipodi.sourceforge.net/DTD/sodipodi-0.dtd"
   xmlns="http://www.w3.org/2000/svg"
   xmlns:svg="http://www.w3.org/2000/svg"><defs
     id="defs6" /><sodipodi:namedview
     id="namedview4"
     pagecolor="#ffffff"
     bordercolor="#666666"
     borderopacity="1.0"
     inkscape:pageshadow="2"
     inkscape:pageopacity="0.0"
     inkscape:pagecheckerboard="0" /><g
     id="g8"
     inkscape:groupmode="layer"
     inkscape:label="ink_ext_XXXXXX"
     transform="matrix(1.3333333,0,0,-1.3333333,0,226.66667)"><g
       id="g10"
       transform="scale(0.1)"><path
         d="M 858.879,1269.67 H 1749.58"
         style="fill:none;stroke:#100f0d;stroke-width:5.0003;stroke-linecap:butt;stroke-linejoin:miter;stroke-miterlimit:10;stroke-dasharray:none;stroke-opacity:1"
         id="path12" /><path
         d="m 1739.68,1255.14 54.2,14.53 -54.2,14.52 z"
         style="fill:#100f0d;fill-opacity:1;fill-rule:nonzero;stroke:none"
         id="path14" /><g
         id="g16"
         transform="scale(10)"><text
           transform="matrix(1,0,0,-1,124.835,129.935)"
           style="font-variant:normal;font-weight:normal;font-size:7.00515px;font-family:Arial;-inkscape-font-specification:ArialMT;writing-mode:lr-tb;fill:#100f0d;fill-opacity:1;fill-rule:nonzero;stroke:none"
           id="text20"><tspan
             x="0 5.0577183 8.9525814 10.507725 12.062868"
             y="0"
             sodipodi:role="line"
             id="tspan18">Calls</tspan></text></g><path
         d="m 434.883,1693.67 c 234.164,0 423.996,-189.83 423.996,-424 0,-234.17 -189.832,-423.998 -423.996,-423.998 -234.172,0 -424.0041,189.828 -424.0041,423.998 0,234.17 189.8321,424 424.0041,424"
         style="fill:#c9e4f3;fill-opacity:1;fill-rule:nonzero;stroke:none"
         id="path22" /><path
         d="m 434.883,1693.67 c 234.164,0 423.996,-189.83 423.996,-424 0,-234.17 -189.832,-423.998 -423.996,-423.998 -234.172,0 -424.0041,189.828 -424.0041,423.998 0,234.17 189.8321,424 424.0041,424 z"
         style="fill:none;stroke:#293984;stroke-width:5.0003;stroke-linecap:butt;stroke-linejoin:miter;stroke-miterlimit:4;stroke-dasharray:none;stroke-opacity:1"
         id="path24" /><g
         id="g26"
         transform="scale(10)"><text
           transform="matrix(1,0,0,-1,21.6422,124.919)"
           style="font-variant:normal;font-weight:normal;font-size:7.00515px;font-family:Arial;-inkscape-font-specification:ArialMT;writing-mode:lr-tb;fill:#100f0d;fill-opacity:1;fill-rule:nonzero;stroke:none"
           id="text30"><tspan
             x="0 4.6724353 8.5672989 12.462162 14.017305 15.572449 19.075024 22.969887 24.917318 26.472462 30.367325 35.830482"
             y="0"
             sodipodi:role="line"
             id="tspan28">ApplicationA</tspan></text></g><path
         d="M 2217.88,845.672 V 335.668 H 434.883 v 465.707"
         style="fill:none;stroke:#100f0d;stroke-width:5.0003;stroke-linecap:butt;stroke-linejoin:miter;stroke-miterlimit:10;stroke-dasharray:none;stroke-opacity:1"
         id="path32" /><path
         d="m 449.406,791.465 -14.523,54.207 -14.528,-54.207 z"
         style="fill:#100f0d;fill-opacity:1;fill-rule:nonzero;stroke:none"
         id="path34" /><g
         id="g36"
         transform="scale(10)"><text
           transform="matrix(1,0,0,-1,115.143,38.9246)"
           style="font-variant:normal;font-weight:normal;font-size:7.00515px;font-family:Arial;-inkscape-font-specification:ArialMT;writing-mode:lr-tb;fill:#100f0d;fill-opacity:1;fill-rule:nonzero;stroke:none"
           id="text40"><tspan
             x="0 5.0577183 8.9525814 12.455156 16.350019 20.244883 24.139748 27.642323"
             y="0"
             sodipodi:role="line"
             id="tspan38">Response</tspan></text></g><path
         d="m 2217.88,1693.67 c 234.17,0 424,-189.83 424,-424 0,-234.17 -189.83,-423.998 -424,-423.998 -234.17,0 -424,189.828 -424,423.998 0,234.17 189.83,424 424,424"
         style="fill:#fafbfb;fill-opacity:1;fill-rule:nonzero;stroke:none"
         id="path42" /><path
         d="m 2217.88,1693.67 c 234.17,0 424,-189.83 424,-424 0,-234.17 -189.83,-423.998 -424,-423.998 -234.17,0 -424,189.828 -424,423.998 0,234.17 189.83,424 424,424 z"
         style="fill:none;stroke:#5e6061;stroke-width:5.0003;stroke-linecap:butt;stroke-linejoin:miter;stroke-miterlimit:4;stroke-dasharray:none;stroke-opacity:1"
         id="path44" /><g
         id="g46"
         transform="scale(10)"><text
           transform="matrix(1,0,0,-1,201.422,124.919)"
           style="font-variant:normal;font-weight:normal;font-size:7.00515px;font-family:Arial;-inkscape-font-specification:ArialMT;writing-mode:lr-tb;fill:#100f0d;fill-opacity:1;fill-rule:nonzero;stroke:none"
           id="text50"><tspan
             x="0 5.83529 9.7301531 11.285296 12.84044 14.787871 18.290447 22.18531 24.518024 28.020599 29.575743 33.07832"
             y="0"
             sodipodi:role="line"
             id="tspan48">Mail service</tspan></text></g><path
         d="m 291.82,625.789 73.61,42.5 212,-367.191 -73.61,-42.5 -212,367.191"
         style="fill:#f792a4;fill-opacity:1;fill-rule:nonzero;stroke:none"
         id="path52" /><path
         d="m 291.82,625.789 73.61,42.5 212,-367.191 -73.61,-42.5 z"
         style="fill:none;stroke:#b74248;stroke-width:5.0003;stroke-linecap:butt;stroke-linejoin:miter;stroke-miterlimit:4;stroke-dasharray:none;stroke-opacity:1"
         id="path54" /><path
         d="M 254.664,343.594 554.477,643.406 614.582,583.297 314.77,283.5 254.664,343.594"
         style="fill:#f792a4;fill-opacity:1;fill-rule:nonzero;stroke:none"
         id="path56" /><path
         d="M 254.664,343.594 554.477,643.406 614.582,583.297 314.77,283.5 Z"
         style="fill:none;stroke:#b74248;stroke-width:5.0003;stroke-linecap:butt;stroke-linejoin:miter;stroke-miterlimit:4;stroke-dasharray:none;stroke-opacity:1"
         id="path58" /><g
         id="g60"
         transform="scale(10)"><text
           transform="matrix(1,0,0,-1,28.4047,10.318)"
           style="font-variant:normal;font-weight:normal;font-size:7.00515px;font-family:Arial;-inkscape-font-specification:ArialMT;writing-mode:lr-tb;fill:#100f0d;fill-opacity:1;fill-rule:nonzero;stroke:none"
           id="text66"><tspan
             x="0 5.0577183 8.9525814 10.900013 15.957731 19.852594 22.18531"
             y="0"
             sodipodi:role="line"
             id="tspan62">Network</tspan><tspan
             x="0 3.8948634 7.7897267 10.122441 12.069874 13.625017 15.572449 17.127592 21.022455"
             y="8.4011698"
             sodipodi:role="line"
             id="tspan64">partition</tspan></text></g></g></g></svg>
