<?xml version="1.0" encoding="UTF-8" standalone="no"?>
<!-- Created with Inkscape (http://www.inkscape.org/) -->

<svg
   version="1.1"
   id="svg2"
   xml:space="preserve"
   width="342.66666"
   height="202.66667"
   viewBox="0 0 342.66666 202.66667"
   sodipodi:docname="10-3.eps"
   xmlns:inkscape="http://www.inkscape.org/namespaces/inkscape"
   xmlns:sodipodi="http://sodipodi.sourceforge.net/DTD/sodipodi-0.dtd"
   xmlns="http://www.w3.org/2000/svg"
   xmlns:svg="http://www.w3.org/2000/svg"><defs
     id="defs6" /><sodipodi:namedview
     id="namedview4"
     pagecolor="#ffffff"
     bordercolor="#666666"
     borderopacity="1.0"
     inkscape:pageshadow="2"
     inkscape:pageopacity="0.0"
     inkscape:pagecheckerboard="0" /><g
     id="g8"
     inkscape:groupmode="layer"
     inkscape:label="ink_ext_XXXXXX"
     transform="matrix(1.3333333,0,0,-1.3333333,0,202.66667)"><g
       id="g10"
       transform="scale(0.1)"><path
         d="M 539.395,895.152 H 1078.09"
         style="fill:none;stroke:#100f0d;stroke-width:5.0003;stroke-linecap:butt;stroke-linejoin:miter;stroke-miterlimit:10;stroke-dasharray:none;stroke-opacity:1"
         id="path12" /><path
         d="m 1068.2,880.625 54.19,14.527 -54.19,14.524 z"
         style="fill:#100f0d;fill-opacity:1;fill-rule:nonzero;stroke:none"
         id="path14" /><g
         id="g16"
         transform="scale(10)"><text
           transform="matrix(1,0,0,-1,71.4191,92.4902)"
           style="font-variant:normal;font-weight:normal;font-size:6.99976px;font-family:Arial;-inkscape-font-specification:ArialMT;writing-mode:lr-tb;fill:#100f0d;fill-opacity:1;fill-rule:nonzero;stroke:none"
           id="text20"><tspan
             x="0 3.8918664 5.8378 7.7837329 12.83756 16.729427 18.283373 19.83732"
             y="0"
             sodipodi:role="line"
             id="tspan18">1. Calls</tspan></text></g><path
         d="m 274.391,1160.16 v 265.99 H 1387.39 v -221.7"
         style="fill:none;stroke:#100f0d;stroke-width:5.0003;stroke-linecap:butt;stroke-linejoin:miter;stroke-miterlimit:10;stroke-dasharray:none;stroke-opacity:1"
         id="path22" /><path
         d="m 1372.86,1214.36 14.53,-54.2 14.54,54.2 z"
         style="fill:#100f0d;fill-opacity:1;fill-rule:nonzero;stroke:none"
         id="path24" /><g
         id="g26"
         transform="scale(10)"><text
           transform="matrix(1,0,0,-1,56.05,146.807)"
           style="font-variant:normal;font-weight:normal;font-size:6.99976px;font-family:Arial;-inkscape-font-specification:ArialMT;writing-mode:lr-tb;fill:#100f0d;fill-opacity:1;fill-rule:nonzero;stroke:none"
           id="text30"><tspan
             x="0 3.8918664 5.8378 7.7837329 12.83756 16.729427 18.67536 21.006279 24.506159 26.452093 30.34396 34.235825 38.127693 40.073627 43.573505 47.465374 49.019318 50.573265"
             y="0"
             sodipodi:role="line"
             id="tspan28">4. Retry and calls</tspan></text></g><path
         d="m 274.391,1160.16 c 146.359,0 265.004,-118.66 265.004,-265.008 0,-146.359 -118.645,-265 -265.004,-265 -146.352,0 -264.99647,118.641 -264.99647,265 0,146.348 118.64447,265.008 264.99647,265.008"
         style="fill:#c9e4f3;fill-opacity:1;fill-rule:nonzero;stroke:none"
         id="path32" /><path
         d="m 274.391,1160.16 c 146.359,0 265.004,-118.66 265.004,-265.008 0,-146.359 -118.645,-265 -265.004,-265 -146.352,0 -264.99647,118.641 -264.99647,265 0,146.348 118.64447,265.008 264.99647,265.008 z"
         style="fill:none;stroke:#293985;stroke-width:5.0003;stroke-linecap:butt;stroke-linejoin:miter;stroke-miterlimit:4;stroke-dasharray:none;stroke-opacity:1"
         id="path34" /><g
         id="g36"
         transform="scale(10)"><text
           transform="matrix(1,0,0,-1,9.29219,87.4785)"
           style="font-variant:normal;font-weight:normal;font-size:6.99976px;font-family:Arial;-inkscape-font-specification:ArialMT;writing-mode:lr-tb;fill:#100f0d;fill-opacity:1;fill-rule:nonzero;stroke:none"
           id="text40"><tspan
             x="0 4.6688399 8.5607061 12.452573 14.006519 15.560467 19.060347 22.952213 24.898146 26.452093 30.34396 35.802731"
             y="0"
             sodipodi:role="line"
             id="tspan38">ApplicationA</tspan></text></g><path
         d="M 1387.39,630.152 V 312.156 H 274.391 v 273.699"
         style="fill:none;stroke:#100f0d;stroke-width:5.0003;stroke-linecap:butt;stroke-linejoin:miter;stroke-miterlimit:10;stroke-dasharray:none;stroke-opacity:1"
         id="path42" /><path
         d="m 288.918,575.941 -14.527,54.211 -14.524,-54.211 z"
         style="fill:#100f0d;fill-opacity:1;fill-rule:nonzero;stroke:none"
         id="path44" /><g
         id="g46"
         transform="scale(10)"><text
           transform="matrix(1,0,0,-1,62.466,35.3844)"
           style="font-variant:normal;font-weight:normal;font-size:6.99976px;font-family:Arial;-inkscape-font-specification:ArialMT;writing-mode:lr-tb;fill:#100f0d;fill-opacity:1;fill-rule:nonzero;stroke:none"
           id="text50"><tspan
             x="0 3.8918664 5.8378 7.7837329 12.83756 16.729427 20.229307 24.121174 28.013039 31.904905 35.404785"
             y="0"
             sodipodi:role="line"
             id="tspan48">2. Response</tspan></text></g><path
         d="m 1653.39,895.152 h 379.7"
         style="fill:none;stroke:#100f0d;stroke-width:5.0003;stroke-linecap:butt;stroke-linejoin:miter;stroke-miterlimit:10;stroke-dasharray:none;stroke-opacity:1"
         id="path52" /><path
         d="m 2023.19,880.625 54.2,14.527 -54.2,14.524 z"
         style="fill:#100f0d;fill-opacity:1;fill-rule:nonzero;stroke:none"
         id="path54" /><g
         id="g56"
         transform="scale(10)"><text
           transform="matrix(1,0,0,-1,176.615,92.5117)"
           style="font-variant:normal;font-weight:normal;font-size:6.99976px;font-family:Arial;-inkscape-font-specification:ArialMT;writing-mode:lr-tb;fill:#100f0d;fill-opacity:1;fill-rule:nonzero;stroke:none"
           id="text60"><tspan
             x="0 4.6688399 8.5607061 12.452573 16.34444"
             y="0"
             sodipodi:role="line"
             id="tspan58">Sends</tspan></text></g><path
         d="m 1575.39,708.148 v -105 h 457.7"
         style="fill:none;stroke:#100f0d;stroke-width:5.0003;stroke-linecap:butt;stroke-linejoin:miter;stroke-miterlimit:10;stroke-dasharray:none;stroke-opacity:1"
         id="path62" /><path
         d="m 2023.19,588.617 54.2,14.531 -54.2,14.532 z"
         style="fill:#100f0d;fill-opacity:1;fill-rule:nonzero;stroke:none"
         id="path64" /><g
         id="g66"
         transform="scale(10)"><text
           transform="matrix(1,0,0,-1,169.796,72.9316)"
           style="font-variant:normal;font-weight:normal;font-size:6.99976px;font-family:Arial;-inkscape-font-specification:ArialMT;writing-mode:lr-tb;fill:#100f0d;fill-opacity:1;fill-rule:nonzero;stroke:none"
           id="text72"><tspan
             x="0 4.6688399 8.5607061 12.452573 16.34444 19.84432 21.790253"
             y="0"
             sodipodi:role="line"
             id="tspan68">Sends a</tspan><tspan
             x="-2.1398399 1.7520266 5.6438932 9.5357599 11.089706 12.643653 16.143534 20.0354 21.981333"
             y="8.4003897"
             sodipodi:role="line"
             id="tspan70">duplicate</tspan></text></g><path
         d="m 1387.39,1160.16 c 146.35,0 265,-118.66 265,-265.008 0,-146.359 -118.65,-265 -265,-265 -146.35,0 -265,118.641 -265,265 0,146.348 118.65,265.008 265,265.008"
         style="fill:#fafbfb;fill-opacity:1;fill-rule:nonzero;stroke:none"
         id="path74" /><path
         d="m 1387.39,1160.16 c 146.35,0 265,-118.66 265,-265.008 0,-146.359 -118.65,-265 -265,-265 -146.35,0 -265,118.641 -265,265 0,146.348 118.65,265.008 265,265.008 z"
         style="fill:none;stroke:#5e6061;stroke-width:5.0003;stroke-linecap:butt;stroke-linejoin:miter;stroke-miterlimit:4;stroke-dasharray:none;stroke-opacity:1"
         id="path76" /><g
         id="g78"
         transform="scale(10)"><text
           transform="matrix(1,0,0,-1,120.3,87.4785)"
           style="font-variant:normal;font-weight:normal;font-size:6.99976px;font-family:Arial;-inkscape-font-specification:ArialMT;writing-mode:lr-tb;fill:#100f0d;fill-opacity:1;fill-rule:nonzero;stroke:none"
           id="text82"><tspan
             x="0 5.8308001 9.7226667 11.276613 12.83056 14.776493 18.276373 22.16824 24.499161 27.999041 29.552986 33.052868"
             y="0"
             sodipodi:role="line"
             id="tspan80">Mail service</tspan></text></g><path
         d="m 184.684,493.195 45.898,26.508 132.5,-229.488 -45.894,-26.512 -132.504,229.492"
         style="fill:#f792a4;fill-opacity:1;fill-rule:nonzero;stroke:none"
         id="path84" /><path
         d="m 184.684,493.195 45.898,26.508 132.5,-229.488 -45.894,-26.512 z"
         style="fill:none;stroke:#b74248;stroke-width:5.0003;stroke-linecap:butt;stroke-linejoin:miter;stroke-miterlimit:3.99951;stroke-dasharray:none;stroke-opacity:1"
         id="path86" /><path
         d="M 161.418,316.805 348.801,504.184 386.277,466.703 198.895,279.324 161.418,316.805"
         style="fill:#f792a4;fill-opacity:1;fill-rule:nonzero;stroke:none"
         id="path88" /><path
         d="M 161.418,316.805 348.801,504.184 386.277,466.703 198.895,279.324 Z"
         style="fill:none;stroke:#b74248;stroke-width:5.0003;stroke-linecap:butt;stroke-linejoin:miter;stroke-miterlimit:3.99976;stroke-dasharray:none;stroke-opacity:1"
         id="path90" /><g
         id="g92"
         transform="scale(10)"><text
           transform="matrix(1,0,0,-1,25.5723,18.2633)"
           style="font-variant:normal;font-weight:normal;font-size:6.99976px;font-family:Arial;-inkscape-font-specification:ArialMT;writing-mode:lr-tb;fill:#100f0d;fill-opacity:1;fill-rule:nonzero;stroke:none"
           id="text100"><tspan
             x="0 3.8918664"
             y="0"
             sodipodi:role="line"
             id="tspan94">3.</tspan><tspan
             x="-9.9171896 -4.8633633 -0.9714967 0.97443658 6.0282631 9.9201298 12.25105"
             y="8.3988304"
             sodipodi:role="line"
             id="tspan96">Network</tspan><tspan
             x="-9.532815 -5.6409483 -1.7490819 0.58183819 2.5277715 4.081718 6.0276513 7.5815983 11.473465"
             y="16.799999"
             sodipodi:role="line"
             id="tspan98">partition</tspan></text></g><path
         d="m 2109.36,975.156 h 430 c 13,0 24,-11.004 24,-24.008 V 840.156 c 0,-13.008 -11,-24.008 -24,-24.008 h -430 c -13,0 -23.99,11 -23.99,24.008 v 110.992 c 0,13.004 9.99,24.008 23.99,24.008"
         style="fill:#fcfccf;fill-opacity:1;fill-rule:nonzero;stroke:none"
         id="path102" /><path
         d="m 2109.36,975.156 h 430 c 13,0 24,-11.004 24,-24.008 V 840.156 c 0,-13.008 -11,-24.008 -24,-24.008 h -430 c -13,0 -23.99,11 -23.99,24.008 v 110.992 c 0,13.004 9.99,24.008 23.99,24.008 z"
         style="fill:none;stroke:#c49d19;stroke-width:5.0003;stroke-linecap:butt;stroke-linejoin:miter;stroke-miterlimit:4;stroke-dasharray:none;stroke-opacity:1"
         id="path104" /><g
         id="g106"
         transform="scale(10)"><text
           transform="matrix(1,0,0,-1,218.052,87.6668)"
           style="font-variant:normal;font-weight:normal;font-size:7.99981px;font-family:'Courier New';-inkscape-font-specification:Courier;writing-mode:lr-tb;fill:#100f0d;fill-opacity:1;fill-rule:nonzero;stroke:none"
           id="text110"><tspan
             x="0 4.7998862 9.5997725 14.399658 19.199545 23.99943"
             y="0"
             sodipodi:role="line"
             id="tspan108">Mail-1</tspan></text></g><path
         d="m 2109.36,683.148 h 430 c 13,0 24,-10.996 24,-24.003 V 548.148 c 0,-12.996 -11,-24.003 -24,-24.003 h -430 c -13,0 -23.99,11.007 -23.99,24.003 v 110.997 c 0,13.007 9.99,24.003 23.99,24.003"
         style="fill:#fcfccf;fill-opacity:1;fill-rule:nonzero;stroke:none"
         id="path112" /><path
         d="m 2109.36,683.148 h 430 c 13,0 24,-10.996 24,-24.003 V 548.148 c 0,-12.996 -11,-24.003 -24,-24.003 h -430 c -13,0 -23.99,11.007 -23.99,24.003 v 110.997 c 0,13.007 9.99,24.003 23.99,24.003 z"
         style="fill:none;stroke:#c49d19;stroke-width:5.0003;stroke-linecap:butt;stroke-linejoin:miter;stroke-miterlimit:4;stroke-dasharray:none;stroke-opacity:1"
         id="path114" /><g
         id="g116"
         transform="scale(10)"><text
           transform="matrix(1,0,0,-1,218.052,58.4969)"
           style="font-variant:normal;font-weight:normal;font-size:7.99981px;font-family:'Courier New';-inkscape-font-specification:Courier;writing-mode:lr-tb;fill:#100f0d;fill-opacity:1;fill-rule:nonzero;stroke:none"
           id="text120"><tspan
             x="0 4.7998862 9.5997725 14.399658 19.199545 23.99943"
             y="0"
             sodipodi:role="line"
             id="tspan118">Mail-1</tspan></text></g></g></g></svg>
