<?xml version="1.0" encoding="UTF-8" standalone="no"?>
<!-- Created with Inkscape (http://www.inkscape.org/) -->

<svg
   version="1.1"
   id="svg2"
   xml:space="preserve"
   width="428"
   height="154.66667"
   viewBox="0 0 428 154.66667"
   sodipodi:docname="10-4.eps"
   xmlns:inkscape="http://www.inkscape.org/namespaces/inkscape"
   xmlns:sodipodi="http://sodipodi.sourceforge.net/DTD/sodipodi-0.dtd"
   xmlns="http://www.w3.org/2000/svg"
   xmlns:svg="http://www.w3.org/2000/svg"><defs
     id="defs6" /><sodipodi:namedview
     id="namedview4"
     pagecolor="#ffffff"
     bordercolor="#666666"
     borderopacity="1.0"
     inkscape:pageshadow="2"
     inkscape:pageopacity="0.0"
     inkscape:pagecheckerboard="0" /><g
     id="g8"
     inkscape:groupmode="layer"
     inkscape:label="ink_ext_XXXXXX"
     transform="matrix(1.3333333,0,0,-1.3333333,0,154.66667)"><g
       id="g10"
       transform="scale(0.1)"><path
         d="M 172.344,858.949 H 588.047"
         style="fill:none;stroke:#100f0d;stroke-width:5.0003;stroke-linecap:butt;stroke-linejoin:miter;stroke-miterlimit:10;stroke-dasharray:none;stroke-opacity:1"
         id="path12" /><path
         d="m 578.141,844.426 54.203,14.523 -54.203,14.528 z"
         style="fill:#100f0d;fill-opacity:1;fill-rule:nonzero;stroke:none"
         id="path14" /><g
         id="g16"
         transform="scale(10)"><text
           transform="matrix(1,0,0,-1,18.934,88.9234)"
           style="font-variant:normal;font-weight:normal;font-size:6.99976px;font-family:Arial;-inkscape-font-specification:ArialMT;writing-mode:lr-tb;fill:#100f0d;fill-opacity:1;fill-rule:nonzero;stroke:none"
           id="text22"><tspan
             x="0 4.6688399 8.5607061 12.452573 15.952453 17.898386 19.84432 23.736187 25.682119 29.181999 33.073868 35.404785"
             y="0"
             sodipodi:role="line"
             id="tspan18">Adds to cart</tspan><tspan
             x="-16.518 -11.464173 -7.9642935 -4.0724268"
             y="21.029301"
             sodipodi:role="line"
             id="tspan20">User</tspan></text></g><path
         d="m 1560.68,955.957 h 504.88 V 809.949 h 460.86"
         style="fill:none;stroke:#100f0d;stroke-width:4.9691;stroke-linecap:butt;stroke-linejoin:miter;stroke-miterlimit:10;stroke-dasharray:none;stroke-opacity:1"
         id="path24" /><path
         d="m 2516.58,795.516 53.85,14.433 -53.85,14.438 z"
         style="fill:#100f0d;fill-opacity:1;fill-rule:nonzero;stroke:none"
         id="path26" /><g
         id="g28"
         transform="scale(10)"><text
           transform="matrix(1,0,0,-1,157.691,99.9801)"
           style="font-variant:normal;font-weight:normal;font-size:6.99976px;font-family:Arial;-inkscape-font-specification:ArialMT;writing-mode:lr-tb;fill:#100f0d;fill-opacity:1;fill-rule:nonzero;stroke:none"
           id="text32"><tspan
             x="0 4.6688399 8.5607061 12.452573"
             y="0"
             sodipodi:role="line"
             id="tspan30">Send</tspan></text><text
           transform="matrix(1,0,0,-1,175.984,99.9801)"
           style="font-variant:normal;font-weight:normal;font-size:6.99976px;font-family:'Courier New';-inkscape-font-specification:Courier;writing-mode:lr-tb;fill:#100f0d;fill-opacity:1;fill-rule:nonzero;stroke:none"
           id="text36"><tspan
             x="0 4.1998558 8.3997116 12.599568 16.799423 20.999281 25.199137"
             y="0"
             sodipodi:role="line"
             id="tspan34">event_1</tspan></text></g><path
         d="m 1560.68,566.949 h 504.88 v 165 h 472.42"
         style="fill:none;stroke:#100f0d;stroke-width:4.9691;stroke-linecap:butt;stroke-linejoin:miter;stroke-miterlimit:10;stroke-dasharray:none;stroke-opacity:1"
         id="path38" /><path
         d="m 2528.14,717.516 53.86,14.433 -53.86,14.438 z"
         style="fill:#100f0d;fill-opacity:1;fill-rule:nonzero;stroke:none"
         id="path40" /><g
         id="g42"
         transform="scale(10)"><text
           transform="matrix(1,0,0,-1,157.37,61.057)"
           style="font-variant:normal;font-weight:normal;font-size:6.99976px;font-family:Arial;-inkscape-font-specification:ArialMT;writing-mode:lr-tb;fill:#100f0d;fill-opacity:1;fill-rule:nonzero;stroke:none"
           id="text46"><tspan
             x="0 4.6688399 8.5607061 12.452573"
             y="0"
             sodipodi:role="line"
             id="tspan44">Send</tspan></text><text
           transform="matrix(1,0,0,-1,175.663,61.057)"
           style="font-variant:normal;font-weight:normal;font-size:6.99976px;font-family:'Courier New';-inkscape-font-specification:Courier;writing-mode:lr-tb;fill:#100f0d;fill-opacity:1;fill-rule:nonzero;stroke:none"
           id="text50"><tspan
             x="0 4.1998558 8.3997116 12.599568 16.799423 20.999281 25.199137"
             y="0"
             sodipodi:role="line"
             id="tspan48">event_2</tspan></text></g><path
         d="m 749.348,1150.95 h 691.002 c 63.99,0 117,-52 117,-117 V 488.953 c 0,-64.008 -52.01,-117.008 -117,-117.008 H 749.348 c -64.004,0 -117.004,52.008 -117.004,117.008 v 544.997 c 0,64 53,117 117.004,117"
         style="fill:#fcfccf;fill-opacity:1;fill-rule:nonzero;stroke:none"
         id="path52" /><path
         d="m 749.348,1150.95 h 691.002 c 63.99,0 117,-52 117,-117 V 488.953 c 0,-64.008 -52.01,-117.008 -117,-117.008 H 749.348 c -64.004,0 -117.004,52.008 -117.004,117.008 v 544.997 c 0,64 53,117 117.004,117 z"
         style="fill:none;stroke:#c49d19;stroke-width:5.0003;stroke-linecap:butt;stroke-linejoin:miter;stroke-miterlimit:4;stroke-dasharray:none;stroke-opacity:1"
         id="path54" /><g
         id="g56"
         transform="scale(10)"><text
           transform="matrix(1,0,0,-1,102.873,108.318)"
           style="font-variant:normal;font-weight:normal;font-size:6.99976px;font-family:Arial;-inkscape-font-specification:ArialMT;writing-mode:lr-tb;fill:#100f0d;fill-opacity:1;fill-rule:nonzero;stroke:none"
           id="text60"><tspan
             x="0 5.0538268 8.945693 11.276613"
             y="0"
             sodipodi:role="line"
             id="tspan58">Cart</tspan></text></g><path
         d="m 846.348,1052.95 h 495.992 c 24.01,0 44.01,-20 44.01,-44 V 804.949 c 0,-23.992 -20,-43.992 -44.01,-43.992 H 846.348 c -24,0 -44.004,20 -44.004,43.992 v 204.001 c 1,25 20.004,44 44.004,44"
         style="fill:#e0f2c3;fill-opacity:1;fill-rule:nonzero;stroke:none"
         id="path62" /><path
         d="m 846.348,1052.95 h 495.992 c 24.01,0 44.01,-20 44.01,-44 V 804.949 c 0,-23.992 -20,-43.992 -44.01,-43.992 H 846.348 c -24,0 -44.004,20 -44.004,43.992 v 204.001 c 1,25 20.004,44 44.004,44 z"
         style="fill:none;stroke:#298a3c;stroke-width:5.0003;stroke-linecap:butt;stroke-linejoin:miter;stroke-miterlimit:4;stroke-dasharray:none;stroke-opacity:1"
         id="path64" /><g
         id="g66"
         transform="scale(10)"><text
           transform="matrix(1,0,0,-1,87.0574,97.2594)"
           style="font-variant:normal;font-weight:normal;font-size:6.99976px;font-family:Arial;-inkscape-font-specification:ArialMT;writing-mode:lr-tb;fill:#100f0d;fill-opacity:1;fill-rule:nonzero;stroke:none"
           id="text70"><tspan
             x="0 4.6688399 8.5607061 12.452573 47.297657"
             y="0"
             sodipodi:role="line"
             id="tspan68">Book:</tspan></text><text
           transform="matrix(1,0,0,-1,104.957,97.2594)"
           style="font-variant:normal;font-weight:normal;font-size:6.99976px;font-family:'Courier New';-inkscape-font-specification:Courier;writing-mode:lr-tb;fill:#100f0d;fill-opacity:1;fill-rule:nonzero;stroke:none"
           id="text74"><tspan
             x="0 4.1998558 8.3997116 12.599568 16.799423 20.999281 25.199137"
             y="0"
             sodipodi:role="line"
             id="tspan72">event_1</tspan></text><text
           transform="matrix(1,0,0,-1,99.757,88.85979)"
           style="font-variant:normal;font-weight:normal;font-size:6.99976px;font-family:Arial;-inkscape-font-specification:ArialMT;writing-mode:lr-tb;fill:#100f0d;fill-opacity:1;fill-rule:nonzero;stroke:none"
           id="text80"><tspan
             x="0 4.0152326 5.5691791 7.5151124 9.0690594 12.960926 16.466797"
             y="0"
             sodipodi:role="line"
             id="tspan76">Title:A</tspan><tspan
             x="-7.2996101 -1.8537967 2.0380697 5.9299364 9.8218031 11.767736 13.321683 15.267616 16.821564 20.321444 22.267376 24.21331"
             y="8.3999996"
             sodipodi:role="line"
             id="tspan78">Quantitiy: 1</tspan></text></g><path
         d="m 2863.42,1101.95 c 161.26,0 292.01,-130.731 292.01,-292.001 0,-161.265 -130.75,-291.992 -292.01,-291.992 -161.27,0 -292,130.727 -292,291.992 0,161.27 130.73,292.001 292,292.001"
         style="fill:#c9e4f3;fill-opacity:1;fill-rule:nonzero;stroke:none"
         id="path82" /><path
         d="m 2863.42,1101.95 c 161.26,0 292.01,-130.731 292.01,-292.001 0,-161.265 -130.75,-291.992 -292.01,-291.992 -161.27,0 -292,130.727 -292,291.992 0,161.27 130.73,292.001 292,292.001 z"
         style="fill:none;stroke:#293985;stroke-width:5.0003;stroke-linecap:butt;stroke-linejoin:miter;stroke-miterlimit:4;stroke-dasharray:none;stroke-opacity:1"
         id="path84" /><g
         id="g86"
         transform="scale(10)"><text
           transform="matrix(1,0,0,-1,267.041,83.3324)"
           style="font-variant:normal;font-weight:normal;font-size:6.99976px;font-family:Arial;-inkscape-font-specification:ArialMT;writing-mode:lr-tb;fill:#100f0d;fill-opacity:1;fill-rule:nonzero;stroke:none"
           id="text92"><tspan
             x="0 4.6688399 8.5607061 12.452573 15.952453 17.898386 21.790253 25.290133 29.181999 33.073868 35.019798"
             y="0"
             sodipodi:role="line"
             id="tspan88">Book events</tspan><tspan
             x="-8.1999998 -4.70012 -0.80825347 3.0836132 6.5834932 10.47536 16.30616 20.198027 22.528946 24.47488 27.97476 31.866627 34.197548 37.697426 39.251373 42.751251"
             y="8.3992205"
             sodipodi:role="line"
             id="tspan90">consumer service</tspan></text></g><path
         d="m 846.348,712.953 h 495.992 c 24.01,0 44.01,-20 44.01,-44 V 464.945 c 0,-23.988 -20,-43.988 -44.01,-43.988 H 846.348 c -24,0 -44.004,20 -44.004,43.988 v 204.008 c 1,24 20.004,44 44.004,44"
         style="fill:#ac7ac4;fill-opacity:1;fill-rule:nonzero;stroke:none"
         id="path94" /><path
         d="m 846.348,712.953 h 495.992 c 24.01,0 44.01,-20 44.01,-44 V 464.945 c 0,-23.988 -20,-43.988 -44.01,-43.988 H 846.348 c -24,0 -44.004,20 -44.004,43.988 v 204.008 c 1,24 20.004,44 44.004,44 z"
         style="fill:none;stroke:#41266c;stroke-width:5.0003;stroke-linecap:butt;stroke-linejoin:miter;stroke-miterlimit:4;stroke-dasharray:none;stroke-opacity:1"
         id="path96" /><path
         d="m 2595.43,493.949 h 535 c 40,0 72.98,-32.996 72.98,-72.992 V 80.9492 c 0,-39.9961 -32.98,-72.99998 -72.98,-72.99998 h -535 c -40,0 -73.01,33.00388 -73.01,72.99998 V 420.957 c 0,39.996 33.01,72.992 73.01,72.992"
         style="fill:#fcfccf;fill-opacity:1;fill-rule:nonzero;stroke:none"
         id="path98" /><path
         d="m 2595.43,493.949 h 535 c 40,0 72.98,-32.996 72.98,-72.992 V 80.9492 c 0,-39.9961 -32.98,-72.99998 -72.98,-72.99998 h -535 c -40,0 -73.01,33.00388 -73.01,72.99998 V 420.957 c 0,39.996 33.01,72.992 73.01,72.992 z"
         style="fill:none;stroke:#c49d19;stroke-width:5.0003;stroke-linecap:butt;stroke-linejoin:miter;stroke-miterlimit:4;stroke-dasharray:none;stroke-opacity:1"
         id="path100" /><g
         id="g102"
         transform="scale(10)"><text
           transform="matrix(1,0,0,-1,260.941,42.6551)"
           style="font-variant:normal;font-weight:normal;font-size:6.99976px;font-family:Arial;-inkscape-font-specification:ArialMT;writing-mode:lr-tb;fill:#100f0d;fill-opacity:1;fill-rule:nonzero;stroke:none"
           id="text106"><tspan
             x="0 5.0538268 8.5537071 12.445573 15.039066 16.468355 19.968235 21.914167 25.414049 29.305914 31.636835 33.582767 35.528702 39.02858 40.974514 44.866383 46.812313"
             y="0"
             sodipodi:role="line"
             id="tspan104">User’s cart state</tspan></text></g><path
         d="m 2615.43,396.949 h 495.99 c 24.01,0 44.01,-20 44.01,-43.992 V 148.953 c 0,-24.004 -20,-44 -44.01,-44 h -495.99 c -24.02,0 -44.01,19.996 -44.01,44 v 204.004 c -0.99,23.992 18,43.992 44.01,43.992"
         style="fill:#fafbfb;fill-opacity:1;fill-rule:nonzero;stroke:none"
         id="path108" /><path
         d="m 2615.43,396.949 h 495.99 c 24.01,0 44.01,-20 44.01,-43.992 V 148.953 c 0,-24.004 -20,-44 -44.01,-44 h -495.99 c -24.02,0 -44.01,19.996 -44.01,44 v 204.004 c -0.99,23.992 18,43.992 44.01,43.992 z"
         style="fill:none;stroke:#5e6061;stroke-width:5.0003;stroke-linecap:butt;stroke-linejoin:miter;stroke-miterlimit:4;stroke-dasharray:none;stroke-opacity:1"
         id="path110" /><g
         id="g112"
         transform="scale(10)"><text
           transform="matrix(1,0,0,-1,275.45,27.4281)"
           style="font-variant:normal;font-weight:normal;font-size:6.99976px;font-family:Arial;-inkscape-font-specification:ArialMT;writing-mode:lr-tb;fill:#100f0d;fill-opacity:1;fill-rule:nonzero;stroke:none"
           id="text120"><tspan
             x="0 4.0156231 5.5695696 7.5155029 9.0694494 12.961316 16.467188"
             y="0"
             sodipodi:role="line"
             id="tspan114">Title:A</tspan><tspan
             x="-6.0359402 -0.59012669 3.3017399 7.1936064 11.085473 13.031406 14.585353 16.531286 20.031166 21.9771 23.923033"
             y="8.3992205"
             sodipodi:role="line"
             id="tspan116">Quantity: 2</tspan><tspan
             x="-188.39394 -183.7251 -179.83324 -175.94136 -141.09628"
             y="-35.79998"
             sodipodi:role="line"
             id="tspan118">Book:</tspan></text><text
           transform="matrix(1,0,0,-1,104.95566,63.22808)"
           style="font-variant:normal;font-weight:normal;font-size:6.99976px;font-family:'Courier New';-inkscape-font-specification:Courier;writing-mode:lr-tb;fill:#100f0d;fill-opacity:1;fill-rule:nonzero;stroke:none"
           id="text124"><tspan
             x="0 4.1998558 8.3997116 12.599568 16.799423 20.999281 25.199137"
             y="0"
             sodipodi:role="line"
             id="tspan122">event_2</tspan></text><text
           transform="matrix(1,0,0,-1,99.75605,54.82769)"
           style="font-variant:normal;font-weight:normal;font-size:6.99976px;font-family:Arial;-inkscape-font-specification:ArialMT;writing-mode:lr-tb;fill:#100f0d;fill-opacity:1;fill-rule:nonzero;stroke:none"
           id="text130"><tspan
             x="0 4.0156231 5.5695696 7.5155029 9.0694494 12.961316 16.467188"
             y="0"
             sodipodi:role="line"
             id="tspan126">Title:A</tspan><tspan
             x="-7.2996101 -1.8537967 2.0380697 5.9299364 9.8218031 11.767736 13.321683 15.267616 16.821564 20.321444 22.267376 24.21331"
             y="8.4003897"
             sodipodi:role="line"
             id="tspan128">Quantitiy: 1</tspan></text></g><path
         d="m 180.34,781.949 c 0,-5 -28.992,-15.996 -81.9923,-15.996 -53.0079,0 -82,10.004 -82,15.996 v 12.004 c 0,10 5,19 13.9921,23.996 l 35.004,19 c 6.0039,3.004 9.0039,9.008 9.0039,16.004 v 16 l -1.0039,1 c 0,0 -10,11.996 -13,28 v 1.996 l -0.9922,1.004 c -2.0039,0.992 -4.0078,2.996 -4.0078,5.992 v 16.008 c 0,2 1,3.996 3.0039,6 l 1.0039,1 v 25 c 0,0 -1.0039,11.004 5.9922,20 6.0039,6.996 18,11.004 33.0039,11.004 14.9963,0 26.0003,-4.008 32.9963,-11.004 8.008,-8.996 6,-20 6,-20 v -25 l 1.004,-1 c 1.992,-2.004 2.996,-4 2.996,-6 v -16.008 c 0,-2.996 -1.992,-5.992 -6.004,-6.996 l -1.992,-1 -1.004,-2.004 c -2.996,-7.992 -6,-15.988 -10.996,-21.992 -1.008,-2 -2,-3.004 -3.004,-3.996 l -1,-1.004 v -16.004 c 0,-7 4.004,-12.992 10,-15.996 l 37.004,-19.004 c 8.996,-5 15,-14 15,-24.996 l 0.992,-12.004 z m -10.992,43.004 -38.004,19 c -4,2.004 -6.004,5 -6.004,9 v 13.004 c 1.004,0.992 2.004,1.992 3.004,3.996 5.004,6.996 9,14 11.996,23 6.004,3.004 9.012,8 9.012,13.992 v 16.008 c 0,3.996 -1.004,7 -4.008,10 v 20.996 c 0,2.008 1,15.004 -8,25.004 -7.996,9 -20.996,14 -38.9963,14 -18.0079,0 -31,-5 -38.9961,-14 -9.0118,-11 -8.0078,-22.996 -8.0078,-25.004 v -20.996 c -1.9922,-3 -4,-6.004 -4,-10 v -16.008 c 0,-5 2.0078,-8.992 6.0039,-11.996 4,-14.996 11.0039,-24.996 14,-28.992 v -13.004 c 0,-4 -2.0039,-6.996 -5,-9 l -35.0039,-19 c -10.9961,-6.004 -18.00005,-18.008 -18.00005,-31 v -12.996 c 0,-19.012 59.00005,-23.004 90.00785,-23.004 30.9884,0 90.0004,5 90.0004,23.004 v 12.996 c -1.004,12.992 -8.008,24.996 -20.004,31 v 0"
         style="fill:#100f0d;fill-opacity:1;fill-rule:nonzero;stroke:none"
         id="path132" /></g></g></svg>
