<?xml version="1.0" encoding="UTF-8" standalone="no"?>
<!-- Created with Inkscape (http://www.inkscape.org/) -->

<svg
   version="1.1"
   id="svg2"
   xml:space="preserve"
   width="454.66666"
   height="149.33333"
   viewBox="0 0 454.66666 149.33333"
   sodipodi:docname="10-5.eps"
   xmlns:inkscape="http://www.inkscape.org/namespaces/inkscape"
   xmlns:sodipodi="http://sodipodi.sourceforge.net/DTD/sodipodi-0.dtd"
   xmlns="http://www.w3.org/2000/svg"
   xmlns:svg="http://www.w3.org/2000/svg"><defs
     id="defs6" /><sodipodi:namedview
     id="namedview4"
     pagecolor="#ffffff"
     bordercolor="#666666"
     borderopacity="1.0"
     inkscape:pageshadow="2"
     inkscape:pageopacity="0.0"
     inkscape:pagecheckerboard="0" /><g
     id="g8"
     inkscape:groupmode="layer"
     inkscape:label="ink_ext_XXXXXX"
     transform="matrix(1.3333333,0,0,-1.3333333,0,149.33333)"><g
       id="g10"
       transform="scale(0.1)"><path
         d="M 936.879,844.91 H 1483.59"
         style="fill:none;stroke:#100f0d;stroke-width:5.0003;stroke-linecap:butt;stroke-linejoin:miter;stroke-miterlimit:10;stroke-dasharray:none;stroke-opacity:1"
         id="path12" /><path
         d="m 1473.68,830.383 54.2,14.527 -54.2,14.528 z"
         style="fill:#100f0d;fill-opacity:1;fill-rule:nonzero;stroke:none"
         id="path14" /><g
         id="g16"
         transform="scale(10)"><text
           transform="matrix(1,0,0,-1,96.8445,87.0699)"
           style="font-variant:normal;font-weight:normal;font-size:6.99976px;font-family:Arial;-inkscape-font-specification:ArialMT;writing-mode:lr-tb;fill:#100f0d;fill-opacity:1;fill-rule:nonzero;stroke:none"
           id="text20"><tspan
             x="0 4.6688399 8.5607061 12.452573 16.34444 19.84432 21.790253 25.682119 27.628054 29.573986 31.519918 33.073868 38.904667 44.617577 48.894428"
             y="0"
             sodipodi:role="line"
             id="tspan18">Sends at timeT1</tspan></text></g><path
         d="M 936.879,543.914 H 1483.59"
         style="fill:none;stroke:#100f0d;stroke-width:5.0003;stroke-linecap:butt;stroke-linejoin:miter;stroke-miterlimit:10;stroke-dasharray:none;stroke-opacity:1"
         id="path22" /><path
         d="m 1473.68,529.383 54.2,14.531 -54.2,14.527 z"
         style="fill:#100f0d;fill-opacity:1;fill-rule:nonzero;stroke:none"
         id="path24" /><g
         id="g26"
         transform="scale(10)"><text
           transform="matrix(1,0,0,-1,96.8445,56.8914)"
           style="font-variant:normal;font-weight:normal;font-size:6.99976px;font-family:Arial;-inkscape-font-specification:ArialMT;writing-mode:lr-tb;fill:#100f0d;fill-opacity:1;fill-rule:nonzero;stroke:none"
           id="text30"><tspan
             x="0 4.6688399 8.5607061 12.452573 16.34444 19.84432 21.790253 25.682119 27.628054 29.573986 31.519918 33.073868 38.904667 44.617577 48.894428"
             y="0"
             sodipodi:role="line"
             id="tspan28">Sends at timeT2</tspan></text></g><path
         d="M 930.777,198.914 H 1483.59"
         style="fill:none;stroke:#100f0d;stroke-width:5.0003;stroke-linecap:butt;stroke-linejoin:miter;stroke-miterlimit:10;stroke-dasharray:none;stroke-opacity:1"
         id="path32" /><path
         d="m 1473.68,184.387 54.2,14.527 -54.2,14.52 z"
         style="fill:#100f0d;fill-opacity:1;fill-rule:nonzero;stroke:none"
         id="path34" /><g
         id="g36"
         transform="scale(10)"><text
           transform="matrix(1,0,0,-1,95.3773,21.7168)"
           style="font-variant:normal;font-weight:normal;font-size:6.99976px;font-family:Arial;-inkscape-font-specification:ArialMT;writing-mode:lr-tb;fill:#100f0d;fill-opacity:1;fill-rule:nonzero;stroke:none"
           id="text40"><tspan
             x="0 5.0538268 8.945693 10.891626 13.222547 14.776493 18.66836 22.16824 24.114174 28.006041 29.951973 31.897907 33.843838 35.397785 41.228588 46.941399 51.21825"
             y="0"
             sodipodi:role="line"
             id="tspan38">Retries at timeT3</tspan></text></g><path
         d="m 148.875,1037.91 h 649.012 c 76.992,0 138.992,-61.996 138.992,-139 V 239.906 c 0,-76.988 -62,-138.992 -138.992,-138.992 H 148.875 C 71.8828,100.914 9.87891,162.918 9.87891,239.906 V 898.91 c 0,76 62.00389,139 138.99609,139"
         style="fill:#fafbfb;fill-opacity:1;fill-rule:nonzero;stroke:none"
         id="path42" /><path
         d="m 148.875,1037.91 h 649.012 c 76.992,0 138.992,-61.996 138.992,-139 V 239.906 c 0,-76.988 -62,-138.992 -138.992,-138.992 H 148.875 C 71.8828,100.914 9.87891,162.918 9.87891,239.906 V 898.91 c 0,76 62.00389,139 138.99609,139 z"
         style="fill:none;stroke:#5e6061;stroke-width:5.0003;stroke-linecap:butt;stroke-linejoin:miter;stroke-miterlimit:4;stroke-dasharray:none;stroke-opacity:1"
         id="path44" /><path
         d="m 2785.88,499.984 h 543 c 41,0 74,-33 74,-74.004 V 80.9766 c 0,-41 -33,-73.98441 -74,-73.98441 h -543 c -41,0 -74,32.98441 -74,73.98441 V 425.98 c 0,41.004 33,74.004 74,74.004"
         style="fill:#fcf9ce;fill-opacity:1;fill-rule:nonzero;stroke:none"
         id="path46" /><path
         d="m 2785.88,499.984 h 543 c 41,0 74,-33 74,-74.004 V 80.9766 c 0,-41 -33,-73.98441 -74,-73.98441 h -543 c -41,0 -74,32.98441 -74,73.98441 V 425.98 c 0,41.004 33,74.004 74,74.004 z"
         style="fill:none;stroke:#c49b1a;stroke-width:5.0003;stroke-linecap:butt;stroke-linejoin:miter;stroke-miterlimit:4;stroke-dasharray:none;stroke-opacity:1"
         id="path48" /><path
         d="m 2119.88,815.914 h 596.7"
         style="fill:none;stroke:#100f0d;stroke-width:5.0003;stroke-linecap:butt;stroke-linejoin:miter;stroke-miterlimit:10;stroke-dasharray:none;stroke-opacity:1"
         id="path50" /><path
         d="m 2706.68,801.387 54.2,14.527 -54.2,14.524 z"
         style="fill:#100f0d;fill-opacity:1;fill-rule:nonzero;stroke:none"
         id="path52" /><g
         id="g54"
         transform="scale(10)"><text
           transform="matrix(1,0,0,-1,234.482,83.3012)"
           style="font-variant:normal;font-weight:normal;font-size:6.99976px;font-family:Arial;-inkscape-font-specification:ArialMT;writing-mode:lr-tb;fill:#100f0d;fill-opacity:1;fill-rule:nonzero;stroke:none"
           id="text58"><tspan
             x="0 4.2768536 8.1687202 9.7226667 11.276613 15.16848 17.499399"
             y="0"
             sodipodi:role="line"
             id="tspan56">Failure</tspan></text></g><path
         d="m 1571.88,1037.91 h 503 c 25,0 44,-20 44,-43.996 V 786.91 c 0,-25.004 -20,-44.004 -44,-44.004 h -503 c -25,0 -44,20.004 -44,44.004 v 206 c 0,25 20,45 44,45"
         style="fill:#e0f2c3;fill-opacity:1;fill-rule:nonzero;stroke:none"
         id="path60" /><path
         d="m 1571.88,1037.91 h 503 c 25,0 44,-20 44,-43.996 V 786.91 c 0,-25.004 -20,-44.004 -44,-44.004 h -503 c -25,0 -44,20.004 -44,44.004 v 206 c 0,25 20,45 44,45 z"
         style="fill:none;stroke:#298a3c;stroke-width:5.0003;stroke-linecap:butt;stroke-linejoin:miter;stroke-miterlimit:4;stroke-dasharray:none;stroke-opacity:1"
         id="path62" /><path
         d="m 2119.88,543.914 h 320 v 61.996 h 361.25"
         style="fill:none;stroke:#100f0d;stroke-width:5.0003;stroke-linecap:butt;stroke-linejoin:miter;stroke-miterlimit:10;stroke-dasharray:none;stroke-opacity:1"
         id="path64" /><path
         d="m 2791.23,591.387 54.2,14.523 -54.2,14.528 z"
         style="fill:#100f0d;fill-opacity:1;fill-rule:nonzero;stroke:none"
         id="path66" /><g
         id="g68"
         transform="scale(10)"><text
           transform="matrix(1,0,0,-1,215.31,56.1695)"
           style="font-variant:normal;font-weight:normal;font-size:6.99976px;font-family:Arial;-inkscape-font-specification:ArialMT;writing-mode:lr-tb;fill:#100f0d;fill-opacity:1;fill-rule:nonzero;stroke:none"
           id="text72"><tspan
             x="0 4.6688399 8.5607061 12.060587 15.560467 19.452333 22.952213"
             y="0"
             sodipodi:role="line"
             id="tspan70">Success</tspan></text></g><path
         d="m 1571.88,691.91 h 503 c 25,0 44,-20.004 44,-44 V 440.914 c 0,-25 -20,-44.008 -44,-44.008 h -503 c -25,0 -44,20.004 -44,44.008 V 647.91 c 0,23.996 20,44 44,44"
         style="fill:#ac7ac4;fill-opacity:1;fill-rule:nonzero;stroke:none"
         id="path74" /><path
         d="m 1571.88,691.91 h 503 c 25,0 44,-20.004 44,-44 V 440.914 c 0,-25 -20,-44.008 -44,-44.008 h -503 c -25,0 -44,20.004 -44,44.008 V 647.91 c 0,23.996 20,44 44,44 z"
         style="fill:none;stroke:#41266c;stroke-width:5.0003;stroke-linecap:butt;stroke-linejoin:miter;stroke-miterlimit:4;stroke-dasharray:none;stroke-opacity:1"
         id="path76" /><path
         d="m 3056.88,1111.91 c 163.47,0 296,-132.523 296,-295.996 0,-163.476 -132.53,-296.008 -296,-296.008 -163.48,0 -296,132.532 -296,296.008 0,163.473 132.52,295.996 296,295.996"
         style="fill:#c9e4f3;fill-opacity:1;fill-rule:nonzero;stroke:none"
         id="path78" /><path
         d="m 3056.88,1111.91 c 163.47,0 296,-132.523 296,-295.996 0,-163.476 -132.53,-296.008 -296,-296.008 -163.48,0 -296,132.532 -296,296.008 0,163.473 132.52,295.996 296,295.996 z"
         style="fill:none;stroke:#293985;stroke-width:5.0003;stroke-linecap:butt;stroke-linejoin:miter;stroke-miterlimit:4;stroke-dasharray:none;stroke-opacity:1"
         id="path80" /><g
         id="g82"
         transform="scale(10)"><text
           transform="matrix(1,0,0,-1,286.426,83.8891)"
           style="font-variant:normal;font-weight:normal;font-size:6.99976px;font-family:Arial;-inkscape-font-specification:ArialMT;writing-mode:lr-tb;fill:#100f0d;fill-opacity:1;fill-rule:nonzero;stroke:none"
           id="text88"><tspan
             x="0 4.6688399 8.5607061 12.452573 15.952453 17.898386 21.790253 25.290133 29.181999 33.073868 35.019798"
             y="0"
             sodipodi:role="line"
             id="tspan84">Book events</tspan><tspan
             x="-8.1628904 -4.6630101 -0.77114344 3.120723 6.6206031 10.512469 16.343269 20.235136 22.566057 24.51199 28.011869 31.903736 34.234657 37.734535 39.288483 42.788364"
             y="8.3996096"
             sodipodi:role="line"
             id="tspan86">consumer service</tspan></text></g><path
         d="m 2804.88,400.977 h 503 c 25,0 44,-19.997 44,-43.989 V 149.98 c 0,-24.996 -20,-44 -44,-44 h -503 c -25,0 -44,19.997 -44,44 v 207.008 c 0,23.992 20,43.989 44,43.989"
         style="fill:#fafbfb;fill-opacity:1;fill-rule:nonzero;stroke:none"
         id="path90" /><path
         d="m 2804.88,400.977 h 503 c 25,0 44,-19.997 44,-43.989 V 149.98 c 0,-24.996 -20,-44 -44,-44 h -503 c -25,0 -44,19.997 -44,44 v 207.008 c 0,23.992 20,43.989 44,43.989 z"
         style="fill:none;stroke:#5e6061;stroke-width:5.0003;stroke-linecap:butt;stroke-linejoin:miter;stroke-miterlimit:4;stroke-dasharray:none;stroke-opacity:1"
         id="path92" /><g
         id="g94"
         transform="scale(10)"><text
           transform="matrix(1,0,0,-1,28.6676,96.9375)"
           style="font-variant:normal;font-weight:normal;font-size:6.99976px;font-family:Arial;-inkscape-font-specification:ArialMT;writing-mode:lr-tb;fill:#100f0d;fill-opacity:1;fill-rule:nonzero;stroke:none"
           id="text98"><tspan
             x="0 5.0538268 8.945693 11.276613 13.222547 15.16848 18.66836 22.560226 24.891146 28.391027 29.944973 33.444855"
             y="0"
             sodipodi:role="line"
             id="tspan96">Cart service</tspan></text></g><path
         d="m 2119.88,198.914 h 296 v 74.004 h 251.7"
         style="fill:none;stroke:#100f0d;stroke-width:5.0003;stroke-linecap:butt;stroke-linejoin:miter;stroke-miterlimit:10;stroke-dasharray:none;stroke-opacity:1"
         id="path100" /><path
         d="m 2657.68,258.387 54.2,14.531 -54.2,14.52 z"
         style="fill:#100f0d;fill-opacity:1;fill-rule:nonzero;stroke:none"
         id="path102" /><g
         id="g104"
         transform="scale(10)"><text
           transform="matrix(1,0,0,-1,214.376,21.7168)"
           style="font-variant:normal;font-weight:normal;font-size:6.99976px;font-family:Arial;-inkscape-font-specification:ArialMT;writing-mode:lr-tb;fill:#100f0d;fill-opacity:1;fill-rule:nonzero;stroke:none"
           id="text108"><tspan
             x="0 4.6688399 8.5607061 12.060587 15.560467 19.452333 22.952213"
             y="0"
             sodipodi:role="line"
             id="tspan106">Success</tspan></text></g><path
         d="m 1571.88,346.906 h 503 c 25,0 44,-19.996 44,-43.988 V 95.9141 c 0,-25.0039 -20,-44.0039 -44,-44.0039 h -503 c -25,0 -44,20.0039 -44,44.0039 V 302.918 c 0,23.992 20,43.988 44,43.988"
         style="fill:#e0f2c3;fill-opacity:1;fill-rule:nonzero;stroke:none"
         id="path110" /><path
         d="m 1571.88,346.906 h 503 c 25,0 44,-19.996 44,-43.988 V 95.9141 c 0,-25.0039 -20,-44.0039 -44,-44.0039 h -503 c -25,0 -44,20.0039 -44,44.0039 V 302.918 c 0,23.992 20,43.988 44,43.988 z"
         style="fill:none;stroke:#298a3c;stroke-width:5.0003;stroke-linecap:butt;stroke-linejoin:miter;stroke-miterlimit:4;stroke-dasharray:none;stroke-opacity:1"
         id="path112" /><g
         id="g114"
         transform="scale(10)"><text
           transform="matrix(1,0,0,-1,159.961,95.4887)"
           style="font-variant:normal;font-weight:normal;font-size:6.99976px;font-family:Arial;-inkscape-font-specification:ArialMT;writing-mode:lr-tb;fill:#100f0d;fill-opacity:1;fill-rule:nonzero;stroke:none"
           id="text118"><tspan
             x="0 4.6688399 8.5607061 12.452573 47.298077"
             y="0"
             sodipodi:role="line"
             id="tspan116">Book:</tspan></text><text
           transform="matrix(1,0,0,-1,177.8606,95.4887)"
           style="font-variant:normal;font-weight:normal;font-size:6.99976px;font-family:'Courier New';-inkscape-font-specification:Courier;writing-mode:lr-tb;fill:#100f0d;fill-opacity:1;fill-rule:nonzero;stroke:none"
           id="text122"><tspan
             x="0 4.1998558 8.3997116 12.599568 16.799423 20.999281 25.199137"
             y="0"
             sodipodi:role="line"
             id="tspan120">event_1</tspan></text><text
           transform="matrix(1,0,0,-1,171.76294,87.08831)"
           style="font-variant:normal;font-weight:normal;font-size:6.99976px;font-family:Arial;-inkscape-font-specification:ArialMT;writing-mode:lr-tb;fill:#100f0d;fill-opacity:1;fill-rule:nonzero;stroke:none"
           id="text130"><tspan
             x="0 4.0156231 5.5695696 7.5155029 9.0694494 12.961316 16.467188"
             y="0"
             sodipodi:role="line"
             id="tspan124">Title:A</tspan><tspan
             x="-7.1289101 -1.6830968 2.2087698 6.1006365 9.9925032 11.938437 13.492383 15.438316 16.992264 20.492144 22.438076 24.38401"
             y="8.3996096"
             sodipodi:role="line"
             id="tspan126">Quantitiy: 1</tspan><tspan
             x="-11.80196 -7.1331201 -3.2412536 0.65061307 35.496117"
             y="60.662109"
             sodipodi:role="line"
             id="tspan128">Book:</tspan></text><text
           transform="matrix(1,0,0,-1,177.86058,26.4262)"
           style="font-variant:normal;font-weight:normal;font-size:6.99976px;font-family:'Courier New';-inkscape-font-specification:Courier;writing-mode:lr-tb;fill:#100f0d;fill-opacity:1;fill-rule:nonzero;stroke:none"
           id="text134"><tspan
             x="0 4.1998558 8.3997116 12.599568 16.799423 20.999281 25.199137"
             y="0"
             sodipodi:role="line"
             id="tspan132">event_1</tspan></text><text
           transform="matrix(1,0,0,-1,171.76292,18.02659)"
           style="font-variant:normal;font-weight:normal;font-size:6.99976px;font-family:Arial;-inkscape-font-specification:ArialMT;writing-mode:lr-tb;fill:#100f0d;fill-opacity:1;fill-rule:nonzero;stroke:none"
           id="text148"><tspan
             x="0 4.0156231 5.5695696 7.5155029 9.0694494 12.961316 16.467188"
             y="0"
             sodipodi:role="line"
             id="tspan136">Title:A</tspan><tspan
             x="-7.1289101 -1.6830968 2.2087698 6.1006365 9.9925032 11.938437 13.492383 15.438316 16.992264 20.492144 22.438076 24.38401"
             y="8.3996096"
             sodipodi:role="line"
             id="tspan138">Quantitiy: 1</tspan><tspan
             x="109.00209 114.05592 117.55579 121.44766 124.04115 125.47044 128.97032 130.91626 134.41614 138.308 140.63893 142.58485 144.53079 148.03067 149.97661 153.86847 155.81441"
             y="-24.60269"
             sodipodi:role="line"
             id="tspan140">User’s cart state</tspan><tspan
             x="123.41299 127.42861 128.98256 130.9285 132.48244 136.37431 139.88017"
             y="-9.6065903"
             sodipodi:role="line"
             id="tspan142">Title:A</tspan><tspan
             x="117.81221 123.25803 127.14989 131.04176 134.93362 136.87956 138.4335 140.37944 143.87932 147.77042"
             y="-1.2062"
             sodipodi:role="line"
             id="tspan144">Quantity:1</tspan><tspan
             x="-11.80179 -7.1329503 -3.2410836 0.65078306 35.496288"
             y="-42.931999"
             sodipodi:role="line"
             id="tspan146">Book:</tspan></text><text
           transform="matrix(1,0,0,-1,177.86113,60.95859)"
           style="font-variant:normal;font-weight:normal;font-size:6.99976px;font-family:'Courier New';-inkscape-font-specification:Courier;writing-mode:lr-tb;fill:#100f0d;fill-opacity:1;fill-rule:nonzero;stroke:none"
           id="text152"><tspan
             x="0 4.1998558 8.3997116 12.599568 16.799423 20.999281 25.199137"
             y="0"
             sodipodi:role="line"
             id="tspan150">event_2</tspan></text><text
           transform="matrix(1,0,0,-1,171.76308,52.5582)"
           style="font-variant:normal;font-weight:normal;font-size:6.99976px;font-family:Arial;-inkscape-font-specification:ArialMT;writing-mode:lr-tb;fill:#100f0d;fill-opacity:1;fill-rule:nonzero;stroke:none"
           id="text158"><tspan
             x="0 4.0156231 5.5695696 7.5155029 9.0694494 12.961316 16.467188"
             y="0"
             sodipodi:role="line"
             id="tspan154">Title:A</tspan><tspan
             x="-7.1281199 -1.6823068 2.2095599 6.1014266 9.9932928 11.939226 13.493173 15.439106 16.993053 20.492933 22.438866 24.3848"
             y="8.3996096"
             sodipodi:role="line"
             id="tspan156">Quantitiy: 2</tspan></text></g></g></g></svg>
