<?xml version="1.0" encoding="UTF-8" standalone="no"?>
<!-- Created with Inkscape (http://www.inkscape.org/) -->

<svg
   version="1.1"
   id="svg2"
   xml:space="preserve"
   width="401.33334"
   height="264"
   viewBox="0 0 401.33334 264"
   sodipodi:docname="10-6.eps"
   xmlns:inkscape="http://www.inkscape.org/namespaces/inkscape"
   xmlns:sodipodi="http://sodipodi.sourceforge.net/DTD/sodipodi-0.dtd"
   xmlns="http://www.w3.org/2000/svg"
   xmlns:svg="http://www.w3.org/2000/svg"><defs
     id="defs6" /><sodipodi:namedview
     id="namedview4"
     pagecolor="#ffffff"
     bordercolor="#666666"
     borderopacity="1.0"
     inkscape:pageshadow="2"
     inkscape:pageopacity="0.0"
     inkscape:pagecheckerboard="0" /><g
     id="g8"
     inkscape:groupmode="layer"
     inkscape:label="ink_ext_XXXXXX"
     transform="matrix(1.3333333,0,0,-1.3333333,0,264)"><g
       id="g10"
       transform="scale(0.1)"><path
         d="M 633.375,1091.74 H 1022.07"
         style="fill:none;stroke:#100f0d;stroke-width:5.0003;stroke-linecap:butt;stroke-linejoin:miter;stroke-miterlimit:10;stroke-dasharray:none;stroke-opacity:1"
         id="path12" /><path
         d="m 1012.17,1077.22 54.21,14.52 -54.21,14.53 z"
         style="fill:#100f0d;fill-opacity:1;fill-rule:nonzero;stroke:none"
         id="path14" /><g
         id="g16"
         transform="scale(10)"><text
           transform="matrix(1,0,0,-1,67.2633,112.339)"
           style="font-variant:normal;font-weight:normal;font-size:6.99948px;font-family:Arial;-inkscape-font-specification:ArialMT;writing-mode:lr-tb;fill:#100f0d;fill-opacity:1;fill-rule:nonzero;stroke:none"
           id="text20"><tspan
             x="0 5.0536246 8.5533648 12.445075 14.775903 16.721758 20.613468 24.113209 28.004919 31.896631"
             y="0"
             sodipodi:role="line"
             id="tspan18">User event</tspan></text></g><path
         d="m 321.379,1403.75 c 172.312,0 311.996,-139.69 311.996,-312.01 0,-172.31 -139.684,-311.99 -311.996,-311.99 -172.313,0 -312.00009,139.68 -312.00009,311.99 0,172.32 139.68709,312.01 312.00009,312.01"
         style="fill:#fcfccf;fill-opacity:1;fill-rule:nonzero;stroke:none"
         id="path22" /><path
         d="m 321.379,1403.75 c 172.312,0 311.996,-139.69 311.996,-312.01 0,-172.31 -139.684,-311.99 -311.996,-311.99 -172.313,0 -312.00009,139.68 -312.00009,311.99 0,172.32 139.68709,312.01 312.00009,312.01 z"
         style="fill:none;stroke:#c49d19;stroke-width:5.0003;stroke-linecap:butt;stroke-linejoin:miter;stroke-miterlimit:4;stroke-dasharray:none;stroke-opacity:1"
         id="path24" /><g
         id="g26"
         transform="scale(10)"><text
           transform="matrix(1,0,0,-1,25.5254,111.508)"
           style="font-variant:normal;font-weight:normal;font-size:6.99948px;font-family:Arial;-inkscape-font-specification:ArialMT;writing-mode:lr-tb;fill:#100f0d;fill-opacity:1;fill-rule:nonzero;stroke:none"
           id="text32"><tspan
             x="0 5.0536246 8.9453354 11.276162"
             y="0"
             sodipodi:role="line"
             id="tspan28">Cart</tspan><tspan
             x="-4.4734402 -0.97369999 2.918011 5.2488379 8.7485781 10.302463 13.802202"
             y="8.3992205"
             sodipodi:role="line"
             id="tspan30">service</tspan></text></g><path
         d="m 1871.38,1312.95 v 205 h 154.68"
         style="fill:none;stroke:#100f0d;stroke-width:5.0003;stroke-linecap:butt;stroke-linejoin:miter;stroke-miterlimit:10;stroke-dasharray:none;stroke-opacity:1"
         id="path34" /><path
         d="m 2016.15,1503.42 54.21,14.53 -54.21,14.53 z"
         style="fill:#100f0d;fill-opacity:1;fill-rule:nonzero;stroke:none"
         id="path36" /><path
         d="m 1670.38,1124.95 h 201 v 46"
         style="fill:none;stroke:#100f0d;stroke-width:5.0003;stroke-linecap:butt;stroke-linejoin:miter;stroke-miterlimit:10;stroke-dasharray:none;stroke-opacity:1"
         id="path38" /><g
         id="g40"
         transform="scale(10)"><text
           transform="matrix(1,0,0,-1,178.771,125.923)"
           style="font-variant:normal;font-weight:normal;font-size:6.99948px;font-family:Arial;-inkscape-font-specification:ArialMT;writing-mode:lr-tb;fill:#100f0d;fill-opacity:1;fill-rule:nonzero;stroke:none"
           id="text46"><tspan
             x="0 5.0536246 8.9453354 12.837047"
             y="0"
             sodipodi:role="line"
             id="tspan42">Read</tspan><tspan
             x="-7.97578 -4.0840693 -0.58432913 3.3073819 5.6382084 9.137949 11.083804 14.975515 18.867226 20.813082"
             y="7.5"
             sodipodi:role="line"
             id="tspan44">users data</tspan></text></g><path
         d="m 1871.38,735.949 v -300 h 206.69"
         style="fill:none;stroke:#100f0d;stroke-width:5.0003;stroke-linecap:butt;stroke-linejoin:miter;stroke-miterlimit:10;stroke-dasharray:none;stroke-opacity:1"
         id="path48" /><path
         d="m 2068.18,421.43 54.2,14.519 -54.2,14.531 z"
         style="fill:#100f0d;fill-opacity:1;fill-rule:nonzero;stroke:none"
         id="path50" /><path
         d="m 1670.38,1049.95 h 201 V 878.949"
         style="fill:none;stroke:#100f0d;stroke-width:5.0003;stroke-linecap:butt;stroke-linejoin:miter;stroke-miterlimit:10;stroke-dasharray:none;stroke-opacity:1"
         id="path52" /><g
         id="g54"
         transform="scale(10)"><text
           transform="matrix(1,0,0,-1,178.771,82.4961)"
           style="font-variant:normal;font-weight:normal;font-size:6.99948px;font-family:Arial;-inkscape-font-specification:ArialMT;writing-mode:lr-tb;fill:#100f0d;fill-opacity:1;fill-rule:nonzero;stroke:none"
           id="text60"><tspan
             x="0 5.0536246 8.9453354 12.837047"
             y="0"
             sodipodi:role="line"
             id="tspan56">Read</tspan><tspan
             x="-7.97578 -4.0840693 -0.58432913 3.3073819 5.6382084 9.137949 11.083804 14.975515 18.867226 20.813082"
             y="7.5"
             sodipodi:role="line"
             id="tspan58">users data</tspan></text></g><path
         d="m 1111.38,1242.75 h 513 c 25,0 45,-20 45,-45 V 986.742 c 0,-24.992 -20,-44.992 -45,-44.992 h -513 c -25,0 -45,20 -45,44.992 v 211.008 c 0,25 20,45 45,45"
         style="fill:#e0f2c3;fill-opacity:1;fill-rule:nonzero;stroke:none"
         id="path62" /><path
         d="m 1111.38,1242.75 h 513 c 25,0 45,-20 45,-45 V 986.742 c 0,-24.992 -20,-44.992 -45,-44.992 h -513 c -25,0 -45,20 -45,44.992 v 211.008 c 0,25 20,45 45,45 z"
         style="fill:none;stroke:#298a3c;stroke-width:5.0003;stroke-linecap:butt;stroke-linejoin:miter;stroke-miterlimit:4;stroke-dasharray:none;stroke-opacity:1"
         id="path64" /><g
         id="g66"
         transform="scale(10)"><text
           transform="matrix(1,0,0,-1,116.944,107.358)"
           style="font-variant:normal;font-weight:normal;font-size:6.99948px;font-family:Arial;-inkscape-font-specification:ArialMT;writing-mode:lr-tb;fill:#100f0d;fill-opacity:1;fill-rule:nonzero;stroke:none"
           id="text70"><tspan
             x="0 5.0536246 8.5533648 12.445075 14.775903 18.275642 20.221498 24.113209 28.004919 31.896631 35.788342"
             y="0"
             sodipodi:role="line"
             id="tspan68">Users queue</tspan></text></g><path
         d="m 2550.38,1970.95 c 250.17,0 453,-202.81 453,-453 0,-250.19 -202.83,-453 -453,-453 -250.19,0 -453,202.81 -453,453 0,250.19 202.81,453 453,453"
         style="fill:#c9e4f3;fill-opacity:1;fill-rule:nonzero;stroke:none"
         id="path72" /><path
         d="m 2550.38,1970.95 c 250.17,0 453,-202.81 453,-453 0,-250.19 -202.83,-453 -453,-453 -250.19,0 -453,202.81 -453,453 0,250.19 202.81,453 453,453 z"
         style="fill:none;stroke:#293985;stroke-width:5.0003;stroke-linecap:butt;stroke-linejoin:miter;stroke-miterlimit:4;stroke-dasharray:none;stroke-opacity:1"
         id="path74" /><path
         d="m 2308.11,1542.95 c 0,42 108.27,75 242.27,75 64.3,0 126.49,-8 171.52,-22 45.02,-14 70.75,-33 70.75,-53 v -352 c 0,-42 -108.27,-75 -242.27,-75 -134,0 -242.27,34 -242.27,75 v 352"
         style="fill:#bfbdbc;fill-opacity:1;fill-rule:nonzero;stroke:none"
         id="path76" /><path
         d="m 2308.11,1542.95 c 0,42 108.27,75 242.27,75 64.3,0 126.49,-8 171.52,-22 45.02,-14 70.75,-33 70.75,-53 v -352 c 0,-42 -108.27,-75 -242.27,-75 -134,0 -242.27,34 -242.27,75 z"
         style="fill:none;stroke:#100f0d;stroke-width:5.0003;stroke-linecap:butt;stroke-linejoin:miter;stroke-miterlimit:10;stroke-dasharray:none;stroke-opacity:1"
         id="path78" /><path
         d="m 2792.65,1542.95 c 0,-42 -108.27,-75 -242.27,-75 -134,0 -242.27,34 -242.27,75"
         style="fill:none;stroke:#100f0d;stroke-width:5.0003;stroke-linecap:butt;stroke-linejoin:miter;stroke-miterlimit:10;stroke-dasharray:none;stroke-opacity:1"
         id="path80" /><g
         id="g82"
         transform="scale(10)"><text
           transform="matrix(1,0,0,-1,239.084,136.666)"
           style="font-variant:normal;font-weight:normal;font-size:6.99948px;font-family:Arial;-inkscape-font-specification:ArialMT;writing-mode:lr-tb;fill:#100f0d;fill-opacity:1;fill-rule:nonzero;stroke:none"
           id="text94"><tspan
             x="0 5.0536246 8.9453354 10.891191 14.782902 18.674612 22.566324 26.066063"
             y="0"
             sodipodi:role="line"
             id="tspan84">Database</tspan><tspan
             x="-5.05898 -1.1672691 2.7244418 5.0552688 7.0011239 8.5550089 10.500864 12.054749 15.94646 19.838171 23.729881 27.621592 29.567448 33.45916"
             y="8.3996096"
             sodipodi:role="line"
             id="tspan86">partitioned by</tspan><tspan
             x="4.4749999 8.3667107 11.866451 15.758162 18.088989 21.9807 23.534584"
             y="16.799219"
             sodipodi:role="line"
             id="tspan88">user_id</tspan><tspan
             x="-1.94023 3.1133945 6.6131344 10.504846 12.835672 14.781528 18.673239 21.004065 24.898853 28.398592 29.952477"
             y="-43.349579"
             sodipodi:role="line"
             id="tspan90">User profle</tspan><tspan
             x="4.86797 8.3677101 12.259421 14.590248 18.089987 19.643873 23.143612"
             y="-34.949581"
             sodipodi:role="line"
             id="tspan92">service</tspan></text></g><path
         d="m 2550.38,863.949 c 236.37,0 428,-191.629 428,-428 0,-236.375 -191.63,-427.99978 -428,-427.99978 -236.38,0 -428,191.62478 -428,427.99978 0,236.371 191.62,428 428,428"
         style="fill:#fafbfb;fill-opacity:1;fill-rule:nonzero;stroke:none"
         id="path96" /><path
         d="m 2550.38,863.949 c 236.37,0 428,-191.629 428,-428 0,-236.375 -191.63,-427.99978 -428,-427.99978 -236.38,0 -428,191.62478 -428,427.99978 0,236.371 191.62,428 428,428 z"
         style="fill:none;stroke:#5e6061;stroke-width:5.0003;stroke-linecap:butt;stroke-linejoin:miter;stroke-miterlimit:4;stroke-dasharray:none;stroke-opacity:1"
         id="path98" /><path
         d="m 2383.25,334.949 c 0,42 75.26,75 167.13,75 44.28,0 86.33,-8 118.43,-21.996 32.1,-14.004 48.7,-33.004 48.7,-53.004 V 82.9492 c 0,-42 -75.28,-74.99998 -167.13,-74.99998 -91.87,0 -167.13,33.99998 -167.13,74.99998 V 334.949"
         style="fill:#bfbdbc;fill-opacity:1;fill-rule:nonzero;stroke:none"
         id="path100" /><path
         d="m 2383.25,334.949 c 0,42 75.26,75 167.13,75 44.28,0 86.33,-8 118.43,-21.996 32.1,-14.004 48.7,-33.004 48.7,-53.004 V 82.9492 c 0,-42 -75.28,-74.99998 -167.13,-74.99998 -91.87,0 -167.13,33.99998 -167.13,74.99998 z"
         style="fill:none;stroke:#100f0d;stroke-width:5.0003;stroke-linecap:butt;stroke-linejoin:miter;stroke-miterlimit:10;stroke-dasharray:none;stroke-opacity:1"
         id="path102" /><path
         d="m 2717.51,334.949 c 0,-41.996 -75.28,-75 -167.13,-75 -91.87,0 -167.13,34 -167.13,75"
         style="fill:none;stroke:#100f0d;stroke-width:5.0003;stroke-linecap:butt;stroke-linejoin:miter;stroke-miterlimit:10;stroke-dasharray:none;stroke-opacity:1"
         id="path104" /><g
         id="g106"
         transform="scale(10)"><text
           transform="matrix(1,0,0,-1,245.311,17.0789)"
           style="font-variant:normal;font-weight:normal;font-size:6.99948px;font-family:Arial;-inkscape-font-specification:ArialMT;writing-mode:lr-tb;fill:#100f0d;fill-opacity:1;fill-rule:nonzero;stroke:none"
           id="text118"><tspan
             x="0 5.4455953 7.7764225 11.668133 15.559844"
             y="0"
             sodipodi:role="line"
             id="tspan108">Graph</tspan><tspan
             x="-4.6742201 -0.78250915 3.1092017 5.055057 8.9467678 12.838479 16.73019 20.229929"
             y="8.3988304"
             sodipodi:role="line"
             id="tspan110">database</tspan><tspan
             x="-4.087111 0.96651357 4.8582244 6.4121089 10.30382 12.249676 13.80356 17.695271"
             y="-52.239868"
             sodipodi:role="line"
             id="tspan112">Relation</tspan><tspan
             x="-2.917191 0.97451991 4.866231 8.7579412 10.311826 13.811566 17.311306 18.865191"
             y="-43.83987"
             sodipodi:role="line"
             id="tspan114">analysis</tspan><tspan
             x="-1.358991 2.140749 6.0324597 8.363287 11.863027 13.416911 16.916651"
             y="-35.439869"
             sodipodi:role="line"
             id="tspan116">service</tspan></text></g></g></g></svg>
