<?xml version="1.0" encoding="UTF-8" standalone="no"?>
<!-- Created with Inkscape (http://www.inkscape.org/) -->

<svg
   version="1.1"
   id="svg2"
   xml:space="preserve"
   width="525.33331"
   height="224"
   viewBox="0 0 525.33331 224"
   sodipodi:docname="10-7.eps"
   xmlns:inkscape="http://www.inkscape.org/namespaces/inkscape"
   xmlns:sodipodi="http://sodipodi.sourceforge.net/DTD/sodipodi-0.dtd"
   xmlns="http://www.w3.org/2000/svg"
   xmlns:svg="http://www.w3.org/2000/svg"><defs
     id="defs6" /><sodipodi:namedview
     id="namedview4"
     pagecolor="#ffffff"
     bordercolor="#666666"
     borderopacity="1.0"
     inkscape:pageshadow="2"
     inkscape:pageopacity="0.0"
     inkscape:pagecheckerboard="0" /><g
     id="g8"
     inkscape:groupmode="layer"
     inkscape:label="ink_ext_XXXXXX"
     transform="matrix(1.3333333,0,0,-1.3333333,0,224)"><g
       id="g10"
       transform="scale(0.1)"><path
         d="M 620.508,966.617 H 1256.07"
         style="fill:none;stroke:#100f0d;stroke-width:4.9691;stroke-linecap:butt;stroke-linejoin:miter;stroke-miterlimit:10;stroke-dasharray:none;stroke-opacity:1"
         id="path12" /><path
         d="m 1246.23,952.184 53.86,14.433 -53.86,14.434 z"
         style="fill:#100f0d;fill-opacity:1;fill-rule:nonzero;stroke:none"
         id="path14" /><g
         id="g16"
         transform="scale(10)"><text
           transform="matrix(0.999753,0,0,-1,82.973,100.342)"
           style="font-variant:normal;font-weight:normal;font-size:6.99976px;font-family:Arial;-inkscape-font-specification:ArialMT;writing-mode:lr-tb;fill:#100f0d;fill-opacity:1;fill-rule:nonzero;stroke:none"
           id="text20"><tspan
             x="0 3.8918664 5.8378 7.7837329 12.83756 16.729427 18.283373 19.83732"
             y="0"
             sodipodi:role="line"
             id="tspan18">1. Calls</tspan></text></g><path
         d="M 311.504,1275.71 V 1584.8 H 1609.09 v -265.08"
         style="fill:none;stroke:#100f0d;stroke-width:4.9691;stroke-linecap:butt;stroke-linejoin:miter;stroke-miterlimit:10;stroke-dasharray:none;stroke-opacity:1"
         id="path22" /><path
         d="m 1594.66,1329.56 14.43,-53.85 14.43,53.85 z"
         style="fill:#100f0d;fill-opacity:1;fill-rule:nonzero;stroke:none"
         id="path24" /><g
         id="g26"
         transform="scale(10)"><text
           transform="matrix(0.999753,0,0,-1,65.618,162.001)"
           style="font-variant:normal;font-weight:normal;font-size:6.99976px;font-family:Arial;-inkscape-font-specification:ArialMT;writing-mode:lr-tb;fill:#100f0d;fill-opacity:1;fill-rule:nonzero;stroke:none"
           id="text30"><tspan
             x="0 3.8918664 5.8378 7.7837329 12.83756 16.729427 18.67536 21.006279 24.506159 26.452093 30.34396 34.235825 38.127693 40.073627 43.573505 47.465374 49.019318 50.573265"
             y="0"
             sodipodi:role="line"
             id="tspan28">6. Retry and calls</tspan></text></g><path
         d="m 311.504,1275.71 c 170.66,0 309.004,-138.39 309.004,-309.093 0,-170.707 -138.344,-309.097 -309.004,-309.097 -170.66,0 -309.00791,138.39 -309.00791,309.097 0,170.703 138.34791,309.093 309.00791,309.093"
         style="fill:#c9e4f3;fill-opacity:1;fill-rule:nonzero;stroke:none"
         id="path32" /><path
         d="m 311.504,1275.71 c 170.66,0 309.004,-138.39 309.004,-309.093 0,-170.707 -138.344,-309.097 -309.004,-309.097 -170.66,0 -309.00791,138.39 -309.00791,309.097 0,170.703 138.34791,309.093 309.00791,309.093 z"
         style="fill:none;stroke:#293985;stroke-width:4.9691;stroke-linecap:butt;stroke-linejoin:miter;stroke-miterlimit:4;stroke-dasharray:none;stroke-opacity:1"
         id="path34" /><g
         id="g36"
         transform="scale(10)"><text
           transform="matrix(0.999753,0,0,-1,7.175,94.4063)"
           style="font-variant:normal;font-weight:normal;font-size:6.99976px;font-family:Arial;-inkscape-font-specification:ArialMT;writing-mode:lr-tb;fill:#100f0d;fill-opacity:1;fill-rule:nonzero;stroke:none"
           id="text40"><tspan
             x="0 4.6688399 8.5607061 12.452573 14.006519 15.560467 19.060347 22.952213 24.898146 26.452093 30.34396 35.802582"
             y="0"
             sodipodi:role="line"
             id="tspan38">ApplicationA</tspan></text></g><path
         d="M 1609.09,657.52 V 285.672 H 311.504 v 327.84"
         style="fill:none;stroke:#100f0d;stroke-width:4.9691;stroke-linecap:butt;stroke-linejoin:miter;stroke-miterlimit:10;stroke-dasharray:none;stroke-opacity:1"
         id="path42" /><path
         d="M 325.938,603.66 311.504,657.52 297.07,603.66 Z"
         style="fill:#100f0d;fill-opacity:1;fill-rule:nonzero;stroke:none"
         id="path44" /><g
         id="g46"
         transform="scale(10)"><text
           transform="matrix(0.999753,0,0,-1,73.2137,35.8289)"
           style="font-variant:normal;font-weight:normal;font-size:6.99976px;font-family:Arial;-inkscape-font-specification:ArialMT;writing-mode:lr-tb;fill:#100f0d;fill-opacity:1;fill-rule:nonzero;stroke:none"
           id="text50"><tspan
             x="0 3.8918664 5.8378 7.7837329 12.83756 16.729427 20.229307 24.121174 28.013039 31.904905 35.404785"
             y="0"
             sodipodi:role="line"
             id="tspan48">4. Response</tspan></text></g><path
         d="m 1923.21,966.617 h 618.01 l 423.82,-1.074"
         style="fill:none;stroke:#100f0d;stroke-width:4.9691;stroke-linecap:butt;stroke-linejoin:miter;stroke-miterlimit:10;stroke-dasharray:none;stroke-opacity:1"
         id="path52" /><path
         d="m 2955.16,951.137 53.9,14.297 -53.82,14.57 z"
         style="fill:#100f0d;fill-opacity:1;fill-rule:nonzero;stroke:none"
         id="path54" /><g
         id="g56"
         transform="scale(10)"><text
           transform="matrix(0.999753,0,0,-1,199.742,86.9504)"
           style="font-variant:normal;font-weight:normal;font-size:6.99976px;font-family:Arial;-inkscape-font-specification:ArialMT;writing-mode:lr-tb;fill:#100f0d;fill-opacity:1;fill-rule:nonzero;stroke:none"
           id="text62"><tspan
             x="0 3.8918664 5.8378 7.7837329 12.83756 16.729427 20.621292 24.121174 27.621054 29.566986 31.51292 35.404785 39.296654 41.242584 43.188519 44.742466 46.6884 48.634331 50.188278 53.68816 55.634094 59.525959 63.417824 65.363762 67.309692"
             y="0"
             sodipodi:role="line"
             id="tspan58">2. Check that it is not a</tspan><tspan
             x="7.7792602 11.671126 15.562993 19.454859 21.008806 22.562754 26.062634 29.9545 31.900433 35.792301 37.738232 41.6301 45.521965 49.413834 51.359764 54.859646 58.751511 62.251392 66.143257 69.643135 71.589073 73.143021"
             y="8.3999996"
             sodipodi:role="line"
             id="tspan60">duplicate and saves id</tspan></text></g><path
         d="m 1826.94,1184.52 h 709.17 l 428.93,-2.15"
         style="fill:none;stroke:#100f0d;stroke-width:4.9691;stroke-linecap:butt;stroke-linejoin:miter;stroke-miterlimit:10;stroke-dasharray:none;stroke-opacity:1"
         id="path64" /><path
         d="m 2955.13,1167.99 53.93,14.16 -53.78,14.7 z"
         style="fill:#100f0d;fill-opacity:1;fill-rule:nonzero;stroke:none"
         id="path66" /><g
         id="g68"
         transform="scale(10)"><text
           transform="matrix(0.999753,0,0,-1,204.355,132.227)"
           style="font-variant:normal;font-weight:normal;font-size:6.99976px;font-family:Arial;-inkscape-font-specification:ArialMT;writing-mode:lr-tb;fill:#100f0d;fill-opacity:1;fill-rule:nonzero;stroke:none"
           id="text74"><tspan
             x="0 3.8918664 5.8378 7.7837329 12.83756 16.729427 18.67536 21.006279 24.506159 26.452093 28.006041 31.50592 33.451855 37.343719 39.289654 43.181519 47.073387 50.965252 52.519199 54.073147 57.573025 61.464893 63.410828 67.302689"
             y="0"
             sodipodi:role="line"
             id="tspan70">7. Retry is a duplicate,</tspan><tspan
             x="7.7792602 11.671126 15.562993 17.508926 21.008806 24.900673 28.79254 32.684406 35.015327 38.907192 42.799061"
             y="8.3996096"
             sodipodi:role="line"
             id="tspan72">no send-out</tspan></text></g><path
         d="m 1609.09,1275.71 c 170.66,0 309.01,-138.39 309.01,-309.093 0,-170.707 -138.35,-309.097 -309.01,-309.097 -170.66,0 -309,138.39 -309,309.097 0,170.703 138.34,309.093 309,309.093"
         style="fill:#fafbfb;fill-opacity:1;fill-rule:nonzero;stroke:none"
         id="path76" /><path
         d="m 1609.09,1275.71 c 170.66,0 309.01,-138.39 309.01,-309.093 0,-170.707 -138.35,-309.097 -309.01,-309.097 -170.66,0 -309,138.39 -309,309.097 0,170.703 138.34,309.093 309,309.093 z"
         style="fill:none;stroke:#5e6061;stroke-width:4.9691;stroke-linecap:butt;stroke-linejoin:miter;stroke-miterlimit:4;stroke-dasharray:none;stroke-opacity:1"
         id="path78" /><g
         id="g80"
         transform="scale(10)"><text
           transform="matrix(0.999753,0,0,-1,139.028,94.4063)"
           style="font-variant:normal;font-weight:normal;font-size:6.99976px;font-family:Arial;-inkscape-font-specification:ArialMT;writing-mode:lr-tb;fill:#100f0d;fill-opacity:1;fill-rule:nonzero;stroke:none"
           id="text84"><tspan
             x="0 5.8308001 9.7226667 11.276613 12.83056 14.776493 18.276373 22.16824 24.499161 27.999041 29.552986 33.052868"
             y="0"
             sodipodi:role="line"
             id="tspan82">Mail service</tspan></text></g><path
         d="m 207.734,497.23 53.317,30.79 154.5,-267.68 -53.317,-30.789 -154.5,267.679"
         style="fill:#f792a4;fill-opacity:1;fill-rule:nonzero;stroke:none"
         id="path86" /><path
         d="m 207.734,497.23 53.317,30.79 154.5,-267.68 -53.317,-30.789 z"
         style="fill:none;stroke:#b74248;stroke-width:4.9691;stroke-linecap:butt;stroke-linejoin:miter;stroke-miterlimit:4;stroke-dasharray:none;stroke-opacity:1"
         id="path88" /><path
         d="m 179.832,291.352 218.496,218.55 43.535,-43.543 -218.5,-218.558 -43.531,43.551"
         style="fill:#f792a4;fill-opacity:1;fill-rule:nonzero;stroke:none"
         id="path90" /><path
         d="m 179.832,291.352 218.496,218.55 43.535,-43.543 -218.5,-218.558 z"
         style="fill:none;stroke:#b74248;stroke-width:4.9691;stroke-linecap:butt;stroke-linejoin:miter;stroke-miterlimit:4;stroke-dasharray:none;stroke-opacity:1"
         id="path92" /><g
         id="g94"
         transform="scale(10)"><text
           transform="matrix(0.999753,0,0,-1,19.8238,12.8762)"
           style="font-variant:normal;font-weight:normal;font-size:6.99976px;font-family:Arial;-inkscape-font-specification:ArialMT;writing-mode:lr-tb;fill:#100f0d;fill-opacity:1;fill-rule:nonzero;stroke:none"
           id="text98"><tspan
             x="0 3.8918664 5.8378 7.7837329 12.83756 16.729427 18.67536 23.729187 27.621054 29.951973 33.451855 35.397785 39.289654 43.181519 45.51244 47.458374 49.012318 50.958252 52.512199 56.404064"
             y="0"
             sodipodi:role="line"
             id="tspan96">5. Network partition</tspan></text></g><path
         d="m 680.289,1534.74 h 499.641 c 17.51,0 30.98,-14.82 30.98,-30.99 v -148.18 c 0,-17.52 -14.81,-30.98 -30.98,-30.98 H 680.289 c -17.512,0 -30.976,14.81 -30.976,30.98 v 148.18 c -1.348,17.52 13.464,30.99 30.976,30.99"
         style="fill:#ac7ac4;fill-opacity:1;fill-rule:nonzero;stroke:none"
         id="path100" /><path
         d="m 680.289,1534.74 h 499.641 c 17.51,0 30.98,-14.82 30.98,-30.99 v -148.18 c 0,-17.52 -14.81,-30.98 -30.98,-30.98 H 680.289 c -17.512,0 -30.976,14.81 -30.976,30.98 v 148.18 c -1.348,17.52 13.464,30.99 30.976,30.99 z"
         style="fill:none;stroke:#41266c;stroke-width:4.9691;stroke-linecap:butt;stroke-linejoin:miter;stroke-miterlimit:4;stroke-dasharray:none;stroke-opacity:1"
         id="path102" /><path
         d="m 680.289,908.922 h 499.641 c 17.51,0 30.98,-14.82 30.98,-30.984 V 729.75 c 0,-17.512 -14.81,-30.98 -30.98,-30.98 H 680.289 c -17.512,0 -30.976,14.816 -30.976,30.98 v 148.188 c -1.348,17.515 13.464,30.984 30.976,30.984"
         style="fill:#ac7ac4;fill-opacity:1;fill-rule:nonzero;stroke:none"
         id="path104" /><path
         d="m 680.289,908.922 h 499.641 c 17.51,0 30.98,-14.82 30.98,-30.984 V 729.75 c 0,-17.512 -14.81,-30.98 -30.98,-30.98 H 680.289 c -17.512,0 -30.976,14.816 -30.976,30.98 v 148.188 c -1.348,17.515 13.464,30.984 30.976,30.984 z"
         style="fill:none;stroke:#41266c;stroke-width:4.9691;stroke-linecap:butt;stroke-linejoin:miter;stroke-miterlimit:4;stroke-dasharray:none;stroke-opacity:1"
         id="path106" /><g
         id="g108"
         transform="scale(10)"><text
           transform="matrix(0.999753,0,0,-1,72.7793,145.133)"
           style="font-variant:normal;font-weight:normal;font-size:6.99976px;font-family:Arial;-inkscape-font-specification:ArialMT;writing-mode:lr-tb;fill:#100f0d;fill-opacity:1;fill-rule:nonzero;stroke:none"
           id="text118"><tspan
             x="0 5.0538268 8.945693 12.83756 16.729427 20.621292 24.121174 26.067106 28.013039 33.066868 34.620811 36.566746"
             y="0"
             sodipodi:role="line"
             id="tspan110">Request with</tspan><tspan
             x="5.6377201 7.5836535 11.47552 13.421453 15.367387 17.31332 21.205187 25.097054 28.98892"
             y="8.3996096"
             sodipodi:role="line"
             id="tspan112">Id : 1234</tspan><tspan
             x="0 5.0538268 8.945693 12.83756 16.729427 20.621292 24.121174 26.067106 28.013039 33.066868 34.620811 36.566746"
             y="61.985111"
             sodipodi:role="line"
             id="tspan114">Request with</tspan><tspan
             x="5.6377201 7.5836535 11.47552 13.421453 15.367387 17.31332 21.205187 25.097054 28.98892"
             y="70.385498"
             sodipodi:role="line"
             id="tspan116">Id : 1234</tspan></text></g><path
         d="m 3010.05,1265.62 c 0,55.92 205.8,101.43 460.11,101.43 122,0 239.6,-10.4 324.86,-29.91 86.73,-19.5 135.24,-45.51 135.24,-71.52 V 519.172 c 0,-55.922 -205.79,-101.43 -460.1,-101.43 -254.31,0 -460.11,45.508 -460.11,101.43 v 746.448"
         style="fill:#e0f2c3;fill-opacity:1;fill-rule:nonzero;stroke:none"
         id="path120" /><path
         d="m 3010.05,1265.62 c 0,55.92 205.8,101.43 460.11,101.43 122,0 239.6,-10.4 324.86,-29.91 86.73,-19.5 135.24,-45.51 135.24,-71.52 V 519.172 c 0,-55.922 -205.79,-101.43 -460.1,-101.43 -254.31,0 -460.11,45.508 -460.11,101.43 z"
         style="fill:none;stroke:#298a3c;stroke-width:5.5276;stroke-linecap:butt;stroke-linejoin:miter;stroke-miterlimit:4;stroke-dasharray:none;stroke-opacity:1"
         id="path122" /><path
         d="m 3930.26,1265.62 c 0,-55.92 -205.79,-101.43 -460.1,-101.43 -254.31,0 -460.11,45.51 -460.11,101.43 h 920.21"
         style="fill:#e0f2c3;fill-opacity:1;fill-rule:nonzero;stroke:none"
         id="path124" /><path
         d="m 3930.26,1265.62 c 0,-55.92 -205.79,-101.43 -460.1,-101.43 -254.31,0 -460.11,45.51 -460.11,101.43"
         style="fill:none;stroke:#298a3c;stroke-width:5.5276;stroke-linecap:butt;stroke-linejoin:miter;stroke-miterlimit:4;stroke-dasharray:none;stroke-opacity:1"
         id="path126" /><g
         id="g128"
         transform="scale(10)"><text
           transform="matrix(0.999753,0,0,-1,334.37,69.184)"
           style="font-variant:normal;font-weight:normal;font-size:6.99976px;font-family:Arial;-inkscape-font-specification:ArialMT;writing-mode:lr-tb;fill:#100f0d;fill-opacity:1;fill-rule:nonzero;stroke:none"
           id="text132"><tspan
             x="0 1.9459332 5.8378 7.7837329 9.7296667 13.621533 17.513399 21.405266"
             y="0"
             sodipodi:role="line"
             id="tspan130">Id: 1234</tspan></text><text
           transform="matrix(0.999753,0,0,-1,307.12703,103.0004)"
           style="font-variant:normal;font-weight:normal;font-size:6.99976px;font-family:'Courier New';-inkscape-font-specification:Courier;writing-mode:lr-tb;fill:#100f0d;fill-opacity:1;fill-rule:nonzero;stroke:none"
           id="text136"><tspan
             x="0 4.1998558 8.3997116 12.599568 16.799423 20.999281 25.199137 29.398993 33.598846 37.798702 41.998562 46.198418 50.398273 54.598129 58.797985 62.997841 67.197693 71.397552 75.597404"
             y="0"
             sodipodi:role="line"
             id="tspan134">Deduplication_table</tspan></text></g><path
         d="M 2063.72,351.98 V 100.93 h 241.41"
         style="fill:none;stroke:#100f0d;stroke-width:4.9691;stroke-linecap:butt;stroke-linejoin:miter;stroke-miterlimit:10;stroke-dasharray:none;stroke-opacity:1"
         id="path138" /><path
         d="m 2295.29,86.5 53.85,14.43 -53.85,14.422 z"
         style="fill:#100f0d;fill-opacity:1;fill-rule:nonzero;stroke:none"
         id="path140" /><path
         d="m 1826.94,747.531 h 235.6 V 471.59"
         style="fill:none;stroke:#100f0d;stroke-width:4.9691;stroke-linecap:butt;stroke-linejoin:miter;stroke-miterlimit:10;stroke-dasharray:none;stroke-opacity:1"
         id="path142" /><g
         id="g144"
         transform="scale(10)"><text
           transform="matrix(0.999753,0,0,-1,190.985,38.9871)"
           style="font-variant:normal;font-weight:normal;font-size:6.99976px;font-family:Arial;-inkscape-font-specification:ArialMT;writing-mode:lr-tb;fill:#100f0d;fill-opacity:1;fill-rule:nonzero;stroke:none"
           id="text148"><tspan
             x="0 3.8918664 5.8378 7.7837329 12.452573 16.34444 20.236305 24.128172"
             y="0"
             sodipodi:role="line"
             id="tspan146">3. Sends</tspan></text></g><path
         d="m 2378.65,193.289 h 500.81 c 15.39,0 27.22,-13.019 27.22,-27.23 V 35.7891 c 0,-15.3985 -13.02,-27.23051 -27.22,-27.23051 h -500.81 c -15.4,0 -27.23,13.02341 -27.23,27.23051 V 166.059 c -1.18,15.402 11.83,27.23 27.23,27.23"
         style="fill:#fcfccf;fill-opacity:1;fill-rule:nonzero;stroke:none"
         id="path150" /><path
         d="m 2378.65,193.289 h 500.81 c 15.39,0 27.22,-13.019 27.22,-27.23 V 35.7891 c 0,-15.3985 -13.02,-27.23051 -27.22,-27.23051 h -500.81 c -15.4,0 -27.23,13.02341 -27.23,27.23051 V 166.059 c -1.18,15.402 11.83,27.23 27.23,27.23 z"
         style="fill:none;stroke:#c49d19;stroke-width:4.9691;stroke-linecap:butt;stroke-linejoin:miter;stroke-miterlimit:4;stroke-dasharray:none;stroke-opacity:1"
         id="path152" /><g
         id="g154"
         transform="scale(10)"><text
           transform="matrix(0.999753,0,0,-1,252.659,7.71406)"
           style="font-variant:normal;font-weight:normal;font-size:6.99976px;font-family:Arial;-inkscape-font-specification:ArialMT;writing-mode:lr-tb;fill:#100f0d;fill-opacity:1;fill-rule:nonzero;stroke:none"
           id="text158"><tspan
             x="0 5.8308001 9.7226667 11.276613 12.83056 15.16148"
             y="0"
             sodipodi:role="line"
             id="tspan156">Mail-1</tspan></text></g></g></g></svg>
