<?xml version="1.0" encoding="UTF-8" standalone="no"?>
<!-- Created with Inkscape (http://www.inkscape.org/) -->

<svg
   version="1.1"
   id="svg2"
   xml:space="preserve"
   width="478.66666"
   height="193.33333"
   viewBox="0 0 478.66666 193.33333"
   sodipodi:docname="10-8.eps"
   xmlns:inkscape="http://www.inkscape.org/namespaces/inkscape"
   xmlns:sodipodi="http://sodipodi.sourceforge.net/DTD/sodipodi-0.dtd"
   xmlns="http://www.w3.org/2000/svg"
   xmlns:svg="http://www.w3.org/2000/svg"><defs
     id="defs6" /><sodipodi:namedview
     id="namedview4"
     pagecolor="#ffffff"
     bordercolor="#666666"
     borderopacity="1.0"
     inkscape:pageshadow="2"
     inkscape:pageopacity="0.0"
     inkscape:pagecheckerboard="0" /><g
     id="g8"
     inkscape:groupmode="layer"
     inkscape:label="ink_ext_XXXXXX"
     transform="matrix(1.3333333,0,0,-1.3333333,0,193.33333)"><g
       id="g10"
       transform="scale(0.1)"><path
         d="m 2732.24,1353.64 c 0,51.61 190.95,93.84 425.97,93.84 113.52,0 221.69,-9.37 301.81,-26.98 80.13,-17.6 124.19,-41.05 124.19,-65.7 V 668.445 c 0,-51.629 -190.96,-93.871 -426,-93.871 -235.02,0 -425.97,42.242 -425.97,93.871 v 685.195"
         style="fill:#e0f2c3;fill-opacity:1;fill-rule:nonzero;stroke:none"
         id="path12" /><path
         d="m 2732.24,1353.64 c 0,51.61 190.95,93.84 425.97,93.84 113.52,0 221.69,-9.37 301.81,-26.98 80.13,-17.6 124.19,-41.05 124.19,-65.7 V 668.445 c 0,-51.629 -190.96,-93.871 -426,-93.871 -235.02,0 -425.97,42.242 -425.97,93.871 z"
         style="fill:none;stroke:#298a3c;stroke-width:4.9691;stroke-linecap:butt;stroke-linejoin:miter;stroke-miterlimit:4;stroke-dasharray:none;stroke-opacity:1"
         id="path14" /><path
         d="m 3584.21,1353.64 c 0,-51.64 -190.96,-93.87 -426,-93.87 -235.02,0 -425.97,42.23 -425.97,93.87 h 851.97"
         style="fill:#e0f2c3;fill-opacity:1;fill-rule:nonzero;stroke:none"
         id="path16" /><path
         d="m 3584.21,1353.64 c 0,-51.64 -190.96,-93.87 -426,-93.87 -235.02,0 -425.97,42.23 -425.97,93.87"
         style="fill:none;stroke:#298a3c;stroke-width:4.9691;stroke-linecap:butt;stroke-linejoin:miter;stroke-miterlimit:4;stroke-dasharray:none;stroke-opacity:1"
         id="path18" /><g
         id="g20"
         transform="scale(10)"><text
           transform="matrix(0.9994,0,0,-1,303.18,80.2813)"
           style="font-variant:normal;font-weight:normal;font-size:6.99976px;font-family:Arial;-inkscape-font-specification:ArialMT;writing-mode:lr-tb;fill:#100f0d;fill-opacity:1;fill-rule:nonzero;stroke:none"
           id="text24"><tspan
             x="0 1.9459332 5.8378 7.7837329 9.7296667 13.621533 17.513399 21.405266"
             y="0"
             sodipodi:role="line"
             id="tspan22">Id: 1234</tspan></text><text
           transform="matrix(0.9994,0,0,-1,275.94685,107.9219)"
           style="font-variant:normal;font-weight:normal;font-size:6.99976px;font-family:'Courier New';-inkscape-font-specification:Courier;writing-mode:lr-tb;fill:#100f0d;fill-opacity:1;fill-rule:nonzero;stroke:none"
           id="text28"><tspan
             x="0 4.1998558 8.3997116 12.599568 16.799423 20.999281 25.199137 29.398993 33.598846 37.798702 41.998562 46.198418 50.398273 54.598129 58.797985 62.997841 67.197693 71.397552 75.597404"
             y="0"
             sodipodi:role="line"
             id="tspan26">Deduplication_table</tspan></text></g><path
         d="M 1942.6,423.234 V 105.277 h 392.18"
         style="fill:none;stroke:#100f0d;stroke-width:4.9691;stroke-linecap:butt;stroke-linejoin:miter;stroke-miterlimit:10;stroke-dasharray:none;stroke-opacity:1"
         id="path30" /><path
         d="m 2324.93,90.8359 53.86,14.4411 -53.86,14.43 z"
         style="fill:#100f0d;fill-opacity:1;fill-rule:nonzero;stroke:none"
         id="path32" /><path
         d="m 1457.16,860.859 h 486.61 V 531.172"
         style="fill:none;stroke:#100f0d;stroke-width:4.9691;stroke-linecap:butt;stroke-linejoin:miter;stroke-miterlimit:10;stroke-dasharray:none;stroke-opacity:1"
         id="path34" /><g
         id="g36"
         transform="scale(10)"><text
           transform="matrix(0.9994,0,0,-1,175.592,45.0527)"
           style="font-variant:normal;font-weight:normal;font-size:6.99976px;font-family:Arial;-inkscape-font-specification:ArialMT;writing-mode:lr-tb;fill:#100f0d;fill-opacity:1;fill-rule:nonzero;stroke:none"
           id="text40"><tspan
             x="0 4.6688399 8.5607061 12.452573 16.34444 18.290373 20.236305 24.128172 25.682119 27.236067 31.127934 33.458855"
             y="0"
             sodipodi:role="line"
             id="tspan38">Send failure</tspan></text></g><path
         d="m 2406.93,199.137 h 505.38 c 15.24,0 28.14,-12.91 28.14,-28.16 V 39.5625 c 0,-15.25 -12.9,-28.1484 -28.14,-28.1484 h -505.38 c -15.24,0 -28.14,12.8984 -28.14,28.1484 V 170.977 c 0,15.25 12.9,28.16 28.14,28.16"
         style="fill:#fcfccf;fill-opacity:1;fill-rule:nonzero;stroke:none"
         id="path42" /><path
         d="m 2406.93,199.137 h 505.38 c 15.24,0 28.14,-12.91 28.14,-28.16 V 39.5625 c 0,-15.25 -12.9,-28.1484 -28.14,-28.1484 h -505.38 c -15.24,0 -28.14,12.8984 -28.14,28.1484 V 170.977 c 0,15.25 12.9,28.16 28.14,28.16 z"
         style="fill:none;stroke:#c49d19;stroke-width:4.9691;stroke-linecap:butt;stroke-linejoin:miter;stroke-miterlimit:4;stroke-dasharray:none;stroke-opacity:1"
         id="path44" /><g
         id="g46"
         transform="scale(10)"><text
           transform="matrix(0.9994,0,0,-1,254.788,8.97773)"
           style="font-variant:normal;font-weight:normal;font-size:6.99976px;font-family:'Courier New';-inkscape-font-specification:Courier;writing-mode:lr-tb;fill:#100f0d;fill-opacity:1;fill-rule:nonzero;stroke:none"
           id="text50"><tspan
             x="0 4.1998558 8.3997116 12.599568 16.799423 20.999281"
             y="0"
             sodipodi:role="line"
             id="tspan48">Mail-1</tspan></text></g><path
         d="M 1506.41,1009.86 H 2685.37"
         style="fill:none;stroke:#100f0d;stroke-width:4.9691;stroke-linecap:butt;stroke-linejoin:miter;stroke-miterlimit:10;stroke-dasharray:none;stroke-opacity:1"
         id="path52" /><path
         d="m 2675.53,995.43 53.86,14.43 -53.86,14.43 z"
         style="fill:#100f0d;fill-opacity:1;fill-rule:nonzero;stroke:none"
         id="path54" /><g
         id="g56"
         transform="scale(10)"><text
           transform="matrix(0.9994,0,0,-1,173.295,113.482)"
           style="font-variant:normal;font-weight:normal;font-size:6.99976px;font-family:Arial;-inkscape-font-specification:ArialMT;writing-mode:lr-tb;fill:#100f0d;fill-opacity:1;fill-rule:nonzero;stroke:none"
           id="text62"><tspan
             x="0 5.0538268 8.945693 12.83756 16.33744 19.83732 23.3372 25.283133 26.83708 28.783012 30.728947 32.282894 34.228825 36.174759 37.728706 41.228588 43.174519 47.066387 49.012318 52.904186 56.796051 60.68792 62.241867 63.795815 67.295692 71.187561 73.133492"
             y="0"
             sodipodi:role="line"
             id="tspan58">Checks if it is a duplicate</tspan><tspan
             x="18.865601 22.757467 26.649334 30.541199 32.487133 35.987015 39.87888 43.378761 47.270626 50.770508 52.716438 54.270386"
             y="8.3999996"
             sodipodi:role="line"
             id="tspan60">and saves id</tspan></text></g><path
         d="m 1235.12,1281.32 c 149.83,0 271.29,-121.53 271.29,-271.46 0,-149.919 -121.46,-271.458 -271.29,-271.458 -149.84,0 -271.3,121.539 -271.3,271.458 0,149.93 121.46,271.46 271.3,271.46"
         style="fill:#fafbfb;fill-opacity:1;fill-rule:nonzero;stroke:none"
         id="path64" /><path
         d="m 1235.12,1281.32 c 149.83,0 271.29,-121.53 271.29,-271.46 0,-149.919 -121.46,-271.458 -271.29,-271.458 -149.84,0 -271.3,121.539 -271.3,271.458 0,149.93 121.46,271.46 271.3,271.46 z"
         style="fill:none;stroke:#5e6061;stroke-width:4.9691;stroke-linecap:butt;stroke-linejoin:miter;stroke-miterlimit:4;stroke-dasharray:none;stroke-opacity:1"
         id="path66" /><g
         id="g68"
         transform="scale(10)"><text
           transform="matrix(0.9994,0,0,-1,117.097,103.725)"
           style="font-variant:normal;font-weight:normal;font-size:6.99976px;font-family:Arial;-inkscape-font-specification:ArialMT;writing-mode:lr-tb;fill:#2f2d2e;fill-opacity:1;fill-rule:nonzero;stroke:none"
           id="text74"><tspan
             x="0 5.8308001 9.7226667 11.276613"
             y="0"
             sodipodi:role="line"
             id="tspan70">Mail</tspan><tspan
             x="-4.6688199 -1.1689399 2.7229266 5.0538468 8.5537262 10.107674 13.607553"
             y="8.3999996"
             sodipodi:role="line"
             id="tspan72">service</tspan></text></g><path
         d="M 528.801,1009.86 H 919.805"
         style="fill:none;stroke:#100f0d;stroke-width:4.9691;stroke-linecap:butt;stroke-linejoin:miter;stroke-miterlimit:10;stroke-dasharray:none;stroke-opacity:1"
         id="path76" /><path
         d="m 909.965,995.43 53.855,14.43 -53.855,14.43 z"
         style="fill:#100f0d;fill-opacity:1;fill-rule:nonzero;stroke:none"
         id="path78" /><path
         d="M 39.0352,1120.11 H 517.883 c 16.508,0 30.484,-15.16 30.484,-33.07 V 932.695 c 0,-17.914 -13.976,-33.07 -30.484,-33.07 H 39.0352 c -16.5118,0 -30.48442,15.156 -30.48442,33.07 v 154.345 c 0,17.91 13.97262,33.07 30.48442,33.07"
         style="fill:#ac7ac4;fill-opacity:1;fill-rule:nonzero;stroke:none"
         id="path80" /><path
         d="M 39.0352,1120.11 H 517.883 c 16.508,0 30.484,-15.16 30.484,-33.07 V 932.695 c 0,-17.914 -13.976,-33.07 -30.484,-33.07 H 39.0352 c -16.5118,0 -30.48442,15.156 -30.48442,33.07 v 154.345 c 0,17.91 13.97262,33.07 30.48442,33.07 z"
         style="fill:none;stroke:#41266c;stroke-width:4.9691;stroke-linecap:butt;stroke-linejoin:miter;stroke-miterlimit:4;stroke-dasharray:none;stroke-opacity:1"
         id="path82" /><g
         id="g84"
         transform="scale(10)"><text
           transform="matrix(0.9994,0,0,-1,7.625,103.725)"
           style="font-variant:normal;font-weight:normal;font-size:6.99976px;font-family:Arial;-inkscape-font-specification:ArialMT;writing-mode:lr-tb;fill:#100f0d;fill-opacity:1;fill-rule:nonzero;stroke:none"
           id="text90"><tspan
             x="0 5.0538268 8.945693 12.83756 16.729427 20.621292 24.121174 26.067106 28.013039 33.066868 34.620811 36.566746"
             y="0"
             sodipodi:role="line"
             id="tspan86">Request with</tspan><tspan
             x="7.7773199 9.3312664 13.223133 15.169066 17.115 21.006866 24.898733 28.7906"
             y="8.3999996"
             sodipodi:role="line"
             id="tspan88">id: 1234</tspan></text></g><path
         d="m 1789.1,278.426 43.95,43.98 L 2097.54,57.75 2053.59,13.7773 1789.1,278.426"
         style="fill:#f792a4;fill-opacity:1;fill-rule:nonzero;stroke:none"
         id="path92" /><path
         d="m 1789.1,278.426 43.95,43.98 264.49,-264.656 -43.95,-43.9727 z"
         style="fill:none;stroke:#b74248;stroke-width:4.9691;stroke-linecap:butt;stroke-linejoin:miter;stroke-miterlimit:4;stroke-dasharray:none;stroke-opacity:1"
         id="path94" /><path
         d="M 1789.1,57.7461 2053.58,322.395 2097.53,278.426 1833.04,13.7773 1789.1,57.7461"
         style="fill:#f792a4;fill-opacity:1;fill-rule:nonzero;stroke:none"
         id="path96" /><path
         d="M 1789.1,57.7461 2053.58,322.395 2097.53,278.426 1833.04,13.7773 Z"
         style="fill:none;stroke:#b74248;stroke-width:4.9691;stroke-linecap:butt;stroke-linejoin:miter;stroke-miterlimit:4;stroke-dasharray:none;stroke-opacity:1"
         id="path98" /></g></g></svg>
