<?xml version="1.0" encoding="UTF-8" standalone="no"?>
<!-- Created with Inkscape (http://www.inkscape.org/) -->

<svg
   version="1.1"
   id="svg2"
   xml:space="preserve"
   width="254.66667"
   height="225.33333"
   viewBox="0 0 254.66667 225.33333"
   sodipodi:docname="10-9.eps"
   xmlns:inkscape="http://www.inkscape.org/namespaces/inkscape"
   xmlns:sodipodi="http://sodipodi.sourceforge.net/DTD/sodipodi-0.dtd"
   xmlns="http://www.w3.org/2000/svg"
   xmlns:svg="http://www.w3.org/2000/svg"><defs
     id="defs6" /><sodipodi:namedview
     id="namedview4"
     pagecolor="#ffffff"
     bordercolor="#666666"
     borderopacity="1.0"
     inkscape:pageshadow="2"
     inkscape:pageopacity="0.0"
     inkscape:pagecheckerboard="0" /><g
     id="g8"
     inkscape:groupmode="layer"
     inkscape:label="ink_ext_XXXXXX"
     transform="matrix(1.3333333,0,0,-1.3333333,0,225.33333)"><g
       id="g10"
       transform="scale(0.1)"><path
         d="m 398.32,1133.14 v -84.23"
         style="fill:none;stroke:#100f0d;stroke-width:5.0003;stroke-linecap:butt;stroke-linejoin:miter;stroke-miterlimit:10;stroke-dasharray:none;stroke-opacity:1"
         id="path12" /><path
         d="m 383.793,1058.81 14.527,-54.2 14.528,54.2 z"
         style="fill:#100f0d;fill-opacity:1;fill-rule:nonzero;stroke:none"
         id="path14" /><path
         d="M 398.32,1314.94 V 1196.72"
         style="fill:none;stroke:#100f0d;stroke-width:5.0003;stroke-linecap:butt;stroke-linejoin:miter;stroke-miterlimit:10;stroke-dasharray:none;stroke-opacity:1"
         id="path16" /><g
         id="g18"
         transform="scale(10)"><text
           transform="matrix(1,0,0,-1,32.0492,114.711)"
           style="font-variant:normal;font-weight:normal;font-size:6.99976px;font-family:Arial;-inkscape-font-specification:ArialMT;writing-mode:lr-tb;fill:#100f0d;fill-opacity:1;fill-rule:nonzero;stroke:none"
           id="text22"><tspan
             x="0 1.9459332 3.8918664 5.8378 9.7296667 13.621533"
             y="0"
             sodipodi:role="line"
             id="tspan20">If not</tspan></text></g><path
         d="M 785.488,1500.45 H 1112.96"
         style="fill:none;stroke:#100f0d;stroke-width:5.0003;stroke-linecap:butt;stroke-linejoin:miter;stroke-miterlimit:10;stroke-dasharray:none;stroke-opacity:1"
         id="path24" /><path
         d="m 1103.07,1485.91 54.19,14.54 -54.19,14.52 z"
         style="fill:#100f0d;fill-opacity:1;fill-rule:nonzero;stroke:none"
         id="path26" /><path
         d="M 67.1523,1686.72 H 729.488 c 31.11,0 56,-24.89 56,-56 v -260.55 c 0,-31.12 -24.89,-55.99 -56,-55.99 H 67.1523 c -31.1054,0 -56,24.87 -56,55.99 v 261.33 c 0,30.33 24.8946,55.22 56,55.22"
         style="fill:#c9e4f3;fill-opacity:1;fill-rule:nonzero;stroke:none"
         id="path28" /><path
         d="M 67.1523,1686.72 H 729.488 c 31.11,0 56,-24.89 56,-56 v -260.55 c 0,-31.12 -24.89,-55.99 -56,-55.99 H 67.1523 c -31.1054,0 -56,24.87 -56,55.99 v 261.33 c 0,30.33 24.8946,55.22 56,55.22 z"
         style="fill:none;stroke:#293985;stroke-width:5.0003;stroke-linecap:butt;stroke-linejoin:miter;stroke-miterlimit:4;stroke-dasharray:none;stroke-opacity:1"
         id="path30" /><g
         id="g32"
         transform="scale(10)"><text
           transform="matrix(1,0,0,-1,5.59688,152.377)"
           style="font-variant:normal;font-weight:normal;font-size:6.99976px;font-family:Arial;-inkscape-font-specification:ArialMT;writing-mode:lr-tb;fill:#100f0d;fill-opacity:1;fill-rule:nonzero;stroke:none"
           id="text38"><tspan
             x="0 5.0538268 8.945693 12.83756 16.33744 19.83732 23.3372 25.283133 26.83708 28.783012 30.728947 32.282894 36.174759 38.120693 39.674641 43.174519 45.120453 49.012318 51.343239 55.235107 58.734985 62.626854 66.518723"
             y="0"
             sodipodi:role="line"
             id="tspan34">Checks if id is present</tspan><tspan
             x="10.2996 11.853547 15.745413 17.691347 19.63728 23.529146 27.421013 29.366947 33.258812 37.150681 39.096611 42.98848 46.880344 50.772213 54.272091"
             y="8.3996096"
             sodipodi:role="line"
             id="tspan36">in the database</tspan></text></g><path
         d="M 398.32,632.836 V 429.016"
         style="fill:none;stroke:#100f0d;stroke-width:5.0003;stroke-linecap:butt;stroke-linejoin:miter;stroke-miterlimit:10;stroke-dasharray:none;stroke-opacity:1"
         id="path40" /><path
         d="m 383.793,438.934 14.527,-54.211 14.528,54.211 z"
         style="fill:#100f0d;fill-opacity:1;fill-rule:nonzero;stroke:none"
         id="path42" /><path
         d="M 67.1523,1004.61 H 729.488 c 31.11,0 56,-24.887 56,-55.997 v -260.55 c 0,-31.118 -24.89,-56.008 -56,-56.008 H 67.1523 c -31.1054,0 -56,24.89 -56,56.008 v 261.328 c 0,30.332 24.8946,55.219 56,55.219"
         style="fill:#fcfccf;fill-opacity:1;fill-rule:nonzero;stroke:none"
         id="path44" /><path
         d="M 67.1523,1004.61 H 729.488 c 31.11,0 56,-24.887 56,-55.997 v -260.55 c 0,-31.118 -24.89,-56.008 -56,-56.008 H 67.1523 c -31.1054,0 -56,24.89 -56,56.008 v 261.328 c 0,30.332 24.8946,55.219 56,55.219 z"
         style="fill:none;stroke:#c49d19;stroke-width:5.0003;stroke-linecap:butt;stroke-linejoin:miter;stroke-miterlimit:4;stroke-dasharray:none;stroke-opacity:1"
         id="path46" /><g
         id="g48"
         transform="scale(10)"><text
           transform="matrix(1,0,0,-1,10.6496,84.1664)"
           style="font-variant:normal;font-weight:normal;font-size:6.99976px;font-family:Arial;-inkscape-font-specification:ArialMT;writing-mode:lr-tb;fill:#100f0d;fill-opacity:1;fill-rule:nonzero;stroke:none"
           id="text54"><tspan
             x="0 4.6688399 8.1687202 12.060587 15.560467 19.452333 21.398266 25.290133 28.790012 30.735947 34.627811 38.51968 42.019558 43.573505 47.465374 51.357239 54.857121"
             y="0"
             sodipodi:role="line"
             id="tspan50">Executes business</tspan><tspan
             x="21.9844 23.538347 27.430214 31.322081 32.876026"
             y="8.4003897"
             sodipodi:role="line"
             id="tspan52">logic</tspan></text></g><path
         d="m 1213.27,1686.72 h 632.32 c 31.12,0 56.02,-24.89 56.02,-56 v -260.55 c 0,-31.12 -24.9,-55.99 -56.02,-55.99 h -632.32 c -31.11,0 -56.01,24.87 -56.01,55.99 v 261.33 c 0,30.33 24.9,55.22 56.01,55.22"
         style="fill:#f792a4;fill-opacity:1;fill-rule:nonzero;stroke:none"
         id="path56" /><path
         d="m 1213.27,1686.72 h 632.32 c 31.12,0 56.02,-24.89 56.02,-56 v -260.55 c 0,-31.12 -24.9,-55.99 -56.02,-55.99 h -632.32 c -31.11,0 -56.01,24.87 -56.01,55.99 v 261.33 c 0,30.33 24.9,55.22 56.01,55.22 z"
         style="fill:none;stroke:#b74248;stroke-width:5.0003;stroke-linecap:butt;stroke-linejoin:miter;stroke-miterlimit:4;stroke-dasharray:none;stroke-opacity:1"
         id="path58" /><g
         id="g60"
         transform="scale(10)"><text
           transform="matrix(1,0,0,-1,122.07,152.377)"
           style="font-variant:normal;font-weight:normal;font-size:6.99976px;font-family:Arial;-inkscape-font-specification:ArialMT;writing-mode:lr-tb;fill:#100f0d;fill-opacity:1;fill-rule:nonzero;stroke:none"
           id="text66"><tspan
             x="0 1.9459332 3.8898401 5.3187504 8.8186302 10.764564 14.65643 16.602364 20.49423 24.386097 28.277964 29.831909 31.385857 34.885735 38.777603 40.723537 44.615402 46.561337 50.453201 54.34507 57.844948"
             y="0"
             sodipodi:role="line"
             id="tspan62">It’s a duplicate dose</tspan><tspan
             x="12.7801 16.671967 20.563833 22.509766 24.4557 28.347567 30.678486 34.570354 38.070232 41.962101 45.461979"
             y="8.3996096"
             sodipodi:role="line"
             id="tspan64">not process</tspan></text></g><path
         d="M 67.1523,384.723 H 729.488 c 31.11,0 56,-24.887 56,-56 V 68.1641 c 0,-31.1094 -24.89,-55.9883 -56,-55.9883 H 67.1523 c -31.1054,0 -56,24.8789 -56,55.9883 V 328.723 c 0,31.113 24.8946,56 56,56"
         style="fill:#e0f2c3;fill-opacity:1;fill-rule:nonzero;stroke:none"
         id="path68" /><path
         d="M 67.1523,384.723 H 729.488 c 31.11,0 56,-24.887 56,-56 V 68.1641 c 0,-31.1094 -24.89,-55.9883 -56,-55.9883 H 67.1523 c -31.1054,0 -56,24.8789 -56,55.9883 V 328.723 c 0,31.113 24.8946,56 56,56 z"
         style="fill:none;stroke:#298a3c;stroke-width:5.0003;stroke-linecap:butt;stroke-linejoin:miter;stroke-miterlimit:4;stroke-dasharray:none;stroke-opacity:1"
         id="path70" /><g
         id="g72"
         transform="scale(10)"><text
           transform="matrix(1,0,0,-1,19.7926,22.1773)"
           style="font-variant:normal;font-weight:normal;font-size:6.99976px;font-family:Arial;-inkscape-font-specification:ArialMT;writing-mode:lr-tb;fill:#100f0d;fill-opacity:1;fill-rule:nonzero;stroke:none"
           id="text78"><tspan
             x="0 4.6688399 8.5607061 12.060587 15.952453 19.452333 21.398266 22.952213 26.84408 28.790012 30.34396 34.235825 36.181759"
             y="0"
             sodipodi:role="line"
             id="tspan74">Saves id into</tspan><tspan
             x="-4.2828102 -0.39094344 3.5009232 7.3927898 8.9467363 10.500683 14.000563 17.892429 19.838364 23.73023 27.23011 29.176043 31.121977 35.013844 38.905708 40.459656"
             y="8.3999996"
             sodipodi:role="line"
             id="tspan76">duplicates table</tspan></text></g></g></g></svg>
