<?xml version="1.0" encoding="UTF-8" standalone="no"?>
<!-- Created with Inkscape (http://www.inkscape.org/) -->

<svg
   version="1.1"
   id="svg2"
   xml:space="preserve"
   width="508"
   height="324"
   viewBox="0 0 508 324"
   sodipodi:docname="13-1.eps"
   xmlns:inkscape="http://www.inkscape.org/namespaces/inkscape"
   xmlns:sodipodi="http://sodipodi.sourceforge.net/DTD/sodipodi-0.dtd"
   xmlns="http://www.w3.org/2000/svg"
   xmlns:svg="http://www.w3.org/2000/svg"><defs
     id="defs6" /><sodipodi:namedview
     id="namedview4"
     pagecolor="#ffffff"
     bordercolor="#666666"
     borderopacity="1.0"
     inkscape:pageshadow="2"
     inkscape:pageopacity="0.0"
     inkscape:pagecheckerboard="0" /><g
     id="g8"
     inkscape:groupmode="layer"
     inkscape:label="ink_ext_XXXXXX"
     transform="matrix(1.3333333,0,0,-1.3333333,0,324)"><g
       id="g10"
       transform="scale(0.1)"><path
         d="M 10.6367,11.8203 H 3802.12 V 2427.08 H 10.6367 V 11.8203"
         style="fill:#fafbfb;fill-opacity:1;fill-rule:nonzero;stroke:none"
         id="path12" /><path
         d="M 10.6367,11.8203 H 3802.12 V 2427.08 H 10.6367 Z"
         style="fill:none;stroke:#5e6061;stroke-width:4.9691;stroke-linecap:butt;stroke-linejoin:miter;stroke-miterlimit:4;stroke-dasharray:none;stroke-opacity:1"
         id="path14" /><path
         d="M 296.719,239.547 H 1814.92 V 1759.02 H 296.719 V 239.547"
         style="fill:#fcfccf;fill-opacity:1;fill-rule:nonzero;stroke:none"
         id="path16" /><path
         d="M 296.719,239.547 H 1814.92 V 1759.02 H 296.719 Z"
         style="fill:none;stroke:#c49d19;stroke-width:4.9691;stroke-linecap:butt;stroke-linejoin:miter;stroke-miterlimit:4;stroke-dasharray:none;stroke-opacity:1"
         id="path18" /><path
         d="m 1055.81,1243.22 c 306.4,0 554.78,-168.74 554.78,-376.876 0,-208.156 -248.38,-376.895 -554.78,-376.895 -306.392,0 -554.775,168.739 -554.775,376.895 0,208.136 248.383,376.876 554.775,376.876"
         style="fill:#def1c3;fill-opacity:1;fill-rule:nonzero;stroke:none"
         id="path20" /><path
         d="m 1055.81,1243.22 c 306.4,0 554.78,-168.74 554.78,-376.876 0,-208.156 -248.38,-376.895 -554.78,-376.895 -306.392,0 -554.775,168.739 -554.775,376.895 0,208.136 248.383,376.876 554.775,376.876 z"
         style="fill:none;stroke:#298a3c;stroke-width:4.9691;stroke-linecap:butt;stroke-linejoin:miter;stroke-miterlimit:4;stroke-dasharray:none;stroke-opacity:1"
         id="path22" /><g
         id="g24"
         transform="scale(10)"><text
           transform="matrix(0.999189,0,0,-1,69.6121,84.0102)"
           style="font-variant:normal;font-weight:normal;font-size:7.99981px;font-family:'Courier New';-inkscape-font-specification:Courier;writing-mode:lr-tb;fill:#100f0d;fill-opacity:1;fill-rule:nonzero;stroke:none"
           id="text28"><tspan
             x="0 4.7998862 9.5997725 14.399658 19.199545 23.99943 28.799316 33.599201 38.39909 43.198975 47.998859 52.798744 57.598633 62.398518 67.198402"
             y="0"
             sodipodi:role="line"
             id="tspan26">DbConfiguration</tspan></text></g><path
         d="m 2978.32,1203.53 c 306.39,0 554.79,-159.86 554.79,-357.053 0,-197.184 -248.4,-357.047 -554.79,-357.047 -306.39,0 -554.78,159.863 -554.78,357.047 0,197.193 248.39,357.053 554.78,357.053"
         style="fill:#c9e4f3;fill-opacity:1;fill-rule:nonzero;stroke:none"
         id="path30" /><path
         d="m 2978.32,1203.53 c 306.39,0 554.79,-159.86 554.79,-357.053 0,-197.184 -248.4,-357.047 -554.79,-357.047 -306.39,0 -554.78,159.863 -554.78,357.047 0,197.193 248.39,357.053 554.78,357.053 z"
         style="fill:none;stroke:#293985;stroke-width:4.9691;stroke-linecap:butt;stroke-linejoin:miter;stroke-miterlimit:4;stroke-dasharray:none;stroke-opacity:1"
         id="path32" /><g
         id="g34"
         transform="scale(10)"><text
           transform="matrix(0.999189,0,0,-1,244.195,82.1078)"
           style="font-variant:normal;font-weight:normal;font-size:7.99981px;font-family:'Courier New';-inkscape-font-specification:Courier;writing-mode:lr-tb;fill:#100f0d;fill-opacity:1;fill-rule:nonzero;stroke:none"
           id="text42"><tspan
             x="0 4.7998862 9.5997725 14.399658 19.199545 23.99943 28.799316 33.599201 38.39909 43.198975 47.998859 52.798744 57.598633 62.398518 67.198402 71.998291 76.79818 81.598061 86.397949 91.19783 95.997719 100.79761"
             y="0"
             sodipodi:role="line"
             id="tspan36">InventoryConfiguration</tspan><tspan
             x="-165.12601 -160.32611 -155.52623 -150.72635 -145.92645 -141.12657 -136.32669 -131.52679 -126.72691 -121.92702 -117.12714"
             y="-75.6754"
             sodipodi:role="line"
             id="tspan38">InventoryDb</tspan><tspan
             x="-95.263496 -90.463615 -85.663727 -80.863838 -76.063957 -71.264069 -66.464188 -61.664299 -56.86441 -52.064526 -47.264641 -42.464752 -37.664867 -32.864983 -28.065096 -23.265209"
             y="-131.7789"
             sodipodi:role="line"
             id="tspan40">InventoryService</tspan></text></g></g></g></svg>
