<?xml version="1.0" encoding="UTF-8" standalone="no"?>
<!-- Created with Inkscape (http://www.inkscape.org/) -->

<svg
   version="1.1"
   id="svg2"
   xml:space="preserve"
   width="409.33334"
   height="150.66667"
   viewBox="0 0 409.33334 150.66667"
   sodipodi:docname="13-2.eps"
   xmlns:inkscape="http://www.inkscape.org/namespaces/inkscape"
   xmlns:sodipodi="http://sodipodi.sourceforge.net/DTD/sodipodi-0.dtd"
   xmlns="http://www.w3.org/2000/svg"
   xmlns:svg="http://www.w3.org/2000/svg"><defs
     id="defs6" /><sodipodi:namedview
     id="namedview4"
     pagecolor="#ffffff"
     bordercolor="#666666"
     borderopacity="1.0"
     inkscape:pageshadow="2"
     inkscape:pageopacity="0.0"
     inkscape:pagecheckerboard="0" /><g
     id="g8"
     inkscape:groupmode="layer"
     inkscape:label="ink_ext_XXXXXX"
     transform="matrix(1.3333333,0,0,-1.3333333,0,150.66667)"><g
       id="g10"
       transform="scale(0.1)"><path
         d="M 415.254,950.75 H 720.238"
         style="fill:none;stroke:#100f0d;stroke-width:5.0003;stroke-linecap:butt;stroke-linejoin:miter;stroke-miterlimit:10;stroke-dasharray:none;stroke-opacity:1"
         id="path12" /><path
         d="m 710.332,936.223 54.203,14.527 -54.203,14.523 z"
         style="fill:#100f0d;fill-opacity:1;fill-rule:nonzero;stroke:none"
         id="path14" /><path
         d="M 39.8242,1068.09 H 380.059 c 19.437,0 35.195,-15.77 35.195,-35.2 V 868.637 c 0,-19.438 -15.758,-35.199 -35.195,-35.199 H 39.8242 c -19.4375,0 -35.19529,15.761 -35.19529,35.199 v 164.253 c 0,19.43 15.75779,35.2 35.19529,35.2"
         style="fill:#fafbfb;fill-opacity:1;fill-rule:nonzero;stroke:none"
         id="path16" /><path
         d="M 39.8242,1068.09 H 380.059 c 19.437,0 35.195,-15.77 35.195,-35.2 V 868.637 c 0,-19.438 -15.758,-35.199 -35.195,-35.199 H 39.8242 c -19.4375,0 -35.19529,15.761 -35.19529,35.199 v 164.253 c 0,19.43 15.75779,35.2 35.19529,35.2 z"
         style="fill:none;stroke:#5e6061;stroke-width:5.0003;stroke-linecap:butt;stroke-linejoin:miter;stroke-miterlimit:4;stroke-dasharray:none;stroke-opacity:1"
         id="path18" /><g
         id="g20"
         transform="scale(10)"><text
           transform="matrix(1,0,0,-1,3.92969,93.2086)"
           style="font-variant:normal;font-weight:normal;font-size:7.99981px;font-family:'Courier New';-inkscape-font-specification:Courier;writing-mode:lr-tb;fill:#2f2d2e;fill-opacity:1;fill-rule:nonzero;stroke:none"
           id="text24"><tspan
             x="0 4.7998862 9.5997725 14.399658 19.199545 23.99943 28.799316"
             y="0"
             sodipodi:role="line"
             id="tspan22">User_id</tspan></text></g><g
         id="g26"
         transform="scale(10)"><text
           transform="matrix(1,0,0,-1,84.0941,55.0785)"
           style="font-variant:normal;font-weight:normal;font-size:6.99976px;font-family:Arial;-inkscape-font-specification:ArialMT;writing-mode:lr-tb;fill:#100f0d;fill-opacity:1;fill-rule:nonzero;stroke:none"
           id="text30"><tspan
             x="0 1.9459332 3.8918664 9.3376799 11.283613 14.783493 18.67536 20.229307"
             y="0"
             sodipodi:role="line"
             id="tspan28">I/O call</tspan></text></g><path
         d="m 1468.47,950.75 h 424.76"
         style="fill:none;stroke:#100f0d;stroke-width:5.0003;stroke-linecap:butt;stroke-linejoin:miter;stroke-miterlimit:10;stroke-dasharray:none;stroke-opacity:1"
         id="path32" /><path
         d="m 1883.33,936.223 54.2,14.527 -54.2,14.523 z"
         style="fill:#100f0d;fill-opacity:1;fill-rule:nonzero;stroke:none"
         id="path34" /><g
         id="g36"
         transform="scale(10)"><text
           transform="matrix(1,0,0,-1,162.47,106.836)"
           style="font-variant:normal;font-weight:normal;font-size:6.99976px;font-family:Arial;-inkscape-font-specification:ArialMT;writing-mode:lr-tb;fill:#100f0d;fill-opacity:1;fill-rule:nonzero;stroke:none"
           id="text42"><tspan
             x="0 4.6688399 8.5607061 12.060587"
             y="0"
             sodipodi:role="line"
             id="tspan38">Pass</tspan><tspan
             x="-4.0859399 -0.19407344 3.697793 9.5285931 13.42046 17.312326"
             y="8.3999996"
             sodipodi:role="line"
             id="tspan40">number</tspan></text></g><path
         d="m 817.332,1126.73 h 598.348 c 29.16,0 52.79,-23.63 52.79,-52.79 V 827.566 c 0,-29.16 -23.63,-52.796 -52.79,-52.796 H 817.332 c -29.156,0 -52.797,23.636 -52.797,52.796 v 246.374 c 0,29.16 23.641,52.79 52.797,52.79"
         style="fill:#fcfccf;fill-opacity:1;fill-rule:nonzero;stroke:none"
         id="path44" /><path
         d="m 817.332,1126.73 h 598.348 c 29.16,0 52.79,-23.63 52.79,-52.79 V 827.566 c 0,-29.16 -23.63,-52.796 -52.79,-52.796 H 817.332 c -29.156,0 -52.797,23.636 -52.797,52.796 v 246.374 c 0,29.16 23.641,52.79 52.797,52.79 z"
         style="fill:none;stroke:#c49d19;stroke-width:5.0003;stroke-linecap:butt;stroke-linejoin:miter;stroke-miterlimit:4;stroke-dasharray:none;stroke-opacity:1"
         id="path46" /><g
         id="g48"
         transform="scale(10)"><text
           transform="matrix(1,0,0,-1,82.2457,93.2082)"
           style="font-variant:normal;font-weight:normal;font-size:7.99981px;font-family:'Courier New';-inkscape-font-specification:Courier;writing-mode:lr-tb;fill:#100f0d;fill-opacity:1;fill-rule:nonzero;stroke:none"
           id="text52"><tspan
             x="0 4.7998862 9.5997725 14.399658 19.199545 23.99943 28.799316 33.599201 38.39909 43.198975 47.998859 52.798744 57.598633"
             y="0"
             sodipodi:role="line"
             id="tspan50">BlockingGet()</tspan></text></g><path
         d="M 949.859,536.563 V 408.438"
         style="fill:none;stroke:#100f0d;stroke-width:5.0003;stroke-linecap:butt;stroke-linejoin:miter;stroke-miterlimit:10;stroke-dasharray:none;stroke-opacity:1"
         id="path54" /><path
         d="m 935.328,418.344 14.531,-54.203 14.52,54.203 z"
         style="fill:#100f0d;fill-opacity:1;fill-rule:nonzero;stroke:none"
         id="path56" /><path
         d="M 949.859,774.77 V 612.375"
         style="fill:none;stroke:#100f0d;stroke-width:5.0003;stroke-linecap:butt;stroke-linejoin:miter;stroke-miterlimit:10;stroke-dasharray:none;stroke-opacity:1"
         id="path58" /><path
         d="m 1283.15,641.801 v 88.672"
         style="fill:none;stroke:#100f0d;stroke-width:5.0003;stroke-linecap:butt;stroke-linejoin:miter;stroke-miterlimit:10;stroke-dasharray:none;stroke-opacity:1"
         id="path60" /><path
         d="m 1297.68,720.563 -14.53,54.207 -14.52,-54.207 z"
         style="fill:#100f0d;fill-opacity:1;fill-rule:nonzero;stroke:none"
         id="path62" /><path
         d="M 1283.16,364.141 V 494.57"
         style="fill:none;stroke:#100f0d;stroke-width:5.0003;stroke-linecap:butt;stroke-linejoin:miter;stroke-miterlimit:10;stroke-dasharray:none;stroke-opacity:1"
         id="path64" /><g
         id="g66"
         transform="scale(10)"><text
           transform="matrix(1,0,0,-1,116.011,59.2789)"
           style="font-variant:normal;font-weight:normal;font-size:6.99976px;font-family:Arial;-inkscape-font-specification:ArialMT;writing-mode:lr-tb;fill:#100f0d;fill-opacity:1;fill-rule:nonzero;stroke:none"
           id="text72"><tspan
             x="0 5.0538268 8.945693 10.891626 14.783493 17.114412 21.006279"
             y="0"
             sodipodi:role="line"
             id="tspan68">Returns</tspan><tspan
             x="0.389063 4.2809296 8.1727962 14.003596 17.895462 21.787329"
             y="8.4003897"
             sodipodi:role="line"
             id="tspan70">number</tspan></text></g><path
         d="M 764.535,12.1641 H 1468.47 V 364.141 H 764.535 V 12.1641"
         style="fill:#f790a1;fill-opacity:1;fill-rule:nonzero;stroke:none"
         id="path74" /><path
         d="M 764.535,12.1641 H 1468.47 V 364.141 H 764.535 Z"
         style="fill:none;stroke:#bb4146;stroke-width:5.0003;stroke-linecap:butt;stroke-linejoin:miter;stroke-miterlimit:4;stroke-dasharray:none;stroke-opacity:1"
         id="path76" /><g
         id="g78"
         transform="scale(10)"><text
           transform="matrix(1,0,0,-1,86.7527,16.9484)"
           style="font-variant:normal;font-weight:normal;font-size:6.99976px;font-family:Arial;-inkscape-font-specification:ArialMT;writing-mode:lr-tb;fill:#100f0d;fill-opacity:1;fill-rule:nonzero;stroke:none"
           id="text82"><tspan
             x="0 4.6688399 8.1687202 10.114654 14.006519 16.33744 20.229307 24.121174 25.675119 27.621054 31.120934 35.012798 37.343719 40.843601 42.397545 45.897427"
             y="0"
             sodipodi:role="line"
             id="tspan80">External service</tspan></text></g><path
         d="m 2639.03,950.75 h 384.95"
         style="fill:none;stroke:#100f0d;stroke-width:5.0003;stroke-linecap:butt;stroke-linejoin:miter;stroke-miterlimit:10;stroke-dasharray:none;stroke-opacity:1"
         id="path84" /><path
         d="m 3014.08,936.223 54.05,14.484 v 0.082 l -54.05,14.484 v -29.05"
         style="fill:#100f0d;fill-opacity:1;fill-rule:nonzero;stroke:none"
         id="path86" /><g
         id="g88"
         transform="scale(10)"><text
           transform="matrix(1,0,0,-1,268.827,106.836)"
           style="font-variant:normal;font-weight:normal;font-size:6.99976px;font-family:Arial;-inkscape-font-specification:ArialMT;writing-mode:lr-tb;fill:#100f0d;fill-opacity:1;fill-rule:nonzero;stroke:none"
           id="text94"><tspan
             x="0 5.0538268 8.945693 10.49964 13.99952 17.891386 19.445333 23.3372 25.283133 29.174999"
             y="0"
             sodipodi:role="line"
             id="tspan90">Calculated</tspan><tspan
             x="7.9800801 10.311 14.202867 17.702747 21.594614 23.14856"
             y="8.3999996"
             sodipodi:role="line"
             id="tspan92">result</tspan></text></g><path
         d="m 1987.89,1126.73 h 598.34 c 29.16,0 52.79,-23.63 52.79,-52.79 V 827.566 c 0,-29.16 -23.63,-52.796 -52.79,-52.796 h -598.34 c -29.16,0 -52.81,23.636 -52.81,52.796 v 246.374 c 0,29.16 23.65,52.79 52.81,52.79"
         style="fill:#c9e4f3;fill-opacity:1;fill-rule:nonzero;stroke:none"
         id="path96" /><path
         d="m 1987.89,1126.73 h 598.34 c 29.16,0 52.79,-23.63 52.79,-52.79 V 827.566 c 0,-29.16 -23.63,-52.796 -52.79,-52.796 h -598.34 c -29.16,0 -52.81,23.636 -52.81,52.796 v 246.374 c 0,29.16 23.65,52.79 52.81,52.79 z"
         style="fill:none;stroke:#293985;stroke-width:5.0003;stroke-linecap:butt;stroke-linejoin:miter;stroke-miterlimit:4;stroke-dasharray:none;stroke-opacity:1"
         id="path98" /><g
         id="g100"
         transform="scale(10)"><text
           transform="matrix(1,0,0,-1,205.557,97.4078)"
           style="font-variant:normal;font-weight:normal;font-size:6.99976px;font-family:Arial;-inkscape-font-specification:ArialMT;writing-mode:lr-tb;fill:#100f0d;fill-opacity:1;fill-rule:nonzero;stroke:none"
           id="text106"><tspan
             x="0 5.0538268 9.7226667 14.776493 16.722427 18.276373 22.16824 24.114174 28.006041 31.897907 35.397785 36.951733 40.451614"
             y="0"
             sodipodi:role="line"
             id="tspan102">CPU intensive</tspan><tspan
             x="4.86094 8.3608198 12.252687 13.806633 17.306513 21.19838 22.752327 26.644194 28.590126 30.144073 34.035938 37.927807"
             y="8.3996096"
             sodipodi:role="line"
             id="tspan104">calculations</tspan></text></g></g></g></svg>
