<?xml version="1.0" encoding="UTF-8" standalone="no"?>
<!-- Created with Inkscape (http://www.inkscape.org/) -->

<svg
   version="1.1"
   id="svg2"
   xml:space="preserve"
   width="356"
   height="256"
   viewBox="0 0 356 256"
   sodipodi:docname="13-3.eps"
   xmlns:inkscape="http://www.inkscape.org/namespaces/inkscape"
   xmlns:sodipodi="http://sodipodi.sourceforge.net/DTD/sodipodi-0.dtd"
   xmlns="http://www.w3.org/2000/svg"
   xmlns:svg="http://www.w3.org/2000/svg"><defs
     id="defs6" /><sodipodi:namedview
     id="namedview4"
     pagecolor="#ffffff"
     bordercolor="#666666"
     borderopacity="1.0"
     inkscape:pageshadow="2"
     inkscape:pageopacity="0.0"
     inkscape:pagecheckerboard="0" /><g
     id="g8"
     inkscape:groupmode="layer"
     inkscape:label="ink_ext_XXXXXX"
     transform="matrix(1.3333333,0,0,-1.3333333,0,256)"><g
       id="g10"
       transform="scale(0.1)"><path
         d="M 889.352,1714.76 H 442.414"
         style="fill:none;stroke:#100f0d;stroke-width:5.0003;stroke-linecap:butt;stroke-linejoin:miter;stroke-miterlimit:10;stroke-dasharray:none;stroke-opacity:1"
         id="path12" /><path
         d="m 452.32,1729.29 -54.203,-14.53 54.203,-14.53 z"
         style="fill:#100f0d;fill-opacity:1;fill-rule:nonzero;stroke:none"
         id="path14" /><g
         id="g16"
         transform="scale(10)"><text
           transform="matrix(1,0,0,-1,55.618,183.029)"
           style="font-variant:normal;font-weight:normal;font-size:6.99976px;font-family:Arial;-inkscape-font-specification:ArialMT;writing-mode:lr-tb;fill:#100f0d;fill-opacity:1;fill-rule:nonzero;stroke:none"
           id="text22"><tspan
             x="0 4.6688399 8.5607061 12.452573 14.006519"
             y="0"
             sodipodi:role="line"
             id="tspan18">Apply</tspan><tspan
             x="-4.0878901 -2.1419568 1.7499099 4.0808301 6.026763 9.9186296 13.810496 17.702362"
             y="8.3996096"
             sodipodi:role="line"
             id="tspan20">for head</tspan></text></g><path
         d="m 889.359,1517.71 h 404.071 v 394.08 H 889.359 v -394.08"
         style="fill:#ffffff;fill-opacity:1;fill-rule:nonzero;stroke:none"
         id="path24" /><path
         d="m 889.359,1517.71 h 404.071 v 394.08 H 889.359 Z"
         style="fill:none;stroke:#100f0d;stroke-width:5.0003;stroke-linecap:butt;stroke-linejoin:miter;stroke-miterlimit:4;stroke-dasharray:none;stroke-opacity:1"
         id="path26" /><path
         d="M 2541.33,1382.44 V 1156.49 H 2355.74"
         style="fill:none;stroke:#100f0d;stroke-width:5.0003;stroke-linecap:butt;stroke-linejoin:miter;stroke-miterlimit:10;stroke-dasharray:none;stroke-opacity:1"
         id="path28" /><path
         d="m 2365.65,1171.01 -54.2,-14.52 54.2,-14.53 z"
         style="fill:#100f0d;fill-opacity:1;fill-rule:nonzero;stroke:none"
         id="path30" /><path
         d="m 2311.45,1714.76 h 229.88 v -245.51"
         style="fill:none;stroke:#100f0d;stroke-width:5.0003;stroke-linecap:butt;stroke-linejoin:miter;stroke-miterlimit:10;stroke-dasharray:none;stroke-opacity:1"
         id="path32" /><g
         id="g34"
         transform="scale(10)"><text
           transform="matrix(1,0,0,-1,241.101,141.099)"
           style="font-variant:normal;font-weight:normal;font-size:6.99976px;font-family:Arial;-inkscape-font-specification:ArialMT;writing-mode:lr-tb;fill:#100f0d;fill-opacity:1;fill-rule:nonzero;stroke:none"
           id="text40"><tspan
             x="0 5.0538268 8.945693 12.445573 16.33744 18.66836 22.16824"
             y="0"
             sodipodi:role="line"
             id="tspan36">Recurse</tspan><tspan
             x="0 5.0538268 8.945693 12.445573 16.33744 18.66836 22.16824"
             y="61.138699"
             sodipodi:role="line"
             id="tspan38">Recurse</tspan></text></g><path
         d="m 1293.43,1517.71 h 1018.02 v 394.08 H 1293.43 v -394.08"
         style="fill:#ffffff;fill-opacity:1;fill-rule:nonzero;stroke:none"
         id="path42" /><path
         d="m 1293.43,1517.71 h 1018.02 v 394.08 H 1293.43 Z"
         style="fill:none;stroke:#100f0d;stroke-width:5.0003;stroke-linecap:butt;stroke-linejoin:miter;stroke-miterlimit:4;stroke-dasharray:none;stroke-opacity:1"
         id="path44" /><path
         d="m 1250.6,1714.76 h 79.93"
         style="fill:none;stroke:#100f0d;stroke-width:5.0003;stroke-linecap:butt;stroke-linejoin:miter;stroke-miterlimit:10;stroke-dasharray:none;stroke-opacity:1"
         id="path46" /><path
         d="m 1320.62,1700.23 54.2,14.53 -54.2,14.53 z"
         style="fill:#100f0d;fill-opacity:1;fill-rule:nonzero;stroke:none"
         id="path48" /><path
         d="m 1020.72,1632.66 h 229.88 v 164.2 h -229.88 v -164.2"
         style="fill:#f790a1;fill-opacity:1;fill-rule:nonzero;stroke:none"
         id="path50" /><path
         d="m 1020.72,1632.66 h 229.88 v 164.2 h -229.88 z"
         style="fill:none;stroke:#bb4146;stroke-width:5.0003;stroke-linecap:butt;stroke-linejoin:miter;stroke-miterlimit:4;stroke-dasharray:none;stroke-opacity:1"
         id="path52" /><g
         id="g54"
         transform="scale(10)"><text
           transform="matrix(1,0,0,-1,111.619,169.609)"
           style="font-variant:normal;font-weight:normal;font-size:6.99976px;font-family:Arial;-inkscape-font-specification:ArialMT;writing-mode:lr-tb;fill:#100f0d;fill-opacity:1;fill-rule:nonzero;stroke:none"
           id="text58"><tspan
             x="0"
             y="0"
             id="tspan56">1</tspan></text></g><path
         d="m 1606.14,1714.76 h 114.22"
         style="fill:none;stroke:#100f0d;stroke-width:5.0003;stroke-linecap:butt;stroke-linejoin:miter;stroke-miterlimit:10;stroke-dasharray:none;stroke-opacity:1"
         id="path60" /><path
         d="m 1710.46,1700.23 54.2,14.53 -54.2,14.53 z"
         style="fill:#100f0d;fill-opacity:1;fill-rule:nonzero;stroke:none"
         id="path62" /><path
         d="m 1376.27,1632.66 h 229.87 v 164.2 h -229.87 v -164.2"
         style="fill:#def1c3;fill-opacity:1;fill-rule:nonzero;stroke:none"
         id="path64" /><path
         d="m 1376.27,1632.66 h 229.87 v 164.2 h -229.87 z"
         style="fill:none;stroke:#298a3c;stroke-width:5.0003;stroke-linecap:butt;stroke-linejoin:miter;stroke-miterlimit:4;stroke-dasharray:none;stroke-opacity:1"
         id="path66" /><g
         id="g68"
         transform="scale(10)"><text
           transform="matrix(1,0,0,-1,147.175,169.609)"
           style="font-variant:normal;font-weight:normal;font-size:6.99976px;font-family:Arial;-inkscape-font-specification:ArialMT;writing-mode:lr-tb;fill:#100f0d;fill-opacity:1;fill-rule:nonzero;stroke:none"
           id="text72"><tspan
             x="0"
             y="0"
             id="tspan70">2</tspan></text></g><path
         d="m 1764.66,1632.66 h 229.88 v 164.2 h -229.88 v -164.2"
         style="fill:#def1c3;fill-opacity:1;fill-rule:nonzero;stroke:none"
         id="path74" /><path
         d="m 1764.66,1632.66 h 229.88 v 164.2 h -229.88 z"
         style="fill:none;stroke:#298a3c;stroke-width:5.0003;stroke-linecap:butt;stroke-linejoin:miter;stroke-miterlimit:4;stroke-dasharray:none;stroke-opacity:1"
         id="path76" /><g
         id="g78"
         transform="scale(10)"><text
           transform="matrix(1,0,0,-1,186.013,169.609)"
           style="font-variant:normal;font-weight:normal;font-size:6.99976px;font-family:Arial;-inkscape-font-specification:ArialMT;writing-mode:lr-tb;fill:#100f0d;fill-opacity:1;fill-rule:nonzero;stroke:none"
           id="text84"><tspan
             x="0"
             y="0"
             id="tspan80">3</tspan><tspan
             x="-3.3050799 0.19452702 4.0863934 5.6403403 -80.814392 -75.760567 -71.868706 -67.976837"
             y="-13.0766"
             sodipodi:role="line"
             id="tspan82">TailHead</tspan></text></g><path
         d="m 201.082,1846.12 c 108.824,0 197.035,-58.81 197.035,-131.36 0,-72.55 -88.211,-131.36 -197.035,-131.36 -108.8203,0 -197.03512,58.81 -197.03512,131.36 0,72.55 88.21482,131.36 197.03512,131.36"
         style="fill:#fafbfb;fill-opacity:1;fill-rule:nonzero;stroke:none"
         id="path86" /><path
         d="m 201.082,1846.12 c 108.824,0 197.035,-58.81 197.035,-131.36 0,-72.55 -88.211,-131.36 -197.035,-131.36 -108.8203,0 -197.03512,58.81 -197.03512,131.36 0,72.55 88.21482,131.36 197.03512,131.36 z"
         style="fill:none;stroke:#5e6061;stroke-width:5.0003;stroke-linecap:butt;stroke-linejoin:miter;stroke-miterlimit:4;stroke-dasharray:none;stroke-opacity:1"
         id="path88" /><g
         id="g90"
         transform="scale(10)"><text
           transform="matrix(1,0,0,-1,6.83008,170.169)"
           style="font-variant:normal;font-weight:normal;font-size:6.99976px;font-family:Arial;-inkscape-font-specification:ArialMT;writing-mode:lr-tb;fill:#100f0d;fill-opacity:1;fill-rule:nonzero;stroke:none"
           id="text94"><tspan
             x="0 5.0538268 8.945693 12.83756 16.729427 20.229307 24.121174"
             y="0"
             sodipodi:role="line"
             id="tspan92">Reducer</tspan></text></g><path
         d="M 889.352,1156.49 H 442.414"
         style="fill:none;stroke:#100f0d;stroke-width:5.0003;stroke-linecap:butt;stroke-linejoin:miter;stroke-miterlimit:10;stroke-dasharray:none;stroke-opacity:1"
         id="path96" /><path
         d="m 452.32,1171.01 -54.203,-14.52 54.203,-14.53 z"
         style="fill:#100f0d;fill-opacity:1;fill-rule:nonzero;stroke:none"
         id="path98" /><g
         id="g100"
         transform="scale(10)"><text
           transform="matrix(1,0,0,-1,55.618,127.507)"
           style="font-variant:normal;font-weight:normal;font-size:6.99976px;font-family:Arial;-inkscape-font-specification:ArialMT;writing-mode:lr-tb;fill:#100f0d;fill-opacity:1;fill-rule:nonzero;stroke:none"
           id="text106"><tspan
             x="0 4.6688399 8.5607061 12.452573 14.006519"
             y="0"
             sodipodi:role="line"
             id="tspan102">Apply</tspan><tspan
             x="-4.0878901 -2.1419568 1.7499099 4.0808301 6.026763 9.9186296 13.810496 17.702362"
             y="8.3999996"
             sodipodi:role="line"
             id="tspan104">for head</tspan></text></g><path
         d="M 889.359,959.441 H 1293.43 V 1353.52 H 889.359 V 959.441"
         style="fill:#ffffff;fill-opacity:1;fill-rule:nonzero;stroke:none"
         id="path108" /><path
         d="M 889.359,959.441 H 1293.43 V 1353.52 H 889.359 Z"
         style="fill:none;stroke:#100f0d;stroke-width:5.0003;stroke-linecap:butt;stroke-linejoin:miter;stroke-miterlimit:4;stroke-dasharray:none;stroke-opacity:1"
         id="path110" /><path
         d="M 1293.43,959.441 H 2311.45 V 1353.52 H 1293.43 V 959.441"
         style="fill:#ffffff;fill-opacity:1;fill-rule:nonzero;stroke:none"
         id="path112" /><path
         d="M 1293.43,959.441 H 2311.45 V 1353.52 H 1293.43 Z"
         style="fill:none;stroke:#100f0d;stroke-width:5.0003;stroke-linecap:butt;stroke-linejoin:miter;stroke-miterlimit:4;stroke-dasharray:none;stroke-opacity:1"
         id="path114" /><path
         d="m 1250.6,1156.49 h 81.37"
         style="fill:none;stroke:#100f0d;stroke-width:5.0003;stroke-linecap:butt;stroke-linejoin:miter;stroke-miterlimit:10;stroke-dasharray:none;stroke-opacity:1"
         id="path116" /><path
         d="m 1322.07,1141.96 54.2,14.53 -54.2,14.52 z"
         style="fill:#100f0d;fill-opacity:1;fill-rule:nonzero;stroke:none"
         id="path118" /><path
         d="m 1020.72,1074.39 h 229.88 v 164.2 h -229.88 v -164.2"
         style="fill:#f790a1;fill-opacity:1;fill-rule:nonzero;stroke:none"
         id="path120" /><path
         d="m 1020.72,1074.39 h 229.88 v 164.2 h -229.88 z"
         style="fill:none;stroke:#bb4146;stroke-width:5.0003;stroke-linecap:butt;stroke-linejoin:miter;stroke-miterlimit:4;stroke-dasharray:none;stroke-opacity:1"
         id="path122" /><g
         id="g124"
         transform="scale(10)"><text
           transform="matrix(1,0,0,-1,111.619,113.782)"
           style="font-variant:normal;font-weight:normal;font-size:6.99976px;font-family:Arial;-inkscape-font-specification:ArialMT;writing-mode:lr-tb;fill:#100f0d;fill-opacity:1;fill-rule:nonzero;stroke:none"
           id="text128"><tspan
             x="0"
             y="0"
             id="tspan126">2</tspan></text></g><path
         d="m 1376.27,1074.39 h 229.87 v 164.2 h -229.87 v -164.2"
         style="fill:#def1c3;fill-opacity:1;fill-rule:nonzero;stroke:none"
         id="path130" /><path
         d="m 1376.27,1074.39 h 229.87 v 164.2 h -229.87 z"
         style="fill:none;stroke:#298a3c;stroke-width:5.0003;stroke-linecap:butt;stroke-linejoin:miter;stroke-miterlimit:4;stroke-dasharray:none;stroke-opacity:1"
         id="path132" /><g
         id="g134"
         transform="scale(10)"><text
           transform="matrix(1,0,0,-1,147.175,113.782)"
           style="font-variant:normal;font-weight:normal;font-size:6.99976px;font-family:Arial;-inkscape-font-specification:ArialMT;writing-mode:lr-tb;fill:#100f0d;fill-opacity:1;fill-rule:nonzero;stroke:none"
           id="text140"><tspan
             x="0"
             y="0"
             id="tspan136">3</tspan><tspan
             x="-6.9820299 -3.4820311 0.40983555 1.9637823 -41.975391 -36.921566 -33.029697 -29.137831"
             y="-13.077"
             sodipodi:role="line"
             id="tspan138">TailHead</tspan></text></g><path
         d="m 201.082,1287.84 c 108.824,0 197.035,-58.81 197.035,-131.35 0,-72.55 -88.211,-131.36 -197.035,-131.36 -108.8203,0 -197.03512,58.81 -197.03512,131.36 0,72.54 88.21482,131.35 197.03512,131.35"
         style="fill:#fafbfb;fill-opacity:1;fill-rule:nonzero;stroke:none"
         id="path142" /><path
         d="m 201.082,1287.84 c 108.824,0 197.035,-58.81 197.035,-131.35 0,-72.55 -88.211,-131.36 -197.035,-131.36 -108.8203,0 -197.03512,58.81 -197.03512,131.36 0,72.54 88.21482,131.35 197.03512,131.35 z"
         style="fill:none;stroke:#5e6061;stroke-width:5.0003;stroke-linecap:butt;stroke-linejoin:miter;stroke-miterlimit:4;stroke-dasharray:none;stroke-opacity:1"
         id="path144" /><g
         id="g146"
         transform="scale(10)"><text
           transform="matrix(1,0,0,-1,6.83008,114.341)"
           style="font-variant:normal;font-weight:normal;font-size:6.99976px;font-family:Arial;-inkscape-font-specification:ArialMT;writing-mode:lr-tb;fill:#100f0d;fill-opacity:1;fill-rule:nonzero;stroke:none"
           id="text150"><tspan
             x="0 5.0538268 8.945693 12.83756 16.729427 20.229307 24.121174"
             y="0"
             sodipodi:role="line"
             id="tspan148">Reducer</tspan></text></g><path
         d="M 889.352,663.891 H 442.414"
         style="fill:none;stroke:#100f0d;stroke-width:5.0003;stroke-linecap:butt;stroke-linejoin:miter;stroke-miterlimit:10;stroke-dasharray:none;stroke-opacity:1"
         id="path152" /><path
         d="m 452.32,678.43 -54.203,-14.539 54.203,-14.52 z"
         style="fill:#100f0d;fill-opacity:1;fill-rule:nonzero;stroke:none"
         id="path154" /><g
         id="g156"
         transform="scale(10)"><text
           transform="matrix(1,0,0,-1,55.618,78.0648)"
           style="font-variant:normal;font-weight:normal;font-size:6.99976px;font-family:Arial;-inkscape-font-specification:ArialMT;writing-mode:lr-tb;fill:#100f0d;fill-opacity:1;fill-rule:nonzero;stroke:none"
           id="text162"><tspan
             x="0 4.6688399 8.5607061 12.452573 14.006519"
             y="0"
             sodipodi:role="line"
             id="tspan158">Apply</tspan><tspan
             x="-4.0878901 -2.1419568 1.7499099 4.0808301 6.026763 9.9186296 13.810496 17.702362"
             y="8.3999996"
             sodipodi:role="line"
             id="tspan160">for head</tspan></text></g><path
         d="M 889.359,466.848 H 1293.43 V 860.93 H 889.359 V 466.848"
         style="fill:#ffffff;fill-opacity:1;fill-rule:nonzero;stroke:none"
         id="path164" /><path
         d="M 889.359,466.848 H 1293.43 V 860.93 H 889.359 Z"
         style="fill:none;stroke:#100f0d;stroke-width:5.0003;stroke-linecap:butt;stroke-linejoin:miter;stroke-miterlimit:4;stroke-dasharray:none;stroke-opacity:1"
         id="path166" /><path
         d="M 1293.43,466.848 H 2311.45 V 860.93 H 1293.43 V 466.848"
         style="fill:#ffffff;fill-opacity:1;fill-rule:nonzero;stroke:none"
         id="path168" /><path
         d="M 1293.43,466.848 H 2311.45 V 860.93 H 1293.43 Z"
         style="fill:none;stroke:#100f0d;stroke-width:5.0003;stroke-linecap:butt;stroke-linejoin:miter;stroke-miterlimit:4;stroke-dasharray:none;stroke-opacity:1"
         id="path170" /><path
         d="m 1250.6,663.891 h 81.37"
         style="fill:none;stroke:#100f0d;stroke-width:5.0003;stroke-linecap:butt;stroke-linejoin:miter;stroke-miterlimit:10;stroke-dasharray:none;stroke-opacity:1"
         id="path172" /><path
         d="m 1322.07,649.371 54.2,14.52 -54.2,14.539 z"
         style="fill:#100f0d;fill-opacity:1;fill-rule:nonzero;stroke:none"
         id="path174" /><path
         d="M 1020.72,581.789 H 1250.6 V 745.988 H 1020.72 V 581.789"
         style="fill:#f790a1;fill-opacity:1;fill-rule:nonzero;stroke:none"
         id="path176" /><path
         d="M 1020.72,581.789 H 1250.6 V 745.988 H 1020.72 Z"
         style="fill:none;stroke:#bb4146;stroke-width:5.0003;stroke-linecap:butt;stroke-linejoin:miter;stroke-miterlimit:4;stroke-dasharray:none;stroke-opacity:1"
         id="path178" /><g
         id="g180"
         transform="scale(10)"><text
           transform="matrix(1,0,0,-1,111.619,64.523)"
           style="font-variant:normal;font-weight:normal;font-size:6.99976px;font-family:Arial;-inkscape-font-specification:ArialMT;writing-mode:lr-tb;fill:#100f0d;fill-opacity:1;fill-rule:nonzero;stroke:none"
           id="text186"><tspan
             x="0"
             y="0"
             id="tspan182">3</tspan><tspan
             x="-6.41992 -1.3660933 2.5257733 6.4176397"
             y="-13.0758"
             sodipodi:role="line"
             id="tspan184">Head</tspan></text></g><path
         d="m 201.082,795.254 c 108.824,0 197.035,-58.816 197.035,-131.363 0,-72.543 -88.211,-131.352 -197.035,-131.352 -108.8203,0 -197.03512,58.809 -197.03512,131.352 0,72.547 88.21482,131.363 197.03512,131.363"
         style="fill:#fafbfb;fill-opacity:1;fill-rule:nonzero;stroke:none"
         id="path188" /><path
         d="m 201.082,795.254 c 108.824,0 197.035,-58.816 197.035,-131.363 0,-72.543 -88.211,-131.352 -197.035,-131.352 -108.8203,0 -197.03512,58.809 -197.03512,131.352 0,72.547 88.21482,131.363 197.03512,131.363 z"
         style="fill:none;stroke:#5e6061;stroke-width:5.0003;stroke-linecap:butt;stroke-linejoin:miter;stroke-miterlimit:4;stroke-dasharray:none;stroke-opacity:1"
         id="path190" /><g
         id="g192"
         transform="scale(10)"><text
           transform="matrix(1,0,0,-1,6.83008,65.0828)"
           style="font-variant:normal;font-weight:normal;font-size:6.99976px;font-family:Arial;-inkscape-font-specification:ArialMT;writing-mode:lr-tb;fill:#100f0d;fill-opacity:1;fill-rule:nonzero;stroke:none"
           id="text196"><tspan
             x="0 5.0538268 8.945693 12.83756 16.729427 20.229307 24.121174"
             y="0"
             sodipodi:role="line"
             id="tspan194">Reducer</tspan></text></g><path
         d="M 2541.33,772.66 V 592.543 h -185.59"
         style="fill:none;stroke:#100f0d;stroke-width:5.0003;stroke-linecap:butt;stroke-linejoin:miter;stroke-miterlimit:10;stroke-dasharray:none;stroke-opacity:1"
         id="path198" /><path
         d="m 2365.65,607.059 -54.2,-14.516 54.2,-14.535 z"
         style="fill:#100f0d;fill-opacity:1;fill-rule:nonzero;stroke:none"
         id="path200" /><path
         d="m 2311.45,1096.49 h 229.88 V 852.941"
         style="fill:none;stroke:#100f0d;stroke-width:5.0003;stroke-linecap:butt;stroke-linejoin:miter;stroke-miterlimit:10;stroke-dasharray:none;stroke-opacity:1"
         id="path202" /><path
         d="M 889.352,204.141 H 442.414"
         style="fill:none;stroke:#100f0d;stroke-width:5.0003;stroke-linecap:butt;stroke-linejoin:miter;stroke-miterlimit:10;stroke-dasharray:none;stroke-opacity:1"
         id="path204" /><path
         d="M 452.32,218.668 398.117,204.141 452.32,189.609 Z"
         style="fill:#100f0d;fill-opacity:1;fill-rule:nonzero;stroke:none"
         id="path206" /><g
         id="g208"
         transform="scale(10)"><text
           transform="matrix(1,0,0,-1,43.748,31.773)"
           style="font-variant:normal;font-weight:normal;font-size:6.99976px;font-family:Arial;-inkscape-font-specification:ArialMT;writing-mode:lr-tb;fill:#100f0d;fill-opacity:1;fill-rule:nonzero;stroke:none"
           id="text214"><tspan
             x="0 5.0538268 8.945693 12.83756 16.729427 18.67536 22.567226 26.459093 30.35096 34.242825 35.796772"
             y="0"
             sodipodi:role="line"
             id="tspan210">Head equals</tspan><tspan
             x="0.39257801 4.2844443 8.1763115 9.730258 11.284204 13.230138 16.730019 20.621885 22.567818 24.898737 28.790604 30.736538 34.628403 36.959324"
             y="8.4011698"
             sodipodi:role="line"
             id="tspan212">null so return</tspan></text></g><path
         d="M 889.359,7.10938 H 1293.43 V 401.18 H 889.359 V 7.10938"
         style="fill:#ffffff;fill-opacity:1;fill-rule:nonzero;stroke:none"
         id="path216" /><path
         d="M 889.359,7.10938 H 1293.43 V 401.18 H 889.359 Z"
         style="fill:none;stroke:#100f0d;stroke-width:5.0003;stroke-linecap:butt;stroke-linejoin:miter;stroke-miterlimit:4;stroke-dasharray:none;stroke-opacity:1"
         id="path218" /><path
         d="M 1293.43,7.10938 H 2311.45 V 401.18 H 1293.43 V 7.10938"
         style="fill:#ffffff;fill-opacity:1;fill-rule:nonzero;stroke:none"
         id="path220" /><path
         d="M 1293.43,7.10938 H 2311.45 V 401.18 H 1293.43 Z"
         style="fill:none;stroke:#100f0d;stroke-width:5.0003;stroke-linecap:butt;stroke-linejoin:miter;stroke-miterlimit:4;stroke-dasharray:none;stroke-opacity:1"
         id="path222" /><g
         id="g224"
         transform="scale(10)"><text
           transform="matrix(1,0,0,-1,105.199,31.623)"
           style="font-variant:normal;font-weight:normal;font-size:6.99976px;font-family:Arial;-inkscape-font-specification:ArialMT;writing-mode:lr-tb;fill:#100f0d;fill-opacity:1;fill-rule:nonzero;stroke:none"
           id="text228"><tspan
             x="0 5.0538268 8.945693 12.83756"
             y="0"
             sodipodi:role="line"
             id="tspan226">Head</tspan></text></g><path
         d="m 201.082,335.5 c 108.824,0 197.035,-58.809 197.035,-131.359 C 398.117,131.59 309.906,72.7813 201.082,72.7813 92.2617,72.7813 4.04688,131.59 4.04688,204.141 4.04688,276.691 92.2617,335.5 201.082,335.5"
         style="fill:#fafbfb;fill-opacity:1;fill-rule:nonzero;stroke:none"
         id="path230" /><path
         d="m 201.082,335.5 c 108.824,0 197.035,-58.809 197.035,-131.359 C 398.117,131.59 309.906,72.7813 201.082,72.7813 92.2617,72.7813 4.04688,131.59 4.04688,204.141 4.04688,276.691 92.2617,335.5 201.082,335.5 Z"
         style="fill:none;stroke:#5e6061;stroke-width:5.0003;stroke-linecap:butt;stroke-linejoin:miter;stroke-miterlimit:4;stroke-dasharray:none;stroke-opacity:1"
         id="path232" /><g
         id="g234"
         transform="scale(10)"><text
           transform="matrix(1,0,0,-1,6.83008,19.107)"
           style="font-variant:normal;font-weight:normal;font-size:6.99976px;font-family:Arial;-inkscape-font-specification:ArialMT;writing-mode:lr-tb;fill:#100f0d;fill-opacity:1;fill-rule:nonzero;stroke:none"
           id="text238"><tspan
             x="0 5.0538268 8.945693 12.83756 16.729427 20.229307 24.121174"
             y="0"
             sodipodi:role="line"
             id="tspan236">Reducer</tspan></text></g><path
         d="M 2541.33,284.688 V 138.461 h -185.59"
         style="fill:none;stroke:#100f0d;stroke-width:5.0003;stroke-linecap:butt;stroke-linejoin:miter;stroke-miterlimit:10;stroke-dasharray:none;stroke-opacity:1"
         id="path240" /><path
         d="m 2365.65,152.988 -54.2,-14.527 54.2,-14.531 z"
         style="fill:#100f0d;fill-opacity:1;fill-rule:nonzero;stroke:none"
         id="path242" /><path
         d="m 2311.45,532.539 h 229.88 v -166.34"
         style="fill:none;stroke:#100f0d;stroke-width:5.0003;stroke-linecap:butt;stroke-linejoin:miter;stroke-miterlimit:10;stroke-dasharray:none;stroke-opacity:1"
         id="path244" /><g
         id="g246"
         transform="scale(10)"><text
           transform="matrix(1,0,0,-1,241.101,31.0871)"
           style="font-variant:normal;font-weight:normal;font-size:6.99976px;font-family:Arial;-inkscape-font-specification:ArialMT;writing-mode:lr-tb;fill:#100f0d;fill-opacity:1;fill-rule:nonzero;stroke:none"
           id="text250"><tspan
             x="0 5.0538268 8.945693 12.445573 16.33744 18.66836 22.16824"
             y="0"
             sodipodi:role="line"
             id="tspan248">Recurse</tspan></text></g></g></g></svg>
