<?xml version="1.0" encoding="UTF-8" standalone="no"?>
<!-- Created with Inkscape (http://www.inkscape.org/) -->

<svg
   version="1.1"
   id="svg2"
   xml:space="preserve"
   width="220"
   height="88"
   viewBox="0 0 220 88"
   sodipodi:docname="13-4.eps"
   xmlns:inkscape="http://www.inkscape.org/namespaces/inkscape"
   xmlns:sodipodi="http://sodipodi.sourceforge.net/DTD/sodipodi-0.dtd"
   xmlns="http://www.w3.org/2000/svg"
   xmlns:svg="http://www.w3.org/2000/svg"><defs
     id="defs6" /><sodipodi:namedview
     id="namedview4"
     pagecolor="#ffffff"
     bordercolor="#666666"
     borderopacity="1.0"
     inkscape:pageshadow="2"
     inkscape:pageopacity="0.0"
     inkscape:pagecheckerboard="0" /><g
     id="g8"
     inkscape:groupmode="layer"
     inkscape:label="ink_ext_XXXXXX"
     transform="matrix(1.3333333,0,0,-1.3333333,0,88)"><g
       id="g10"
       transform="scale(0.1)"><path
         d="m 913.27,549.133 h 258.66"
         style="fill:none;stroke:#100f0d;stroke-width:3.9997;stroke-linecap:butt;stroke-linejoin:miter;stroke-miterlimit:10;stroke-dasharray:none;stroke-opacity:1"
         id="path12" /><path
         d="m 1164,537.512 43.37,11.621 -43.37,11.625 z"
         style="fill:#100f0d;fill-opacity:1;fill-rule:nonzero;stroke:none"
         id="path14" /><path
         d="m 517.352,656.133 h 363.82 c 17.723,0 32.098,-14.367 32.098,-32.098 V 474.23 c 0,-17.73 -14.375,-32.101 -32.098,-32.101 h -363.82 c -17.735,0 -32.106,14.371 -32.106,32.101 v 149.805 c 0,17.731 14.371,32.098 32.106,32.098"
         style="fill:#fafbfb;fill-opacity:1;fill-rule:nonzero;stroke:none"
         id="path16" /><path
         d="m 517.352,656.133 h 363.82 c 17.723,0 32.098,-14.367 32.098,-32.098 V 474.23 c 0,-17.73 -14.375,-32.101 -32.098,-32.101 h -363.82 c -17.735,0 -32.106,14.371 -32.106,32.101 v 149.805 c 0,17.731 14.371,32.098 32.106,32.098 z"
         style="fill:none;stroke:#5e6061;stroke-width:5.0003;stroke-linecap:butt;stroke-linejoin:miter;stroke-miterlimit:4;stroke-dasharray:none;stroke-opacity:1"
         id="path18" /><g
         id="g20"
         transform="scale(10)"><text
           transform="matrix(1,0,0,-1,67.591,53.0465)"
           style="font-variant:normal;font-weight:normal;font-size:6.99976px;font-family:Arial;-inkscape-font-specification:ArialMT;writing-mode:lr-tb;fill:#2f2d2e;fill-opacity:1;fill-rule:nonzero;stroke:none"
           id="text24"><tspan
             x="0"
             y="0"
             id="tspan22">B</tspan></text></g><path
         d="m 1242.05,656.133 h 363.83 c 17.73,0 32.1,-14.367 32.1,-32.098 V 474.23 c 0,-17.73 -14.37,-32.101 -32.1,-32.101 h -363.83 c -17.72,0 -32.09,14.371 -32.09,32.101 v 149.805 c 0,17.731 14.37,32.098 32.09,32.098"
         style="fill:#fafbfb;fill-opacity:1;fill-rule:nonzero;stroke:none"
         id="path26" /><path
         d="m 1242.05,656.133 h 363.83 c 17.73,0 32.1,-14.367 32.1,-32.098 V 474.23 c 0,-17.73 -14.37,-32.101 -32.1,-32.101 h -363.83 c -17.72,0 -32.09,14.371 -32.09,32.101 v 149.805 c 0,17.731 14.37,32.098 32.09,32.098 z"
         style="fill:none;stroke:#5e6061;stroke-width:5.0003;stroke-linecap:butt;stroke-linejoin:miter;stroke-miterlimit:4;stroke-dasharray:none;stroke-opacity:1"
         id="path28" /><g
         id="g30"
         transform="scale(10)"><text
           transform="matrix(1,0,0,-1,140.061,53.0465)"
           style="font-variant:normal;font-weight:normal;font-size:6.99976px;font-family:Arial;-inkscape-font-specification:ArialMT;writing-mode:lr-tb;fill:#2f2d2e;fill-opacity:1;fill-rule:nonzero;stroke:none"
           id="text34"><tspan
             x="0"
             y="0"
             id="tspan32">A</tspan></text></g><path
         d="M 224.234,549.133 H 446.676"
         style="fill:none;stroke:#100f0d;stroke-width:3.9997;stroke-linecap:butt;stroke-linejoin:miter;stroke-miterlimit:10;stroke-dasharray:none;stroke-opacity:1"
         id="path36" /><path
         d="m 438.75,537.512 43.371,11.621 -43.371,11.625 z"
         style="fill:#100f0d;fill-opacity:1;fill-rule:nonzero;stroke:none"
         id="path38" /><g
         id="g40"
         transform="scale(10)"><text
           transform="matrix(1,0,0,-1,0.0152344,53.2238)"
           style="font-variant:normal;font-weight:normal;font-size:6.99976px;font-family:'Courier New';-inkscape-font-specification:Courier;writing-mode:lr-tb;fill:#100f0d;fill-opacity:1;fill-rule:nonzero;stroke:none"
           id="text44"><tspan
             x="0 4.1998558 8.3997116 12.599568 16.799423"
             y="0"
             sodipodi:role="line"
             id="tspan42">list1</tspan></text></g><path
         d="M 224.234,109.766 H 447.313"
         style="fill:none;stroke:#100f0d;stroke-width:3.9997;stroke-linecap:butt;stroke-linejoin:miter;stroke-miterlimit:10;stroke-dasharray:none;stroke-opacity:1"
         id="path46" /><path
         d="m 439.387,98.1484 43.363,11.6176 -43.363,11.625 z"
         style="fill:#100f0d;fill-opacity:1;fill-rule:nonzero;stroke:none"
         id="path48" /><g
         id="g50"
         transform="scale(10)"><text
           transform="matrix(1,0,0,-1,-0.071875,9.11016)"
           style="font-variant:normal;font-weight:normal;font-size:6.99976px;font-family:'Courier New';-inkscape-font-specification:Courier;writing-mode:lr-tb;fill:#100f0d;fill-opacity:1;fill-rule:nonzero;stroke:none"
           id="text54"><tspan
             x="0 4.1998558 8.3997116 12.599568 16.799423"
             y="0"
             sodipodi:role="line"
             id="tspan52">list2</tspan></text></g><path
         d="M 699.262,216.773 V 404.34"
         style="fill:none;stroke:#100f0d;stroke-width:3.9997;stroke-linecap:butt;stroke-linejoin:miter;stroke-miterlimit:10;stroke-dasharray:none;stroke-opacity:1"
         id="path56" /><path
         d="m 710.879,396.414 -11.617,43.363 -11.621,-43.363 z"
         style="fill:#100f0d;fill-opacity:1;fill-rule:nonzero;stroke:none"
         id="path58" /><path
         d="m 517.352,216.773 h 363.82 c 17.723,0 32.098,-14.371 32.098,-32.105 V 34.875 c 0,-17.7344 -14.375,-32.10937 -32.098,-32.10937 h -363.82 c -17.735,0 -32.106,14.37497 -32.106,32.10937 v 149.793 c 0,17.734 14.371,32.105 32.106,32.105"
         style="fill:#fcfccf;fill-opacity:1;fill-rule:nonzero;stroke:none"
         id="path60" /><path
         d="m 517.352,216.773 h 363.82 c 17.723,0 32.098,-14.371 32.098,-32.105 V 34.875 c 0,-17.7344 -14.375,-32.10937 -32.098,-32.10937 h -363.82 c -17.735,0 -32.106,14.37497 -32.106,32.10937 v 149.793 c 0,17.734 14.371,32.105 32.106,32.105 z"
         style="fill:none;stroke:#c49d19;stroke-width:5.0003;stroke-linecap:butt;stroke-linejoin:miter;stroke-miterlimit:4;stroke-dasharray:none;stroke-opacity:1"
         id="path62" /><g
         id="g64"
         transform="scale(10)"><text
           transform="matrix(1,0,0,-1,67.3977,9.11016)"
           style="font-variant:normal;font-weight:normal;font-size:6.99976px;font-family:Arial;-inkscape-font-specification:ArialMT;writing-mode:lr-tb;fill:#100f0d;fill-opacity:1;fill-rule:nonzero;stroke:none"
           id="text68"><tspan
             x="0"
             y="0"
             id="tspan66">C</tspan></text></g></g></g></svg>
