<?xml version="1.0" encoding="UTF-8" standalone="no"?>
<!-- Created with Inkscape (http://www.inkscape.org/) -->

<svg
   version="1.1"
   id="svg2"
   xml:space="preserve"
   width="202.66667"
   height="170.66667"
   viewBox="0 0 202.66667 170.66667"
   sodipodi:docname="13-5.eps"
   xmlns:inkscape="http://www.inkscape.org/namespaces/inkscape"
   xmlns:sodipodi="http://sodipodi.sourceforge.net/DTD/sodipodi-0.dtd"
   xmlns="http://www.w3.org/2000/svg"
   xmlns:svg="http://www.w3.org/2000/svg"><defs
     id="defs6" /><sodipodi:namedview
     id="namedview4"
     pagecolor="#ffffff"
     bordercolor="#666666"
     borderopacity="1.0"
     inkscape:pageshadow="2"
     inkscape:pageopacity="0.0"
     inkscape:pagecheckerboard="0" /><g
     id="g8"
     inkscape:groupmode="layer"
     inkscape:label="ink_ext_XXXXXX"
     transform="matrix(1.3333333,0,0,-1.3333333,0,170.66667)"><g
       id="g10"
       transform="scale(0.1)"><path
         d="M 1133.2,191.98 H 988.906 v 292.032 l -338.801,-0.125"
         style="fill:none;stroke:#100f0d;stroke-width:5.0003;stroke-linecap:butt;stroke-linejoin:miter;stroke-miterlimit:10;stroke-dasharray:none;stroke-opacity:1"
         id="path12" /><path
         d="M 660.008,498.418 605.809,483.875 660.02,469.363 Z"
         style="fill:#100f0d;fill-opacity:1;fill-rule:nonzero;stroke:none"
         id="path14" /><path
         d="m 808.68,400.984 h 344.86 V 575.742 H 808.68 V 400.984"
         style="fill:#ffffff;fill-opacity:1;fill-rule:nonzero;stroke:none"
         id="path16" /><path
         d="M 709.285,733.656 H 944.793 V 1086.93 H 1136.02"
         style="fill:none;stroke:#100f0d;stroke-width:5.0003;stroke-linecap:butt;stroke-linejoin:miter;stroke-miterlimit:10;stroke-dasharray:none;stroke-opacity:1"
         id="path18" /><path
         d="m 1126.1,1072.41 54.21,14.52 -54.21,14.53 z"
         style="fill:#100f0d;fill-opacity:1;fill-rule:nonzero;stroke:none"
         id="path20" /><path
         d="m 356.012,1086.93 c 195.105,0 353.273,-158.168 353.273,-353.274 0,-195.101 -158.168,-353.265 -353.273,-353.265 -195.11,0 -353.27372,158.164 -353.27372,353.265 0,195.106 158.16372,353.274 353.27372,353.274"
         style="fill:#fcfccf;fill-opacity:1;fill-rule:nonzero;stroke:none"
         id="path22" /><path
         d="m 356.012,1086.93 c 195.105,0 353.273,-158.168 353.273,-353.274 0,-195.101 -158.168,-353.265 -353.273,-353.265 -195.11,0 -353.27372,158.164 -353.27372,353.265 0,195.106 158.16372,353.274 353.27372,353.274 z"
         style="fill:none;stroke:#c49d19;stroke-width:5.0003;stroke-linecap:butt;stroke-linejoin:miter;stroke-miterlimit:4;stroke-dasharray:none;stroke-opacity:1"
         id="path24" /><g
         id="g26"
         transform="scale(10)"><text
           transform="matrix(1,0,0,-1,10.7602,71.4984)"
           style="font-variant:normal;font-weight:normal;font-size:6.99976px;font-family:Arial;-inkscape-font-specification:ArialMT;writing-mode:lr-tb;fill:#100f0d;fill-opacity:1;fill-rule:nonzero;stroke:none"
           id="text30"><tspan
             x="0 6.4808588 10.372725 14.264592 16.210526 20.102392 23.994259 27.886126 29.440071 30.994019 34.493896 38.385765 40.331699 41.885643 45.777512"
             y="0"
             sodipodi:role="line"
             id="tspan28">Web application</tspan></text></g><path
         d="m 1180.31,1204.69 c 0,39.02 63.26,70.65 141.3,70.65 37.48,0 73.43,-7.44 99.92,-20.7 26.51,-13.24 41.39,-31.21 41.39,-49.95 V 969.176 c 0,-39.031 -63.26,-70.656 -141.31,-70.656 -78.04,0 -141.3,31.625 -141.3,70.656 v 235.514"
         style="fill:#c9e4f3;fill-opacity:1;fill-rule:nonzero;stroke:none"
         id="path32" /><path
         d="m 1180.31,1204.69 c 0,39.02 63.26,70.65 141.3,70.65 37.48,0 73.43,-7.44 99.92,-20.7 26.51,-13.24 41.39,-31.21 41.39,-49.95 V 969.176 c 0,-39.031 -63.26,-70.656 -141.31,-70.656 -78.04,0 -141.3,31.625 -141.3,70.656 z"
         style="fill:none;stroke:#293985;stroke-width:5.0003;stroke-linecap:butt;stroke-linejoin:miter;stroke-miterlimit:4;stroke-dasharray:none;stroke-opacity:1"
         id="path34" /><path
         d="m 1462.92,1204.69 c 0,-39.03 -63.26,-70.66 -141.31,-70.66 -78.04,0 -141.3,31.63 -141.3,70.66"
         style="fill:none;stroke:#293985;stroke-width:5.0003;stroke-linecap:butt;stroke-linejoin:miter;stroke-miterlimit:10;stroke-dasharray:none;stroke-opacity:1"
         id="path36" /><g
         id="g38"
         transform="scale(10)"><text
           transform="matrix(1,0,0,-1,127.689,101.196)"
           style="font-variant:normal;font-weight:normal;font-size:6.99976px;font-family:Arial;-inkscape-font-specification:ArialMT;writing-mode:lr-tb;fill:#100f0d;fill-opacity:1;fill-rule:nonzero;stroke:none"
           id="text46"><tspan
             x="0 5.0538268"
             y="0"
             sodipodi:role="line"
             id="tspan40">Db</tspan><tspan
             x="-45.808998 -41.14016 -37.248295 -33.356426 -29.46456 -27.910614 -24.018747 -22.072813"
             y="51.212101"
             sodipodi:role="line"
             id="tspan42">Populate</tspan><tspan
             x="-41.331268 -37.83139 -33.939522 -30.439644 -26.547777"
             y="59.612492"
             sodipodi:role="line"
             id="tspan44">cache</tspan></text></g><path
         d="m 1321.61,380.391 c 104.05,0 188.41,-84.356 188.41,-188.422 0,-104.0471 -84.36,-188.41041 -188.41,-188.41041 -104.05,0 -188.41,84.36331 -188.41,188.41041 0,104.066 84.36,188.422 188.41,188.422"
         style="fill:#fafbfb;fill-opacity:1;fill-rule:nonzero;stroke:none"
         id="path48" /><path
         d="m 1321.61,380.391 c 104.05,0 188.41,-84.356 188.41,-188.422 0,-104.0471 -84.36,-188.41041 -188.41,-188.41041 -104.05,0 -188.41,84.36331 -188.41,188.41041 0,104.066 84.36,188.422 188.41,188.422 z"
         style="fill:none;stroke:#5e6061;stroke-width:5.0003;stroke-linecap:butt;stroke-linejoin:miter;stroke-miterlimit:4;stroke-dasharray:none;stroke-opacity:1"
         id="path50" /><g
         id="g52"
         transform="scale(10)"><text
           transform="matrix(1,0,0,-1,123.407,21.5309)"
           style="font-variant:normal;font-weight:normal;font-size:6.99976px;font-family:Arial;-inkscape-font-specification:ArialMT;writing-mode:lr-tb;fill:#2f2d2e;fill-opacity:1;fill-rule:nonzero;stroke:none"
           id="text58"><tspan
             x="0 5.4458132 7.3917465 11.283613 15.17548"
             y="0"
             sodipodi:role="line"
             id="tspan54">Other</tspan><tspan
             x="-2.3320301 1.16785 5.0597167 7.3906364 10.890516 12.444464 15.944344"
             y="8.3999996"
             sodipodi:role="line"
             id="tspan56">service</tspan></text></g><path
         d="m 916.836,825.32 h 55.918 V 995.266 H 916.836 V 825.32"
         style="fill:#ffffff;fill-opacity:1;fill-rule:nonzero;stroke:none"
         id="path60" /><g
         id="g62"
         transform="scale(10)"><text
           transform="matrix(1,0,0,-1,84.2188,93.3625)"
           style="font-variant:normal;font-weight:normal;font-size:6.99976px;font-family:Arial;-inkscape-font-specification:ArialMT;writing-mode:lr-tb;fill:#100f0d;fill-opacity:1;fill-rule:nonzero;stroke:none"
           id="text68"><tspan
             x="0 5.0538268 7.384747 11.276613 15.16848 17.114412"
             y="0"
             sodipodi:role="line"
             id="tspan64">Create</tspan><tspan
             x="-5.45117 -1.95129 1.9405766 5.8324432 9.7243099 13.616177 17.116056 19.061989 20.615936 24.507803"
             y="8.3996096"
             sodipodi:role="line"
             id="tspan66">connection</tspan></text></g></g></g></svg>
