<?xml version="1.0" encoding="UTF-8" standalone="no"?>
<!-- Created with Inkscape (http://www.inkscape.org/) -->

<svg
   version="1.1"
   id="svg2"
   xml:space="preserve"
   width="373.33334"
   height="98.666664"
   viewBox="0 0 373.33334 98.666664"
   sodipodi:docname="13-6.eps"
   xmlns:inkscape="http://www.inkscape.org/namespaces/inkscape"
   xmlns:sodipodi="http://sodipodi.sourceforge.net/DTD/sodipodi-0.dtd"
   xmlns="http://www.w3.org/2000/svg"
   xmlns:svg="http://www.w3.org/2000/svg"><defs
     id="defs6" /><sodipodi:namedview
     id="namedview4"
     pagecolor="#ffffff"
     bordercolor="#666666"
     borderopacity="1.0"
     inkscape:pageshadow="2"
     inkscape:pageopacity="0.0"
     inkscape:pagecheckerboard="0" /><g
     id="g8"
     inkscape:groupmode="layer"
     inkscape:label="ink_ext_XXXXXX"
     transform="matrix(1.3333333,0,0,-1.3333333,0,98.666667)"><g
       id="g10"
       transform="scale(0.1)"><path
         d="M 920.023,200.324 H 288.398"
         style="fill:none;stroke:#100f0d;stroke-width:5.0003;stroke-linecap:butt;stroke-linejoin:miter;stroke-miterlimit:10;stroke-dasharray:none;stroke-opacity:1"
         id="path12" /><path
         d="m 298.301,214.852 -54.199,-14.528 54.199,-14.527 z"
         style="fill:#100f0d;fill-opacity:1;fill-rule:nonzero;stroke:none"
         id="path14" /><g
         id="g16"
         transform="scale(10)"><text
           transform="matrix(1,0,0,-1,40.3043,23.0324)"
           style="font-variant:normal;font-weight:normal;font-size:6.99976px;font-family:Arial;-inkscape-font-specification:ArialMT;writing-mode:lr-tb;fill:#100f0d;fill-opacity:1;fill-rule:nonzero;stroke:none"
           id="text20"><tspan
             x="0 3.8918664 5.8378 7.7837329 12.83756 16.729427 20.229307 24.121174 28.013039 31.904905"
             y="0"
             sodipodi:role="line"
             id="tspan18">4. Respond</tspan></text></g><path
         d="m 1240.54,731.848 c 200.15,0 362.4,-162.25 362.4,-362.399 0,-200.144 -162.25,-362.39822 -362.4,-362.39822 -200.15,0 -362.403,162.25422 -362.403,362.39822 0,200.149 162.253,362.399 362.403,362.399"
         style="fill:#fcfccc;fill-opacity:1;fill-rule:nonzero;stroke:none"
         id="path22" /><path
         d="m 1240.54,731.848 c 200.15,0 362.4,-162.25 362.4,-362.399 0,-200.144 -162.25,-362.39822 -362.4,-362.39822 -200.15,0 -362.403,162.25422 -362.403,362.39822 0,200.149 162.253,362.399 362.403,362.399 z"
         style="fill:none;stroke:#c49f19;stroke-width:5.0003;stroke-linecap:butt;stroke-linejoin:miter;stroke-miterlimit:4;stroke-dasharray:none;stroke-opacity:1"
         id="path24" /><g
         id="g26"
         transform="scale(10)"><text
           transform="matrix(1,0,0,-1,99.2133,35.0785)"
           style="font-variant:normal;font-weight:normal;font-size:6.99976px;font-family:Arial;-inkscape-font-specification:ArialMT;writing-mode:lr-tb;fill:#100f0d;fill-opacity:1;fill-rule:nonzero;stroke:none"
           id="text30"><tspan
             x="0 6.4808574 10.372724 14.26459 16.210524 20.10239 23.994257 27.886124 29.440069 30.994017 34.493896 38.385765 40.331696 41.885643 45.777512"
             y="0"
             sodipodi:role="line"
             id="tspan28">Web application</tspan></text></g><path
         d="m 2449.32,526.496 c 0,40.02 75.73,72.477 169.14,72.477 44.84,0 87.86,-7.641 119.58,-21.239 31.71,-13.593 49.53,-32.031 49.53,-51.238 v -314.09 c 0,-40.039 -75.72,-72.476 -169.11,-72.476 -93.41,0 -169.14,32.437 -169.14,72.476 v 314.09"
         style="fill:#c9e4f3;fill-opacity:1;fill-rule:nonzero;stroke:none"
         id="path32" /><path
         d="m 2449.32,526.496 c 0,40.02 75.73,72.477 169.14,72.477 44.84,0 87.86,-7.641 119.58,-21.239 31.71,-13.593 49.53,-32.031 49.53,-51.238 v -314.09 c 0,-40.039 -75.72,-72.476 -169.11,-72.476 -93.41,0 -169.14,32.437 -169.14,72.476 z"
         style="fill:none;stroke:#2a3786;stroke-width:5.0003;stroke-linecap:butt;stroke-linejoin:miter;stroke-miterlimit:4;stroke-dasharray:none;stroke-opacity:1"
         id="path34" /><path
         d="m 2787.57,526.496 c 0,-40.039 -75.72,-72.496 -169.11,-72.496 -93.41,0 -169.14,32.457 -169.14,72.496"
         style="fill:none;stroke:#2a3786;stroke-width:5.0003;stroke-linecap:butt;stroke-linejoin:miter;stroke-miterlimit:10;stroke-dasharray:none;stroke-opacity:1"
         id="path36" /><g
         id="g38"
         transform="scale(10)"><text
           transform="matrix(1,0,0,-1,257.371,29.8352)"
           style="font-variant:normal;font-weight:normal;font-size:6.99976px;font-family:Arial;-inkscape-font-specification:ArialMT;writing-mode:lr-tb;fill:#100f0d;fill-opacity:1;fill-rule:nonzero;stroke:none"
           id="text42"><tspan
             x="0 5.0538268"
             y="0"
             sodipodi:role="line"
             id="tspan40">Db</tspan></text></g><path
         d="m 213.336,417.762 620.504,0.222"
         style="fill:none;stroke:#100f0d;stroke-width:5.0003;stroke-linecap:butt;stroke-linejoin:miter;stroke-miterlimit:10;stroke-dasharray:none;stroke-opacity:1"
         id="path44" /><path
         d="m 823.938,403.453 54.199,14.551 -54.211,14.5 z"
         style="fill:#100f0d;fill-opacity:1;fill-rule:nonzero;stroke:none"
         id="path46" /><g
         id="g48"
         transform="scale(10)"><text
           transform="matrix(1,0,0,-1,22.0688,44.8004)"
           style="font-variant:normal;font-weight:normal;font-size:6.99976px;font-family:Arial;-inkscape-font-specification:ArialMT;writing-mode:lr-tb;fill:#100f0d;fill-opacity:1;fill-rule:nonzero;stroke:none"
           id="text54"><tspan
             x="0 3.8918664 5.8378 7.7837329 12.452573 15.952453 19.84432 23.3442 27.236067 29.181999 33.073868 35.019798 37.350719 41.242584 45.134453 49.026318 52.918186 56.418064"
             y="0"
             sodipodi:role="line"
             id="tspan50">1. Execute request</tspan><tspan
             x="-19.9891 -14.935273 -11.435393 -7.5435266"
             y="31.8957"
             sodipodi:role="line"
             id="tspan52">User</tspan></text></g><path
         d="m 1602.94,369.449 h 802.1"
         style="fill:none;stroke:#100f0d;stroke-width:5.0003;stroke-linecap:butt;stroke-linejoin:miter;stroke-miterlimit:10;stroke-dasharray:none;stroke-opacity:1"
         id="path56" /><path
         d="m 2395.13,354.922 54.19,14.527 -54.19,14.528 z"
         style="fill:#100f0d;fill-opacity:1;fill-rule:nonzero;stroke:none"
         id="path58" /><path
         d="m 1564.75,200.324 h 840.29"
         style="fill:none;stroke:#100f0d;stroke-width:5.0003;stroke-linecap:butt;stroke-linejoin:miter;stroke-miterlimit:10;stroke-dasharray:none;stroke-opacity:1"
         id="path60" /><path
         d="m 2395.13,185.797 54.19,14.527 -54.19,14.528 z"
         style="fill:#100f0d;fill-opacity:1;fill-rule:nonzero;stroke:none"
         id="path62" /><g
         id="g64"
         transform="scale(10)"><text
           transform="matrix(1,0,0,-1,173.429,23.0324)"
           style="font-variant:normal;font-weight:normal;font-size:6.99976px;font-family:Arial;-inkscape-font-specification:ArialMT;writing-mode:lr-tb;fill:#100f0d;fill-opacity:1;fill-rule:nonzero;stroke:none"
           id="text70"><tspan
             x="0 3.8918664 5.8378 7.7837329 12.452573 15.952453 19.84432 23.3442 27.236067 29.181999 33.073868 35.019798 37.350719 41.242584 45.134453 49.026318 52.918186 56.418064"
             y="0"
             sodipodi:role="line"
             id="tspan66">3. Execute request</tspan><tspan
             x="-3.11484 0.77702653 2.7229598 4.6688933 9.7227201 12.05364 15.945506 19.837374 21.783306 25.675173 27.621107 31.120987 35.012852 38.90472 42.796585 46.688454 50.188332 52.134266 53.688213 57.580078"
             y="-16.912901"
             sodipodi:role="line"
             id="tspan68">2. Create connection</tspan></text></g><path
         d="m 176.184,223.395 c 0,-5 -29,-16 -82.0043,-16 -52.9961,0 -81.9961,10 -81.9961,16 v 12 c 0,10 5,19 14,24 l 35.0039,19 c 5.9961,3.003 9,9 9,16 v 16 l -1.0078,1.003 c 0,0 -9.9961,11.997 -12.9922,27.997 v 2.003 l -1.0039,0.997 c -2,1 -4,3 -4,6 v 16 c 0,2.003 1.0039,4 3,6 l 1,1.003 v 25 c 0,0 -1,10.997 6.0039,20 5.9961,6.997 17.9922,10.997 32.9922,10.997 15.0003,0 26.0043,-4 33.0043,-10.997 8,-9.003 6.004,-20 6.004,-20 v -25 l 0.992,-1.003 c 2.004,-2 3.008,-3.997 3.008,-6 v -16 c 0,-3 -2.004,-6 -6.004,-6.997 l -2.004,-1.003 -0.992,-2 c -3.004,-8 -6.004,-16 -11.004,-21.997 -1,-2.003 -1.996,-3.003 -3.004,-4.003 l -0.992,-0.997 v -16.003 c 0,-7 3.996,-13 10,-16 l 37,-19 c 8.992,-5 14.996,-13.997 14.996,-25 l 1,-12 z m -11,43.003 -38,18.997 c -3.996,2 -6,5 -6,9 v 13 c 1,1 2.004,2 2.996,4.003 5,6.997 9.008,13.997 12.004,22.997 6.004,3 9,8 9,14 v 16 c 0,4 -1,7.003 -4,10 v 21 c 0,2 1.004,15 -7.996,25 -8.004,9 -21.004,14 -39.0083,14 -17.9961,0 -30.9961,-5 -38.9961,-14 -9,-11 -7.9961,-23 -7.9961,-25 v -21 c -2.0039,-2.997 -4,-6 -4,-10 v -16 c 0,-5 1.9961,-9 5.9922,-11.997 4.0039,-15 11.0078,-25 14.0039,-29.003 v -13 c 0,-4 -1.9961,-7 -5,-9 l -35,-18.997 c -11,-6.003 -18.00001,-18.003 -18.00001,-31.003 v -13 c 0,-19 59.00001,-23 90.00001,-23 31.0004,0 90.0004,5 90.0004,23 v 13 c -1.004,13 -7.996,25 -20,31.003 v 0"
         style="fill:#100f0d;fill-opacity:1;fill-rule:nonzero;stroke:none"
         id="path72" /></g></g></svg>
