<?xml version="1.0" encoding="UTF-8" standalone="no"?>
<!-- Created with Inkscape (http://www.inkscape.org/) -->

<svg
   version="1.1"
   id="svg2"
   xml:space="preserve"
   width="365.33334"
   height="98.666664"
   viewBox="0 0 365.33334 98.666664"
   sodipodi:docname="13-7.eps"
   xmlns:inkscape="http://www.inkscape.org/namespaces/inkscape"
   xmlns:sodipodi="http://sodipodi.sourceforge.net/DTD/sodipodi-0.dtd"
   xmlns="http://www.w3.org/2000/svg"
   xmlns:svg="http://www.w3.org/2000/svg"><defs
     id="defs6" /><sodipodi:namedview
     id="namedview4"
     pagecolor="#ffffff"
     bordercolor="#666666"
     borderopacity="1.0"
     inkscape:pageshadow="2"
     inkscape:pageopacity="0.0"
     inkscape:pagecheckerboard="0" /><g
     id="g8"
     inkscape:groupmode="layer"
     inkscape:label="ink_ext_XXXXXX"
     transform="matrix(1.3333333,0,0,-1.3333333,0,98.666667)"><g
       id="g10"
       transform="scale(0.1)"><path
         d="M 980.023,200.324 H 288.398"
         style="fill:none;stroke:#100f0d;stroke-width:5.0003;stroke-linecap:butt;stroke-linejoin:miter;stroke-miterlimit:10;stroke-dasharray:none;stroke-opacity:1"
         id="path12" /><path
         d="m 298.309,214.844 -54.207,-14.52 54.207,-14.531 z"
         style="fill:#100f0d;fill-opacity:1;fill-rule:nonzero;stroke:none"
         id="path14" /><g
         id="g16"
         transform="scale(10)"><text
           transform="matrix(1,0,0,-1,43.3043,24.6219)"
           style="font-variant:normal;font-weight:normal;font-size:6.99976px;font-family:Arial;-inkscape-font-specification:ArialMT;writing-mode:lr-tb;fill:#100f0d;fill-opacity:1;fill-rule:nonzero;stroke:none"
           id="text20"><tspan
             x="0 3.8918664 5.8378 7.7837329 12.83756 16.729427 20.229307 24.121174 28.013039 31.904905"
             y="0"
             sodipodi:role="line"
             id="tspan18">4. Respond</tspan></text></g><path
         d="m 1300.54,731.848 c 200.15,0 362.4,-162.25 362.4,-362.399 0,-200.14 -162.25,-362.39822 -362.4,-362.39822 -200.15,0 -362.403,162.25822 -362.403,362.39822 0,200.149 162.253,362.399 362.403,362.399"
         style="fill:#fcfccf;fill-opacity:1;fill-rule:nonzero;stroke:none"
         id="path22" /><path
         d="m 1300.54,731.848 c 200.15,0 362.4,-162.25 362.4,-362.399 0,-200.14 -162.25,-362.39822 -362.4,-362.39822 -200.15,0 -362.403,162.25822 -362.403,362.39822 0,200.149 162.253,362.399 362.403,362.399 z"
         style="fill:none;stroke:#c49d19;stroke-width:5.0003;stroke-linecap:butt;stroke-linejoin:miter;stroke-miterlimit:4;stroke-dasharray:none;stroke-opacity:1"
         id="path24" /><g
         id="g26"
         transform="scale(10)"><text
           transform="matrix(1,0,0,-1,105.019,49.0246)"
           style="font-variant:normal;font-weight:normal;font-size:6.99976px;font-family:Arial;-inkscape-font-specification:ArialMT;writing-mode:lr-tb;fill:#100f0d;fill-opacity:1;fill-rule:nonzero;stroke:none"
           id="text36"><tspan
             x="0 6.4808574 10.372724 14.26459 16.210524 20.10239 23.994257 27.886124 29.440069 30.994017 34.493896 38.385765 40.331696 41.885643 45.777512"
             y="0"
             sodipodi:role="line"
             id="tspan28">Web application</tspan><tspan
             x="-5.70469 -1.8128234 0.13310984 2.0790431 7.1328697 10.63275 14.524616 18.024496 19.97043 23.47031 27.362177 31.254044 35.145908 39.037777 42.537655 44.483589 46.037537 49.929401"
             y="17.334801"
             sodipodi:role="line"
             id="tspan30">2. Uses connection</tspan><tspan
             x="2.6347599 4.5806932 6.9116135 10.80348 16.634279 18.580214 20.526146 24.418013 28.309879 30.255814 34.147678 35.701626 38.032547 41.924412 45.81628 49.708145 53.208027"
             y="25.735189"
             sodipodi:role="line"
             id="tspan32">from the already-</tspan><tspan
             x="2.354682 3.9086287 7.8004951 9.3544416 11.300375 12.854322 16.746189 18.300135 19.854082 23.353962 27.245829 31.137695 33.08363 36.975494 40.867363 44.759228"
             y="34.1348"
             sodipodi:role="line"
             id="tspan34">initialized pool</tspan></text></g><path
         d="m 2389.34,526.496 c 0,40.02 75.71,72.477 169.12,72.477 44.84,0 87.86,-7.641 119.58,-21.239 31.72,-13.597 49.53,-32.031 49.53,-51.238 V 212.402 c 0,-40.027 -75.71,-72.468 -169.11,-72.468 -93.41,0 -169.12,32.441 -169.12,72.468 v 314.094"
         style="fill:#c9e4f3;fill-opacity:1;fill-rule:nonzero;stroke:none"
         id="path38" /><path
         d="m 2389.34,526.496 c 0,40.02 75.71,72.477 169.12,72.477 44.84,0 87.86,-7.641 119.58,-21.239 31.72,-13.597 49.53,-32.031 49.53,-51.238 V 212.402 c 0,-40.027 -75.71,-72.468 -169.11,-72.468 -93.41,0 -169.12,32.441 -169.12,72.468 z"
         style="fill:none;stroke:#293985;stroke-width:5.0003;stroke-linecap:butt;stroke-linejoin:miter;stroke-miterlimit:4;stroke-dasharray:none;stroke-opacity:1"
         id="path40" /><path
         d="m 2727.57,526.496 c 0,-40.039 -75.71,-72.496 -169.11,-72.496 -93.41,0 -169.12,32.457 -169.12,72.496"
         style="fill:none;stroke:#293985;stroke-width:5.0003;stroke-linecap:butt;stroke-linejoin:miter;stroke-miterlimit:10;stroke-dasharray:none;stroke-opacity:1"
         id="path42" /><g
         id="g44"
         transform="scale(10)"><text
           transform="matrix(1,0,0,-1,251.372,28.3855)"
           style="font-variant:normal;font-weight:normal;font-size:6.99976px;font-family:Arial;-inkscape-font-specification:ArialMT;writing-mode:lr-tb;fill:#100f0d;fill-opacity:1;fill-rule:nonzero;stroke:none"
           id="text48"><tspan
             x="0 5.0538268"
             y="0"
             sodipodi:role="line"
             id="tspan46">Db</tspan></text></g><path
         d="m 213.336,417.762 680.504,0.222"
         style="fill:none;stroke:#100f0d;stroke-width:5.0003;stroke-linecap:butt;stroke-linejoin:miter;stroke-miterlimit:10;stroke-dasharray:none;stroke-opacity:1"
         id="path50" /><path
         d="M 883.941,403.457 938.137,418 883.93,432.512 Z"
         style="fill:#100f0d;fill-opacity:1;fill-rule:nonzero;stroke:none"
         id="path52" /><g
         id="g54"
         transform="scale(10)"><text
           transform="matrix(1,0,0,-1,28.3895,46.2102)"
           style="font-variant:normal;font-weight:normal;font-size:6.99976px;font-family:Arial;-inkscape-font-specification:ArialMT;writing-mode:lr-tb;fill:#100f0d;fill-opacity:1;fill-rule:nonzero;stroke:none"
           id="text60"><tspan
             x="0 3.8918664 5.8378 7.7837329 12.452573 15.952453 19.84432 23.3442 27.236067 29.181999 33.073868 35.019798 37.350719 41.242584 45.134453 49.026318 52.918186 56.418064"
             y="0"
             sodipodi:role="line"
             id="tspan56">1. Execute request</tspan><tspan
             x="-26.309401 -21.255573 -17.755693 -13.863827"
             y="33.3055"
             sodipodi:role="line"
             id="tspan58">User</tspan></text></g><path
         d="m 1662.94,369.449 h 682.09"
         style="fill:none;stroke:#100f0d;stroke-width:5.0003;stroke-linecap:butt;stroke-linejoin:miter;stroke-miterlimit:10;stroke-dasharray:none;stroke-opacity:1"
         id="path62" /><path
         d="m 2335.13,354.922 54.2,14.527 -54.2,14.528 z"
         style="fill:#100f0d;fill-opacity:1;fill-rule:nonzero;stroke:none"
         id="path64" /><g
         id="g66"
         transform="scale(10)"><text
           transform="matrix(1,0,0,-1,173.429,41.593)"
           style="font-variant:normal;font-weight:normal;font-size:6.99976px;font-family:Arial;-inkscape-font-specification:ArialMT;writing-mode:lr-tb;fill:#100f0d;fill-opacity:1;fill-rule:nonzero;stroke:none"
           id="text70"><tspan
             x="0 3.8918664 5.8378 7.7837329 12.452573 15.952453 19.84432 23.3442 27.236067 29.181999 33.073868 35.019798 37.350719 41.242584 45.134453 49.026318 52.918186 56.418064"
             y="0"
             sodipodi:role="line"
             id="tspan68">3. Execute request</tspan></text></g><path
         d="m 176.184,223.398 c 0,-5 -28.996,-16.003 -81.9965,-16.003 -53,0 -82,10 -82,16.003 v 11.993 c 0,10 5,19.004 14,24.004 l 35,19.003 c 6,3 9.0039,8.997 9.0039,15.997 v 15.996 l -1.0039,1.007 c 0,0 -10,12 -13,27.997 v 2.003 l -0.9961,0.997 c -2.0039,1.003 -4.0039,2.996 -4.0039,6.003 v 15.997 c 0,2.003 1,4 3,6.003 l 1.0039,1 v 25 c 0,0 -1.0039,10.997 5.9961,20 6,6.997 18,10.997 33,10.997 15.0005,0 26.0035,-4 33.0005,-10.997 8.003,-9.003 6,-20 6,-20 v -25 l 1,-1 c 1.992,-2.003 3,-4 3,-6.003 v -15.997 c 0,-3.007 -1.997,-6.003 -6.004,-7 l -1.996,-1.007 -1,-1.993 c -2.997,-8.007 -6,-16.003 -11,-22 -1.004,-2.003 -1.997,-3 -3,-4.003 l -1,-0.997 v -16.007 c 0,-6.993 4,-12.996 10,-15.996 l 37.003,-19.004 c 8.997,-5 15,-13.993 15,-25 l 0.993,-11.993 z m -10.993,43 -38.003,18.993 c -4,2.004 -6.004,5 -6.004,9.004 v 13 c 1.004,1.003 2.004,2 3.004,4.003 5,7 9,13.993 11.992,22.997 6.008,3 9.011,8 9.011,14.003 v 15.997 c 0,4 -1.003,7.003 -4.007,10 v 21.003 c 0,1.997 1.004,15 -7.996,25 -7.997,8.997 -21,13.997 -39.0005,13.997 -18,0 -31,-5 -38.9961,-13.997 -9.0039,-11.003 -8.0039,-23.003 -8.0039,-25 v -21.003 c -2,-2.997 -4,-6 -4,-10 v -15.997 c 0,-5 2,-9.003 6,-12 4,-15 11.0039,-25 14,-29.003 v -13 c 0,-4.004 -2,-7 -5,-9.004 l -35,-18.993 c -11,-6.007 -17.99609,-18 -17.99609,-31.007 v -12.996 c 0,-18.997 58.99609,-23 89.99999,-23 30.9926,0 89.9996,5 89.9996,23 v 12.996 c -1.003,13.007 -8.003,25 -20,31.007 v 0"
         style="fill:#100f0d;fill-opacity:1;fill-rule:nonzero;stroke:none"
         id="path72" /></g></g></svg>
