<?xml version="1.0" encoding="UTF-8" standalone="no"?>
<svg
   xmlns:dc="http://purl.org/dc/elements/1.1/"
   xmlns:cc="http://creativecommons.org/ns#"
   xmlns:rdf="http://www.w3.org/1999/02/22-rdf-syntax-ns#"
   xmlns:svg="http://www.w3.org/2000/svg"
   xmlns="http://www.w3.org/2000/svg"
   xmlns:sodipodi="http://sodipodi.sourceforge.net/DTD/sodipodi-0.dtd"
   xmlns:inkscape="http://www.inkscape.org/namespaces/inkscape"
   version="1.1"
   id="svg2"
   xml:space="preserve"
   width="337.33334"
   height="109.33333"
   viewBox="0 0 337.33334 109.33333"
   sodipodi:docname="8-1.eps"><metadata
     id="metadata8"><rdf:RDF><cc:Work
         rdf:about=""><dc:format>image/svg+xml</dc:format><dc:type
           rdf:resource="http://purl.org/dc/dcmitype/StillImage" /></cc:Work></rdf:RDF></metadata><defs
     id="defs6" /><sodipodi:namedview
     pagecolor="#ffffff"
     bordercolor="#666666"
     borderopacity="1"
     objecttolerance="10"
     gridtolerance="10"
     guidetolerance="10"
     inkscape:pageopacity="0"
     inkscape:pageshadow="2"
     inkscape:window-width="640"
     inkscape:window-height="480"
     id="namedview4" /><g
     id="g10"
     inkscape:groupmode="layer"
     inkscape:label="ink_ext_XXXXXX"
     transform="matrix(1.3333333,0,0,-1.3333333,0,109.33333)"><g
       id="g12"
       transform="scale(0.1)"><path
         d="M 1766.76,383.426 H 807.836"
         style="fill:none;stroke:#100f0d;stroke-width:4.9691;stroke-linecap:butt;stroke-linejoin:miter;stroke-miterlimit:10;stroke-dasharray:none;stroke-opacity:1"
         id="path14" /><path
         d="m 817.68,397.859 -53.86,-14.433 53.86,-14.43 z"
         style="fill:#100f0d;fill-opacity:1;fill-rule:nonzero;stroke:none"
         id="path16" /><g
         id="g18"
         transform="scale(10)"><text
           transform="matrix(0.999577,0,0,-1,95.8965,50.8863)"
           style="font-variant:normal;font-weight:normal;font-size:6.99976px;font-family:Arial;-inkscape-font-specification:ArialMT;writing-mode:lr-tb;fill:#100f0d;fill-opacity:1;fill-rule:nonzero;stroke:none"
           id="text24"><tspan
             x="0 4.2768536 8.1687202 10.114654 13.614533 17.506399 21.398266 24.898146 26.84408 30.735947 32.289894 33.843838 35.789772 39.681641 43.573505 45.51944 49.411304 51.357239 55.249107 59.140972"
             y="0"
             sodipodi:role="line"
             id="tspan20">Fetches all data and</tspan><tspan
             x="-3.5014801 -0.0016 3.8902667 5.4442134 8.9440937 12.835959 14.389907 18.281773 20.227707 24.119574 27.619453 29.565386 31.51132 35.403187 39.295052 41.240986 45.132851 48.632732 52.524597 54.855518 58.747387 62.639252"
             y="8.3999996"
             sodipodi:role="line"
             id="tspan22">calculates the average</tspan></text></g><path
         d="m 1870.58,809.773 h 548.74 c 57.34,0 103.82,-44.277 103.82,-98.898 V 108.031 c 0,-54.6208 -46.48,-98.906 -103.82,-98.906 h -548.74 c -57.33,0 -103.82,44.2852 -103.82,98.906 v 602.844 c 0,54.621 46.49,98.898 103.82,98.898"
         style="fill:#f4f6f7;fill-opacity:1;fill-rule:nonzero;stroke:none"
         id="path26" /><path
         d="m 1870.58,809.773 h 548.74 c 57.34,0 103.82,-44.277 103.82,-98.898 V 108.031 c 0,-54.6208 -46.48,-98.906 -103.82,-98.906 h -548.74 c -57.33,0 -103.82,44.2852 -103.82,98.906 v 602.844 c 0,54.621 46.49,98.898 103.82,98.898 z"
         style="fill:none;stroke:#5e6061;stroke-width:4.9691;stroke-linecap:butt;stroke-linejoin:miter;stroke-miterlimit:10;stroke-dasharray:none;stroke-opacity:1"
         id="path28" /><g
         id="g30"
         transform="scale(10)"><text
           transform="matrix(0.999577,0,0,-1,183.386,66.9313)"
           style="font-variant:normal;font-weight:bold;font-size:6.99976px;font-family:Arial;-inkscape-font-specification:Arial-BoldMT-Bold;writing-mode:lr-tb;fill:#100f0d;fill-opacity:1;fill-rule:nonzero;stroke:none"
           id="text34"><tspan
             x="0 4.6688399 8.5607061 11.283613 15.17548 19.452333 23.729187 26.060106 28.006041 32.282894 36.174759 42.397545 46.289413 48.235348 50.181278 54.073147 58.349998"
             y="0"
             sodipodi:role="line"
             id="tspan32">Person: name, age</tspan></text><text
           transform="matrix(0.999577,0,0,-1,201.27893,42.7157)"
           style="font-variant:normal;font-weight:normal;font-size:6.99976px;font-family:Arial;-inkscape-font-specification:ArialMT;writing-mode:lr-tb;fill:#100f0d;fill-opacity:1;fill-rule:nonzero;stroke:none"
           id="text44"><tspan
             x="0 5.8308001 7.384747 10.884626 14.776493 16.722427 18.66836 22.560226"
             y="0"
             sodipodi:role="line"
             id="tspan36">Mike, 20</tspan><tspan
             x="-2.9184201 0.58149499 4.4733615 10.304162 14.196028 17.695908 19.641842 21.587774 25.479641"
             y="8.3999996"
             sodipodi:role="line"
             id="tspan38">Tomas, 30</tspan><tspan
             x="-4.2838402 0.38499993 4.2768664 8.1687326 10.499653 14.39152 19.063934 21.009869 22.955801 26.847668"
             y="16.80039"
             sodipodi:role="line"
             id="tspan40">Andrew, 40</tspan><tspan
             x="9.3375597 11.283493 13.229426 15.17536"
             y="25.200001"
             sodipodi:role="line"
             id="tspan42">....</tspan></text></g><path
         d="m 386.219,738.113 c 207.992,0 376.605,-158.144 376.605,-353.222 C 762.824,189.805 594.211,31.6602 386.219,31.6602 178.23,31.6602 9.61719,189.805 9.61719,384.891 9.61719,579.969 178.23,738.113 386.219,738.113"
         style="fill:#c9e4f3;fill-opacity:1;fill-rule:nonzero;stroke:none"
         id="path46" /><path
         d="m 386.219,738.113 c 207.992,0 376.605,-158.144 376.605,-353.222 C 762.824,189.805 594.211,31.6602 386.219,31.6602 178.23,31.6602 9.61719,189.805 9.61719,384.891 9.61719,579.969 178.23,738.113 386.219,738.113 Z"
         style="fill:none;stroke:#293985;stroke-width:4.9691;stroke-linecap:butt;stroke-linejoin:miter;stroke-miterlimit:10;stroke-dasharray:none;stroke-opacity:1"
         id="path48" /><g
         id="g50"
         transform="scale(10)"><text
           transform="matrix(0.999577,0,0,-1,5.03789,36.3414)"
           style="font-variant:normal;font-weight:normal;font-size:7.99981px;font-family:'Courier New';-inkscape-font-specification:Courier;writing-mode:lr-tb;fill:#100f0d;fill-opacity:1;fill-rule:nonzero;stroke:none"
           id="text54"><tspan
             x="0 4.7998862 9.5997725 14.399658 19.199545 23.99943 28.799316 33.599201 38.39909 43.198975 47.998859 52.798744 57.598633 62.398518"
             y="0"
             sodipodi:role="line"
             id="tspan52">/getAverageAge</tspan></text></g></g></g></svg>
