<?xml version="1.0" encoding="UTF-8" standalone="no"?>
<svg
   xmlns:dc="http://purl.org/dc/elements/1.1/"
   xmlns:cc="http://creativecommons.org/ns#"
   xmlns:rdf="http://www.w3.org/1999/02/22-rdf-syntax-ns#"
   xmlns:svg="http://www.w3.org/2000/svg"
   xmlns="http://www.w3.org/2000/svg"
   xmlns:sodipodi="http://sodipodi.sourceforge.net/DTD/sodipodi-0.dtd"
   xmlns:inkscape="http://www.inkscape.org/namespaces/inkscape"
   version="1.1"
   id="svg2"
   xml:space="preserve"
   width="529.33331"
   height="184"
   viewBox="0 0 529.33331 184"
   sodipodi:docname="8-2.eps"><metadata
     id="metadata8"><rdf:RDF><cc:Work
         rdf:about=""><dc:format>image/svg+xml</dc:format><dc:type
           rdf:resource="http://purl.org/dc/dcmitype/StillImage" /></cc:Work></rdf:RDF></metadata><defs
     id="defs6" /><sodipodi:namedview
     pagecolor="#ffffff"
     bordercolor="#666666"
     borderopacity="1"
     objecttolerance="10"
     gridtolerance="10"
     guidetolerance="10"
     inkscape:pageopacity="0"
     inkscape:pageshadow="2"
     inkscape:window-width="640"
     inkscape:window-height="480"
     id="namedview4" /><g
     id="g10"
     inkscape:groupmode="layer"
     inkscape:label="ink_ext_XXXXXX"
     transform="matrix(1.3333333,0,0,-1.3333333,0,184)"><g
       id="g12"
       transform="scale(0.1)"><path
         d="m 8.85938,573.293 c 0,310.527 251.38262,562.257 561.47262,562.257 310.098,0 561.478,-251.73 561.478,-562.257 C 1131.81,262.766 880.43,11.0352 570.332,11.0352 260.242,11.0352 8.85938,262.766 8.85938,573.293"
         style="fill:#c9e4f3;fill-opacity:1;fill-rule:nonzero;stroke:none"
         id="path14" /><path
         d="m 8.85938,573.293 c 0,310.527 251.38262,562.257 561.47262,562.257 310.098,0 561.478,-251.73 561.478,-562.257 C 1131.81,262.766 880.43,11.0352 570.332,11.0352 260.242,11.0352 8.85938,262.766 8.85938,573.293 Z"
         style="fill:none;stroke:#2a3786;stroke-width:4.9691;stroke-linecap:butt;stroke-linejoin:miter;stroke-miterlimit:10;stroke-dasharray:none;stroke-opacity:1"
         id="path16" /><path
         d="m 3067.51,1367.86 h 752.8 c 79.3,0 143.59,-68.48 143.59,-152.97 V 201.023 c 0,-84.488 -64.29,-152.9683 -143.59,-152.9683 h -752.8 c -79.3,0 -143.58,68.4803 -143.58,152.9683 V 1214.89 c 0,84.49 64.28,152.97 143.58,152.97"
         style="fill:#f4f6f7;fill-opacity:1;fill-rule:nonzero;stroke:none"
         id="path18" /><path
         d="m 3067.51,1367.86 h 752.8 c 79.3,0 143.59,-68.48 143.59,-152.97 V 201.023 c 0,-84.488 -64.29,-152.9683 -143.59,-152.9683 h -752.8 c -79.3,0 -143.58,68.4803 -143.58,152.9683 V 1214.89 c 0,84.49 64.28,152.97 143.58,152.97 z"
         style="fill:none;stroke:#5e6061;stroke-width:4.9691;stroke-linecap:butt;stroke-linejoin:miter;stroke-miterlimit:10;stroke-dasharray:none;stroke-opacity:1"
         id="path20" /><path
         d="m 1084.55,573.293 h 625.26"
         style="fill:none;stroke:#100f0d;stroke-width:4.9691;stroke-linecap:butt;stroke-linejoin:miter;stroke-miterlimit:10;stroke-dasharray:none;stroke-opacity:1"
         id="path22" /><path
         d="m 1699.97,558.859 53.86,14.434 -53.86,14.434 z"
         style="fill:#100f0d;fill-opacity:1;fill-rule:nonzero;stroke:none"
         id="path24" /><g
         id="g26"
         transform="scale(10)"><text
           transform="matrix(0.998624,0,0,-1,126.458,73.348)"
           style="font-variant:normal;font-weight:normal;font-size:6.99976px;font-family:Arial;-inkscape-font-specification:ArialMT;writing-mode:lr-tb;fill:#100f0d;fill-opacity:1;fill-rule:nonzero;stroke:none"
           id="text32"><tspan
             x="0 4.6688399 8.5607061 10.891626 12.445573 16.33744 17.891386 19.445333 22.945213"
             y="0"
             sodipodi:role="line"
             id="tspan28">Serialize</tspan><tspan
             x="1.16567 3.1116033 7.0034699 8.9494028 12.841269 16.34115 18.287083 22.178949"
             y="8.3999996"
             sodipodi:role="line"
             id="tspan30">to bytes</tspan></text></g><path
         d="m 113,736.914 h 914.67 c 31.41,0 56.88,-21.976 56.88,-49.086 V 458.754 c 0,-27.106 -25.47,-49.086 -56.88,-49.086 H 113 c -31.418,0 -56.8789,21.98 -56.8789,49.086 v 229.074 c 0,27.11 25.4609,49.086 56.8789,49.086"
         style="fill:#fcfccc;fill-opacity:1;fill-rule:nonzero;stroke:none"
         id="path34" /><path
         d="m 113,736.914 h 914.67 c 31.41,0 56.88,-21.976 56.88,-49.086 V 458.754 c 0,-27.106 -25.47,-49.086 -56.88,-49.086 H 113 c -31.418,0 -56.8789,21.98 -56.8789,49.086 v 229.074 c 0,27.11 25.4609,49.086 56.8789,49.086 z"
         style="fill:none;stroke:#c49f19;stroke-width:4.9691;stroke-linecap:butt;stroke-linejoin:miter;stroke-miterlimit:4;stroke-dasharray:none;stroke-opacity:1"
         id="path36" /><g
         id="g38"
         transform="scale(10)"><text
           transform="matrix(0.998624,0,0,-1,6.7043,54.7512)"
           style="font-variant:normal;font-weight:normal;font-size:7.99981px;font-family:'Courier New';-inkscape-font-specification:Courier;writing-mode:lr-tb;fill:#100f0d;fill-opacity:1;fill-rule:nonzero;stroke:none"
           id="text44"><tspan
             x="0 4.7998862 9.5997725 14.399658 19.199545 23.99943 28.799316 33.599201 38.39909 43.198975 47.998859 52.798744 57.598633 62.398518 67.198402 71.998291 76.79818 81.598061 86.397949 91.19783 95.997719"
             y="0"
             sodipodi:role="line"
             id="tspan40">CalculateAverage.java</tspan><tspan
             x="16.7997 21.599586 26.399471 31.199358 35.999245 40.799129 45.599014 50.398903 55.198788 59.998672 64.798561 69.59845 74.398331 79.198219"
             y="-33.6758"
             sodipodi:role="line"
             id="tspan42">/getAverageAge</tspan></text></g><path
         d="m 2543.7,573.293 h 525.04"
         style="fill:none;stroke:#100f0d;stroke-width:4.9691;stroke-linecap:butt;stroke-linejoin:miter;stroke-miterlimit:10;stroke-dasharray:none;stroke-opacity:1"
         id="path46" /><path
         d="m 3058.9,558.859 53.85,14.434 -53.85,14.434 z"
         style="fill:#100f0d;fill-opacity:1;fill-rule:nonzero;stroke:none"
         id="path48" /><path
         d="m 1809.98,736.902 h 677.84 c 31.02,0 56.15,-21.976 56.15,-49.082 V 458.766 c 0,-27.106 -25.13,-49.082 -56.15,-49.082 h -677.84 c -31.01,0 -56.16,21.976 -56.16,49.082 V 687.82 c 0,27.106 25.15,49.082 56.16,49.082"
         style="fill:#fcfccc;fill-opacity:1;fill-rule:nonzero;stroke:none"
         id="path50" /><path
         d="m 1809.98,736.902 h 677.84 c 31.02,0 56.15,-21.976 56.15,-49.082 V 458.766 c 0,-27.106 -25.13,-49.082 -56.15,-49.082 h -677.84 c -31.01,0 -56.16,21.976 -56.16,49.082 V 687.82 c 0,27.106 25.15,49.082 56.16,49.082 z"
         style="fill:none;stroke:#c49f19;stroke-width:4.9691;stroke-linecap:butt;stroke-linejoin:miter;stroke-miterlimit:4;stroke-dasharray:none;stroke-opacity:1"
         id="path52" /><g
         id="g54"
         transform="scale(10)"><text
           transform="matrix(0.938616,0,0,-1,178.848,60.5527)"
           style="font-variant:normal;font-weight:normal;font-size:7.99981px;font-family:'Courier New';-inkscape-font-specification:Courier;writing-mode:lr-tb;fill:#100f0d;fill-opacity:1;fill-rule:nonzero;stroke:none"
           id="text58"><tspan
             x="0 4.7998862 9.5997725 14.399658 19.199545 23.99943 28.799316 33.599201 38.39909 43.198975 47.998859 52.798744 57.598633 62.398518 67.198402 71.998291"
             y="0"
             sodipodi:role="line"
             id="tspan56">CalculateAverage</tspan></text><text
           transform="matrix(0.938616,0,0,-1,207.03708,52.1527)"
           style="font-variant:normal;font-weight:normal;font-size:6.99976px;font-family:Arial;-inkscape-font-specification:ArialMT;writing-mode:lr-tb;fill:#100f0d;fill-opacity:1;fill-rule:nonzero;stroke:none"
           id="text62"><tspan
             x="0 3.8918664 7.3917465 9.3376799 13.229547"
             y="0"
             sodipodi:role="line"
             id="tspan60">bytes</tspan></text><text
           transform="matrix(0.998624,0,0,-1,313.312,122.632)"
           style="font-variant:normal;font-weight:bold;font-size:6.99976px;font-family:Arial;-inkscape-font-specification:Arial-BoldMT-Bold;writing-mode:lr-tb;fill:#100f0d;fill-opacity:1;fill-rule:nonzero;stroke:none"
           id="text66"><tspan
             x="0 4.6688399 8.5607061 11.283613 15.17548 19.452333 23.729187 26.060106 28.006041 32.282894 36.174759 42.397545 46.289413 48.235348 50.181278 54.073147 58.349998"
             y="0"
             sodipodi:role="line"
             id="tspan64">Person: name, age</tspan></text></g><path
         d="M 1006.02,169.324 H 3118.14 V 350.965"
         style="fill:none;stroke:#100f0d;stroke-width:4.9691;stroke-linecap:butt;stroke-linejoin:miter;stroke-miterlimit:10;stroke-dasharray:none;stroke-opacity:1"
         id="path68" /><path
         d="m 1015.86,154.891 -53.86,14.433 53.86,14.43 z"
         style="fill:#100f0d;fill-opacity:1;fill-rule:nonzero;stroke:none"
         id="path70" /><g
         id="g72"
         transform="scale(10)"><text
           transform="matrix(0.998624,0,0,-1,174.033,19.9023)"
           style="font-variant:normal;font-weight:normal;font-size:6.99976px;font-family:Arial;-inkscape-font-specification:ArialMT;writing-mode:lr-tb;fill:#100f0d;fill-opacity:1;fill-rule:nonzero;stroke:none"
           id="text76"><tspan
             x="0 5.0538268 8.945693 10.891626 14.783493 17.114412 21.006279 22.952213 25.283133 29.174999 32.674881 36.566746 38.120693"
             y="0"
             sodipodi:role="line"
             id="tspan74">Return result</tspan></text></g><path
         d="m 3175.03,707.941 h 537.76 c 31.41,0 56.88,-27.132 56.88,-60.601 V 364.566 c 0,-33.468 -25.47,-60.589 -56.88,-60.589 h -537.76 c -31.41,0 -56.88,27.121 -56.88,60.589 V 647.34 c 0,33.469 25.47,60.601 56.88,60.601"
         style="fill:#fcfccc;fill-opacity:1;fill-rule:nonzero;stroke:none"
         id="path78" /><path
         d="m 3175.03,707.941 h 537.76 c 31.41,0 56.88,-27.132 56.88,-60.601 V 364.566 c 0,-33.468 -25.47,-60.589 -56.88,-60.589 h -537.76 c -31.41,0 -56.88,27.121 -56.88,60.589 V 647.34 c 0,33.469 25.47,60.601 56.88,60.601 z"
         style="fill:none;stroke:#c49f19;stroke-width:4.9691;stroke-linecap:butt;stroke-linejoin:miter;stroke-miterlimit:4;stroke-dasharray:none;stroke-opacity:1"
         id="path80" /><g
         id="g82"
         transform="scale(10)"><text
           transform="matrix(0.998624,0,0,-1,327.102,58.2996)"
           style="font-variant:normal;font-weight:normal;font-size:6.99976px;font-family:Arial;-inkscape-font-specification:ArialMT;writing-mode:lr-tb;fill:#100f0d;fill-opacity:1;fill-rule:nonzero;stroke:none"
           id="text98"><tspan
             x="0 5.0538268 8.945693 12.445573 16.33744 18.66836 20.222307 24.114174 25.668119 27.222067 30.721947"
             y="0"
             sodipodi:role="line"
             id="tspan84">Deserialize</tspan><tspan
             x="1.16136 5.0532265 8.5531063 10.49904 12.052986 15.944853 19.83672 21.782654 25.674519 29.566385"
             y="8.3999996"
             sodipodi:role="line"
             id="tspan86">action and</tspan><tspan
             x="5.0538201 8.9456863 12.445566 16.337433 19.837313 23.729179 25.675114"
             y="16.799999"
             sodipodi:role="line"
             id="tspan88">execute</tspan><tspan
             x="4.093514 9.9243145 11.478261 14.978141 18.870007 20.815941 22.761873 26.65374"
             y="-51.522701"
             sodipodi:role="line"
             id="tspan90">Mike, 20</tspan><tspan
             x="1.174654 4.674387 8.5662537 14.397054 18.288919 21.788799 23.734734 25.680666 29.572533"
             y="-43.1227"
             sodipodi:role="line"
             id="tspan92">Tomas, 30</tspan><tspan
             x="-0.190506 4.478334 8.3702002 12.262067 14.592987 18.484854 23.157248 25.10318 27.049114 30.940981"
             y="-34.722698"
             sodipodi:role="line"
             id="tspan94">Andrew, 40</tspan><tspan
             x="13.431394 15.377327 17.323261 19.269194"
             y="-26.322309"
             sodipodi:role="line"
             id="tspan96">....</tspan></text></g></g></g></svg>
