<?xml version="1.0" encoding="UTF-8" standalone="no"?>
<svg
   xmlns:dc="http://purl.org/dc/elements/1.1/"
   xmlns:cc="http://creativecommons.org/ns#"
   xmlns:rdf="http://www.w3.org/1999/02/22-rdf-syntax-ns#"
   xmlns:svg="http://www.w3.org/2000/svg"
   xmlns="http://www.w3.org/2000/svg"
   xmlns:sodipodi="http://sodipodi.sourceforge.net/DTD/sodipodi-0.dtd"
   xmlns:inkscape="http://www.inkscape.org/namespaces/inkscape"
   version="1.1"
   id="svg2"
   xml:space="preserve"
   width="520"
   height="413.33334"
   viewBox="0 0 520 413.33334"
   sodipodi:docname="8-3.eps"><metadata
     id="metadata8"><rdf:RDF><cc:Work
         rdf:about=""><dc:format>image/svg+xml</dc:format><dc:type
           rdf:resource="http://purl.org/dc/dcmitype/StillImage" /></cc:Work></rdf:RDF></metadata><defs
     id="defs6" /><sodipodi:namedview
     pagecolor="#ffffff"
     bordercolor="#666666"
     borderopacity="1"
     objecttolerance="10"
     gridtolerance="10"
     guidetolerance="10"
     inkscape:pageopacity="0"
     inkscape:pageshadow="2"
     inkscape:window-width="640"
     inkscape:window-height="480"
     id="namedview4" /><g
     id="g10"
     inkscape:groupmode="layer"
     inkscape:label="ink_ext_XXXXXX"
     transform="matrix(1.3333333,0,0,-1.3333333,0,413.33333)"><g
       id="g12"
       transform="scale(0.1)"><path
         d="m 2995.95,3092.18 h 734.53 c 86.93,0 157.4,-70.51 157.4,-157.49 V 1769.93 c 0,-86.97 -70.47,-157.48 -157.4,-157.48 h -734.53 c -86.92,0 -157.39,70.51 -157.39,157.48 v 1164.76 c 0,86.98 70.47,157.49 157.39,157.49"
         style="fill:#f4f6f7;fill-opacity:1;fill-rule:nonzero;stroke:none"
         id="path14" /><path
         d="m 2995.95,3092.18 h 734.53 c 86.93,0 157.4,-70.51 157.4,-157.49 V 1769.93 c 0,-86.97 -70.47,-157.48 -157.4,-157.48 h -734.53 c -86.92,0 -157.39,70.51 -157.39,157.48 v 1164.76 c 0,86.98 70.47,157.49 157.39,157.49 z"
         style="fill:none;stroke:#5e6061;stroke-width:4.9691;stroke-linecap:butt;stroke-linejoin:miter;stroke-miterlimit:10;stroke-dasharray:none;stroke-opacity:1"
         id="path16" /><path
         d="m 575.582,2739.32 c 315.195,0 570.708,-255.66 570.708,-571.02 0,-315.38 -255.513,-571.03 -570.708,-571.03 -315.195,0 -570.707,255.65 -570.707,571.03 0,315.36 255.512,571.02 570.707,571.02"
         style="fill:#c9e4f3;fill-opacity:1;fill-rule:nonzero;stroke:none"
         id="path18" /><path
         d="m 575.582,2739.32 c 315.195,0 570.708,-255.66 570.708,-571.02 0,-315.38 -255.513,-571.03 -570.708,-571.03 -315.195,0 -570.707,255.65 -570.707,571.03 0,315.36 255.512,571.02 570.707,571.02 z"
         style="fill:none;stroke:#2a3786;stroke-width:4.9691;stroke-linecap:butt;stroke-linejoin:miter;stroke-miterlimit:10;stroke-dasharray:none;stroke-opacity:1"
         id="path20" /><path
         d="M 976.777,2168.3 H 1609.36"
         style="fill:none;stroke:#100f0d;stroke-width:4.9691;stroke-linecap:butt;stroke-linejoin:miter;stroke-miterlimit:10;stroke-dasharray:none;stroke-opacity:1"
         id="path22" /><path
         d="m 1599.52,2153.86 53.85,14.44 -53.85,14.43 z"
         style="fill:#100f0d;fill-opacity:1;fill-rule:nonzero;stroke:none"
         id="path24" /><path
         d="m 116.82,2318.35 h 917.53 c 31.52,0 57.08,-20.15 57.08,-45.01 v -210.09 c 0,-24.86 -25.56,-45.01 -57.08,-45.01 H 116.82 c -31.527,0 -57.0817,20.15 -57.0817,45.01 v 210.09 c 0,24.86 25.5547,45.01 57.0817,45.01"
         style="fill:#fcfccc;fill-opacity:1;fill-rule:nonzero;stroke:none"
         id="path26" /><path
         d="m 116.82,2318.35 h 917.53 c 31.52,0 57.08,-20.15 57.08,-45.01 v -210.09 c 0,-24.86 -25.56,-45.01 -57.08,-45.01 H 116.82 c -31.527,0 -57.0817,20.15 -57.0817,45.01 v 210.09 c 0,24.86 25.5547,45.01 57.0817,45.01 z"
         style="fill:none;stroke:#c49f19;stroke-width:4.9691;stroke-linecap:butt;stroke-linejoin:miter;stroke-miterlimit:4;stroke-dasharray:none;stroke-opacity:1"
         id="path28" /><g
         id="g30"
         transform="scale(10)"><text
           transform="matrix(0.999471,0,0,-1,7.18711,214.319)"
           style="font-variant:normal;font-weight:normal;font-size:7.99981px;font-family:'Courier New';-inkscape-font-specification:Courier;writing-mode:lr-tb;fill:#100f0d;fill-opacity:1;fill-rule:nonzero;stroke:none"
           id="text36"><tspan
             x="0 4.7998862 9.5997725 14.399658 19.199545 23.99943 28.799316 33.599201 38.39909 43.198975 47.998859 52.798744 57.598633 62.398518 67.198402 71.998291 76.79818 81.598061 86.397949 91.19783 95.997719"
             y="0"
             sodipodi:role="line"
             id="tspan32">CalculateAverage.java</tspan><tspan
             x="16.7995 21.599386 26.399273 31.199158 35.999043 40.798931 45.598816 50.398701 55.198589 59.998474 64.798363 69.598244 74.398132 79.198021"
             y="-31.034401"
             sodipodi:role="line"
             id="tspan34">/getAverageAge</tspan></text></g><path
         d="m 2388.06,2168.28 h 740.16"
         style="fill:none;stroke:#100f0d;stroke-width:4.9691;stroke-linecap:butt;stroke-linejoin:miter;stroke-miterlimit:10;stroke-dasharray:none;stroke-opacity:1"
         id="path38" /><path
         d="m 3118.38,2153.85 53.85,14.43 -53.85,14.43 z"
         style="fill:#100f0d;fill-opacity:1;fill-rule:nonzero;stroke:none"
         id="path40" /><path
         d="m 1713.68,2318.36 h 714.17 c 34.79,0 63.01,-20.15 63.01,-45.02 v -210.1 c 0,-24.86 -28.22,-45.02 -63.01,-45.02 h -714.17 c -34.8,0 -63.02,20.16 -63.02,45.02 v 210.1 c 0,24.87 28.22,45.02 63.02,45.02"
         style="fill:#fcfccc;fill-opacity:1;fill-rule:nonzero;stroke:none"
         id="path42" /><path
         d="m 1713.68,2318.36 h 714.17 c 34.79,0 63.01,-20.15 63.01,-45.02 v -210.1 c 0,-24.86 -28.22,-45.02 -63.01,-45.02 h -714.17 c -34.8,0 -63.02,20.16 -63.02,45.02 v 210.1 c 0,24.87 28.22,45.02 63.02,45.02 z"
         style="fill:none;stroke:#c49f19;stroke-width:4.9691;stroke-linecap:butt;stroke-linejoin:miter;stroke-miterlimit:4;stroke-dasharray:none;stroke-opacity:1"
         id="path44" /><g
         id="g46"
         transform="scale(10)"><text
           transform="matrix(0.949481,0,0,-1,170.617,217.99)"
           style="font-variant:normal;font-weight:normal;font-size:7.99981px;font-family:'Courier New';-inkscape-font-specification:Courier;writing-mode:lr-tb;fill:#100f0d;fill-opacity:1;fill-rule:nonzero;stroke:none"
           id="text50"><tspan
             x="0 4.7998862 9.5997725 14.399658 19.199545 23.99943 28.799316 33.599201 38.39909 43.198975 47.998859 52.798744 57.598633 62.398518 67.198402 71.998291"
             y="0"
             sodipodi:role="line"
             id="tspan48">CalculateAverage</tspan></text><text
           transform="matrix(0.949481,0,0,-1,199.13419,209.59)"
           style="font-variant:normal;font-weight:normal;font-size:6.99976px;font-family:Arial;-inkscape-font-specification:ArialMT;writing-mode:lr-tb;fill:#100f0d;fill-opacity:1;fill-rule:nonzero;stroke:none"
           id="text54"><tspan
             x="0 3.8918664 7.3917465 9.3376799 13.229547"
             y="0"
             sodipodi:role="line"
             id="tspan52">bytes</tspan></text><text
           transform="matrix(0.999471,0,0,-1,316.494,295.563)"
           style="font-variant:normal;font-weight:bold;font-size:6.99976px;font-family:Arial;-inkscape-font-specification:Arial-BoldMT-Bold;writing-mode:lr-tb;fill:#100f0d;fill-opacity:1;fill-rule:nonzero;stroke:none"
           id="text58"><tspan
             x="0 5.0538268 8.945693 11.276613 15.16848 17.114412 21.391266 25.668119 29.944973 33.836842 35.782772"
             y="0"
             sodipodi:role="line"
             id="tspan56">Data node 1</tspan></text></g><path
         d="M 3085.45,2075.65 V 1797.73 H 1054.09"
         style="fill:none;stroke:#100f0d;stroke-width:4.9691;stroke-linecap:butt;stroke-linejoin:miter;stroke-miterlimit:10;stroke-dasharray:none;stroke-opacity:1"
         id="path60" /><path
         d="m 1063.94,1812.17 -53.86,-14.44 53.86,-14.43 z"
         style="fill:#100f0d;fill-opacity:1;fill-rule:nonzero;stroke:none"
         id="path62" /><g
         id="g64"
         transform="scale(10)"><text
           transform="matrix(0.999471,0,0,-1,183.049,183.79)"
           style="font-variant:normal;font-weight:normal;font-size:6.99976px;font-family:Arial;-inkscape-font-specification:ArialMT;writing-mode:lr-tb;fill:#100f0d;fill-opacity:1;fill-rule:nonzero;stroke:none"
           id="text68"><tspan
             x="0 5.0538268 8.945693 10.891626 14.783493 17.114412 21.006279 22.952213 25.283133 29.174999 32.674881 36.566746 38.120693"
             y="0"
             sodipodi:role="line"
             id="tspan66">Return result</tspan></text></g><path
         d="m 3129.24,2271.53 h 467.96 c 32.3,0 58.48,-24.89 58.48,-55.58 v -259.38 c 0,-30.7 -26.18,-55.58 -58.48,-55.58 h -467.96 c -32.3,0 -58.49,24.88 -58.49,55.58 v 259.38 c 0,30.69 26.19,55.58 58.49,55.58"
         style="fill:#fcfccc;fill-opacity:1;fill-rule:nonzero;stroke:none"
         id="path70" /><path
         d="m 3129.24,2271.53 h 467.96 c 32.3,0 58.48,-24.89 58.48,-55.58 v -259.38 c 0,-30.7 -26.18,-55.58 -58.48,-55.58 h -467.96 c -32.3,0 -58.49,24.88 -58.49,55.58 v 259.38 c 0,30.69 26.19,55.58 58.49,55.58 z"
         style="fill:none;stroke:#c49f19;stroke-width:4.9691;stroke-linecap:butt;stroke-linejoin:miter;stroke-miterlimit:4;stroke-dasharray:none;stroke-opacity:1"
         id="path72" /><g
         id="g74"
         transform="scale(10)"><text
           transform="matrix(0.999471,0,0,-1,319.019,217.41)"
           style="font-variant:normal;font-weight:normal;font-size:6.99976px;font-family:Arial;-inkscape-font-specification:ArialMT;writing-mode:lr-tb;fill:#100f0d;fill-opacity:1;fill-rule:nonzero;stroke:none"
           id="text82"><tspan
             x="0 5.0538268 8.945693 12.445573 16.33744 18.66836 20.222307 24.114174 25.668119 27.222067 30.721947"
             y="0"
             sodipodi:role="line"
             id="tspan76">Deserialize</tspan><tspan
             x="1.16038 5.0522466 8.5521269 10.49806 12.052007 15.943873 19.835739 21.781673 25.67354 29.565407"
             y="8.3999996"
             sodipodi:role="line"
             id="tspan78">action and</tspan><tspan
             x="5.0534601 8.9453268 12.445207 16.337072 19.836952 23.728819 25.674753"
             y="16.799219"
             sodipodi:role="line"
             id="tspan80">execute</tspan></text></g><path
         d="m 2995.95,1486.44 h 734.53 c 86.93,0 157.4,-70.5 157.4,-157.49 V 164.199 c 0,-86.9802 -70.47,-157.48025 -157.4,-157.48025 h -734.53 c -86.92,0 -157.39,70.50005 -157.39,157.48025 V 1328.95 c 0,86.99 70.47,157.49 157.39,157.49"
         style="fill:#f4f6f7;fill-opacity:1;fill-rule:nonzero;stroke:none"
         id="path84" /><path
         d="m 2995.95,1486.44 h 734.53 c 86.93,0 157.4,-70.5 157.4,-157.49 V 164.199 c 0,-86.9802 -70.47,-157.48025 -157.4,-157.48025 h -734.53 c -86.92,0 -157.39,70.50005 -157.39,157.48025 V 1328.95 c 0,86.99 70.47,157.49 157.39,157.49 z"
         style="fill:none;stroke:#5e6061;stroke-width:4.9691;stroke-linecap:butt;stroke-linejoin:miter;stroke-miterlimit:10;stroke-dasharray:none;stroke-opacity:1"
         id="path86" /><g
         id="g88"
         transform="scale(10)"><text
           transform="matrix(0.999471,0,0,-1,316.494,135.82)"
           style="font-variant:normal;font-weight:bold;font-size:6.99976px;font-family:Arial;-inkscape-font-specification:Arial-BoldMT-Bold;writing-mode:lr-tb;fill:#100f0d;fill-opacity:1;fill-rule:nonzero;stroke:none"
           id="text92"><tspan
             x="0 5.0538268 8.945693 11.276613 15.16848 17.114412 21.391266 25.668119 29.944973 33.836842 35.782772"
             y="0"
             sodipodi:role="line"
             id="tspan90">Data node 2</tspan></text></g><path
         d="m 3085.45,655.18 h -432.07 v 463.2 H 1009.94 l 0.17,635.34"
         style="fill:none;stroke:#100f0d;stroke-width:4.9691;stroke-linecap:butt;stroke-linejoin:miter;stroke-miterlimit:10;stroke-dasharray:none;stroke-opacity:1"
         id="path94" /><path
         d="m 1024.54,1743.87 -14.42,53.86 -14.444,-53.85 z"
         style="fill:#100f0d;fill-opacity:1;fill-rule:nonzero;stroke:none"
         id="path96" /><path
         d="m 3130.58,695.32 h 465.28 c 32.11,0 58.15,-24.879 58.15,-55.578 V 380.359 c 0,-30.695 -26.04,-55.578 -58.15,-55.578 h -465.28 c -32.12,0 -58.16,24.883 -58.16,55.578 v 259.383 c 0,30.699 26.04,55.578 58.16,55.578"
         style="fill:#fcfccc;fill-opacity:1;fill-rule:nonzero;stroke:none"
         id="path98" /><path
         d="m 3130.58,695.32 h 465.28 c 32.11,0 58.15,-24.879 58.15,-55.578 V 380.359 c 0,-30.695 -26.04,-55.578 -58.15,-55.578 h -465.28 c -32.12,0 -58.16,24.883 -58.16,55.578 v 259.383 c 0,30.699 26.04,55.578 58.16,55.578 z"
         style="fill:none;stroke:#c49f19;stroke-width:4.9691;stroke-linecap:butt;stroke-linejoin:miter;stroke-miterlimit:4;stroke-dasharray:none;stroke-opacity:1"
         id="path100" /><g
         id="g102"
         transform="scale(10)"><text
           transform="matrix(0.999471,0,0,-1,319.796,58.1121)"
           style="font-variant:normal;font-weight:normal;font-size:6.99976px;font-family:Arial;-inkscape-font-specification:ArialMT;writing-mode:lr-tb;fill:#100f0d;fill-opacity:1;fill-rule:nonzero;stroke:none"
           id="text110"><tspan
             x="0 5.0538268 8.945693 12.445573 16.33744 18.66836 22.560226 24.114174 25.668119 29.167999"
             y="0"
             sodipodi:role="line"
             id="tspan104">Deseralize</tspan><tspan
             x="0.38223401 4.2741008 7.7739806 9.7199135 11.273861 15.165727 19.057594 21.003527 24.895393 28.78726"
             y="8.3999996"
             sodipodi:role="line"
             id="tspan106">action and</tspan><tspan
             x="4.2753139 8.167181 11.667061 15.558928 19.058807 22.950674 24.896606"
             y="16.799219"
             sodipodi:role="line"
             id="tspan108">execute</tspan></text></g><path
         d="M 575.582,2018.24 V 562.551 H 1609.36"
         style="fill:none;stroke:#100f0d;stroke-width:4.9691;stroke-linecap:butt;stroke-linejoin:miter;stroke-miterlimit:10;stroke-dasharray:none;stroke-opacity:1"
         id="path112" /><path
         d="m 1599.52,548.109 53.85,14.442 -53.85,14.429 z"
         style="fill:#100f0d;fill-opacity:1;fill-rule:nonzero;stroke:none"
         id="path114" /><g
         id="g116"
         transform="scale(10)"><text
           transform="matrix(0.999471,0,0,-1,183.049,116.513)"
           style="font-variant:normal;font-weight:normal;font-size:6.99976px;font-family:Arial;-inkscape-font-specification:ArialMT;writing-mode:lr-tb;fill:#100f0d;fill-opacity:1;fill-rule:nonzero;stroke:none"
           id="text120"><tspan
             x="0 5.0538268 8.945693 10.891626 14.783493 17.114412 21.006279 22.952213 25.283133 29.174999 32.674881 36.566746 38.120693"
             y="0"
             sodipodi:role="line"
             id="tspan118">Return result</tspan></text></g><path
         d="m 2388.06,562.551 h 648.11"
         style="fill:none;stroke:#100f0d;stroke-width:4.9691;stroke-linecap:butt;stroke-linejoin:miter;stroke-miterlimit:10;stroke-dasharray:none;stroke-opacity:1"
         id="path122" /><path
         d="m 3026.32,548.109 53.86,14.442 -53.86,14.429 z"
         style="fill:#100f0d;fill-opacity:1;fill-rule:nonzero;stroke:none"
         id="path124" /><g
         id="g126"
         transform="scale(10)"><text
           transform="matrix(0.939392,0,0,-1,307.087,277.354)"
           style="font-variant:normal;font-weight:bold;font-size:6.99976px;font-family:Arial;-inkscape-font-specification:Arial-BoldMT-Bold;writing-mode:lr-tb;fill:#100f0d;fill-opacity:1;fill-rule:nonzero;stroke:none"
           id="text130"><tspan
             x="0 4.6688399 8.5607061 11.283613 15.17548 19.452333 23.729187 26.060106 28.006041 32.282894 36.174759 42.397545 46.289413 48.235348 50.181278 54.073147 58.349998"
             y="0"
             sodipodi:role="line"
             id="tspan128">Person: name, age</tspan></text><text
           transform="matrix(0.999471,0,0,-1,323.102,268.954)"
           style="font-variant:normal;font-weight:normal;font-size:6.99976px;font-family:Arial;-inkscape-font-specification:ArialMT;writing-mode:lr-tb;fill:#100f0d;fill-opacity:1;fill-rule:nonzero;stroke:none"
           id="text140"><tspan
             x="0 5.8308001 7.384747 10.884626 14.776493 16.722427 18.66836 22.560226"
             y="0"
             sodipodi:role="line"
             id="tspan132">Mike, 20</tspan><tspan
             x="-2.9195099 0.58039099 4.4722576 10.303058 14.194924 17.694805 19.640738 21.58667 25.478537"
             y="8.4003897"
             sodipodi:role="line"
             id="tspan134">Tomas, 30</tspan><tspan
             x="-4.2842898 0.38454992 4.2764163 8.1682835 10.499203 14.391069 19.063225 21.009157 22.955091 26.846958"
             y="16.800779"
             sodipodi:role="line"
             id="tspan136">Andrew, 40</tspan><tspan
             x="9.3370104 11.282944 13.228876 15.174809"
             y="25.20039"
             sodipodi:role="line"
             id="tspan138">....</tspan></text><text
           transform="matrix(0.939392,0,0,-1,307.087,116.513)"
           style="font-variant:normal;font-weight:bold;font-size:6.99976px;font-family:Arial;-inkscape-font-specification:Arial-BoldMT-Bold;writing-mode:lr-tb;fill:#100f0d;fill-opacity:1;fill-rule:nonzero;stroke:none"
           id="text144"><tspan
             x="0 4.6688399 8.5607061 11.283613 15.17548 19.452333 23.729187 26.060106 28.006041 32.282894 36.174759 42.397545 46.289413 48.235348 50.181278 54.073147 58.349998"
             y="0"
             sodipodi:role="line"
             id="tspan142">Person: name, age</tspan></text><text
           transform="matrix(0.999471,0,0,-1,322.902,108.112)"
           style="font-variant:normal;font-weight:normal;font-size:6.99976px;font-family:Arial;-inkscape-font-specification:ArialMT;writing-mode:lr-tb;fill:#100f0d;fill-opacity:1;fill-rule:nonzero;stroke:none"
           id="text154"><tspan
             x="0 3.4998801 7.3917465 11.283613 15.17548 17.121412 19.067347 22.959213"
             y="0"
             sodipodi:role="line"
             id="tspan146">John, 20</tspan><tspan
             x="0.196198 3.6960781 7.5879445 11.087825 14.979692 16.925625 18.871557 22.763424"
             y="8.3992205"
             sodipodi:role="line"
             id="tspan148">Josh, 10</tspan><tspan
             x="0.0050809998 4.2819343 8.1738005 11.673681 15.173561 17.119493 19.065428 22.957294"
             y="16.799219"
             sodipodi:role="line"
             id="tspan150">Zack, 30</tspan><tspan
             x="9.5370808 11.483014 13.428947 15.374881"
             y="25.199221"
             sodipodi:role="line"
             id="tspan152">....</tspan></text></g><path
         d="m 1713.68,712.621 h 714.17 c 34.79,0 63.01,-20.16 63.01,-45.019 V 457.5 c 0,-24.871 -28.22,-45.031 -63.01,-45.031 h -714.17 c -34.8,0 -63.02,20.16 -63.02,45.031 v 210.102 c 0,24.859 28.22,45.019 63.02,45.019"
         style="fill:#fcfccc;fill-opacity:1;fill-rule:nonzero;stroke:none"
         id="path156" /><path
         d="m 1713.68,712.621 h 714.17 c 34.79,0 63.01,-20.16 63.01,-45.019 V 457.5 c 0,-24.871 -28.22,-45.031 -63.01,-45.031 h -714.17 c -34.8,0 -63.02,20.16 -63.02,45.031 v 210.102 c 0,24.859 28.22,45.019 63.02,45.019 z"
         style="fill:none;stroke:#c49f19;stroke-width:4.9691;stroke-linecap:butt;stroke-linejoin:miter;stroke-miterlimit:4;stroke-dasharray:none;stroke-opacity:1"
         id="path158" /><g
         id="g160"
         transform="scale(10)"><text
           transform="matrix(1,0,0,-0.99813349,168.606,57.4152)"
           style="font-variant:normal;font-weight:normal;font-size:8.01477px;font-family:'Courier New';-inkscape-font-specification:Courier;writing-mode:lr-tb;fill:#100f0d;fill-opacity:1;fill-rule:nonzero;stroke:none"
           id="text164"><tspan
             x="0 4.8088617 9.6177235 14.426585 19.235447 24.04431 28.85317 33.662033 38.470894 43.279755 48.088619 52.89748 57.706341 62.515202 67.324066 72.132927"
             y="0"
             sodipodi:role="line"
             id="tspan162">CalculateAverage</tspan></text><text
           transform="matrix(1,0,0,-0.99813349,198.69586,49.0152)"
           style="font-variant:normal;font-weight:normal;font-size:7.01285px;font-family:Arial;-inkscape-font-specification:ArialMT;writing-mode:lr-tb;fill:#100f0d;fill-opacity:1;fill-rule:nonzero;stroke:none"
           id="text168"><tspan
             x="0 3.8991444 7.4055691 9.3551416 13.254286"
             y="0"
             sodipodi:role="line"
             id="tspan166">bytes</tspan></text></g></g></g></svg>
