<?xml version="1.0" encoding="UTF-8" standalone="no"?>
<svg
   xmlns:dc="http://purl.org/dc/elements/1.1/"
   xmlns:cc="http://creativecommons.org/ns#"
   xmlns:rdf="http://www.w3.org/1999/02/22-rdf-syntax-ns#"
   xmlns:svg="http://www.w3.org/2000/svg"
   xmlns="http://www.w3.org/2000/svg"
   xmlns:sodipodi="http://sodipodi.sourceforge.net/DTD/sodipodi-0.dtd"
   xmlns:inkscape="http://www.inkscape.org/namespaces/inkscape"
   version="1.1"
   id="svg2"
   xml:space="preserve"
   width="241.33333"
   height="173.33333"
   viewBox="0 0 241.33333 173.33333"
   sodipodi:docname="8-4.eps"><metadata
     id="metadata8"><rdf:RDF><cc:Work
         rdf:about=""><dc:format>image/svg+xml</dc:format><dc:type
           rdf:resource="http://purl.org/dc/dcmitype/StillImage" /></cc:Work></rdf:RDF></metadata><defs
     id="defs6" /><sodipodi:namedview
     pagecolor="#ffffff"
     bordercolor="#666666"
     borderopacity="1"
     objecttolerance="10"
     gridtolerance="10"
     guidetolerance="10"
     inkscape:pageopacity="0"
     inkscape:pageshadow="2"
     inkscape:window-width="640"
     inkscape:window-height="480"
     id="namedview4" /><g
     id="g10"
     inkscape:groupmode="layer"
     inkscape:label="ink_ext_XXXXXX"
     transform="matrix(1.3333333,0,0,-1.3333333,0,173.33333)"><g
       id="g12"
       transform="scale(0.1)"><path
         d="M 93.4375,1291.45 H 744.258 c 46.699,0 84.555,-37.9 84.555,-84.66 V 811.758 c 0,-46.75 -37.856,-84.653 -84.555,-84.653 H 93.4375 c -46.6992,0 -84.55859,37.903 -84.55859,84.653 v 395.032 c 0,46.76 37.85939,84.66 84.55859,84.66"
         style="fill:#f4f6f7;fill-opacity:1;fill-rule:nonzero;stroke:none"
         id="path14" /><path
         d="M 93.4375,1291.45 H 744.258 c 46.699,0 84.555,-37.9 84.555,-84.66 V 811.758 c 0,-46.75 -37.856,-84.653 -84.555,-84.653 H 93.4375 c -46.6992,0 -84.55859,37.903 -84.55859,84.653 v 395.032 c 0,46.76 37.85939,84.66 84.55859,84.66 z"
         style="fill:none;stroke:#5e6061;stroke-width:4.9691;stroke-linecap:butt;stroke-linejoin:miter;stroke-miterlimit:10;stroke-dasharray:none;stroke-opacity:1"
         id="path16" /><path
         d="m 111.375,778.41 h 614.949 v 307.82 H 111.375 V 778.41"
         style="fill:#ffffff;fill-opacity:1;fill-rule:nonzero;stroke:none"
         id="path18" /><path
         d="m 111.375,778.41 h 614.949 v 307.82 H 111.375 Z"
         style="fill:none;stroke:#100f0d;stroke-width:4.9691;stroke-linecap:butt;stroke-linejoin:miter;stroke-miterlimit:4;stroke-dasharray:none;stroke-opacity:1"
         id="path20" /><g
         id="g22"
         transform="scale(10)"><text
           transform="matrix(0.998871,0,0,-1,26.1441,96.252)"
           style="font-variant:normal;font-weight:normal;font-size:6.99976px;font-family:Arial;-inkscape-font-specification:ArialMT;writing-mode:lr-tb;fill:#100f0d;fill-opacity:1;fill-rule:nonzero;stroke:none"
           id="text26"><tspan
             x="0 4.6688399 8.5607061 10.891626 12.83756 14.391506 16.33744 17.891386 21.783253 25.675119 27.621054"
             y="0"
             sodipodi:role="line"
             id="tspan24">Partition 1</tspan></text><text
           transform="matrix(0.998871,0,0,-1,15.515214,86.652)"
           style="font-variant:normal;font-weight:normal;font-size:7.99981px;font-family:'Courier New';-inkscape-font-specification:Courier;writing-mode:lr-tb;fill:#100f0d;fill-opacity:1;fill-rule:nonzero;stroke:none"
           id="text30"><tspan
             x="0 4.7998862 9.5997725 14.399658 19.199545 23.99943 28.799316 33.599201 38.39909 43.198975 47.998859"
             y="0"
             sodipodi:role="line"
             id="tspan28">/users/2017</tspan></text><text
           transform="matrix(0.998871,0,0,-1,22.83513,116.8844)"
           style="font-variant:normal;font-weight:normal;font-size:6.99976px;font-family:Arial;-inkscape-font-specification:ArialMT;writing-mode:lr-tb;fill:#100f0d;fill-opacity:1;fill-rule:nonzero;stroke:none"
           id="text34"><tspan
             x="0 5.0538268 8.945693 10.891626 14.783493 16.729427 20.621292 24.513159 28.405025 32.296894 34.242825"
             y="0"
             sodipodi:role="line"
             id="tspan32">Data node 1</tspan></text></g><path
         d="M 93.4375,571.789 H 744.258 c 46.699,0 84.555,-37.902 84.555,-84.648 V 92.0938 c 0,-46.75 -37.856,-84.64849 -84.555,-84.64849 H 93.4375 C 46.7383,7.44531 8.87891,45.3438 8.87891,92.0938 V 487.141 c 0,46.746 37.85939,84.648 84.55859,84.648"
         style="fill:#fcfccf;fill-opacity:1;fill-rule:nonzero;stroke:none"
         id="path36" /><path
         d="M 93.4375,571.789 H 744.258 c 46.699,0 84.555,-37.902 84.555,-84.648 V 92.0938 c 0,-46.75 -37.856,-84.64849 -84.555,-84.64849 H 93.4375 C 46.7383,7.44531 8.87891,45.3438 8.87891,92.0938 V 487.141 c 0,46.746 37.85939,84.648 84.55859,84.648 z"
         style="fill:none;stroke:#c49d19;stroke-width:4.9691;stroke-linecap:butt;stroke-linejoin:miter;stroke-miterlimit:4;stroke-dasharray:none;stroke-opacity:1"
         id="path38" /><path
         d="M 111.375,58.7656 H 726.324 V 366.578 H 111.375 V 58.7656"
         style="fill:#ffffff;fill-opacity:1;fill-rule:nonzero;stroke:none"
         id="path40" /><path
         d="M 111.375,58.7656 H 726.324 V 366.578 H 111.375 Z"
         style="fill:none;stroke:#100f0d;stroke-width:4.9691;stroke-linecap:butt;stroke-linejoin:miter;stroke-miterlimit:4;stroke-dasharray:none;stroke-opacity:1"
         id="path42" /><g
         id="g44"
         transform="scale(10)"><text
           transform="matrix(0.998871,0,0,-1,26.1441,24.2875)"
           style="font-variant:normal;font-weight:normal;font-size:6.99976px;font-family:Arial;-inkscape-font-specification:ArialMT;writing-mode:lr-tb;fill:#100f0d;fill-opacity:1;fill-rule:nonzero;stroke:none"
           id="text48"><tspan
             x="0 4.6688399 8.5607061 10.891626 12.83756 14.391506 16.33744 17.891386 21.783253 25.675119 27.621054"
             y="0"
             sodipodi:role="line"
             id="tspan46">Partition 3</tspan></text><text
           transform="matrix(0.998871,0,0,-1,15.515214,14.6875)"
           style="font-variant:normal;font-weight:normal;font-size:7.99981px;font-family:'Courier New';-inkscape-font-specification:Courier;writing-mode:lr-tb;fill:#100f0d;fill-opacity:1;fill-rule:nonzero;stroke:none"
           id="text52"><tspan
             x="0 4.7998862 9.5997725 14.399658 19.199545 23.99943 28.799316 33.599201 38.39909 43.198975 47.998859"
             y="0"
             sodipodi:role="line"
             id="tspan50">/users/2019</tspan></text><text
           transform="matrix(0.998871,0,0,-1,22.836309,44.916)"
           style="font-variant:normal;font-weight:normal;font-size:6.99976px;font-family:Arial;-inkscape-font-specification:ArialMT;writing-mode:lr-tb;fill:#100f0d;fill-opacity:1;fill-rule:nonzero;stroke:none"
           id="text56"><tspan
             x="0 5.0538268 8.945693 10.891626 14.783493 16.729427 20.621292 24.513159 28.405025 32.296894 34.242825"
             y="0"
             sodipodi:role="line"
             id="tspan54">Data node 3</tspan></text></g><path
         d="m 1068.51,571.789 h 650.82 c 46.7,0 84.55,-37.902 84.55,-84.648 V 92.0938 c 0,-46.75 -37.85,-84.64849 -84.55,-84.64849 h -650.82 c -46.7,0 -84.561,37.89849 -84.561,84.64849 V 487.141 c 0,46.746 37.861,84.648 84.561,84.648"
         style="fill:#e0f2c3;fill-opacity:1;fill-rule:nonzero;stroke:none"
         id="path58" /><path
         d="m 1068.51,571.789 h 650.82 c 46.7,0 84.55,-37.902 84.55,-84.648 V 92.0938 c 0,-46.75 -37.85,-84.64849 -84.55,-84.64849 h -650.82 c -46.7,0 -84.561,37.89849 -84.561,84.64849 V 487.141 c 0,46.746 37.861,84.648 84.561,84.648 z"
         style="fill:none;stroke:#298a3c;stroke-width:4.9691;stroke-linecap:butt;stroke-linejoin:miter;stroke-miterlimit:4;stroke-dasharray:none;stroke-opacity:1"
         id="path60" /><path
         d="m 1086.45,58.7656 h 614.94 V 366.578 H 1086.45 V 58.7656"
         style="fill:#ffffff;fill-opacity:1;fill-rule:nonzero;stroke:none"
         id="path62" /><path
         d="m 1086.45,58.7656 h 614.94 V 366.578 h -614.94 z"
         style="fill:none;stroke:#100f0d;stroke-width:4.9691;stroke-linecap:butt;stroke-linejoin:miter;stroke-miterlimit:4;stroke-dasharray:none;stroke-opacity:1"
         id="path64" /><g
         id="g66"
         transform="scale(10)"><text
           transform="matrix(0.998871,0,0,-1,123.651,24.2875)"
           style="font-variant:normal;font-weight:normal;font-size:6.99976px;font-family:Arial;-inkscape-font-specification:ArialMT;writing-mode:lr-tb;fill:#100f0d;fill-opacity:1;fill-rule:nonzero;stroke:none"
           id="text70"><tspan
             x="0 4.6688399 8.5607061 10.891626 12.83756 14.391506 16.33744 17.891386 21.783253 25.675119 27.621054"
             y="0"
             sodipodi:role="line"
             id="tspan68">Partition 4</tspan></text><text
           transform="matrix(0.998871,0,0,-1,113.02211,14.6875)"
           style="font-variant:normal;font-weight:normal;font-size:7.99981px;font-family:'Courier New';-inkscape-font-specification:Courier;writing-mode:lr-tb;fill:#100f0d;fill-opacity:1;fill-rule:nonzero;stroke:none"
           id="text74"><tspan
             x="0 4.7998862 9.5997725 14.399658 19.199545 23.99943 28.799316 33.599201 38.39909 43.198975 47.998859"
             y="0"
             sodipodi:role="line"
             id="tspan72">/users/2020</tspan></text><text
           transform="matrix(0.998871,0,0,-1,120.34203,44.916)"
           style="font-variant:normal;font-weight:normal;font-size:6.99976px;font-family:Arial;-inkscape-font-specification:ArialMT;writing-mode:lr-tb;fill:#100f0d;fill-opacity:1;fill-rule:nonzero;stroke:none"
           id="text78"><tspan
             x="0 5.0538268 8.945693 10.891626 14.783493 16.729427 20.621292 24.513159 28.405025 32.296894 34.242825"
             y="0"
             sodipodi:role="line"
             id="tspan76">Data node 4</tspan></text></g><path
         d="m 1068.51,1291.45 h 650.82 c 46.7,0 84.55,-37.9 84.55,-84.66 V 811.758 c 0,-46.75 -37.85,-84.653 -84.55,-84.653 h -650.82 c -46.7,0 -84.561,37.903 -84.561,84.653 v 395.032 c 0,46.76 37.861,84.66 84.561,84.66"
         style="fill:#c9e4f3;fill-opacity:1;fill-rule:nonzero;stroke:none"
         id="path80" /><path
         d="m 1068.51,1291.45 h 650.82 c 46.7,0 84.55,-37.9 84.55,-84.66 V 811.758 c 0,-46.75 -37.85,-84.653 -84.55,-84.653 h -650.82 c -46.7,0 -84.561,37.903 -84.561,84.653 v 395.032 c 0,46.76 37.861,84.66 84.561,84.66 z"
         style="fill:none;stroke:#293985;stroke-width:4.9691;stroke-linecap:butt;stroke-linejoin:miter;stroke-miterlimit:10;stroke-dasharray:none;stroke-opacity:1"
         id="path82" /><path
         d="m 1086.45,778.41 h 614.94 v 307.82 H 1086.45 V 778.41"
         style="fill:#ffffff;fill-opacity:1;fill-rule:nonzero;stroke:none"
         id="path84" /><path
         d="m 1086.45,778.41 h 614.94 v 307.82 h -614.94 z"
         style="fill:none;stroke:#100f0d;stroke-width:4.9691;stroke-linecap:butt;stroke-linejoin:miter;stroke-miterlimit:4;stroke-dasharray:none;stroke-opacity:1"
         id="path86" /><g
         id="g88"
         transform="scale(10)"><text
           transform="matrix(0.998871,0,0,-1,123.651,96.252)"
           style="font-variant:normal;font-weight:normal;font-size:6.99976px;font-family:Arial;-inkscape-font-specification:ArialMT;writing-mode:lr-tb;fill:#100f0d;fill-opacity:1;fill-rule:nonzero;stroke:none"
           id="text92"><tspan
             x="0 4.6688399 8.5607061 10.891626 12.83756 14.391506 16.33744 17.891386 21.783253 25.675119 27.621054"
             y="0"
             sodipodi:role="line"
             id="tspan90">Partition 2</tspan></text><text
           transform="matrix(0.998871,0,0,-1,113.02211,86.652)"
           style="font-variant:normal;font-weight:normal;font-size:7.99981px;font-family:'Courier New';-inkscape-font-specification:Courier;writing-mode:lr-tb;fill:#100f0d;fill-opacity:1;fill-rule:nonzero;stroke:none"
           id="text96"><tspan
             x="0 4.7998862 9.5997725 14.399658 19.199545 23.99943 28.799316 33.599201 38.39909 43.198975 47.998859"
             y="0"
             sodipodi:role="line"
             id="tspan94">/users/2018</tspan></text><text
           transform="matrix(0.998871,0,0,-1,120.34203,116.8844)"
           style="font-variant:normal;font-weight:normal;font-size:6.99976px;font-family:Arial;-inkscape-font-specification:ArialMT;writing-mode:lr-tb;fill:#100f0d;fill-opacity:1;fill-rule:nonzero;stroke:none"
           id="text100"><tspan
             x="0 5.0538268 8.945693 10.891626 14.783493 16.729427 20.621292 24.513159 28.405025 32.296894 34.242825"
             y="0"
             sodipodi:role="line"
             id="tspan98">Data node 2</tspan></text></g></g></g></svg>
