<?xml version="1.0" encoding="UTF-8" standalone="no"?>
<svg
   xmlns:dc="http://purl.org/dc/elements/1.1/"
   xmlns:cc="http://creativecommons.org/ns#"
   xmlns:rdf="http://www.w3.org/1999/02/22-rdf-syntax-ns#"
   xmlns:svg="http://www.w3.org/2000/svg"
   xmlns="http://www.w3.org/2000/svg"
   xmlns:sodipodi="http://sodipodi.sourceforge.net/DTD/sodipodi-0.dtd"
   xmlns:inkscape="http://www.inkscape.org/namespaces/inkscape"
   version="1.1"
   id="svg2"
   xml:space="preserve"
   width="286.66666"
   height="288"
   viewBox="0 0 286.66666 288"
   sodipodi:docname="8-5.eps"><metadata
     id="metadata8"><rdf:RDF><cc:Work
         rdf:about=""><dc:format>image/svg+xml</dc:format><dc:type
           rdf:resource="http://purl.org/dc/dcmitype/StillImage" /></cc:Work></rdf:RDF></metadata><defs
     id="defs6" /><sodipodi:namedview
     pagecolor="#ffffff"
     bordercolor="#666666"
     borderopacity="1"
     objecttolerance="10"
     gridtolerance="10"
     guidetolerance="10"
     inkscape:pageopacity="0"
     inkscape:pageshadow="2"
     inkscape:window-width="640"
     inkscape:window-height="480"
     id="namedview4" /><g
     id="g10"
     inkscape:groupmode="layer"
     inkscape:label="ink_ext_XXXXXX"
     transform="matrix(1.3333333,0,0,-1.3333333,0,288)"><g
       id="g12"
       transform="scale(0.1)"><path
         d="m 5.01563,1035.39 c 0,39.45 63.97267,71.44 142.89837,71.44 37.906,0 74.246,-7.53 101.043,-20.92 26.797,-13.4 41.852,-31.58 41.852,-50.52 v -47.64 c 0,-39.461 -63.981,-71.441 -142.895,-71.441 -78.9257,0 -142.89837,31.98 -142.89837,71.441 v 47.64"
         style="fill:#c9e4f3;fill-opacity:1;fill-rule:nonzero;stroke:none"
         id="path14" /><path
         d="m 5.01563,1035.39 c 0,39.45 63.97267,71.44 142.89837,71.44 37.906,0 74.246,-7.53 101.043,-20.92 26.797,-13.4 41.852,-31.58 41.852,-50.52 v -47.64 c 0,-39.461 -63.981,-71.441 -142.895,-71.441 -78.9257,0 -142.89837,31.98 -142.89837,71.441 z"
         style="fill:none;stroke:#293985;stroke-width:5.0003;stroke-linecap:butt;stroke-linejoin:miter;stroke-miterlimit:10;stroke-dasharray:none;stroke-opacity:1"
         id="path16" /><path
         d="m 290.809,1035.39 c 0,-39.46 -63.981,-71.449 -142.895,-71.449 -78.9257,0 -142.89837,31.989 -142.89837,71.449"
         style="fill:none;stroke:#6e8bc5;stroke-width:5.0003;stroke-linecap:butt;stroke-linejoin:miter;stroke-miterlimit:10;stroke-dasharray:none;stroke-opacity:1"
         id="path18" /><path
         d="m 5.01563,1083.02 c 0,39.46 63.97267,71.45 142.89837,71.45 37.906,0 74.246,-7.53 101.043,-20.93 26.797,-13.4 41.852,-31.57 41.852,-50.52 v -47.63 c 0,-39.46 -63.981,-71.449 -142.895,-71.449 -78.9257,0 -142.89837,31.989 -142.89837,71.449 v 47.63"
         style="fill:#c9e4f3;fill-opacity:1;fill-rule:nonzero;stroke:none"
         id="path20" /><path
         d="m 5.01563,1083.02 c 0,39.46 63.97267,71.45 142.89837,71.45 37.906,0 74.246,-7.53 101.043,-20.93 26.797,-13.4 41.852,-31.57 41.852,-50.52 v -47.63 c 0,-39.46 -63.981,-71.449 -142.895,-71.449 -78.9257,0 -142.89837,31.989 -142.89837,71.449 z"
         style="fill:none;stroke:#293985;stroke-width:5.0003;stroke-linecap:butt;stroke-linejoin:miter;stroke-miterlimit:10;stroke-dasharray:none;stroke-opacity:1"
         id="path22" /><path
         d="m 290.809,1083.02 c 0,-39.46 -63.981,-71.46 -142.895,-71.46 -78.9257,0 -142.89837,32 -142.89837,71.46"
         style="fill:none;stroke:#6e8bc5;stroke-width:5.0003;stroke-linecap:butt;stroke-linejoin:miter;stroke-miterlimit:10;stroke-dasharray:none;stroke-opacity:1"
         id="path24" /><path
         d="m 5.01563,1130.66 c 0,39.45 63.97267,71.44 142.89837,71.44 37.906,0 74.246,-7.52 101.043,-20.93 26.797,-13.39 41.852,-31.56 41.852,-50.51 v -47.64 c 0,-39.46 -63.981,-71.46 -142.895,-71.46 -78.9257,0 -142.89837,32 -142.89837,71.46 v 47.64"
         style="fill:#c9e4f3;fill-opacity:1;fill-rule:nonzero;stroke:none"
         id="path26" /><path
         d="m 5.01563,1130.66 c 0,39.45 63.97267,71.44 142.89837,71.44 37.906,0 74.246,-7.52 101.043,-20.93 26.797,-13.39 41.852,-31.56 41.852,-50.51 v -47.64 c 0,-39.46 -63.981,-71.46 -142.895,-71.46 -78.9257,0 -142.89837,32 -142.89837,71.46 z"
         style="fill:none;stroke:#293985;stroke-width:5.0003;stroke-linecap:butt;stroke-linejoin:miter;stroke-miterlimit:10;stroke-dasharray:none;stroke-opacity:1"
         id="path28" /><path
         d="m 290.809,1130.66 c 0,-39.47 -63.981,-71.46 -142.895,-71.46 -78.9257,0 -142.89837,31.99 -142.89837,71.46"
         style="fill:none;stroke:#6e8bc5;stroke-width:5.0003;stroke-linecap:butt;stroke-linejoin:miter;stroke-miterlimit:10;stroke-dasharray:none;stroke-opacity:1"
         id="path30" /><path
         d="m 5.01563,1178.29 c 0,39.46 63.97267,71.44 142.89837,71.44 37.906,0 74.246,-7.52 101.043,-20.92 26.797,-13.4 41.852,-31.57 41.852,-50.52 v -47.63 c 0,-39.47 -63.981,-71.46 -142.895,-71.46 -78.9257,0 -142.89837,31.99 -142.89837,71.46 v 47.63"
         style="fill:#c9e4f3;fill-opacity:1;fill-rule:nonzero;stroke:none"
         id="path32" /><path
         d="m 5.01563,1178.29 c 0,39.46 63.97267,71.44 142.89837,71.44 37.906,0 74.246,-7.52 101.043,-20.92 26.797,-13.4 41.852,-31.57 41.852,-50.52 v -47.63 c 0,-39.47 -63.981,-71.46 -142.895,-71.46 -78.9257,0 -142.89837,31.99 -142.89837,71.46 z"
         style="fill:none;stroke:#293985;stroke-width:5.0003;stroke-linecap:butt;stroke-linejoin:miter;stroke-miterlimit:10;stroke-dasharray:none;stroke-opacity:1"
         id="path34" /><path
         d="m 290.809,1178.29 c 0,-39.47 -63.981,-71.46 -142.895,-71.46 -78.9257,0 -142.89837,31.99 -142.89837,71.46"
         style="fill:none;stroke:#6e8bc5;stroke-width:5.0003;stroke-linecap:butt;stroke-linejoin:miter;stroke-miterlimit:10;stroke-dasharray:none;stroke-opacity:1"
         id="path36" /><path
         d="m 5.01563,1225.93 c 0,39.45 63.97267,71.44 142.89837,71.44 37.906,0 74.246,-7.52 101.043,-20.92 26.797,-13.42 41.852,-31.58 41.852,-50.52 v -47.64 c 0,-39.47 -63.981,-71.46 -142.895,-71.46 -78.9257,0 -142.89837,31.99 -142.89837,71.46 v 47.64"
         style="fill:#c9e4f3;fill-opacity:1;fill-rule:nonzero;stroke:none"
         id="path38" /><path
         d="m 5.01563,1225.93 c 0,39.45 63.97267,71.44 142.89837,71.44 37.906,0 74.246,-7.52 101.043,-20.92 26.797,-13.42 41.852,-31.58 41.852,-50.52 v -47.64 c 0,-39.47 -63.981,-71.46 -142.895,-71.46 -78.9257,0 -142.89837,31.99 -142.89837,71.46 z"
         style="fill:none;stroke:#293985;stroke-width:5.0003;stroke-linecap:butt;stroke-linejoin:miter;stroke-miterlimit:10;stroke-dasharray:none;stroke-opacity:1"
         id="path40" /><path
         d="m 290.809,1225.93 c 0,-39.47 -63.981,-71.46 -142.895,-71.46 -78.9257,0 -142.89837,31.99 -142.89837,71.46"
         style="fill:none;stroke:#6e8bc5;stroke-width:5.0003;stroke-linecap:butt;stroke-linejoin:miter;stroke-miterlimit:10;stroke-dasharray:none;stroke-opacity:1"
         id="path42" /><path
         d="m 5.01563,1273.55 c 0,39.47 63.97267,71.46 142.89837,71.46 37.906,0 74.246,-7.53 101.043,-20.93 26.797,-13.41 41.852,-31.58 41.852,-50.53 v -47.62 c 0,-39.47 -63.981,-71.46 -142.895,-71.46 -78.9257,0 -142.89837,31.99 -142.89837,71.46 v 47.62"
         style="fill:#c9e4f3;fill-opacity:1;fill-rule:nonzero;stroke:none"
         id="path44" /><path
         d="m 5.01563,1273.55 c 0,39.47 63.97267,71.46 142.89837,71.46 37.906,0 74.246,-7.53 101.043,-20.93 26.797,-13.41 41.852,-31.58 41.852,-50.53 v -47.62 c 0,-39.47 -63.981,-71.46 -142.895,-71.46 -78.9257,0 -142.89837,31.99 -142.89837,71.46 z"
         style="fill:none;stroke:#293985;stroke-width:5.0003;stroke-linecap:butt;stroke-linejoin:miter;stroke-miterlimit:10;stroke-dasharray:none;stroke-opacity:1"
         id="path46" /><path
         d="m 290.809,1273.55 c 0,-39.46 -63.981,-71.45 -142.895,-71.45 -78.9257,0 -142.89837,31.99 -142.89837,71.45 H 290.809"
         style="fill:#c9e4f3;fill-opacity:1;fill-rule:nonzero;stroke:none"
         id="path48" /><path
         d="m 290.809,1273.55 c 0,-39.46 -63.981,-71.45 -142.895,-71.45 -78.9257,0 -142.89837,31.99 -142.89837,71.45"
         style="fill:none;stroke:#293985;stroke-width:5.0003;stroke-linecap:butt;stroke-linejoin:miter;stroke-miterlimit:10;stroke-dasharray:none;stroke-opacity:1"
         id="path50" /><g
         id="g52"
         transform="scale(10)"><text
           transform="matrix(1,0,0,-1,136.116,94.2379)"
           style="font-variant:normal;font-weight:normal;font-size:6.99976px;font-family:Arial;-inkscape-font-specification:ArialMT;writing-mode:lr-tb;fill:#100f0d;fill-opacity:1;fill-rule:nonzero;stroke:none"
           id="text70"><tspan
             x="0 4.2768536 8.945693"
             y="0"
             sodipodi:role="line"
             id="tspan54">FEB</tspan><tspan
             x="-6.0250001 -0.19419992 4.4746399 9.5284672 14.582294"
             y="60.4617"
             sodipodi:role="line"
             id="tspan56">MARCH</tspan><tspan
             x="0.19531 3.69519 8.3640299"
             y="-59.636299"
             sodipodi:role="line"
             id="tspan58">JAN</tspan><tspan
             x="-58.456989 -54.565125 -50.673256 -46.781391"
             y="-81.229301"
             sodipodi:role="line"
             id="tspan60">2017</tspan><tspan
             x="-58.456989 -54.565125 -50.673256 -46.781391"
             y="-23.6164"
             sodipodi:role="line"
             id="tspan62">2018</tspan><tspan
             x="-58.456989 -54.565125 -50.673256 -46.781391"
             y="34.234798"
             sodipodi:role="line"
             id="tspan64">2019</tspan><tspan
             x="-58.456989 -54.565125 -50.673256 -46.781391"
             y="93.782799"
             sodipodi:role="line"
             id="tspan66">2020</tspan><tspan
             x="-127.55309 -123.66122 -119.76936"
             y="-43.596199"
             sodipodi:role="line"
             id="tspan68">10B</tspan></text></g><path
         d="m 1863.74,466.66 h 195.3 c 11.84,0 21.44,-9.59 21.44,-21.43 V 345.191 c 0,-11.832 -9.6,-21.429 -21.44,-21.429 h -195.3 c -11.85,0 -21.44,9.597 -21.44,21.429 V 445.23 c 0,11.84 9.59,21.43 21.44,21.43"
         style="fill:#fde29b;fill-opacity:1;fill-rule:nonzero;stroke:none"
         id="path72" /><path
         d="m 1863.74,466.66 h 195.3 c 11.84,0 21.44,-9.59 21.44,-21.43 V 345.191 c 0,-11.832 -9.6,-21.429 -21.44,-21.429 h -195.3 c -11.85,0 -21.44,9.597 -21.44,21.429 V 445.23 c 0,11.84 9.59,21.43 21.44,21.43 z"
         style="fill:none;stroke:#e36838;stroke-width:5.0003;stroke-linecap:butt;stroke-linejoin:miter;stroke-miterlimit:4;stroke-dasharray:none;stroke-opacity:1"
         id="path74" /><g
         id="g76"
         transform="scale(10)"><text
           transform="matrix(1,0,0,-1,187.964,37.6539)"
           style="font-variant:normal;font-weight:normal;font-size:6.99976px;font-family:Arial;-inkscape-font-specification:ArialMT;writing-mode:lr-tb;fill:#100f0d;fill-opacity:1;fill-rule:nonzero;stroke:none"
           id="text80"><tspan
             x="0 3.8918664 7.7837329 11.6756"
             y="0"
             sodipodi:role="line"
             id="tspan78">250K</tspan></text></g><path
         d="m 1863.74,1179.67 h 195.3 c 11.84,0 21.44,-9.6 21.44,-21.43 V 1058.2 c 0,-11.84 -9.6,-21.43 -21.44,-21.43 h -195.3 c -11.85,0 -21.44,9.59 -21.44,21.43 v 100.04 c 0,11.83 9.59,21.43 21.44,21.43"
         style="fill:#fde29b;fill-opacity:1;fill-rule:nonzero;stroke:none"
         id="path82" /><path
         d="m 1863.74,1179.67 h 195.3 c 11.84,0 21.44,-9.6 21.44,-21.43 V 1058.2 c 0,-11.84 -9.6,-21.43 -21.44,-21.43 h -195.3 c -11.85,0 -21.44,9.59 -21.44,21.43 v 100.04 c 0,11.83 9.59,21.43 21.44,21.43 z"
         style="fill:none;stroke:#e36838;stroke-width:5.0003;stroke-linecap:butt;stroke-linejoin:miter;stroke-miterlimit:4;stroke-dasharray:none;stroke-opacity:1"
         id="path84" /><g
         id="g86"
         transform="scale(10)"><text
           transform="matrix(1,0,0,-1,187.964,108.955)"
           style="font-variant:normal;font-weight:normal;font-size:6.99976px;font-family:Arial;-inkscape-font-specification:ArialMT;writing-mode:lr-tb;fill:#100f0d;fill-opacity:1;fill-rule:nonzero;stroke:none"
           id="text90"><tspan
             x="0 3.8918664 7.7837329 11.6756"
             y="0"
             sodipodi:role="line"
             id="tspan88">400K</tspan></text></g><path
         d="m 1863.74,1898.4 h 195.3 c 11.84,0 21.44,-9.6 21.44,-21.44 v -100.03 c 0,-11.84 -9.6,-21.44 -21.44,-21.44 h -195.3 c -11.85,0 -21.44,9.6 -21.44,21.44 v 100.03 c 0,11.84 9.59,21.44 21.44,21.44"
         style="fill:#fde29b;fill-opacity:1;fill-rule:nonzero;stroke:none"
         id="path92" /><path
         d="m 1863.74,1898.4 h 195.3 c 11.84,0 21.44,-9.6 21.44,-21.44 v -100.03 c 0,-11.84 -9.6,-21.44 -21.44,-21.44 h -195.3 c -11.85,0 -21.44,9.6 -21.44,21.44 v 100.03 c 0,11.84 9.59,21.44 21.44,21.44 z"
         style="fill:none;stroke:#e36838;stroke-width:5.0003;stroke-linecap:butt;stroke-linejoin:miter;stroke-miterlimit:4;stroke-dasharray:none;stroke-opacity:1"
         id="path94" /><g
         id="g96"
         transform="scale(10)"><text
           transform="matrix(1,0,0,-1,187.964,180.828)"
           style="font-variant:normal;font-weight:normal;font-size:6.99976px;font-family:Arial;-inkscape-font-specification:ArialMT;writing-mode:lr-tb;fill:#100f0d;fill-opacity:1;fill-rule:nonzero;stroke:none"
           id="text100"><tspan
             x="0 3.8918664 7.7837329 11.6756"
             y="0"
             sodipodi:role="line"
             id="tspan98">200K</tspan></text></g><path
         d="m 1863.74,823.422 h 195.3 c 11.84,0 21.44,-9.59 21.44,-21.43 V 701.949 c 0,-11.828 -9.6,-21.429 -21.44,-21.429 h -195.3 c -11.85,0 -21.44,9.601 -21.44,21.429 v 100.043 c 0,11.84 9.59,21.43 21.44,21.43"
         style="fill:#fde29b;fill-opacity:1;fill-rule:nonzero;stroke:none"
         id="path102" /><path
         d="m 1863.74,823.422 h 195.3 c 11.84,0 21.44,-9.59 21.44,-21.43 V 701.949 c 0,-11.828 -9.6,-21.429 -21.44,-21.429 h -195.3 c -11.85,0 -21.44,9.601 -21.44,21.429 v 100.043 c 0,11.84 9.59,21.43 21.44,21.43 z"
         style="fill:none;stroke:#e36838;stroke-width:5.0003;stroke-linecap:butt;stroke-linejoin:miter;stroke-miterlimit:4;stroke-dasharray:none;stroke-opacity:1"
         id="path104" /><g
         id="g106"
         transform="scale(10)"><text
           transform="matrix(1,0,0,-1,187.964,73.3301)"
           style="font-variant:normal;font-weight:normal;font-size:6.99976px;font-family:Arial;-inkscape-font-specification:ArialMT;writing-mode:lr-tb;fill:#100f0d;fill-opacity:1;fill-rule:nonzero;stroke:none"
           id="text110"><tspan
             x="0 3.8918664 7.7837329 11.6756"
             y="0"
             sodipodi:role="line"
             id="tspan108">600K</tspan></text></g><path
         d="m 1863.74,1536.92 h 195.3 c 11.84,0 21.44,-9.6 21.44,-21.43 v -100.04 c 0,-11.84 -9.6,-21.44 -21.44,-21.44 h -195.3 c -11.85,0 -21.44,9.6 -21.44,21.44 v 100.04 c 0,11.83 9.59,21.43 21.44,21.43"
         style="fill:#fde29b;fill-opacity:1;fill-rule:nonzero;stroke:none"
         id="path112" /><path
         d="m 1863.74,1536.92 h 195.3 c 11.84,0 21.44,-9.6 21.44,-21.43 v -100.04 c 0,-11.84 -9.6,-21.44 -21.44,-21.44 h -195.3 c -11.85,0 -21.44,9.6 -21.44,21.44 v 100.04 c 0,11.83 9.59,21.43 21.44,21.43 z"
         style="fill:none;stroke:#e36838;stroke-width:5.0003;stroke-linecap:butt;stroke-linejoin:miter;stroke-miterlimit:4;stroke-dasharray:none;stroke-opacity:1"
         id="path114" /><g
         id="g116"
         transform="scale(10)"><text
           transform="matrix(1,0,0,-1,187.964,144.68)"
           style="font-variant:normal;font-weight:normal;font-size:6.99976px;font-family:Arial;-inkscape-font-specification:ArialMT;writing-mode:lr-tb;fill:#100f0d;fill-opacity:1;fill-rule:nonzero;stroke:none"
           id="text130"><tspan
             x="0 3.8918664 7.7837329 11.6756"
             y="0"
             sodipodi:role="line"
             id="tspan118">100K</tspan><tspan
             x="23.198"
             y="-27.148001"
             id="tspan120">1</tspan><tspan
             x="23.198"
             y="80.349998"
             id="tspan122">4</tspan><tspan
             x="23.198"
             y="44.724998"
             id="tspan124">3</tspan><tspan
             x="23.198"
             y="9.0003996"
             id="tspan126">2</tspan><tspan
             x="23.198"
             y="116.0264"
             id="tspan128">5</tspan></text></g><path
         d="m 1145.96,537.621 h 126.98"
         style="fill:none;stroke:#100f0d;stroke-width:5.0003;stroke-linecap:butt;stroke-linejoin:miter;stroke-miterlimit:10;stroke-dasharray:none;stroke-opacity:1"
         id="path132" /><path
         d="m 1263.03,523.082 54.2,14.539 -54.2,14.52 z"
         style="fill:#100f0d;fill-opacity:1;fill-rule:nonzero;stroke:none"
         id="path134" /><path
         d="m 1146.54,1739.17 h 126.4"
         style="fill:none;stroke:#100f0d;stroke-width:5.0003;stroke-linecap:butt;stroke-linejoin:miter;stroke-miterlimit:10;stroke-dasharray:none;stroke-opacity:1"
         id="path136" /><path
         d="m 1263.03,1724.64 54.2,14.53 -54.2,14.53 z"
         style="fill:#100f0d;fill-opacity:1;fill-rule:nonzero;stroke:none"
         id="path138" /><path
         d="m 1148.22,1143.06 h 124.72"
         style="fill:none;stroke:#100f0d;stroke-width:5.0003;stroke-linecap:butt;stroke-linejoin:miter;stroke-miterlimit:10;stroke-dasharray:none;stroke-opacity:1"
         id="path140" /><path
         d="m 1263.03,1128.53 54.2,14.53 -54.2,14.53 z"
         style="fill:#100f0d;fill-opacity:1;fill-rule:nonzero;stroke:none"
         id="path142" /><g
         id="g144"
         transform="scale(10)"><text
           transform="matrix(1,0,0,-1,81.1645,210.486)"
           style="font-variant:normal;font-weight:normal;font-size:6.99976px;font-family:Arial;-inkscape-font-specification:ArialMT;writing-mode:lr-tb;fill:#100f0d;fill-opacity:1;fill-rule:nonzero;stroke:none"
           id="text160"><tspan
             x="0 3.8918664"
             y="0"
             sodipodi:role="line"
             id="tspan146">2B</tspan><tspan
             x="0 3.8918664"
             y="57.651199"
             sodipodi:role="line"
             id="tspan148">3B</tspan><tspan
             x="0 3.8918664"
             y="115.7004"
             sodipodi:role="line"
             id="tspan150">2B</tspan><tspan
             x="0 3.8918664"
             y="175.43359"
             sodipodi:role="line"
             id="tspan152">3B</tspan><tspan
             x="54.950802 58.842667 62.734531"
             y="21.5686"
             sodipodi:role="line"
             id="tspan154">10M</tspan><tspan
             x="54.950802 58.842667 62.734531"
             y="81.306503"
             sodipodi:role="line"
             id="tspan156">10M</tspan><tspan
             x="54.950802 58.842667 62.734531"
             y="141.7249"
             sodipodi:role="line"
             id="tspan158">35M</tspan></text></g><path
         d="M 1148.22,535.219 V 1741.33"
         style="fill:none;stroke:#100f0d;stroke-width:5.0003;stroke-linecap:butt;stroke-linejoin:miter;stroke-miterlimit:10;stroke-dasharray:none;stroke-opacity:1"
         id="path162" /><path
         d="M 966.457,1378.34 H 1094.58"
         style="fill:none;stroke:#100f0d;stroke-width:5.0003;stroke-linecap:butt;stroke-linejoin:miter;stroke-miterlimit:10;stroke-dasharray:none;stroke-opacity:1"
         id="path164" /><path
         d="m 1084.67,1363.82 54.21,14.52 -54.21,14.53 z"
         style="fill:#100f0d;fill-opacity:1;fill-rule:nonzero;stroke:none"
         id="path166" /><path
         d="M 576.621,801.98 H 698.16"
         style="fill:none;stroke:#100f0d;stroke-width:5.0003;stroke-linecap:butt;stroke-linejoin:miter;stroke-miterlimit:10;stroke-dasharray:none;stroke-opacity:1"
         id="path168" /><path
         d="m 688.25,787.461 54.203,14.519 -54.203,14.532 z"
         style="fill:#100f0d;fill-opacity:1;fill-rule:nonzero;stroke:none"
         id="path170" /><path
         d="M 575.254,1954.86 H 698.16"
         style="fill:none;stroke:#100f0d;stroke-width:5.0003;stroke-linecap:butt;stroke-linejoin:miter;stroke-miterlimit:10;stroke-dasharray:none;stroke-opacity:1"
         id="path172" /><path
         d="m 688.25,1940.33 54.203,14.53 -54.203,14.52 z"
         style="fill:#100f0d;fill-opacity:1;fill-rule:nonzero;stroke:none"
         id="path174" /><path
         d="M 576.621,1378.34 H 698.16"
         style="fill:none;stroke:#100f0d;stroke-width:5.0003;stroke-linecap:butt;stroke-linejoin:miter;stroke-miterlimit:10;stroke-dasharray:none;stroke-opacity:1"
         id="path176" /><path
         d="m 688.25,1363.82 54.203,14.52 -54.203,14.53 z"
         style="fill:#100f0d;fill-opacity:1;fill-rule:nonzero;stroke:none"
         id="path178" /><path
         d="M 576.621,801.98 V 1957.31"
         style="fill:none;stroke:#100f0d;stroke-width:5.0003;stroke-linecap:butt;stroke-linejoin:miter;stroke-miterlimit:10;stroke-dasharray:none;stroke-opacity:1"
         id="path180" /><path
         d="M 576.621,201.801 V 1345.01"
         style="fill:none;stroke:#100f0d;stroke-width:5.0003;stroke-linecap:butt;stroke-linejoin:miter;stroke-miterlimit:10;stroke-dasharray:none;stroke-opacity:1"
         id="path182" /><path
         d="M 575.43,204.652 H 698.16"
         style="fill:none;stroke:#100f0d;stroke-width:5.0003;stroke-linecap:butt;stroke-linejoin:miter;stroke-miterlimit:10;stroke-dasharray:none;stroke-opacity:1"
         id="path184" /><path
         d="m 688.25,190.129 54.203,14.523 -54.203,14.528 z"
         style="fill:#100f0d;fill-opacity:1;fill-rule:nonzero;stroke:none"
         id="path186" /><path
         d="M 308.164,1154.47 H 516.133"
         style="fill:none;stroke:#100f0d;stroke-width:5.0003;stroke-linecap:butt;stroke-linejoin:miter;stroke-miterlimit:10;stroke-dasharray:none;stroke-opacity:1"
         id="path188" /><path
         d="m 506.227,1139.94 54.203,14.53 -54.203,14.52 z"
         style="fill:#100f0d;fill-opacity:1;fill-rule:nonzero;stroke:none"
         id="path190" /><path
         d="m 1672.91,751.969 h 124.38"
         style="fill:none;stroke:#100f0d;stroke-width:5.0003;stroke-linecap:butt;stroke-linejoin:miter;stroke-miterlimit:10;stroke-dasharray:none;stroke-opacity:1"
         id="path192" /><path
         d="m 1787.39,737.441 54.2,14.528 -54.2,14.523 z"
         style="fill:#100f0d;fill-opacity:1;fill-rule:nonzero;stroke:none"
         id="path194" /><path
         d="m 1672.19,1466.47 125.83,-1.48"
         style="fill:none;stroke:#100f0d;stroke-width:5.0003;stroke-linecap:butt;stroke-linejoin:miter;stroke-miterlimit:10;stroke-dasharray:none;stroke-opacity:1"
         id="path196" /><path
         d="m 1787.93,1450.58 54.37,13.88 -54.03,15.17 z"
         style="fill:#100f0d;fill-opacity:1;fill-rule:nonzero;stroke:none"
         id="path198" /><path
         d="M 1672.19,678.129 V 1829.09"
         style="fill:none;stroke:#100f0d;stroke-width:5.0003;stroke-linecap:butt;stroke-linejoin:miter;stroke-miterlimit:10;stroke-dasharray:none;stroke-opacity:1"
         id="path200" /><path
         d="M 1672.19,392.332 V 1249.73"
         style="fill:none;stroke:#100f0d;stroke-width:5.0003;stroke-linecap:butt;stroke-linejoin:miter;stroke-miterlimit:10;stroke-dasharray:none;stroke-opacity:1"
         id="path202" /><path
         d="m 1670,394.531 128.02,1.489"
         style="fill:none;stroke:#100f0d;stroke-width:5.0003;stroke-linecap:butt;stroke-linejoin:miter;stroke-miterlimit:10;stroke-dasharray:none;stroke-opacity:1"
         id="path204" /><path
         d="m 1788.27,381.391 54.03,15.14 -54.37,13.899 z"
         style="fill:#100f0d;fill-opacity:1;fill-rule:nonzero;stroke:none"
         id="path206" /><path
         d="m 1672.19,1109.23 125.83,-1.5"
         style="fill:none;stroke:#100f0d;stroke-width:5.0003;stroke-linecap:butt;stroke-linejoin:miter;stroke-miterlimit:10;stroke-dasharray:none;stroke-opacity:1"
         id="path208" /><path
         d="m 1787.93,1093.33 54.37,13.88 -54.03,15.17 z"
         style="fill:#100f0d;fill-opacity:1;fill-rule:nonzero;stroke:none"
         id="path210" /><path
         d="m 1541.24,1143.06 h 86.66"
         style="fill:none;stroke:#100f0d;stroke-width:5.0003;stroke-linecap:butt;stroke-linejoin:miter;stroke-miterlimit:10;stroke-dasharray:none;stroke-opacity:1"
         id="path212" /><path
         d="m 1617.99,1128.53 54.2,14.53 -54.2,14.53 z"
         style="fill:#100f0d;fill-opacity:1;fill-rule:nonzero;stroke:none"
         id="path214" /><path
         d="m 1670.09,1826.95 h 127.93"
         style="fill:none;stroke:#100f0d;stroke-width:5.0003;stroke-linecap:butt;stroke-linejoin:miter;stroke-miterlimit:10;stroke-dasharray:none;stroke-opacity:1"
         id="path216" /><path
         d="m 1788.09,1812.42 54.21,14.53 -54.21,14.52 z"
         style="fill:#100f0d;fill-opacity:1;fill-rule:nonzero;stroke:none"
         id="path218" /><path
         d="m 211.133,1027.29 h 32.402 v 15.87 h 27.016 l 0.875,-15.87 h 96.765 v 15.87 h 27.356 v -17.04 l 31.629,1.17 V 812.922 l -216.043,-2.18 v 216.548"
         style="fill:#ffffff;fill-opacity:1;fill-rule:nonzero;stroke:none"
         id="path220" /><path
         d="M 215.547,815.301 V 979.289 H 423.535 V 815.301 Z m 0,207.989 h 23.98 v -11.99 c 0,-2.21 1.801,-4.01 4.008,-4.01 h 28.008 c 2.207,0 4.004,1.8 4.004,4.01 v 11.99 h 87.988 v -11.99 c 0,-2.21 1.797,-4.01 4.004,-4.01 h 28.008 c 2.207,0 3.98,1.8 3.98,4.01 v 11.99 h 24.008 V 987.289 H 215.547 Z m 31.992,16 h 20 v -23.99 h -20 z m 124.004,0 h 20 v -23.99 h -20 z m 55.996,-7.99 h -28.012 v 11.99 c 0,2.21 -1.773,4 -3.98,4 h -28.008 c -2.207,0 -4.004,-1.79 -4.004,-4 v -11.99 h -87.988 v 11.99 c 0,2.21 -1.797,4 -4.004,4 h -28.008 c -2.207,0 -4.008,-1.79 -4.008,-4 v -11.99 h -27.984 c -2.215,0 -4.004,-1.8 -4.004,-4.01 V 811.301 c 0,-2.211 1.789,-4.012 4.004,-4.012 h 215.996 c 2.203,0 4.004,1.801 4.004,4.012 v 215.989 c 0,2.21 -1.801,4.01 -4.004,4.01 v 0"
         style="fill:#231f20;fill-opacity:1;fill-rule:nonzero;stroke:none"
         id="path222" /><path
         d="m 387.539,947.289 v -28 h -28.012 v 28 z m 0,-64 h -28.012 v 28.012 h 28.012 z m 0,-36 h -28.012 v 28.012 h 28.012 z m -35.996,0 h -28.008 v 28.012 h 28.008 z m -35.996,0 h -28.008 v 28.012 h 28.008 z m -36.02,0 h -27.984 v 28.012 h 27.984 z m -27.984,64.012 h 27.984 v -28.012 h -27.984 z m 0,35.988 h 27.984 v -28 h -27.984 z m 35.996,0 h 28.008 v -28 h -28.008 z m 0,-35.988 h 28.008 v -28.012 h -28.008 z m 64.004,-28.012 h -28.008 v 28.012 h 28.008 z m -28.008,64 h 28.008 v -28 h -28.008 z m 28.008,8.012 H 243.535 V 839.289 h 152.012 v 116.012 h -44.004"
         style="fill:#231f20;fill-opacity:1;fill-rule:nonzero;stroke:none"
         id="path224" /><path
         d="m 746.047,2054.86 h 32.398 v 15.87 h 27.016 l 0.875,-15.87 h 96.773 v 15.87 h 27.352 v -17.04 l 31.629,1.17 v -214.37 l -216.043,-2.19 v 216.56"
         style="fill:#ffffff;fill-opacity:1;fill-rule:nonzero;stroke:none"
         id="path226" /><path
         d="m 750.461,1842.87 v 163.98 h 207.984 v -163.98 z m 0,207.98 h 23.98 v -11.98 c 0,-2.21 1.805,-4.01 4.004,-4.01 h 28.012 c 2.203,0 4.004,1.8 4.004,4.01 v 11.98 h 87.988 v -11.98 c 0,-2.21 1.797,-4.01 4.004,-4.01 h 28.008 c 2.207,0 3.98,1.8 3.98,4.01 v 11.98 h 24.004 v -35.99 H 750.461 Z m 31.992,16 h 20 v -23.98 h -20 z m 124.004,0 h 20 v -23.98 h -20 z m 55.996,-7.98 h -28.012 v 11.98 c 0,2.22 -1.773,4.01 -3.98,4.01 h -28.008 c -2.207,0 -4.004,-1.79 -4.004,-4.01 v -11.98 h -87.988 v 11.98 c 0,2.22 -1.801,4.01 -4.004,4.01 h -28.012 c -2.199,0 -4.004,-1.79 -4.004,-4.01 v -11.98 h -27.984 c -2.211,0 -4.004,-1.81 -4.004,-4.01 v -215.99 c 0,-2.21 1.793,-4.01 4.004,-4.01 h 215.996 c 2.203,0 4.004,1.8 4.004,4.01 v 215.99 c 0,2.2 -1.801,4.01 -4.004,4.01 v 0"
         style="fill:#231f20;fill-opacity:1;fill-rule:nonzero;stroke:none"
         id="path228" /><path
         d="m 922.453,1974.86 v -28.01 h -28.012 v 28.01 z m 0,-64.01 h -28.012 v 28.02 h 28.012 z m 0,-35.99 h -28.012 v 28.01 h 28.012 z m -35.996,0 h -28.012 v 28.01 h 28.012 z m -35.996,0 h -28.008 v 28.01 h 28.008 z m -36.02,0 h -27.984 v 28.01 h 27.984 z m -27.984,64.01 h 27.984 v -28.02 h -27.984 z m 0,35.99 h 27.984 v -28.01 h -27.984 z m 35.996,0 h 28.008 v -28.01 h -28.008 z m 0,-35.99 h 28.008 v -28.02 h -28.008 z m 64.004,-28.02 h -28.012 v 28.02 h 28.012 z m -28.012,64.01 h 28.012 v -28.01 h -28.012 z m 28.012,8.01 H 778.445 v -116.02 h 152.016 v 116.02 h -44.004"
         style="fill:#231f20;fill-opacity:1;fill-rule:nonzero;stroke:none"
         id="path230" /><path
         d="m 746.047,1478.34 h 32.398 v 15.88 h 27.016 l 0.875,-15.88 h 96.773 v 15.88 h 27.352 v -17.04 l 31.629,1.16 v -214.37 l -216.043,-2.18 v 216.55"
         style="fill:#ffffff;fill-opacity:1;fill-rule:nonzero;stroke:none"
         id="path232" /><path
         d="m 750.461,1266.36 v 163.98 h 207.984 v -163.98 z m 0,207.98 h 23.98 v -11.99 c 0,-2.21 1.805,-4.01 4.004,-4.01 h 28.012 c 2.203,0 4.004,1.8 4.004,4.01 v 11.99 h 87.988 v -11.99 c 0,-2.21 1.797,-4.01 4.004,-4.01 h 28.008 c 2.207,0 3.98,1.8 3.98,4.01 v 11.99 h 24.004 v -36 H 750.461 Z m 31.992,16 h 20 v -23.98 h -20 z m 124.004,0 h 20 v -23.98 h -20 z m 55.996,-7.99 h -28.012 v 11.99 c 0,2.21 -1.773,4 -3.98,4 h -28.008 c -2.207,0 -4.004,-1.79 -4.004,-4 v -11.99 h -87.988 v 11.99 c 0,2.21 -1.801,4 -4.004,4 h -28.012 c -2.199,0 -4.004,-1.79 -4.004,-4 v -11.99 h -27.984 c -2.211,0 -4.004,-1.8 -4.004,-4.01 v -215.99 c 0,-2.21 1.793,-4.01 4.004,-4.01 h 215.996 c 2.203,0 4.004,1.8 4.004,4.01 v 215.99 c 0,2.21 -1.801,4.01 -4.004,4.01 v 0"
         style="fill:#231f20;fill-opacity:1;fill-rule:nonzero;stroke:none"
         id="path234" /><path
         d="m 922.453,1398.34 v -28 h -28.012 v 28 z m 0,-64 h -28.012 v 28.01 h 28.012 z m 0,-36 h -28.012 v 28.02 h 28.012 z m -35.996,0 h -28.012 v 28.02 h 28.012 z m -35.996,0 h -28.008 v 28.02 h 28.008 z m -36.02,0 h -27.984 v 28.02 h 27.984 z m -27.984,64.01 h 27.984 v -28.01 h -27.984 z m 0,35.99 h 27.984 v -28 h -27.984 z m 35.996,0 h 28.008 v -28 h -28.008 z m 0,-35.99 h 28.008 v -28.01 h -28.008 z m 64.004,-28.01 h -28.012 v 28.01 h 28.012 z m -28.012,64 h 28.012 v -28 h -28.012 z m 28.012,8.02 H 778.445 v -116.02 h 152.016 v 116.02 h -44.004"
         style="fill:#231f20;fill-opacity:1;fill-rule:nonzero;stroke:none"
         id="path236" /><path
         d="m 746.047,901.98 h 32.398 v 15.872 h 27.016 l 0.875,-15.872 h 96.773 v 15.872 h 27.352 V 900.82 l 31.629,1.16 V 687.609 L 746.047,685.43 v 216.55"
         style="fill:#ffffff;fill-opacity:1;fill-rule:nonzero;stroke:none"
         id="path238" /><path
         d="M 750.461,689.992 V 853.969 H 958.445 V 689.992 Z m 0,207.988 h 23.98 v -12 c 0,-2.199 1.805,-4 4.004,-4 h 28.012 c 2.203,0 4.004,1.801 4.004,4 v 12 h 87.988 v -12 c 0,-2.199 1.797,-4 4.004,-4 h 28.008 c 2.207,0 3.98,1.801 3.98,4 v 12 h 24.004 v -36 H 750.461 Z m 31.992,15.989 h 20 v -23.977 h -20 z m 124.004,0 h 20 v -23.977 h -20 z m 55.996,-7.989 h -28.012 v 12 c 0,2.2 -1.773,4 -3.98,4 h -28.008 c -2.207,0 -4.004,-1.8 -4.004,-4 v -12 h -87.988 v 12 c 0,2.2 -1.801,4 -4.004,4 h -28.012 c -2.199,0 -4.004,-1.8 -4.004,-4 v -12 h -27.984 c -2.211,0 -4.004,-1.789 -4.004,-4 v -216 c 0,-2.199 1.793,-4 4.004,-4 h 215.996 c 2.203,0 4.004,1.801 4.004,4 v 216 c 0,2.211 -1.801,4 -4.004,4 v 0"
         style="fill:#231f20;fill-opacity:1;fill-rule:nonzero;stroke:none"
         id="path240" /><path
         d="m 922.453,821.98 v -28.011 h -28.012 v 28.011 z m 0,-64 h -28.012 v 28 h 28.012 z m 0,-36 h -28.012 v 28.012 h 28.012 z m -35.996,0 h -28.012 v 28.012 h 28.012 z m -35.996,0 h -28.008 v 28.012 h 28.008 z m -36.02,0 h -27.984 v 28.012 h 27.984 z m -27.984,64 h 27.984 v -28 h -27.984 z m 0,36 h 27.984 v -28.011 h -27.984 z m 35.996,0 h 28.008 v -28.011 h -28.008 z m 0,-36 h 28.008 v -28 h -28.008 z m 64.004,-28 h -28.012 v 28 h 28.012 z m -28.012,64 h 28.012 v -28.011 h -28.012 z m 28.012,8.012 H 778.445 V 713.969 h 152.016 v 116.023 h -44.004"
         style="fill:#231f20;fill-opacity:1;fill-rule:nonzero;stroke:none"
         id="path242" /><path
         d="m 746.047,304.652 h 32.398 v 15.868 h 27.016 l 0.875,-15.868 h 96.773 v 15.868 h 27.352 v -17.04 l 31.629,1.172 V 90.2813 L 746.047,88.0898 V 304.652"
         style="fill:#ffffff;fill-opacity:1;fill-rule:nonzero;stroke:none"
         id="path244" /><path
         d="M 750.461,92.6523 V 256.641 H 958.445 V 92.6523 Z m 0,207.9887 h 23.98 v -11.989 c 0,-2.211 1.805,-4 4.004,-4 h 28.012 c 2.203,0 4.004,1.789 4.004,4 v 11.989 h 87.988 v -11.989 c 0,-2.211 1.797,-4 4.004,-4 h 28.008 c 2.207,0 3.98,1.789 3.98,4 v 11.989 h 24.004 V 264.652 H 750.461 Z m 31.992,16 h 20 v -23.989 h -20 z m 124.004,0 h 20 v -23.989 h -20 z m 55.996,-7.989 h -28.012 v 11.989 c 0,2.211 -1.773,4.011 -3.98,4.011 h -28.008 c -2.207,0 -4.004,-1.8 -4.004,-4.011 v -11.989 h -87.988 v 11.989 c 0,2.211 -1.801,4.011 -4.004,4.011 h -28.012 c -2.199,0 -4.004,-1.8 -4.004,-4.011 v -11.989 h -27.984 c -2.211,0 -4.004,-1.8 -4.004,-4 V 88.6523 c 0,-2.2109 1.793,-4 4.004,-4 h 215.996 c 2.203,0 4.004,1.7891 4.004,4 V 304.652 c 0,2.2 -1.801,4 -4.004,4 v 0"
         style="fill:#231f20;fill-opacity:1;fill-rule:nonzero;stroke:none"
         id="path246" /><path
         d="m 922.453,224.652 v -28.011 h -28.012 v 28.011 z m 0,-64.011 h -28.012 v 28.011 h 28.012 z m 0,-35.989 h -28.012 v 28 h 28.012 z m -35.996,0 h -28.012 v 28 h 28.012 z m -35.996,0 h -28.008 v 28 h 28.008 z m -36.02,0 h -27.984 v 28 h 27.984 z m -27.984,64 h 27.984 v -28.011 h -27.984 z m 0,36 h 27.984 v -28.011 h -27.984 z m 35.996,0 h 28.008 v -28.011 h -28.008 z m 0,-36 h 28.008 v -28.011 h -28.008 z m 64.004,-28.011 h -28.012 v 28.011 h 28.012 z m -28.012,64.011 h 28.012 v -28.011 h -28.012 z m 28.012,8 H 778.445 V 116.641 h 152.016 v 116.011 h -44.004"
         style="fill:#231f20;fill-opacity:1;fill-rule:nonzero;stroke:none"
         id="path248" /><path
         d="m 1320.83,1839.17 h 32.4 v 15.87 h 27.02 l 0.87,-15.87 h 96.78 v 15.87 h 27.34 V 1838 l 31.63,1.17 V 1624.8 l -216.04,-2.18 v 216.55"
         style="fill:#ffffff;fill-opacity:1;fill-rule:nonzero;stroke:none"
         id="path250" /><path
         d="m 1325.24,1627.18 v 163.98 h 207.99 v -163.98 z m 0,207.98 h 23.99 v -11.98 c 0,-2.22 1.79,-4.01 4,-4.01 h 28.01 c 2.2,0 4,1.79 4,4.01 v 11.98 h 87.99 v -11.98 c 0,-2.22 1.8,-4.01 4,-4.01 h 28.01 c 2.21,0 3.99,1.79 3.99,4.01 v 11.98 h 24 v -35.99 h -207.99 z m 31.99,16 h 20 v -23.98 h -20 z m 124.01,0 h 20 v -23.98 h -20 z m 55.99,-7.98 h -28 v 11.98 c 0,2.21 -1.78,4.01 -3.99,4.01 h -28.01 c -2.2,0 -4,-1.8 -4,-4.01 v -11.98 h -87.99 v 11.98 c 0,2.21 -1.8,4.01 -4,4.01 h -28.01 c -2.21,0 -4,-1.8 -4,-4.01 v -11.98 h -27.99 c -2.21,0 -4.01,-1.81 -4.01,-4.01 v -215.99 c 0,-2.22 1.8,-4.01 4.01,-4.01 h 215.99 c 2.21,0 4.01,1.79 4.01,4.01 v 215.99 c 0,2.2 -1.8,4.01 -4.01,4.01 v 0"
         style="fill:#231f20;fill-opacity:1;fill-rule:nonzero;stroke:none"
         id="path252" /><path
         d="m 1497.23,1759.17 v -28.01 h -28 v 28.01 z m 0,-64.01 h -28 v 28.02 h 28 z m 0,-35.99 h -28 v 28.01 h 28 z m -35.99,0 h -28.01 v 28.01 h 28.01 z m -36,0 h -28.01 v 28.01 h 28.01 z m -36.01,0 h -27.99 v 28.01 h 27.99 z m -27.99,64.01 h 27.99 v -28.02 h -27.99 z m 0,35.99 h 27.99 v -28.01 h -27.99 z m 35.99,0 h 28.01 v -28.01 h -28.01 z m 0,-35.99 h 28.01 v -28.02 h -28.01 z m 64.01,-28.02 h -28.01 v 28.02 h 28.01 z m -28.01,64.01 h 28.01 v -28.01 h -28.01 z m 28.01,8.01 h -108.01 v -116.02 h 152.01 v 116.02 h -44"
         style="fill:#231f20;fill-opacity:1;fill-rule:nonzero;stroke:none"
         id="path254" /><path
         d="m 1320.83,1243.06 h 32.4 v 15.87 h 27.02 l 0.87,-15.87 h 96.78 v 15.87 h 27.34 v -17.04 l 31.63,1.17 v -214.37 l -216.04,-2.19 v 216.56"
         style="fill:#ffffff;fill-opacity:1;fill-rule:nonzero;stroke:none"
         id="path256" /><path
         d="m 1325.24,1031.07 v 163.98 h 207.99 v -163.98 z m 0,207.98 h 23.99 v -11.98 c 0,-2.22 1.79,-4.01 4,-4.01 h 28.01 c 2.2,0 4,1.79 4,4.01 v 11.98 h 87.99 v -11.98 c 0,-2.22 1.8,-4.01 4,-4.01 h 28.01 c 2.21,0 3.99,1.79 3.99,4.01 v 11.98 h 24 v -35.99 h -207.99 z m 31.99,16 h 20 v -23.98 h -20 z m 124.01,0 h 20 v -23.98 h -20 z m 55.99,-7.98 h -28 v 11.98 c 0,2.21 -1.78,4.01 -3.99,4.01 h -28.01 c -2.2,0 -4,-1.8 -4,-4.01 v -11.98 h -87.99 v 11.98 c 0,2.21 -1.8,4.01 -4,4.01 h -28.01 c -2.21,0 -4,-1.8 -4,-4.01 v -11.98 h -27.99 c -2.21,0 -4.01,-1.81 -4.01,-4.01 v -215.99 c 0,-2.22 1.8,-4.02 4.01,-4.02 h 215.99 c 2.21,0 4.01,1.8 4.01,4.02 v 215.99 c 0,2.2 -1.8,4.01 -4.01,4.01 v 0"
         style="fill:#231f20;fill-opacity:1;fill-rule:nonzero;stroke:none"
         id="path258" /><path
         d="m 1497.23,1163.06 v -28.01 h -28 v 28.01 z m 0,-64.01 h -28 v 28.01 h 28 z m 0,-36 h -28 v 28.02 h 28 z m -35.99,0 h -28.01 v 28.02 h 28.01 z m -36,0 h -28.01 v 28.02 h 28.01 z m -36.01,0 h -27.99 v 28.02 h 27.99 z m -27.99,64.01 h 27.99 v -28.01 h -27.99 z m 0,36 h 27.99 v -28.01 h -27.99 z m 35.99,0 h 28.01 v -28.01 h -28.01 z m 0,-36 h 28.01 v -28.01 h -28.01 z m 64.01,-28.01 h -28.01 v 28.01 h 28.01 z m -28.01,64.01 h 28.01 v -28.01 h -28.01 z m 28.01,8.01 h -108.01 v -116.02 h 152.01 v 116.02 h -44"
         style="fill:#231f20;fill-opacity:1;fill-rule:nonzero;stroke:none"
         id="path260" /><path
         d="m 1320.83,637.621 h 32.4 v 15.859 h 27.02 l 0.87,-15.859 h 96.78 v 15.859 h 27.34 v -17.039 l 31.63,1.18 V 423.242 l -216.04,-2.191 v 216.57"
         style="fill:#ffffff;fill-opacity:1;fill-rule:nonzero;stroke:none"
         id="path262" /><path
         d="m 1325.24,425.621 v 163.981 h 207.99 V 425.621 Z m 0,207.981 h 23.99 v -11.981 c 0,-2.219 1.79,-4 4,-4 h 28.01 c 2.2,0 4,1.781 4,4 v 11.981 h 87.99 v -11.981 c 0,-2.219 1.8,-4 4,-4 h 28.01 c 2.21,0 3.99,1.781 3.99,4 v 11.981 h 24 v -35.981 h -207.99 z m 31.99,16 h 20 v -23.981 h -20 z m 124.01,0 h 20 v -23.981 h -20 z m 55.99,-7.981 h -28 v 11.981 c 0,2.218 -1.78,4.019 -3.99,4.019 h -28.01 c -2.2,0 -4,-1.801 -4,-4.019 v -11.981 h -87.99 v 11.981 c 0,2.218 -1.8,4.019 -4,4.019 h -28.01 c -2.21,0 -4,-1.801 -4,-4.019 v -11.981 h -27.99 c -2.21,0 -4.01,-1.808 -4.01,-4 v -216 c 0,-2.219 1.8,-4 4.01,-4 h 215.99 c 2.21,0 4.01,1.781 4.01,4 v 216 c 0,2.192 -1.8,4 -4.01,4 v 0"
         style="fill:#231f20;fill-opacity:1;fill-rule:nonzero;stroke:none"
         id="path264" /><path
         d="m 1497.23,557.621 v -28.019 h -28 v 28.019 z m 0,-64.019 h -28 v 28.019 h 28 z m 0,-35.981 h -28 v 28 h 28 z m -35.99,0 h -28.01 v 28 h 28.01 z m -36,0 h -28.01 v 28 h 28.01 z m -36.01,0 h -27.99 v 28 h 27.99 z m -27.99,64 h 27.99 v -28.019 h -27.99 z m 0,36 h 27.99 v -28.019 h -27.99 z m 35.99,0 h 28.01 v -28.019 h -28.01 z m 0,-36 h 28.01 v -28.019 h -28.01 z m 64.01,-28.019 h -28.01 v 28.019 h 28.01 z m -28.01,64.019 h 28.01 v -28.019 h -28.01 z m 28.01,8 H 1353.23 V 449.602 h 152.01 v 116.019 h -44"
         style="fill:#231f20;fill-opacity:1;fill-rule:nonzero;stroke:none"
         id="path266" /></g></g></svg>
