<?xml version="1.0" encoding="UTF-8" standalone="no"?>
<svg
   xmlns:dc="http://purl.org/dc/elements/1.1/"
   xmlns:cc="http://creativecommons.org/ns#"
   xmlns:rdf="http://www.w3.org/1999/02/22-rdf-syntax-ns#"
   xmlns:svg="http://www.w3.org/2000/svg"
   xmlns="http://www.w3.org/2000/svg"
   xmlns:sodipodi="http://sodipodi.sourceforge.net/DTD/sodipodi-0.dtd"
   xmlns:inkscape="http://www.inkscape.org/namespaces/inkscape"
   version="1.1"
   id="svg2"
   xml:space="preserve"
   width="146.66667"
   height="144"
   viewBox="0 0 146.66667 144"
   sodipodi:docname="8-6.eps"><metadata
     id="metadata8"><rdf:RDF><cc:Work
         rdf:about=""><dc:format>image/svg+xml</dc:format><dc:type
           rdf:resource="http://purl.org/dc/dcmitype/StillImage" /></cc:Work></rdf:RDF></metadata><defs
     id="defs6" /><sodipodi:namedview
     pagecolor="#ffffff"
     bordercolor="#666666"
     borderopacity="1"
     objecttolerance="10"
     gridtolerance="10"
     guidetolerance="10"
     inkscape:pageopacity="0"
     inkscape:pageshadow="2"
     inkscape:window-width="640"
     inkscape:window-height="480"
     id="namedview4" /><g
     id="g10"
     inkscape:groupmode="layer"
     inkscape:label="ink_ext_XXXXXX"
     transform="matrix(1.3333333,0,0,-1.3333333,0,144)"><g
       id="g12"
       transform="scale(0.1)"><path
         d="M 76.8125,989.855 H 427.16 c 32.242,0 58.383,-26.14 58.383,-58.398 v -272.48 c 0,-32.25 -26.141,-58.399 -58.383,-58.399 H 76.8125 c -32.25,0 -58.3984,26.149 -58.3984,58.399 v 272.48 c 0,32.258 26.1484,58.398 58.3984,58.398"
         style="fill:#e0f2c3;fill-opacity:1;fill-rule:nonzero;stroke:none"
         id="path14" /><path
         d="M 76.8125,989.855 H 427.16 c 32.242,0 58.383,-26.14 58.383,-58.398 v -272.48 c 0,-32.25 -26.141,-58.399 -58.383,-58.399 H 76.8125 c -32.25,0 -58.3984,26.149 -58.3984,58.399 v 272.48 c 0,32.258 26.1484,58.398 58.3984,58.398 z"
         style="fill:none;stroke:#298a3c;stroke-width:5.0003;stroke-linecap:butt;stroke-linejoin:miter;stroke-miterlimit:4;stroke-dasharray:none;stroke-opacity:1"
         id="path16" /><g
         id="g18"
         transform="scale(10)"><text
           transform="matrix(1,0,0,-1,-0.480859,101.985)"
           style="font-variant:normal;font-weight:normal;font-size:6.99976px;font-family:Arial;-inkscape-font-specification:ArialMT;writing-mode:lr-tb;fill:#100f0d;fill-opacity:1;fill-rule:nonzero;stroke:none"
           id="text22"><tspan
             x="0 4.6688399 8.5607061 12.060587 15.560467 17.114412 20.614294 24.506159 26.060106 28.006041 31.50592 35.397785 39.289654 41.620571 45.51244 47.458374"
             y="0"
             sodipodi:role="line"
             id="tspan20">Physical shard 1</tspan></text></g><path
         d="m 85.3984,950.922 h 81.7466 c 9.671,0 17.519,-7.84 17.519,-17.52 v -81.738 c 0,-9.684 -7.848,-17.523 -17.519,-17.523 H 85.3984 c -9.6718,0 -17.5234,7.839 -17.5234,17.523 v 81.738 c 0,9.68 7.8516,17.52 17.5234,17.52"
         style="fill:#ffffff;fill-opacity:1;fill-rule:nonzero;stroke:none"
         id="path24" /><path
         d="m 85.3984,950.922 h 81.7466 c 9.671,0 17.519,-7.84 17.519,-17.52 v -81.738 c 0,-9.684 -7.848,-17.523 -17.519,-17.523 H 85.3984 c -9.6718,0 -17.5234,7.839 -17.5234,17.523 v 81.738 c 0,9.68 7.8516,17.52 17.5234,17.52 z"
         style="fill:none;stroke:#100f0d;stroke-width:5.0003;stroke-linecap:butt;stroke-linejoin:miter;stroke-miterlimit:4;stroke-dasharray:none;stroke-opacity:1"
         id="path26" /><g
         id="g28"
         transform="scale(10)"><text
           transform="matrix(1,0,0,-1,10.6813,87.3859)"
           style="font-variant:normal;font-weight:normal;font-size:6.99976px;font-family:Arial;-inkscape-font-specification:ArialMT;writing-mode:lr-tb;fill:#100f0d;fill-opacity:1;fill-rule:nonzero;stroke:none"
           id="text32"><tspan
             x="0"
             y="0"
             id="tspan30">1</tspan></text></g><path
         d="m 85.3984,756.289 h 81.7466 c 9.671,0 17.519,-7.84 17.519,-17.516 v -81.75 c 0,-9.671 -7.848,-17.515 -17.519,-17.515 H 85.3984 c -9.6718,0 -17.5234,7.844 -17.5234,17.515 v 81.75 c 0,9.676 7.8516,17.516 17.5234,17.516"
         style="fill:#ffffff;fill-opacity:1;fill-rule:nonzero;stroke:none"
         id="path34" /><path
         d="m 85.3984,756.289 h 81.7466 c 9.671,0 17.519,-7.84 17.519,-17.516 v -81.75 c 0,-9.671 -7.848,-17.515 -17.519,-17.515 H 85.3984 c -9.6718,0 -17.5234,7.844 -17.5234,17.515 v 81.75 c 0,9.676 7.8516,17.516 17.5234,17.516 z"
         style="fill:none;stroke:#100f0d;stroke-width:5.0003;stroke-linecap:butt;stroke-linejoin:miter;stroke-miterlimit:4;stroke-dasharray:none;stroke-opacity:1"
         id="path36" /><g
         id="g38"
         transform="scale(10)"><text
           transform="matrix(1,0,0,-1,10.6813,67.9227)"
           style="font-variant:normal;font-weight:normal;font-size:6.99976px;font-family:Arial;-inkscape-font-specification:ArialMT;writing-mode:lr-tb;fill:#100f0d;fill-opacity:1;fill-rule:nonzero;stroke:none"
           id="text42"><tspan
             x="0"
             y="0"
             id="tspan40">3</tspan></text></g><path
         d="m 336.82,756.289 h 81.739 c 9.679,0 17.527,-7.84 17.527,-17.516 v -81.75 c 0,-9.671 -7.848,-17.515 -17.527,-17.515 H 336.82 c -9.679,0 -17.523,7.844 -17.523,17.515 v 81.75 c 0,9.676 7.844,17.516 17.523,17.516"
         style="fill:#ffffff;fill-opacity:1;fill-rule:nonzero;stroke:none"
         id="path44" /><path
         d="m 336.82,756.289 h 81.739 c 9.679,0 17.527,-7.84 17.527,-17.516 v -81.75 c 0,-9.671 -7.848,-17.515 -17.527,-17.515 H 336.82 c -9.679,0 -17.523,7.844 -17.523,17.515 v 81.75 c 0,9.676 7.844,17.516 17.523,17.516 z"
         style="fill:none;stroke:#100f0d;stroke-width:5.0003;stroke-linecap:butt;stroke-linejoin:miter;stroke-miterlimit:4;stroke-dasharray:none;stroke-opacity:1"
         id="path46" /><g
         id="g48"
         transform="scale(10)"><text
           transform="matrix(1,0,0,-1,35.8223,67.9227)"
           style="font-variant:normal;font-weight:normal;font-size:6.99976px;font-family:Arial;-inkscape-font-specification:ArialMT;writing-mode:lr-tb;fill:#100f0d;fill-opacity:1;fill-rule:nonzero;stroke:none"
           id="text52"><tspan
             x="0"
             y="0"
             id="tspan50">4</tspan></text></g><path
         d="m 336.82,950.922 h 81.739 c 9.679,0 17.527,-7.84 17.527,-17.52 v -81.738 c 0,-9.684 -7.848,-17.523 -17.527,-17.523 H 336.82 c -9.679,0 -17.523,7.839 -17.523,17.523 v 81.738 c 0,9.68 7.844,17.52 17.523,17.52"
         style="fill:#ffffff;fill-opacity:1;fill-rule:nonzero;stroke:none"
         id="path54" /><path
         d="m 336.82,950.922 h 81.739 c 9.679,0 17.527,-7.84 17.527,-17.52 v -81.738 c 0,-9.684 -7.848,-17.523 -17.527,-17.523 H 336.82 c -9.679,0 -17.523,7.839 -17.523,17.523 v 81.738 c 0,9.68 7.844,17.52 17.523,17.52 z"
         style="fill:none;stroke:#100f0d;stroke-width:5.0003;stroke-linecap:butt;stroke-linejoin:miter;stroke-miterlimit:4;stroke-dasharray:none;stroke-opacity:1"
         id="path56" /><g
         id="g58"
         transform="scale(10)"><text
           transform="matrix(1,0,0,-1,35.8223,87.3859)"
           style="font-variant:normal;font-weight:normal;font-size:6.99976px;font-family:Arial;-inkscape-font-specification:ArialMT;writing-mode:lr-tb;fill:#100f0d;fill-opacity:1;fill-rule:nonzero;stroke:none"
           id="text62"><tspan
             x="0"
             y="0"
             id="tspan60">2</tspan></text></g><path
         d="m 663.938,989.855 h 350.342 c 32.25,0 58.4,-26.14 58.4,-58.398 v -272.48 c 0,-32.25 -26.15,-58.399 -58.4,-58.399 H 663.938 c -32.254,0 -58.391,26.149 -58.391,58.399 v 272.48 c 0,32.258 26.137,58.398 58.391,58.398"
         style="fill:#c9e4f3;fill-opacity:1;fill-rule:nonzero;stroke:none"
         id="path64" /><path
         d="m 663.938,989.855 h 350.342 c 32.25,0 58.4,-26.14 58.4,-58.398 v -272.48 c 0,-32.25 -26.15,-58.399 -58.4,-58.399 H 663.938 c -32.254,0 -58.391,26.149 -58.391,58.399 v 272.48 c 0,32.258 26.137,58.398 58.391,58.398 z"
         style="fill:none;stroke:#293985;stroke-width:5.0003;stroke-linecap:butt;stroke-linejoin:miter;stroke-miterlimit:10;stroke-dasharray:none;stroke-opacity:1"
         id="path66" /><g
         id="g68"
         transform="scale(10)"><text
           transform="matrix(1,0,0,-1,58.2316,101.985)"
           style="font-variant:normal;font-weight:normal;font-size:6.99976px;font-family:Arial;-inkscape-font-specification:ArialMT;writing-mode:lr-tb;fill:#100f0d;fill-opacity:1;fill-rule:nonzero;stroke:none"
           id="text72"><tspan
             x="0 4.6688399 8.5607061 12.060587 15.560467 17.114412 20.614294 24.506159 26.060106 28.006041 31.50592 35.397785 39.289654 41.620571 45.51244 47.458374"
             y="0"
             sodipodi:role="line"
             id="tspan70">Physical shard 2</tspan></text></g><path
         d="m 672.535,950.922 h 81.746 c 9.68,0 17.516,-7.84 17.516,-17.52 v -81.738 c 0,-9.684 -7.836,-17.523 -17.516,-17.523 h -81.746 c -9.68,0 -17.523,7.839 -17.523,17.523 v 81.738 c 0,9.68 7.843,17.52 17.523,17.52"
         style="fill:#ffffff;fill-opacity:1;fill-rule:nonzero;stroke:none"
         id="path74" /><path
         d="m 672.535,950.922 h 81.746 c 9.68,0 17.516,-7.84 17.516,-17.52 v -81.738 c 0,-9.684 -7.836,-17.523 -17.516,-17.523 h -81.746 c -9.68,0 -17.523,7.839 -17.523,17.523 v 81.738 c 0,9.68 7.843,17.52 17.523,17.52 z"
         style="fill:none;stroke:#100f0d;stroke-width:5.0003;stroke-linecap:butt;stroke-linejoin:miter;stroke-miterlimit:4;stroke-dasharray:none;stroke-opacity:1"
         id="path76" /><g
         id="g78"
         transform="scale(10)"><text
           transform="matrix(1,0,0,-1,69.3941,87.3859)"
           style="font-variant:normal;font-weight:normal;font-size:6.99976px;font-family:Arial;-inkscape-font-specification:ArialMT;writing-mode:lr-tb;fill:#100f0d;fill-opacity:1;fill-rule:nonzero;stroke:none"
           id="text82"><tspan
             x="0"
             y="0"
             id="tspan80">5</tspan></text></g><path
         d="m 672.535,756.289 h 81.746 c 9.68,0 17.516,-7.84 17.516,-17.516 v -81.75 c 0,-9.671 -7.836,-17.515 -17.516,-17.515 h -81.746 c -9.68,0 -17.523,7.844 -17.523,17.515 v 81.75 c 0,9.676 7.843,17.516 17.523,17.516"
         style="fill:#ffffff;fill-opacity:1;fill-rule:nonzero;stroke:none"
         id="path84" /><path
         d="m 672.535,756.289 h 81.746 c 9.68,0 17.516,-7.84 17.516,-17.516 v -81.75 c 0,-9.671 -7.836,-17.515 -17.516,-17.515 h -81.746 c -9.68,0 -17.523,7.844 -17.523,17.515 v 81.75 c 0,9.676 7.843,17.516 17.523,17.516 z"
         style="fill:none;stroke:#100f0d;stroke-width:5.0003;stroke-linecap:butt;stroke-linejoin:miter;stroke-miterlimit:4;stroke-dasharray:none;stroke-opacity:1"
         id="path86" /><g
         id="g88"
         transform="scale(10)"><text
           transform="matrix(1,0,0,-1,69.3941,67.9227)"
           style="font-variant:normal;font-weight:normal;font-size:6.99976px;font-family:Arial;-inkscape-font-specification:ArialMT;writing-mode:lr-tb;fill:#100f0d;fill-opacity:1;fill-rule:nonzero;stroke:none"
           id="text92"><tspan
             x="0"
             y="0"
             id="tspan90">7</tspan></text></g><path
         d="m 923.957,756.289 h 81.733 c 9.69,0 17.52,-7.84 17.52,-17.516 v -81.75 c 0,-9.671 -7.83,-17.515 -17.52,-17.515 h -81.733 c -9.68,0 -17.519,7.844 -17.519,17.515 v 81.75 c 0,9.676 7.839,17.516 17.519,17.516"
         style="fill:#ffffff;fill-opacity:1;fill-rule:nonzero;stroke:none"
         id="path94" /><path
         d="m 923.957,756.289 h 81.733 c 9.69,0 17.52,-7.84 17.52,-17.516 v -81.75 c 0,-9.671 -7.83,-17.515 -17.52,-17.515 h -81.733 c -9.68,0 -17.519,7.844 -17.519,17.515 v 81.75 c 0,9.676 7.839,17.516 17.519,17.516 z"
         style="fill:none;stroke:#100f0d;stroke-width:5.0003;stroke-linecap:butt;stroke-linejoin:miter;stroke-miterlimit:4;stroke-dasharray:none;stroke-opacity:1"
         id="path96" /><g
         id="g98"
         transform="scale(10)"><text
           transform="matrix(1,0,0,-1,94.5363,67.9227)"
           style="font-variant:normal;font-weight:normal;font-size:6.99976px;font-family:Arial;-inkscape-font-specification:ArialMT;writing-mode:lr-tb;fill:#100f0d;fill-opacity:1;fill-rule:nonzero;stroke:none"
           id="text102"><tspan
             x="0"
             y="0"
             id="tspan100">8</tspan></text></g><path
         d="m 923.957,950.922 h 81.733 c 9.69,0 17.52,-7.84 17.52,-17.52 v -81.738 c 0,-9.684 -7.83,-17.523 -17.52,-17.523 h -81.733 c -9.68,0 -17.519,7.839 -17.519,17.523 v 81.738 c 0,9.68 7.839,17.52 17.519,17.52"
         style="fill:#ffffff;fill-opacity:1;fill-rule:nonzero;stroke:none"
         id="path104" /><path
         d="m 923.957,950.922 h 81.733 c 9.69,0 17.52,-7.84 17.52,-17.52 v -81.738 c 0,-9.684 -7.83,-17.523 -17.52,-17.523 h -81.733 c -9.68,0 -17.519,7.839 -17.519,17.523 v 81.738 c 0,9.68 7.839,17.52 17.519,17.52 z"
         style="fill:none;stroke:#100f0d;stroke-width:5.0003;stroke-linecap:butt;stroke-linejoin:miter;stroke-miterlimit:4;stroke-dasharray:none;stroke-opacity:1"
         id="path106" /><g
         id="g108"
         transform="scale(10)"><text
           transform="matrix(1,0,0,-1,94.5363,87.3859)"
           style="font-variant:normal;font-weight:normal;font-size:6.99976px;font-family:Arial;-inkscape-font-specification:ArialMT;writing-mode:lr-tb;fill:#100f0d;fill-opacity:1;fill-rule:nonzero;stroke:none"
           id="text112"><tspan
             x="0"
             y="0"
             id="tspan110">6</tspan></text></g><path
         d="m 370.379,397.988 h 350.336 c 32.254,0 58.398,-26.144 58.398,-58.386 V 67.1133 c 0,-32.2578 -26.144,-58.40236 -58.398,-58.40236 H 370.379 c -32.254,0 -58.391,26.14456 -58.391,58.40236 V 339.602 c 0,32.242 26.137,58.386 58.391,58.386"
         style="fill:#fcfccf;fill-opacity:1;fill-rule:nonzero;stroke:none"
         id="path114" /><path
         d="m 370.379,397.988 h 350.336 c 32.254,0 58.398,-26.144 58.398,-58.386 V 67.1133 c 0,-32.2578 -26.144,-58.40236 -58.398,-58.40236 H 370.379 c -32.254,0 -58.391,26.14456 -58.391,58.40236 V 339.602 c 0,32.242 26.137,58.386 58.391,58.386 z"
         style="fill:none;stroke:#c49d19;stroke-width:5.0003;stroke-linecap:butt;stroke-linejoin:miter;stroke-miterlimit:4;stroke-dasharray:none;stroke-opacity:1"
         id="path116" /><g
         id="g118"
         transform="scale(10)"><text
           transform="matrix(1,0,0,-1,28.875,42.7988)"
           style="font-variant:normal;font-weight:normal;font-size:6.99976px;font-family:Arial;-inkscape-font-specification:ArialMT;writing-mode:lr-tb;fill:#100f0d;fill-opacity:1;fill-rule:nonzero;stroke:none"
           id="text122"><tspan
             x="0 4.6688399 8.5607061 12.060587 15.560467 17.114412 20.614294 24.506159 26.060106 28.006041 31.50592 35.397785 39.289654 41.620571 45.51244 47.458374"
             y="0"
             sodipodi:role="line"
             id="tspan120">Physical shard 3</tspan></text></g><path
         d="m 378.969,359.063 h 81.742 c 9.676,0 17.516,-7.844 17.516,-17.516 v -81.754 c 0,-9.668 -7.84,-17.516 -17.516,-17.516 h -81.742 c -9.68,0 -17.524,7.848 -17.524,17.516 v 81.754 c 0,9.672 7.844,17.516 17.524,17.516"
         style="fill:#ffffff;fill-opacity:1;fill-rule:nonzero;stroke:none"
         id="path124" /><path
         d="m 378.969,359.063 h 81.742 c 9.676,0 17.516,-7.844 17.516,-17.516 v -81.754 c 0,-9.668 -7.84,-17.516 -17.516,-17.516 h -81.742 c -9.68,0 -17.524,7.848 -17.524,17.516 v 81.754 c 0,9.672 7.844,17.516 17.524,17.516 z"
         style="fill:none;stroke:#100f0d;stroke-width:5.0003;stroke-linecap:butt;stroke-linejoin:miter;stroke-miterlimit:4;stroke-dasharray:none;stroke-opacity:1"
         id="path126" /><g
         id="g128"
         transform="scale(10)"><text
           transform="matrix(1,0,0,-1,40.0371,28.2008)"
           style="font-variant:normal;font-weight:normal;font-size:6.99976px;font-family:Arial;-inkscape-font-specification:ArialMT;writing-mode:lr-tb;fill:#100f0d;fill-opacity:1;fill-rule:nonzero;stroke:none"
           id="text132"><tspan
             x="0"
             y="0"
             id="tspan130">9</tspan></text></g><path
         d="m 378.969,164.422 h 81.742 c 9.676,0 17.516,-7.836 17.516,-17.516 V 65.1523 c 0,-9.6718 -7.84,-17.5156 -17.516,-17.5156 h -81.742 c -9.68,0 -17.524,7.8438 -17.524,17.5156 v 81.7537 c 0,9.68 7.844,17.516 17.524,17.516"
         style="fill:#ffffff;fill-opacity:1;fill-rule:nonzero;stroke:none"
         id="path134" /><path
         d="m 378.969,164.422 h 81.742 c 9.676,0 17.516,-7.836 17.516,-17.516 V 65.1523 c 0,-9.6718 -7.84,-17.5156 -17.516,-17.5156 h -81.742 c -9.68,0 -17.524,7.8438 -17.524,17.5156 v 81.7537 c 0,9.68 7.844,17.516 17.524,17.516 z"
         style="fill:none;stroke:#100f0d;stroke-width:5.0003;stroke-linecap:butt;stroke-linejoin:miter;stroke-miterlimit:4;stroke-dasharray:none;stroke-opacity:1"
         id="path136" /><g
         id="g138"
         transform="scale(10)"><text
           transform="matrix(1,0,0,-1,38.3504,8.73633)"
           style="font-variant:normal;font-weight:normal;font-size:6.99976px;font-family:Arial;-inkscape-font-specification:ArialMT;writing-mode:lr-tb;fill:#100f0d;fill-opacity:1;fill-rule:nonzero;stroke:none"
           id="text142"><tspan
             x="0 3.3742182"
             y="0"
             sodipodi:role="line"
             id="tspan140">11</tspan></text></g><path
         d="m 630.383,164.422 h 81.75 c 9.676,0 17.515,-7.836 17.515,-17.516 V 65.1523 c 0,-9.6718 -7.839,-17.5156 -17.515,-17.5156 h -81.75 c -9.668,0 -17.52,7.8438 -17.52,17.5156 v 81.7537 c 0,9.68 7.852,17.516 17.52,17.516"
         style="fill:#ffffff;fill-opacity:1;fill-rule:nonzero;stroke:none"
         id="path144" /><path
         d="m 630.383,164.422 h 81.75 c 9.676,0 17.515,-7.836 17.515,-17.516 V 65.1523 c 0,-9.6718 -7.839,-17.5156 -17.515,-17.5156 h -81.75 c -9.668,0 -17.52,7.8438 -17.52,17.5156 v 81.7537 c 0,9.68 7.852,17.516 17.52,17.516 z"
         style="fill:none;stroke:#100f0d;stroke-width:5.0003;stroke-linecap:butt;stroke-linejoin:miter;stroke-miterlimit:4;stroke-dasharray:none;stroke-opacity:1"
         id="path146" /><g
         id="g148"
         transform="scale(10)"><text
           transform="matrix(1,0,0,-1,63.2316,8.73633)"
           style="font-variant:normal;font-weight:normal;font-size:6.99976px;font-family:Arial;-inkscape-font-specification:ArialMT;writing-mode:lr-tb;fill:#100f0d;fill-opacity:1;fill-rule:nonzero;stroke:none"
           id="text152"><tspan
             x="0 3.8918664"
             y="0"
             sodipodi:role="line"
             id="tspan150">12</tspan></text></g><path
         d="m 630.383,359.063 h 81.75 c 9.676,0 17.515,-7.844 17.515,-17.516 v -81.754 c 0,-9.668 -7.839,-17.516 -17.515,-17.516 h -81.75 c -9.668,0 -17.52,7.848 -17.52,17.516 v 81.754 c 0,9.672 7.852,17.516 17.52,17.516"
         style="fill:#ffffff;fill-opacity:1;fill-rule:nonzero;stroke:none"
         id="path154" /><path
         d="m 630.383,359.063 h 81.75 c 9.676,0 17.515,-7.844 17.515,-17.516 v -81.754 c 0,-9.668 -7.839,-17.516 -17.515,-17.516 h -81.75 c -9.668,0 -17.52,7.848 -17.52,17.516 v 81.754 c 0,9.672 7.852,17.516 17.52,17.516 z"
         style="fill:none;stroke:#100f0d;stroke-width:5.0003;stroke-linecap:butt;stroke-linejoin:miter;stroke-miterlimit:4;stroke-dasharray:none;stroke-opacity:1"
         id="path156" /><g
         id="g158"
         transform="scale(10)"><text
           transform="matrix(1,0,0,-1,63.2316,28.2008)"
           style="font-variant:normal;font-weight:normal;font-size:6.99976px;font-family:Arial;-inkscape-font-specification:ArialMT;writing-mode:lr-tb;fill:#100f0d;fill-opacity:1;fill-rule:nonzero;stroke:none"
           id="text162"><tspan
             x="0 3.8918664"
             y="0"
             sodipodi:role="line"
             id="tspan160">10</tspan></text></g></g></g></svg>
