<?xml version="1.0" encoding="UTF-8" standalone="no"?>
<svg
   xmlns:dc="http://purl.org/dc/elements/1.1/"
   xmlns:cc="http://creativecommons.org/ns#"
   xmlns:rdf="http://www.w3.org/1999/02/22-rdf-syntax-ns#"
   xmlns:svg="http://www.w3.org/2000/svg"
   xmlns="http://www.w3.org/2000/svg"
   xmlns:sodipodi="http://sodipodi.sourceforge.net/DTD/sodipodi-0.dtd"
   xmlns:inkscape="http://www.inkscape.org/namespaces/inkscape"
   version="1.1"
   id="svg2"
   xml:space="preserve"
   width="481.33334"
   height="370.66666"
   viewBox="0 0 481.33334 370.66666"
   sodipodi:docname="8-7.eps"><metadata
     id="metadata8"><rdf:RDF><cc:Work
         rdf:about=""><dc:format>image/svg+xml</dc:format><dc:type
           rdf:resource="http://purl.org/dc/dcmitype/StillImage" /></cc:Work></rdf:RDF></metadata><defs
     id="defs6" /><sodipodi:namedview
     pagecolor="#ffffff"
     bordercolor="#666666"
     borderopacity="1"
     objecttolerance="10"
     gridtolerance="10"
     guidetolerance="10"
     inkscape:pageopacity="0"
     inkscape:pageshadow="2"
     inkscape:window-width="640"
     inkscape:window-height="480"
     id="namedview4" /><g
     id="g10"
     inkscape:groupmode="layer"
     inkscape:label="ink_ext_XXXXXX"
     transform="matrix(1.3333333,0,0,-1.3333333,0,370.66667)"><g
       id="g12"
       transform="scale(0.1)"><path
         d="m 843.227,954.227 h 830.093 c 78.29,0 141.74,-63.504 141.74,-141.852 V 150.438 C 1815.06,72.0938 1751.61,8.58594 1673.32,8.58594 H 843.227 c -78.274,0 -141.735,63.50786 -141.735,141.85206 v 661.937 c 0,78.348 63.461,141.852 141.735,141.852"
         style="fill:#e0f2c3;fill-opacity:1;fill-rule:nonzero;stroke:none"
         id="path14" /><path
         d="m 843.227,954.227 h 830.093 c 78.29,0 141.74,-63.504 141.74,-141.852 V 150.438 C 1815.06,72.0938 1751.61,8.58594 1673.32,8.58594 H 843.227 c -78.274,0 -141.735,63.50786 -141.735,141.85206 v 661.937 c 0,78.348 63.461,141.852 141.735,141.852 z"
         style="fill:none;stroke:#298a3c;stroke-width:4.9691;stroke-linecap:butt;stroke-linejoin:miter;stroke-miterlimit:4;stroke-dasharray:none;stroke-opacity:1"
         id="path16" /><g
         id="g18"
         transform="scale(10)"><text
           transform="matrix(0.999153,0,0,-1,109.405,99.575)"
           style="font-variant:normal;font-weight:normal;font-size:6.99976px;font-family:Arial;-inkscape-font-specification:ArialMT;writing-mode:lr-tb;fill:#100f0d;fill-opacity:1;fill-rule:nonzero;stroke:none"
           id="text22"><tspan
             x="0 5.0538268 8.945693 12.83756 16.729427 18.67536 20.229307 24.121174 26.067106"
             y="0"
             sodipodi:role="line"
             id="tspan20">Node id 0</tspan></text></g><path
         d="m 785.836,886.664 h 303.724 c 27.96,0 50.62,-22.672 50.62,-50.637 V 599.582 c 0,-27.961 -22.66,-50.641 -50.62,-50.641 H 785.836 c -27.949,0 -50.602,22.68 -50.602,50.641 v 236.445 c 0,27.965 22.653,50.637 50.602,50.637"
         style="fill:#c9e4f3;fill-opacity:1;fill-rule:nonzero;stroke:none"
         id="path24" /><path
         d="m 785.836,886.664 h 303.724 c 27.96,0 50.62,-22.672 50.62,-50.637 V 599.582 c 0,-27.961 -22.66,-50.641 -50.62,-50.641 H 785.836 c -27.949,0 -50.602,22.68 -50.602,50.641 v 236.445 c 0,27.965 22.653,50.637 50.602,50.637 z"
         style="fill:none;stroke:#293985;stroke-width:4.9691;stroke-linecap:butt;stroke-linejoin:miter;stroke-miterlimit:10;stroke-dasharray:none;stroke-opacity:1"
         id="path26" /><g
         id="g28"
         transform="scale(10)"><text
           transform="matrix(0.999153,0,0,-1,74.5879,73.1313)"
           style="font-variant:normal;font-weight:normal;font-size:7.99981px;font-family:'Courier New';-inkscape-font-specification:Courier;writing-mode:lr-tb;fill:#100f0d;fill-opacity:1;fill-rule:nonzero;stroke:none"
           id="text32"><tspan
             x="0 4.7998862 9.5997725 14.399658 19.199545 23.99943 28.799316"
             y="0"
             sodipodi:role="line"
             id="tspan30">user_id</tspan></text><text
           transform="matrix(0.999153,0,0,-1,88.812542,64.73169)"
           style="font-variant:normal;font-weight:normal;font-size:6.99976px;font-family:Arial;-inkscape-font-specification:ArialMT;writing-mode:lr-tb;fill:#100f0d;fill-opacity:1;fill-rule:nonzero;stroke:none"
           id="text36"><tspan
             x="0 4.0878596 6.033793"
             y="0"
             sodipodi:role="line"
             id="tspan34">= 2</tspan></text></g><path
         d="m 2631.68,954.227 h 830.1 c 78.27,0 141.73,-63.504 141.73,-141.852 V 150.438 c 0,-78.3442 -63.46,-141.85206 -141.73,-141.85206 h -830.1 c -78.28,0 -141.73,63.50786 -141.73,141.85206 v 661.937 c 0,78.348 63.45,141.852 141.73,141.852"
         style="fill:#e0f2c3;fill-opacity:1;fill-rule:nonzero;stroke:none"
         id="path38" /><path
         d="m 2631.68,954.227 h 830.1 c 78.27,0 141.73,-63.504 141.73,-141.852 V 150.438 c 0,-78.3442 -63.46,-141.85206 -141.73,-141.85206 h -830.1 c -78.28,0 -141.73,63.50786 -141.73,141.85206 v 661.937 c 0,78.348 63.45,141.852 141.73,141.852 z"
         style="fill:none;stroke:#298a3c;stroke-width:4.9691;stroke-linecap:butt;stroke-linejoin:miter;stroke-miterlimit:4;stroke-dasharray:none;stroke-opacity:1"
         id="path40" /><g
         id="g42"
         transform="scale(10)"><text
           transform="matrix(0.999153,0,0,-1,288.247,99.575)"
           style="font-variant:normal;font-weight:normal;font-size:6.99976px;font-family:Arial;-inkscape-font-specification:ArialMT;writing-mode:lr-tb;fill:#100f0d;fill-opacity:1;fill-rule:nonzero;stroke:none"
           id="text46"><tspan
             x="0 5.0538268 8.945693 12.83756 16.729427 18.67536 20.229307 24.121174 26.067106"
             y="0"
             sodipodi:role="line"
             id="tspan44">Node id 1</tspan></text></g><path
         d="m 2574.29,886.664 h 303.73 c 27.95,0 50.6,-22.672 50.6,-50.637 V 599.582 c 0,-27.961 -22.65,-50.641 -50.6,-50.641 h -303.73 c -27.95,0 -50.61,22.68 -50.61,50.641 v 236.445 c 0,27.965 22.66,50.637 50.61,50.637"
         style="fill:#f7f7f7;fill-opacity:1;fill-rule:nonzero;stroke:none"
         id="path48" /><path
         d="m 2574.29,886.664 h 303.73 c 27.95,0 50.6,-22.672 50.6,-50.637 V 599.582 c 0,-27.961 -22.65,-50.641 -50.6,-50.641 h -303.73 c -27.95,0 -50.61,22.68 -50.61,50.641 v 236.445 c 0,27.965 22.66,50.637 50.61,50.637 z"
         style="fill:none;stroke:#5e6061;stroke-width:4.9691;stroke-linecap:butt;stroke-linejoin:miter;stroke-miterlimit:4;stroke-dasharray:none;stroke-opacity:1"
         id="path50" /><g
         id="g52"
         transform="scale(10)"><text
           transform="matrix(0.999153,0,0,-1,253.43,73.1313)"
           style="font-variant:normal;font-weight:normal;font-size:7.99981px;font-family:'Courier New';-inkscape-font-specification:Courier;writing-mode:lr-tb;fill:#100f0d;fill-opacity:1;fill-rule:nonzero;stroke:none"
           id="text56"><tspan
             x="0 4.7998862 9.5997725 14.399658 19.199545 23.99943 28.799316"
             y="0"
             sodipodi:role="line"
             id="tspan54">user_id</tspan></text><text
           transform="matrix(0.999153,0,0,-1,267.65504,64.73169)"
           style="font-variant:normal;font-weight:normal;font-size:6.99976px;font-family:Arial;-inkscape-font-specification:ArialMT;writing-mode:lr-tb;fill:#100f0d;fill-opacity:1;fill-rule:nonzero;stroke:none"
           id="text60"><tspan
             x="0 4.0878596 6.033793"
             y="0"
             sodipodi:role="line"
             id="tspan58">= 1</tspan></text></g><path
         d="M 2152.5,2405.55 V 2159.13"
         style="fill:none;stroke:#100f0d;stroke-width:4.9691;stroke-linecap:butt;stroke-linejoin:miter;stroke-miterlimit:10;stroke-dasharray:none;stroke-opacity:1"
         id="path62" /><path
         d="m 2138.07,2168.96 14.43,-53.85 14.43,53.85 z"
         style="fill:#100f0d;fill-opacity:1;fill-rule:nonzero;stroke:none"
         id="path64" /><path
         d="m 1787.57,2770.31 h 619.56 c 30.18,0 54.66,-24.5 54.66,-54.7 v -255.34 c 0,-30.23 -24.48,-54.72 -54.66,-54.72 h -619.56 c -30.19,0 -54.66,24.49 -54.66,54.72 v 255.34 c 0,30.2 24.47,54.7 54.66,54.7"
         style="fill:#f4f6f7;fill-opacity:1;fill-rule:nonzero;stroke:none"
         id="path66" /><path
         d="m 1787.57,2770.31 h 619.56 c 30.18,0 54.66,-24.5 54.66,-54.7 v -255.34 c 0,-30.23 -24.48,-54.72 -54.66,-54.72 h -619.56 c -30.19,0 -54.66,24.49 -54.66,54.72 v 255.34 c 0,30.2 24.47,54.7 54.66,54.7 z"
         style="fill:none;stroke:#5e6061;stroke-width:4.9691;stroke-linecap:butt;stroke-linejoin:miter;stroke-miterlimit:10;stroke-dasharray:none;stroke-opacity:1"
         id="path68" /><g
         id="g70"
         transform="scale(10)"><text
           transform="matrix(0.999153,0,0,-1,187.018,260.71)"
           style="font-variant:normal;font-weight:normal;font-size:7.99981px;font-family:'Courier New';-inkscape-font-specification:Courier;writing-mode:lr-tb;fill:#100f0d;fill-opacity:1;fill-rule:nonzero;stroke:none"
           id="text74"><tspan
             x="0 4.7998862 9.5997725 14.399658 19.199545 23.99943 28.799316"
             y="0"
             sodipodi:role="line"
             id="tspan72">user_id</tspan></text><text
           transform="matrix(0.999153,0,0,-1,222.53129,260.71)"
           style="font-variant:normal;font-weight:normal;font-size:6.99976px;font-family:Arial;-inkscape-font-specification:ArialMT;writing-mode:lr-tb;fill:#100f0d;fill-opacity:1;fill-rule:nonzero;stroke:none"
           id="text82"><tspan
             x="0 4.0878596 6.033793"
             y="0"
             sodipodi:role="line"
             id="tspan76">= 1</tspan><tspan
             x="-25.455099 -21.563234 -17.671368 -15.725433 -11.833567 -9.8876333 -7.9417005 -5.9957671 -4.0498338 -2.1039007"
             y="8.3992205"
             sodipodi:role="line"
             id="tspan78">data: ....</tspan><tspan
             x="25.246799 29.91564 33.807507 37.699371 41.59124 43.537174 45.483105 49.374973 51.320908"
             y="110.39222"
             sodipodi:role="line"
             id="tspan80">Send to 1</tspan></text></g><path
         d="m 1258.27,1176.34 v 287.81 h 571.46 v 245.67"
         style="fill:none;stroke:#100f0d;stroke-width:4.9691;stroke-linecap:butt;stroke-linejoin:miter;stroke-miterlimit:10;stroke-dasharray:none;stroke-opacity:1"
         id="path84" /><path
         d="m 1272.71,1186.2 -14.44,-53.87 -14.43,53.87 z"
         style="fill:#100f0d;fill-opacity:1;fill-rule:nonzero;stroke:none"
         id="path86" /><g
         id="g88"
         transform="scale(10)"><text
           transform="matrix(0.999153,0,0,-1,132.916,151.123)"
           style="font-variant:normal;font-weight:normal;font-size:6.99976px;font-family:Arial;-inkscape-font-specification:ArialMT;writing-mode:lr-tb;fill:#100f0d;fill-opacity:1;fill-rule:nonzero;stroke:none"
           id="text92"><tspan
             x="0 4.6688399 8.5607061 12.452573 16.34444 18.290373 20.236305 24.128172 26.074106"
             y="0"
             sodipodi:role="line"
             id="tspan90">Send to 0</tspan></text></g><path
         d="m 1777.18,2115.11 h 750.64 c 36.57,0 66.23,-27.22 66.23,-60.79 v -283.71 c 0,-33.57 -29.66,-60.79 -66.23,-60.79 h -750.64 c -36.58,0 -66.23,27.22 -66.23,60.79 v 283.71 c 0,33.57 29.65,60.79 66.23,60.79"
         style="fill:#fcfccf;fill-opacity:1;fill-rule:nonzero;stroke:none"
         id="path94" /><path
         d="m 1777.18,2115.11 h 750.64 c 36.57,0 66.23,-27.22 66.23,-60.79 v -283.71 c 0,-33.57 -29.66,-60.79 -66.23,-60.79 h -750.64 c -36.58,0 -66.23,27.22 -66.23,60.79 v 283.71 c 0,33.57 29.65,60.79 66.23,60.79 z"
         style="fill:none;stroke:#e36838;stroke-width:4.9691;stroke-linecap:butt;stroke-linejoin:miter;stroke-miterlimit:4;stroke-dasharray:none;stroke-opacity:1"
         id="path96" /><g
         id="g98"
         transform="scale(10)"><text
           transform="matrix(0.999153,0,0,-1,199.079,193.917)"
           style="font-variant:normal;font-weight:normal;font-size:6.99976px;font-family:Arial;-inkscape-font-specification:ArialMT;writing-mode:lr-tb;fill:#100f0d;fill-opacity:1;fill-rule:nonzero;stroke:none"
           id="text102"><tspan
             x="0 4.6688399 8.5607061 10.891626 12.83756 14.391506 16.33744 17.891386 21.783253 25.675119 29.566986 31.897907"
             y="0"
             sodipodi:role="line"
             id="tspan100">Partitioner:</tspan></text><text
           transform="matrix(0.999153,0,0,-1,177.81882,184.317)"
           style="font-variant:normal;font-weight:normal;font-size:7.99981px;font-family:'Courier New';-inkscape-font-specification:Courier;writing-mode:lr-tb;fill:#100f0d;fill-opacity:1;fill-rule:nonzero;stroke:none"
           id="text106"><tspan
             x="0 4.7998862 9.5997725 14.399658 19.199545 23.99943 28.799316 33.599201 38.39909 43.198975 47.998859 52.798744 57.598633"
             y="0"
             sodipodi:role="line"
             id="tspan104">hash(user_id)</tspan></text><text
           transform="matrix(0.999153,0,0,-1,242.10712,184.317)"
           style="font-variant:normal;font-weight:normal;font-size:6.99976px;font-family:Arial;-inkscape-font-specification:ArialMT;writing-mode:lr-tb;fill:#100f0d;fill-opacity:1;fill-rule:nonzero;stroke:none"
           id="text110"><tspan
             x="0 6.2227864 8.1687202"
             y="0"
             sodipodi:role="line"
             id="tspan108">% 2</tspan></text></g><path
         d="m 933.879,2770.31 h 619.541 c 30.19,0 54.66,-24.5 54.66,-54.7 v -255.34 c 0,-30.23 -24.47,-54.72 -54.66,-54.72 H 933.879 c -30.195,0 -54.664,24.49 -54.664,54.72 v 255.34 c 0,30.2 24.469,54.7 54.664,54.7"
         style="fill:#c9e4f3;fill-opacity:1;fill-rule:nonzero;stroke:none"
         id="path112" /><path
         d="m 933.879,2770.31 h 619.541 c 30.19,0 54.66,-24.5 54.66,-54.7 v -255.34 c 0,-30.23 -24.47,-54.72 -54.66,-54.72 H 933.879 c -30.195,0 -54.664,24.49 -54.664,54.72 v 255.34 c 0,30.2 24.469,54.7 54.664,54.7 z"
         style="fill:none;stroke:#293985;stroke-width:4.9691;stroke-linecap:butt;stroke-linejoin:miter;stroke-miterlimit:10;stroke-dasharray:none;stroke-opacity:1"
         id="path114" /><path
         d="M 63.9141,2770.31 H 683.457 c 30.191,0 54.664,-24.5 54.664,-54.7 v -255.34 c 0,-30.23 -24.473,-54.72 -54.664,-54.72 H 63.9141 c -30.1914,0 -54.66801,24.49 -54.66801,54.72 v 255.34 c 0,30.2 24.47661,54.7 54.66801,54.7"
         style="fill:#f4f6f7;fill-opacity:1;fill-rule:nonzero;stroke:none"
         id="path116" /><path
         d="M 63.9141,2770.31 H 683.457 c 30.191,0 54.664,-24.5 54.664,-54.7 v -255.34 c 0,-30.23 -24.473,-54.72 -54.664,-54.72 H 63.9141 c -30.1914,0 -54.66801,24.49 -54.66801,54.72 v 255.34 c 0,30.2 24.47661,54.7 54.66801,54.7 z"
         style="fill:none;stroke:#5e6061;stroke-width:4.9691;stroke-linecap:butt;stroke-linejoin:miter;stroke-miterlimit:10;stroke-dasharray:none;stroke-opacity:1"
         id="path118" /><path
         d="m 2574.29,481.383 h 303.73 c 27.95,0 50.6,-22.668 50.6,-50.641 V 194.305 c 0,-27.973 -22.65,-50.645 -50.6,-50.645 h -303.73 c -27.95,0 -50.61,22.672 -50.61,50.645 v 236.437 c 0,27.973 22.66,50.641 50.61,50.641"
         style="fill:#f7f7f7;fill-opacity:1;fill-rule:nonzero;stroke:none"
         id="path120" /><path
         d="m 2574.29,481.383 h 303.73 c 27.95,0 50.6,-22.668 50.6,-50.641 V 194.305 c 0,-27.973 -22.65,-50.645 -50.6,-50.645 h -303.73 c -27.95,0 -50.61,22.672 -50.61,50.645 v 236.437 c 0,27.973 22.66,50.641 50.61,50.641 z"
         style="fill:none;stroke:#5e6061;stroke-width:4.9691;stroke-linecap:butt;stroke-linejoin:miter;stroke-miterlimit:4;stroke-dasharray:none;stroke-opacity:1"
         id="path122" /><g
         id="g124"
         transform="scale(10)"><text
           transform="matrix(0.999153,0,0,-1,101.648,260.71)"
           style="font-variant:normal;font-weight:normal;font-size:7.99981px;font-family:'Courier New';-inkscape-font-specification:Courier;writing-mode:lr-tb;fill:#100f0d;fill-opacity:1;fill-rule:nonzero;stroke:none"
           id="text128"><tspan
             x="0 4.7998862 9.5997725 14.399658 19.199545 23.99943 28.799316"
             y="0"
             sodipodi:role="line"
             id="tspan126">user_id</tspan></text><text
           transform="matrix(0.999153,0,0,-1,137.16129,260.71)"
           style="font-variant:normal;font-weight:normal;font-size:6.99976px;font-family:Arial;-inkscape-font-specification:ArialMT;writing-mode:lr-tb;fill:#100f0d;fill-opacity:1;fill-rule:nonzero;stroke:none"
           id="text134"><tspan
             x="0 4.0878596 6.033793"
             y="0"
             sodipodi:role="line"
             id="tspan130">= 2</tspan><tspan
             x="-25.455099 -21.563234 -17.671368 -15.725433 -11.833567 -9.8876333 -7.9417005 -5.9957671 -4.0498338 -2.1039007"
             y="8.3992205"
             sodipodi:role="line"
             id="tspan132">data: ....</tspan></text><text
           transform="matrix(0.999153,0,0,-1,14.651648,260.71)"
           style="font-variant:normal;font-weight:normal;font-size:7.99981px;font-family:'Courier New';-inkscape-font-specification:Courier;writing-mode:lr-tb;fill:#100f0d;fill-opacity:1;fill-rule:nonzero;stroke:none"
           id="text138"><tspan
             x="0 4.7998862 9.5997725 14.399658 19.199545 23.99943 28.799316"
             y="0"
             sodipodi:role="line"
             id="tspan136">user_id</tspan></text><text
           transform="matrix(0.999153,0,0,-1,50.165742,260.71)"
           style="font-variant:normal;font-weight:normal;font-size:6.99976px;font-family:Arial;-inkscape-font-specification:ArialMT;writing-mode:lr-tb;fill:#100f0d;fill-opacity:1;fill-rule:nonzero;stroke:none"
           id="text144"><tspan
             x="0 4.0878596 6.033793"
             y="0"
             sodipodi:role="line"
             id="tspan140">= 1</tspan><tspan
             x="-25.455099 -21.563234 -17.671368 -15.725433 -11.833567 -9.8876333 -7.9417005 -5.9957671 -4.0498338 -2.1039007"
             y="8.3992205"
             sodipodi:role="line"
             id="tspan142">data: ....</tspan></text><text
           transform="matrix(0.999153,0,0,-1,253.43333,32.60278)"
           style="font-variant:normal;font-weight:normal;font-size:7.99981px;font-family:'Courier New';-inkscape-font-specification:Courier;writing-mode:lr-tb;fill:#100f0d;fill-opacity:1;fill-rule:nonzero;stroke:none"
           id="text148"><tspan
             x="0 4.7998862 9.5997725 14.399658 19.199545 23.99943 28.799316"
             y="0"
             sodipodi:role="line"
             id="tspan146">user_id</tspan></text><text
           transform="matrix(0.999153,0,0,-1,267.65757,24.20122)"
           style="font-variant:normal;font-weight:normal;font-size:6.99976px;font-family:Arial;-inkscape-font-specification:ArialMT;writing-mode:lr-tb;fill:#100f0d;fill-opacity:1;fill-rule:nonzero;stroke:none"
           id="text152"><tspan
             x="0 4.0878596 6.033793"
             y="0"
             sodipodi:role="line"
             id="tspan150">= 1</tspan></text></g><path
         d="m 3018.97,1174.54 v 287.8 h -665.84 v 245.68"
         style="fill:none;stroke:#100f0d;stroke-width:4.9691;stroke-linecap:butt;stroke-linejoin:miter;stroke-miterlimit:10;stroke-dasharray:none;stroke-opacity:1"
         id="path154" /><path
         d="m 3033.41,1184.39 -14.44,-53.87 -14.43,53.87 z"
         style="fill:#100f0d;fill-opacity:1;fill-rule:nonzero;stroke:none"
         id="path156" /></g></g></svg>
