<?xml version="1.0" encoding="UTF-8" standalone="no"?>
<svg
   xmlns:dc="http://purl.org/dc/elements/1.1/"
   xmlns:cc="http://creativecommons.org/ns#"
   xmlns:rdf="http://www.w3.org/1999/02/22-rdf-syntax-ns#"
   xmlns:svg="http://www.w3.org/2000/svg"
   xmlns="http://www.w3.org/2000/svg"
   xmlns:sodipodi="http://sodipodi.sourceforge.net/DTD/sodipodi-0.dtd"
   xmlns:inkscape="http://www.inkscape.org/namespaces/inkscape"
   version="1.1"
   id="svg2"
   xml:space="preserve"
   width="529.33331"
   height="265.33334"
   viewBox="0 0 529.33331 265.33334"
   sodipodi:docname="8-8.eps"><metadata
     id="metadata8"><rdf:RDF><cc:Work
         rdf:about=""><dc:format>image/svg+xml</dc:format><dc:type
           rdf:resource="http://purl.org/dc/dcmitype/StillImage" /></cc:Work></rdf:RDF></metadata><defs
     id="defs6" /><sodipodi:namedview
     pagecolor="#ffffff"
     bordercolor="#666666"
     borderopacity="1"
     objecttolerance="10"
     gridtolerance="10"
     guidetolerance="10"
     inkscape:pageopacity="0"
     inkscape:pageshadow="2"
     inkscape:window-width="640"
     inkscape:window-height="480"
     id="namedview4" /><g
     id="g10"
     inkscape:groupmode="layer"
     inkscape:label="ink_ext_XXXXXX"
     transform="matrix(1.3333333,0,0,-1.3333333,0,265.33333)"><g
       id="g12"
       transform="scale(0.1)"><g
         id="g14"
         transform="scale(10)"><text
           transform="matrix(0.999965,0,0,-1,145.481,64.7379)"
           style="font-variant:normal;font-weight:normal;font-size:6.99976px;font-family:Arial;-inkscape-font-specification:ArialMT;writing-mode:lr-tb;fill:#100f0d;fill-opacity:1;fill-rule:nonzero;stroke:none"
           id="text18"><tspan
             x="0 5.0538268 8.945693 12.83756 16.729427 18.67536 20.229307 24.121174 26.067106"
             y="0"
             sodipodi:role="line"
             id="tspan16">Node id 0</tspan></text></g><path
         d="m 1346.55,613.055 h 527.71 c 49.76,0 90.1,-40.356 90.1,-90.117 V 102.461 c 0,-49.7618 -40.34,-90.1016 -90.1,-90.1016 h -527.71 c -49.76,0 -90.09,40.3398 -90.09,90.1016 v 420.477 c 0,49.761 40.33,90.117 90.09,90.117"
         style="fill:#def1c3;fill-opacity:1;fill-rule:nonzero;stroke:none"
         id="path20" /><path
         d="m 1346.55,613.055 h 527.71 c 49.76,0 90.1,-40.356 90.1,-90.117 V 102.461 c 0,-49.7618 -40.34,-90.1016 -90.1,-90.1016 h -527.71 c -49.76,0 -90.09,40.3398 -90.09,90.1016 v 420.477 c 0,49.761 40.33,90.117 90.09,90.117 z"
         style="fill:none;stroke:#278c3d;stroke-width:4.9691;stroke-linecap:butt;stroke-linejoin:miter;stroke-miterlimit:4;stroke-dasharray:none;stroke-opacity:1"
         id="path22" /><path
         d="m 1360.25,568.719 h 287.23 c 26.44,0 47.88,-15.84 47.88,-35.391 v -165.16 c 0,-19.551 -21.44,-35.391 -47.88,-35.391 h -287.23 c -26.44,0 -47.87,15.84 -47.87,35.391 v 165.16 c 0,19.551 21.43,35.391 47.87,35.391"
         style="fill:#c9e4f3;fill-opacity:1;fill-rule:nonzero;stroke:none"
         id="path24" /><path
         d="m 1360.25,568.719 h 287.23 c 26.44,0 47.88,-15.84 47.88,-35.391 v -165.16 c 0,-19.551 -21.44,-35.391 -47.88,-35.391 h -287.23 c -26.44,0 -47.87,15.84 -47.87,35.391 v 165.16 c 0,19.551 21.43,35.391 47.87,35.391 z"
         style="fill:none;stroke:#2a3786;stroke-width:4.9691;stroke-linecap:butt;stroke-linejoin:miter;stroke-miterlimit:10;stroke-dasharray:none;stroke-opacity:1"
         id="path26" /><g
         id="g28"
         transform="scale(10)"><text
           transform="matrix(0.999965,0,0,-1,133.151,47.2629)"
           style="font-variant:normal;font-weight:normal;font-size:7.99981px;font-family:'Courier New';-inkscape-font-specification:Courier;writing-mode:lr-tb;fill:#100f0d;fill-opacity:1;fill-rule:nonzero;stroke:none"
           id="text32"><tspan
             x="0 4.7998862 9.5997725 14.399658 19.199545 23.99943 28.799316"
             y="0"
             sodipodi:role="line"
             id="tspan30">user_id</tspan></text><text
           transform="matrix(0.999965,0,0,-1,144.98699,38.8629)"
           style="font-variant:normal;font-weight:normal;font-size:6.99976px;font-family:Arial;-inkscape-font-specification:ArialMT;writing-mode:lr-tb;fill:#100f0d;fill-opacity:1;fill-rule:nonzero;stroke:none"
           id="text36"><tspan
             x="0 4.0878596 6.033793"
             y="0"
             sodipodi:role="line"
             id="tspan34">= 2</tspan></text></g><path
         d="M 2067.88,1557.49 V 1421.32"
         style="fill:none;stroke:#100f0d;stroke-width:4.9691;stroke-linecap:butt;stroke-linejoin:miter;stroke-miterlimit:10;stroke-dasharray:none;stroke-opacity:1"
         id="path38" /><path
         d="m 2053.44,1431.17 14.44,-53.86 14.43,53.86 z"
         style="fill:#100f0d;fill-opacity:1;fill-rule:nonzero;stroke:none"
         id="path40" /><path
         d="m 1846.94,1811.34 h 437.6 c 21.33,0 38.61,-17.29 38.61,-38.62 v -180.18 c 0,-21.33 -17.28,-38.62 -38.61,-38.62 h -437.6 c -21.33,0 -38.62,17.29 -38.62,38.62 v 180.18 c 0,21.33 17.29,38.62 38.62,38.62"
         style="fill:#f4f6f7;fill-opacity:1;fill-rule:nonzero;stroke:none"
         id="path42" /><path
         d="m 1846.94,1811.34 h 437.6 c 21.33,0 38.61,-17.29 38.61,-38.62 v -180.18 c 0,-21.33 -17.28,-38.62 -38.61,-38.62 h -437.6 c -21.33,0 -38.62,17.29 -38.62,38.62 v 180.18 c 0,21.33 17.29,38.62 38.62,38.62 z"
         style="fill:none;stroke:#5e6061;stroke-width:4.9691;stroke-linecap:butt;stroke-linejoin:miter;stroke-miterlimit:10;stroke-dasharray:none;stroke-opacity:1"
         id="path44" /><path
         d="M 2269.2,1016.79 V 834.344 h 429.02 v -77.715"
         style="fill:none;stroke:#100f0d;stroke-width:4.9691;stroke-linecap:butt;stroke-linejoin:miter;stroke-miterlimit:10;stroke-dasharray:none;stroke-opacity:1"
         id="path46" /><path
         d="m 2683.79,766.469 14.43,-53.852 14.44,53.852 z"
         style="fill:#100f0d;fill-opacity:1;fill-rule:nonzero;stroke:none"
         id="path48" /><g
         id="g50"
         transform="scale(10)"><text
           transform="matrix(0.999965,0,0,-1,232.809,87.0051)"
           style="font-variant:normal;font-weight:normal;font-size:6.99976px;font-family:Arial;-inkscape-font-specification:ArialMT;writing-mode:lr-tb;fill:#100f0d;fill-opacity:1;fill-rule:nonzero;stroke:none"
           id="text54"><tspan
             x="0 4.6688399 8.5607061 12.452573 16.34444 18.290373 20.236305 24.128172 26.074106"
             y="0"
             sodipodi:role="line"
             id="tspan52">Send to 1</tspan></text></g><path
         d="M 2011.79,1026.17 V 835.141 H 1572.02 V 752.34"
         style="fill:none;stroke:#100f0d;stroke-width:4.9691;stroke-linecap:butt;stroke-linejoin:miter;stroke-miterlimit:10;stroke-dasharray:none;stroke-opacity:1"
         id="path56" /><path
         d="m 1557.59,762.188 14.43,-53.86 14.44,53.86 z"
         style="fill:#100f0d;fill-opacity:1;fill-rule:nonzero;stroke:none"
         id="path58" /><g
         id="g60"
         transform="scale(10)"><text
           transform="matrix(0.999965,0,0,-1,163.63,87.0051)"
           style="font-variant:normal;font-weight:normal;font-size:6.99976px;font-family:Arial;-inkscape-font-specification:ArialMT;writing-mode:lr-tb;fill:#100f0d;fill-opacity:1;fill-rule:nonzero;stroke:none"
           id="text64"><tspan
             x="0 4.6688399 8.5607061 12.452573 16.34444 18.290373 20.236305 24.128172 26.074106"
             y="0"
             sodipodi:role="line"
             id="tspan62">Send to 0</tspan></text></g><path
         d="m 2998.54,924.988 v -89.847 h 611.38 v -77.032"
         style="fill:none;stroke:#100f0d;stroke-width:4.9691;stroke-linecap:butt;stroke-linejoin:miter;stroke-miterlimit:10;stroke-dasharray:none;stroke-opacity:1"
         id="path66" /><path
         d="m 3595.49,767.961 14.43,-53.863 14.44,53.863 z"
         style="fill:#100f0d;fill-opacity:1;fill-rule:nonzero;stroke:none"
         id="path68" /><path
         d="m 2397.91,1154.89 h 600.63 v -150.92"
         style="fill:none;stroke:#100f0d;stroke-width:4.9691;stroke-linecap:butt;stroke-linejoin:miter;stroke-miterlimit:10;stroke-dasharray:none;stroke-opacity:1"
         id="path70" /><g
         id="g72"
         transform="scale(10)"><text
           transform="matrix(0.999965,0,0,-1,284.313,93.5617)"
           style="font-variant:normal;font-weight:normal;font-size:6.99976px;font-family:Arial;-inkscape-font-specification:ArialMT;writing-mode:lr-tb;fill:#100f0d;fill-opacity:1;fill-rule:nonzero;stroke:none"
           id="text76"><tspan
             x="0 4.6688399 8.5607061 12.452573 16.34444 18.290373 20.236305 24.128172 26.074106"
             y="0"
             sodipodi:role="line"
             id="tspan74">Send to 2</tspan></text></g><path
         d="m 1659.59,1377.18 h 813.9 c 37.73,0 68.33,-25.58 68.33,-57.14 v -266.57 c 0,-31.56 -30.6,-57.142 -68.33,-57.142 h -813.9 c -37.74,0 -68.33,25.582 -68.33,57.142 v 266.57 c 0,31.56 30.59,57.14 68.33,57.14"
         style="fill:#fcfccc;fill-opacity:1;fill-rule:nonzero;stroke:none"
         id="path78" /><path
         d="m 1659.59,1377.18 h 813.9 c 37.73,0 68.33,-25.58 68.33,-57.14 v -266.57 c 0,-31.56 -30.6,-57.142 -68.33,-57.142 h -813.9 c -37.74,0 -68.33,25.582 -68.33,57.142 v 266.57 c 0,31.56 30.59,57.14 68.33,57.14 z"
         style="fill:none;stroke:#c49f19;stroke-width:4.9691;stroke-linecap:butt;stroke-linejoin:miter;stroke-miterlimit:4;stroke-dasharray:none;stroke-opacity:1"
         id="path80" /><g
         id="g82"
         transform="scale(10)"><text
           transform="matrix(0.999965,0,0,-1,189.864,130.677)"
           style="font-variant:normal;font-weight:normal;font-size:6.99976px;font-family:Arial;-inkscape-font-specification:ArialMT;writing-mode:lr-tb;fill:#100f0d;fill-opacity:1;fill-rule:nonzero;stroke:none"
           id="text88"><tspan
             x="0 4.6688399 8.5607061 10.891626 12.83756 14.391506 16.33744 17.891386 21.783253 25.675119 29.566986 31.897907"
             y="0"
             sodipodi:role="line"
             id="tspan84">Partitioner:</tspan><tspan
             x="-26.3349 -22.058046"
             y="9.6003904"
             sodipodi:role="line"
             id="tspan86">T0</tspan></text><text
           transform="matrix(0.999965,0,0,-1,173.64327,121.07583)"
           style="font-variant:normal;font-weight:normal;font-size:7.99981px;font-family:'Courier New';-inkscape-font-specification:Courier;writing-mode:lr-tb;fill:#100f0d;fill-opacity:1;fill-rule:nonzero;stroke:none"
           id="text92"><tspan
             x="0 4.7998862 9.5997725 14.399658 19.199545 23.99943 28.799316 33.599201 38.39909 43.198975 47.998859 52.798744 57.598633"
             y="0"
             sodipodi:role="line"
             id="tspan90">hash(user_id)</tspan></text><text
           transform="matrix(0.999965,0,0,-1,237.98352,121.07583)"
           style="font-variant:normal;font-weight:normal;font-size:6.99976px;font-family:Arial;-inkscape-font-specification:ArialMT;writing-mode:lr-tb;fill:#100f0d;fill-opacity:1;fill-rule:nonzero;stroke:none"
           id="text96"><tspan
             x="0 6.2227864 8.1687202"
             y="0"
             sodipodi:role="line"
             id="tspan94">% 2</tspan></text><text
           transform="matrix(0.999965,0,0,-1,190.25889,112.67661)"
           style="font-variant:normal;font-weight:bold;font-size:6.99976px;font-family:Arial;-inkscape-font-specification:Arial-BoldMT-Bold;writing-mode:lr-tb;fill:#100f0d;fill-opacity:1;fill-rule:nonzero;stroke:none"
           id="text100"><tspan
             x="0 3.8918664 8.1687202 12.060587 16.33744 20.614294 24.506159 26.452093 28.783012"
             y="0"
             sodipodi:role="line"
             id="tspan98">change to</tspan></text><text
           transform="matrix(0.999965,0,0,-1,163.53032,103.07583)"
           style="font-variant:normal;font-weight:normal;font-size:6.99976px;font-family:Arial;-inkscape-font-specification:ArialMT;writing-mode:lr-tb;fill:#100f0d;fill-opacity:1;fill-rule:nonzero;stroke:none"
           id="text104"><tspan
             x="0 4.2768536 74.456169 80.678955 82.624886"
             y="0"
             sodipodi:role="line"
             id="tspan102">T1% 3</tspan></text><text
           transform="matrix(0.999965,0,0,-1,173.64317,103.07583)"
           style="font-variant:normal;font-weight:normal;font-size:7.99981px;font-family:'Courier New';-inkscape-font-specification:Courier;writing-mode:lr-tb;fill:#100f0d;fill-opacity:1;fill-rule:nonzero;stroke:none"
           id="text108"><tspan
             x="0 4.7998862 9.5997725 14.399658 19.199545 23.99943 28.799316 33.599201 38.39909 43.198975 47.998859 52.798744 57.598633"
             y="0"
             sodipodi:role="line"
             id="tspan106">hash(user_id)</tspan></text></g><path
         d="m 1231.6,1811.34 h 437.6 c 21.33,0 38.62,-17.29 38.62,-38.62 v -180.18 c 0,-21.33 -17.29,-38.62 -38.62,-38.62 h -437.6 c -21.33,0 -38.62,17.29 -38.62,38.62 v 180.18 c 0,21.33 17.29,38.62 38.62,38.62"
         style="fill:#c9e4f3;fill-opacity:1;fill-rule:nonzero;stroke:none"
         id="path110" /><path
         d="m 1231.6,1811.34 h 437.6 c 21.33,0 38.62,-17.29 38.62,-38.62 v -180.18 c 0,-21.33 -17.29,-38.62 -38.62,-38.62 h -437.6 c -21.33,0 -38.62,17.29 -38.62,38.62 v 180.18 c 0,21.33 17.29,38.62 38.62,38.62 z"
         style="fill:none;stroke:#2a3786;stroke-width:4.9691;stroke-linecap:butt;stroke-linejoin:miter;stroke-miterlimit:10;stroke-dasharray:none;stroke-opacity:1"
         id="path112" /><path
         d="m 641.934,1811.34 h 437.596 c 21.33,0 38.62,-17.29 38.62,-38.62 v -180.18 c 0,-21.33 -17.29,-38.62 -38.62,-38.62 H 641.934 c -21.329,0 -38.618,17.29 -38.618,38.62 v 180.18 c 0,21.33 17.289,38.62 38.618,38.62"
         style="fill:#f4f6f7;fill-opacity:1;fill-rule:nonzero;stroke:none"
         id="path114" /><path
         d="m 641.934,1811.34 h 437.596 c 21.33,0 38.62,-17.29 38.62,-38.62 v -180.18 c 0,-21.33 -17.29,-38.62 -38.62,-38.62 H 641.934 c -21.329,0 -38.618,17.29 -38.618,38.62 v 180.18 c 0,21.33 17.289,38.62 38.618,38.62 z"
         style="fill:none;stroke:#5e6061;stroke-width:4.9691;stroke-linecap:butt;stroke-linejoin:miter;stroke-miterlimit:10;stroke-dasharray:none;stroke-opacity:1"
         id="path116" /><g
         id="g118"
         transform="scale(10)"><text
           transform="matrix(0.999965,0,0,-1,253.775,64.7379)"
           style="font-variant:normal;font-weight:normal;font-size:6.99976px;font-family:Arial;-inkscape-font-specification:ArialMT;writing-mode:lr-tb;fill:#100f0d;fill-opacity:1;fill-rule:nonzero;stroke:none"
           id="text122"><tspan
             x="0 5.0538268 8.945693 12.83756 16.729427 18.67536 20.229307 24.121174 26.067106"
             y="0"
             sodipodi:role="line"
             id="tspan120">Node id 1</tspan></text></g><path
         d="m 2434.37,613.055 h 527.71 c 49.76,0 90.1,-40.356 90.1,-90.117 V 102.461 c 0,-49.7618 -40.34,-90.1016 -90.1,-90.1016 h -527.71 c -49.76,0 -90.08,40.3398 -90.08,90.1016 v 420.477 c 0,49.761 40.32,90.117 90.08,90.117"
         style="fill:#def1c3;fill-opacity:1;fill-rule:nonzero;stroke:none"
         id="path124" /><path
         d="m 2434.37,613.055 h 527.71 c 49.76,0 90.1,-40.356 90.1,-90.117 V 102.461 c 0,-49.7618 -40.34,-90.1016 -90.1,-90.1016 h -527.71 c -49.76,0 -90.08,40.3398 -90.08,90.1016 v 420.477 c 0,49.761 40.32,90.117 90.08,90.117 z"
         style="fill:none;stroke:#278c3d;stroke-width:4.9691;stroke-linecap:butt;stroke-linejoin:miter;stroke-miterlimit:4;stroke-dasharray:none;stroke-opacity:1"
         id="path126" /><path
         d="m 2447.55,558.008 h 286.49 c 26.38,0 47.76,-14.41 47.76,-32.18 v -150.16 c 0,-17.766 -21.38,-32.18 -47.76,-32.18 h -286.49 c -26.37,0 -47.75,14.414 -47.75,32.18 v 150.16 c 0,17.77 21.38,32.18 47.75,32.18"
         style="fill:#f4f6f7;fill-opacity:1;fill-rule:nonzero;stroke:none"
         id="path128" /><path
         d="m 2447.55,558.008 h 286.49 c 26.38,0 47.76,-14.41 47.76,-32.18 v -150.16 c 0,-17.766 -21.38,-32.18 -47.76,-32.18 h -286.49 c -26.37,0 -47.75,14.414 -47.75,32.18 v 150.16 c 0,17.77 21.38,32.18 47.75,32.18 z"
         style="fill:none;stroke:#5e6061;stroke-width:4.9691;stroke-linecap:butt;stroke-linejoin:miter;stroke-miterlimit:10;stroke-dasharray:none;stroke-opacity:1"
         id="path130" /><g
         id="g132"
         transform="scale(10)"><text
           transform="matrix(0.999965,0,0,-1,241.352,47.2629)"
           style="font-variant:normal;font-weight:normal;font-size:7.99981px;font-family:'Courier New';-inkscape-font-specification:Courier;writing-mode:lr-tb;fill:#2f2d2e;fill-opacity:1;fill-rule:nonzero;stroke:none"
           id="text136"><tspan
             x="0 4.7998862 9.5997725 14.399658 19.199545 23.99943 28.799316"
             y="0"
             sodipodi:role="line"
             id="tspan134">user_id</tspan></text><text
           transform="matrix(0.999965,0,0,-1,254.16025,38.8629)"
           style="font-variant:normal;font-weight:normal;font-size:6.99976px;font-family:Arial;-inkscape-font-specification:ArialMT;writing-mode:lr-tb;fill:#2f2d2e;fill-opacity:1;fill-rule:nonzero;stroke:none"
           id="text140"><tspan
             x="0 4.0878596 6.033793"
             y="0"
             sodipodi:role="line"
             id="tspan138">= 1</tspan></text></g><path
         d="m 2447.55,312.707 h 286.49 c 26.38,0 47.76,-14.394 47.76,-32.168 V 130.367 c 0,-17.769 -21.38,-32.1795 -47.76,-32.1795 h -286.49 c -26.37,0 -47.75,14.4105 -47.75,32.1795 v 150.172 c 0,17.774 21.38,32.168 47.75,32.168"
         style="fill:#f4f6f7;fill-opacity:1;fill-rule:nonzero;stroke:none"
         id="path142" /><path
         d="m 2447.55,312.707 h 286.49 c 26.38,0 47.76,-14.394 47.76,-32.168 V 130.367 c 0,-17.769 -21.38,-32.1795 -47.76,-32.1795 h -286.49 c -26.37,0 -47.75,14.4105 -47.75,32.1795 v 150.172 c 0,17.774 21.38,32.168 47.75,32.168 z"
         style="fill:none;stroke:#5e6061;stroke-width:4.9691;stroke-linecap:butt;stroke-linejoin:miter;stroke-miterlimit:10;stroke-dasharray:none;stroke-opacity:1"
         id="path144" /><path
         d="M 47.4961,1811.34 H 485.098 c 21.328,0 38.617,-17.29 38.617,-38.62 v -180.18 c 0,-21.33 -17.289,-38.62 -38.617,-38.62 H 47.4961 c -21.3281,0 -38.62501,17.29 -38.62501,38.62 v 180.18 c 0,21.33 17.29691,38.62 38.62501,38.62"
         style="fill:#c9e4f3;fill-opacity:1;fill-rule:nonzero;stroke:none"
         id="path146" /><path
         d="M 47.4961,1811.34 H 485.098 c 21.328,0 38.617,-17.29 38.617,-38.62 v -180.18 c 0,-21.33 -17.289,-38.62 -38.617,-38.62 H 47.4961 c -21.3281,0 -38.62501,17.29 -38.62501,38.62 v 180.18 c 0,21.33 17.29691,38.62 38.62501,38.62 z"
         style="fill:none;stroke:#2a3786;stroke-width:4.9691;stroke-linecap:butt;stroke-linejoin:miter;stroke-miterlimit:10;stroke-dasharray:none;stroke-opacity:1"
         id="path148" /><g
         id="g150"
         transform="scale(10)"><text
           transform="matrix(0.999965,0,0,-1,3.89531,170.686)"
           style="font-variant:normal;font-weight:normal;font-size:7.99981px;font-family:'Courier New';-inkscape-font-specification:Courier;writing-mode:lr-tb;fill:#100f0d;fill-opacity:1;fill-rule:nonzero;stroke:none"
           id="text154"><tspan
             x="0 4.7998862 9.5997725 14.399658 19.199545 23.99943 28.799316"
             y="0"
             sodipodi:role="line"
             id="tspan152">user_id</tspan></text><text
           transform="matrix(0.999965,0,0,-1,39.437866,170.686)"
           style="font-variant:normal;font-weight:normal;font-size:6.99976px;font-family:Arial;-inkscape-font-specification:ArialMT;writing-mode:lr-tb;fill:#100f0d;fill-opacity:1;fill-rule:nonzero;stroke:none"
           id="text160"><tspan
             x="0 4.0878596 6.033793"
             y="0"
             sodipodi:role="line"
             id="tspan156">= 2</tspan><tspan
             x="-25.455601 -21.563734 -17.671867 -15.725934 -11.834067 -9.888134 -7.9422007 -5.9962673 -4.050334 -2.1044006"
             y="8.3996096"
             sodipodi:role="line"
             id="tspan158">data: ....</tspan></text><text
           transform="matrix(0.999965,0,0,-1,63.339429,170.686)"
           style="font-variant:normal;font-weight:normal;font-size:7.99981px;font-family:'Courier New';-inkscape-font-specification:Courier;writing-mode:lr-tb;fill:#100f0d;fill-opacity:1;fill-rule:nonzero;stroke:none"
           id="text164"><tspan
             x="0 4.7998862 9.5997725 14.399658 19.199545 23.99943 28.799316"
             y="0"
             sodipodi:role="line"
             id="tspan162">user_id</tspan></text><text
           transform="matrix(0.999965,0,0,-1,98.881985,170.686)"
           style="font-variant:normal;font-weight:normal;font-size:6.99976px;font-family:Arial;-inkscape-font-specification:ArialMT;writing-mode:lr-tb;fill:#100f0d;fill-opacity:1;fill-rule:nonzero;stroke:none"
           id="text170"><tspan
             x="0 4.0878596 6.033793"
             y="0"
             sodipodi:role="line"
             id="tspan166">= 1</tspan><tspan
             x="-25.455601 -21.563734 -17.671867 -15.725934 -11.834067 -9.888134 -7.9422007 -5.9962673 -4.050334 -2.1044006"
             y="8.3996096"
             sodipodi:role="line"
             id="tspan168">data: ....</tspan></text><text
           transform="matrix(0.999965,0,0,-1,183.84141,170.686)"
           style="font-variant:normal;font-weight:normal;font-size:7.99981px;font-family:'Courier New';-inkscape-font-specification:Courier;writing-mode:lr-tb;fill:#100f0d;fill-opacity:1;fill-rule:nonzero;stroke:none"
           id="text174"><tspan
             x="0 4.7998862 9.5997725 14.399658 19.199545 23.99943 28.799316"
             y="0"
             sodipodi:role="line"
             id="tspan172">user_id</tspan></text><text
           transform="matrix(0.999965,0,0,-1,219.38357,170.686)"
           style="font-variant:normal;font-weight:normal;font-size:6.99976px;font-family:Arial;-inkscape-font-specification:ArialMT;writing-mode:lr-tb;fill:#100f0d;fill-opacity:1;fill-rule:nonzero;stroke:none"
           id="text180"><tspan
             x="0 4.0878596 6.033793"
             y="0"
             sodipodi:role="line"
             id="tspan176">= 1</tspan><tspan
             x="-25.4552 -21.563334 -17.671467 -15.725533 -11.833667 -9.8877335 -7.9418006 -5.9958673 -4.0499339 -2.1040006"
             y="8.3996096"
             sodipodi:role="line"
             id="tspan178">data: ....</tspan></text><text
           transform="matrix(0.999965,0,0,-1,122.30617,170.686)"
           style="font-variant:normal;font-weight:normal;font-size:7.99981px;font-family:'Courier New';-inkscape-font-specification:Courier;writing-mode:lr-tb;fill:#100f0d;fill-opacity:1;fill-rule:nonzero;stroke:none"
           id="text184"><tspan
             x="0 4.7998862 9.5997725 14.399658 19.199545 23.99943 28.799316"
             y="0"
             sodipodi:role="line"
             id="tspan182">user_id</tspan></text><text
           transform="matrix(0.999965,0,0,-1,157.84832,170.686)"
           style="font-variant:normal;font-weight:normal;font-size:6.99976px;font-family:Arial;-inkscape-font-specification:ArialMT;writing-mode:lr-tb;fill:#100f0d;fill-opacity:1;fill-rule:nonzero;stroke:none"
           id="text190"><tspan
             x="0 4.0878596 6.033793"
             y="0"
             sodipodi:role="line"
             id="tspan186">= 2</tspan><tspan
             x="-25.4548 -21.562933 -17.671066 -15.725134 -11.833267 -9.8873339 -7.9414005 -5.9954672 -4.0495338 -2.1036007"
             y="8.3996096"
             sodipodi:role="line"
             id="tspan188">data: ....</tspan></text></g><path
         d="m 562.605,1986.54 -2.882,-553.43"
         style="fill:none;stroke:#100f0d;stroke-width:4.9691;stroke-linecap:butt;stroke-linejoin:miter;stroke-miterlimit:10;stroke-dasharray:none;stroke-opacity:1"
         id="path192" /><path
         d="M 559.723,1365.21 V 1228.59"
         style="fill:none;stroke:#100f0d;stroke-width:4.9691;stroke-linecap:butt;stroke-linejoin:miter;stroke-miterlimit:10;stroke-dasharray:none;stroke-opacity:1"
         id="path194" /><g
         id="g196"
         transform="scale(10)"><text
           transform="matrix(0.999965,0,0,-1,8.31367,137.731)"
           style="font-variant:normal;font-weight:bold;font-size:6.99976px;font-family:Arial;-inkscape-font-specification:Arial-BoldMT-Bold;writing-mode:lr-tb;fill:#100f0d;fill-opacity:1;fill-rule:nonzero;stroke:none"
           id="text200"><tspan
             x="0 4.2768536 8.1687202 10.114654 14.006519 18.283373 22.560226 24.506159 28.783012 33.059868 35.005798 38.897667 40.843601 45.120453 49.012318 54.458134 56.404064 60.68092 64.957771 69.234627 73.126495 75.072426 77.403343 79.349281 83.626129 85.572067 89.463936"
             y="0"
             sodipodi:role="line"
             id="tspan198">T1 adding a new node (id 2)</tspan></text></g><path
         d="m 3346.06,613.055 h 527.72 c 49.76,0 90.1,-40.356 90.1,-90.117 V 102.461 c 0,-49.7618 -40.34,-90.1016 -90.1,-90.1016 h -527.72 c -49.75,0 -90.09,40.3398 -90.09,90.1016 v 420.477 c 0,49.761 40.34,90.117 90.09,90.117"
         style="fill:#def1c3;fill-opacity:1;fill-rule:nonzero;stroke:none"
         id="path202" /><path
         d="m 3346.06,613.055 h 527.72 c 49.76,0 90.1,-40.356 90.1,-90.117 V 102.461 c 0,-49.7618 -40.34,-90.1016 -90.1,-90.1016 h -527.72 c -49.75,0 -90.09,40.3398 -90.09,90.1016 v 420.477 c 0,49.761 40.34,90.117 90.09,90.117 z"
         style="fill:none;stroke:#278c3d;stroke-width:4.9691;stroke-linecap:butt;stroke-linejoin:miter;stroke-miterlimit:4;stroke-dasharray:none;stroke-opacity:1"
         id="path204" /><g
         id="g206"
         transform="scale(10)"><text
           transform="matrix(0.999965,0,0,-1,350.513,63.9801)"
           style="font-variant:normal;font-weight:normal;font-size:6.99976px;font-family:Arial;-inkscape-font-specification:ArialMT;writing-mode:lr-tb;fill:#100f0d;fill-opacity:1;fill-rule:nonzero;stroke:none"
           id="text210"><tspan
             x="0 5.0538268 8.945693 12.83756 16.729427 18.67536 20.229307 24.121174 26.067106"
             y="0"
             sodipodi:role="line"
             id="tspan208">Node id 2</tspan></text></g><path
         d="m 3352.95,568.719 h 287.24 c 26.43,0 47.86,-15.84 47.86,-35.391 v -165.16 c 0,-19.551 -21.43,-35.391 -47.86,-35.391 h -287.24 c -26.44,0 -47.86,15.84 -47.86,35.391 v 165.16 c 0,19.551 21.42,35.391 47.86,35.391"
         style="fill:#c9e4f3;fill-opacity:1;fill-rule:nonzero;stroke:none"
         id="path212" /><path
         d="m 3352.95,568.719 h 287.24 c 26.43,0 47.86,-15.84 47.86,-35.391 v -165.16 c 0,-19.551 -21.43,-35.391 -47.86,-35.391 h -287.24 c -26.44,0 -47.86,15.84 -47.86,35.391 v 165.16 c 0,19.551 21.42,35.391 47.86,35.391 z"
         style="fill:none;stroke:#2a3786;stroke-width:4.9691;stroke-linecap:butt;stroke-linejoin:miter;stroke-miterlimit:10;stroke-dasharray:none;stroke-opacity:1"
         id="path214" /><g
         id="g216"
         transform="scale(10)"><text
           transform="matrix(0.999965,0,0,-1,241.271,21.3141)"
           style="font-variant:normal;font-weight:normal;font-size:7.99981px;font-family:'Courier New';-inkscape-font-specification:Courier;writing-mode:lr-tb;fill:#2f2d2e;fill-opacity:1;fill-rule:nonzero;stroke:none"
           id="text220"><tspan
             x="0 4.7998862 9.5997725 14.399658 19.199545 23.99943 28.799316"
             y="0"
             sodipodi:role="line"
             id="tspan218">user_id</tspan></text><text
           transform="matrix(0.999965,0,0,-1,254.07925,12.9141)"
           style="font-variant:normal;font-weight:normal;font-size:6.99976px;font-family:Arial;-inkscape-font-specification:ArialMT;writing-mode:lr-tb;fill:#2f2d2e;fill-opacity:1;fill-rule:nonzero;stroke:none"
           id="text224"><tspan
             x="0 4.0878596 6.033793"
             y="0"
             sodipodi:role="line"
             id="tspan222">= 1</tspan></text></g><g
         id="g226"
         transform="scale(10)"><text
           transform="matrix(0.999965,0,0,-1,331.847,47.2629)"
           style="font-variant:normal;font-weight:normal;font-size:7.99981px;font-family:'Courier New';-inkscape-font-specification:Courier;writing-mode:lr-tb;fill:#100f0d;fill-opacity:1;fill-rule:nonzero;stroke:none"
           id="text230"><tspan
             x="0 4.7998862 9.5997725 14.399658 19.199545 23.99943 28.799316"
             y="0"
             sodipodi:role="line"
             id="tspan228">user_id</tspan></text><text
           transform="matrix(0.999965,0,0,-1,344.65485,38.8629)"
           style="font-variant:normal;font-weight:normal;font-size:6.99976px;font-family:Arial;-inkscape-font-specification:ArialMT;writing-mode:lr-tb;fill:#100f0d;fill-opacity:1;fill-rule:nonzero;stroke:none"
           id="text234"><tspan
             x="0 4.0878596 6.033793"
             y="0"
             sodipodi:role="line"
             id="tspan232">= 2</tspan></text></g></g></g></svg>
