<?xml version="1.0" encoding="UTF-8" standalone="no"?>
<!-- Created with Inkscape (http://www.inkscape.org/) -->

<svg
   version="1.1"
   id="svg2"
   xml:space="preserve"
   width="389.33334"
   height="510.66666"
   viewBox="0 0 389.33334 510.66666"
   sodipodi:docname="12-10.eps"
   xmlns:inkscape="http://www.inkscape.org/namespaces/inkscape"
   xmlns:sodipodi="http://sodipodi.sourceforge.net/DTD/sodipodi-0.dtd"
   xmlns="http://www.w3.org/2000/svg"
   xmlns:svg="http://www.w3.org/2000/svg"><defs
     id="defs6" /><sodipodi:namedview
     id="namedview4"
     pagecolor="#ffffff"
     bordercolor="#666666"
     borderopacity="1.0"
     inkscape:pageshadow="2"
     inkscape:pageopacity="0.0"
     inkscape:pagecheckerboard="0" /><g
     id="g8"
     inkscape:groupmode="layer"
     inkscape:label="ink_ext_XXXXXX"
     transform="matrix(1.3333333,0,0,-1.3333333,0,510.66667)"><g
       id="g10"
       transform="scale(0.1)"><g
         id="g12"
         transform="scale(10)"><text
           transform="matrix(1,0,0,-1,0.273438,358.896)"
           style="font-variant:normal;font-weight:bold;font-size:8.99986px;font-family:Humanist521BT;-inkscape-font-specification:Humanist521BT-BoldCondensed;writing-mode:lr-tb;fill:#211c1c;fill-opacity:1;fill-rule:nonzero;stroke:none"
           id="text18"><tspan
             x="0 2.5379605 7.0198908 9.1528578 12.149811 14.282778 18.332714 20.492682 22.796646 26.29759 29.897535 34.388466 38.348404 45.089298"
             y="0"
             sodipodi:role="line"
             id="tspan14">Initial schema</tspan><tspan
             x="181.502 186.73991 191.08685 193.39081 196.99075 201.33769 205.84662 209.80656 212.11052 215.71046 220.2014 224.25133 228.73326 232.8372 236.79713 240.29808 242.60205 246.37299 250.33293"
             y="36.046501"
             sodipodi:role="line"
             id="tspan16">No code changes yet</tspan></text></g><g
         id="g20"
         transform="scale(10)"><text
           transform="matrix(1,0,0,-1,111.009,188.011)"
           style="font-variant:normal;font-weight:normal;font-size:7.99981px;font-family:'Courier New';-inkscape-font-specification:Courier;writing-mode:lr-tb;fill:#100f0d;fill-opacity:1;fill-rule:nonzero;stroke:none"
           id="text34"><tspan
             x="0 4.7998862 9.5997725 14.399658 19.199545 23.99943 28.799316 33.599201 38.39909 43.198975 47.998859 52.798744 57.598633 62.398518 67.198402 71.998291 76.79818 81.598061 86.397949 91.19783 95.997719"
             y="0"
             sodipodi:role="line"
             id="tspan22">message Character { }</tspan><tspan
             x="0 4.7998862 9.5997725 14.399658 19.199545 23.99943 28.799316 33.599201 38.39909 43.198975 47.998859 52.798744 57.598633 62.398518 67.198402 71.998291 76.79818 81.598061 86.397949 91.19783 95.997719 100.79761 105.59749 110.39738 115.19727 119.99715 124.79704"
             y="9.6000004"
             sodipodi:role="line"
             id="tspan24">message IconCollection {..}</tspan><tspan
             x="0 4.7998862 9.5997725 14.399658 19.199545 23.99943 28.799316 33.599201 38.39909 43.198975 47.998859 52.798744 57.598633 62.398518 67.198402 71.998291 76.79818 81.598061 86.397949 91.19783 95.997719"
             y="66.197998"
             sodipodi:role="line"
             id="tspan26">message Character { }</tspan><tspan
             x="0 4.7998862 9.5997725 14.399658 19.199545 23.99943 28.799316 33.599201 38.39909 43.198975 47.998859 52.798744 57.598633 62.398518 67.198402 71.998291 76.79818 81.598061 86.397949 91.19783 95.997719 100.79761 105.59749 110.39738 115.19727 119.99715 124.79704"
             y="75.797997"
             sodipodi:role="line"
             id="tspan28">message IconCollection {..}</tspan><tspan
             x="0 4.7998862 9.5997725 14.399658 19.199545 23.99943 28.799316 33.599201 38.39909 43.198975 47.998859 52.798744 57.598633 62.398518 67.198402 71.998291 76.79818 81.598061 86.397949"
             y="131.19099"
             sodipodi:role="line"
             id="tspan30">message Character {</tspan><tspan
             x="9.5996103 14.399496 19.199383"
             y="140.791"
             sodipodi:role="line"
             id="tspan32">...</tspan></text><text
           transform="matrix(1,0,0,-1,120.60861,37.62)"
           style="font-variant:normal;font-weight:bold;font-size:7.99981px;font-family:'Courier New';-inkscape-font-specification:Courier-Bold;writing-mode:lr-tb;fill:#100f0d;fill-opacity:1;fill-rule:nonzero;stroke:none"
           id="text38"><tspan
             x="0 4.7998862 9.5997725 14.399658 19.199545 23.99943 28.799316 33.599201 38.39909 43.198975 47.998859"
             y="0"
             sodipodi:role="line"
             id="tspan36">reserved 2;</tspan></text><text
           transform="matrix(1,0,0,-1,120.60861,28.02117)"
           style="font-variant:normal;font-weight:normal;font-size:7.99981px;font-family:'Courier New';-inkscape-font-specification:Courier;writing-mode:lr-tb;fill:#100f0d;fill-opacity:1;fill-rule:nonzero;stroke:none"
           id="text60"><tspan
             x="0 4.7998862 9.5997725 14.399658 19.199545 23.99943 28.799316 33.599201 38.39909 43.198975 47.998859 52.798744 57.598633 62.398518 67.198402 71.998291 76.79818 81.598061 86.397949 91.19783 95.997719 100.79761 105.59749 110.39738 115.19727"
             y="0"
             sodipodi:role="line"
             id="tspan40">IconCollection icons = 7;</tspan><tspan
             x="-9.5996103"
             y="9.6000004"
             id="tspan42">}</tspan><tspan
             x="-9.5996103 -4.7997241 0.000162 4.8000479 9.5999336 14.39982 19.199705 23.999592 28.799479 33.599365 38.39925 43.199135 47.999023 52.798908 57.598793 62.398682 67.198563 71.998451 76.79834 81.598221 86.398109 91.197998 95.997879 100.79777 105.59766 110.39754 115.19743"
             y="19.20117"
             sodipodi:role="line"
             id="tspan44">message IconCollection {..}</tspan><tspan
             x="2.40239 7.2022762 12.002162 16.802048 21.601934 26.401819 31.201706 36.001591 40.801479 45.601364 50.401249 55.201138 60.001022 64.800911 69.600792 74.400681 79.200569 84.00045 88.800339"
             y="-346.47784"
             sodipodi:role="line"
             id="tspan46">message Character {</tspan><tspan
             x="7.2023902 12.002276 16.802162"
             y="-336.87744"
             sodipodi:role="line"
             id="tspan48">...</tspan><tspan
             x="7.2023902 12.002276 16.802162 21.602049 26.401934 31.20182 36.001705 40.801594 45.601479 50.401363 55.201248 60.001137 64.801025 69.600906 74.400795 79.200684 84.000565 88.800453 93.600342 98.400223"
             y="-327.27704"
             sodipodi:role="line"
             id="tspan50">bytes icon_png = 2 ;</tspan><tspan
             x="2.40239"
             y="-317.67743"
             id="tspan52">}</tspan><tspan
             x="-11.96641 -7.1665239 -2.3666379 2.433248 7.2331338 12.03302 16.832907 21.632792 26.432678 31.232565 36.032452 40.832336 45.632221 50.43211 55.231995 60.031879 64.831764 69.631653 74.431541"
             y="-271.36264"
             sodipodi:role="line"
             id="tspan54">message Character {</tspan><tspan
             x="-7.16641 -2.366524 2.433362"
             y="-261.76303"
             sodipodi:role="line"
             id="tspan56">...</tspan><tspan
             x="-7.16641 -2.366524 2.433362 7.2332482 12.033134 16.833019 21.632906 26.432793 31.232677 36.032562 40.832451 45.632336 50.43222 55.232109 60.031994 64.831879 69.631767 74.431648 79.231537 84.031425"
             y="-252.16264"
             sodipodi:role="line"
             id="tspan58">bytes icon_png = 2 ;</tspan></text><text
           transform="matrix(1,0,0,-1,113.4422,270.58498)"
           style="font-variant:normal;font-weight:bold;font-size:7.99981px;font-family:'Courier New';-inkscape-font-specification:Courier-Bold;writing-mode:lr-tb;fill:#100f0d;fill-opacity:1;fill-rule:nonzero;stroke:none"
           id="text64"><tspan
             x="0 4.7998862 9.5997725 14.399658 19.199545 23.99943 28.799316 33.599201 38.39909 43.198975 47.998859 52.798744 57.598633 62.398518 67.198402 71.998291 76.79818 81.598061 86.397949 91.19783 95.997719 100.79761 105.59749 110.39738 115.19727 119.99715"
             y="0"
             sodipodi:role="line"
             id="tspan62">IconCollection icons = 7 ;</tspan></text><text
           transform="matrix(1,0,0,-1,108.6422,260.98381)"
           style="font-variant:normal;font-weight:normal;font-size:7.99981px;font-family:'Courier New';-inkscape-font-specification:Courier;writing-mode:lr-tb;fill:#100f0d;fill-opacity:1;fill-rule:nonzero;stroke:none"
           id="text68"><tspan
             x="0"
             y="0"
             id="tspan66">}</tspan></text><text
           transform="matrix(1,0,0,-1,108.6422,241.78381)"
           style="font-variant:normal;font-weight:bold;font-size:7.99981px;font-family:'Courier New';-inkscape-font-specification:Courier-Bold;writing-mode:lr-tb;fill:#100f0d;fill-opacity:1;fill-rule:nonzero;stroke:none"
           id="text72"><tspan
             x="0 4.7998862 9.5997725 14.399658 19.199545 23.99943 28.799316 33.599201 38.39909 43.198975 47.998859 52.798744 57.598633 62.398518 67.198402 71.998291 76.79818 81.598061 86.397949 91.19783 95.997719 100.79761 105.59749 110.39738 115.19727 119.99715 124.79704"
             y="0"
             sodipodi:role="line"
             id="tspan70">message IconCollection {..}</tspan></text></g><g
         id="g74"
         transform="scale(10)"><text
           transform="matrix(1,0,0,-1,181.857,217.955)"
           style="font-variant:normal;font-weight:bold;font-size:8.99986px;font-family:Humanist521BT;-inkscape-font-specification:Humanist521BT-BoldCondensed;writing-mode:lr-tb;fill:#211c1c;fill-opacity:1;fill-rule:nonzero;stroke:none"
           id="text82"><tspan
             x="0 4.4369311 8.7838631 13.292793 17.252731 19.556696 23.156639 27.64757 31.697508 36.179436 40.283375 44.243313 47.744259 50.048222 53.045174 57.392109 59.696072 63.08902 67.048958 71.098892 75.607826 77.911789 81.961723 86.443657"
             y="0"
             sodipodi:role="line"
             id="tspan76">Code changes to read and</tspan><tspan
             x="0 5.7059112 9.0988588 11.231825 14.228779 18.188717 20.492682 23.489635 27.836567 30.140532 34.64946 38.996395 41.993347 46.484276 48.788242 51.101204 53.234173 57.194111 59.354076 63.863007"
             y="9.5"
             sodipodi:role="line"
             id="tspan78">write to both fields</tspan><tspan
             x="-0.082031302 4.6428952 9.1248255 13.606756 15.91072 22.651615 24.784582 28.888517 32.281464 36.331402 39.328354 41.461323 45.808254 50.290184 52.594151 55.591103 59.938034 64.284966 66.444931 68.748901 71.74585 76.092781 78.396751 82.905678 87.252609 91.761543 96.243469 98.403435 102.45338 105.45033"
             y="63.844101"
             sodipodi:role="line"
             id="tspan80">Run migration tool to populate</tspan></text></g><g
         id="g84"
         transform="scale(10)"><text
           transform="matrix(1,0,0,-1,181.775,144.611)"
           style="font-variant:normal;font-weight:bold;font-size:6.99976px;font-family:'Courier New';-inkscape-font-specification:Courier-Bold;writing-mode:lr-tb;fill:#100f0d;fill-opacity:1;fill-rule:nonzero;stroke:none"
           id="text88"><tspan
             x="0 4.1998558 8.3997116 12.599568 16.799423"
             y="0"
             sodipodi:role="line"
             id="tspan86">icons</tspan></text></g><g
         id="g90"
         transform="scale(10)"><text
           transform="matrix(1,0,0,-1,205.079,144.611)"
           style="font-variant:normal;font-weight:bold;font-size:8.99986px;font-family:Humanist521BT;-inkscape-font-specification:Humanist521BT-BoldCondensed;writing-mode:lr-tb;fill:#211c1c;fill-opacity:1;fill-rule:nonzero;stroke:none"
           id="text96"><tspan
             x="0 2.312964 4.445931 8.4058695 10.565836 15.074765 17.378729 19.691694 24.038626 27.431574 29.735537 33.785473 35.945442 38.105408 40.40937 43.910316 46.907269 51.254204 54.647148 58.60709 63.116016 65.419983 69.928909 73.978851 76.9758 81.025742"
             y="0"
             sodipodi:role="line"
             id="tspan92">field for all stored data.</tspan><tspan
             x="-23.3027 -18.577774 -14.617835 -7.8769398 -3.5300076 0.19593446 4.1558728 6.459837 10.509774 12.669741 14.829707 17.133671 20.526619 24.486557 26.79952 30.759459 34.152405 38.112343 42.594276 46.194218 50.154156 53.655102 55.959068 58.95602"
             y="55.946899"
             sodipodi:role="line"
             id="tspan94">Remove all references to</tspan></text></g><g
         id="g98"
         transform="scale(10)"><text
           transform="matrix(1,0,0,-1,181.777,79.1645)"
           style="font-variant:normal;font-weight:bold;font-size:6.99976px;font-family:'Courier New';-inkscape-font-specification:Courier-Bold;writing-mode:lr-tb;fill:#100f0d;fill-opacity:1;fill-rule:nonzero;stroke:none"
           id="text102"><tspan
             x="0 4.1998558 8.3997116 12.599568 16.799423 20.999281 25.199137 29.398993"
             y="0"
             sodipodi:role="line"
             id="tspan100">icon_png</tspan></text></g><g
         id="g104"
         transform="scale(10)"><text
           transform="matrix(1,0,0,-1,217.68,79.1645)"
           style="font-variant:normal;font-weight:bold;font-size:8.99986px;font-family:Humanist521BT;-inkscape-font-specification:Humanist521BT-BoldCondensed;writing-mode:lr-tb;fill:#211c1c;fill-opacity:1;fill-rule:nonzero;stroke:none"
           id="text118"><tspan
             x="0 2.312964 5.7059112 10.052844 16.793739 19.097702 22.598648 26.558586 30.284786 34.010727 37.970665 41.363613 43.66758 47.267521 51.614456 56.123383 60.083324"
             y="0"
             sodipodi:role="line"
             id="tspan106">from server code.</tspan><tspan
             x="-217.407 -212.16908 -208.20914 -202.50323 -200.19926 -195.71733 -191.23541 -186.75348 -183.25253 -179.29259 -174.78366 -172.47971 -170.16673 -168.03377 -164.07382 -161.91386"
             y="-195.067"
             sodipodi:role="line"
             id="tspan108">New unused field</tspan><tspan
             x="-217.407 -213.35706 -208.87514 -204.3662 -202.06224 -195.32135 -191.3614 -187.86046 -184.35951 -180.30957 -176.20564"
             y="-185.567"
             sodipodi:role="line"
             id="tspan110">and message</tspan><tspan
             x="-217.407 -213.44707 -209.39713 -202.65623 -198.69629 -196.39233 -192.89139 -189.29144 -184.80051 -180.84058 -174.09967 -170.04974 -167.74577 -163.69583 -160.19489 -157.89093 -153.38199 -149.42206 -147.1091 -142.76216 -139.36922 -135.40927"
             y="-121.8432"
             sodipodi:role="line"
             id="tspan112">Same schema as before,</tspan><tspan
             x="-217.407 -212.89807 -208.41614 -205.41919 -203.11522 -199.06529 -196.90532 -194.74535 -192.44139 -190.12842 -187.99545 -184.03552 -181.87555 -177.36662 -173.86568 -171.56171 -167.51178 -164.11884 -160.15889 -157.85492 -153.373 -149.02606 -143.32016 -141.01619 -136.53426 -133.03331 -129.07338 -124.56445"
             y="-112.3432"
             sodipodi:role="line"
             id="tspan114">but all fields are now used.</tspan><tspan
             x="-217.407 -213.44707 -209.10013 -202.35924 -198.39929 -196.09534 -192.59439 -189.59743 -185.2505 -181.85756 -177.89761 -173.38869 -171.08472 -166.57579 -162.52585 -159.5289 -155.47896 -153.175 -147.46909 -145.33612 -143.17615 -141.01619 -138.71222 -134.2213 -130.17136 -126.44541"
             y="-102.8432"
             sodipodi:role="line"
             id="tspan116">Some stored data will have</tspan></text></g><g
         id="g120"
         transform="scale(10)"><text
           transform="matrix(1,0,0,-1,0.273438,172.007)"
           style="font-variant:normal;font-weight:bold;font-size:6.99976px;font-family:'Courier New';-inkscape-font-specification:Courier-Bold;writing-mode:lr-tb;fill:#100f0d;fill-opacity:1;fill-rule:nonzero;stroke:none"
           id="text124"><tspan
             x="0 4.1998558 8.3997116 12.599568 16.799423"
             y="0"
             sodipodi:role="line"
             id="tspan122">icons</tspan></text></g><g
         id="g126"
         transform="scale(10)"><text
           transform="matrix(1,0,0,-1,23.5773,172.007)"
           style="font-variant:normal;font-weight:bold;font-size:8.99986px;font-family:Humanist521BT;-inkscape-font-specification:Humanist521BT-BoldCondensed;writing-mode:lr-tb;fill:#211c1c;fill-opacity:1;fill-rule:nonzero;stroke:none"
           id="text136"><tspan
             x="0 2.312964 4.445931 8.4058695 10.565836 15.074765 17.378729 21.887659 26.234592 30.743523 35.225452 37.385418 41.435356 44.432308 48.392246 52.901176 55.205143 59.255077 63.737007"
             y="0"
             sodipodi:role="line"
             id="tspan128">field populated and</tspan><tspan
             x="-23.3039 -19.802954 -15.456022 -8.715127 -4.7551885 -2.4512243 3.2546868 7.6016192 11.912917 14.099883 17.096836"
             y="9.5"
             sodipodi:role="line"
             id="tspan130">some won’t.</tspan><tspan
             x="-23.3039 -19.343962 -15.294024 -8.5531292 -4.5931911 -2.289227 1.2117187 4.8116627 9.3025932 13.262531 20.003426 24.053364 26.357328 30.407265 33.908211 36.212173 40.721104 44.681042 46.994007 51.340939 54.733887 58.693825"
             y="46.696899"
             sodipodi:role="line"
             id="tspan132">Same schema as before,</tspan><tspan
             x="-23.3039 -18.79497 -14.31304"
             y="56.196899"
             sodipodi:role="line"
             id="tspan134">but</tspan></text></g><g
         id="g138"
         transform="scale(10)"><text
           transform="matrix(1,0,0,-1,14.5645,115.811)"
           style="font-variant:normal;font-weight:bold;font-size:6.99976px;font-family:'Courier New';-inkscape-font-specification:Courier-Bold;writing-mode:lr-tb;fill:#100f0d;fill-opacity:1;fill-rule:nonzero;stroke:none"
           id="text142"><tspan
             x="0 4.1998558 8.3997116 12.599568 16.799423"
             y="0"
             sodipodi:role="line"
             id="tspan140">icons</tspan></text></g><g
         id="g144"
         transform="scale(10)"><text
           transform="matrix(1,0,0,-1,37.8684,115.811)"
           style="font-variant:normal;font-weight:bold;font-size:8.99986px;font-family:Humanist521BT;-inkscape-font-specification:Humanist521BT-BoldCondensed;writing-mode:lr-tb;fill:#211c1c;fill-opacity:1;fill-rule:nonzero;stroke:none"
           id="text152"><tspan
             x="0 2.312964 4.445931 8.4058695 10.565836 15.074765 17.378729 19.511696 23.012642 25.316607 29.366543 31.52651 37.232422 41.282356 45.053299"
             y="0"
             sodipodi:role="line"
             id="tspan146">field is always</tspan><tspan
             x="-37.594898 -33.085972 -28.739038 -24.230108 -19.748178 -17.588211 -13.538274 -10.541321 -6.5813823 -2.0724525"
             y="9.5"
             sodipodi:role="line"
             id="tspan148">populated.</tspan><tspan
             x="-37.593727 -33.543793 -29.05286"
             y="69.943001"
             sodipodi:role="line"
             id="tspan150">The</tspan></text></g><g
         id="g154"
         transform="scale(10)"><text
           transform="matrix(1,0,0,-1,15.0801,45.8676)"
           style="font-variant:normal;font-weight:bold;font-size:6.99976px;font-family:'Courier New';-inkscape-font-specification:Courier-Bold;writing-mode:lr-tb;fill:#100f0d;fill-opacity:1;fill-rule:nonzero;stroke:none"
           id="text158"><tspan
             x="0 4.1998558 8.3997116 12.599568 16.799423 20.999281 25.199137 29.398993"
             y="0"
             sodipodi:role="line"
             id="tspan156">icon_png</tspan></text></g><g
         id="g160"
         transform="scale(10)"><text
           transform="matrix(1,0,0,-1,50.9828,45.8676)"
           style="font-variant:normal;font-weight:bold;font-size:8.99986px;font-family:Humanist521BT;-inkscape-font-specification:Humanist521BT-BoldCondensed;writing-mode:lr-tb;fill:#211c1c;fill-opacity:1;fill-rule:nonzero;stroke:none"
           id="text170"><tspan
             x="0 2.312964 4.445931 8.4058695 10.565836 15.074765 17.378729 19.511696 23.012642 25.316607 29.420542 33.767475 38.249405 42.209343"
             y="0"
             sodipodi:role="line"
             id="tspan162">field is gone.</tspan><tspan
             x="-50.708199 -46.658264 -44.525295 -40.565357 -38.405392 -33.896461 -31.592497 -28.595545 -24.545607 -20.441671 -18.137707 -14.08777 -11.783806 -9.6508389 -6.1498933 -3.8459289 -0.45298177 3.5069566 7.0079021 10.96784 14.694962 18.420904 22.380842"
             y="9.5"
             sodipodi:role="line"
             id="tspan164">Field tag 2 is reserved</tspan><tspan
             x="-50.708199 -47.711246 -43.364315 -41.060349 -36.551422 -33.158474 -29.198534 -25.472593 -21.512653 -17.030724 -14.033771 -11.729806 -9.4168425 -4.9349122 -1.9379587 2.5439715 5.9369187"
             y="19"
             sodipodi:role="line"
             id="tspan166">to prevent future</tspan><tspan
             x="-50.708199 -47.315254 -43.355316 -38.873383 -35.37244 -31.4125"
             y="28.5"
             sodipodi:role="line"
             id="tspan168">reuse.</tspan></text></g><path
         d="m 1167.92,3405.7 h 1180.49 v 421.02 H 1167.92 Z"
         style="fill:none;stroke:#100f0d;stroke-width:5.0003;stroke-linecap:butt;stroke-linejoin:miter;stroke-miterlimit:10;stroke-dasharray:none;stroke-opacity:1"
         id="path172" /><path
         d="m 1041.09,2338.31 h 1434.16 v 767.48 H 1041.09 Z"
         style="fill:none;stroke:#100f0d;stroke-width:5.0003;stroke-linecap:butt;stroke-linejoin:miter;stroke-miterlimit:10;stroke-dasharray:none;stroke-opacity:1"
         id="path174" /><path
         d="m 1041.09,1714.36 h 1434.16 v 265.93 H 1041.09 Z"
         style="fill:none;stroke:#100f0d;stroke-width:5.0003;stroke-linecap:butt;stroke-linejoin:miter;stroke-miterlimit:10;stroke-dasharray:none;stroke-opacity:1"
         id="path176" /><path
         d="M 1041.64,1050.72 H 2474.7 v 269.25 H 1041.64 Z"
         style="fill:none;stroke:#100f0d;stroke-width:5.0003;stroke-linecap:butt;stroke-linejoin:miter;stroke-miterlimit:10;stroke-dasharray:none;stroke-opacity:1"
         id="path178" /><path
         d="m 1013.02,12.1836 h 1490.3 V 674.652 h -1490.3 z"
         style="fill:none;stroke:#100f0d;stroke-width:5.0003;stroke-linecap:butt;stroke-linejoin:miter;stroke-miterlimit:10;stroke-dasharray:none;stroke-opacity:1"
         id="path180" /><path
         d="M 1758.16,1050.72 V 718.953"
         style="fill:none;stroke:#100f0d;stroke-width:5.0003;stroke-linecap:butt;stroke-linejoin:miter;stroke-miterlimit:10;stroke-dasharray:none;stroke-opacity:1"
         id="path182" /><path
         d="m 1743.64,728.855 14.52,-54.203 14.54,54.203 z"
         style="fill:#100f0d;fill-opacity:1;fill-rule:nonzero;stroke:none"
         id="path184" /><path
         d="M 1758.16,1714.36 V 1364.27"
         style="fill:none;stroke:#100f0d;stroke-width:5.0003;stroke-linecap:butt;stroke-linejoin:miter;stroke-miterlimit:10;stroke-dasharray:none;stroke-opacity:1"
         id="path186" /><path
         d="m 1743.64,1374.16 14.52,-54.2 14.54,54.2 z"
         style="fill:#100f0d;fill-opacity:1;fill-rule:nonzero;stroke:none"
         id="path188" /><path
         d="M 1758.16,2338.31 V 2024.58"
         style="fill:none;stroke:#100f0d;stroke-width:5.0003;stroke-linecap:butt;stroke-linejoin:miter;stroke-miterlimit:10;stroke-dasharray:none;stroke-opacity:1"
         id="path190" /><path
         d="m 1743.64,2034.49 14.52,-54.2 14.54,54.2 z"
         style="fill:#100f0d;fill-opacity:1;fill-rule:nonzero;stroke:none"
         id="path192" /><path
         d="M 1758.16,3405.7 V 3150.09"
         style="fill:none;stroke:#100f0d;stroke-width:5.0003;stroke-linecap:butt;stroke-linejoin:miter;stroke-miterlimit:10;stroke-dasharray:none;stroke-opacity:1"
         id="path194" /><path
         d="m 1743.64,3160 14.52,-54.21 14.54,54.21 z"
         style="fill:#100f0d;fill-opacity:1;fill-rule:nonzero;stroke:none"
         id="path196" /></g></g></svg>
