<?xml version="1.0" encoding="UTF-8" standalone="no"?>
<!-- Created with Inkscape (http://www.inkscape.org/) -->

<svg
   version="1.1"
   id="svg2"
   xml:space="preserve"
   width="150.66667"
   height="50.666668"
   viewBox="0 0 150.66667 50.666668"
   sodipodi:docname="12-1.eps"
   xmlns:inkscape="http://www.inkscape.org/namespaces/inkscape"
   xmlns:sodipodi="http://sodipodi.sourceforge.net/DTD/sodipodi-0.dtd"
   xmlns="http://www.w3.org/2000/svg"
   xmlns:svg="http://www.w3.org/2000/svg"><defs
     id="defs6" /><sodipodi:namedview
     id="namedview4"
     pagecolor="#ffffff"
     bordercolor="#666666"
     borderopacity="1.0"
     inkscape:pageshadow="2"
     inkscape:pageopacity="0.0"
     inkscape:pagecheckerboard="0" /><g
     id="g8"
     inkscape:groupmode="layer"
     inkscape:label="ink_ext_XXXXXX"
     transform="matrix(1.3333333,0,0,-1.3333333,0,50.666667)"><g
       id="g10"
       transform="scale(0.1)"><g
         id="g12"
         transform="scale(10)"><text
           transform="matrix(1,0,0,-1,46.3852,31.9113)"
           style="font-variant:normal;font-weight:normal;font-size:6.99976px;font-family:Arial;-inkscape-font-specification:ArialMT;writing-mode:lr-tb;fill:#231f20;fill-opacity:1;fill-rule:nonzero;stroke:none"
           id="text16"><tspan
             x="0 3.8918664 5.8378 9.7296667 13.621533 15.567466"
             y="0"
             sodipodi:role="line"
             id="tspan14">2.13.4</tspan></text></g><g
         id="g18"
         transform="scale(10)"><text
           transform="matrix(1,0,0,-1,45.7707,0.688672)"
           style="font-variant:normal;font-weight:bold;font-size:8.99986px;font-family:Humanist521BT;-inkscape-font-specification:Humanist521BT-BoldCondensed;writing-mode:lr-tb;fill:#211d1d;fill-opacity:1;fill-rule:nonzero;stroke:none"
           id="text24"><tspan
             x="0 6.2909021 8.4238691 12.905799 17.252731"
             y="0"
             sodipodi:role="line"
             id="tspan20">Minor</tspan><tspan
             x="-45.414501 -39.123596 -35.073662 -32.949696 -28.602762 47.599232 51.8922 55.942139 58.939095 62.539036"
             y="-30.3652"
             sodipodi:role="line"
             id="tspan22">MajorPatch</tspan></text></g><path
         d="m 240.754,345.027 c 122.16,40.289 58.234,-57.976 162.707,-11.781"
         style="fill:none;stroke:#231f20;stroke-width:2.9991;stroke-linecap:butt;stroke-linejoin:round;stroke-miterlimit:4;stroke-dasharray:none;stroke-opacity:1"
         id="path26" /><path
         d="m 406.375,314.379 21.289,30.738 -37.262,3.071 z"
         style="fill:#231f20;fill-opacity:1;fill-rule:nonzero;stroke:none"
         id="path28" /><path
         d="m 544.098,97.707 c -57.637,73.539 11.875,66.832 3.941,160.289"
         style="fill:none;stroke:#231f20;stroke-width:2.9991;stroke-linecap:butt;stroke-linejoin:round;stroke-miterlimit:4;stroke-dasharray:none;stroke-opacity:1"
         id="path30" /><path
         d="M 566.723,254.953 544,284.645 529.641,250.117 Z"
         style="fill:#231f20;fill-opacity:1;fill-rule:nonzero;stroke:none"
         id="path32" /><path
         d="m 903.898,354.844 c -138.07,0 -49.882,-69.192 -192.152,-10.508"
         style="fill:none;stroke:#231f20;stroke-width:2.9991;stroke-linecap:butt;stroke-linejoin:round;stroke-miterlimit:4;stroke-dasharray:none;stroke-opacity:1"
         id="path34" /><path
         d="m 723.938,359.867 -37.032,-5.117 22.949,-29.52 z"
         style="fill:#231f20;fill-opacity:1;fill-rule:nonzero;stroke:none"
         id="path36" /></g></g></svg>
