<?xml version="1.0" encoding="UTF-8" standalone="no"?>
<!-- Created with Inkscape (http://www.inkscape.org/) -->

<svg
   version="1.1"
   id="svg2"
   xml:space="preserve"
   width="178.66667"
   height="42.666668"
   viewBox="0 0 178.66667 42.666668"
   sodipodi:docname="12-2.eps"
   xmlns:inkscape="http://www.inkscape.org/namespaces/inkscape"
   xmlns:sodipodi="http://sodipodi.sourceforge.net/DTD/sodipodi-0.dtd"
   xmlns="http://www.w3.org/2000/svg"
   xmlns:svg="http://www.w3.org/2000/svg"><defs
     id="defs6" /><sodipodi:namedview
     id="namedview4"
     pagecolor="#ffffff"
     bordercolor="#666666"
     borderopacity="1.0"
     inkscape:pageshadow="2"
     inkscape:pageopacity="0.0"
     inkscape:pagecheckerboard="0" /><g
     id="g8"
     inkscape:groupmode="layer"
     inkscape:label="ink_ext_XXXXXX"
     transform="matrix(1.3333333,0,0,-1.3333333,0,42.666667)"><g
       id="g10"
       transform="scale(0.1)"><g
         id="g12"
         transform="scale(10)"><text
           transform="matrix(1,0,0,-1,49.0648,26.0563)"
           style="font-variant:normal;font-weight:normal;font-size:6.99976px;font-family:Arial;-inkscape-font-specification:ArialMT;writing-mode:lr-tb;fill:#231f20;fill-opacity:1;fill-rule:nonzero;stroke:none"
           id="text16"><tspan
             x="0 3.8918664 5.8378 9.7296667 11.6756 15.567466 17.898386 21.790253 25.682119 27.628054 31.519918 33.465851"
             y="0"
             sodipodi:role="line"
             id="tspan14">1.4.5-beta.1</tspan></text></g><g
         id="g18"
         transform="scale(10)"><text
           transform="matrix(1,0,0,-1,-0.353906,2.84336)"
           style="font-variant:normal;font-weight:bold;font-size:8.99986px;font-family:Humanist521BT;-inkscape-font-specification:Humanist521BT-BoldCondensed;writing-mode:lr-tb;fill:#211d1d;fill-opacity:1;fill-rule:nonzero;stroke:none"
           id="text22"><tspan
             x="0 6.2909021 10.340839 12.464807 16.811739 19.286728 21.473694 28.214588 30.347555 34.829487 39.176418 41.651192 43.838158 48.347084 52.397022 55.393978 58.993919 75.184761 79.639839 83.032784 86.992722 89.791679 93.184624 97.144562 99.304527 103.26447 107.31441 110.81535 114.77529 117.07925 119.23922 123.28915 127.79809 131.75803"
             y="0"
             sodipodi:role="line"
             id="tspan20">Major.minor.patchPre-release label</tspan></text></g><path
         d="M 331.266,102.762 C 289.586,270.301 555.648,50.5352 556.715,217.117"
         style="fill:none;stroke:#231f20;stroke-width:2.9991;stroke-linecap:butt;stroke-linejoin:round;stroke-miterlimit:4;stroke-dasharray:none;stroke-opacity:1"
         id="path24" /><path
         d="m 575.105,212.586 -20.25,31.426 -17.101,-33.25 z"
         style="fill:#231f20;fill-opacity:1;fill-rule:nonzero;stroke:none"
         id="path26" /><path
         d="M 1031.9,102.762 C 1073.58,270.301 807.516,50.5352 806.445,217.117"
         style="fill:none;stroke:#231f20;stroke-width:2.9991;stroke-linecap:butt;stroke-linejoin:round;stroke-miterlimit:4;stroke-dasharray:none;stroke-opacity:1"
         id="path28" /><path
         d="m 825.199,210.773 -17.094,33.25 -20.253,-31.425 z"
         style="fill:#231f20;fill-opacity:1;fill-rule:nonzero;stroke:none"
         id="path30" /></g></g></svg>
