<?xml version="1.0" encoding="UTF-8" standalone="no"?>
<!-- Created with Inkscape (http://www.inkscape.org/) -->

<svg
   version="1.1"
   id="svg2"
   xml:space="preserve"
   width="249.33333"
   height="40"
   viewBox="0 0 249.33333 40"
   sodipodi:docname="12-3.eps"
   xmlns:inkscape="http://www.inkscape.org/namespaces/inkscape"
   xmlns:sodipodi="http://sodipodi.sourceforge.net/DTD/sodipodi-0.dtd"
   xmlns="http://www.w3.org/2000/svg"
   xmlns:svg="http://www.w3.org/2000/svg"><defs
     id="defs6" /><sodipodi:namedview
     id="namedview4"
     pagecolor="#ffffff"
     bordercolor="#666666"
     borderopacity="1.0"
     inkscape:pageshadow="2"
     inkscape:pageopacity="0.0"
     inkscape:pagecheckerboard="0" /><g
     id="g8"
     inkscape:groupmode="layer"
     inkscape:label="ink_ext_XXXXXX"
     transform="matrix(1.3333333,0,0,-1.3333333,0,40)"><g
       id="g10"
       transform="scale(0.1)"><g
         id="g12"
         transform="scale(10)"><text
           transform="matrix(1,0,0,-1,60.2148,24.7734)"
           style="font-variant:normal;font-weight:normal;font-size:6.99976px;font-family:Arial;-inkscape-font-specification:ArialMT;writing-mode:lr-tb;fill:#231f20;fill-opacity:1;fill-rule:nonzero;stroke:none"
           id="text16"><tspan
             x="0 3.8918664 5.8378 9.7296667 11.6756 15.567466 17.898386 21.790253 25.682119 27.628054 31.519918 33.465851 37.357719 41.44558 45.337444 49.229313 53.121178 57.013046 60.904911 64.796776 68.688644 72.580513 74.526443 78.418312 80.364243 84.256111 88.14798 92.039841 95.931709"
             y="0"
             sodipodi:role="line"
             id="tspan14">1.2.3-beta.1+20210321.af25738</tspan></text></g><g
         id="g18"
         transform="scale(10)"><text
           transform="matrix(1,0,0,-1,0.0144531,2.06367)"
           style="font-variant:normal;font-weight:bold;font-size:8.99986px;font-family:Humanist521BT;-inkscape-font-specification:Humanist521BT-BoldCondensed;writing-mode:lr-tb;fill:#211d1d;fill-opacity:1;fill-rule:nonzero;stroke:none"
           id="text22"><tspan
             x="0 6.2909021 10.340839 12.464807 16.811739 19.286728 21.473694 28.214588 30.347555 34.829487 39.176418 41.651192 43.838158 48.347084 52.397022 55.393978 58.993919 68.164879 72.620346 76.01329 79.973228 83.36618 87.326118 89.486084 93.446022 97.495956 100.9969 104.95684 107.2608 109.42078 113.47071 117.97964 121.93958 133.00983 137.85176 142.33368 144.46664 146.62662 151.13554 153.43951 160.1804 164.14035 167.1373 171.18724 175.69617 179.74611 182.74306"
             y="0"
             sodipodi:role="line"
             id="tspan20">Major.minor.patchPrerelease labelBuild metadata</tspan></text></g><path
         d="m 960.504,96.0508 c -1.531,70.8472 -53.91,44.2462 -64.047,94.8042"
         style="fill:none;stroke:#231f20;stroke-width:2.9991;stroke-linecap:butt;stroke-linejoin:round;stroke-miterlimit:4;stroke-dasharray:none;stroke-opacity:1"
         id="path24" /><path
         d="M 916.242,187.047 894.871,217.73 878.984,183.871 Z"
         style="fill:#231f20;fill-opacity:1;fill-rule:nonzero;stroke:none"
         id="path26" /><path
         d="m 1661.77,96.0508 c -41.72,64.5702 -259,11.6212 -334.18,99.0622"
         style="fill:none;stroke:#231f20;stroke-width:2.9991;stroke-linecap:butt;stroke-linejoin:round;stroke-miterlimit:4;stroke-dasharray:none;stroke-opacity:1"
         id="path28" /><path
         d="m 1346.61,201.48 -33.72,16.2 2.82,-37.285 z"
         style="fill:#231f20;fill-opacity:1;fill-rule:nonzero;stroke:none"
         id="path30" /><path
         d="M 345.078,95.6406 C 386.801,160.211 604.09,107.262 679.266,194.703"
         style="fill:none;stroke:#231f20;stroke-width:2.9991;stroke-linecap:butt;stroke-linejoin:round;stroke-miterlimit:4;stroke-dasharray:none;stroke-opacity:1"
         id="path32" /><path
         d="m 690.969,180.102 2.82,37.277 -33.703,-16.203 z"
         style="fill:#231f20;fill-opacity:1;fill-rule:nonzero;stroke:none"
         id="path34" /></g></g></svg>
