<?xml version="1.0" encoding="UTF-8" standalone="no"?>
<!-- Created with Inkscape (http://www.inkscape.org/) -->

<svg
   version="1.1"
   id="svg2"
   xml:space="preserve"
   width="310.66666"
   height="208"
   viewBox="0 0 310.66666 208"
   sodipodi:docname="12-9.eps"
   xmlns:inkscape="http://www.inkscape.org/namespaces/inkscape"
   xmlns:sodipodi="http://sodipodi.sourceforge.net/DTD/sodipodi-0.dtd"
   xmlns="http://www.w3.org/2000/svg"
   xmlns:svg="http://www.w3.org/2000/svg"><defs
     id="defs6" /><sodipodi:namedview
     id="namedview4"
     pagecolor="#ffffff"
     bordercolor="#666666"
     borderopacity="1.0"
     inkscape:pageshadow="2"
     inkscape:pageopacity="0.0"
     inkscape:pagecheckerboard="0" /><g
     id="g8"
     inkscape:groupmode="layer"
     inkscape:label="ink_ext_XXXXXX"
     transform="matrix(1.3333333,0,0,-1.3333333,0,208)"><g
       id="g10"
       transform="scale(0.1)"><path
         d="m 1615.94,1549.04 c 163.82,0 296.62,-132.8 296.62,-296.61 0,-163.82 -132.8,-296.629 -296.62,-296.629 -163.82,0 -296.62,132.809 -296.62,296.629 0,163.81 132.8,296.61 296.62,296.61"
         style="fill:#c9e4f3;fill-opacity:1;fill-rule:nonzero;stroke:none"
         id="path12" /><path
         d="m 1615.94,1549.04 c 163.82,0 296.62,-132.8 296.62,-296.61 0,-163.82 -132.8,-296.629 -296.62,-296.629 -163.82,0 -296.62,132.809 -296.62,296.629 0,163.81 132.8,296.61 296.62,296.61 z"
         style="fill:none;stroke:#100f0d;stroke-width:5.0003;stroke-linecap:butt;stroke-linejoin:miter;stroke-miterlimit:4;stroke-dasharray:none;stroke-opacity:1"
         id="path14" /><path
         d="M 1477.7,669.688 1592.68,478.082 1787.02,680.641 1710.37,426.07 1992.31,440.863 1800.7,319.313 1992.31,108.551 1762.38,209.832 1587.2,9.85547 1548.88,193.41 1286.09,86.6523 1437.83,288.633 1239.56,426.07 l 233.14,34.442 5,209.176"
         style="fill:#c9e4f3;fill-opacity:1;fill-rule:nonzero;stroke:none"
         id="path16" /><path
         d="M 1477.7,669.688 1592.68,478.082 1787.02,680.641 1710.37,426.07 1992.31,440.863 1800.7,319.313 1992.31,108.551 1762.38,209.832 1587.2,9.85547 1548.88,193.41 1286.09,86.6523 1437.83,288.633 1239.56,426.07 1472.7,460.512 Z"
         style="fill:none;stroke:#100f0d;stroke-width:5.0003;stroke-linecap:butt;stroke-linejoin:miter;stroke-miterlimit:4;stroke-dasharray:none;stroke-opacity:1"
         id="path18" /><path
         d="m 250.625,1538.09 114.969,-191.61 194.347,202.56 -76.652,-254.57 281.945,14.8 L 573.621,1187.72 765.234,976.957 535.301,1078.23 360.117,878.262 321.797,1061.8 59.0078,955.047 210.75,1157.04 12.4805,1294.47 l 233.1445,34.44 5,209.18"
         style="fill:#c9e4f3;fill-opacity:1;fill-rule:nonzero;stroke:none"
         id="path20" /><path
         d="m 250.625,1538.09 114.969,-191.61 194.347,202.56 -76.652,-254.57 281.945,14.8 L 573.621,1187.72 765.234,976.957 535.301,1078.23 360.117,878.262 321.797,1061.8 59.0078,955.047 210.75,1157.04 12.4805,1294.47 245.625,1328.91 Z"
         style="fill:none;stroke:#100f0d;stroke-width:5.0003;stroke-linecap:butt;stroke-linejoin:miter;stroke-miterlimit:4;stroke-dasharray:none;stroke-opacity:1"
         id="path22" /><path
         d="M 815.176,1300.05 H 1185.75"
         style="fill:none;stroke:#100f0d;stroke-width:5.0003;stroke-linecap:butt;stroke-linejoin:miter;stroke-miterlimit:10;stroke-dasharray:none;stroke-opacity:1"
         id="path24" /><path
         d="m 1175.85,1285.51 54.2,14.54 -54.2,14.52 z"
         style="fill:#100f0d;fill-opacity:1;fill-rule:nonzero;stroke:none"
         id="path26" /><path
         d="M 1180.29,1213.65 H 874.441 V 196.004 h 355.609"
         style="fill:none;stroke:#100f0d;stroke-width:5.0003;stroke-linecap:butt;stroke-linejoin:miter;stroke-miterlimit:10;stroke-dasharray:none;stroke-opacity:1"
         id="path28" /><path
         d="m 1170.38,1228.17 54.21,-14.52 -54.21,-14.52 z"
         style="fill:#100f0d;fill-opacity:1;fill-rule:nonzero;stroke:none"
         id="path30" /><path
         d="m 1970.14,1213.65 h 350.14 V 196.004 h -311.32"
         style="fill:none;stroke:#100f0d;stroke-width:5.0003;stroke-linecap:butt;stroke-linejoin:miter;stroke-miterlimit:10;stroke-dasharray:none;stroke-opacity:1"
         id="path32" /><path
         d="m 2018.88,210.523 -54.21,-14.519 54.21,-14.527 z"
         style="fill:#100f0d;fill-opacity:1;fill-rule:nonzero;stroke:none"
         id="path34" /><g
         id="g36"
         transform="scale(10)"><text
           transform="matrix(1,0,0,-1,21.9609,122.459)"
           style="font-variant:normal;font-weight:normal;font-size:6.99976px;font-family:Arial;-inkscape-font-specification:ArialMT;writing-mode:lr-tb;fill:#211c1c;fill-opacity:1;fill-rule:nonzero;stroke:none"
           id="text56"><tspan
             x="0 4.6688399 6.9997602 10.891626 13.222547 17.114412 18.66836 22.560226 26.452093 29.951973"
             y="0"
             sodipodi:role="line"
             id="tspan38">Prerelease</tspan><tspan
             x="5.8359399 9.7278061 12.058726 15.950593 18.281513 22.17338 24.119312"
             y="8.4003897"
             sodipodi:role="line"
             id="tspan40">pre-1.0</tspan><tspan
             x="117.25794 121.92678 123.87271 127.76458 131.65645 133.21039 137.10226 139.04819 141.37912 145.27098 146.82492 150.7168 154.60866 158.10854"
             y="-1.14922"
             sodipodi:role="line"
             id="tspan42">Stable release</tspan><tspan
             x="122.70794 127.37678 129.7077 133.59956 135.93048 139.82236 141.3763 145.26817 149.16003 152.65991"
             y="86.840981"
             sodipodi:role="line"
             id="tspan44">Prerelease</tspan><tspan
             x="126.98724 130.8791 134.77097 138.27086 140.21678 142.5477 146.43958 148.38551"
             y="95.24176"
             sodipodi:role="line"
             id="tspan46">post-1.0</tspan><tspan
             x="68.841942 73.51078 75.456711 79.348579 83.240448 84.794395 86.348343 87.902283 91.402168 95.294029 97.239967 101.13184 105.0237"
             y="49.64336"
             sodipodi:role="line"
             id="tspan48">Stabilize new</tspan><tspan
             x="76.817719 78.763657 82.655518 86.547386 88.493317 92.385185 94.716103 98.607971"
             y="58.043751"
             sodipodi:role="line"
             id="tspan50">features</tspan><tspan
             x="167.39893 172.06776 175.95963 179.85149 181.79742 183.74336 187.63522 191.5271 193.47302 197.3649 199.69582 203.58768"
             y="49.64336"
             sodipodi:role="line"
             id="tspan52">Add features</tspan><tspan
             x="171.68291 174.01382 177.90569 181.79755 185.29744 187.24336 191.13524 195.0271 196.58104 200.47292"
             y="58.043751"
             sodipodi:role="line"
             id="tspan54">(unstable)</tspan></text></g></g></g></svg>
